<svg xmlns="http://www.w3.org/2000/svg" width="907.361" height="736" viewBox="0 0 907.361 736">
  <g id="Grupo_8352" data-name="Grupo 8352" transform="translate(-110 -732)">
    <g id="Grupo_8348" data-name="Grupo 8348">
      <g id="Grupo_7496" data-name="Grupo 7496" transform="translate(0 45)">
        <g id="Elipse_515" data-name="Elipse 515" transform="translate(529 687)" fill="#fed97b" stroke="#00a99a" stroke-width="1">
          <circle cx="61.5" cy="61.5" r="61.5" stroke="none"/>
          <circle cx="61.5" cy="61.5" r="61" fill="none"/>
        </g>
        <path id="Trazado_11482" data-name="Trazado 11482" d="M142.4,326.178s16.549-16.549,33.411,0c0,0,16-16.627,32.627,0,0,0,17.988-15.776,33.764,0" transform="translate(399.349 424.04)" fill="none" stroke="#00a99a" stroke-miterlimit="10" stroke-width="4" stroke-dasharray="3"/>
      </g>
      <path id="Trazado_13315" data-name="Trazado 13315" d="M-57.529-3.965A3.691,3.691,0,0,1-58.921-.918,6.045,6.045,0,0,1-62.793.2a9.094,9.094,0,0,1-4.043-.859V-3.477a16.661,16.661,0,0,0,2.446.908,7.239,7.239,0,0,0,1.831.264,2.6,2.6,0,0,0,1.528-.381A1.3,1.3,0,0,0-60.5-3.818a1.251,1.251,0,0,0-.234-.747,2.623,2.623,0,0,0-.688-.63,17.707,17.707,0,0,0-1.851-.967,8.771,8.771,0,0,1-1.963-1.182,4.436,4.436,0,0,1-1.045-1.318,3.762,3.762,0,0,1-.391-1.758A3.69,3.69,0,0,1-65.386-13.4a5.336,5.336,0,0,1,3.55-1.084,8.383,8.383,0,0,1,2.124.264,14.6,14.6,0,0,1,2.114.742l-.977,2.354a14.288,14.288,0,0,0-1.89-.654,6.082,6.082,0,0,0-1.47-.186,1.946,1.946,0,0,0-1.318.4,1.321,1.321,0,0,0-.459,1.045,1.293,1.293,0,0,0,.186.7,2.04,2.04,0,0,0,.591.576,18.268,18.268,0,0,0,1.919,1,7.635,7.635,0,0,1,2.744,1.919A3.745,3.745,0,0,1-57.529-3.965ZM-50.654-9a1.889,1.889,0,0,0-1.484.6,2.78,2.78,0,0,0-.615,1.7h4.18a2.483,2.483,0,0,0-.576-1.7A1.951,1.951,0,0,0-50.654-9Zm.42,9.2A5.635,5.635,0,0,1-54.355-1.26,5.509,5.509,0,0,1-55.84-5.381a6.06,6.06,0,0,1,1.372-4.243,4.886,4.886,0,0,1,3.794-1.5A4.809,4.809,0,0,1-47.07-9.8a4.988,4.988,0,0,1,1.289,3.643v1.445h-7.041a2.867,2.867,0,0,0,.752,1.982,2.646,2.646,0,0,0,1.973.713,8.189,8.189,0,0,0,1.865-.205A9.333,9.333,0,0,0-46.4-2.881v2.3A6.994,6.994,0,0,1-48.066,0,10.529,10.529,0,0,1-50.234.2Zm15.527,0A3.546,3.546,0,0,1-37.729-1.3a6.869,6.869,0,0,1-1.1-4.141A6.876,6.876,0,0,1-37.71-9.624a3.632,3.632,0,0,1,3.081-1.5,3.562,3.562,0,0,1,3.145,1.6h.1a12.177,12.177,0,0,1-.225-2.178v-3.5h2.988V0h-2.285l-.576-1.416h-.127A3.408,3.408,0,0,1-34.707.2Zm1.045-2.373a2.018,2.018,0,0,0,1.675-.664A3.863,3.863,0,0,0-31.406-5.1V-5.42a4.464,4.464,0,0,0-.542-2.52A2.013,2.013,0,0,0-33.711-8.7a1.748,1.748,0,0,0-1.548.845A4.507,4.507,0,0,0-35.811-5.4a4.271,4.271,0,0,0,.557,2.417A1.819,1.819,0,0,0-33.662-2.178Zm8.027-11.562q0-1.455,1.621-1.455t1.621,1.455a1.419,1.419,0,0,1-.405,1.079,1.7,1.7,0,0,1-1.216.386Q-25.635-12.275-25.635-13.74ZM-22.529,0h-2.979V-10.918h2.979Zm5.723,0-4.16-10.918h3.115L-15.742-4.7A11.1,11.1,0,0,1-15.3-2.461h.059A9.725,9.725,0,0,1-14.8-4.7l2.1-6.221H-9.59L-13.75,0Zm8.652-13.74q0-1.455,1.621-1.455t1.621,1.455a1.419,1.419,0,0,1-.405,1.079,1.7,1.7,0,0,1-1.216.386Q-8.154-12.275-8.154-13.74ZM-5.049,0H-8.027V-10.918h2.979ZM1.533.2A3.546,3.546,0,0,1-1.489-1.3a6.869,6.869,0,0,1-1.1-4.141A6.876,6.876,0,0,1-1.47-9.624a3.632,3.632,0,0,1,3.081-1.5,3.562,3.562,0,0,1,3.145,1.6h.1A12.177,12.177,0,0,1,4.629-11.7v-3.5H7.617V0H5.332L4.756-1.416H4.629A3.408,3.408,0,0,1,1.533.2ZM2.578-2.178a2.018,2.018,0,0,0,1.675-.664A3.863,3.863,0,0,0,4.834-5.1V-5.42a4.464,4.464,0,0,0-.542-2.52A2.013,2.013,0,0,0,2.529-8.7a1.748,1.748,0,0,0-1.548.845A4.507,4.507,0,0,0,.43-5.4,4.271,4.271,0,0,0,.986-2.983,1.819,1.819,0,0,0,2.578-2.178ZM15.254-9a1.889,1.889,0,0,0-1.484.6,2.78,2.78,0,0,0-.615,1.7h4.18a2.483,2.483,0,0,0-.576-1.7A1.951,1.951,0,0,0,15.254-9Zm.42,9.2A5.635,5.635,0,0,1,11.553-1.26a5.509,5.509,0,0,1-1.484-4.121A6.06,6.06,0,0,1,11.44-9.624a4.886,4.886,0,0,1,3.794-1.5,4.809,4.809,0,0,1,3.6,1.318,4.988,4.988,0,0,1,1.289,3.643v1.445H13.086a2.867,2.867,0,0,0,.752,1.982,2.646,2.646,0,0,0,1.973.713,8.189,8.189,0,0,0,1.865-.205,9.333,9.333,0,0,0,1.836-.654v2.3A6.994,6.994,0,0,1,17.842,0,10.529,10.529,0,0,1,15.674.2ZM32.266-9a1.889,1.889,0,0,0-1.484.6,2.78,2.78,0,0,0-.615,1.7h4.18a2.483,2.483,0,0,0-.576-1.7A1.951,1.951,0,0,0,32.266-9Zm.42,9.2A5.635,5.635,0,0,1,28.564-1.26,5.509,5.509,0,0,1,27.08-5.381a6.06,6.06,0,0,1,1.372-4.243,4.886,4.886,0,0,1,3.794-1.5A4.809,4.809,0,0,1,35.85-9.8a4.988,4.988,0,0,1,1.289,3.643v1.445H30.1a2.867,2.867,0,0,0,.752,1.982,2.646,2.646,0,0,0,1.973.713,8.189,8.189,0,0,0,1.865-.205,9.333,9.333,0,0,0,1.836-.654v2.3A6.994,6.994,0,0,1,34.854,0,10.529,10.529,0,0,1,32.686.2ZM49.639,0H46.66V-6.377a3.063,3.063,0,0,0-.42-1.772A1.528,1.528,0,0,0,44.9-8.74a2.011,2.011,0,0,0-1.807.835,5.178,5.178,0,0,0-.557,2.769V0H39.561V-10.918h2.275l.4,1.4H42.4a3.148,3.148,0,0,1,1.372-1.2,4.672,4.672,0,0,1,1.987-.405,3.818,3.818,0,0,1,2.891,1.03,4.134,4.134,0,0,1,.986,2.974ZM66.563-11.084a3.36,3.36,0,0,1-.811,2.275A4.2,4.2,0,0,1,63.477-7.52v.059a4.547,4.547,0,0,1,2.617,1.05,2.941,2.941,0,0,1,.889,2.251A3.814,3.814,0,0,1,65.488-.952,6.887,6.887,0,0,1,61.221.2,10.362,10.362,0,0,1,57.1-.576V-3.145a9.314,9.314,0,0,0,1.826.684A7.685,7.685,0,0,0,60.9-2.2a3.836,3.836,0,0,0,2.207-.508,1.864,1.864,0,0,0,.713-1.631A1.473,1.473,0,0,0,63-5.762a6.069,6.069,0,0,0-2.617-.42H59.3V-8.5h1.1a5.132,5.132,0,0,0,2.427-.435,1.569,1.569,0,0,0,.767-1.489q0-1.621-2.031-1.621a4.649,4.649,0,0,0-1.431.234A6.989,6.989,0,0,0,58.516-11l-1.4-2.08a7.759,7.759,0,0,1,4.658-1.406,6.015,6.015,0,0,1,3.5.9A2.881,2.881,0,0,1,66.563-11.084Z" transform="translate(780 800)" fill="#00223d"/>
      <path id="Trazado_11497" data-name="Trazado 11497" d="M1.934-17.688V-22.5H23.752v4.812Zm0,8.5V-14H23.752v4.812Z" transform="translate(674.066 809.5)" fill="#00a99a"/>
    </g>
    <g id="Grupo_8343" data-name="Grupo 8343">
      <g id="Grupo_7491" data-name="Grupo 7491" transform="translate(0 45)">
        <g id="Elipse_514" data-name="Elipse 514" transform="translate(110 687)" fill="#fed97b" stroke="#00a99a" stroke-width="1">
          <circle cx="61.5" cy="61.5" r="61.5" stroke="none"/>
          <circle cx="61.5" cy="61.5" r="61" fill="none"/>
        </g>
        <path id="Trazado_11481" data-name="Trazado 11481" d="M142.4,274.576s24.583-24.583,49.631,0c0,0,23.767-24.7,48.466,0" transform="translate(-21.651 475.453)" fill="none" stroke="#00a99a" stroke-miterlimit="10" stroke-width="4" stroke-dasharray="3"/>
      </g>
      <path id="Trazado_13310" data-name="Trazado 13310" d="M-57.529-3.965A3.691,3.691,0,0,1-58.921-.918,6.045,6.045,0,0,1-62.793.2a9.094,9.094,0,0,1-4.043-.859V-3.477a16.661,16.661,0,0,0,2.446.908,7.239,7.239,0,0,0,1.831.264,2.6,2.6,0,0,0,1.528-.381A1.3,1.3,0,0,0-60.5-3.818a1.251,1.251,0,0,0-.234-.747,2.623,2.623,0,0,0-.688-.63,17.707,17.707,0,0,0-1.851-.967,8.771,8.771,0,0,1-1.963-1.182,4.436,4.436,0,0,1-1.045-1.318,3.762,3.762,0,0,1-.391-1.758A3.69,3.69,0,0,1-65.386-13.4a5.336,5.336,0,0,1,3.55-1.084,8.383,8.383,0,0,1,2.124.264,14.6,14.6,0,0,1,2.114.742l-.977,2.354a14.288,14.288,0,0,0-1.89-.654,6.082,6.082,0,0,0-1.47-.186,1.946,1.946,0,0,0-1.318.4,1.321,1.321,0,0,0-.459,1.045,1.293,1.293,0,0,0,.186.7,2.04,2.04,0,0,0,.591.576,18.268,18.268,0,0,0,1.919,1,7.635,7.635,0,0,1,2.744,1.919A3.745,3.745,0,0,1-57.529-3.965ZM-50.654-9a1.889,1.889,0,0,0-1.484.6,2.78,2.78,0,0,0-.615,1.7h4.18a2.483,2.483,0,0,0-.576-1.7A1.951,1.951,0,0,0-50.654-9Zm.42,9.2A5.635,5.635,0,0,1-54.355-1.26,5.509,5.509,0,0,1-55.84-5.381a6.06,6.06,0,0,1,1.372-4.243,4.886,4.886,0,0,1,3.794-1.5A4.809,4.809,0,0,1-47.07-9.8a4.988,4.988,0,0,1,1.289,3.643v1.445h-7.041a2.867,2.867,0,0,0,.752,1.982,2.646,2.646,0,0,0,1.973.713,8.189,8.189,0,0,0,1.865-.205A9.333,9.333,0,0,0-46.4-2.881v2.3A6.994,6.994,0,0,1-48.066,0,10.529,10.529,0,0,1-50.234.2Zm15.527,0A3.546,3.546,0,0,1-37.729-1.3a6.869,6.869,0,0,1-1.1-4.141A6.876,6.876,0,0,1-37.71-9.624a3.632,3.632,0,0,1,3.081-1.5,3.562,3.562,0,0,1,3.145,1.6h.1a12.177,12.177,0,0,1-.225-2.178v-3.5h2.988V0h-2.285l-.576-1.416h-.127A3.408,3.408,0,0,1-34.707.2Zm1.045-2.373a2.018,2.018,0,0,0,1.675-.664A3.863,3.863,0,0,0-31.406-5.1V-5.42a4.464,4.464,0,0,0-.542-2.52A2.013,2.013,0,0,0-33.711-8.7a1.748,1.748,0,0,0-1.548.845A4.507,4.507,0,0,0-35.811-5.4a4.271,4.271,0,0,0,.557,2.417A1.819,1.819,0,0,0-33.662-2.178Zm8.027-11.562q0-1.455,1.621-1.455t1.621,1.455a1.419,1.419,0,0,1-.405,1.079,1.7,1.7,0,0,1-1.216.386Q-25.635-12.275-25.635-13.74ZM-22.529,0h-2.979V-10.918h2.979Zm5.723,0-4.16-10.918h3.115L-15.742-4.7A11.1,11.1,0,0,1-15.3-2.461h.059A9.725,9.725,0,0,1-14.8-4.7l2.1-6.221H-9.59L-13.75,0Zm8.652-13.74q0-1.455,1.621-1.455t1.621,1.455a1.419,1.419,0,0,1-.405,1.079,1.7,1.7,0,0,1-1.216.386Q-8.154-12.275-8.154-13.74ZM-5.049,0H-8.027V-10.918h2.979ZM1.533.2A3.546,3.546,0,0,1-1.489-1.3a6.869,6.869,0,0,1-1.1-4.141A6.876,6.876,0,0,1-1.47-9.624a3.632,3.632,0,0,1,3.081-1.5,3.562,3.562,0,0,1,3.145,1.6h.1A12.177,12.177,0,0,1,4.629-11.7v-3.5H7.617V0H5.332L4.756-1.416H4.629A3.408,3.408,0,0,1,1.533.2ZM2.578-2.178a2.018,2.018,0,0,0,1.675-.664A3.863,3.863,0,0,0,4.834-5.1V-5.42a4.464,4.464,0,0,0-.542-2.52A2.013,2.013,0,0,0,2.529-8.7a1.748,1.748,0,0,0-1.548.845A4.507,4.507,0,0,0,.43-5.4,4.271,4.271,0,0,0,.986-2.983,1.819,1.819,0,0,0,2.578-2.178ZM15.254-9a1.889,1.889,0,0,0-1.484.6,2.78,2.78,0,0,0-.615,1.7h4.18a2.483,2.483,0,0,0-.576-1.7A1.951,1.951,0,0,0,15.254-9Zm.42,9.2A5.635,5.635,0,0,1,11.553-1.26a5.509,5.509,0,0,1-1.484-4.121A6.06,6.06,0,0,1,11.44-9.624a4.886,4.886,0,0,1,3.794-1.5,4.809,4.809,0,0,1,3.6,1.318,4.988,4.988,0,0,1,1.289,3.643v1.445H13.086a2.867,2.867,0,0,0,.752,1.982,2.646,2.646,0,0,0,1.973.713,8.189,8.189,0,0,0,1.865-.205,9.333,9.333,0,0,0,1.836-.654v2.3A6.994,6.994,0,0,1,17.842,0,10.529,10.529,0,0,1,15.674.2ZM32.266-9a1.889,1.889,0,0,0-1.484.6,2.78,2.78,0,0,0-.615,1.7h4.18a2.483,2.483,0,0,0-.576-1.7A1.951,1.951,0,0,0,32.266-9Zm.42,9.2A5.635,5.635,0,0,1,28.564-1.26,5.509,5.509,0,0,1,27.08-5.381a6.06,6.06,0,0,1,1.372-4.243,4.886,4.886,0,0,1,3.794-1.5A4.809,4.809,0,0,1,35.85-9.8a4.988,4.988,0,0,1,1.289,3.643v1.445H30.1a2.867,2.867,0,0,0,.752,1.982,2.646,2.646,0,0,0,1.973.713,8.189,8.189,0,0,0,1.865-.205,9.333,9.333,0,0,0,1.836-.654v2.3A6.994,6.994,0,0,1,34.854,0,10.529,10.529,0,0,1,32.686.2ZM49.639,0H46.66V-6.377a3.063,3.063,0,0,0-.42-1.772A1.528,1.528,0,0,0,44.9-8.74a2.011,2.011,0,0,0-1.807.835,5.178,5.178,0,0,0-.557,2.769V0H39.561V-10.918h2.275l.4,1.4H42.4a3.148,3.148,0,0,1,1.372-1.2,4.672,4.672,0,0,1,1.987-.405,3.818,3.818,0,0,1,2.891,1.03,4.134,4.134,0,0,1,.986,2.974Zm17.48,0h-9.98V-2.1l3.584-3.623q1.592-1.631,2.08-2.261a4.972,4.972,0,0,0,.7-1.167,2.971,2.971,0,0,0,.215-1.113,1.622,1.622,0,0,0-.474-1.279,1.837,1.837,0,0,0-1.265-.42,3.637,3.637,0,0,0-1.611.381A8.316,8.316,0,0,0,58.74-10.5L57.1-12.441a10.7,10.7,0,0,1,1.748-1.27,6.417,6.417,0,0,1,1.514-.571,7.756,7.756,0,0,1,1.836-.2,5.436,5.436,0,0,1,2.363.488,3.77,3.77,0,0,1,1.592,1.367,3.632,3.632,0,0,1,.566,2.012,4.924,4.924,0,0,1-.347,1.851A7.105,7.105,0,0,1,65.3-6.992,26.262,26.262,0,0,1,62.734-4.4L60.9-2.676v.137h6.221Z" transform="translate(367 800)" fill="#00223d"/>
      <path id="Trazado_11498" data-name="Trazado 11498" d="M1.934-17.688V-22.5H23.752v4.812Zm0,8.5V-14H23.752v4.812Z" transform="translate(252.066 809.5)" fill="#00a99a"/>
    </g>
    <g id="Grupo_8344" data-name="Grupo 8344">
      <path id="Trazado_11483" data-name="Trazado 11483" d="M158.188,223.547" transform="translate(95.312 702.453)" fill="#fff" stroke="#161615" stroke-miterlimit="10" stroke-width="3"/>
      <g id="Grupo_7492" data-name="Grupo 7492" transform="translate(0 43)">
        <g id="Elipse_516" data-name="Elipse 516" transform="translate(110 836)" fill="#fed97b" stroke="#00a99a" stroke-width="1">
          <circle cx="61.5" cy="61.5" r="61.5" stroke="none"/>
          <circle cx="61.5" cy="61.5" r="61" fill="none"/>
        </g>
        <path id="Trazado_11484" data-name="Trazado 11484" d="M163.605,369.333l5.822-5.194v27.383l6.648-5.932" transform="translate(-37.651 521.361)" fill="none" stroke="#00a99a" stroke-miterlimit="10" stroke-width="3"/>
        <path id="Trazado_11485" data-name="Trazado 11485" d="M205.115,383.969l-8.481-4.169H226.1l-3.953-3.953" transform="translate(-43.512 519.283)" fill="none" stroke="#00a99a" stroke-miterlimit="10" stroke-width="3"/>
        <path id="Trazado_11486" data-name="Trazado 11486" d="M258.34,381.672l-3.162,8.481,20.771-20.771v7.978" transform="translate(-53.902 520.431)" fill="none" stroke="#00a99a" stroke-miterlimit="10" stroke-width="3"/>
      </g>
      <path id="Trazado_13311" data-name="Trazado 13311" d="M13.5,0H10.479V-6.162H4.824V0H1.8V-14.277H4.824v5.6h5.654v-5.6H13.5Zm3.242-13.74q0-1.455,1.621-1.455T19.98-13.74a1.419,1.419,0,0,1-.405,1.079,1.7,1.7,0,0,1-1.216.386Q16.738-12.275,16.738-13.74ZM19.844,0H16.865V-10.918h2.979Zm6.1,0H22.969V-15.2h2.979Zm5.5-5.479a4.582,4.582,0,0,0,.532,2.451,1.9,1.9,0,0,0,1.733.83,1.873,1.873,0,0,0,1.714-.825,4.648,4.648,0,0,0,.522-2.456A4.51,4.51,0,0,0,35.42-7.91a1.907,1.907,0,0,0-1.729-.811,1.9,1.9,0,0,0-1.719.806A4.506,4.506,0,0,0,31.445-5.479Zm7.549,0a5.867,5.867,0,0,1-1.406,4.17A5.1,5.1,0,0,1,33.672.2,5.478,5.478,0,0,1,30.9-.493a4.581,4.581,0,0,1-1.846-1.978,6.645,6.645,0,0,1-.645-3.008,5.835,5.835,0,0,1,1.4-4.16,5.128,5.128,0,0,1,3.926-1.484,5.509,5.509,0,0,1,2.773.684A4.563,4.563,0,0,1,38.35-8.477,6.584,6.584,0,0,1,38.994-5.479ZM49.072-3.242A3.006,3.006,0,0,1,47.905-.684,5.766,5.766,0,0,1,44.414.2,10.965,10.965,0,0,1,42.383.034a7.683,7.683,0,0,1-1.572-.474V-2.9a10.383,10.383,0,0,0,1.87.654,7.572,7.572,0,0,0,1.831.264q1.621,0,1.621-.937a.782.782,0,0,0-.215-.571,3.115,3.115,0,0,0-.742-.5q-.527-.278-1.406-.649a8.834,8.834,0,0,1-1.851-.977,2.749,2.749,0,0,1-.859-1.03,3.4,3.4,0,0,1-.269-1.431,2.594,2.594,0,0,1,1.128-2.251,5.494,5.494,0,0,1,3.2-.8,9.078,9.078,0,0,1,3.838.859l-.9,2.148q-.82-.352-1.533-.576a4.815,4.815,0,0,0-1.455-.225q-1.318,0-1.318.713a.838.838,0,0,0,.425.693,11.553,11.553,0,0,0,1.86.869,8.643,8.643,0,0,1,1.875.967,2.859,2.859,0,0,1,.879,1.035A3.181,3.181,0,0,1,49.072-3.242ZM60.049.2A3.546,3.546,0,0,1,57.026-1.3a6.869,6.869,0,0,1-1.1-4.141,6.876,6.876,0,0,1,1.118-4.185,3.632,3.632,0,0,1,3.081-1.5,3.562,3.562,0,0,1,3.145,1.6h.1a12.177,12.177,0,0,1-.225-2.178v-3.5h2.988V0H63.848l-.576-1.416h-.127A3.408,3.408,0,0,1,60.049.2Zm1.045-2.373a2.018,2.018,0,0,0,1.675-.664A3.863,3.863,0,0,0,63.35-5.1V-5.42a4.464,4.464,0,0,0-.542-2.52A2.013,2.013,0,0,0,61.045-8.7a1.748,1.748,0,0,0-1.548.845A4.507,4.507,0,0,0,58.945-5.4,4.271,4.271,0,0,0,59.5-2.983,1.819,1.819,0,0,0,61.094-2.178ZM73.77-9a1.889,1.889,0,0,0-1.484.6,2.78,2.78,0,0,0-.615,1.7h4.18a2.483,2.483,0,0,0-.576-1.7A1.951,1.951,0,0,0,73.77-9Zm.42,9.2A5.635,5.635,0,0,1,70.068-1.26a5.509,5.509,0,0,1-1.484-4.121,6.06,6.06,0,0,1,1.372-4.243,4.886,4.886,0,0,1,3.794-1.5,4.809,4.809,0,0,1,3.6,1.318,4.988,4.988,0,0,1,1.289,3.643v1.445H71.6a2.867,2.867,0,0,0,.752,1.982,2.646,2.646,0,0,0,1.973.713,8.189,8.189,0,0,0,1.865-.205,9.333,9.333,0,0,0,1.836-.654v2.3A6.994,6.994,0,0,1,76.357,0,10.529,10.529,0,0,1,74.189.2Zm16.67-2.373a6.457,6.457,0,0,0,1.875-.342V-.3A6.685,6.685,0,0,1,90,.2a3.347,3.347,0,0,1-2.6-.9,3.932,3.932,0,0,1-.815-2.71V-8.682H85.156v-1.26l1.641-1,.859-2.3h1.9v2.324h3.057v2.236H89.561v5.264a1.163,1.163,0,0,0,.356.938A1.406,1.406,0,0,0,90.859-2.178ZM99.463-9a1.889,1.889,0,0,0-1.484.6,2.78,2.78,0,0,0-.615,1.7h4.18a2.483,2.483,0,0,0-.576-1.7A1.951,1.951,0,0,0,99.463-9Zm.42,9.2A5.635,5.635,0,0,1,95.762-1.26a5.509,5.509,0,0,1-1.484-4.121,6.06,6.06,0,0,1,1.372-4.243,4.886,4.886,0,0,1,3.794-1.5,4.809,4.809,0,0,1,3.6,1.318,4.988,4.988,0,0,1,1.289,3.643v1.445H97.295a2.867,2.867,0,0,0,.752,1.982,2.646,2.646,0,0,0,1.973.713,8.189,8.189,0,0,0,1.865-.205,9.333,9.333,0,0,0,1.836-.654v2.3a6.994,6.994,0,0,1-1.67.581A10.529,10.529,0,0,1,99.883.2Zm9.854-.2h-2.979V-15.2h2.979Zm10.059,0-.576-1.484h-.078a4.4,4.4,0,0,1-1.548,1.313A5,5,0,0,1,115.518.2a3.356,3.356,0,0,1-2.476-.9,3.45,3.45,0,0,1-.9-2.559,2.881,2.881,0,0,1,1.216-2.563,7.045,7.045,0,0,1,3.667-.913l1.895-.059v-.479a1.485,1.485,0,0,0-1.7-1.66,7.743,7.743,0,0,0-3.076.791l-.986-2.012a8.876,8.876,0,0,1,4.18-.986,5.206,5.206,0,0,1,3.369.957,3.537,3.537,0,0,1,1.172,2.91V0Zm-.879-5.059-1.152.039a3.69,3.69,0,0,0-1.934.469,1.472,1.472,0,0,0-.635,1.309q0,1.26,1.445,1.26a2.289,2.289,0,0,0,1.655-.6,2.092,2.092,0,0,0,.62-1.582ZM3.936,19.521a4.582,4.582,0,0,0,.532,2.451A1.9,1.9,0,0,0,6.2,22.8a1.873,1.873,0,0,0,1.714-.825,4.648,4.648,0,0,0,.522-2.456A4.51,4.51,0,0,0,7.91,17.09a1.907,1.907,0,0,0-1.729-.811,1.9,1.9,0,0,0-1.719.806A4.506,4.506,0,0,0,3.936,19.521Zm7.549,0a5.867,5.867,0,0,1-1.406,4.17,5.1,5.1,0,0,1-3.916,1.5,5.478,5.478,0,0,1-2.773-.688,4.581,4.581,0,0,1-1.846-1.978A6.645,6.645,0,0,1,.9,19.521a5.835,5.835,0,0,1,1.4-4.16,5.128,5.128,0,0,1,3.926-1.484,5.509,5.509,0,0,1,2.773.684,4.563,4.563,0,0,1,1.846,1.963A6.584,6.584,0,0,1,11.484,19.521ZM22.119,25H19.141V9.8h2.979Zm6.1,0H25.244V14.082h2.979ZM25.1,12.881v-.264a27.494,27.494,0,0,0,2.295-2.939h3.34v.205q-.508.508-1.733,1.509T27.08,12.881ZM41.426,25H38.447V18.623a3.063,3.063,0,0,0-.42-1.772,1.528,1.528,0,0,0-1.338-.591,2.011,2.011,0,0,0-1.807.835,5.178,5.178,0,0,0-.557,2.769V25H31.348V14.082h2.275l.4,1.4h.166a3.148,3.148,0,0,1,1.372-1.2,4.672,4.672,0,0,1,1.987-.405,3.818,3.818,0,0,1,2.891,1.03,4.134,4.134,0,0,1,.986,2.974Zm7.588-9a1.889,1.889,0,0,0-1.484.6,2.78,2.78,0,0,0-.615,1.7h4.18a2.483,2.483,0,0,0-.576-1.7A1.951,1.951,0,0,0,49.014,16Zm.42,9.2a5.635,5.635,0,0,1-4.121-1.455,5.509,5.509,0,0,1-1.484-4.121A6.06,6.06,0,0,1,45.2,15.376a4.886,4.886,0,0,1,3.794-1.5A4.809,4.809,0,0,1,52.6,15.2a4.988,4.988,0,0,1,1.289,3.643v1.445H46.846a2.867,2.867,0,0,0,.752,1.982,2.646,2.646,0,0,0,1.973.713,8.189,8.189,0,0,0,1.865-.205,9.333,9.333,0,0,0,1.836-.654v2.3A6.994,6.994,0,0,1,51.6,25,10.529,10.529,0,0,1,49.434,25.2ZM63.242,25l-.576-1.484h-.078a4.4,4.4,0,0,1-1.548,1.313,5,5,0,0,1-2.075.366,3.356,3.356,0,0,1-2.476-.9,3.45,3.45,0,0,1-.9-2.559A2.881,2.881,0,0,1,56.8,19.175a7.045,7.045,0,0,1,3.667-.913l1.895-.059v-.479a1.485,1.485,0,0,0-1.7-1.66,7.743,7.743,0,0,0-3.076.791L56.6,14.844a8.876,8.876,0,0,1,4.18-.986,5.206,5.206,0,0,1,3.369.957,3.537,3.537,0,0,1,1.172,2.91V25Zm-.879-5.059-1.152.039a3.69,3.69,0,0,0-1.934.469,1.472,1.472,0,0,0-.635,1.309q0,1.26,1.445,1.26a2.289,2.289,0,0,0,1.655-.6,2.092,2.092,0,0,0,.62-1.582Zm13.643,1.816a3.006,3.006,0,0,1-1.167,2.559,5.766,5.766,0,0,1-3.491.879,10.965,10.965,0,0,1-2.031-.161,7.683,7.683,0,0,1-1.572-.474V22.1a10.383,10.383,0,0,0,1.87.654,7.572,7.572,0,0,0,1.831.264q1.621,0,1.621-.937a.782.782,0,0,0-.215-.571,3.115,3.115,0,0,0-.742-.5q-.527-.278-1.406-.649a8.834,8.834,0,0,1-1.851-.977,2.749,2.749,0,0,1-.859-1.03,3.4,3.4,0,0,1-.269-1.431,2.594,2.594,0,0,1,1.128-2.251,5.494,5.494,0,0,1,3.2-.8,9.078,9.078,0,0,1,3.838.859l-.9,2.148q-.82-.352-1.533-.576A4.815,4.815,0,0,0,72,16.084q-1.318,0-1.318.713a.838.838,0,0,0,.425.693,11.553,11.553,0,0,0,1.86.869,8.643,8.643,0,0,1,1.875.967,2.859,2.859,0,0,1,.879,1.035A3.181,3.181,0,0,1,76.006,21.758ZM86.982,25.2A3.546,3.546,0,0,1,83.96,23.7a6.869,6.869,0,0,1-1.1-4.141,6.876,6.876,0,0,1,1.118-4.185,3.632,3.632,0,0,1,3.081-1.5,3.562,3.562,0,0,1,3.145,1.6h.1a12.176,12.176,0,0,1-.225-2.178V9.8h2.988V25H90.781l-.576-1.416h-.127A3.408,3.408,0,0,1,86.982,25.2Zm1.045-2.373a2.018,2.018,0,0,0,1.675-.664,3.863,3.863,0,0,0,.581-2.256V19.58a4.464,4.464,0,0,0-.542-2.52,2.013,2.013,0,0,0-1.763-.762,1.748,1.748,0,0,0-1.548.845,4.507,4.507,0,0,0-.552,2.456,4.271,4.271,0,0,0,.557,2.417A1.819,1.819,0,0,0,88.027,22.822ZM100.7,16a1.889,1.889,0,0,0-1.484.6,2.78,2.78,0,0,0-.615,1.7h4.18a2.483,2.483,0,0,0-.576-1.7A1.951,1.951,0,0,0,100.7,16Zm.42,9.2A5.635,5.635,0,0,1,97,23.74a5.509,5.509,0,0,1-1.484-4.121,6.06,6.06,0,0,1,1.372-4.243,4.886,4.886,0,0,1,3.794-1.5,4.809,4.809,0,0,1,3.6,1.318,4.988,4.988,0,0,1,1.289,3.643v1.445H98.535a2.867,2.867,0,0,0,.752,1.982,2.646,2.646,0,0,0,1.973.713,8.189,8.189,0,0,0,1.865-.205,9.333,9.333,0,0,0,1.836-.654v2.3a6.994,6.994,0,0,1-1.67.581A10.529,10.529,0,0,1,101.123,25.2Zm19-.2-.576-1.484h-.078a4.4,4.4,0,0,1-1.548,1.313,5,5,0,0,1-2.075.366,3.356,3.356,0,0,1-2.476-.9,3.45,3.45,0,0,1-.9-2.559,2.881,2.881,0,0,1,1.216-2.563,7.045,7.045,0,0,1,3.667-.913l1.895-.059v-.479a1.485,1.485,0,0,0-1.7-1.66,7.743,7.743,0,0,0-3.076.791l-.986-2.012a8.876,8.876,0,0,1,4.18-.986,5.206,5.206,0,0,1,3.369.957,3.537,3.537,0,0,1,1.172,2.91V25Zm-.879-5.059-1.152.039a3.69,3.69,0,0,0-1.934.469,1.472,1.472,0,0,0-.635,1.309q0,1.26,1.445,1.26a2.289,2.289,0,0,0,1.655-.6,2.092,2.092,0,0,0,.62-1.582ZM131.27,25.2a3.621,3.621,0,0,1-3.018-1.4H128.1q.156,1.367.156,1.582V29.8h-2.979V14.082H127.7l.42,1.416h.137a3.446,3.446,0,0,1,3.1-1.621,3.543,3.543,0,0,1,3.027,1.494,6.91,6.91,0,0,1,1.094,4.15,8.2,8.2,0,0,1-.513,3.037,4.26,4.26,0,0,1-1.46,1.963A3.741,3.741,0,0,1,131.27,25.2Zm-.879-8.936a1.881,1.881,0,0,0-1.611.679,3.9,3.9,0,0,0-.527,2.241V19.5a4.6,4.6,0,0,0,.522,2.52,1.865,1.865,0,0,0,1.655.762q2,0,2-3.3a4.713,4.713,0,0,0-.493-2.417A1.683,1.683,0,0,0,130.391,16.26ZM140.908,25H137.93V9.8h2.979Zm5.5-5.479a4.582,4.582,0,0,0,.532,2.451,1.9,1.9,0,0,0,1.733.83,1.873,1.873,0,0,0,1.714-.825,4.648,4.648,0,0,0,.522-2.456,4.51,4.51,0,0,0-.527-2.432,2.242,2.242,0,0,0-3.447,0A4.506,4.506,0,0,0,146.406,19.521Zm7.549,0a5.867,5.867,0,0,1-1.406,4.17,5.1,5.1,0,0,1-3.916,1.5,5.478,5.478,0,0,1-2.773-.688,4.581,4.581,0,0,1-1.846-1.978,6.645,6.645,0,0,1-.645-3.008,5.835,5.835,0,0,1,1.4-4.16,5.128,5.128,0,0,1,3.926-1.484,5.509,5.509,0,0,1,2.773.684,4.563,4.563,0,0,1,1.846,1.963A6.584,6.584,0,0,1,153.955,19.521ZM166.191,25h-2.979V18.623a3.212,3.212,0,0,0-.4-1.772,1.391,1.391,0,0,0-1.245-.591,1.8,1.8,0,0,0-1.66.84,5.509,5.509,0,0,0-.518,2.764V25h-2.979V14.082h2.275l.4,1.4h.166a3.026,3.026,0,0,1,1.27-1.177,4.122,4.122,0,0,1,1.9-.425,3.43,3.43,0,0,1,3.32,1.6h.264A2.95,2.95,0,0,1,167.31,14.3a4.315,4.315,0,0,1,1.929-.42,3.807,3.807,0,0,1,2.808.952A4.181,4.181,0,0,1,173,17.881V25H170.01V18.623a3.212,3.212,0,0,0-.4-1.772,1.391,1.391,0,0,0-1.245-.591,1.858,1.858,0,0,0-1.636.781,4.433,4.433,0,0,0-.542,2.48Zm14.385-9a1.889,1.889,0,0,0-1.484.6,2.78,2.78,0,0,0-.615,1.7h4.18a2.483,2.483,0,0,0-.576-1.7A1.951,1.951,0,0,0,180.576,16Zm.42,9.2a5.635,5.635,0,0,1-4.121-1.455,5.509,5.509,0,0,1-1.484-4.121,6.06,6.06,0,0,1,1.372-4.243,4.886,4.886,0,0,1,3.794-1.5,4.809,4.809,0,0,1,3.6,1.318,4.988,4.988,0,0,1,1.289,3.643v1.445h-7.041a2.867,2.867,0,0,0,.752,1.982,2.646,2.646,0,0,0,1.973.713A8.189,8.189,0,0,0,183,22.773a9.333,9.333,0,0,0,1.836-.654v2.3a6.994,6.994,0,0,1-1.67.581A10.529,10.529,0,0,1,181,25.2Z" transform="translate(294 940)" fill="#00223d"/>
      <path id="Trazado_11499" data-name="Trazado 11499" d="M1.934-17.688V-22.5H23.752v4.812Zm0,8.5V-14H23.752v4.812Z" transform="translate(252.066 960.5)" fill="#00a99a"/>
    </g>
    <g id="Grupo_8349" data-name="Grupo 8349">
      <path id="Trazado_13316" data-name="Trazado 13316" d="M10.225-3.965A3.691,3.691,0,0,1,8.833-.918,6.045,6.045,0,0,1,4.961.2,9.094,9.094,0,0,1,.918-.664V-3.477a16.661,16.661,0,0,0,2.446.908A7.239,7.239,0,0,0,5.2-2.3a2.6,2.6,0,0,0,1.528-.381,1.3,1.3,0,0,0,.532-1.133,1.251,1.251,0,0,0-.234-.747,2.623,2.623,0,0,0-.688-.63,17.707,17.707,0,0,0-1.851-.967A8.771,8.771,0,0,1,2.52-7.344,4.436,4.436,0,0,1,1.475-8.662a3.762,3.762,0,0,1-.391-1.758A3.69,3.69,0,0,1,2.368-13.4a5.336,5.336,0,0,1,3.55-1.084,8.383,8.383,0,0,1,2.124.264,14.6,14.6,0,0,1,2.114.742L9.18-11.123a14.288,14.288,0,0,0-1.89-.654,6.082,6.082,0,0,0-1.47-.186,1.946,1.946,0,0,0-1.318.4,1.321,1.321,0,0,0-.459,1.045,1.293,1.293,0,0,0,.186.7,2.04,2.04,0,0,0,.591.576,18.268,18.268,0,0,0,1.919,1A7.635,7.635,0,0,1,9.482-6.323,3.745,3.745,0,0,1,10.225-3.965ZM15.557,0H12.578V-10.918h2.979ZM12.432-12.119v-.264a27.494,27.494,0,0,0,2.295-2.939h3.34v.205q-.508.508-1.733,1.509t-1.919,1.489ZM28.457,0H25.479V-6.377a3.212,3.212,0,0,0-.4-1.772,1.391,1.391,0,0,0-1.245-.591,1.8,1.8,0,0,0-1.66.84,5.509,5.509,0,0,0-.518,2.764V0H18.682V-10.918h2.275l.4,1.4h.166a3.026,3.026,0,0,1,1.27-1.177,4.122,4.122,0,0,1,1.9-.425,3.43,3.43,0,0,1,3.32,1.6h.264A2.95,2.95,0,0,1,29.575-10.7a4.315,4.315,0,0,1,1.929-.42,3.807,3.807,0,0,1,2.808.952,4.181,4.181,0,0,1,.952,3.052V0H32.275V-6.377a3.212,3.212,0,0,0-.4-1.772,1.391,1.391,0,0,0-1.245-.591A1.858,1.858,0,0,0,29-7.959a4.433,4.433,0,0,0-.542,2.48ZM44.395-11.123a3.532,3.532,0,0,1,3.027,1.509,6.923,6.923,0,0,1,1.094,4.136,6.8,6.8,0,0,1-1.128,4.189A3.651,3.651,0,0,1,44.316.2,3.621,3.621,0,0,1,41.3-1.2h-.205L40.6,0H38.32V-15.2H41.3v3.535q0,.674-.117,2.158H41.3A3.446,3.446,0,0,1,44.395-11.123ZM43.438-8.74a1.881,1.881,0,0,0-1.611.679A3.9,3.9,0,0,0,41.3-5.82V-5.5a4.6,4.6,0,0,0,.522,2.52,1.865,1.865,0,0,0,1.655.762,1.661,1.661,0,0,0,1.46-.845,4.572,4.572,0,0,0,.542-2.456,4.332,4.332,0,0,0-.547-2.417A1.715,1.715,0,0,0,43.438-8.74ZM53.35-5.479a4.582,4.582,0,0,0,.532,2.451,1.9,1.9,0,0,0,1.733.83,1.873,1.873,0,0,0,1.714-.825,4.648,4.648,0,0,0,.522-2.456,4.51,4.51,0,0,0-.527-2.432A1.907,1.907,0,0,0,55.6-8.721a1.9,1.9,0,0,0-1.719.806A4.506,4.506,0,0,0,53.35-5.479Zm7.549,0a5.867,5.867,0,0,1-1.406,4.17A5.1,5.1,0,0,1,55.576.2,5.478,5.478,0,0,1,52.8-.493a4.581,4.581,0,0,1-1.846-1.978,6.645,6.645,0,0,1-.645-3.008,5.835,5.835,0,0,1,1.4-4.16,5.128,5.128,0,0,1,3.926-1.484,5.509,5.509,0,0,1,2.773.684,4.563,4.563,0,0,1,1.846,1.963A6.584,6.584,0,0,1,60.9-5.479ZM66.338,0H63.359V-15.2h2.979Zm5.5-5.479a4.582,4.582,0,0,0,.532,2.451A1.9,1.9,0,0,0,74.1-2.2a1.873,1.873,0,0,0,1.714-.825,4.648,4.648,0,0,0,.522-2.456,4.51,4.51,0,0,0-.527-2.432,1.907,1.907,0,0,0-1.729-.811,1.9,1.9,0,0,0-1.719.806A4.506,4.506,0,0,0,71.836-5.479Zm7.549,0a5.867,5.867,0,0,1-1.406,4.17A5.1,5.1,0,0,1,74.063.2a5.478,5.478,0,0,1-2.773-.688,4.581,4.581,0,0,1-1.846-1.978A6.645,6.645,0,0,1,68.8-5.479a5.835,5.835,0,0,1,1.4-4.16,5.128,5.128,0,0,1,3.926-1.484,5.509,5.509,0,0,1,2.773.684A4.563,4.563,0,0,1,78.74-8.477,6.584,6.584,0,0,1,79.385-5.479ZM89.463-3.242A3.006,3.006,0,0,1,88.3-.684,5.766,5.766,0,0,1,84.8.2,10.965,10.965,0,0,1,82.773.034,7.683,7.683,0,0,1,81.2-.439V-2.9a10.383,10.383,0,0,0,1.87.654,7.572,7.572,0,0,0,1.831.264q1.621,0,1.621-.937a.782.782,0,0,0-.215-.571,3.115,3.115,0,0,0-.742-.5q-.527-.278-1.406-.649a8.834,8.834,0,0,1-1.851-.977,2.749,2.749,0,0,1-.859-1.03,3.4,3.4,0,0,1-.269-1.431,2.594,2.594,0,0,1,1.128-2.251,5.494,5.494,0,0,1,3.2-.8,9.078,9.078,0,0,1,3.838.859l-.9,2.148q-.82-.352-1.533-.576a4.815,4.815,0,0,0-1.455-.225q-1.318,0-1.318.713a.838.838,0,0,0,.425.693,11.553,11.553,0,0,0,1.86.869,8.642,8.642,0,0,1,1.875.967,2.859,2.859,0,0,1,.879,1.035A3.181,3.181,0,0,1,89.463-3.242Zm12.041,1.1a2.014,2.014,0,0,0,1.66-.649,3.876,3.876,0,0,0,.576-2.271V-5.42a4.464,4.464,0,0,0-.542-2.52,1.991,1.991,0,0,0-1.743-.762q-2.1,0-2.1,3.3a4.59,4.59,0,0,0,.522,2.451A1.8,1.8,0,0,0,101.5-2.139ZM100.439.2a3.547,3.547,0,0,1-3.027-1.489,6.888,6.888,0,0,1-1.094-4.146,6.88,6.88,0,0,1,1.118-4.18,3.608,3.608,0,0,1,3.062-1.5,3.951,3.951,0,0,1,1.807.391,3.775,3.775,0,0,1,1.357,1.211h.078l.264-1.4h2.52V4.8h-2.988V.225a14.457,14.457,0,0,1,.127-1.641h-.127a3.169,3.169,0,0,1-1.27,1.2A3.912,3.912,0,0,1,100.439.2ZM117.373,0l-.4-1.4h-.156A3.142,3.142,0,0,1,115.459-.22a4.634,4.634,0,0,1-2,.415,3.812,3.812,0,0,1-2.9-1.03A4.145,4.145,0,0,1,109.58-3.8v-7.119h2.979v6.377a3.063,3.063,0,0,0,.42,1.772,1.528,1.528,0,0,0,1.338.591,2.011,2.011,0,0,0,1.807-.835,5.178,5.178,0,0,0,.557-2.769v-5.137h2.979V0ZM127.3-9a1.889,1.889,0,0,0-1.484.6,2.78,2.78,0,0,0-.615,1.7h4.18a2.483,2.483,0,0,0-.576-1.7A1.951,1.951,0,0,0,127.3-9Zm.42,9.2A5.635,5.635,0,0,1,123.6-1.26a5.509,5.509,0,0,1-1.484-4.121,6.06,6.06,0,0,1,1.372-4.243,4.886,4.886,0,0,1,3.794-1.5,4.809,4.809,0,0,1,3.6,1.318,4.988,4.988,0,0,1,1.289,3.643v1.445h-7.041a2.867,2.867,0,0,0,.752,1.982,2.646,2.646,0,0,0,1.973.713,8.189,8.189,0,0,0,1.865-.205,9.333,9.333,0,0,0,1.836-.654v2.3a6.994,6.994,0,0,1-1.67.581A10.529,10.529,0,0,1,127.725.2ZM149.873,0h-2.979V-6.377q0-2.363-1.758-2.363a2,2,0,0,0-1.807.85,5.189,5.189,0,0,0-.557,2.754V0h-2.979V-15.2h2.979v3.1q0,.361-.068,1.7l-.068.879h.156a3.45,3.45,0,0,1,3.164-1.6,3.868,3.868,0,0,1,2.92,1.035,4.112,4.112,0,0,1,1,2.969Zm10,0L159.3-1.484h-.078a4.4,4.4,0,0,1-1.548,1.313A5,5,0,0,1,155.6.2a3.356,3.356,0,0,1-2.476-.9,3.45,3.45,0,0,1-.9-2.559,2.881,2.881,0,0,1,1.216-2.563,7.045,7.045,0,0,1,3.667-.913l1.895-.059v-.479a1.485,1.485,0,0,0-1.7-1.66,7.743,7.743,0,0,0-3.076.791l-.986-2.012a8.876,8.876,0,0,1,4.18-.986,5.206,5.206,0,0,1,3.369.957,3.537,3.537,0,0,1,1.172,2.91V0Zm-.879-5.059-1.152.039a3.69,3.69,0,0,0-1.934.469,1.472,1.472,0,0,0-.635,1.309q0,1.26,1.445,1.26a2.289,2.289,0,0,0,1.655-.6,2.092,2.092,0,0,0,.62-1.582ZM169.453.2q-5.1,0-5.1-5.6a5.969,5.969,0,0,1,1.387-4.253,5.2,5.2,0,0,1,3.975-1.47,7.577,7.577,0,0,1,3.4.742l-.879,2.3q-.7-.283-1.309-.464a4.216,4.216,0,0,0-1.211-.181q-2.324,0-2.324,3.3,0,3.2,2.324,3.2a5.3,5.3,0,0,0,1.592-.229,5.747,5.747,0,0,0,1.465-.718V-.615a4.8,4.8,0,0,1-1.46.635A8.21,8.21,0,0,1,169.453.2ZM179.824-9a1.889,1.889,0,0,0-1.484.6,2.78,2.78,0,0,0-.615,1.7h4.18a2.483,2.483,0,0,0-.576-1.7A1.951,1.951,0,0,0,179.824-9Zm.42,9.2a5.635,5.635,0,0,1-4.121-1.455,5.509,5.509,0,0,1-1.484-4.121,6.06,6.06,0,0,1,1.372-4.243,4.886,4.886,0,0,1,3.794-1.5,4.809,4.809,0,0,1,3.6,1.318A4.988,4.988,0,0,1,184.7-6.162v1.445h-7.041a2.867,2.867,0,0,0,.752,1.982,2.646,2.646,0,0,0,1.973.713,8.189,8.189,0,0,0,1.865-.205,9.333,9.333,0,0,0,1.836-.654v2.3a6.994,6.994,0,0,1-1.67.581A10.529,10.529,0,0,1,180.244.2ZM197.2,0h-2.979V-6.377a3.063,3.063,0,0,0-.42-1.772,1.528,1.528,0,0,0-1.338-.591,2.011,2.011,0,0,0-1.807.835,5.178,5.178,0,0,0-.557,2.769V0h-2.979V-10.918h2.275l.4,1.4h.166a3.148,3.148,0,0,1,1.372-1.2,4.672,4.672,0,0,1,1.987-.405,3.818,3.818,0,0,1,2.891,1.03,4.134,4.134,0,0,1,.986,2.974Zm14.355-11.123a4.8,4.8,0,0,1,1.006.088l-.225,2.793a3.412,3.412,0,0,0-.879-.1,3.159,3.159,0,0,0-2.222.732,2.648,2.648,0,0,0-.8,2.051V0h-2.979V-10.918h2.256l.439,1.836h.146a4.1,4.1,0,0,1,1.372-1.479A3.383,3.383,0,0,1,211.553-11.123ZM219.063-9a1.889,1.889,0,0,0-1.484.6,2.78,2.78,0,0,0-.615,1.7h4.18a2.483,2.483,0,0,0-.576-1.7A1.951,1.951,0,0,0,219.063-9Zm.42,9.2a5.635,5.635,0,0,1-4.121-1.455,5.509,5.509,0,0,1-1.484-4.121,6.06,6.06,0,0,1,1.372-4.243,4.886,4.886,0,0,1,3.794-1.5,4.809,4.809,0,0,1,3.6,1.318,4.988,4.988,0,0,1,1.289,3.643v1.445h-7.041a2.867,2.867,0,0,0,.752,1.982,2.646,2.646,0,0,0,1.973.713,8.189,8.189,0,0,0,1.865-.205,9.333,9.333,0,0,0,1.836-.654v2.3A6.994,6.994,0,0,1,221.65,0,10.529,10.529,0,0,1,219.482.2Zm12.91-8.877h-2.578V0h-2.979V-8.682H225.2v-1.436l1.641-.8v-.8a3.577,3.577,0,0,1,.918-2.725,4.207,4.207,0,0,1,2.939-.859,7.65,7.65,0,0,1,2.744.459l-.762,2.188a5.552,5.552,0,0,0-1.66-.283,1.075,1.075,0,0,0-.918.376,1.555,1.555,0,0,0-.283.962v.684h2.578ZM238.623-9a1.889,1.889,0,0,0-1.484.6,2.78,2.78,0,0,0-.615,1.7h4.18a2.483,2.483,0,0,0-.576-1.7A1.951,1.951,0,0,0,238.623-9Zm.42,9.2a5.635,5.635,0,0,1-4.121-1.455,5.509,5.509,0,0,1-1.484-4.121,6.06,6.06,0,0,1,1.372-4.243,4.886,4.886,0,0,1,3.794-1.5,4.809,4.809,0,0,1,3.6,1.318A4.988,4.988,0,0,1,243.5-6.162v1.445h-7.041a2.867,2.867,0,0,0,.752,1.982,2.646,2.646,0,0,0,1.973.713,8.189,8.189,0,0,0,1.865-.205,9.333,9.333,0,0,0,1.836-.654v2.3a6.994,6.994,0,0,1-1.67.581A10.529,10.529,0,0,1,239.043.2Zm12.969-11.318a4.8,4.8,0,0,1,1.006.088l-.225,2.793a3.412,3.412,0,0,0-.879-.1,3.159,3.159,0,0,0-2.222.732,2.648,2.648,0,0,0-.8,2.051V0h-2.979V-10.918h2.256l.439,1.836h.146a4.1,4.1,0,0,1,1.372-1.479A3.383,3.383,0,0,1,252.012-11.123ZM259.521-9a1.889,1.889,0,0,0-1.484.6,2.78,2.78,0,0,0-.615,1.7h4.18a2.483,2.483,0,0,0-.576-1.7A1.951,1.951,0,0,0,259.521-9Zm.42,9.2A5.635,5.635,0,0,1,255.82-1.26a5.509,5.509,0,0,1-1.484-4.121,6.06,6.06,0,0,1,1.372-4.243,4.886,4.886,0,0,1,3.794-1.5,4.809,4.809,0,0,1,3.6,1.318,4.988,4.988,0,0,1,1.289,3.643v1.445h-7.041a2.867,2.867,0,0,0,.752,1.982,2.646,2.646,0,0,0,1.973.713,8.189,8.189,0,0,0,1.865-.205,9.333,9.333,0,0,0,1.836-.654v2.3a6.994,6.994,0,0,1-1.67.581A10.529,10.529,0,0,1,259.941.2ZM276.895,0h-2.979V-6.377a3.063,3.063,0,0,0-.42-1.772,1.528,1.528,0,0,0-1.338-.591,2.011,2.011,0,0,0-1.807.835,5.178,5.178,0,0,0-.557,2.769V0h-2.979V-10.918h2.275l.4,1.4h.166a3.148,3.148,0,0,1,1.372-1.2,4.672,4.672,0,0,1,1.987-.405,3.818,3.818,0,0,1,2.891,1.03,4.134,4.134,0,0,1,.986,2.974Zm7.5.2q-5.1,0-5.1-5.6a5.969,5.969,0,0,1,1.387-4.253,5.2,5.2,0,0,1,3.975-1.47,7.577,7.577,0,0,1,3.4.742l-.879,2.3q-.7-.283-1.309-.464a4.216,4.216,0,0,0-1.211-.181q-2.324,0-2.324,3.3,0,3.2,2.324,3.2a5.3,5.3,0,0,0,1.592-.229,5.747,5.747,0,0,0,1.465-.718V-.615a4.8,4.8,0,0,1-1.46.635A8.21,8.21,0,0,1,284.395.2Zm5.723-13.936q0-1.455,1.621-1.455t1.621,1.455a1.419,1.419,0,0,1-.405,1.079,1.7,1.7,0,0,1-1.216.386Q290.117-12.275,290.117-13.74ZM293.223,0h-2.979V-10.918h2.979Zm10.059,0-.576-1.484h-.078a4.4,4.4,0,0,1-1.548,1.313A5,5,0,0,1,299,.2a3.356,3.356,0,0,1-2.476-.9,3.45,3.45,0,0,1-.9-2.559,2.881,2.881,0,0,1,1.216-2.563,7.045,7.045,0,0,1,3.667-.913L302.4-6.8v-.479a1.485,1.485,0,0,0-1.7-1.66,7.743,7.743,0,0,0-3.076.791l-.986-2.012a8.876,8.876,0,0,1,4.18-.986,5.206,5.206,0,0,1,3.369.957,3.537,3.537,0,0,1,1.172,2.91V0ZM302.4-5.059l-1.152.039a3.69,3.69,0,0,0-1.934.469,1.472,1.472,0,0,0-.635,1.309q0,1.26,1.445,1.26a2.289,2.289,0,0,0,1.655-.6,2.092,2.092,0,0,0,.62-1.582ZM10.537,25,9.5,21.6H4.3L3.262,25H0L5.039,10.664h3.7L13.8,25ZM8.779,19.063q-1.436-4.619-1.616-5.225T6.9,12.881q-.322,1.25-1.846,6.182ZM28.291,25l-.4-1.4h-.156a3.142,3.142,0,0,1-1.357,1.177,4.634,4.634,0,0,1-2,.415,3.812,3.812,0,0,1-2.9-1.03A4.145,4.145,0,0,1,20.5,21.2V14.082h2.979v6.377a3.063,3.063,0,0,0,.42,1.772,1.528,1.528,0,0,0,1.338.591,2.011,2.011,0,0,0,1.807-.835,5.178,5.178,0,0,0,.557-2.769V14.082h2.979V25Zm15.488,0H40.8V18.623a3.063,3.063,0,0,0-.42-1.772,1.528,1.528,0,0,0-1.338-.591,2.011,2.011,0,0,0-1.807.835,5.178,5.178,0,0,0-.557,2.769V25H33.7V14.082h2.275l.4,1.4h.166a3.148,3.148,0,0,1,1.372-1.2,4.672,4.672,0,0,1,1.987-.405,3.818,3.818,0,0,1,2.891,1.03,4.134,4.134,0,0,1,.986,2.974Zm18.037,0H58.838V18.623a3.212,3.212,0,0,0-.4-1.772A1.391,1.391,0,0,0,57.2,16.26a1.8,1.8,0,0,0-1.66.84,5.509,5.509,0,0,0-.518,2.764V25H52.041V14.082h2.275l.4,1.4h.166a3.026,3.026,0,0,1,1.27-1.177,4.122,4.122,0,0,1,1.9-.425,3.43,3.43,0,0,1,3.32,1.6h.264A2.95,2.95,0,0,1,62.935,14.3a4.315,4.315,0,0,1,1.929-.42,3.807,3.807,0,0,1,2.808.952,4.181,4.181,0,0,1,.952,3.052V25H65.635V18.623a3.212,3.212,0,0,0-.4-1.772,1.391,1.391,0,0,0-1.245-.591,1.858,1.858,0,0,0-1.636.781,4.433,4.433,0,0,0-.542,2.48ZM76.2,16a1.889,1.889,0,0,0-1.484.6,2.78,2.78,0,0,0-.615,1.7h4.18a2.483,2.483,0,0,0-.576-1.7A1.951,1.951,0,0,0,76.2,16Zm.42,9.2A5.635,5.635,0,0,1,72.5,23.74a5.509,5.509,0,0,1-1.484-4.121,6.06,6.06,0,0,1,1.372-4.243,4.886,4.886,0,0,1,3.794-1.5,4.809,4.809,0,0,1,3.6,1.318,4.988,4.988,0,0,1,1.289,3.643v1.445H74.033a2.867,2.867,0,0,0,.752,1.982,2.646,2.646,0,0,0,1.973.713,8.189,8.189,0,0,0,1.865-.205,9.333,9.333,0,0,0,1.836-.654v2.3a6.994,6.994,0,0,1-1.67.581A10.529,10.529,0,0,1,76.621,25.2Zm10.332,0A3.546,3.546,0,0,1,83.931,23.7a6.869,6.869,0,0,1-1.1-4.141,6.876,6.876,0,0,1,1.118-4.185,3.632,3.632,0,0,1,3.081-1.5,3.562,3.562,0,0,1,3.145,1.6h.1a12.176,12.176,0,0,1-.225-2.178V9.8h2.988V25H90.752l-.576-1.416h-.127A3.408,3.408,0,0,1,86.953,25.2ZM88,22.822a2.018,2.018,0,0,0,1.675-.664,3.863,3.863,0,0,0,.581-2.256V19.58a4.464,4.464,0,0,0-.542-2.52,2.013,2.013,0,0,0-1.763-.762,1.748,1.748,0,0,0-1.548.845A4.507,4.507,0,0,0,85.85,19.6a4.271,4.271,0,0,0,.557,2.417A1.819,1.819,0,0,0,88,22.822ZM96.025,11.26q0-1.455,1.621-1.455t1.621,1.455a1.419,1.419,0,0,1-.405,1.079,1.7,1.7,0,0,1-1.216.386Q96.025,12.725,96.025,11.26ZM99.131,25H96.152V14.082h2.979Zm6.582.2A3.546,3.546,0,0,1,102.69,23.7a6.869,6.869,0,0,1-1.1-4.141,6.876,6.876,0,0,1,1.118-4.185,3.632,3.632,0,0,1,3.081-1.5,3.562,3.562,0,0,1,3.145,1.6h.1a12.176,12.176,0,0,1-.225-2.178V9.8H111.8V25h-2.285l-.576-1.416h-.127A3.408,3.408,0,0,1,105.713,25.2Zm1.045-2.373a2.018,2.018,0,0,0,1.675-.664,3.863,3.863,0,0,0,.581-2.256V19.58a4.464,4.464,0,0,0-.542-2.52,2.013,2.013,0,0,0-1.763-.762,1.748,1.748,0,0,0-1.548.845,4.507,4.507,0,0,0-.552,2.456,4.271,4.271,0,0,0,.557,2.417A1.819,1.819,0,0,0,106.758,22.822ZM121.846,25l-.576-1.484h-.078a4.4,4.4,0,0,1-1.548,1.313,5,5,0,0,1-2.075.366,3.356,3.356,0,0,1-2.476-.9,3.45,3.45,0,0,1-.9-2.559,2.881,2.881,0,0,1,1.216-2.563,7.045,7.045,0,0,1,3.667-.913l1.895-.059v-.479a1.485,1.485,0,0,0-1.7-1.66,7.743,7.743,0,0,0-3.076.791l-.986-2.012a8.876,8.876,0,0,1,4.18-.986,5.206,5.206,0,0,1,3.369.957,3.537,3.537,0,0,1,1.172,2.91V25Zm-.879-5.059-1.152.039a3.69,3.69,0,0,0-1.934.469,1.472,1.472,0,0,0-.635,1.309q0,1.26,1.445,1.26a2.289,2.289,0,0,0,1.655-.6,2.092,2.092,0,0,0,.62-1.582ZM139.121,25l-.576-1.484h-.078a4.4,4.4,0,0,1-1.548,1.313,5,5,0,0,1-2.075.366,3.356,3.356,0,0,1-2.476-.9,3.45,3.45,0,0,1-.9-2.559,2.881,2.881,0,0,1,1.216-2.563,7.045,7.045,0,0,1,3.667-.913l1.895-.059v-.479a1.485,1.485,0,0,0-1.7-1.66,7.743,7.743,0,0,0-3.076.791l-.986-2.012a8.876,8.876,0,0,1,4.18-.986,5.206,5.206,0,0,1,3.369.957,3.537,3.537,0,0,1,1.172,2.91V25Zm-.879-5.059-1.152.039a3.69,3.69,0,0,0-1.934.469,1.472,1.472,0,0,0-.635,1.309q0,1.26,1.445,1.26a2.289,2.289,0,0,0,1.655-.6,2.092,2.092,0,0,0,.62-1.582ZM154.346,25h-2.979V18.623a3.063,3.063,0,0,0-.42-1.772,1.528,1.528,0,0,0-1.338-.591,2.011,2.011,0,0,0-1.807.835,5.178,5.178,0,0,0-.557,2.769V25h-2.979V14.082h2.275l.4,1.4h.166a3.148,3.148,0,0,1,1.372-1.2,4.672,4.672,0,0,1,1.987-.405,3.818,3.818,0,0,1,2.891,1.03,4.134,4.134,0,0,1,.986,2.974Zm7.666-2.178a6.457,6.457,0,0,0,1.875-.342V24.7a6.685,6.685,0,0,1-2.734.5,3.347,3.347,0,0,1-2.6-.9,3.932,3.932,0,0,1-.815-2.71V16.318h-1.426v-1.26l1.641-1,.859-2.3h1.9v2.324h3.057v2.236h-3.057v5.264a1.163,1.163,0,0,0,.356.938A1.406,1.406,0,0,0,162.012,22.822Zm8.6-6.826a1.889,1.889,0,0,0-1.484.6,2.78,2.78,0,0,0-.615,1.7h4.18a2.483,2.483,0,0,0-.576-1.7A1.951,1.951,0,0,0,170.615,16Zm.42,9.2a5.635,5.635,0,0,1-4.121-1.455,5.509,5.509,0,0,1-1.484-4.121,6.06,6.06,0,0,1,1.372-4.243,4.886,4.886,0,0,1,3.794-1.5,4.809,4.809,0,0,1,3.6,1.318,4.988,4.988,0,0,1,1.289,3.643v1.445h-7.041a2.867,2.867,0,0,0,.752,1.982,2.646,2.646,0,0,0,1.973.713,8.189,8.189,0,0,0,1.865-.205,9.333,9.333,0,0,0,1.836-.654v2.3A6.994,6.994,0,0,1,173.2,25,10.529,10.529,0,0,1,171.035,25.2ZM184,13.877a4.8,4.8,0,0,1,1.006.088l-.225,2.793a3.412,3.412,0,0,0-.879-.1,3.159,3.159,0,0,0-2.222.732,2.648,2.648,0,0,0-.8,2.051V25H177.91V14.082h2.256l.439,1.836h.146a4.1,4.1,0,0,1,1.372-1.479A3.383,3.383,0,0,1,184,13.877Zm2.861-2.617q0-1.455,1.621-1.455t1.621,1.455a1.419,1.419,0,0,1-.405,1.079,1.7,1.7,0,0,1-1.216.386Q186.865,12.725,186.865,11.26ZM189.971,25h-2.979V14.082h2.979Zm5.5-5.479A4.582,4.582,0,0,0,196,21.973a1.9,1.9,0,0,0,1.733.83,1.873,1.873,0,0,0,1.714-.825,4.648,4.648,0,0,0,.522-2.456,4.51,4.51,0,0,0-.527-2.432,2.242,2.242,0,0,0-3.447,0A4.506,4.506,0,0,0,195.469,19.521Zm7.549,0a5.867,5.867,0,0,1-1.406,4.17,5.1,5.1,0,0,1-3.916,1.5,5.478,5.478,0,0,1-2.773-.688,4.581,4.581,0,0,1-1.846-1.978,6.645,6.645,0,0,1-.645-3.008,5.835,5.835,0,0,1,1.4-4.16,5.128,5.128,0,0,1,3.926-1.484,5.509,5.509,0,0,1,2.773.684,4.563,4.563,0,0,1,1.846,1.963A6.584,6.584,0,0,1,203.018,19.521Zm8.555-5.645a4.8,4.8,0,0,1,1.006.088l-.225,2.793a3.412,3.412,0,0,0-.879-.1,3.159,3.159,0,0,0-2.222.732,2.648,2.648,0,0,0-.8,2.051V25h-2.979V14.082h2.256l.439,1.836h.146a4.1,4.1,0,0,1,1.372-1.479A3.383,3.383,0,0,1,211.572,13.877ZM224.336,25h-2.979V18.623a3.212,3.212,0,0,0-.4-1.772,1.391,1.391,0,0,0-1.245-.591,1.8,1.8,0,0,0-1.66.84,5.509,5.509,0,0,0-.518,2.764V25h-2.979V14.082h2.275l.4,1.4h.166a3.026,3.026,0,0,1,1.27-1.177,4.122,4.122,0,0,1,1.9-.425,3.43,3.43,0,0,1,3.32,1.6h.264a2.95,2.95,0,0,1,1.294-1.182,4.315,4.315,0,0,1,1.929-.42,3.807,3.807,0,0,1,2.808.952,4.181,4.181,0,0,1,.952,3.052V25h-2.988V18.623a3.212,3.212,0,0,0-.4-1.772,1.391,1.391,0,0,0-1.245-.591,1.858,1.858,0,0,0-1.636.781,4.433,4.433,0,0,0-.542,2.48Zm14.385-9a1.889,1.889,0,0,0-1.484.6,2.78,2.78,0,0,0-.615,1.7h4.18a2.483,2.483,0,0,0-.576-1.7A1.951,1.951,0,0,0,238.721,16Zm.42,9.2a5.635,5.635,0,0,1-4.121-1.455,5.509,5.509,0,0,1-1.484-4.121,6.06,6.06,0,0,1,1.372-4.243,4.886,4.886,0,0,1,3.794-1.5,4.809,4.809,0,0,1,3.6,1.318,4.988,4.988,0,0,1,1.289,3.643v1.445h-7.041a2.867,2.867,0,0,0,.752,1.982,2.646,2.646,0,0,0,1.973.713,8.189,8.189,0,0,0,1.865-.205,9.333,9.333,0,0,0,1.836-.654v2.3a6.994,6.994,0,0,1-1.67.581A10.529,10.529,0,0,1,239.141,25.2Zm16.953-.2h-2.979V18.623a3.063,3.063,0,0,0-.42-1.772,1.528,1.528,0,0,0-1.338-.591,2.011,2.011,0,0,0-1.807.835,5.178,5.178,0,0,0-.557,2.769V25h-2.979V14.082h2.275l.4,1.4h.166a3.148,3.148,0,0,1,1.372-1.2,4.672,4.672,0,0,1,1.987-.405,3.818,3.818,0,0,1,2.891,1.03,4.134,4.134,0,0,1,.986,2.974Zm7.666-2.178a6.456,6.456,0,0,0,1.875-.342V24.7a6.685,6.685,0,0,1-2.734.5,3.347,3.347,0,0,1-2.6-.9,3.932,3.932,0,0,1-.815-2.71V16.318h-1.426v-1.26l1.641-1,.859-2.3h1.9v2.324h3.057v2.236h-3.057v5.264a1.163,1.163,0,0,0,.356.938A1.406,1.406,0,0,0,263.76,22.822Zm8.6-6.826a1.889,1.889,0,0,0-1.484.6,2.78,2.78,0,0,0-.615,1.7h4.18a2.483,2.483,0,0,0-.576-1.7A1.951,1.951,0,0,0,272.363,16Zm.42,9.2a5.635,5.635,0,0,1-4.121-1.455,5.509,5.509,0,0,1-1.484-4.121,6.06,6.06,0,0,1,1.372-4.243,4.886,4.886,0,0,1,3.794-1.5,4.809,4.809,0,0,1,3.6,1.318,4.988,4.988,0,0,1,1.289,3.643v1.445H270.2a2.867,2.867,0,0,0,.752,1.982,2.646,2.646,0,0,0,1.973.713,8.189,8.189,0,0,0,1.865-.205,9.333,9.333,0,0,0,1.836-.654v2.3a6.994,6.994,0,0,1-1.67.581A10.529,10.529,0,0,1,272.783,25.2ZM5.02,50.2A3.546,3.546,0,0,1,2,48.7,6.869,6.869,0,0,1,.9,44.561a6.876,6.876,0,0,1,1.118-4.185,3.632,3.632,0,0,1,3.081-1.5,3.562,3.562,0,0,1,3.145,1.6h.1A12.177,12.177,0,0,1,8.115,38.3V34.8H11.1V50H8.818l-.576-1.416H8.115A3.408,3.408,0,0,1,5.02,50.2Zm1.045-2.373a2.018,2.018,0,0,0,1.675-.664A3.863,3.863,0,0,0,8.32,44.9V44.58a4.464,4.464,0,0,0-.542-2.52A2.013,2.013,0,0,0,6.016,41.3a1.748,1.748,0,0,0-1.548.845A4.507,4.507,0,0,0,3.916,44.6a4.271,4.271,0,0,0,.557,2.417A1.819,1.819,0,0,0,6.064,47.822ZM18.74,41a1.889,1.889,0,0,0-1.484.6,2.78,2.78,0,0,0-.615,1.7h4.18a2.483,2.483,0,0,0-.576-1.7A1.951,1.951,0,0,0,18.74,41Zm.42,9.2a5.635,5.635,0,0,1-4.121-1.455,5.509,5.509,0,0,1-1.484-4.121,6.06,6.06,0,0,1,1.372-4.243,4.886,4.886,0,0,1,3.794-1.5,4.809,4.809,0,0,1,3.6,1.318,4.988,4.988,0,0,1,1.289,3.643v1.445H16.572a2.867,2.867,0,0,0,.752,1.982,2.646,2.646,0,0,0,1.973.713,8.189,8.189,0,0,0,1.865-.205A9.333,9.333,0,0,0,23,47.119v2.3a6.994,6.994,0,0,1-1.67.581A10.529,10.529,0,0,1,19.16,50.2Zm14.492-3.437a3.006,3.006,0,0,1-1.167,2.559,5.766,5.766,0,0,1-3.491.879,10.965,10.965,0,0,1-2.031-.161,7.683,7.683,0,0,1-1.572-.474V47.1a10.383,10.383,0,0,0,1.87.654,7.572,7.572,0,0,0,1.831.264q1.621,0,1.621-.937a.782.782,0,0,0-.215-.571,3.115,3.115,0,0,0-.742-.5q-.527-.278-1.406-.649a8.834,8.834,0,0,1-1.851-.977,2.749,2.749,0,0,1-.859-1.03,3.4,3.4,0,0,1-.269-1.431A2.594,2.594,0,0,1,26.5,39.673a5.494,5.494,0,0,1,3.2-.8,9.078,9.078,0,0,1,3.838.859l-.9,2.148q-.82-.352-1.533-.576a4.815,4.815,0,0,0-1.455-.225q-1.318,0-1.318.713a.838.838,0,0,0,.425.693,11.552,11.552,0,0,0,1.86.869,8.643,8.643,0,0,1,1.875.967,2.859,2.859,0,0,1,.879,1.035A3.181,3.181,0,0,1,33.652,46.758ZM40.41,50.2q-5.1,0-5.1-5.6A5.969,5.969,0,0,1,36.7,40.347a5.2,5.2,0,0,1,3.975-1.47,7.577,7.577,0,0,1,3.4.742l-.879,2.3q-.7-.283-1.309-.464a4.216,4.216,0,0,0-1.211-.181q-2.324,0-2.324,3.3,0,3.2,2.324,3.2a5.3,5.3,0,0,0,1.592-.229,5.747,5.747,0,0,0,1.465-.718v2.549a4.8,4.8,0,0,1-1.46.635A8.21,8.21,0,0,1,40.41,50.2ZM46.133,36.26q0-1.455,1.621-1.455t1.621,1.455a1.419,1.419,0,0,1-.405,1.079,1.7,1.7,0,0,1-1.216.386Q46.133,37.725,46.133,36.26ZM49.238,50H46.26V39.082h2.979Zm9.16-8.682H55.82V50H52.842V41.318H51.2V39.883l1.641-.8v-.8a3.577,3.577,0,0,1,.918-2.725A4.207,4.207,0,0,1,56.7,34.7a7.65,7.65,0,0,1,2.744.459l-.762,2.188a5.552,5.552,0,0,0-1.66-.283,1.075,1.075,0,0,0-.918.376,1.555,1.555,0,0,0-.283.962v.684H58.4Zm7.8-2.441a4.8,4.8,0,0,1,1.006.088l-.225,2.793a3.412,3.412,0,0,0-.879-.1,3.159,3.159,0,0,0-2.222.732,2.648,2.648,0,0,0-.8,2.051V50H60.107V39.082h2.256l.439,1.836h.146a4.1,4.1,0,0,1,1.372-1.479A3.383,3.383,0,0,1,66.2,38.877ZM76.123,50l-.576-1.484h-.078a4.4,4.4,0,0,1-1.548,1.313,5,5,0,0,1-2.075.366,3.356,3.356,0,0,1-2.476-.9,3.45,3.45,0,0,1-.9-2.559,2.881,2.881,0,0,1,1.216-2.563,7.045,7.045,0,0,1,3.667-.913l1.895-.059v-.479a1.485,1.485,0,0,0-1.7-1.66,7.743,7.743,0,0,0-3.076.791l-.986-2.012a8.876,8.876,0,0,1,4.18-.986,5.206,5.206,0,0,1,3.369.957,3.537,3.537,0,0,1,1.172,2.91V50Zm-.879-5.059-1.152.039a3.69,3.69,0,0,0-1.934.469,1.472,1.472,0,0,0-.635,1.309q0,1.26,1.445,1.26a2.289,2.289,0,0,0,1.655-.6,2.092,2.092,0,0,0,.62-1.582ZM84.727,50.2A3.546,3.546,0,0,1,81.7,48.7a6.869,6.869,0,0,1-1.1-4.141,6.876,6.876,0,0,1,1.118-4.185,3.632,3.632,0,0,1,3.081-1.5,3.562,3.562,0,0,1,3.145,1.6h.1a12.176,12.176,0,0,1-.225-2.178V34.8h2.988V50H88.525l-.576-1.416h-.127A3.408,3.408,0,0,1,84.727,50.2Zm1.045-2.373a2.018,2.018,0,0,0,1.675-.664,3.863,3.863,0,0,0,.581-2.256V44.58a4.464,4.464,0,0,0-.542-2.52,2.013,2.013,0,0,0-1.763-.762,1.748,1.748,0,0,0-1.548.845,4.507,4.507,0,0,0-.552,2.456,4.271,4.271,0,0,0,.557,2.417A1.819,1.819,0,0,0,85.771,47.822ZM100.859,50l-.576-1.484h-.078a4.4,4.4,0,0,1-1.548,1.313,5,5,0,0,1-2.075.366,3.356,3.356,0,0,1-2.476-.9,3.45,3.45,0,0,1-.9-2.559,2.881,2.881,0,0,1,1.216-2.563,7.045,7.045,0,0,1,3.667-.913L99.98,43.2v-.479a1.485,1.485,0,0,0-1.7-1.66,7.743,7.743,0,0,0-3.076.791l-.986-2.012a8.876,8.876,0,0,1,4.18-.986,5.206,5.206,0,0,1,3.369.957,3.537,3.537,0,0,1,1.172,2.91V50Zm-.879-5.059-1.152.039a3.69,3.69,0,0,0-1.934.469,1.472,1.472,0,0,0-.635,1.309q0,1.26,1.445,1.26a2.289,2.289,0,0,0,1.655-.6,2.092,2.092,0,0,0,.62-1.582Z" transform="translate(712 928)" fill="#00223d"/>
      <g id="Grupo_7497" data-name="Grupo 7497" transform="translate(0 45)">
        <g id="Elipse_517" data-name="Elipse 517" transform="translate(529 834)" fill="#fed97b" stroke="#00a99a" stroke-width="1">
          <circle cx="61.5" cy="61.5" r="61.5" stroke="none"/>
          <circle cx="61.5" cy="61.5" r="61" fill="none"/>
        </g>
        <ellipse id="Elipse_508" data-name="Elipse 508" cx="15.542" cy="15.542" rx="15.542" ry="15.542" transform="translate(576.133 881.702)" fill="none" stroke="#00a99a" stroke-miterlimit="10" stroke-width="4"/>
        <ellipse id="Elipse_509" data-name="Elipse 509" cx="27.878" cy="27.878" rx="27.878" ry="27.878" transform="translate(563.797 869.367)" fill="none" stroke="#00a99a" stroke-miterlimit="10" stroke-width="4"/>
      </g>
      <path id="Trazado_11500" data-name="Trazado 11500" d="M1.934-17.688V-22.5H23.752v4.812Zm0,8.5V-14H23.752v4.812Z" transform="translate(674.066 960.5)" fill="#00a99a"/>
    </g>
    <g id="Grupo_8345" data-name="Grupo 8345">
      <path id="Trazado_11496" data-name="Trazado 11496" d="M158.188,223.547" transform="translate(95.312 855.453)" fill="#fff" stroke="#161615" stroke-miterlimit="10" stroke-width="3"/>
      <path id="Trazado_13312" data-name="Trazado 13312" d="M13.5,0H10.479V-6.162H4.824V0H1.8V-14.277H4.824v5.6h5.654v-5.6H13.5Zm3.242-13.74q0-1.455,1.621-1.455T19.98-13.74a1.419,1.419,0,0,1-.405,1.079,1.7,1.7,0,0,1-1.216.386Q16.738-12.275,16.738-13.74ZM19.844,0H16.865V-10.918h2.979Zm6.1,0H22.969V-15.2h2.979Zm5.5-5.479a4.582,4.582,0,0,0,.532,2.451,1.9,1.9,0,0,0,1.733.83,1.873,1.873,0,0,0,1.714-.825,4.648,4.648,0,0,0,.522-2.456A4.51,4.51,0,0,0,35.42-7.91a1.907,1.907,0,0,0-1.729-.811,1.9,1.9,0,0,0-1.719.806A4.506,4.506,0,0,0,31.445-5.479Zm7.549,0a5.867,5.867,0,0,1-1.406,4.17A5.1,5.1,0,0,1,33.672.2,5.478,5.478,0,0,1,30.9-.493a4.581,4.581,0,0,1-1.846-1.978,6.645,6.645,0,0,1-.645-3.008,5.835,5.835,0,0,1,1.4-4.16,5.128,5.128,0,0,1,3.926-1.484,5.509,5.509,0,0,1,2.773.684A4.563,4.563,0,0,1,38.35-8.477,6.584,6.584,0,0,1,38.994-5.479ZM49.072-3.242A3.006,3.006,0,0,1,47.905-.684,5.766,5.766,0,0,1,44.414.2,10.965,10.965,0,0,1,42.383.034a7.683,7.683,0,0,1-1.572-.474V-2.9a10.383,10.383,0,0,0,1.87.654,7.572,7.572,0,0,0,1.831.264q1.621,0,1.621-.937a.782.782,0,0,0-.215-.571,3.115,3.115,0,0,0-.742-.5q-.527-.278-1.406-.649a8.834,8.834,0,0,1-1.851-.977,2.749,2.749,0,0,1-.859-1.03,3.4,3.4,0,0,1-.269-1.431,2.594,2.594,0,0,1,1.128-2.251,5.494,5.494,0,0,1,3.2-.8,9.078,9.078,0,0,1,3.838.859l-.9,2.148q-.82-.352-1.533-.576a4.815,4.815,0,0,0-1.455-.225q-1.318,0-1.318.713a.838.838,0,0,0,.425.693,11.553,11.553,0,0,0,1.86.869,8.643,8.643,0,0,1,1.875.967,2.859,2.859,0,0,1,.879,1.035A3.181,3.181,0,0,1,49.072-3.242ZM60.049.2A3.546,3.546,0,0,1,57.026-1.3a6.869,6.869,0,0,1-1.1-4.141,6.876,6.876,0,0,1,1.118-4.185,3.632,3.632,0,0,1,3.081-1.5,3.562,3.562,0,0,1,3.145,1.6h.1a12.177,12.177,0,0,1-.225-2.178v-3.5h2.988V0H63.848l-.576-1.416h-.127A3.408,3.408,0,0,1,60.049.2Zm1.045-2.373a2.018,2.018,0,0,0,1.675-.664A3.863,3.863,0,0,0,63.35-5.1V-5.42a4.464,4.464,0,0,0-.542-2.52A2.013,2.013,0,0,0,61.045-8.7a1.748,1.748,0,0,0-1.548.845A4.507,4.507,0,0,0,58.945-5.4,4.271,4.271,0,0,0,59.5-2.983,1.819,1.819,0,0,0,61.094-2.178ZM73.77-9a1.889,1.889,0,0,0-1.484.6,2.78,2.78,0,0,0-.615,1.7h4.18a2.483,2.483,0,0,0-.576-1.7A1.951,1.951,0,0,0,73.77-9Zm.42,9.2A5.635,5.635,0,0,1,70.068-1.26a5.509,5.509,0,0,1-1.484-4.121,6.06,6.06,0,0,1,1.372-4.243,4.886,4.886,0,0,1,3.794-1.5,4.809,4.809,0,0,1,3.6,1.318,4.988,4.988,0,0,1,1.289,3.643v1.445H71.6a2.867,2.867,0,0,0,.752,1.982,2.646,2.646,0,0,0,1.973.713,8.189,8.189,0,0,0,1.865-.205,9.333,9.333,0,0,0,1.836-.654v2.3A6.994,6.994,0,0,1,76.357,0,10.529,10.529,0,0,1,74.189.2Zm16.67-2.373a6.457,6.457,0,0,0,1.875-.342V-.3A6.685,6.685,0,0,1,90,.2a3.347,3.347,0,0,1-2.6-.9,3.932,3.932,0,0,1-.815-2.71V-8.682H85.156v-1.26l1.641-1,.859-2.3h1.9v2.324h3.057v2.236H89.561v5.264a1.163,1.163,0,0,0,.356.938A1.406,1.406,0,0,0,90.859-2.178ZM101.875,0,101.3-1.484h-.078A4.4,4.4,0,0,1,99.673-.171,5,5,0,0,1,97.6.2a3.356,3.356,0,0,1-2.476-.9,3.45,3.45,0,0,1-.9-2.559,2.881,2.881,0,0,1,1.216-2.563A7.045,7.045,0,0,1,99.1-6.738L101-6.8v-.479a1.485,1.485,0,0,0-1.7-1.66,7.743,7.743,0,0,0-3.076.791l-.986-2.012a8.876,8.876,0,0,1,4.18-.986,5.206,5.206,0,0,1,3.369.957,3.537,3.537,0,0,1,1.172,2.91V0ZM101-5.059l-1.152.039a3.69,3.69,0,0,0-1.934.469,1.472,1.472,0,0,0-.635,1.309q0,1.26,1.445,1.26a2.289,2.289,0,0,0,1.655-.6A2.092,2.092,0,0,0,101-4.16ZM110,0h-2.979V-15.2H110Zm10.059,0-.576-1.484H119.4a4.4,4.4,0,0,1-1.548,1.313A5,5,0,0,1,115.781.2a3.356,3.356,0,0,1-2.476-.9,3.45,3.45,0,0,1-.9-2.559,2.881,2.881,0,0,1,1.216-2.563,7.045,7.045,0,0,1,3.667-.913L119.18-6.8v-.479a1.485,1.485,0,0,0-1.7-1.66,7.743,7.743,0,0,0-3.076.791l-.986-2.012a8.876,8.876,0,0,1,4.18-.986,5.206,5.206,0,0,1,3.369.957,3.537,3.537,0,0,1,1.172,2.91V0Zm-.879-5.059-1.152.039a3.69,3.69,0,0,0-1.934.469,1.472,1.472,0,0,0-.635,1.309q0,1.26,1.445,1.26a2.289,2.289,0,0,0,1.655-.6,2.092,2.092,0,0,0,.62-1.582ZM3.936,19.521a4.582,4.582,0,0,0,.532,2.451A1.9,1.9,0,0,0,6.2,22.8a1.873,1.873,0,0,0,1.714-.825,4.648,4.648,0,0,0,.522-2.456A4.51,4.51,0,0,0,7.91,17.09a1.907,1.907,0,0,0-1.729-.811,1.9,1.9,0,0,0-1.719.806A4.506,4.506,0,0,0,3.936,19.521Zm7.549,0a5.867,5.867,0,0,1-1.406,4.17,5.1,5.1,0,0,1-3.916,1.5,5.478,5.478,0,0,1-2.773-.688,4.581,4.581,0,0,1-1.846-1.978A6.645,6.645,0,0,1,.9,19.521a5.835,5.835,0,0,1,1.4-4.16,5.128,5.128,0,0,1,3.926-1.484,5.509,5.509,0,0,1,2.773.684,4.563,4.563,0,0,1,1.846,1.963A6.584,6.584,0,0,1,11.484,19.521ZM22.119,25H19.141V9.8h2.979Zm6.1,0H25.244V14.082h2.979ZM25.1,12.881v-.264a27.494,27.494,0,0,0,2.295-2.939h3.34v.205q-.508.508-1.733,1.509T27.08,12.881ZM41.426,25H38.447V18.623a3.063,3.063,0,0,0-.42-1.772,1.528,1.528,0,0,0-1.338-.591,2.011,2.011,0,0,0-1.807.835,5.178,5.178,0,0,0-.557,2.769V25H31.348V14.082h2.275l.4,1.4h.166a3.148,3.148,0,0,1,1.372-1.2,4.672,4.672,0,0,1,1.987-.405,3.818,3.818,0,0,1,2.891,1.03,4.134,4.134,0,0,1,.986,2.974Zm7.588-9a1.889,1.889,0,0,0-1.484.6,2.78,2.78,0,0,0-.615,1.7h4.18a2.483,2.483,0,0,0-.576-1.7A1.951,1.951,0,0,0,49.014,16Zm.42,9.2a5.635,5.635,0,0,1-4.121-1.455,5.509,5.509,0,0,1-1.484-4.121A6.06,6.06,0,0,1,45.2,15.376a4.886,4.886,0,0,1,3.794-1.5A4.809,4.809,0,0,1,52.6,15.2a4.988,4.988,0,0,1,1.289,3.643v1.445H46.846a2.867,2.867,0,0,0,.752,1.982,2.646,2.646,0,0,0,1.973.713,8.189,8.189,0,0,0,1.865-.205,9.333,9.333,0,0,0,1.836-.654v2.3A6.994,6.994,0,0,1,51.6,25,10.529,10.529,0,0,1,49.434,25.2ZM63.242,25l-.576-1.484h-.078a4.4,4.4,0,0,1-1.548,1.313,5,5,0,0,1-2.075.366,3.356,3.356,0,0,1-2.476-.9,3.45,3.45,0,0,1-.9-2.559A2.881,2.881,0,0,1,56.8,19.175a7.045,7.045,0,0,1,3.667-.913l1.895-.059v-.479a1.485,1.485,0,0,0-1.7-1.66,7.743,7.743,0,0,0-3.076.791L56.6,14.844a8.876,8.876,0,0,1,4.18-.986,5.206,5.206,0,0,1,3.369.957,3.537,3.537,0,0,1,1.172,2.91V25Zm-.879-5.059-1.152.039a3.69,3.69,0,0,0-1.934.469,1.472,1.472,0,0,0-.635,1.309q0,1.26,1.445,1.26a2.289,2.289,0,0,0,1.655-.6,2.092,2.092,0,0,0,.62-1.582Zm13.643,1.816a3.006,3.006,0,0,1-1.167,2.559,5.766,5.766,0,0,1-3.491.879,10.965,10.965,0,0,1-2.031-.161,7.683,7.683,0,0,1-1.572-.474V22.1a10.383,10.383,0,0,0,1.87.654,7.572,7.572,0,0,0,1.831.264q1.621,0,1.621-.937a.782.782,0,0,0-.215-.571,3.115,3.115,0,0,0-.742-.5q-.527-.278-1.406-.649a8.834,8.834,0,0,1-1.851-.977,2.749,2.749,0,0,1-.859-1.03,3.4,3.4,0,0,1-.269-1.431,2.594,2.594,0,0,1,1.128-2.251,5.494,5.494,0,0,1,3.2-.8,9.078,9.078,0,0,1,3.838.859l-.9,2.148q-.82-.352-1.533-.576A4.815,4.815,0,0,0,72,16.084q-1.318,0-1.318.713a.838.838,0,0,0,.425.693,11.553,11.553,0,0,0,1.86.869,8.643,8.643,0,0,1,1.875.967,2.859,2.859,0,0,1,.879,1.035A3.181,3.181,0,0,1,76.006,21.758ZM86.982,25.2A3.546,3.546,0,0,1,83.96,23.7a6.869,6.869,0,0,1-1.1-4.141,6.876,6.876,0,0,1,1.118-4.185,3.632,3.632,0,0,1,3.081-1.5,3.562,3.562,0,0,1,3.145,1.6h.1a12.176,12.176,0,0,1-.225-2.178V9.8h2.988V25H90.781l-.576-1.416h-.127A3.408,3.408,0,0,1,86.982,25.2Zm1.045-2.373a2.018,2.018,0,0,0,1.675-.664,3.863,3.863,0,0,0,.581-2.256V19.58a4.464,4.464,0,0,0-.542-2.52,2.013,2.013,0,0,0-1.763-.762,1.748,1.748,0,0,0-1.548.845,4.507,4.507,0,0,0-.552,2.456,4.271,4.271,0,0,0,.557,2.417A1.819,1.819,0,0,0,88.027,22.822ZM100.7,16a1.889,1.889,0,0,0-1.484.6,2.78,2.78,0,0,0-.615,1.7h4.18a2.483,2.483,0,0,0-.576-1.7A1.951,1.951,0,0,0,100.7,16Zm.42,9.2A5.635,5.635,0,0,1,97,23.74a5.509,5.509,0,0,1-1.484-4.121,6.06,6.06,0,0,1,1.372-4.243,4.886,4.886,0,0,1,3.794-1.5,4.809,4.809,0,0,1,3.6,1.318,4.988,4.988,0,0,1,1.289,3.643v1.445H98.535a2.867,2.867,0,0,0,.752,1.982,2.646,2.646,0,0,0,1.973.713,8.189,8.189,0,0,0,1.865-.205,9.333,9.333,0,0,0,1.836-.654v2.3a6.994,6.994,0,0,1-1.67.581A10.529,10.529,0,0,1,101.123,25.2Zm19-.2-.576-1.484h-.078a4.4,4.4,0,0,1-1.548,1.313,5,5,0,0,1-2.075.366,3.356,3.356,0,0,1-2.476-.9,3.45,3.45,0,0,1-.9-2.559,2.881,2.881,0,0,1,1.216-2.563,7.045,7.045,0,0,1,3.667-.913l1.895-.059v-.479a1.485,1.485,0,0,0-1.7-1.66,7.743,7.743,0,0,0-3.076.791l-.986-2.012a8.876,8.876,0,0,1,4.18-.986,5.206,5.206,0,0,1,3.369.957,3.537,3.537,0,0,1,1.172,2.91V25Zm-.879-5.059-1.152.039a3.69,3.69,0,0,0-1.934.469,1.472,1.472,0,0,0-.635,1.309q0,1.26,1.445,1.26a2.289,2.289,0,0,0,1.655-.6,2.092,2.092,0,0,0,.62-1.582ZM131.27,25.2a3.621,3.621,0,0,1-3.018-1.4H128.1q.156,1.367.156,1.582V29.8h-2.979V14.082H127.7l.42,1.416h.137a3.446,3.446,0,0,1,3.1-1.621,3.543,3.543,0,0,1,3.027,1.494,6.91,6.91,0,0,1,1.094,4.15,8.2,8.2,0,0,1-.513,3.037,4.26,4.26,0,0,1-1.46,1.963A3.741,3.741,0,0,1,131.27,25.2Zm-.879-8.936a1.881,1.881,0,0,0-1.611.679,3.9,3.9,0,0,0-.527,2.241V19.5a4.6,4.6,0,0,0,.522,2.52,1.865,1.865,0,0,0,1.655.762q2,0,2-3.3a4.713,4.713,0,0,0-.493-2.417A1.683,1.683,0,0,0,130.391,16.26ZM140.908,25H137.93V9.8h2.979Zm5.5-5.479a4.582,4.582,0,0,0,.532,2.451,1.9,1.9,0,0,0,1.733.83,1.873,1.873,0,0,0,1.714-.825,4.648,4.648,0,0,0,.522-2.456,4.51,4.51,0,0,0-.527-2.432,2.242,2.242,0,0,0-3.447,0A4.506,4.506,0,0,0,146.406,19.521Zm7.549,0a5.867,5.867,0,0,1-1.406,4.17,5.1,5.1,0,0,1-3.916,1.5,5.478,5.478,0,0,1-2.773-.688,4.581,4.581,0,0,1-1.846-1.978,6.645,6.645,0,0,1-.645-3.008,5.835,5.835,0,0,1,1.4-4.16,5.128,5.128,0,0,1,3.926-1.484,5.509,5.509,0,0,1,2.773.684,4.563,4.563,0,0,1,1.846,1.963A6.584,6.584,0,0,1,153.955,19.521ZM166.191,25h-2.979V18.623a3.212,3.212,0,0,0-.4-1.772,1.391,1.391,0,0,0-1.245-.591,1.8,1.8,0,0,0-1.66.84,5.509,5.509,0,0,0-.518,2.764V25h-2.979V14.082h2.275l.4,1.4h.166a3.026,3.026,0,0,1,1.27-1.177,4.122,4.122,0,0,1,1.9-.425,3.43,3.43,0,0,1,3.32,1.6h.264A2.95,2.95,0,0,1,167.31,14.3a4.315,4.315,0,0,1,1.929-.42,3.807,3.807,0,0,1,2.808.952A4.181,4.181,0,0,1,173,17.881V25H170.01V18.623a3.212,3.212,0,0,0-.4-1.772,1.391,1.391,0,0,0-1.245-.591,1.858,1.858,0,0,0-1.636.781,4.433,4.433,0,0,0-.542,2.48Zm14.385-9a1.889,1.889,0,0,0-1.484.6,2.78,2.78,0,0,0-.615,1.7h4.18a2.483,2.483,0,0,0-.576-1.7A1.951,1.951,0,0,0,180.576,16Zm.42,9.2a5.635,5.635,0,0,1-4.121-1.455,5.509,5.509,0,0,1-1.484-4.121,6.06,6.06,0,0,1,1.372-4.243,4.886,4.886,0,0,1,3.794-1.5,4.809,4.809,0,0,1,3.6,1.318,4.988,4.988,0,0,1,1.289,3.643v1.445h-7.041a2.867,2.867,0,0,0,.752,1.982,2.646,2.646,0,0,0,1.973.713A8.189,8.189,0,0,0,183,22.773a9.333,9.333,0,0,0,1.836-.654v2.3a6.994,6.994,0,0,1-1.67.581A10.529,10.529,0,0,1,181,25.2Z" transform="translate(294 1093)" fill="#00223d"/>
      <g id="Grupo_7493" data-name="Grupo 7493" transform="translate(0 45)">
        <g id="Elipse_518" data-name="Elipse 518" transform="translate(110 989)" fill="#fed97b" stroke="#00a99a" stroke-width="1">
          <circle cx="61.5" cy="61.5" r="61.5" stroke="none"/>
          <circle cx="61.5" cy="61.5" r="61" fill="none"/>
        </g>
        <path id="Trazado_11487" data-name="Trazado 11487" d="M142.218,520.5l24.106-40.263a2.966,2.966,0,0,1,5.074-.024l24.4,39.9a4.179,4.179,0,0,1-3.565,6.359H145.6A3.947,3.947,0,0,1,142.218,520.5Z" transform="translate(3.349 544.707)" fill="none" stroke="#00a99a" stroke-miterlimit="10" stroke-width="4"/>
      </g>
      <path id="Trazado_11501" data-name="Trazado 11501" d="M1.934-17.688V-22.5H23.752v4.812Zm0,8.5V-14H23.752v4.812Z" transform="translate(252.066 1114.5)" fill="#00a99a"/>
    </g>
    <g id="Grupo_8350" data-name="Grupo 8350">
      <g id="Grupo_7498" data-name="Grupo 7498" transform="translate(0 45)">
        <g id="Elipse_519" data-name="Elipse 519" transform="translate(529 989)" fill="#fed97b" stroke="#00a99a" stroke-width="1">
          <circle cx="61.5" cy="61.5" r="61.5" stroke="none"/>
          <circle cx="61.5" cy="61.5" r="61" fill="none"/>
        </g>
        <g id="Grupo_7488" data-name="Grupo 7488" transform="translate(-41 -171)">
          <path id="Trazado_11503" data-name="Trazado 11503" d="M168.569,582.4h0c-10.023.013-19.37-5.813-23.108-15.114a25.2,25.2,0,0,1,23.086-35.007l.184,0" transform="translate(445.044 663.469)" fill="none" stroke="#00a99a" stroke-miterlimit="10" stroke-width="4"/>
          <path id="Trazado_11504" data-name="Trazado 11504" d="M166.831,565.17h0a13.047,13.047,0,0,1-12.195-7.975,13.3,13.3,0,0,1,12.182-18.473h.1" transform="translate(446.166 668.867)" fill="none" stroke="#00a99a" stroke-miterlimit="10" stroke-width="4"/>
          <path id="Trazado_11505" data-name="Trazado 11505" d="M168.569,582.4h0c-10.023.013-19.37-5.813-23.108-15.114a25.2,25.2,0,0,1,23.086-35.007l.184,0" transform="translate(820.261 1778.157) rotate(180)" fill="none" stroke="#00a99a" stroke-miterlimit="10" stroke-width="4"/>
          <path id="Trazado_11506" data-name="Trazado 11506" d="M166.831,565.17h0a13.047,13.047,0,0,1-12.195-7.975,13.3,13.3,0,0,1,12.182-18.473h.1" transform="translate(819.139 1772.759) rotate(180)" fill="none" stroke="#00a99a" stroke-miterlimit="10" stroke-width="4"/>
        </g>
        <path id="Trazado_11507" data-name="Trazado 11507" d="M1328.7-245.5h24.681" transform="translate(-753 1297)" fill="none" stroke="#00a99a" stroke-width="4"/>
        <path id="Polgono_4" data-name="Polgono 4" d="M7,0l7,12H0Z" transform="translate(610 1044) rotate(90)" fill="#00a99a"/>
      </g>
      <path id="Trazado_13317" data-name="Trazado 13317" d="M13.418-14.277v9.238a5.326,5.326,0,0,1-.708,2.773A4.608,4.608,0,0,1,10.664-.439,7.317,7.317,0,0,1,7.5.2,6.058,6.058,0,0,1,3.223-1.216,5.006,5.006,0,0,1,1.7-5.078v-9.2H4.717v8.74a3.661,3.661,0,0,0,.664,2.422,2.761,2.761,0,0,0,2.2.771A2.7,2.7,0,0,0,9.731-3.12,3.68,3.68,0,0,0,10.4-5.557v-8.721ZM26.758,0H23.779V-6.377a3.063,3.063,0,0,0-.42-1.772,1.528,1.528,0,0,0-1.338-.591,2.011,2.011,0,0,0-1.807.835,5.178,5.178,0,0,0-.557,2.769V0H16.68V-10.918h2.275l.4,1.4h.166a3.148,3.148,0,0,1,1.372-1.2,4.672,4.672,0,0,1,1.987-.405,3.818,3.818,0,0,1,2.891,1.03,4.134,4.134,0,0,1,.986,2.974ZM29.7-13.74q0-1.455,1.621-1.455t1.621,1.455a1.419,1.419,0,0,1-.405,1.079,1.7,1.7,0,0,1-1.216.386Q29.7-12.275,29.7-13.74ZM32.8,0H29.824V-10.918H32.8Zm9.219-11.123a4.8,4.8,0,0,1,1.006.088L42.8-8.242a3.412,3.412,0,0,0-.879-.1,3.159,3.159,0,0,0-2.222.732,2.648,2.648,0,0,0-.8,2.051V0H35.928V-10.918h2.256l.439,1.836h.146a4.1,4.1,0,0,1,1.372-1.479A3.383,3.383,0,0,1,42.021-11.123ZM56.2.2a3.621,3.621,0,0,1-3.018-1.4h-.156q.156,1.367.156,1.582V4.8H50.205V-10.918h2.422l.42,1.416h.137a3.446,3.446,0,0,1,3.1-1.621,3.543,3.543,0,0,1,3.027,1.494A6.91,6.91,0,0,1,60.4-5.479a8.2,8.2,0,0,1-.513,3.037,4.26,4.26,0,0,1-1.46,1.963A3.741,3.741,0,0,1,56.2.2ZM55.322-8.74a1.881,1.881,0,0,0-1.611.679,3.9,3.9,0,0,0-.527,2.241V-5.5a4.6,4.6,0,0,0,.522,2.52,1.865,1.865,0,0,0,1.655.762q2,0,2-3.3a4.713,4.713,0,0,0-.493-2.417A1.683,1.683,0,0,0,55.322-8.74Zm7.412-5q0-1.455,1.621-1.455t1.621,1.455a1.419,1.419,0,0,1-.405,1.079,1.7,1.7,0,0,1-1.216.386Q62.734-12.275,62.734-13.74ZM65.84,0H62.861V-10.918H65.84Zm7.646-9A1.889,1.889,0,0,0,72-8.4a2.78,2.78,0,0,0-.615,1.7h4.18a2.483,2.483,0,0,0-.576-1.7A1.951,1.951,0,0,0,73.486-9Zm.42,9.2A5.635,5.635,0,0,1,69.785-1.26,5.509,5.509,0,0,1,68.3-5.381a6.06,6.06,0,0,1,1.372-4.243,4.886,4.886,0,0,1,3.794-1.5A4.809,4.809,0,0,1,77.07-9.8a4.988,4.988,0,0,1,1.289,3.643v1.445H71.318a2.867,2.867,0,0,0,.752,1.982,2.646,2.646,0,0,0,1.973.713,8.189,8.189,0,0,0,1.865-.205,9.333,9.333,0,0,0,1.836-.654v2.3A6.994,6.994,0,0,1,76.074,0,10.529,10.529,0,0,1,73.906.2ZM88.379,0H79.756V-1.758l5.059-6.885H80.059v-2.275H88.2v1.934L83.281-2.275h5.1Zm9.092,0-.576-1.484h-.078A4.4,4.4,0,0,1,95.269-.171,5,5,0,0,1,93.193.2a3.356,3.356,0,0,1-2.476-.9,3.45,3.45,0,0,1-.9-2.559A2.881,2.881,0,0,1,91.03-5.825,7.045,7.045,0,0,1,94.7-6.738L96.592-6.8v-.479a1.485,1.485,0,0,0-1.7-1.66,7.743,7.743,0,0,0-3.076.791l-.986-2.012a8.876,8.876,0,0,1,4.18-.986,5.206,5.206,0,0,1,3.369.957,3.537,3.537,0,0,1,1.172,2.91V0Zm-.879-5.059-1.152.039a3.69,3.69,0,0,0-1.934.469,1.472,1.472,0,0,0-.635,1.309q0,1.26,1.445,1.26a2.289,2.289,0,0,0,1.655-.6,2.092,2.092,0,0,0,.62-1.582Zm13.643,1.816a3.006,3.006,0,0,1-1.167,2.559A5.766,5.766,0,0,1,105.576.2a10.965,10.965,0,0,1-2.031-.161,7.683,7.683,0,0,1-1.572-.474V-2.9a10.383,10.383,0,0,0,1.87.654,7.572,7.572,0,0,0,1.831.264q1.621,0,1.621-.937a.782.782,0,0,0-.215-.571,3.115,3.115,0,0,0-.742-.5q-.527-.278-1.406-.649a8.834,8.834,0,0,1-1.851-.977,2.749,2.749,0,0,1-.859-1.03,3.4,3.4,0,0,1-.269-1.431,2.594,2.594,0,0,1,1.128-2.251,5.494,5.494,0,0,1,3.2-.8,9.078,9.078,0,0,1,3.838.859l-.9,2.148q-.82-.352-1.533-.576a4.815,4.815,0,0,0-1.455-.225q-1.318,0-1.318.713a.838.838,0,0,0,.425.693,11.553,11.553,0,0,0,1.86.869,8.642,8.642,0,0,1,1.875.967,2.859,2.859,0,0,1,.879,1.035A3.181,3.181,0,0,1,110.234-3.242Z" transform="translate(712 1103)" fill="#00223d"/>
      <path id="Trazado_11508" data-name="Trazado 11508" d="M1.934-17.688V-22.5H23.752v4.812Zm0,8.5V-14H23.752v4.812Z" transform="translate(674.066 1111.5)" fill="#00a99a"/>
    </g>
    <g id="Grupo_8346" data-name="Grupo 8346">
      <path id="Trazado_11509" data-name="Trazado 11509" d="M158.188,223.547" transform="translate(95.312 1012.453)" fill="#fff" stroke="#161615" stroke-miterlimit="10" stroke-width="3"/>
      <path id="Trazado_13313" data-name="Trazado 13313" d="M13.5,0H10.479V-6.162H4.824V0H1.8V-14.277H4.824v5.6h5.654v-5.6H13.5Zm3.242-13.74q0-1.455,1.621-1.455T19.98-13.74a1.419,1.419,0,0,1-.405,1.079,1.7,1.7,0,0,1-1.216.386Q16.738-12.275,16.738-13.74ZM19.844,0H16.865V-10.918h2.979Zm6.1,0H22.969V-15.2h2.979Zm5.5-5.479a4.582,4.582,0,0,0,.532,2.451,1.9,1.9,0,0,0,1.733.83,1.873,1.873,0,0,0,1.714-.825,4.648,4.648,0,0,0,.522-2.456A4.51,4.51,0,0,0,35.42-7.91a1.907,1.907,0,0,0-1.729-.811,1.9,1.9,0,0,0-1.719.806A4.506,4.506,0,0,0,31.445-5.479Zm7.549,0a5.867,5.867,0,0,1-1.406,4.17A5.1,5.1,0,0,1,33.672.2,5.478,5.478,0,0,1,30.9-.493a4.581,4.581,0,0,1-1.846-1.978,6.645,6.645,0,0,1-.645-3.008,5.835,5.835,0,0,1,1.4-4.16,5.128,5.128,0,0,1,3.926-1.484,5.509,5.509,0,0,1,2.773.684A4.563,4.563,0,0,1,38.35-8.477,6.584,6.584,0,0,1,38.994-5.479ZM49.072-3.242A3.006,3.006,0,0,1,47.905-.684,5.766,5.766,0,0,1,44.414.2,10.965,10.965,0,0,1,42.383.034a7.683,7.683,0,0,1-1.572-.474V-2.9a10.383,10.383,0,0,0,1.87.654,7.572,7.572,0,0,0,1.831.264q1.621,0,1.621-.937a.782.782,0,0,0-.215-.571,3.115,3.115,0,0,0-.742-.5q-.527-.278-1.406-.649a8.834,8.834,0,0,1-1.851-.977,2.749,2.749,0,0,1-.859-1.03,3.4,3.4,0,0,1-.269-1.431,2.594,2.594,0,0,1,1.128-2.251,5.494,5.494,0,0,1,3.2-.8,9.078,9.078,0,0,1,3.838.859l-.9,2.148q-.82-.352-1.533-.576a4.815,4.815,0,0,0-1.455-.225q-1.318,0-1.318.713a.838.838,0,0,0,.425.693,11.553,11.553,0,0,0,1.86.869,8.643,8.643,0,0,1,1.875.967,2.859,2.859,0,0,1,.879,1.035A3.181,3.181,0,0,1,49.072-3.242ZM60.049.2A3.546,3.546,0,0,1,57.026-1.3a6.869,6.869,0,0,1-1.1-4.141,6.876,6.876,0,0,1,1.118-4.185,3.632,3.632,0,0,1,3.081-1.5,3.562,3.562,0,0,1,3.145,1.6h.1a12.177,12.177,0,0,1-.225-2.178v-3.5h2.988V0H63.848l-.576-1.416h-.127A3.408,3.408,0,0,1,60.049.2Zm1.045-2.373a2.018,2.018,0,0,0,1.675-.664A3.863,3.863,0,0,0,63.35-5.1V-5.42a4.464,4.464,0,0,0-.542-2.52A2.013,2.013,0,0,0,61.045-8.7a1.748,1.748,0,0,0-1.548.845A4.507,4.507,0,0,0,58.945-5.4,4.271,4.271,0,0,0,59.5-2.983,1.819,1.819,0,0,0,61.094-2.178ZM73.77-9a1.889,1.889,0,0,0-1.484.6,2.78,2.78,0,0,0-.615,1.7h4.18a2.483,2.483,0,0,0-.576-1.7A1.951,1.951,0,0,0,73.77-9Zm.42,9.2A5.635,5.635,0,0,1,70.068-1.26a5.509,5.509,0,0,1-1.484-4.121,6.06,6.06,0,0,1,1.372-4.243,4.886,4.886,0,0,1,3.794-1.5,4.809,4.809,0,0,1,3.6,1.318,4.988,4.988,0,0,1,1.289,3.643v1.445H71.6a2.867,2.867,0,0,0,.752,1.982,2.646,2.646,0,0,0,1.973.713,8.189,8.189,0,0,0,1.865-.205,9.333,9.333,0,0,0,1.836-.654v2.3A6.994,6.994,0,0,1,76.357,0,10.529,10.529,0,0,1,74.189.2Zm16.67-2.373a6.457,6.457,0,0,0,1.875-.342V-.3A6.685,6.685,0,0,1,90,.2a3.347,3.347,0,0,1-2.6-.9,3.932,3.932,0,0,1-.815-2.71V-8.682H85.156v-1.26l1.641-1,.859-2.3h1.9v2.324h3.057v2.236H89.561v5.264a1.163,1.163,0,0,0,.356.938A1.406,1.406,0,0,0,90.859-2.178ZM101.875,0,101.3-1.484h-.078A4.4,4.4,0,0,1,99.673-.171,5,5,0,0,1,97.6.2a3.356,3.356,0,0,1-2.476-.9,3.45,3.45,0,0,1-.9-2.559,2.881,2.881,0,0,1,1.216-2.563A7.045,7.045,0,0,1,99.1-6.738L101-6.8v-.479a1.485,1.485,0,0,0-1.7-1.66,7.743,7.743,0,0,0-3.076.791l-.986-2.012a8.876,8.876,0,0,1,4.18-.986,5.206,5.206,0,0,1,3.369.957,3.537,3.537,0,0,1,1.172,2.91V0ZM101-5.059l-1.152.039a3.69,3.69,0,0,0-1.934.469,1.472,1.472,0,0,0-.635,1.309q0,1.26,1.445,1.26a2.289,2.289,0,0,0,1.655-.6A2.092,2.092,0,0,0,101-4.16ZM110,0h-2.979V-15.2H110Zm10.059,0-.576-1.484H119.4a4.4,4.4,0,0,1-1.548,1.313A5,5,0,0,1,115.781.2a3.356,3.356,0,0,1-2.476-.9,3.45,3.45,0,0,1-.9-2.559,2.881,2.881,0,0,1,1.216-2.563,7.045,7.045,0,0,1,3.667-.913L119.18-6.8v-.479a1.485,1.485,0,0,0-1.7-1.66,7.743,7.743,0,0,0-3.076.791l-.986-2.012a8.876,8.876,0,0,1,4.18-.986,5.206,5.206,0,0,1,3.369.957,3.537,3.537,0,0,1,1.172,2.91V0Zm-.879-5.059-1.152.039a3.69,3.69,0,0,0-1.934.469,1.472,1.472,0,0,0-.635,1.309q0,1.26,1.445,1.26a2.289,2.289,0,0,0,1.655-.6,2.092,2.092,0,0,0,.62-1.582ZM3.936,19.521a4.582,4.582,0,0,0,.532,2.451A1.9,1.9,0,0,0,6.2,22.8a1.873,1.873,0,0,0,1.714-.825,4.648,4.648,0,0,0,.522-2.456A4.51,4.51,0,0,0,7.91,17.09a1.907,1.907,0,0,0-1.729-.811,1.9,1.9,0,0,0-1.719.806A4.506,4.506,0,0,0,3.936,19.521Zm7.549,0a5.867,5.867,0,0,1-1.406,4.17,5.1,5.1,0,0,1-3.916,1.5,5.478,5.478,0,0,1-2.773-.688,4.581,4.581,0,0,1-1.846-1.978A6.645,6.645,0,0,1,.9,19.521a5.835,5.835,0,0,1,1.4-4.16,5.128,5.128,0,0,1,3.926-1.484,5.509,5.509,0,0,1,2.773.684,4.563,4.563,0,0,1,1.846,1.963A6.584,6.584,0,0,1,11.484,19.521ZM22.119,25H19.141V9.8h2.979Zm6.1,0H25.244V14.082h2.979ZM25.1,12.881v-.264a27.494,27.494,0,0,0,2.295-2.939h3.34v.205q-.508.508-1.733,1.509T27.08,12.881ZM41.426,25H38.447V18.623a3.063,3.063,0,0,0-.42-1.772,1.528,1.528,0,0,0-1.338-.591,2.011,2.011,0,0,0-1.807.835,5.178,5.178,0,0,0-.557,2.769V25H31.348V14.082h2.275l.4,1.4h.166a3.148,3.148,0,0,1,1.372-1.2,4.672,4.672,0,0,1,1.987-.405,3.818,3.818,0,0,1,2.891,1.03,4.134,4.134,0,0,1,.986,2.974Zm7.588-9a1.889,1.889,0,0,0-1.484.6,2.78,2.78,0,0,0-.615,1.7h4.18a2.483,2.483,0,0,0-.576-1.7A1.951,1.951,0,0,0,49.014,16Zm.42,9.2a5.635,5.635,0,0,1-4.121-1.455,5.509,5.509,0,0,1-1.484-4.121A6.06,6.06,0,0,1,45.2,15.376a4.886,4.886,0,0,1,3.794-1.5A4.809,4.809,0,0,1,52.6,15.2a4.988,4.988,0,0,1,1.289,3.643v1.445H46.846a2.867,2.867,0,0,0,.752,1.982,2.646,2.646,0,0,0,1.973.713,8.189,8.189,0,0,0,1.865-.205,9.333,9.333,0,0,0,1.836-.654v2.3A6.994,6.994,0,0,1,51.6,25,10.529,10.529,0,0,1,49.434,25.2ZM63.242,25l-.576-1.484h-.078a4.4,4.4,0,0,1-1.548,1.313,5,5,0,0,1-2.075.366,3.356,3.356,0,0,1-2.476-.9,3.45,3.45,0,0,1-.9-2.559A2.881,2.881,0,0,1,56.8,19.175a7.045,7.045,0,0,1,3.667-.913l1.895-.059v-.479a1.485,1.485,0,0,0-1.7-1.66,7.743,7.743,0,0,0-3.076.791L56.6,14.844a8.876,8.876,0,0,1,4.18-.986,5.206,5.206,0,0,1,3.369.957,3.537,3.537,0,0,1,1.172,2.91V25Zm-.879-5.059-1.152.039a3.69,3.69,0,0,0-1.934.469,1.472,1.472,0,0,0-.635,1.309q0,1.26,1.445,1.26a2.289,2.289,0,0,0,1.655-.6,2.092,2.092,0,0,0,.62-1.582Zm13.643,1.816a3.006,3.006,0,0,1-1.167,2.559,5.766,5.766,0,0,1-3.491.879,10.965,10.965,0,0,1-2.031-.161,7.683,7.683,0,0,1-1.572-.474V22.1a10.383,10.383,0,0,0,1.87.654,7.572,7.572,0,0,0,1.831.264q1.621,0,1.621-.937a.782.782,0,0,0-.215-.571,3.115,3.115,0,0,0-.742-.5q-.527-.278-1.406-.649a8.834,8.834,0,0,1-1.851-.977,2.749,2.749,0,0,1-.859-1.03,3.4,3.4,0,0,1-.269-1.431,2.594,2.594,0,0,1,1.128-2.251,5.494,5.494,0,0,1,3.2-.8,9.078,9.078,0,0,1,3.838.859l-.9,2.148q-.82-.352-1.533-.576A4.815,4.815,0,0,0,72,16.084q-1.318,0-1.318.713a.838.838,0,0,0,.425.693,11.553,11.553,0,0,0,1.86.869,8.643,8.643,0,0,1,1.875.967,2.859,2.859,0,0,1,.879,1.035A3.181,3.181,0,0,1,76.006,21.758ZM86.982,25.2A3.546,3.546,0,0,1,83.96,23.7a6.869,6.869,0,0,1-1.1-4.141,6.876,6.876,0,0,1,1.118-4.185,3.632,3.632,0,0,1,3.081-1.5,3.562,3.562,0,0,1,3.145,1.6h.1a12.176,12.176,0,0,1-.225-2.178V9.8h2.988V25H90.781l-.576-1.416h-.127A3.408,3.408,0,0,1,86.982,25.2Zm1.045-2.373a2.018,2.018,0,0,0,1.675-.664,3.863,3.863,0,0,0,.581-2.256V19.58a4.464,4.464,0,0,0-.542-2.52,2.013,2.013,0,0,0-1.763-.762,1.748,1.748,0,0,0-1.548.845,4.507,4.507,0,0,0-.552,2.456,4.271,4.271,0,0,0,.557,2.417A1.819,1.819,0,0,0,88.027,22.822ZM100.7,16a1.889,1.889,0,0,0-1.484.6,2.78,2.78,0,0,0-.615,1.7h4.18a2.483,2.483,0,0,0-.576-1.7A1.951,1.951,0,0,0,100.7,16Zm.42,9.2A5.635,5.635,0,0,1,97,23.74a5.509,5.509,0,0,1-1.484-4.121,6.06,6.06,0,0,1,1.372-4.243,4.886,4.886,0,0,1,3.794-1.5,4.809,4.809,0,0,1,3.6,1.318,4.988,4.988,0,0,1,1.289,3.643v1.445H98.535a2.867,2.867,0,0,0,.752,1.982,2.646,2.646,0,0,0,1.973.713,8.189,8.189,0,0,0,1.865-.205,9.333,9.333,0,0,0,1.836-.654v2.3a6.994,6.994,0,0,1-1.67.581A10.529,10.529,0,0,1,101.123,25.2Zm19-.2-.576-1.484h-.078a4.4,4.4,0,0,1-1.548,1.313,5,5,0,0,1-2.075.366,3.356,3.356,0,0,1-2.476-.9,3.45,3.45,0,0,1-.9-2.559,2.881,2.881,0,0,1,1.216-2.563,7.045,7.045,0,0,1,3.667-.913l1.895-.059v-.479a1.485,1.485,0,0,0-1.7-1.66,7.743,7.743,0,0,0-3.076.791l-.986-2.012a8.876,8.876,0,0,1,4.18-.986,5.206,5.206,0,0,1,3.369.957,3.537,3.537,0,0,1,1.172,2.91V25Zm-.879-5.059-1.152.039a3.69,3.69,0,0,0-1.934.469,1.472,1.472,0,0,0-.635,1.309q0,1.26,1.445,1.26a2.289,2.289,0,0,0,1.655-.6,2.092,2.092,0,0,0,.62-1.582ZM131.27,25.2a3.621,3.621,0,0,1-3.018-1.4H128.1q.156,1.367.156,1.582V29.8h-2.979V14.082H127.7l.42,1.416h.137a3.446,3.446,0,0,1,3.1-1.621,3.543,3.543,0,0,1,3.027,1.494,6.91,6.91,0,0,1,1.094,4.15,8.2,8.2,0,0,1-.513,3.037,4.26,4.26,0,0,1-1.46,1.963A3.741,3.741,0,0,1,131.27,25.2Zm-.879-8.936a1.881,1.881,0,0,0-1.611.679,3.9,3.9,0,0,0-.527,2.241V19.5a4.6,4.6,0,0,0,.522,2.52,1.865,1.865,0,0,0,1.655.762q2,0,2-3.3a4.713,4.713,0,0,0-.493-2.417A1.683,1.683,0,0,0,130.391,16.26ZM140.908,25H137.93V9.8h2.979Zm5.5-5.479a4.582,4.582,0,0,0,.532,2.451,1.9,1.9,0,0,0,1.733.83,1.873,1.873,0,0,0,1.714-.825,4.648,4.648,0,0,0,.522-2.456,4.51,4.51,0,0,0-.527-2.432,2.242,2.242,0,0,0-3.447,0A4.506,4.506,0,0,0,146.406,19.521Zm7.549,0a5.867,5.867,0,0,1-1.406,4.17,5.1,5.1,0,0,1-3.916,1.5,5.478,5.478,0,0,1-2.773-.688,4.581,4.581,0,0,1-1.846-1.978,6.645,6.645,0,0,1-.645-3.008,5.835,5.835,0,0,1,1.4-4.16,5.128,5.128,0,0,1,3.926-1.484,5.509,5.509,0,0,1,2.773.684,4.563,4.563,0,0,1,1.846,1.963A6.584,6.584,0,0,1,153.955,19.521ZM166.191,25h-2.979V18.623a3.212,3.212,0,0,0-.4-1.772,1.391,1.391,0,0,0-1.245-.591,1.8,1.8,0,0,0-1.66.84,5.509,5.509,0,0,0-.518,2.764V25h-2.979V14.082h2.275l.4,1.4h.166a3.026,3.026,0,0,1,1.27-1.177,4.122,4.122,0,0,1,1.9-.425,3.43,3.43,0,0,1,3.32,1.6h.264A2.95,2.95,0,0,1,167.31,14.3a4.315,4.315,0,0,1,1.929-.42,3.807,3.807,0,0,1,2.808.952A4.181,4.181,0,0,1,173,17.881V25H170.01V18.623a3.212,3.212,0,0,0-.4-1.772,1.391,1.391,0,0,0-1.245-.591,1.858,1.858,0,0,0-1.636.781,4.433,4.433,0,0,0-.542,2.48Zm14.385-9a1.889,1.889,0,0,0-1.484.6,2.78,2.78,0,0,0-.615,1.7h4.18a2.483,2.483,0,0,0-.576-1.7A1.951,1.951,0,0,0,180.576,16Zm.42,9.2a5.635,5.635,0,0,1-4.121-1.455,5.509,5.509,0,0,1-1.484-4.121,6.06,6.06,0,0,1,1.372-4.243,4.886,4.886,0,0,1,3.794-1.5,4.809,4.809,0,0,1,3.6,1.318,4.988,4.988,0,0,1,1.289,3.643v1.445h-7.041a2.867,2.867,0,0,0,.752,1.982,2.646,2.646,0,0,0,1.973.713A8.189,8.189,0,0,0,183,22.773a9.333,9.333,0,0,0,1.836-.654v2.3a6.994,6.994,0,0,1-1.67.581A10.529,10.529,0,0,1,181,25.2Z" transform="translate(294 1247)" fill="#00223d"/>
      <path id="Trazado_11511" data-name="Trazado 11511" d="M1.934-17.688V-22.5H23.752v4.812Zm0,8.5V-14H23.752v4.812Z" transform="translate(252.066 1268.5)" fill="#00a99a"/>
      <g id="Grupo_7494" data-name="Grupo 7494" transform="translate(0 45)">
        <g id="Elipse_520" data-name="Elipse 520" transform="translate(110 1143)" fill="#fed97b" stroke="#00a99a" stroke-width="1">
          <circle cx="61.5" cy="61.5" r="61.5" stroke="none"/>
          <circle cx="61.5" cy="61.5" r="61" fill="none"/>
        </g>
        <g id="Grupo_7489" data-name="Grupo 7489" transform="translate(0 -5)">
          <ellipse id="Elipse_510" data-name="Elipse 510" cx="10.027" cy="10.027" rx="10.027" ry="10.027" transform="translate(141.211 1212.567)" fill="none" stroke="#00a99a" stroke-miterlimit="10" stroke-width="4"/>
          <path id="Trazado_11493" data-name="Trazado 11493" d="M194.756,616.991a10.027,10.027,0,1,1-10.027-10.027A10.028,10.028,0,0,1,194.756,616.991Z" transform="translate(6.5 605.604)" fill="none" stroke="#00a99a" stroke-miterlimit="10" stroke-width="4"/>
          <line id="Lnea_42" data-name="Lnea 42" x2="32.424" y2="32.424" transform="translate(151.238 1182.449)" fill="none" stroke="#00a99a" stroke-miterlimit="10" stroke-width="4"/>
          <line id="Lnea_43" data-name="Lnea 43" y1="32.674" x2="32.674" transform="translate(156.925 1181.665)" fill="none" stroke="#00a99a" stroke-miterlimit="10" stroke-width="4"/>
        </g>
      </g>
    </g>
    <g id="Grupo_8351" data-name="Grupo 8351">
      <path id="Trazado_11512" data-name="Trazado 11512" d="M158.188,223.547" transform="translate(509.349 1012.453)" fill="#fff" stroke="#161615" stroke-miterlimit="10" stroke-width="3"/>
      <path id="Trazado_13318" data-name="Trazado 13318" d="M13.643-7.275a7.031,7.031,0,0,1-2.007,5.4A8.184,8.184,0,0,1,5.84,0H1.8V-14.277H6.279a7.548,7.548,0,0,1,5.43,1.846A6.789,6.789,0,0,1,13.643-7.275ZM10.5-7.2q0-4.6-4.062-4.6H4.824v9.3h1.3Q10.5-2.5,10.5-7.2ZM18.74-5.479a4.582,4.582,0,0,0,.532,2.451,1.9,1.9,0,0,0,1.733.83,1.873,1.873,0,0,0,1.714-.825,4.648,4.648,0,0,0,.522-2.456,4.51,4.51,0,0,0-.527-2.432,1.907,1.907,0,0,0-1.729-.811,1.9,1.9,0,0,0-1.719.806A4.506,4.506,0,0,0,18.74-5.479Zm7.549,0a5.867,5.867,0,0,1-1.406,4.17A5.1,5.1,0,0,1,20.967.2a5.478,5.478,0,0,1-2.773-.688,4.581,4.581,0,0,1-1.846-1.978A6.645,6.645,0,0,1,15.7-5.479a5.835,5.835,0,0,1,1.4-4.16,5.128,5.128,0,0,1,3.926-1.484,5.509,5.509,0,0,1,2.773.684,4.563,4.563,0,0,1,1.846,1.963A6.584,6.584,0,0,1,26.289-5.479Zm8.535-5.645a3.532,3.532,0,0,1,3.027,1.509,6.923,6.923,0,0,1,1.094,4.136,6.8,6.8,0,0,1-1.128,4.189A3.651,3.651,0,0,1,34.746.2a3.621,3.621,0,0,1-3.018-1.4h-.205l-.5,1.2H28.75V-15.2h2.979v3.535q0,.674-.117,2.158h.117A3.446,3.446,0,0,1,34.824-11.123ZM33.867-8.74a1.881,1.881,0,0,0-1.611.679,3.9,3.9,0,0,0-.527,2.241V-5.5a4.6,4.6,0,0,0,.522,2.52,1.865,1.865,0,0,0,1.655.762,1.661,1.661,0,0,0,1.46-.845,4.572,4.572,0,0,0,.542-2.456,4.332,4.332,0,0,0-.547-2.417A1.715,1.715,0,0,0,33.867-8.74ZM44.385,0H41.406V-15.2h2.979Zm7.646-9a1.889,1.889,0,0,0-1.484.6,2.78,2.78,0,0,0-.615,1.7h4.18a2.483,2.483,0,0,0-.576-1.7A1.951,1.951,0,0,0,52.031-9Zm.42,9.2A5.635,5.635,0,0,1,48.33-1.26a5.509,5.509,0,0,1-1.484-4.121,6.06,6.06,0,0,1,1.372-4.243,4.886,4.886,0,0,1,3.794-1.5,4.809,4.809,0,0,1,3.6,1.318A4.988,4.988,0,0,1,56.9-6.162v1.445H49.863a2.867,2.867,0,0,0,.752,1.982,2.646,2.646,0,0,0,1.973.713,8.189,8.189,0,0,0,1.865-.205,9.333,9.333,0,0,0,1.836-.654v2.3A6.994,6.994,0,0,1,54.619,0,10.529,10.529,0,0,1,52.451.2ZM66.943-3.242A3.006,3.006,0,0,1,65.776-.684,5.766,5.766,0,0,1,62.285.2,10.965,10.965,0,0,1,60.254.034a7.683,7.683,0,0,1-1.572-.474V-2.9a10.383,10.383,0,0,0,1.87.654,7.572,7.572,0,0,0,1.831.264Q64-1.982,64-2.92a.782.782,0,0,0-.215-.571,3.115,3.115,0,0,0-.742-.5q-.527-.278-1.406-.649a8.834,8.834,0,0,1-1.851-.977,2.749,2.749,0,0,1-.859-1.03,3.4,3.4,0,0,1-.269-1.431,2.594,2.594,0,0,1,1.128-2.251,5.494,5.494,0,0,1,3.2-.8,9.078,9.078,0,0,1,3.838.859l-.9,2.148q-.82-.352-1.533-.576a4.815,4.815,0,0,0-1.455-.225q-1.318,0-1.318.713a.838.838,0,0,0,.425.693,11.553,11.553,0,0,0,1.86.869,8.642,8.642,0,0,1,1.875.967,2.859,2.859,0,0,1,.879,1.035A3.181,3.181,0,0,1,66.943-3.242Zm9.893-2.236a4.582,4.582,0,0,0,.532,2.451A1.9,1.9,0,0,0,79.1-2.2a1.873,1.873,0,0,0,1.714-.825,4.648,4.648,0,0,0,.522-2.456,4.51,4.51,0,0,0-.527-2.432,1.907,1.907,0,0,0-1.729-.811,1.9,1.9,0,0,0-1.719.806A4.506,4.506,0,0,0,76.836-5.479Zm7.549,0a5.867,5.867,0,0,1-1.406,4.17A5.1,5.1,0,0,1,79.063.2a5.478,5.478,0,0,1-2.773-.688,4.581,4.581,0,0,1-1.846-1.978A6.645,6.645,0,0,1,73.8-5.479a5.835,5.835,0,0,1,1.4-4.16,5.128,5.128,0,0,1,3.926-1.484,5.509,5.509,0,0,1,2.773.684A4.563,4.563,0,0,1,83.74-8.477,6.584,6.584,0,0,1,84.385-5.479ZM1.8,25V10.723H4.824V22.5h5.791V25Zm13.438-5.479a4.582,4.582,0,0,0,.532,2.451,1.9,1.9,0,0,0,1.733.83,1.873,1.873,0,0,0,1.714-.825,4.648,4.648,0,0,0,.522-2.456,4.51,4.51,0,0,0-.527-2.432,1.907,1.907,0,0,0-1.729-.811,1.9,1.9,0,0,0-1.719.806A4.506,4.506,0,0,0,15.234,19.521Zm7.549,0a5.867,5.867,0,0,1-1.406,4.17,5.1,5.1,0,0,1-3.916,1.5,5.478,5.478,0,0,1-2.773-.688,4.581,4.581,0,0,1-1.846-1.978,6.645,6.645,0,0,1-.645-3.008,5.835,5.835,0,0,1,1.4-4.16,5.128,5.128,0,0,1,3.926-1.484,5.509,5.509,0,0,1,2.773.684,4.563,4.563,0,0,1,1.846,1.963A6.584,6.584,0,0,1,22.783,19.521ZM35.02,25H32.041V18.623a3.212,3.212,0,0,0-.4-1.772A1.391,1.391,0,0,0,30.4,16.26a1.8,1.8,0,0,0-1.66.84,5.509,5.509,0,0,0-.518,2.764V25H25.244V14.082H27.52l.4,1.4h.166a3.026,3.026,0,0,1,1.27-1.177,4.122,4.122,0,0,1,1.9-.425,3.43,3.43,0,0,1,3.32,1.6h.264A2.95,2.95,0,0,1,36.138,14.3a4.315,4.315,0,0,1,1.929-.42,3.807,3.807,0,0,1,2.808.952,4.181,4.181,0,0,1,.952,3.052V25H38.838V18.623a3.212,3.212,0,0,0-.4-1.772A1.391,1.391,0,0,0,37.2,16.26a1.858,1.858,0,0,0-1.636.781,4.433,4.433,0,0,0-.542,2.48Zm12.236-5.479a4.582,4.582,0,0,0,.532,2.451,1.9,1.9,0,0,0,1.733.83,1.873,1.873,0,0,0,1.714-.825,4.648,4.648,0,0,0,.522-2.456,4.51,4.51,0,0,0-.527-2.432,2.242,2.242,0,0,0-3.447,0A4.506,4.506,0,0,0,47.256,19.521Zm7.549,0a5.867,5.867,0,0,1-1.406,4.17,5.1,5.1,0,0,1-3.916,1.5,5.478,5.478,0,0,1-2.773-.688,4.581,4.581,0,0,1-1.846-1.978,6.645,6.645,0,0,1-.645-3.008,5.835,5.835,0,0,1,1.4-4.16,5.128,5.128,0,0,1,3.926-1.484,5.509,5.509,0,0,1,2.773.684,4.563,4.563,0,0,1,1.846,1.963A6.584,6.584,0,0,1,54.8,19.521ZM65.918,25.2A3.546,3.546,0,0,1,62.9,23.7a6.869,6.869,0,0,1-1.1-4.141,6.876,6.876,0,0,1,1.118-4.185A3.632,3.632,0,0,1,66,13.877a3.562,3.562,0,0,1,3.145,1.6h.1a12.176,12.176,0,0,1-.225-2.178V9.8H72V25H69.717l-.576-1.416h-.127A3.408,3.408,0,0,1,65.918,25.2Zm1.045-2.373a2.018,2.018,0,0,0,1.675-.664,3.863,3.863,0,0,0,.581-2.256V19.58a4.464,4.464,0,0,0-.542-2.52,2.013,2.013,0,0,0-1.763-.762,1.748,1.748,0,0,0-1.548.845,4.507,4.507,0,0,0-.552,2.456,4.271,4.271,0,0,0,.557,2.417A1.819,1.819,0,0,0,66.963,22.822ZM79.639,16a1.889,1.889,0,0,0-1.484.6,2.78,2.78,0,0,0-.615,1.7h4.18a2.483,2.483,0,0,0-.576-1.7A1.951,1.951,0,0,0,79.639,16Zm.42,9.2a5.635,5.635,0,0,1-4.121-1.455,5.509,5.509,0,0,1-1.484-4.121,6.06,6.06,0,0,1,1.372-4.243,4.886,4.886,0,0,1,3.794-1.5,4.809,4.809,0,0,1,3.6,1.318,4.988,4.988,0,0,1,1.289,3.643v1.445H77.471a2.867,2.867,0,0,0,.752,1.982,2.646,2.646,0,0,0,1.973.713,8.189,8.189,0,0,0,1.865-.205,9.333,9.333,0,0,0,1.836-.654v2.3a6.994,6.994,0,0,1-1.67.581A10.529,10.529,0,0,1,80.059,25.2Zm16.67-2.373A6.457,6.457,0,0,0,98.6,22.48V24.7a6.685,6.685,0,0,1-2.734.5,3.347,3.347,0,0,1-2.6-.9,3.932,3.932,0,0,1-.815-2.71V16.318H91.025v-1.26l1.641-1,.859-2.3h1.9v2.324h3.057v2.236H95.43v5.264a1.163,1.163,0,0,0,.356.938A1.406,1.406,0,0,0,96.729,22.822Zm8.6-6.826a1.889,1.889,0,0,0-1.484.6,2.78,2.78,0,0,0-.615,1.7h4.18a2.483,2.483,0,0,0-.576-1.7A1.951,1.951,0,0,0,105.332,16Zm.42,9.2a5.635,5.635,0,0,1-4.121-1.455,5.509,5.509,0,0,1-1.484-4.121,6.06,6.06,0,0,1,1.372-4.243,4.886,4.886,0,0,1,3.794-1.5,4.809,4.809,0,0,1,3.6,1.318,4.988,4.988,0,0,1,1.289,3.643v1.445h-7.041a2.867,2.867,0,0,0,.752,1.982,2.646,2.646,0,0,0,1.973.713,8.189,8.189,0,0,0,1.865-.205,9.333,9.333,0,0,0,1.836-.654v2.3a6.994,6.994,0,0,1-1.67.581A10.529,10.529,0,0,1,105.752,25.2Zm13.809-.2-.576-1.484h-.078a4.4,4.4,0,0,1-1.548,1.313,5,5,0,0,1-2.075.366,3.356,3.356,0,0,1-2.476-.9,3.45,3.45,0,0,1-.9-2.559,2.881,2.881,0,0,1,1.216-2.563,7.045,7.045,0,0,1,3.667-.913l1.895-.059v-.479a1.485,1.485,0,0,0-1.7-1.66,7.743,7.743,0,0,0-3.076.791l-.986-2.012a8.876,8.876,0,0,1,4.18-.986,5.206,5.206,0,0,1,3.369.957,3.537,3.537,0,0,1,1.172,2.91V25Zm-.879-5.059-1.152.039a3.69,3.69,0,0,0-1.934.469,1.472,1.472,0,0,0-.635,1.309q0,1.26,1.445,1.26a2.289,2.289,0,0,0,1.655-.6,2.092,2.092,0,0,0,.62-1.582Zm9,5.059h-2.979V9.8h2.979Zm10.059,0-.576-1.484h-.078a4.4,4.4,0,0,1-1.548,1.313,5,5,0,0,1-2.075.366,3.356,3.356,0,0,1-2.476-.9,3.45,3.45,0,0,1-.9-2.559,2.881,2.881,0,0,1,1.216-2.563,7.045,7.045,0,0,1,3.667-.913l1.895-.059v-.479a1.485,1.485,0,0,0-1.7-1.66,7.743,7.743,0,0,0-3.076.791l-.986-2.012a8.876,8.876,0,0,1,4.18-.986,5.206,5.206,0,0,1,3.369.957,3.537,3.537,0,0,1,1.172,2.91V25Zm-.879-5.059-1.152.039a3.69,3.69,0,0,0-1.934.469,1.472,1.472,0,0,0-.635,1.309q0,1.26,1.445,1.26a2.289,2.289,0,0,0,1.655-.6,2.092,2.092,0,0,0,.62-1.582Z" transform="translate(712 1247)" fill="#00223d"/>
      <path id="Trazado_11513" data-name="Trazado 11513" d="M1.934-17.688V-22.5H23.752v4.812Zm0,8.5V-14H23.752v4.812Z" transform="translate(674.066 1268.5)" fill="#00a99a"/>
      <g id="Grupo_7499" data-name="Grupo 7499" transform="translate(-2 45)">
        <g id="Elipse_521" data-name="Elipse 521" transform="translate(528 1143)" fill="#fed97b" stroke="#00a99a" stroke-width="1">
          <circle cx="61.5" cy="61.5" r="61.5" stroke="none"/>
          <circle cx="61.5" cy="61.5" r="61" fill="none"/>
        </g>
        <g id="Grupo_7490" data-name="Grupo 7490" transform="translate(-3 2)">
          <ellipse id="Elipse_511" data-name="Elipse 511" cx="12.132" cy="12.132" rx="12.132" ry="12.132" transform="translate(583.84 1174.824)" fill="none" stroke="#00a99a" stroke-miterlimit="10" stroke-width="4"/>
          <ellipse id="Elipse_512" data-name="Elipse 512" cx="12.132" cy="12.132" rx="12.132" ry="12.132" transform="translate(593.173 1202.932)" fill="none" stroke="#00a99a" stroke-miterlimit="10" stroke-width="4"/>
          <ellipse id="Elipse_513" data-name="Elipse 513" cx="12.132" cy="12.132" rx="12.132" ry="12.132" transform="translate(563.881 1199.089)" fill="none" stroke="#00a99a" stroke-miterlimit="10" stroke-width="4"/>
        </g>
      </g>
    </g>
    <g id="Grupo_8347" data-name="Grupo 8347">
      <path id="Trazado_11514" data-name="Trazado 11514" d="M158.188,223.547" transform="translate(95.312 1169.453)" fill="#fff" stroke="#161615" stroke-miterlimit="10" stroke-width="3"/>
      <path id="Trazado_13314" data-name="Trazado 13314" d="M13.643-7.275a7.031,7.031,0,0,1-2.007,5.4A8.184,8.184,0,0,1,5.84,0H1.8V-14.277H6.279a7.548,7.548,0,0,1,5.43,1.846A6.789,6.789,0,0,1,13.643-7.275ZM10.5-7.2q0-4.6-4.062-4.6H4.824v9.3h1.3Q10.5-2.5,10.5-7.2ZM20.889-9a1.889,1.889,0,0,0-1.484.6,2.78,2.78,0,0,0-.615,1.7h4.18a2.483,2.483,0,0,0-.576-1.7A1.951,1.951,0,0,0,20.889-9Zm.42,9.2A5.635,5.635,0,0,1,17.188-1.26,5.509,5.509,0,0,1,15.7-5.381a6.06,6.06,0,0,1,1.372-4.243,4.886,4.886,0,0,1,3.794-1.5,4.809,4.809,0,0,1,3.6,1.318,4.988,4.988,0,0,1,1.289,3.643v1.445H18.721a2.867,2.867,0,0,0,.752,1.982,2.646,2.646,0,0,0,1.973.713,8.189,8.189,0,0,0,1.865-.205,9.333,9.333,0,0,0,1.836-.654v2.3A6.994,6.994,0,0,1,23.477,0,10.529,10.529,0,0,1,21.309.2ZM35.8-3.242A3.006,3.006,0,0,1,34.634-.684,5.766,5.766,0,0,1,31.143.2,10.965,10.965,0,0,1,29.111.034a7.683,7.683,0,0,1-1.572-.474V-2.9a10.383,10.383,0,0,0,1.87.654,7.572,7.572,0,0,0,1.831.264q1.621,0,1.621-.937a.782.782,0,0,0-.215-.571,3.115,3.115,0,0,0-.742-.5q-.527-.278-1.406-.649a8.834,8.834,0,0,1-1.851-.977,2.749,2.749,0,0,1-.859-1.03,3.4,3.4,0,0,1-.269-1.431,2.594,2.594,0,0,1,1.128-2.251,5.494,5.494,0,0,1,3.2-.8,9.078,9.078,0,0,1,3.838.859l-.9,2.148q-.82-.352-1.533-.576A4.815,4.815,0,0,0,31.8-8.916q-1.318,0-1.318.713a.838.838,0,0,0,.425.693,11.553,11.553,0,0,0,1.86.869,8.643,8.643,0,0,1,1.875.967,2.859,2.859,0,0,1,.879,1.035A3.181,3.181,0,0,1,35.8-3.242ZM41.582.2A3.546,3.546,0,0,1,38.56-1.3a6.869,6.869,0,0,1-1.1-4.141,6.876,6.876,0,0,1,1.118-4.185,3.632,3.632,0,0,1,3.081-1.5,3.562,3.562,0,0,1,3.145,1.6h.1a12.177,12.177,0,0,1-.225-2.178v-3.5h2.988V0H45.381L44.8-1.416h-.127A3.408,3.408,0,0,1,41.582.2Zm1.045-2.373A2.018,2.018,0,0,0,44.3-2.842,3.863,3.863,0,0,0,44.883-5.1V-5.42a4.464,4.464,0,0,0-.542-2.52A2.013,2.013,0,0,0,42.578-8.7a1.748,1.748,0,0,0-1.548.845A4.507,4.507,0,0,0,40.479-5.4a4.271,4.271,0,0,0,.557,2.417A1.819,1.819,0,0,0,42.627-2.178ZM55.3-9a1.889,1.889,0,0,0-1.484.6A2.78,2.78,0,0,0,53.2-6.7h4.18a2.483,2.483,0,0,0-.576-1.7A1.951,1.951,0,0,0,55.3-9Zm.42,9.2A5.635,5.635,0,0,1,51.6-1.26a5.509,5.509,0,0,1-1.484-4.121,6.06,6.06,0,0,1,1.372-4.243,4.886,4.886,0,0,1,3.794-1.5,4.809,4.809,0,0,1,3.6,1.318,4.988,4.988,0,0,1,1.289,3.643v1.445H53.135a2.867,2.867,0,0,0,.752,1.982,2.646,2.646,0,0,0,1.973.713,8.189,8.189,0,0,0,1.865-.205,9.333,9.333,0,0,0,1.836-.654v2.3A6.994,6.994,0,0,1,57.891,0,10.529,10.529,0,0,1,55.723.2Zm11.1-4.336V-6.582H72.07v2.441ZM91.357,0H88.34V-6.162H82.686V0H79.658V-14.277h3.027v5.6H88.34v-5.6h3.018Zm10.3,0-.576-1.484h-.078A4.4,4.4,0,0,1,99.458-.171,5,5,0,0,1,97.383.2a3.356,3.356,0,0,1-2.476-.9A3.45,3.45,0,0,1,94-3.262,2.881,2.881,0,0,1,95.22-5.825a7.045,7.045,0,0,1,3.667-.913l1.895-.059v-.479a1.485,1.485,0,0,0-1.7-1.66,7.743,7.743,0,0,0-3.076.791l-.986-2.012a8.876,8.876,0,0,1,4.18-.986,5.206,5.206,0,0,1,3.369.957,3.537,3.537,0,0,1,1.172,2.91V0Zm-.879-5.059-1.152.039a3.69,3.69,0,0,0-1.934.469,1.472,1.472,0,0,0-.635,1.309q0,1.26,1.445,1.26a2.289,2.289,0,0,0,1.655-.6,2.092,2.092,0,0,0,.62-1.582Zm13.643,1.816a3.006,3.006,0,0,1-1.167,2.559A5.766,5.766,0,0,1,109.766.2a10.965,10.965,0,0,1-2.031-.161,7.683,7.683,0,0,1-1.572-.474V-2.9a10.383,10.383,0,0,0,1.87.654,7.572,7.572,0,0,0,1.831.264q1.621,0,1.621-.937a.782.782,0,0,0-.215-.571,3.115,3.115,0,0,0-.742-.5q-.527-.278-1.406-.649a8.834,8.834,0,0,1-1.851-.977,2.749,2.749,0,0,1-.859-1.03,3.4,3.4,0,0,1-.269-1.431,2.594,2.594,0,0,1,1.128-2.251,5.494,5.494,0,0,1,3.2-.8,9.078,9.078,0,0,1,3.838.859l-.9,2.148q-.82-.352-1.533-.576a4.815,4.815,0,0,0-1.455-.225q-1.318,0-1.318.713a.838.838,0,0,0,.425.693,11.553,11.553,0,0,0,1.86.869,8.642,8.642,0,0,1,1.875.967,2.859,2.859,0,0,1,.879,1.035A3.181,3.181,0,0,1,114.424-3.242Zm6.924,1.064a6.457,6.457,0,0,0,1.875-.342V-.3a6.685,6.685,0,0,1-2.734.5,3.347,3.347,0,0,1-2.6-.9,3.932,3.932,0,0,1-.815-2.71V-8.682h-1.426v-1.26l1.641-1,.859-2.3h1.9v2.324h3.057v2.236h-3.057v5.264a1.163,1.163,0,0,0,.356.938A1.406,1.406,0,0,0,121.348-2.178ZM132.363,0l-.576-1.484h-.078a4.4,4.4,0,0,1-1.548,1.313A5,5,0,0,1,128.086.2a3.356,3.356,0,0,1-2.476-.9,3.45,3.45,0,0,1-.9-2.559,2.881,2.881,0,0,1,1.216-2.563,7.045,7.045,0,0,1,3.667-.913l1.895-.059v-.479a1.485,1.485,0,0,0-1.7-1.66,7.743,7.743,0,0,0-3.076.791l-.986-2.012a8.876,8.876,0,0,1,4.18-.986,5.206,5.206,0,0,1,3.369.957,3.537,3.537,0,0,1,1.172,2.91V0Zm-.879-5.059-1.152.039a3.69,3.69,0,0,0-1.934.469,1.472,1.472,0,0,0-.635,1.309q0,1.26,1.445,1.26a2.289,2.289,0,0,0,1.655-.6,2.092,2.092,0,0,0,.62-1.582Z" transform="translate(294 1416)" fill="#00223d"/>
      <path id="Trazado_11515" data-name="Trazado 11515" d="M1.934-17.688V-22.5H23.752v4.812Zm0,8.5V-14H23.752v4.812Z" transform="translate(252.066 1425.5)" fill="#00a99a"/>
      <g id="Grupo_7495" data-name="Grupo 7495" transform="translate(0 45)">
        <g id="Elipse_522" data-name="Elipse 522" transform="translate(110 1300)" fill="#fed97b" stroke="#00a99a" stroke-width="1">
          <circle cx="61.5" cy="61.5" r="61.5" stroke="none"/>
          <circle cx="61.5" cy="61.5" r="61" fill="none"/>
        </g>
        <path id="Trazado_11495" data-name="Trazado 11495" d="M145.75,723.579s16.18-19.112,30.291,0c14.291,16.6,26.185-10.836,26.185-10.836" transform="translate(-2.867 642.453)" fill="none" stroke="#00a99a" stroke-miterlimit="10" stroke-width="4"/>
      </g>
    </g>
  </g>
</svg>
