<svg xmlns="http://www.w3.org/2000/svg" width="193" height="497.199" viewBox="0 0 193 497.199">
  <g id="Grupo_8383" data-name="Grupo 8383" transform="translate(-763 -3178.512)">
    <circle id="Elipse_506" data-name="Elipse 506" cx="96.5" cy="96.5" r="96.5" transform="translate(763 3313)" fill="#fed97b" opacity="0.571"/>
    <g id="Grupo_7415" data-name="Grupo 7415" transform="translate(818 3210.123)">
      <g id="Grupo_7412" data-name="Grupo 7412" transform="translate(0.498)">
        <path id="Trazado_11298" data-name="Trazado 11298" d="M428.5,269.694c.662-.479,2.479-1.082,3-1.386a10.9,10.9,0,0,1,3.407-1.141s2.289-1.327,3.455-1.8,3.835-1.172,5.22-1.716a29.847,29.847,0,0,0,3.579-1.562c.96-.545,9.455-4.526,10.331-4.916s3.652-1.562,5.7-2.418A11.32,11.32,0,0,0,467.7,251.9a7.075,7.075,0,0,0,1.19-3.625s.286-4.394.18-6.8c-.113-2.512-.153-11.5-1.185-18.563-.9-6.164-2.331-14.176-2.643-15.736s-1.706-9.652-1.933-13.4c-.065-1.085-.706-7.214-1.109-14.993-.387-7.443-.66-11.279-1.353-13.823-1.159-4.253-2.513-5.741-4.259-9.273-1.737-3.512-2.027-7.915-2.834-11.01-.378-1.45-3.587-14.277-3.587-14.277s-12.549-35.262-13.387-60.985c-.183-5.6.986-12.557.679-15.912-1.891-20.642-.377-25.768-.054-32.858.844-18.495-.885-23.507-1.683-39.754-.191-3.906-1.261-16.411-1.261-16.411s-5.984-2.145-8.182-5.718c-2.259-3.673-2.781-6.881-1.456-10.989a32.178,32.178,0,0,1,7.423-11.062c3.706-3.641,15.853-13.65,18.889-16.139,4.487-3.681,12.739-9.275,12.589-12.021-.523-9.605-2.659-11.275-4.048-13.83a7.29,7.29,0,0,0-3.079-3.1c-3.465-1.576-5.65-.169-5.65-.169l33.914-29.412s0,19.384.07,21.963,1.547,14.151,3.164,18.868,5,11.928,5.609,16.146c1.279,8.8-1.821,27.4-2.464,35.279-.7,8.5-9.662,29.807-10.14,36.83-1.443,21.192,4.744,27.7,8.184,38.23,3.121,9.559,2.364,17.2-.683,23.9-2.6,5.7-6.042,9-6.807,9.374a28.13,28.13,0,0,0,.226,2.926c.149,1.451.405,19.932.793,29.3.116,2.806,0,16.724-.5,23.708s-1.335,17.826,1.1,25.236c.005.015.011.031.016.047,10.737,32.651,8.591,58.354,2.84,89.96-.781,4.291-1.936,13.756-.691,19.706.642,3.061,2.1,9.084,2.574,11.619.752,4-1.119,6.664-3.534,7.691-3.431,1.458-5.869,1-8.275,1-1.141,0-5.329-.385-8.012-.513-1.5-.073-11.084.755-14.247,1.02a52.756,52.756,0,0,1-7.6.159,11.983,11.983,0,0,1-3.858-.992c-.212,0-.62,1.476-2.506,1.476a2.219,2.219,0,0,1-1.475-.71,2.061,2.061,0,0,1-1.278.593c-.988-.038-1.005-.586-1.217-.586s-.59.708-1.782.431a2.051,2.051,0,0,1-.942-.673,4.575,4.575,0,0,1-.858.323,2.162,2.162,0,0,1-1.282-.088,1.782,1.782,0,0,1-.793-.781,3.123,3.123,0,0,1-.934-.09,2.189,2.189,0,0,1-1.056-3.7Z" transform="translate(-424.107 169.201)" fill="#fff" stroke="#3b1f10" stroke-linecap="round" stroke-linejoin="round" stroke-width="1.897"/>
        <path id="Trazado_11299" data-name="Trazado 11299" d="M453.154,179c-.3.706.14,2.335.215,2.847a30.35,30.35,0,0,0,.457,3.329,53.456,53.456,0,0,0,1.864,5.519c.245.564,1.978,2.649,2.588,3.674s.686,1.687,1.219,1.729a1.061,1.061,0,0,0,1.179-1.408c-.094-.462-.8-1.75-.951-2.262a20.417,20.417,0,0,0-1.522-2.816,22.8,22.8,0,0,1-1.523-4.693,6.283,6.283,0,0,0-.685-1.707s.228.384.494.769a9.457,9.457,0,0,1,.534,2.048c.046.176.231.7.433,1.259.287.794.609,1.671.631,1.771a15.317,15.317,0,0,0,.952,1.622c.152.213,1.028,2.048,1.18,2.389s1.171,1.894,1.322,2.192a6.9,6.9,0,0,0,1.075,1.82c.381.256.8.17,1.408-.085s.636-1.131.514-1.539a36.266,36.266,0,0,0-2.361-5.49c-.379-.6-1.163-4.531-1.683-6.19a1.214,1.214,0,0,0-.355-.636,1.276,1.276,0,0,1,.412.666c.561,1.5,1.189,5.173,1.875,6.122a50.828,50.828,0,0,1,3.147,4.544c.228.641.811,1.5,1.687,1.456a1.122,1.122,0,0,0,1.159-1.041,7.634,7.634,0,0,0-1.138-2.95,25.738,25.738,0,0,1-1.707-3.675c-.434-1.052-.767-2.81-1.294-4.243-.306-.834-.569-.983-.569-.983a1.772,1.772,0,0,1,.4.578c.271.5.494,1.638.8,2.334a15.562,15.562,0,0,0,1.187,2.257c.468.764,2.131,2.735,2.475,3.161s.892,1.1,1.387.891a1.408,1.408,0,0,0,.73-1.527c-.259-.88-1.783-2.693-2.411-4.324a10.274,10.274,0,0,1-.727-4.094c0-1.664,1.52-5.176,1.9-8.333s-.227-6.145-.187-9.174a19.82,19.82,0,0,1,1.056-6.627c1.124-4.264,5.891-15.462,9.221-24.685s5.212-24.036,5.656-25.978a26.447,26.447,0,0,1,1.836-4.758c.888-2.185.678-7.364,1.345-10.277s2.305-9.413,3.65-17.29c1.361-7.971,4.1-17.984,4.1-17.984s-27.4-7.05-26.957-5.837,1.775,1.2.449,6.5c-3.4,13.621-1.514,36.3-1.737,39.209s-1.332,7.767-2.664,14.078a253.114,253.114,0,0,0-3.552,26.457c-.174,4.007-1.985,20.665-2.615,25.292-.311,2.277-2.115,6.176-3.1,8.694S453.619,177.915,453.154,179Z" transform="translate(-440.251 63.682)" fill="#fff" stroke="#3b1f10" stroke-linecap="round" stroke-linejoin="round" stroke-width="1.716"/>
        <path id="Trazado_11300" data-name="Trazado 11300" d="M465.134,374.986s-.156-.424-.015-.566a1.513,1.513,0,0,1,.984-.294,2.066,2.066,0,0,1,.9,1.042c.2.438.308,1.018-.089,1.2s-.606.238-.918.018A4.277,4.277,0,0,1,465.134,374.986Z" transform="translate(-446.95 -116.418)" fill="#fff" stroke="#3b1f10" stroke-width="0.935"/>
        <path id="Trazado_11301" data-name="Trazado 11301" d="M472.378,375.893a1,1,0,0,1,1.042-.671c.384-.01.649.371.847.653s.612,1.135.725,1.36.1.67-.071.777c-.723.459-.989.424-1.254.265a2.983,2.983,0,0,1-.724-.84C472.732,377.1,472.221,376.293,472.378,375.893Z" transform="translate(-451.016 -117.037)" fill="#fff" stroke="#3b1f10" stroke-width="0.935"/>
        <path id="Trazado_11302" data-name="Trazado 11302" d="M481.618,374.1a1.273,1.273,0,0,1,.777-.565.848.848,0,0,1,.884.106,5.749,5.749,0,0,1,.919,1.731c.212.6.048.674-.142.795-.936.6-1.228.2-1.36.035a8.608,8.608,0,0,1-.583-.848C481.941,375.1,481.5,374.392,481.618,374.1Z" transform="translate(-456.175 -116.055)" fill="#fff" stroke="#3b1f10" stroke-width="0.935"/>
        <path id="Trazado_11303" data-name="Trazado 11303" d="M488.226,367.182a.88.88,0,0,1,.777-.671c.482-.028.685.221,1.007.636a3.5,3.5,0,0,1,.512.989c.1.256-.307.547-.477.618s-.365.252-.813-.176C488.964,368.318,488.148,367.438,488.226,367.182Z" transform="translate(-459.869 -112.176)" fill="#fff" stroke="#3b1f10" stroke-width="0.935"/>
        <path id="Trazado_11304" data-name="Trazado 11304" d="M438.721,85.421a9.183,9.183,0,0,0,5.508,1.955,10.5,10.5,0,0,0,6.75-1.9,22.831,22.831,0,0,0,3.194-2.8,8.44,8.44,0,0,1-4.521,4.552,11.436,11.436,0,0,1-6.936.85,14.432,14.432,0,0,1-3.5-1.445Z" transform="translate(-432.259 46.146)" fill="#3b1f10"/>
        <path id="Trazado_11305" data-name="Trazado 11305" d="M458.084,144.141s1.534,3.254,4,7.369c1.441,2.4,3.171,3.853,4.947,3.408.554-.139-1.974-.475-3.218-2.255s-1.416-2.166-2.785-4.227S458.084,144.141,458.084,144.141Z" transform="translate(-443.059 11.858)"/>
        <path id="Trazado_11306" data-name="Trazado 11306" d="M464.85,209.241a23.5,23.5,0,0,0-1.11,2.207,5.041,5.041,0,0,0-.237,2.891,15.937,15.937,0,0,0,.769,1.818s-.237-1.772-.237-2.114a10.727,10.727,0,0,1,.473-3A5.465,5.465,0,0,0,464.85,209.241Z" transform="translate(-446.013 -24.454)" fill="#3b1f10"/>
        <path id="Trazado_11307" data-name="Trazado 11307" d="M493.637,231.13s4.257-9.772,5.475-13.351a88.556,88.556,0,0,0,3.073-9.894c1.234-5.64,2.114-10.373,2.114-10.373s-1.73,6.432-2.978,11.046c-1.067,3.952-2.862,9.038-3.17,9.989C497.095,221.813,493.637,231.13,493.637,231.13Z" transform="translate(-462.89 -17.912)" fill="#3b1f10" fill-rule="evenodd"/>
        <path id="Trazado_11308" data-name="Trazado 11308" d="M512.354-21.81a49.5,49.5,0,0,1,5.7-1.379,10.427,10.427,0,0,1,6.745.647c2.877,1.205,4.908,3.685,6.495,4.331.818.333,2.775,1.2,1.795.5-.592-.422-4.948-4-6.555-4.957a11.515,11.515,0,0,0-6.969-1.551,17.932,17.932,0,0,0-4.232.915A13.287,13.287,0,0,0,512.354-21.81Z" transform="translate(-473.33 105.787)"/>
        <path id="Trazado_11309" data-name="Trazado 11309" d="M449.652-167.962a74.119,74.119,0,0,1-1.97-8.119c-.429-3,.233-7.9,1.716-9.679a9.78,9.78,0,0,1,5.436-3.481c2.289-.429,4.005-1,4.721.429s2.575,6.151,1.859,7.439S449.652-167.962,449.652-167.962Z" transform="translate(-437.185 198.085)" fill="#3b1f10"/>
        <path id="Trazado_11310" data-name="Trazado 11310" d="M439.719,787.187a8.2,8.2,0,0,0,1.263-.435c.211.046.229.178.084.255a3.321,3.321,0,0,1-1.242.521,1.662,1.662,0,0,1-1.917-.88,1.449,1.449,0,0,1,.568-1.806c.971-.7.969-.616,1.559-1.087.12-.1.6-.646.8-.836a17.4,17.4,0,0,1,1.637-1.03c.239-.137.745-.487.745-.487a.386.386,0,0,1-.092.487c-.248.254-1.936,1.069-2.253,1.613a4.04,4.04,0,0,1-1.117.983,4.945,4.945,0,0,0-1.332.868c-.216.338-.314.616.079,1.35A1.49,1.49,0,0,0,439.719,787.187Z" transform="translate(-431.741 -343.6)"/>
        <path id="Trazado_11311" data-name="Trazado 11311" d="M439.643,788.3s.443.117.566.158c.318.108.651.416.776.388a3.579,3.579,0,0,0,.748-.648.512.512,0,0,0-.1-.654c-.051-.06-.122-.206-.465-.18a6.642,6.642,0,0,0-.635.4C440.394,787.847,439.643,788.3,439.643,788.3Z" transform="translate(-432.773 -346.922)" fill="#fff" stroke="#3b1f10" stroke-linecap="round" stroke-linejoin="round" stroke-width="0.5"/>
        <path id="Trazado_11312" data-name="Trazado 11312" d="M446,788.535c.576,0,1.053-.537,1.156-.521.191.031.215.153.088.234a3.265,3.265,0,0,1-1.3.589,1.555,1.555,0,0,1-1.557-.748,1.9,1.9,0,0,1-.107-.838,1.062,1.062,0,0,1,.314-.7,8.772,8.772,0,0,0,1.585-1.333,9.508,9.508,0,0,1,.661-.768,15.55,15.55,0,0,1,1.42-1.052c.207-.141.645-.495.645-.495a.371.371,0,0,1-.059.459c-.211.251-1.447,1.047-1.947,1.63a7.669,7.669,0,0,1-.955,1.042,4.148,4.148,0,0,0-1.153.878c-.178.327-.013.681.3,1C445.543,788.358,445.537,788.535,446,788.535Z" transform="translate(-435.357 -344.437)"/>
        <path id="Trazado_11313" data-name="Trazado 11313" d="M445.772,789.8s.4.084.516.115c.29.083.605.351.716.318a3.281,3.281,0,0,0,.639-.646.487.487,0,0,0-.119-.6c-.049-.053-.12-.185-.426-.142-.081.011-.19.163-.552.411Z" transform="translate(-436.192 -347.744)" fill="#fff" stroke="#3b1f10" stroke-linecap="round" stroke-linejoin="round" stroke-width="0.5"/>
        <path id="Trazado_11314" data-name="Trazado 11314" d="M451.9,788.894c.393.013.807-.446.9-.437.165.018.188.119.082.19-.417.279-.626.529-.952.545a5.072,5.072,0,0,1-.967-.109,1.2,1.2,0,0,1-.534-.458,1.013,1.013,0,0,1-.033-.692,1.961,1.961,0,0,1,.9-1.169,4.6,4.6,0,0,0,.584-.593,8.1,8.1,0,0,1,.543-.662,13.513,13.513,0,0,1,1.187-.928c.174-.125.539-.436.539-.436a.3.3,0,0,1-.037.383c-.175.216-.969.742-1.441,1.214a8.568,8.568,0,0,1-.838.982,4.725,4.725,0,0,0-1.034.862.984.984,0,0,0,.378,1.09A1.073,1.073,0,0,0,451.9,788.894Z" transform="translate(-438.743 -345.131)"/>
        <path id="Trazado_11315" data-name="Trazado 11315" d="M451.491,790.146s.348.054.445.075c.252.058.528.268.624.236a2.905,2.905,0,0,0,.529-.559.394.394,0,0,0-.119-.5c-.043-.042-.109-.149-.369-.1-.07.013-.158.143-.461.363C452.037,789.738,451.491,790.146,451.491,790.146Z" transform="translate(-439.382 -347.998)" fill="#fff" stroke="#3b1f10" stroke-linecap="round" stroke-linejoin="round" stroke-width="0.5"/>
        <path id="Trazado_11316" data-name="Trazado 11316" d="M457.463,789.646a3.492,3.492,0,0,0,.817-.025c.153,0,.336.11.241.181a1.43,1.43,0,0,1-1.08.251,1.957,1.957,0,0,1-.838-.314,1.692,1.692,0,0,1-.576-.485.612.612,0,0,1-.131-.406,1.286,1.286,0,0,1,.2-.615,11.268,11.268,0,0,1,1.163-1.155,7.063,7.063,0,0,1,.451-.578,13.057,13.057,0,0,1,1.042-.9c.153-.123.472-.422.472-.422a.34.34,0,0,1,0,.395c-.148.2-1.3,1.031-1.467,1.428-.1.24-1.308,1.167-1.423,1.418a.8.8,0,0,0,.231.757A1.7,1.7,0,0,0,457.463,789.646Z" transform="translate(-441.838 -345.705)"/>
        <path id="Trazado_11317" data-name="Trazado 11317" d="M456.959,790.827s.325.011.417.019c.237.024.506.173.591.137a2.669,2.669,0,0,0,.457-.525.31.31,0,0,0-.142-.408c-.042-.031-.109-.115-.347-.049-.064.018-.138.137-.405.353C457.439,790.427,456.959,790.827,456.959,790.827Z" transform="translate(-442.432 -348.383)" fill="#fff" stroke="#3b1f10" stroke-linecap="round" stroke-linejoin="round" stroke-width="0.5"/>
        <path id="Trazado_11318" data-name="Trazado 11318" d="M434.288,782.093a8.967,8.967,0,0,0,1.191.786,1.26,1.26,0,0,0,.941-.134c.394-.2,1.58-.8,1.8-1.257.176-.36-.2-.743-.641-.786a1.949,1.949,0,0,0-.657.058s-1.069.413-1.438.547a4.464,4.464,0,0,0-1.119.563A.532.532,0,0,0,434.288,782.093Z" transform="translate(-429.786 -343.205)" fill="#fff" stroke="#3b1f10" stroke-width="0.5"/>
        <path id="Trazado_11319" data-name="Trazado 11319" d="M550.1,727.992a78.3,78.3,0,0,0,1.3,8.149,3.536,3.536,0,0,1-1.018,3.272c-.914.777-4.036.8-3.335.968,2.44.571,4.486-.258,4.9-1.678s-.008-2.618-.47-5.406C551.254,731.9,549.764,723.252,550.1,727.992Z" transform="translate(-492.63 -313.024)" fill="#3b1f10"/>
        <path id="Trazado_11320" data-name="Trazado 11320" d="M520.761,743.407a9.613,9.613,0,0,1,2.1-.685,3.256,3.256,0,0,0-2.884.429,27.987,27.987,0,0,0-2.541,2.246A21.125,21.125,0,0,1,520.761,743.407Z" transform="translate(-476.166 -321.935)" fill="#3b1f10" fill-rule="evenodd"/>
        <path id="Trazado_11321" data-name="Trazado 11321" d="M492.536,788.3s6.967-.8,9.617-.879c2.884-.086,7.465-.075,8.488,0,2.338.172,6.36.523,6.36.523a46.188,46.188,0,0,0-5.956-1.1,55,55,0,0,0-8.6-.173C498.566,787,492.536,788.3,492.536,788.3Z" transform="translate(-462.276 -346.484)" fill="#3b1f10" fill-rule="evenodd"/>
        <path id="Trazado_11322" data-name="Trazado 11322" d="M547.87,423.361s.932-10.018,1.146-14.051c.269-5.035.417-10.019.381-11.579-.143-6.169-.769-13.282-.769-13.282s.118,7.675-.03,12.783c-.125,4.374-.341,11.2-.379,12.265S547.87,423.361,547.87,423.361Z" transform="translate(-493.141 -122.183)" fill-rule="evenodd"/>
        <path id="Trazado_11323" data-name="Trazado 11323" d="M546.686,313.2a7.792,7.792,0,0,1,1.653.248,8.625,8.625,0,0,1,1.653.722l.009,1.117a10.993,10.993,0,0,0-1.628-1.255C547.888,313.819,546.686,313.2,546.686,313.2Z" transform="translate(-492.48 -82.444)" fill="#3b1f10" fill-rule="evenodd"/>
        <path id="Trazado_11324" data-name="Trazado 11324" d="M547.547,317.568a7.06,7.06,0,0,1,1.547.363,8.139,8.139,0,0,1,1.519.836l-.052,1.115a10.846,10.846,0,0,0-1.468-1.366C548.649,318.265,547.547,317.568,547.547,317.568Z" transform="translate(-492.961 -84.878)" fill="#3b1f10" fill-rule="evenodd"/>
        <path id="Trazado_11325" data-name="Trazado 11325" d="M493.2,501.661a31.018,31.018,0,0,0-2.045-3.212c-1.088-1.225-1.542-1.723-1.542-1.723l-.408-1.406a14.24,14.24,0,0,1,2.449,2.9A13.735,13.735,0,0,1,493.2,501.661Z" transform="translate(-460.417 -184.026)"/>
        <path id="Trazado_11326" data-name="Trazado 11326" d="M506.125,528.346s.861,5.942.226,8.481l.681,3.583C508.257,535.421,506.125,528.346,506.125,528.346Z" transform="translate(-469.856 -202.448)"/>
        <path id="Trazado_11327" data-name="Trazado 11327" d="M448.6-150.968a2,2,0,0,1,.973,1.977c0,.884-1.165,2.877-.688,4.173a2.215,2.215,0,0,0,2.309,1.723,17.975,17.975,0,0,0,6.928-1.179,80.58,80.58,0,0,0,10.466-4.127c3.1-1.622,7.011-3.563,9.286-4.864a43.087,43.087,0,0,0,13.695-11.792c4.348-5.454,5.173-13.487,5.91-18.868s-.59-13.266-4.128-16.214c-2.771-2.309-6.589-4.426-13.391-4.164-15.331.589-20.512,4.828-24.344,6.818s-6.781,8.991-7.371,10.76a39.273,39.273,0,0,0-.737,9.729c.21,1.945,1.055,4.042,1.055,4.515a19.4,19.4,0,0,1-1.939,4.329c-1.051,1.945-3.265,5.711-3.317,6.394s.914,1.5,2.207,1.945c.979.339,1.051,2.313.894,2.891a4.6,4.6,0,0,0-.158,2,15.545,15.545,0,0,0,1.266,1.3,1.969,1.969,0,0,0-.392,1.228C447.231-151.476,447.937-151.244,448.6-150.968Z" transform="translate(-434.819 206.229)" fill="#fff" stroke="#3b1f10" stroke-linecap="round" stroke-linejoin="round" stroke-width="1.942"/>
        <path id="Trazado_11328" data-name="Trazado 11328" d="M505.3-186.45a29.537,29.537,0,0,0-7.086-17.339,14.227,14.227,0,0,0-9.324-4.459,47.675,47.675,0,0,0-21.238,2.051c-6.187,2.076-9.584,3.446-12.975,5.952s-5.442,4.683-5.335,7.066c.067,1.5,1.918,6.35,10.068,10.58,2.925,1.519,8.2,1.209,10.388,4.726,4.5,7.243,5.762,18,7.868,32.186,1.427,9.612,3.945,17.707,8.978,19.132a27.182,27.182,0,0,1,6.8,3.051,16.607,16.607,0,0,1,5.634,4.64c2.585,3.778,4.089,12.357,4.957,22.561.853,10.013.677,11.076,1.142,12.635.053.176.133-.83.8-.83.566,0,.608.828.608.828s.123-.9.686-.861c.5.033.531.83.531.83s.2-1.119.6-1.1c.564.033.73,1.029.73,1.029s.565-1.327,1.062-1.261c.612.082.929,1.294.929,1.294s.3-1.626.7-1.659c.8-.066.57,1.879.763,1.493.564-1.129.334-4.137,0-5.641-.525-2.364-1.366-4.535-1.093-6.133,1.032-6.044,2.324-10.9,2.4-13.591a80.768,80.768,0,0,0-2.506-22.054c-1.93-6.546-1.838-8.02-3.341-13.2C504.434-156.925,506-179.206,505.3-186.45Z" transform="translate(-438.181 208.63)" fill="#3b1f10"/>
        <path id="Trazado_11329" data-name="Trazado 11329" d="M468.392-143.56a11.72,11.72,0,0,0-3.264-.645,10.753,10.753,0,0,0-4.9.308c-.89.262-1.674,1.172-1.563,1.452s.471.257.807.034a3.5,3.5,0,0,1,2.517-1.37,21.012,21.012,0,0,1,3.2-.04,29.959,29.959,0,0,1,3.062.463C468.636-143.292,468.634-143.458,468.392-143.56Z" transform="translate(-443.375 172.777)" fill="#3b1f10"/>
        <path id="Trazado_11330" data-name="Trazado 11330" d="M450.492-105.5a1.847,1.847,0,0,0-.637-.523,4.416,4.416,0,0,0-1.024-.341c-.727-.168-1.356-.254-1.3.082s.561.612,1.141.464A2.758,2.758,0,0,1,450.492-105.5Z" transform="translate(-437.171 151.668)" fill="#3b1f10"/>
        <path id="Trazado_11331" data-name="Trazado 11331" d="M457.361-107.886a1.829,1.829,0,0,1,.377,1.19c-.068.887-1.216.937-1.216.937a2.84,2.84,0,0,0,.807-.846A2.44,2.44,0,0,0,457.361-107.886Z" transform="translate(-442.188 152.436)" fill="#3b1f10"/>
        <path id="Trazado_11332" data-name="Trazado 11332" d="M456.5-92.475a1.85,1.85,0,0,0-.39-.308,2.3,2.3,0,0,0-.561-.171c-.048,0-.056.049-.008.122s.325.211.325.268-.187.114-.431.065a12.377,12.377,0,0,1-1.575-.812,11.638,11.638,0,0,0-1.878-.873,3.3,3.3,0,0,0-1.435-.253c-.383.027-.814.292-.807.653,0,.22.177.491.56.868l.592.576a6.986,6.986,0,0,0-.284.645,1.82,1.82,0,0,0,.146,1.205,1.915,1.915,0,0,0,1.19.83,3.739,3.739,0,0,0,1.7-.1,3.608,3.608,0,0,0,1.65-1.382c.353-.522.592-.914.592-.914s.3-.13.415,0,.249.427.3.337A.992.992,0,0,0,456.5-92.475Z" transform="translate(-438.407 144.939)" fill="#3b1f10"/>
        <path id="Trazado_11333" data-name="Trazado 11333" d="M456.635-89.362a4.7,4.7,0,0,1-1.167-.107,5.009,5.009,0,0,0-2.311-.223,1.023,1.023,0,0,0-.738.776,1.131,1.131,0,0,0,.345,1.182,2.385,2.385,0,0,0,1.79.384,2.748,2.748,0,0,0,1.656-.971,11.2,11.2,0,0,0,.755-1.094S456.718-89.366,456.635-89.362Z" transform="translate(-439.878 142.328)" fill="#fff"/>
        <path id="Trazado_11334" data-name="Trazado 11334" d="M455.206-91.995c-.433-.187-1.159-.628-1.628-.86a8.041,8.041,0,0,0-2.25-.707c-.34.008-.627.067-.667.253s.26.53.391.668.683.66.683.66a1.819,1.819,0,0,1,1.113-.307,7.64,7.64,0,0,1,1.79.361,4.979,4.979,0,0,0,1.213.146S455.361-91.927,455.206-91.995Z" transform="translate(-438.916 144.446)" fill="#fff"/>
        <g id="Grupo_7411" data-name="Grupo 7411" transform="translate(14.598 32.2)">
          <path id="Trazado_11335" data-name="Trazado 11335" d="M463.757-125.859a1.773,1.773,0,0,0-1.2.572,1.7,1.7,0,0,0-.275.652,2.537,2.537,0,0,1,.469-.538,2.391,2.391,0,0,1,.572-.217l-.263.492a1.458,1.458,0,0,0-.046.594s.3-.537.423-.7a2.12,2.12,0,0,1,.756-.588c.536-.143,1.25-.1,1.511-.2a.924.924,0,0,0,.52-.4,1.8,1.8,0,0,1-.717.179C464.8-125.916,464.443-125.985,463.757-125.859Z" transform="translate(-459.998 130.445)"/>
          <path id="Trazado_11336" data-name="Trazado 11336" d="M464.636-132.21a19.219,19.219,0,0,0-2.256-1.611,5.634,5.634,0,0,0-2.521-.965,3.726,3.726,0,0,1-1.73-.546,4.643,4.643,0,0,1-.672-.483,2.031,2.031,0,0,0,.378.606,4.392,4.392,0,0,0,1.178.8,1.357,1.357,0,0,1,.434.286,7.409,7.409,0,0,1-.983-.218,4.758,4.758,0,0,1-1.234-.446c-.24-.194-.057.206.217.435a3.684,3.684,0,0,0,1.046.631,6.818,6.818,0,0,0,1.209.342,3.662,3.662,0,0,0,.2.834c.149.354.411.812.823.869a.844.844,0,0,0,.886-.574,1.572,1.572,0,0,0,.021-.967,1.7,1.7,0,0,1,.88.173.69.69,0,0,1-.22.087l-.5.082a1.33,1.33,0,0,0,.67.069,1.307,1.307,0,0,0,.335-.112c.076.037.155.075.238.119a.767.767,0,0,1-.2.129,3.182,3.182,0,0,1-.62.128,1.4,1.4,0,0,0,.7.033,1.076,1.076,0,0,0,.363-.162c.093.05.186.1.28.153a.834.834,0,0,1-.188.086,5.268,5.268,0,0,1-.65.145,1.59,1.59,0,0,0,.594.014c.2-.051.347-.1.444-.133l.25.14c-.049.015-.123.037-.238.076-.09.03-.574.131-.574.131a1.579,1.579,0,0,0,.463.035,3.055,3.055,0,0,0,.562-.12,6.6,6.6,0,0,0,.625.333C465.073-131.733,464.979-131.912,464.636-132.21Zm-3.9.282s-.294,0-.5-.4c-.1-.189.047-.251.138-.091s.19.332.318.359C460.914-132.012,460.991-131.939,460.739-131.928Zm.472-.7c-.06.2-.205.381-.422.289s-.007-.21.028-.359a1.433,1.433,0,0,0-.048-.47s.191.005.256.014a1.019,1.019,0,0,1,.228.069A3.775,3.775,0,0,1,461.212-132.632Z" transform="translate(-457.118 135.815)"/>
        </g>
        <path id="Trazado_11337" data-name="Trazado 11337" d="M464.105-134.4a24.541,24.541,0,0,1,3.364,2.418,12.214,12.214,0,0,0-2.1-1.994,4.034,4.034,0,0,0-1.954-.926,3.219,3.219,0,0,0-1.657.094A4.5,4.5,0,0,1,464.105-134.4Z" transform="translate(-445.112 167.544)"/>
        <path id="Trazado_11338" data-name="Trazado 11338" d="M474.1-190.914a7.192,7.192,0,0,1,3.2,2.712c1.691,3.155,1.379,4.509,1.526,7.31a58.944,58.944,0,0,1-.053,5.911s-.2-9.026-1.854-12.077A22.9,22.9,0,0,0,474.1-190.914Z" transform="translate(-451.992 198.748)" fill="#fff"/>
        <path id="Trazado_11339" data-name="Trazado 11339" d="M554.788-194.413s4.449,6.484,5.021,18.116c.436,8.864-.465,20.53-.318,27.459a86.519,86.519,0,0,0,2.1,16.845c.884,3.98,2.645,9.611,2.645,9.611a85.165,85.165,0,0,1-5.442-24.422c-.44-7.076.509-23.708.064-30.192C558.293-185.2,554.788-194.413,554.788-194.413Z" transform="translate(-497 200.7)" fill="#fff"/>
        <path id="Trazado_11340" data-name="Trazado 11340" d="M532.656-199.055c3.052,3.623,6.039,9.281,7.438,24.536.476,5.186,1,17.8,1.4,27.585a192.35,192.35,0,0,0,1.971,20.785,156.777,156.777,0,0,1-2.543-18.5c-.9-10.684-1.018-23.58-1.462-27.967-.351-3.463-1.589-14.238-3.559-18.815-2.875-6.678-5.4-9.6-5.4-9.6A14.532,14.532,0,0,1,532.656-199.055Z" transform="translate(-483.449 204.388)" fill="#fff"/>
        <path id="Trazado_11341" data-name="Trazado 11341" d="M494.846-195.706s2.891-.292,6.484,12.967c2.67,9.852,3.939,23.65,4.895,28.73.5,2.636,5.148,25.3,5.148,25.3s-1.442-4.8-3.05-11.887c-1.442-6.356-3.043-14.942-3.432-17.225-.891-5.212-2.254-16.724-4.132-24.471A38.531,38.531,0,0,0,494.846-195.706Z" transform="translate(-463.565 201.421)" fill="#fff"/>
        <path id="Trazado_11342" data-name="Trazado 11342" d="M480.847-102.646a5.058,5.058,0,0,1,.144,2.289,11.278,11.278,0,0,1-.319,1.715,2.133,2.133,0,0,0,.8-1.6A2.785,2.785,0,0,0,480.847-102.646Z" transform="translate(-455.659 149.513)" fill="#3b1f10"/>
        <path id="Trazado_11343" data-name="Trazado 11343" d="M553.488,55.277A6.69,6.69,0,0,1,552.3,57.7a9.074,9.074,0,0,1-2.463,2.026l-1.033-.477a14.253,14.253,0,0,0,2.939-1.668A14.773,14.773,0,0,0,553.488,55.277Z" transform="translate(-493.66 61.425)" fill="#3b1f10"/>
        <path id="Trazado_11344" data-name="Trazado 11344" d="M512.279,57.517,488.447,52s-.739-.687-1.351-1.231a2.273,2.273,0,0,0-1.01-.409L483.68,48.54l29.79,4.846Z" transform="translate(-457.336 65.183)" fill="#fff"/>
        <path id="Trazado_11345" data-name="Trazado 11345" d="M437.8,63.96a2.733,2.733,0,0,1-4.623,1.125,2.493,2.493,0,0,1-.449-1.33,4.374,4.374,0,0,0,1.4,1.023C435.744,65.543,437.8,63.96,437.8,63.96Z" transform="translate(-428.914 56.696)" fill="#3b1f10"/>
        <path id="Trazado_11346" data-name="Trazado 11346" d="M437.443,60.223a1.42,1.42,0,0,0-.988-.3,1.014,1.014,0,0,0-.666.422.772.772,0,0,1,.646-.712.9.9,0,0,1,.732.152A1.213,1.213,0,0,1,437.443,60.223Z" transform="translate(-430.623 59.005)" fill="#3b1f10"/>
        <path id="Trazado_11347" data-name="Trazado 11347" d="M436.233,61.329a1.275,1.275,0,0,0,.283.346.656.656,0,0,0,.739.007.938.938,0,0,0,.291-.442s.1.511-.228.712a.753.753,0,0,1-.808-.014A.948.948,0,0,1,436.233,61.329Z" transform="translate(-430.871 58.1)" fill="#3b1f10"/>
      </g>
      <path id="Trazado_11353" data-name="Trazado 11353" d="M470.944-25.887s-4.07.756-10.451,5.541a72.7,72.7,0,0,0-8.564,7.227c-10.6,10.984-11.995,17.246-11.829,22,.232,6.652,3.151,8.9,6.246,10.558,3.453,1.85,5.362,1.327,5.362,1.327l-.5,3.593a17.42,17.42,0,0,0-6.8,1.216c-6.191,2.432-13.381,3.05-18.683-4.146S423.474,6.872,429.155.812C432.544-2.8,442.194-9.9,453.7-17.761c7.782-5.318,15.311-9.342,15.311-9.342Z" transform="translate(-422.981 107.376)" fill="#3b1f10"/>
      <path id="Trazado_11354" data-name="Trazado 11354" d="M452.91,256.623A52.83,52.83,0,0,1,456,248.5c1.124-2.383,4.112-5.965,4.19-7.486.231-4.489,1.842-16.9,1.842-16.9s-.05.513-4.082,1.42a13.3,13.3,0,0,1-5.856.177s-.487,11.31-.541,16.218A126.79,126.79,0,0,0,452.91,256.623Z" transform="translate(-438.919 -32.751)" fill="#3b1f10"/>
      <path id="Trazado_11355" data-name="Trazado 11355" d="M514.665,215.169a31.436,31.436,0,0,1,5.341-1.228,56.09,56.09,0,0,1,12.988-.657s8.57,17.871,7.055,25.49-2.662,9.65-2.662,9.65,4.437-7.846-1.4-17.57c-5.391-8.985-15.182-7.94-18.653-7.3A15.707,15.707,0,0,0,511.03,226Z" transform="translate(-472.094 -26.641)" fill="#3b1f10"/>
      <path id="Trazado_11356" data-name="Trazado 11356" d="M544.086,90.355s1.2,1.148,6.749,1.89c1.089.145,4.672.135,4.672.135l.543-1.468a32.609,32.609,0,0,1-6.277-.506c-4.369-.9-5.144-1.637-5.144-1.637Z" transform="translate(-490.532 42.744)" fill="#3b1f10"/>
    </g>
    <path id="Trazado_11360" data-name="Trazado 11360" d="M-265.586,2055.9h497.2" transform="translate(2915.398 3444.098) rotate(90)" fill="none" stroke="#e55858" stroke-width="4"/>
  </g>
</svg>
