<svg xmlns="http://www.w3.org/2000/svg" xmlns:xlink="http://www.w3.org/1999/xlink" width="475.629" height="293.07" viewBox="0 0 475.629 293.07">
  <defs>
    <linearGradient id="linear-gradient" y1="0.5" x2="1" y2="0.5" gradientUnits="objectBoundingBox">
      <stop offset="0" stop-color="#902372"/>
      <stop offset="0.727" stop-color="#54326b"/>
      <stop offset="1" stop-color="#3c3e69"/>
    </linearGradient>
    <linearGradient id="linear-gradient-2" y1="0.5" x2="1" y2="0.5" gradientUnits="objectBoundingBox">
      <stop offset="0" stop-color="#f8ad90"/>
      <stop offset="1" stop-color="#d99ec7"/>
    </linearGradient>
    <linearGradient id="linear-gradient-3" y1="0.5" x2="1" y2="0.5" gradientUnits="objectBoundingBox">
      <stop offset="0" stop-color="#e21f71"/>
      <stop offset="1" stop-color="#f63385"/>
    </linearGradient>
  </defs>
  <g id="Grupo_7401" data-name="Grupo 7401" transform="translate(-628.5 -42)">
    <g id="Fondo" transform="translate(628.5 42)">
      <path id="Trazado_10994" data-name="Trazado 10994" d="M404.547,78.141a.635.635,0,1,0-1.27,0v1.493h-1.494a.635.635,0,0,0,0,1.27h1.494V82.4a.635.635,0,1,0,1.27,0V80.9h1.493a.635.635,0,1,0,0-1.27h-1.493Z" transform="translate(-145.171 -52.288)" fill="#9fb2d9" fill-rule="evenodd"/>
      <path id="Trazado_10995" data-name="Trazado 10995" d="M138.653,243.844H96.973a40.906,40.906,0,0,0-40.787,40.787h0a40.906,40.906,0,0,0,40.787,40.786H449.41a66.238,66.238,0,0,0,66.044-66.044h0a66.239,66.239,0,0,0-66.044-66.044h0A28.008,28.008,0,0,1,421.486,165.4h0a28.006,28.006,0,0,1,27.924-27.924H483.02a29.118,29.118,0,0,0,29.032-29.034h0A29.118,29.118,0,0,0,483.02,79.41h-42.5a11.336,11.336,0,0,1-11.3-11.3h0a11.336,11.336,0,0,1,11.3-11.3h7.491a7.824,7.824,0,0,0,7.8-7.8h0a7.825,7.825,0,0,0-7.8-7.8H398.853c-10.353,0-11.506,12.231-37.657,12.231h-60.64a10.209,10.209,0,0,0-10.179,10.179h0a10.209,10.209,0,0,0,10.179,10.179h9.775a14.794,14.794,0,0,1,14.75,14.749h0a14.794,14.794,0,0,1-14.75,14.749H280.91c-39.727,0-45.338,10.382-52.3,31.031s-43.093,22.314-43.093,22.314H136.11a22.292,22.292,0,0,0-22.227,22.226h0a22.293,22.293,0,0,0,22.227,22.227h2.544a21.441,21.441,0,0,1,21.378,21.378h0a21.441,21.441,0,0,1-21.378,21.379ZM469.9,56.8a7.8,7.8,0,1,1,7.8-7.8A7.8,7.8,0,0,1,469.9,56.8Z" transform="translate(-39.826 -41.202)" fill="#fff" fill-rule="evenodd" opacity="0.57"/>
      <path id="Trazado_11006" data-name="Trazado 11006" d="M52.593,456.273H48.811a2.879,2.879,0,0,1-2.872-2.871h0a2.88,2.88,0,0,1,2.872-2.872h3.782a2.88,2.88,0,0,1,2.872,2.872h0A2.88,2.88,0,0,1,52.593,456.273Z" transform="translate(-36.696 -163.203)" fill="#e2c784" fill-rule="evenodd"/>
      <path id="Trazado_11007" data-name="Trazado 11007" d="M67.531,456.273H483.79a2.879,2.879,0,0,0,2.872-2.871h0a2.88,2.88,0,0,0-2.872-2.872H67.531A2.88,2.88,0,0,0,64.66,453.4h0A2.879,2.879,0,0,0,67.531,456.273Z" transform="translate(-42.413 -163.203)" fill="#e2c784" fill-rule="evenodd"/>
      <path id="Trazado_11008" data-name="Trazado 11008" d="M107.222,298.862Zm2.4-9.15a4.623,4.623,0,1,1-1.354,3.27,4.608,4.608,0,0,1,1.354-3.27Zm1-4.582a8.121,8.121,0,0,0-1.812.771,8.285,8.285,0,0,0-1.59,1.2.283.283,0,0,1-.338.042l-2.148-1.241-.011-.008a.537.537,0,0,0-.715.2l-.009.015-1.511,2.617a.536.536,0,0,0,.194.728l.015.009,2.13,1.231a.283.283,0,0,1,.134.313h0a8.282,8.282,0,0,0-.179,2.968,8.03,8.03,0,0,0,.18.977.286.286,0,0,1-.15.323l-2.13,1.229h0a.537.537,0,0,0-.247.324.528.528,0,0,0,.052.4l1.52,2.633h0a.532.532,0,0,0,.727.194l.017-.007,2.133-1.232a.282.282,0,0,1,.337.041,8.2,8.2,0,0,0,1.59,1.2,8.115,8.115,0,0,0,1.823.775.285.285,0,0,1,.206.274v2.478a.534.534,0,0,0,.532.531h3.04a.532.532,0,0,0,.532-.531v-2.479a.286.286,0,0,1,.219-.276,8.073,8.073,0,0,0,1.811-.772,8.188,8.188,0,0,0,1.591-1.2.284.284,0,0,1,.352-.032l2.134,1.232a.537.537,0,0,0,.4.052.531.531,0,0,0,.323-.248l.009-.015,1.511-2.618h0a.532.532,0,0,0,.052-.4.538.538,0,0,0-.246-.324l-2.146-1.238a.283.283,0,0,1-.134-.313h0a8.1,8.1,0,0,0,.179-.978,8.334,8.334,0,0,0,0-1.992,8.116,8.116,0,0,0-.179-.976.283.283,0,0,1,.15-.322l2.13-1.231a.534.534,0,0,0,.246-.324.528.528,0,0,0-.052-.4l-.008-.015-1.511-2.619h0a.536.536,0,0,0-.727-.2h0l-2.148,1.241a.284.284,0,0,1-.345-.048,8.192,8.192,0,0,0-1.584-1.192,8.087,8.087,0,0,0-1.823-.775.286.286,0,0,1-.206-.274v-2.478a.531.531,0,0,0-.532-.531h-3.04a.532.532,0,0,0-.532.531v2.478A.284.284,0,0,1,110.624,285.131Z" transform="translate(-53.944 -114.69)" fill="#f9ad3e" fill-rule="evenodd"/>
      <path id="Trazado_11010" data-name="Trazado 11010" d="M340.265,110.232Zm2.4-9.15a4.623,4.623,0,1,1-1.354,3.269,4.608,4.608,0,0,1,1.354-3.269Zm1-4.582a8.111,8.111,0,0,0-1.812.772,8.22,8.22,0,0,0-1.589,1.2.282.282,0,0,1-.338.042l-2.148-1.24-.011-.008a.533.533,0,0,0-.392-.044.521.521,0,0,0-.324.247l-.009.014-1.511,2.618a.536.536,0,0,0,.2.728l.015.009,2.131,1.23a.284.284,0,0,1,.133.313h0a8.251,8.251,0,0,0,0,3.945.285.285,0,0,1-.149.322l-2.13,1.229h0a.536.536,0,0,0-.2.728l1.52,2.633h0a.533.533,0,0,0,.727.2l.017-.008,2.133-1.232a.284.284,0,0,1,.337.042,8.155,8.155,0,0,0,3.413,1.973.284.284,0,0,1,.207.272v2.478a.532.532,0,0,0,.531.531h3.041a.531.531,0,0,0,.374-.156.524.524,0,0,0,.157-.375v-2.478a.284.284,0,0,1,.218-.276,8.162,8.162,0,0,0,1.812-.772,8.257,8.257,0,0,0,1.59-1.2.284.284,0,0,1,.352-.033l2.134,1.232a.533.533,0,0,0,.727-.2l.009-.015,1.513-2.619h0a.532.532,0,0,0,.053-.4.538.538,0,0,0-.247-.324L354,106.637a.285.285,0,0,1-.134-.313h0a7.733,7.733,0,0,0,.178-.977,8.146,8.146,0,0,0,0-1.992,7.665,7.665,0,0,0-.178-.977.283.283,0,0,1,.15-.322l2.131-1.23a.535.535,0,0,0,.194-.727l-.008-.016-1.511-2.617h0a.522.522,0,0,0-.323-.247.53.53,0,0,0-.4.051h0l-2.149,1.24a.282.282,0,0,1-.344-.047,8.21,8.21,0,0,0-1.584-1.192A8.073,8.073,0,0,0,348.2,96.5a.286.286,0,0,1-.206-.273V93.745a.536.536,0,0,0-.531-.531h-3.041a.534.534,0,0,0-.531.531v2.478A.284.284,0,0,1,343.667,96.5Z" transform="translate(-125.111 -57.085)" fill="#fff" fill-rule="evenodd"/>
      <path id="Trazado_11011" data-name="Trazado 11011" d="M664.679,236.9Zm2.4-9.151a4.627,4.627,0,1,1-1.352,3.269,4.612,4.612,0,0,1,1.352-3.269Zm1-4.582a8.118,8.118,0,0,0-1.811.772,8.208,8.208,0,0,0-1.59,1.2.284.284,0,0,1-.339.041l-2.148-1.24-.011-.007a.538.538,0,0,0-.716.2l-.01.015-1.509,2.617a.532.532,0,0,0,.2.728l.013.01,2.132,1.229a.286.286,0,0,1,.134.313h0a8.225,8.225,0,0,0-.181.977,8.525,8.525,0,0,0,0,1.991,8.266,8.266,0,0,0,.181.977.285.285,0,0,1-.151.322l-2.128,1.229h0a.543.543,0,0,0-.249.324.534.534,0,0,0,.053.4l1.519,2.632h0a.536.536,0,0,0,.727.2l.016-.009,2.133-1.232a.285.285,0,0,1,.338.042,8.191,8.191,0,0,0,1.59,1.2,8.1,8.1,0,0,0,1.823.775.286.286,0,0,1,.206.274v2.478a.535.535,0,0,0,.532.531h3.041a.536.536,0,0,0,.532-.531v-2.478a.285.285,0,0,1,.217-.277,8.125,8.125,0,0,0,1.812-.771,8.274,8.274,0,0,0,1.59-1.2.284.284,0,0,1,.353-.033l2.132,1.232a.536.536,0,0,0,.727-.2l.01-.015,1.511-2.619h0a.527.527,0,0,0,.052-.4.534.534,0,0,0-.246-.324l-2.146-1.238a.282.282,0,0,1-.134-.313h0a8.291,8.291,0,0,0,.179-.976,8.346,8.346,0,0,0,0-1.993,8.25,8.25,0,0,0-.179-.977.284.284,0,0,1,.149-.322l2.131-1.23a.536.536,0,0,0,.194-.727l-.009-.016-1.51-2.618h0a.539.539,0,0,0-.729-.2h0l-2.148,1.24a.283.283,0,0,1-.345-.047,8.145,8.145,0,0,0-3.408-1.968.284.284,0,0,1-.2-.273v-2.478a.536.536,0,0,0-.532-.531H668.83a.535.535,0,0,0-.532.531v2.478A.283.283,0,0,1,668.08,223.163Z" transform="translate(-224.181 -95.766)" fill="#00a99a" fill-rule="evenodd"/>
      <path id="Trazado_11012" data-name="Trazado 11012" d="M693.457,270.1a.792.792,0,1,0-1.584,0v1.866h-1.866a.793.793,0,0,0,0,1.586h1.866v1.864a.792.792,0,1,0,1.584,0v-1.864h1.864a.793.793,0,1,0,0-1.586h-1.864Z" transform="translate(-233.141 -110.862)" fill="#00a99a" fill-rule="evenodd"/>
      <path id="Trazado_11013" data-name="Trazado 11013" d="M606.862,111.129a.793.793,0,0,0-1.586,0v1.865h-1.864a.793.793,0,0,0,0,1.585h1.864v1.865a.793.793,0,0,0,1.586,0v-1.865h1.864a.793.793,0,1,0,0-1.585h-1.864Z" transform="translate(-206.696 -62.314)" fill="#00a99a" fill-rule="evenodd"/>
      <path id="Trazado_11014" data-name="Trazado 11014" d="M478.883,68.714a1.03,1.03,0,0,0-2.06,0v2.424H474.4a1.03,1.03,0,1,0,0,2.061h2.422v2.423a1.03,1.03,0,0,0,2.06,0V73.2h2.424a1.03,1.03,0,0,0,0-2.061h-2.424Z" transform="translate(-167.225 -2.357)" fill="#00a99a" fill-rule="evenodd"/>
      <path id="Trazado_11015" data-name="Trazado 11015" d="M158.369,295.955a.793.793,0,0,0-1.586,0v1.864h-1.864a.794.794,0,0,0,0,1.587h1.864v1.864a.793.793,0,0,0,1.586,0v-1.864h1.864a.794.794,0,0,0,0-1.587h-1.864Z" transform="translate(-69.735 -118.757)" fill="#00a99a" fill-rule="evenodd"/>
      <path id="Trazado_11016" data-name="Trazado 11016" d="M269.523,148.611a.793.793,0,0,0-1.587,0v1.866h-1.864a.793.793,0,1,0,0,1.585h1.864v1.864a.793.793,0,1,0,1.587,0v-1.864h1.864a.793.793,0,1,0,0-1.585h-1.864Z" transform="translate(-103.679 -73.76)" fill="#f9ad3e" fill-rule="evenodd"/>
      <path id="Trazado_11017" data-name="Trazado 11017" d="M138.982,404.523a.793.793,0,0,0-1.586,0v1.864h-1.864a.793.793,0,0,0,0,1.587H137.4v1.864a.793.793,0,0,0,1.586,0v-1.864h1.864a.793.793,0,1,0,0-1.587h-1.864Z" transform="translate(-63.814 -151.911)" fill="#f9ad3e" fill-rule="evenodd"/>
      <path id="Trazado_11018" data-name="Trazado 11018" d="M36.876,321.8a.793.793,0,0,0-1.587,0v1.865H33.426a.793.793,0,0,0,0,1.586H35.29v1.864a.793.793,0,0,0,1.587,0v-1.864h1.864a.793.793,0,0,0,0-1.586H36.876Z" transform="translate(-32.633 -126.651)" fill="#00a99a" fill-rule="evenodd"/>
    </g>
    <g id="Diseño_Chica" data-name="Diseño Chica" transform="translate(714.499 68.054)">
      <g id="Grupo_7400" data-name="Grupo 7400">
        <g id="Grupo_7380" data-name="Grupo 7380" transform="translate(209.331 98.637)">
          <path id="Trazado_11026" data-name="Trazado 11026" d="M457.8,300.655V405.643h2.437l7.053-95.484H594.135l6.532,95.484h1.964V300.655Z" transform="translate(-457.802 -245.124)" fill="url(#linear-gradient)"/>
          <rect id="Rectángulo_1787" data-name="Rectángulo 1787" width="2.384" height="0.994" transform="translate(104.708)" fill="#f8963c"/>
          <path id="Trazado_11027" data-name="Trazado 11027" d="M549.085,274.971h0a.486.486,0,0,1-.486-.485v-2.2h.972v2.2A.485.485,0,0,1,549.085,274.971Z" transform="translate(-485.529 -236.461)" fill="#513e52"/>
          <path id="Rectángulo_1788" data-name="Rectángulo 1788" d="M3.32,0h0A3.319,3.319,0,0,1,6.639,3.319V17.994A3.319,3.319,0,0,1,3.32,21.313h0A3.32,3.32,0,0,1,0,17.994V3.32A3.32,3.32,0,0,1,3.32,0Z" transform="translate(90.508 32.098)" fill="#513e52"/>
          <path id="Trazado_11028" data-name="Trazado 11028" d="M618.3,233.53v.591h1.219V238h.838v-3.883h.838v-.591Z" transform="translate(-506.815 -224.625)" fill="#513e52"/>
          <path id="Trazado_11029" data-name="Trazado 11029" d="M550.984,285.709V272.287h.914Z" transform="translate(-486.258 -236.461)" fill="#513e52"/>
          <path id="Trazado_11030" data-name="Trazado 11030" d="M597.11,237.678l-47.611-4.1-.866,22.932V233.53a6.835,6.835,0,0,0-6.839,6.985l.442,20.172H554.88v-9.833a6.834,6.834,0,0,1,6.834-6.834h10.952a6.835,6.835,0,0,1,6.826,7.182l-1.156,22.67h24.674q.31-6.079.621-12.157C604.091,252.7,606.154,238.456,597.11,237.678Z" transform="translate(-483.451 -224.625)" fill="url(#linear-gradient-2)"/>
          <path id="Trazado_11031" data-name="Trazado 11031" d="M613.16,239.5c8.713,1.673,5.8,15.057,5.151,26.237-.192,2.919-.287,5.842-.417,8.765-.607.022-13.605.186-23.482,1.164,0,0-.069.139-.057.054.086,0,9.16.977,25.86,1.22l.063-1.182C621.3,256.686,623.641,239.62,613.16,239.5Z" transform="translate(-499.502 -226.449)" fill="#624b63"/>
          <path id="Trazado_11032" data-name="Trazado 11032" d="M552.507,234.034l-.286-.024q-.292-.025-.58-.025V256.65Z" transform="translate(-486.458 -224.764)" fill="#513e52"/>
          <rect id="Rectángulo_1789" data-name="Rectángulo 1789" width="17.488" height="4.798" transform="translate(98.768 15.55)" fill="#513e52"/>
          <path id="Trazado_11033" data-name="Trazado 11033" d="M619.737,258.89a5.6,5.6,0,1,1-5.6-5.6A5.6,5.6,0,0,1,619.737,258.89Z" transform="translate(-503.835 -230.661)" fill="#513e52"/>
          <path id="Trazado_11034" data-name="Trazado 11034" d="M618.819,259.61a3.958,3.958,0,1,1-3.958-3.957A3.958,3.958,0,0,1,618.819,259.61Z" transform="translate(-504.556 -231.381)" fill="#6b536d"/>
          <rect id="Rectángulo_1790" data-name="Rectángulo 1790" width="10.278" height="1.106" transform="translate(101.737 36.947)" fill="#6b536d"/>
          <rect id="Rectángulo_1791" data-name="Rectángulo 1791" width="0.84" height="7.154" transform="translate(105.507 5.269)" fill="#6b536d"/>
          <path id="Rectángulo_1792" data-name="Rectángulo 1792" d="M1.682,0H3.973A1.682,1.682,0,0,1,5.655,1.682v7.26a1.682,1.682,0,0,1-1.682,1.682H1.683A1.683,1.683,0,0,1,0,8.941V1.682A1.682,1.682,0,0,1,1.682,0Z" transform="translate(103.1 0.518)" fill="url(#linear-gradient-3)"/>
          <rect id="Rectángulo_1793" data-name="Rectángulo 1793" width="74.936" height="6.283" transform="translate(50.219 49.248)" fill="url(#linear-gradient)"/>
          <rect id="Rectángulo_1794" data-name="Rectángulo 1794" width="74.936" height="1.032" transform="translate(50.219 49.248)" fill="#c3a4c5"/>
          <path id="Trazado_11035" data-name="Trazado 11035" d="M553.226,229.952c-.063-.19-.218-.263-.344-.174-.1.068-.93.755-.93,3.606,0,.21.115.379.257.379s.256-.169.256-.379c0-2.348.627-2.911.648-2.93A.475.475,0,0,0,553.226,229.952Zm-.249.336c-.072,0-.129-.085-.129-.189s.058-.19.129-.19.128.085.128.19S553.047,230.288,552.977,230.288Z" transform="translate(-486.553 -223.468)" fill="#513e52"/>
          <path id="Trazado_11036" data-name="Trazado 11036" d="M527.688,289.226s-11.322-2.63-20.083,1.4-29.271,6.5-29.271,6.5l-1.394,44.455,39.625,4.245s-5.078-46.541-2.7-48.919,15.909-6.283,15.909-6.283Z" transform="translate(-463.646 -241.376)" fill="#31b7a6"/>
          <path id="Trazado_11037" data-name="Trazado 11037" d="M513.865,297.853c2.378-2.378,15.909-6.283,15.909-6.283s-16.2-1.518-20.177,7.826-2.589,38.465-4.58,38.465-28.076,4.665-28.076,4.665l39.625,4.245S511.488,300.23,513.865,297.853Z" transform="translate(-463.646 -242.322)" fill="#0fa48f"/>
        </g>
        <path id="Trazado_11038" data-name="Trazado 11038" d="M448.134,283.885a79.3,79.3,0,0,0-2.076-9.686c-1.194-3.784-5.088-10.844-6.427-7.861s-3.864,13.7-3.864,13.7l10.589,4.034Z" transform="translate(-241.742 -135.788)" fill="#5e5f80"/>
        <rect id="Rectángulo_1795" data-name="Rectángulo 1795" width="3.541" height="99.071" transform="translate(64.945 157.3)" fill="#6f6f9c"/>
        <path id="Trazado_11039" data-name="Trazado 11039" d="M252.548,96.257s1.734-11.061-.3-13.867c-2.424-3.337-13.863-4.849-16.493,0-.747,1.376,0,14.739,0,14.739s-16.594,5.043-16.594,8.535a65.684,65.684,0,0,0,0,15.573l47.354,1.493,5.16-20.073S260.137,96.257,252.548,96.257Z" transform="translate(-175.445 -78.888)" fill="#102d09"/>
        <path id="Trazado_11040" data-name="Trazado 11040" d="M234.855,82.337c-.615,2.65-.213,11.4-.091,14.052-3.64,1.158-14.379,4.783-16.148,8.187a3.1,3.1,0,0,0-.23,1.289,54.441,54.441,0,0,0,.6,15.192,72.8,72.8,0,0,1,.591-15.557c.29-2.747,14.341-7.179,16.831-7.98-.594-14.786-.827-14.891.679-16.171,2.927-2.535,9.859-2.168,13.356-.358a5.2,5.2,0,0,1,1.63,1.219C249.186,78.03,236.48,77.032,234.855,82.337Z" transform="translate(-175.275 -78.709)" fill="#405771"/>
        <path id="Trazado_11041" data-name="Trazado 11041" d="M239.615,174.334l7.645-24.815,4.5-6.894-4.25-1.455-47.354-1.493c1.48,11.716,5.69,27.974,10.119,36.015,0,0-32.784,19.783-53.83,50.038a58.726,58.726,0,0,1,11.08,17.262c3.794,9.745,17.454,15.418,31.721,15.418s21.249-4.655,36.729-1.455,23.982-5.528,26.41-11.928,5.463-3.782,13.053-3.782,13.2-19.927,16.088-22.691C291.522,218.553,252.667,177.533,239.615,174.334Z" transform="translate(-156.441 -97.327)" fill="#31b7a6"/>
        <path id="Trazado_11042" data-name="Trazado 11042" d="M270.162,174.909l7.645-24.815,4.5-6.894-4.25-1.455-5.885-.185c-1.329,7.767-5.053,21.122-15.455,31.524-2.186,2.187,11.037,4.043,11.037,10.195s10.747-3.9,15.462,12.47,30.642,28.069,30.642,39.27h0c3.647-6.051,6.444-14.195,8.212-15.889C322.069,219.128,283.214,178.108,270.162,174.909Z" transform="translate(-186.988 -97.902)" fill="#0fa48f"/>
        <g id="Grupo_7384" data-name="Grupo 7384" transform="translate(2.61 126.997)">
          <g id="Grupo_7381" data-name="Grupo 7381">
            <path id="Trazado_11043" data-name="Trazado 11043" d="M162.178,264.359a.3.3,0,0,1-.242-.123c-1.023-1.407-1.664-2.2-1.67-2.209a.3.3,0,1,1,.465-.376c.006.009.656.813,1.689,2.234a.3.3,0,0,1-.241.474Z" transform="translate(-160.198 -261.54)" fill="#5d71b3"/>
          </g>
          <g id="Grupo_7382" data-name="Grupo 7382" transform="translate(4.691 6.607)">
            <path id="Trazado_11044" data-name="Trazado 11044" d="M203.228,296.889h-.009c-1.783-.051-3.578-.163-5.335-.336a.3.3,0,0,1-.268-.325.3.3,0,0,1,.326-.269c1.744.171,3.525.283,5.3.332a.3.3,0,0,1-.008.6Zm5.322-.045a.3.3,0,0,1-.015-.6,23.849,23.849,0,0,0,5.189-.668.3.3,0,1,1,.187.568,24.048,24.048,0,0,1-5.346.7Zm35.037-.381a14.717,14.717,0,0,1-3.686-.4.3.3,0,0,1,.151-.577,16.808,16.808,0,0,0,5.194.329.3.3,0,1,1,.038.6C244.695,296.444,244.123,296.463,243.588,296.463Zm-50.95-.631a.3.3,0,0,1-.053-.006,50.548,50.548,0,0,1-5.215-1.209.3.3,0,0,1-.2-.371.3.3,0,0,1,.372-.2,49.663,49.663,0,0,0,5.153,1.2.3.3,0,0,1-.054.593ZM219.007,295a.3.3,0,0,1-.044-.595c1.654-.247,3.49-.454,5.31-.6a.3.3,0,1,1,.047.6c-1.806.142-3.628.345-5.269.592A.237.237,0,0,1,219.007,295Zm15.915-.511a.3.3,0,0,1-.041,0,37.6,37.6,0,0,0-5.136-.3h-.131a.3.3,0,1,1,0-.6h.131a38.153,38.153,0,0,1,5.219.309.3.3,0,0,1-.042.595Zm-52.447-1.73a.288.288,0,0,1-.129-.03,19.459,19.459,0,0,1-4.528-2.915.3.3,0,0,1,.4-.447,18.945,18.945,0,0,0,4.39,2.825.3.3,0,0,1-.129.568Zm-7.549-7.136a.3.3,0,0,1-.272-.176c-.706-1.574-1.484-3.179-2.31-4.773a.3.3,0,0,1,.53-.276c.831,1.605,1.614,3.222,2.324,4.8a.3.3,0,0,1-.273.421Zm-4.882-9.451a.3.3,0,0,1-.258-.148c-.889-1.523-1.828-3.043-2.785-4.517a.3.3,0,0,1,.5-.325c.964,1.481,1.905,3.01,2.8,4.541a.3.3,0,0,1-.108.409A.3.3,0,0,1,170.044,276.177Z" transform="translate(-166.952 -271.051)" fill="#5d71b3"/>
          </g>
          <g id="Grupo_7383" data-name="Grupo 7383" transform="translate(87.986 30.004)">
            <path id="Trazado_11045" data-name="Trazado 11045" d="M287.164,305.961a.3.3,0,0,1-.058-.592c1.593-.319,2.681-.621,2.692-.624a.3.3,0,1,1,.16.575c-.01,0-1.118.31-2.733.634A.3.3,0,0,1,287.164,305.961Z" transform="translate(-286.866 -304.734)" fill="#5d71b3"/>
          </g>
        </g>
        <path id="Trazado_11046" data-name="Trazado 11046" d="M200.153,139.676c.931,10.414,4.449,26.423,9.19,35.756-35.509,21.971-52.828,50.218-52.9,50.3,15.969-20.561,35.734-37.382,55.044-49.76C206.586,167.032,201.8,149.774,200.153,139.676Z" transform="translate(-156.441 -97.327)" fill="#77e4d4"/>
        <path id="Trazado_11047" data-name="Trazado 11047" d="M337.967,329.361a69.339,69.339,0,0,1-6.5,8.519s-22.159-23.952-24.082-25.794a2.741,2.741,0,0,1-.527-.768l-2.711,5.228c2.428,2.328,16.392,40.341,24.689,38.013,4.906-1.375,12.57-10.615,18.016-17.94A32.278,32.278,0,0,0,337.967,329.361Z" transform="translate(-201.548 -149.744)" fill="#f15f5c"/>
        <g id="Grupo_7385" data-name="Grupo 7385" transform="translate(33.012 254.12)">
          <path id="Trazado_11048" data-name="Trazado 11048" d="M271.505,449.052H268.32A1.318,1.318,0,0,0,267,447.736H208.469a1.318,1.318,0,0,0-1.316,1.316h-3.186a4.506,4.506,0,0,1,4.5-4.5H267A4.506,4.506,0,0,1,271.505,449.052Z" transform="translate(-203.967 -444.55)" fill="#2d2d4a"/>
        </g>
        <path id="Trazado_11049" data-name="Trazado 11049" d="M372.08,299.024s-6.612,3.1-9.04,8.046c-1.4,2.849-6.824,11.388-11.175,18.121a47.144,47.144,0,0,1,10.465,9.186,41.292,41.292,0,0,0,5.567-10.725Z" transform="translate(-216.12 -145.989)" fill="#f9b406"/>
        <path id="Trazado_11050" data-name="Trazado 11050" d="M442.086,441.837c-10.017-3.786-11.166-9.342-15.16-5.349-4.682,4.683-5.875,5.087-14.842,1.175l-1.692,9.17a97.294,97.294,0,0,0,10.286-.34c15.178-1.623,23.618.035,26.957.035S452.1,445.622,442.086,441.837Z" transform="translate(-233.993 -187.546)" fill="#f15f5c"/>
        <path id="Trazado_11051" data-name="Trazado 11051" d="M372.01,428.653a190.328,190.328,0,0,0-25.909,2.62S358.056,430.454,372.01,428.653Z" transform="translate(-214.36 -185.575)" fill="#836417"/>
        <path id="Trazado_11052" data-name="Trazado 11052" d="M385.412,421.876c-3.707-3.3-12.14-4.139-20.839-3.973-13.954,1.8-25.909,2.62-25.909,2.62a190.329,190.329,0,0,1,25.909-2.62c19.1-2.465,41.945-6.77,43-13.332,1.821-11.356-27.321-11.119-27.321-11.119s-50.693,13.012-56.461,22.475,2.393,12.763,3.606,13.844c1.009.9,35.556,4.184,55.925,4.341L385.557,422Z" transform="translate(-206.923 -174.826)" fill="#d0a665"/>
        <path id="Trazado_11053" data-name="Trazado 11053" d="M409.938,313.609c0-16.583.3-22.4.3-22.4s-18.516-3.781-25.195-1.454-16.392,17.455-14.571,27.637,17.607,25.891,17.607,31.709c0,.869.875,2.037,2.355,3.35,10.781-.938,21.738-.232,32.428-1.211C417.768,340.719,409.938,324.8,409.938,313.609Z" transform="translate(-221.735 -142.927)" fill="#ffda88"/>
        <g id="Grupo_7386" data-name="Grupo 7386" transform="translate(148.522 146.07)">
          <path id="Trazado_11054" data-name="Trazado 11054" d="M410.243,292.149l-.353-.069c-7.947,10.956-30,19.645-39.622,23.029a15.5,15.5,0,0,0,.209,3.224c.028.153.068.311.1.467,8.91-1.9,29.292-6.963,39.412-15.177C410.079,295.318,410.243,292.149,410.243,292.149Z" transform="translate(-370.259 -289.938)" fill="#ffe9b8"/>
          <path id="Trazado_11055" data-name="Trazado 11055" d="M385.987,289.754c-4.24,1.477-9.7,8.114-12.657,15.368,8.049-3,21.159-8.486,29.894-15.239C397.36,289.078,389.772,288.434,385.987,289.754Z" transform="translate(-371.197 -288.997)" fill="#ffe9b8"/>
          <path id="Trazado_11056" data-name="Trazado 11056" d="M408.209,291.34c-.978-.175-2.244-.39-3.695-.613-9.423,7.808-24.5,13.921-32.8,16.917a26.908,26.908,0,0,0-1.243,5.294C380.066,309.486,400.443,301.273,408.209,291.34Z" transform="translate(-370.323 -289.525)" fill="#ffe9b8"/>
          <path id="Trazado_11057" data-name="Trazado 11057" d="M402.9,290.274c-8.735,6.753-21.844,12.243-29.894,15.239q-.405.991-.745,1.994c8.3-3,23.379-9.11,32.8-16.917C404.374,290.483,403.651,290.378,402.9,290.274Z" transform="translate(-370.869 -289.387)" fill="#4f64eb"/>
          <path id="Trazado_11058" data-name="Trazado 11058" d="M410.133,308.7c-10.12,8.214-30.5,13.272-39.412,15.177a15.976,15.976,0,0,0,.415,1.557c8.792-1.855,28.236-6.657,38.979-14.7Q410.123,309.666,410.133,308.7Z" transform="translate(-370.4 -295.013)" fill="#4f64eb"/>
          <path id="Trazado_11059" data-name="Trazado 11059" d="M411.169,324.123c0-.236,0-.463,0-.7-11.172,6.4-28.909,9.886-36.886,11.2q.393.742.824,1.495c8.135-1.346,24.841-4.688,36.088-10.88Q411.169,324.677,411.169,324.123Z" transform="translate(-371.488 -299.511)" fill="#4f64eb"/>
          <path id="Trazado_11060" data-name="Trazado 11060" d="M412.9,331.955c-10.969,5.625-26.793,8.793-34.514,10.089.317.49.636.981.963,1.471,7.93-1.339,22.96-4.418,33.856-9.92C413.1,333.043,412.995,332.5,412.9,331.955Z" transform="translate(-372.742 -302.115)" fill="#4f64eb"/>
          <path id="Trazado_11061" data-name="Trazado 11061" d="M415.531,339.775c-10.569,5.082-24.945,8.039-32.576,9.35q.513.735,1.024,1.46c7.817-1.354,21.56-4.249,32.009-9.247Q415.749,340.553,415.531,339.775Z" transform="translate(-374.136 -304.503)" fill="#4f64eb"/>
          <path id="Trazado_11062" data-name="Trazado 11062" d="M418.923,347.66c-9.53,4.728-22.42,7.669-30.592,9.189q.516.743,1,1.46c8.227-1.542,20.67-4.441,30.142-9.133C419.285,348.671,419.1,348.165,418.923,347.66Z" transform="translate(-375.778 -306.911)" fill="#4f64eb"/>
          <path id="Trazado_11063" data-name="Trazado 11063" d="M421.948,354.272c-9.061,4.521-21.207,7.416-29.432,9,.312.513.6,1.011.863,1.487,8.255-1.6,20.11-4.471,29.18-9Q422.251,355.018,421.948,354.272Z" transform="translate(-377.056 -308.931)" fill="#4f64eb"/>
          <path id="Trazado_11064" data-name="Trazado 11064" d="M425.761,363.8c-9.595,3.9-22.025,5.985-30.078,7a4.676,4.676,0,0,1,.165,1.141,1.655,1.655,0,0,0,.08.46c8.149-1.009,20.684-3.1,30.5-7.137Q426.095,364.543,425.761,363.8Z" transform="translate(-378.023 -311.842)" fill="#4f64eb"/>
          <path id="Trazado_11065" data-name="Trazado 11065" d="M429.022,371.9c-9.509,3.381-22.381,4.482-31.255,4.819.311.336.666.685,1.073,1.045,4.459-.388,8.948-.493,13.435-.554a83.385,83.385,0,0,0,17.44-3.867C429.487,372.874,429.255,372.392,429.022,371.9Z" transform="translate(-378.659 -314.315)" fill="#4f64eb"/>
          <path id="Trazado_11066" data-name="Trazado 11066" d="M409.895,291.936c-.348-.068-.948-.183-1.746-.326-7.766,9.932-28.143,18.146-37.74,21.6-.072.592-.116,1.179-.136,1.757C379.891,311.582,401.948,302.892,409.895,291.936Z" transform="translate(-370.263 -289.795)" fill="#4f64eb"/>
        </g>
        <path id="Trazado_11067" data-name="Trazado 11067" d="M399.312,379.814c8.442,7.49,36.711,19.778,36.711,9.1,0-1.42-1.825-5.243-4.283-10.314C421.05,379.582,410.093,378.876,399.312,379.814Z" transform="translate(-230.609 -170.291)" fill="#d0a665"/>
        <path id="Trazado_11068" data-name="Trazado 11068" d="M408.98,384.766c-3.077-4.154-7.432-6.473-15.4-8.332-15.07-3.516-51.662-7.993-68.574-4.751-21.248,4.073-6.981,11.345,0,11.345s63.424,28.782,75.263,25.874,11.56-14.8,10.34-20.346A11.536,11.536,0,0,0,408.98,384.766Z" transform="translate(-204.501 -167.836)" fill="#ddb981"/>
        <g id="Grupo_7390" data-name="Grupo 7390" transform="translate(112.888 207.864)">
          <g id="Grupo_7387" data-name="Grupo 7387" transform="translate(0 0.006)">
            <path id="Trazado_11069" data-name="Trazado 11069" d="M319.357,378.806a.4.4,0,0,1-.011-.8s1-.026,2.791-.043h0a.4.4,0,0,1,0,.8c-1.782.016-2.775.042-2.775.042Z" transform="translate(-318.959 -377.967)" fill="#fff"/>
          </g>
          <g id="Grupo_7388" data-name="Grupo 7388" transform="translate(8.053)">
            <path id="Trazado_11070" data-name="Trazado 11070" d="M408.563,390.954a.391.391,0,0,1-.19-.049,49.164,49.164,0,0,0-4.725-2.24.4.4,0,0,1,.3-.737,49.859,49.859,0,0,1,4.8,2.279.4.4,0,0,1-.19.747Zm-9.713-4.085a.391.391,0,0,1-.124-.02c-1.576-.52-3.27-1.023-5.037-1.5a.4.4,0,0,1,.208-.769c1.78.477,3.489.986,5.078,1.51a.4.4,0,0,1-.124.777Zm-10.182-2.759a.407.407,0,0,1-.086-.01c-1.659-.37-3.394-.724-5.158-1.053a.4.4,0,0,1,.147-.782c1.772.33,3.517.686,5.184,1.058a.4.4,0,0,1-.086.787ZM378.3,382.161a.368.368,0,0,1-.062,0c-1.7-.267-3.452-.52-5.217-.753a.4.4,0,0,1,.1-.79c1.771.234,3.533.488,5.235.756a.4.4,0,0,1-.061.791Zm-10.464-1.39-.044,0c-1.757-.2-3.509-.371-5.245-.531a.4.4,0,0,1-.36-.433.409.409,0,0,1,.433-.361c1.741.161,3.5.338,5.258.532a.4.4,0,0,1-.043.795Zm-10.512-.971h-.03q-2.679-.2-5.262-.356a.4.4,0,0,1-.373-.422.38.38,0,0,1,.422-.373c1.721.1,3.484.222,5.272.356a.4.4,0,0,1-.029.8Zm-10.538-.633h-.019c-1.823-.083-3.586-.151-5.269-.206a.4.4,0,0,1-.385-.412.38.38,0,0,1,.412-.385c1.686.055,3.451.122,5.28.208a.4.4,0,0,1-.019.8Zm-10.551-.345h-.008c-1.932-.037-3.7-.058-5.276-.067a.4.4,0,0,1,0-.8h0c1.577.009,3.35.031,5.286.067a.4.4,0,0,1-.008.8Z" transform="translate(-330.552 -377.958)" fill="#fff"/>
          </g>
          <g id="Grupo_7389" data-name="Grupo 7389" transform="translate(90.033 15.027)">
            <path id="Trazado_11071" data-name="Trazado 11071" d="M451.066,402.228a.4.4,0,0,1-.282-.117,22.03,22.03,0,0,0-2.057-1.807.4.4,0,1,1,.49-.628,22.93,22.93,0,0,1,2.13,1.872.4.4,0,0,1-.281.679Z" transform="translate(-448.574 -399.591)" fill="#fff"/>
          </g>
        </g>
        <path id="Trazado_11072" data-name="Trazado 11072" d="M467.354,180.316s-7.517.056-6.626,1.625,9.059,1.195,9.059.5S467.354,180.316,467.354,180.316Z" transform="translate(-249.342 -109.738)" fill="#f15f5c"/>
        <path id="Trazado_11073" data-name="Trazado 11073" d="M465.137,209.8s.3-13.965.3-16.292-5.562,3.2-5.562,3.2-.911,39.855-11.536,47.129c-2.609,1.787-4.9,3.447-7.009,5,2.123,4.865,3.846,9.111,7.323,12.849,5.046-4.943,10.7-9.5,12.739-11.452C467.008,244.854,465.137,209.8,465.137,209.8Z" transform="translate(-243.441 -113.592)" fill="#f37575"/>
        <path id="Trazado_11074" data-name="Trazado 11074" d="M441.33,272.442c2.123,4.865,3.846,9.111,7.323,12.849.374-.367.752-.73,1.131-1.092-2.989-4.383-4.7-10.81-5.411-13.974Q442.783,271.367,441.33,272.442Z" transform="translate(-243.441 -137.195)" fill="#f15f5c"/>
        <path id="Trazado_11075" data-name="Trazado 11075" d="M468.1,270.867s-3.261,1.368-2.141,2.49,1.693.945,2.141.5S469.443,270.618,468.1,270.867Z" transform="translate(-250.89 -137.386)" fill="#f15f5c"/>
        <path id="Trazado_11076" data-name="Trazado 11076" d="M461.275,182.529a7.218,7.218,0,0,1-1.692,3.485c-1.345,1.344,1.145,3.535,1.692,4.083s2.594,4.251,3.919,5.576,5.61-.829,5.61-.829,1.138-11.916.085-14.3-8.819-2.024-9.367-1.476,3.834,1.873,4.83,1.873,1.394.9,1.394,1.693-2.788,3.982-3.585,3.982a3.935,3.935,0,0,1-1.891-1S464.063,180.936,461.275,182.529Z" transform="translate(-248.895 -109.231)" fill="#f37575"/>
        <path id="Trazado_11077" data-name="Trazado 11077" d="M415,282.968c-2.609,4.1,1.045,17.42,4.693,18.871,2.326.925,12.964-8.956,21.833-17.64a24.213,24.213,0,0,1-8.5-17.547C426.54,271.425,419.927,275.215,415,282.968Z" transform="translate(-235.129 -136.103)" fill="#fff7cf"/>
        <path id="Trazado_11078" data-name="Trazado 11078" d="M389.439,416.664s7.653,5.364,11.092,5.364,6.881,2.91,6.071,5.818-.016,16.181-2.526,18.587-12.223-.356-11.515-1.034,4.509-.436,6.037-5.77.362-8.026-3.361-11.6-20-1.932-20-1.932Z" transform="translate(-223.257 -181.914)" fill="#f37575"/>
        <path id="Trazado_11079" data-name="Trazado 11079" d="M392.144,418.423c-1.579-.97-2.706-1.759-2.706-1.759l-14.2,9.438a79.158,79.158,0,0,1,13.367-.133C390.087,423.224,391.491,419.984,392.144,418.423Z" transform="translate(-223.257 -181.914)" fill="#f15f5c"/>
        <path id="Trazado_11080" data-name="Trazado 11080" d="M403,456.088s-3.583.358-3.583,1.818,1.791.8,1.791.8-.333.735,1.127.735,1.828-.39,1.828-.39-.694,1.314,0,1.314a7.551,7.551,0,0,0,2.287-.925s.052,1.19.59,1.19,1.534-1.19,1.534-1.19-.265,1.19.265,1.19,2.257-2.683,1.262-2.27l-1,.412s-.4-.863-1.061-.863a1.3,1.3,0,0,0-1,.452.589.589,0,0,0-.656-.717,2.374,2.374,0,0,0-1.473.717s.624-.822,0-1.447-2.973.664-2.973.664S404.061,456.525,403,456.088Z" transform="translate(-230.641 -193.954)" fill="#f15f5c"/>
        <g id="Grupo_7391" data-name="Grupo 7391" transform="translate(139.882 109.497)">
          <path id="Trazado_11081" data-name="Trazado 11081" d="M367.591,237.957s-7.756.417-8.787,7.894,3.537,15.3,3.418,18.7-4.446,3.631-3.927,1.871c0,0-1.787,3.061,1.576,4.332s4.959-.442,4.959-.442,1.186,4.862,7.819,3.709,7.4-4.329,7.4-4.329,10.711,4.168,12.5-5.616c-2.944,1.1-5.232-1.022-5.693-3.671a78.344,78.344,0,0,1-.616-8.155c-.335-4.233-1.264-10.078-4.945-12.894-3.313-2.534-7.635-3.832-11.938-1.793A11.493,11.493,0,0,1,367.591,237.957Z" transform="translate(-357.821 -236.41)" fill="#54284e"/>
          <path id="Trazado_11082" data-name="Trazado 11082" d="M393.293,263.58a4,4,0,0,1-2.562-2.953c-1.062-5.023.081-13.116-3.654-19.045a9.982,9.982,0,0,0-2.346-2.567c-.239-.1-5.7-4.775-12.169-1.517,6.556-2.729,11.5,2.027,11.731,2.088a9.424,9.424,0,0,1,2.065,2.441c3.628,6.15,2.06,16.147,3.452,19.6a4.638,4.638,0,0,0,5.163,3.194c-2.222,8.217-11.977,4.212-12.034,4.228a3.638,3.638,0,0,1-1.618,2.387l-.42.314a15.207,15.207,0,0,1-7.135,2.162,5.79,5.79,0,0,1-5.438-2.925,5.4,5.4,0,0,0,3.217,2.935c3.646,1.121,10.2-.374,11.956-3.736a12.658,12.658,0,0,0,7.794.371c4.748-1.512,5.048-6.937,5.227-7.444A5.081,5.081,0,0,1,393.293,263.58Z" transform="translate(-361.03 -236.345)" fill="#3f1e3b"/>
        </g>
        <g id="Grupo_7393" data-name="Grupo 7393" transform="translate(141.313 110.328)">
          <path id="Trazado_11083" data-name="Trazado 11083" d="M386.128,267.483l4.815,16.716s-4.153,18.618-7.627,17.549-3.4-16.637-3.4-16.637l-2.776-10.253Z" transform="translate(-365.153 -246.686)" fill="#f37575"/>
          <path id="Trazado_11084" data-name="Trazado 11084" d="M386.128,267.483l.527,1.829c-.678,3.622-4.027,10.3-7.956,11.292l-1.556-5.745Z" transform="translate(-365.153 -246.686)" fill="#f15f5c"/>
          <path id="Trazado_11085" data-name="Trazado 11085" d="M367.667,239.676s-5.635,3.636-5.12,8.219,1.443,6.236,1.466,9.257,2.651,10.644,7.6,11.824,9.751-7.478,10.231-11.076a27.749,27.749,0,0,0-2.089-13.673C377.661,239.095,370.886,238.149,367.667,239.676Z" transform="translate(-360.685 -237.991)" fill="#f37575"/>
          <path id="Trazado_11086" data-name="Trazado 11086" d="M371.714,267.356a6.381,6.381,0,0,0,.075-4.222c-.057,1.2-.039,3.329-.5,4.164l-.1.175a2.8,2.8,0,0,0,2.007.5A4.228,4.228,0,0,1,371.714,267.356Z" transform="translate(-363.333 -245.358)" fill="#452140"/>
          <g id="Grupo_7392" data-name="Grupo 7392" transform="translate(7.921 23.223)">
            <path id="Trazado_11087" data-name="Trazado 11087" d="M376.792,270.975a17.988,17.988,0,0,1-5.507,2.239,6.157,6.157,0,0,0,.865.834,17.83,17.83,0,0,0,4.394-1.771A7.786,7.786,0,0,0,376.792,270.975Z" transform="translate(-371.285 -270.975)" fill="#fff"/>
            <path id="Trazado_11088" data-name="Trazado 11088" d="M376.925,272.849a17.83,17.83,0,0,1-4.394,1.771C374.575,276.223,376.206,275.387,376.925,272.849Z" transform="translate(-371.665 -271.547)" fill="#2e162b"/>
          </g>
          <path id="Trazado_11089" data-name="Trazado 11089" d="M374.183,256.341a3.521,3.521,0,0,1,1.582-1.179c1.123-.46,3.852.461,3.852.461a21.472,21.472,0,0,0-3.292-.079,5.128,5.128,0,0,0-1.658,1.011Z" transform="translate(-364.249 -242.884)" fill="#5c2c55"/>
          <path id="Trazado_11090" data-name="Trazado 11090" d="M367.622,258.226a2.874,2.874,0,0,0-1.449-.518c-.943-.1-2.759,1.107-2.759,1.107a17.13,17.13,0,0,1,2.43-.722,4.218,4.218,0,0,1,1.467.385Z" transform="translate(-360.96 -243.699)" fill="#5c2c55"/>
          <path id="Trazado_11091" data-name="Trazado 11091" d="M375.578,260.6a2.912,2.912,0,0,1,2.089-1.323c1.012-.1,1.784.522,2.415.465-.829.486-1.433-.427-3.463.294A3.913,3.913,0,0,0,375.578,260.6Z" transform="translate(-364.675 -244.176)" fill="#2e162b"/>
          <path id="Trazado_11092" data-name="Trazado 11092" d="M367.962,262.513a2.913,2.913,0,0,0-2.431-.454c-.975.286-1.462,1.149-2.069,1.329.951.144,1.172-.928,3.324-1.014A3.907,3.907,0,0,1,367.962,262.513Z" transform="translate(-360.975 -245.002)" fill="#2e162b"/>
          <path id="Trazado_11093" data-name="Trazado 11093" d="M381.919,263.714c.258.645-.446,1.533-1.575,1.985s-2.251.295-2.509-.35.447-1.533,1.575-1.985S381.662,263.068,381.919,263.714Z" transform="translate(-365.348 -245.349)" fill="#f15f5c"/>
          <path id="Trazado_11094" data-name="Trazado 11094" d="M365.882,265.826a3.125,3.125,0,0,0-1.161.1,13.26,13.26,0,0,0,.395,2.094,3.428,3.428,0,0,0,.565.1c1.109.1,2.053-.338,2.107-.971S366.99,265.923,365.882,265.826Z" transform="translate(-361.359 -246.175)" fill="#f15f5c"/>
          <path id="Trazado_11095" data-name="Trazado 11095" d="M369.961,240.644c.74-2.827,8.642-7.755,16.6,7.144,7.8,15.5-1.639,17.953-3.888,14.389a1.407,1.407,0,0,1-.11-1.373c-.925-.743-2.506-3.453-1.186-5.1a4.029,4.029,0,0,1,1.522-1.157s-1.9,1.3-.049,2.606c1.513,1.064,2.668-1.784,2.8-2.822C386.591,246.831,367.431,248.579,369.961,240.644Z" transform="translate(-362.889 -237.542)" fill="#6d3465"/>
          <path id="Trazado_11096" data-name="Trazado 11096" d="M368.929,238.658l-1.593,5.232s-5.758,2.06-5.1,7.089a17.515,17.515,0,0,0,.659,3.117s-.848-.338-2.3-3.2c-1.519-2.983-.492-8.285,2.165-10.024A17.152,17.152,0,0,1,368.929,238.658Z" transform="translate(-359.881 -237.883)" fill="#6d3465"/>
          <path id="Trazado_11097" data-name="Trazado 11097" d="M369.853,242.008c-1.046,1.978-.566,4.585,3.48,6.547,3.263,1.572,7.737,2.121,10.505,4.519,1.519,1.025,1.712,5.287-.313,5.251-1.432.145-1.637-1.565-.735-2.412a1.822,1.822,0,0,0-.931,1.767c0,1.569,2.737,2.181,3.779.536a5.483,5.483,0,0,0,.523-4.343C384.229,246.886,368.4,249.728,369.853,242.008Z" transform="translate(-362.781 -238.906)" fill="#914587"/>
          <path id="Trazado_11098" data-name="Trazado 11098" d="M388.988,257.61s.111-2.169,1.677-1.432c2.4,1.133.678,6.111-.749,6.359S388.988,257.61,388.988,257.61Z" transform="translate(-368.744 -243.187)" fill="#f37575"/>
          <path id="Trazado_11099" data-name="Trazado 11099" d="M389.525,258.852s.022-.835.55-.927.745,3.781.044,3.788S389.525,258.852,389.525,258.852Z" transform="translate(-368.932 -243.766)" fill="#f15f5c"/>
        </g>
        <g id="Grupo_7394" data-name="Grupo 7394" transform="translate(97.897 73.131)">
          <path id="Trazado_11100" data-name="Trazado 11100" d="M298.592,262.56c-.031-.04-3.054-4.056.556-7.665,1.285-1.284,5.873-.343,12.821,1.082,13.169,2.7,33.07,6.782,47.546-.794,22.654-11.859,53.4-66.137,53.4-71.192h.6c0,5.864-31.721,60.205-53.718,71.721s-57-3.62-60.221-.395a5.152,5.152,0,0,0-.506,6.878Z" transform="translate(-297.377 -183.992)" fill="#3953a8"/>
        </g>
        <path id="Trazado_11101" data-name="Trazado 11101" d="M457.9,164.934l4.812,13.851a.3.3,0,0,1-.565.2l0-.012-4.268-14.026a.016.016,0,0,1,.009-.017A.014.014,0,0,1,457.9,164.934Z" transform="translate(-248.493 -105.038)" fill="#9eaad1"/>
        <g id="Grupo_7395" data-name="Grupo 7395" transform="translate(213.552 72.233)">
          <path id="Trazado_11102" data-name="Trazado 11102" d="M483.654,193.3c-2.938,4.046-10.9-1.561-13.691-6.707-1-1.848-2.142-2.923-3.4-3.2a2.737,2.737,0,0,0-2.326.725l-.358-.757c1.673-1.251,4.484-.972,6.61,2.947,2.613,4.826,10.148,10.139,12.688,6.635,1.848-2.541,1.665-6.277-.055-7.08-1.195-.558-3.569.661-3.7,1.9a.285.285,0,0,1-.008.088.392.392,0,0,1-.367.358.356.356,0,0,1-.207-.08,1.682,1.682,0,0,1,.08-.789c.741-2.205,5.551-4.022,6.133.853A7.323,7.323,0,0,1,483.654,193.3Z" transform="translate(-463.878 -182.699)" fill="#5d71b3"/>
        </g>
        <path id="Trazado_11103" data-name="Trazado 11103" d="M301.285,292.9s-.327-6.352-2.553-6.352,2.553,6.352.623,8.7-3.325,1.252-3.724-.208,1.887-8.688.317-8.688-1.87,9.117-2.882,8.147,1.821-10.281.4-10.281-3.083,10.021-3.083,12.349,7.13,9.373,9.559,11.7l2.711-5.228C301.267,300.221,301.285,292.9,301.285,292.9Z" transform="translate(-197.346 -141.469)" fill="#f15f5c"/>
        <path id="Trazado_11104" data-name="Trazado 11104" d="M313.638,377.78c-11.488,17.229,48.073,40.864,48.073,40.864l11.061-14.86s-26.462-19.492-35.087-22.983S316.714,373.168,313.638,377.78Z" transform="translate(-203.997 -169.415)" fill="#ddb981"/>
        <g id="Grupo_7399" data-name="Grupo 7399" transform="translate(114.28 206.433)">
          <g id="Grupo_7397" data-name="Grupo 7397" transform="translate(6.659 2.778)">
            <path id="Trazado_11106" data-name="Trazado 11106" d="M370.715,402.95a.4.4,0,0,1-.262-.1c-1.156-1.007-2.487-2.06-3.955-3.129a.4.4,0,0,1,.468-.644c1.487,1.083,2.836,2.15,4.01,3.172a.4.4,0,0,1-.261.7Zm-8.176-6.018a.393.393,0,0,1-.215-.064c-1.348-.87-2.8-1.763-4.309-2.656a.4.4,0,1,1,.406-.687c1.521.9,2.979,1.8,4.335,2.674a.4.4,0,0,1-.217.733Zm-8.736-5.178a.4.4,0,0,1-.192-.049c-1.428-.786-2.933-1.589-4.473-2.386a.4.4,0,0,1,.367-.709c1.546.8,3.056,1.607,4.491,2.4a.4.4,0,0,1-.192.748Zm-9.015-4.682a.4.4,0,0,1-.176-.041c-1.558-.768-3.09-1.5-4.571-2.2a.4.4,0,1,1,.339-.72c1.487.7,3.021,1.435,4.584,2.2a.4.4,0,0,1-.176.756Zm-9.193-4.325a.405.405,0,0,1-.164-.035c-1.675-.756-3.236-1.443-4.641-2.049a.4.4,0,1,1,.316-.731c1.408.608,2.974,1.3,4.654,2.054a.4.4,0,0,1-.165.762Z" transform="translate(-330.549 -379.898)" fill="#fff"/>
          </g>
          <g id="Grupo_7398" data-name="Grupo 7398" transform="translate(49.996 28.596)">
            <path id="Trazado_11107" data-name="Trazado 11107" d="M394.525,419.371a.4.4,0,0,1-.341-.192,4.959,4.959,0,0,0-.691-.93c-.122-.134-.267-.3-.461-.529a.4.4,0,0,1,.608-.514c.189.224.33.381.447.512a5.652,5.652,0,0,1,.779,1.049.4.4,0,0,1-.135.546A.392.392,0,0,1,394.525,419.371Z" transform="translate(-392.938 -417.066)" fill="#acdef3"/>
          </g>
        </g>
      </g>
    </g>
  </g>
</svg>
