<svg xmlns="http://www.w3.org/2000/svg" width="958" height="478.382" viewBox="0 0 958 478.382">
  <g id="Grupo_8375" data-name="Grupo 8375" transform="translate(-91 -6868.789)">
    <g id="Grupo_7726" data-name="Grupo 7726" transform="translate(-6902 1330)">
      <g id="Grupo_7725" data-name="Grupo 7725" transform="translate(7341 5539.76)">
        <g id="Grupo_7724" data-name="Grupo 7724" transform="translate(0 0)">
          <path id="Trazado_12205" data-name="Trazado 12205" d="M360.661,534.588c-.238-2.955,1.094-6.594.856-8.723s-1.8-5.456-2.746-8.291a12.442,12.442,0,0,1-.454-2.292s-.566-6.862-.9-10.77c-1.1-12.757-2.2-30.352-2.419-33.471-.32-4.481-1.779-20.245-2.292-25.008a75.956,75.956,0,0,0-3.275-14.99H334.462c-.2-.6-.342-1.012-.342-1.012s-1.63.38-1.377,1.012H313.362c2.955,13.3,9.438,31.022,13.085,41.584,2.612,7.569,5.8,14.96,8.425,22.545.729,2.1,5.2,16.412,6.163,19.515.119.38.186.6.186.6,0,.022-.007.134-.015.328-.149,2.352-1.236,16.59-1.347,20.513a73.318,73.318,0,0,0,1.838,15.712c1.183,5.552,1.265,16.293,1.236,18.793-.052,4.8,2.039,7.48,4.205,7.592,1.4.067,2.806-2.9,3.565-5.307.365-1.176-.32-5.709-.558-7.6a41.571,41.571,0,0,1-.1-6.751q.011-.234.022-.447a7.726,7.726,0,0,1,.208-1.258,39.688,39.688,0,0,1,1.809-5.277c.119-.283.186-.447.186-.447s.394.975.8,2.173a16.625,16.625,0,0,1,.737,2.9c.238,1.891.826,6.736.357,9.1a94.183,94.183,0,0,1-2.724,11.142c-1.221,3.58-3.156,9.706-3.982,12.02-.729,2.054-2.166,5.739-1.861,7.071a1.746,1.746,0,0,0,2.97.774,7.2,7.2,0,0,0,1.623-2.717c.283-.707.461-1.31.528-1.511-.03.194-.127.774-.231,1.518-.208,1.6-.432,3.945-.06,4.771a1.948,1.948,0,0,0,2.791,1.079c1.176-.469,2.01-2.367,2.01-2.367s.834-.328,2-.826c2.3-.96,3.074-5.076,3.9-8.269s2.642-6.691,3.208-8.872c.662-2.538,1.28-5.4,2.106-8.82a64.552,64.552,0,0,0,1.66-9.482C368.343,557.989,360.8,536.293,360.661,534.588ZM299.83,431.042H198.137c-3.647,16.2-12.05,24.539-18.793,40.72-.186.424-.38.893-.581,1.422-.083.207-.167.424-.252.649-.464,1.18-.923,2.4-1.364,3.668-6.468,18.622-11.306,64.709,5.858,118.789,1.407,4.443,2.985,10.867,4.585,18.213,5.084,23.4,10.346,56.187,10.949,64.27.536,7.316-.536,12.757-1.2,29.534-.3,7.584,1.273,17.8,1.429,27.1.119,7.048-.283,10.815-1.377,23.468-1.7,19.493,4.577,39.492,6.4,45.179,3.6,11.239,6.1,20.334,7.763,27.115,1.548,6.26,2.843,11.827,3.431,15.2,2.769,16,5.069,22.619,3.662,26.393a20.806,20.806,0,0,0-1.169,4.808,16.671,16.671,0,0,0-.1,3.774,1.705,1.705,0,0,0-.461-.253,1.482,1.482,0,0,0-1.057-.045,2.8,2.8,0,0,0-2.01,1.474c-.179.1-.782-.357-1.7-.045a7.808,7.808,0,0,0-1.7.938c-.588.305-.856.327-1.28.581a.554.554,0,0,1-.089.052,4.807,4.807,0,0,0-.4.305,2.9,2.9,0,0,0-.953,3.022,2.2,2.2,0,0,0,1.035,1.34,5.8,5.8,0,0,0,.365,2.568,16.537,16.537,0,0,0,4.883,5.024c2.546,1.63,7.436,5.59,8.954,6.714,3.736,2.754,6.5,4.28,12,3.022,5.329-1.213,6.825-6.14,6.758-9.832s-.982-9.3-.558-11.827c1.139-6.7-.238-8.195-1.035-12.7-.514-2.851-1.868-21.421-2.56-36.664h.134c.037-.767.074-1.481.1-2.077a269.658,269.658,0,0,1,3.111-27.829c1.853-12.117,3.334-22.381,3.677-27.651a114.978,114.978,0,0,0-.774-24.964c-1.652-12.742-3.409-18.042-3.416-23.073-.015-6.475.26-7.718,2.679-17.342,1.407-5.6,1.02-12.407.856-19.218-.238-9.735-1.176-22.694-.729-27.487.29-3.119,1.652-24,2.568-38.2.484-7.6.849-13.278.849-13.278.447-9.073.737-16.4.908-22.478V567.6c-.164-3.937-.4-7.316-.648-11.112A81.232,81.232,0,0,0,245,543.6c-.141-.625-.275-1.154-.387-1.578.156.007.38-.231.648-.6.826-1.109,2.121-3.453,3.416-3.908a1.267,1.267,0,0,1,.432-.082,1.174,1.174,0,0,1,.283.037c1.3.32,2.508,2.717,3.3,3.893.275.4.5.662.662.655-.1.372-.208.826-.327,1.347a81.21,81.21,0,0,0-1.943,13.114c-.246,3.8-.491,7.175-.655,11.112v23.825c.179,6.081.469,13.4.915,22.478,0,0,.357,5.679.848,13.278.908,14.194,2.27,35.079,2.56,38.2.447,4.793-.491,17.751-.729,27.487-.164,6.81-.551,13.613.863,19.218,2.419,9.624,2.694,10.867,2.679,17.342-.015,5.031-1.771,10.331-3.424,23.073a114.979,114.979,0,0,0-.774,24.964c.35,5.27,1.831,15.533,3.677,27.651a267.5,267.5,0,0,1,3.111,27.829c.037.6.074,1.31.112,2.077h.134c-.7,15.243-2.054,33.813-2.56,36.664-.8,4.5-2.173,6-1.042,12.7.432,2.531-.484,8.143-.551,11.827s1.429,8.619,6.751,9.832c5.508,1.258,8.269-.268,12-3.022,1.518-1.124,6.416-5.083,8.954-6.714a16.649,16.649,0,0,0,4.89-5.024,5.863,5.863,0,0,0,.357-2.568,2.179,2.179,0,0,0,1.035-1.34,2.885,2.885,0,0,0-.953-3.022c-.156-.127-.29-.223-.4-.305-.03-.015-.06-.037-.089-.052l-.007-.007c-.417-.246-.685-.268-1.273-.573a7.712,7.712,0,0,0-1.69-.938c-.915-.313-1.518.149-1.7.045a2.776,2.776,0,0,0-2.01-1.474,1.464,1.464,0,0,0-1.049.045,1.705,1.705,0,0,0-.461.253,16.876,16.876,0,0,0-.1-3.8,21.4,21.4,0,0,0-1.176-4.786c-1.4-3.774.893-10.39,3.669-26.393.588-3.372,1.876-8.939,3.431-15.2,1.667-6.781,4.161-15.876,7.756-27.115,1.824-5.686,8.1-25.686,6.408-45.179-1.1-12.653-1.5-16.419-1.377-23.468.156-9.3,1.719-19.515,1.422-27.1-.662-16.776-1.734-22.217-1.191-29.534.6-8.083,5.865-40.869,10.949-64.27,1.593-7.346,3.171-13.769,4.585-18.213,17.156-54.08,12.318-100.167,5.85-118.789C313.816,457.346,303.872,449.054,299.83,431.042Zm-142.9,83.644c.968-3.1,5.433-17.417,6.163-19.515,2.62-7.584,5.805-14.975,8.425-22.545,3.647-10.562,10.122-28.283,13.085-41.584H165.217c.253-.633-1.511-.6-1.712,0H148.538a75.964,75.964,0,0,0-3.282,14.99c-.514,4.763-1.972,20.528-2.285,25.008-.223,3.119-1.325,20.714-2.419,33.471-.342,3.908-.908,10.77-.908,10.77a12.5,12.5,0,0,1-.447,2.292c-.945,2.836-2.516,6.163-2.754,8.291s1.1,5.768.863,8.723c-.141,1.7-2.426,7.837-4.376,13.234-1.28,3.558-3.3,10.167-3.066,13a63.581,63.581,0,0,0,1.66,9.482c.826,3.424,1.436,6.282,2.1,8.82.573,2.181,2.382,5.679,3.208,8.872s1.608,7.309,3.9,8.269c1.176.5,2.01.826,2.01.826s.826,1.9,2.01,2.367a1.95,1.95,0,0,0,2.791-1.079c.372-.826.149-3.171-.067-4.771-.1-.744-.2-1.325-.231-1.518.067.2.246.8.528,1.511a7.217,7.217,0,0,0,1.63,2.717,1.74,1.74,0,0,0,2.962-.774c.313-1.332-1.131-5.017-1.861-7.071-.819-2.315-2.754-8.44-3.975-12.02a92.711,92.711,0,0,1-2.724-11.142c-.476-2.367.119-7.212.357-9.1a16.623,16.623,0,0,1,.737-2.9c.394-1.2.8-2.173.8-2.173s.067.164.186.439a40.687,40.687,0,0,1,1.8,5.284,7.727,7.727,0,0,1,.208,1.258q.011.212.022.447a40.68,40.68,0,0,1-.089,6.751c-.238,1.891-.93,6.423-.558,7.6.759,2.411,2.166,5.374,3.558,5.307,2.173-.112,4.257-2.791,4.205-7.592-.022-2.5.06-13.241,1.243-18.793a73.267,73.267,0,0,0,1.831-15.712c-.112-3.922-1.2-18.168-1.34-20.513-.015-.194-.015-.305-.015-.328,0,0,.067-.208.186-.588Z" transform="translate(-129.844 -430.03)" fill="#fff" stroke="#3b1f10" stroke-linecap="round" stroke-linejoin="round" stroke-width="1.942"/>
          <path id="Trazado_12206" data-name="Trazado 12206" d="M425.582,595.9a12.391,12.391,0,0,1-2.426,1.132c-1.294.243-1.768-.3-1.768-.3a12.971,12.971,0,0,0,2.455-.913,8.192,8.192,0,0,0,1.981-2.387l.054,1.645Z" transform="translate(-204.394 -471.813)" fill="#3b1f10"/>
          <path id="Trazado_12207" data-name="Trazado 12207" d="M424.359,601.453A4.608,4.608,0,0,1,422,603.344a3.314,3.314,0,0,1-2.837-.59,5.126,5.126,0,0,0,3.073-.473,31.48,31.48,0,0,0,2.6-2.718Z" transform="translate(-203.824 -473.381)" fill="#3b1f10"/>
          <path id="Trazado_12208" data-name="Trazado 12208" d="M424.557,613.177a3.107,3.107,0,0,1-2.63,1.78,2.624,2.624,0,0,1-1.387-.577,2.65,2.65,0,0,0,2.44-.8c.655-.544,1.1-2.746,1.1-2.746Z" transform="translate(-204.177 -476.263)" fill="#3b1f10"/>
          <path id="Trazado_12209" data-name="Trazado 12209" d="M438.123,610.042s-.047,4.525-.047,6.3a33.274,33.274,0,0,1-1.173,7.806c-.538,1.789-2.207,7.285-2.089,7.758s-.094,1.879.947,2.126c2.154.511,3.308-2.717,3.308-2.717s-.267,3.578-2.247,3.916c-3.073.525-3.114-1.463-3.114-3.236s1.937-6.69,2.346-8.17a35.366,35.366,0,0,0,1.052-5.622C437.266,616.743,438.123,610.042,438.123,610.042Z" transform="translate(-207.544 -476.06)" fill="#3b1f10"/>
          <path id="Trazado_12210" data-name="Trazado 12210" d="M432.1,616.869s-1.7,8.128-2.292,10.963-2.761,11.722-3.114,12.9-1.74.4-1.74.4,1.5-4.437,2.022-6.147c.728-2.386,2.193-7.369,2.548-9.142.2-.994.764-4.491,1.416-6.673A5.385,5.385,0,0,1,432.1,616.869Z" transform="translate(-205.306 -477.806)" fill="#3b1f10"/>
          <path id="Trazado_12211" data-name="Trazado 12211" d="M434.092,648.354a2.053,2.053,0,0,1-2.669-1.821c-.195-.93,1.26-5.108,1.9-7.807a5.143,5.143,0,0,0,.041-2.346s-4.126,9.262-2.791,11.77a2.573,2.573,0,0,0,1.954,1.358Z" transform="translate(-206.674 -482.795)" fill="#3b1f10"/>
          <path id="Trazado_12212" data-name="Trazado 12212" d="M413.625,543.335a7.953,7.953,0,0,0,4.336,2.093,13.616,13.616,0,0,0,5.393,0s-2.439,1.674-7.037.688c-2.416-.517-2.839-2.02-2.839-2.02Z" transform="translate(-202.371 -459.003)" fill="#3b1f10"/>
          <path id="Trazado_12213" data-name="Trazado 12213" d="M382.856,545.13s1.559,6.064-1.8,16.136c-1.894,5.686-7.5,12.157-7.5,12.157s4.659-8.645,6.238-13.521A89.612,89.612,0,0,0,382.856,545.13Z" transform="translate(-192.162 -459.462)" fill="#3b1f10"/>
          <path id="Trazado_12214" data-name="Trazado 12214" d="M322.654,459.2s-7.728,2.052-10.853,8.527c-2.2,4.551.008-3.9,3.125-6.068C317.06,460.179,322.654,459.2,322.654,459.2Z" transform="translate(-176.145 -437.49)" fill="#3b1f10"/>
          <path id="Trazado_12215" data-name="Trazado 12215" d="M298.046,715.415c2.126,8.951,2.094,9.149,4.146,16.121,1.938,6.59,3.605,10.623,3.605,10.623s-4.39-4.413-6.331-13.349C298.8,725.756,298.046,715.415,298.046,715.415Z" transform="translate(-172.854 -503.005)" fill="#3b1f10"/>
          <path id="Trazado_12216" data-name="Trazado 12216" d="M350.473,762.8s-3.142,13.2-3.529,19.791,3.529,22.068,3.529,22.068-5.075-12.341-5.04-21.317C345.458,777.144,350.473,762.8,350.473,762.8Z" transform="translate(-184.971 -515.122)" fill="#3b1f10"/>
          <path id="Trazado_12217" data-name="Trazado 12217" d="M326.678,795.091s1.033,7.314-.9,11.578-5.182,5-5.182,5,3.611-4.739,3.909-5.455C326.318,801.85,326.678,795.091,326.678,795.091Z" transform="translate(-178.619 -523.378)" fill="#3b1f10"/>
          <path id="Trazado_12218" data-name="Trazado 12218" d="M304.483,802.382c-.388,1.161.775,12.014,2.324,15.89s-2.219-2.739-3.037-7.284A16.93,16.93,0,0,1,304.483,802.382Z" transform="translate(-174.253 -525.243)" fill="#3b1f10"/>
          <path id="Trazado_12219" data-name="Trazado 12219" d="M352.517,886.222a24.769,24.769,0,0,1-2.958,7.456,12.768,12.768,0,0,1-5.222,4.631,26.622,26.622,0,0,0,4.351-5.536C350.352,890.129,352.517,886.222,352.517,886.222Z" transform="translate(-184.691 -546.681)" fill="#3b1f10"/>
          <path id="Trazado_12221" data-name="Trazado 12221" d="M298.93,439.531a16.687,16.687,0,0,0,.266,5.286,28.677,28.677,0,0,0,1.722,4.333s-1.731-.579-2.755-4.076C297.8,443.841,298.93,439.531,298.93,439.531Z" transform="translate(-172.866 -432.459)" fill="#3b1f10"/>
          <path id="Trazado_12223" data-name="Trazado 12223" d="M416.293,564.006c.371-.991,1.585-3.576,1.937-4.522a11.25,11.25,0,0,0,.307-3.016,7.05,7.05,0,0,1,.592,2.717c-.118,1.064-1.821,4.935-1.913,6.341a9.006,9.006,0,0,0,1.13,5.328c.3.633,5.986,9.359,7.779,12.209.468.746,4.329,8.491,5.87,8.927a12.939,12.939,0,0,0,3.964.162,5.92,5.92,0,0,1-3.073.889c-1.731,0-2.225-.283-3.413-1.792-.891-1.131-5.791-10.288-6.619-11.234a78.556,78.556,0,0,1-5.733-8.661C416.056,569.231,415.187,566.958,416.293,564.006Z" transform="translate(-202.96 -462.361)" fill="#3b1f10"/>
          <path id="Trazado_12224" data-name="Trazado 12224" d="M291.779,614.864v23.825C291.46,627.523,291.538,620.593,291.779,614.864Z" transform="translate(-171.198 -477.293)" fill="#fff" stroke="#411906" stroke-linecap="round" stroke-linejoin="round" stroke-width="1.175"/>
          <g id="Grupo_7722" data-name="Grupo 7722" transform="translate(129.727 423.688)">
            <path id="Trazado_12225" data-name="Trazado 12225" d="M308.435,999.278s-1.3,16.788-1.365,20.9-3.145,18.328-2.919,21.693a37.346,37.346,0,0,0,1.028,6.361,59.351,59.351,0,0,1,.053-8.556c.366-4.862,2.4-11.054,2.95-18.929C308.473,1016.628,308.435,999.278,308.435,999.278Z" transform="translate(-304.139 -999.278)" fill="#3b1f10"/>
            <path id="Trazado_12226" data-name="Trazado 12226" d="M326.028,1039.111a11.309,11.309,0,0,0,3.408-4.169c.525-1.134,1.112-2.342,1.411-6.277,0,0,1.414,4.66-.355,7.33A8,8,0,0,1,326.028,1039.111Z" transform="translate(-309.736 -1006.792)" fill="#3b1f10"/>
            <path id="Trazado_12227" data-name="Trazado 12227" d="M321.721,1050.557s.046-.422.124-1.1c.218-1.955,1.265-5.573,1.251-7.811-.032-4.836-2-8.294-1.893-14.653s2.088-15.709,2.088-15.709-1.6,15.714-1.026,19.447c.915,5.94,1.951,8.594,1.852,10.5A24.147,24.147,0,0,1,321.721,1050.557Z" transform="translate(-308.501 -1002.347)" fill="#3b1f10"/>
            <path id="Trazado_12228" data-name="Trazado 12228" d="M340.969,1041.739a3.094,3.094,0,0,1,.627-1.324,4.825,4.825,0,0,1,1.305-.556l-1.291-.431a.89.89,0,0,0-.561.647A5.92,5.92,0,0,0,340.969,1041.739Z" transform="translate(-313.55 -1009.545)" fill="#3b1f10"/>
            <path id="Trazado_12229" data-name="Trazado 12229" d="M336.523,1040.622a4.386,4.386,0,0,1,.551-1.438,5.526,5.526,0,0,1,1.031-.813l-1.345-.145a.941.941,0,0,0-.445.752A5.892,5.892,0,0,0,336.523,1040.622Z" transform="translate(-312.363 -1009.237)" fill="#3b1f10"/>
          </g>
          <path id="Trazado_12230" data-name="Trazado 12230" d="M152.7,595.9a12.393,12.393,0,0,0,2.428,1.132c1.294.243,1.768-.3,1.768-.3a12.915,12.915,0,0,1-2.455-.913,8.193,8.193,0,0,1-1.983-2.387l-.053,1.645Z" transform="translate(-135.613 -471.813)" fill="#3b1f10"/>
          <path id="Trazado_12231" data-name="Trazado 12231" d="M153.517,601.453a4.612,4.612,0,0,0,2.364,1.891,3.311,3.311,0,0,0,2.836-.59,5.121,5.121,0,0,1-3.072-.473,31.655,31.655,0,0,1-2.6-2.718Z" transform="translate(-135.776 -473.381)" fill="#3b1f10"/>
          <path id="Trazado_12232" data-name="Trazado 12232" d="M153.89,613.177a3.1,3.1,0,0,0,2.628,1.78,2.628,2.628,0,0,0,1.388-.577,2.648,2.648,0,0,1-2.439-.8c-.657-.544-1.106-2.746-1.106-2.746Z" transform="translate(-135.993 -476.263)" fill="#3b1f10"/>
          <path id="Trazado_12233" data-name="Trazado 12233" d="M139.86,610.042s.048,4.525.048,6.3a33.312,33.312,0,0,0,1.173,7.806c.537,1.789,2.207,7.285,2.088,7.758s.1,1.879-.945,2.126c-2.154.511-3.308-2.717-3.308-2.717s.266,3.578,2.246,3.916c3.075.525,3.115-1.463,3.115-3.236s-1.937-6.69-2.346-8.17a35.382,35.382,0,0,1-1.052-5.622C140.716,616.743,139.86,610.042,139.86,610.042Z" transform="translate(-132.164 -476.06)" fill="#3b1f10"/>
          <path id="Trazado_12234" data-name="Trazado 12234" d="M145.265,616.869s1.7,8.128,2.292,10.963,2.761,11.722,3.115,12.9,1.739.4,1.739.4-1.5-4.437-2.022-6.147c-.729-2.386-2.194-7.369-2.548-9.142-.2-.994-.764-4.491-1.416-6.673A5.36,5.36,0,0,0,145.265,616.869Z" transform="translate(-133.787 -477.806)" fill="#3b1f10"/>
          <path id="Trazado_12235" data-name="Trazado 12235" d="M144.433,648.354a2.054,2.054,0,0,0,2.671-1.821c.194-.93-1.262-5.108-1.9-7.807a5.118,5.118,0,0,1-.041-2.346s4.126,9.262,2.791,11.77A2.575,2.575,0,0,1,146,649.509Z" transform="translate(-133.575 -482.795)" fill="#3b1f10"/>
          <path id="Trazado_12236" data-name="Trazado 12236" d="M162.807,543.335a7.944,7.944,0,0,1-4.336,2.093,13.622,13.622,0,0,1-5.395,0s2.44,1.674,7.039.688c2.414-.517,2.839-2.02,2.839-2.02Z" transform="translate(-135.785 -459.003)" fill="#3b1f10"/>
          <path id="Trazado_12237" data-name="Trazado 12237" d="M265.641,488.888s4.263,6.009,5.627,12.255a95.417,95.417,0,0,1,2.008,24.091c-.325,5.415.783,19.183-2.115,26.367-2.076,5.146-4.847,9.521-15.331,11.9a48.029,48.029,0,0,1-17.685.448,92.627,92.627,0,0,1-11.9-3.3,44.16,44.16,0,0,0,12.813,4.775,44.921,44.921,0,0,0,18.3-.4c4.391-1.073,11.947-2.222,16.248-13.119,2.762-7,1.537-21.943,1.537-28.252,0-4.28-.515-17.837-1.864-21.652C269.978,492.682,265.641,488.888,265.641,488.888Z" transform="translate(-154.494 -445.08)" fill="#3b1f10"/>
          <path id="Trazado_12238" data-name="Trazado 12238" d="M193.649,545.13s-1.559,6.064,1.8,16.136c1.895,5.686,7.5,12.157,7.5,12.157s-4.659-8.645-6.236-13.521A89.608,89.608,0,0,1,193.649,545.13Z" transform="translate(-146.067 -459.462)" fill="#3b1f10"/>
          <path id="Trazado_12239" data-name="Trazado 12239" d="M253.14,459.2s7.727,2.052,10.852,8.527c2.2,4.551-.007-3.9-3.125-6.068C258.732,460.179,253.14,459.2,253.14,459.2Z" transform="translate(-161.372 -437.49)" fill="#3b1f10"/>
          <path id="Trazado_12240" data-name="Trazado 12240" d="M279.117,715.415c-2.126,8.951-2.1,9.149-4.147,16.121-1.937,6.59-3.6,10.623-3.6,10.623s4.391-4.413,6.331-13.349C278.36,725.756,279.117,715.415,279.117,715.415Z" transform="translate(-166.032 -503.005)" fill="#3b1f10"/>
          <path id="Trazado_12241" data-name="Trazado 12241" d="M227.622,762.8s3.142,13.2,3.529,19.791-3.529,22.068-3.529,22.068,5.075-12.341,5.039-21.317C232.636,777.144,227.622,762.8,227.622,762.8Z" transform="translate(-154.846 -515.122)" fill="#3b1f10"/>
          <path id="Trazado_12242" data-name="Trazado 12242" d="M250.961,795.091s-1.034,7.314.906,11.578,5.181,5,5.181,5-3.611-4.739-3.909-5.455C251.32,801.85,250.961,795.091,250.961,795.091Z" transform="translate(-160.744 -523.378)" fill="#3b1f10"/>
          <path id="Trazado_12243" data-name="Trazado 12243" d="M274.085,802.382c.388,1.161-.775,12.014-2.326,15.89s2.219-2.739,3.037-7.284A16.93,16.93,0,0,0,274.085,802.382Z" transform="translate(-166.038 -525.243)" fill="#3b1f10"/>
          <path id="Trazado_12244" data-name="Trazado 12244" d="M224.5,886.222a24.828,24.828,0,0,0,2.959,7.456,12.763,12.763,0,0,0,5.223,4.631,26.637,26.637,0,0,1-4.352-5.536C226.661,890.129,224.5,886.222,224.5,886.222Z" transform="translate(-154.047 -546.681)" fill="#3b1f10"/>
          <path id="Trazado_12246" data-name="Trazado 12246" d="M279.924,439.531a16.672,16.672,0,0,1-.265,5.286,28.575,28.575,0,0,1-1.722,4.333s1.731-.579,2.755-4.076C281.053,443.841,279.924,439.531,279.924,439.531Z" transform="translate(-167.712 -432.459)" fill="#3b1f10"/>
          <path id="Trazado_12248" data-name="Trazado 12248" d="M156.6,564.006c-.371-.991-1.583-3.576-1.938-4.522a11.314,11.314,0,0,1-.307-3.016,7.074,7.074,0,0,0-.59,2.717c.118,1.064,1.82,4.935,1.913,6.341a9.012,9.012,0,0,1-1.131,5.328c-.3.633-5.986,9.359-7.777,12.209-.47.746-4.331,8.491-5.872,8.927a12.939,12.939,0,0,1-3.964.162,5.925,5.925,0,0,0,3.075.889c1.731,0,2.224-.283,3.413-1.792.891-1.131,5.79-10.288,6.617-11.234a78.649,78.649,0,0,0,5.735-8.661C156.835,569.231,157.706,566.958,156.6,564.006Z" transform="translate(-131.657 -462.361)" fill="#3b1f10"/>
          <path id="Trazado_12249" data-name="Trazado 12249" d="M287.974,614.864v23.825C288.293,627.523,288.215,620.593,287.974,614.864Z" transform="translate(-170.279 -477.293)" fill="#fff" stroke="#411906" stroke-linecap="round" stroke-linejoin="round" stroke-width="1.175"/>
          <g id="Grupo_7723" data-name="Grupo 7723" transform="translate(79.198 423.688)">
            <path id="Trazado_12250" data-name="Trazado 12250" d="M269.912,999.278s1.3,16.788,1.367,20.9,3.146,18.328,2.918,21.693a37.432,37.432,0,0,1-1.026,6.361,59.674,59.674,0,0,0-.052-8.556c-.366-4.862-2.4-11.054-2.953-18.929C269.876,1016.628,269.912,999.278,269.912,999.278Z" transform="translate(-244.858 -999.278)" fill="#3b1f10"/>
            <path id="Trazado_12251" data-name="Trazado 12251" d="M251.957,1039.111a11.3,11.3,0,0,1-3.406-4.169c-.526-1.134-1.113-2.342-1.413-6.277,0,0-1.413,4.66.355,7.33A8.007,8.007,0,0,0,251.957,1039.111Z" transform="translate(-238.898 -1006.792)" fill="#3b1f10"/>
            <path id="Trazado_12252" data-name="Trazado 12252" d="M257.1,1050.557s-.048-.422-.124-1.1c-.22-1.955-1.265-5.573-1.252-7.811.032-4.836,2-8.294,1.891-14.653s-2.087-15.709-2.087-15.709,1.6,15.714,1.027,19.447c-.915,5.94-1.952,8.594-1.852,10.5A24.14,24.14,0,0,0,257.1,1050.557Z" transform="translate(-240.968 -1002.347)" fill="#3b1f10"/>
            <path id="Trazado_12253" data-name="Trazado 12253" d="M238.183,1041.739a3.109,3.109,0,0,0-.627-1.324,4.816,4.816,0,0,0-1.305-.556l1.29-.431a.892.892,0,0,1,.562.647A5.882,5.882,0,0,1,238.183,1041.739Z" transform="translate(-236.251 -1009.545)" fill="#3b1f10"/>
            <path id="Trazado_12254" data-name="Trazado 12254" d="M242.685,1040.622a4.41,4.41,0,0,0-.552-1.438,5.529,5.529,0,0,0-1.03-.813l1.344-.145a.942.942,0,0,1,.444.752A5.891,5.891,0,0,1,242.685,1040.622Z" transform="translate(-237.492 -1009.237)" fill="#3b1f10"/>
          </g>
          <path id="Trazado_12259" data-name="Trazado 12259" d="M324.979,583.685c-3.979.733-10.095,1.82-16.675.238-8.2-1.971-14.247-7.516-16.324-12.662a24.356,24.356,0,0,1-1.336-5.188h-2.375a23.719,23.719,0,0,0,1.271,5.34c4.3,10.9,12.814,12.738,16.246,13.729,6.917,2,14.052.958,18.283.02a44.161,44.161,0,0,0,12.812-4.775A92.57,92.57,0,0,1,324.979,583.685Z" transform="translate(-170.354 -464.817)" fill="#3b1f10"/>
          <path id="Trazado_12260" data-name="Trazado 12260" d="M292,501.841c1.364-6.246,5.663-12.953,5.663-12.953s-4.337,3.794-7.635,13.115a31.721,31.721,0,0,0-1.066,6.195l1.717,4.211A59.288,59.288,0,0,1,292,501.841Z" transform="translate(-170.531 -445.08)" fill="#3b1f10"/>
        </g>
        <path id="Trazado_12261" data-name="Trazado 12261" d="M336.14,488.833c-1.838-5.516-3.246-7.031-3.246-7.031s-15.252,3.582-32.553,5.717c-11.377,1.405-26.23,1.559-33.289,1.543v-.034s-.741.013-2.035.024c-1.3-.01-2.036-.024-2.036-.024s0,.018,0,.034c-7.057.016-21.913-.138-33.289-1.543-17.3-2.135-32.552-5.717-32.552-5.717s-1.384,1.831-3.223,7.347a24.591,24.591,0,0,0-.963,4.553s11.828-1.113,28.041,3.741c11.965,3.583,20.177,6.731,28.306,14.383,4.987,4.692,10.94,10.439,12.274,19.786,1.924,13.466-1.086,22.731-1.086,22.731s1.206.753,4.891.67,4.537-.867,4.537-.867-2.091-14.784,1.276-23.724c5.314-14.107,9.947-18.265,15.574-22.168,10.167-7.054,12.682-7.741,24.549-11.633,11.726-3.848,26.2-3.024,26.2-3.024S336.856,490.978,336.14,488.833Z" transform="translate(-145.981 -443.268)" fill="#3b1f10"/>
      </g>
    </g>
    <g id="Grupo_7720" data-name="Grupo 7720" transform="translate(-7797 6382.14)">
      <path id="Trazado_12082" data-name="Trazado 12082" d="M171.413,391.772c-.6,4.836,2.679,13.169,3.861,18.054a116.317,116.317,0,0,1,2.531,20.556c.069,3.142.512,7.141.788,10.765.305,3.861,1.31,9.721.808,11.593a2.949,2.949,0,0,1-.886,1.507v.01a3.7,3.7,0,0,1-2.4.827,3.479,3.479,0,0,1-1.921-.453,4.221,4.221,0,0,1-1.477-1.714c-1.615-3.034-1.753-8.008-2.561-12.469-.315-1.743-.847-4.3-1.152-5.752-.138-.67-.236-1.1-.236-1.1s-.443.305-1,.67l-.01.01c-.827.561-1.911,1.271-2.147,1.409a4.678,4.678,0,0,0-.7,2.068v.1a16.248,16.248,0,0,0-.236,1.822,14.618,14.618,0,0,0-.01,2.462,2.146,2.146,0,0,0,.315.936c.522.768,2,1.911,2.8,3.191a2.819,2.819,0,0,1,.256,2.571,8.422,8.422,0,0,1-.689,1.034,43.611,43.611,0,0,0,3.24,3.792,3.5,3.5,0,0,1,1.231,2.541c-.02.4-.246,1.635-.246,1.635a13.792,13.792,0,0,1,1.97,3.191,2.449,2.449,0,0,1-.65,2.65,2.807,2.807,0,0,1-3.073-.089,42.079,42.079,0,0,1-5.013-3.26c-1.271-.926-4.107-3.26-5.417-4.324a33.65,33.65,0,0,1-4.462-4.235,9,9,0,0,1-1.734-3.2,41.286,41.286,0,0,1-1.458-6.038,31.524,31.524,0,0,0-1.034-4.905,20.256,20.256,0,0,1-1.28-7.643c.089-1.566,3.585-13.326,4.255-17s2.088-9.288,1.921-13.829-.3-11.051-.148-15.414c.039-1.32.394-5.624.867-11.1,1.093-12.627,2.837-31.5,3.053-34.591.315-4.432,1.763-20.044,2.265-24.761A73.356,73.356,0,0,1,163.9,301.67h35.921c-3.171,12.7-8.874,28.327-12.194,37.95C185.262,346.455,173.866,371.946,171.413,391.772Z" transform="translate(7777.605 187.673)" fill="#fff" stroke="#3b1f10" stroke-linecap="round" stroke-linejoin="round" stroke-width="1.942"/>
      <path id="Trazado_12097" data-name="Trazado 12097" d="M334.8,440.921c-.552,2.472-3.5,15.6-7.062,31.715-6.333,28.652-15.02,58.289-14.951,71.073.039,7.269.532,12.637,1.182,29.233.3,7.515-1.251,17.62-1.408,26.84-.118,6.973.276,10.7,1.359,23.225,1.684,19.3-4.531,39.1-6.333,44.736-7.82,24.387-10.322,38.688-10.775,40.727a78.261,78.261,0,0,0-.857,13.316c.118,6.993,2.206,12.716,2.206,16.537,0,1.793-.758,2.7-1.074,4.3a8.42,8.42,0,0,0-.049,2.778.419.419,0,0,0,.02.108c.325,2.108,2.492,5.427,4.747,7.673a70.44,70.44,0,0,1,6.432,6.57.01.01,0,0,1,.01.01,16.242,16.242,0,0,1,1.034,1.428c.079.108.148.217.217.325a3.135,3.135,0,0,1-.749,3.753,4.772,4.772,0,0,1-3.585,1.221h-.049a4.942,4.942,0,0,1-3.132,1.349,6.946,6.946,0,0,1-3.575-.424,6.818,6.818,0,0,1-2.59.877c-2.512.079-3.142-.552-3.585-1.034a3.065,3.065,0,0,1-.364.3l-.01.01a.173.173,0,0,1-.049.039,6.245,6.245,0,0,1-3.969,1.152,9.261,9.261,0,0,1-4.255-1.605c-.01.01-.01.01-.02,0s-.03-.01-.039-.02c-.01.02-.02.03-.03.049-.7,1.261-3.359,2.187-5.7,2.1a9.026,9.026,0,0,1-6.107-2.2,7.6,7.6,0,0,1-2.817-5.87c-.177-2.659,1.5-6.264,1.733-11.888.118-2.827-1.1-14.085-1.044-14.735.246-2.955,1.862-5.526,2.679-9.977.158-.827,1.172-5.043,1.891-10.509.167-3.231.3-6.441.3-6.441s-.305-7.742-.512-11.327a269.478,269.478,0,0,0-3.083-27.549c-1.832-12-3.3-22.161-3.644-27.381a113.864,113.864,0,0,1,.768-24.712c1.635-12.617,3.378-17.857,3.388-22.841.01-6.412-.256-7.643-2.659-17.168-1.389-5.545-1-12.282-.847-19.029.236-9.643,1.162-22.467.719-27.2-.325-3.5-2.718-95.864-1.93-108.068.424-6.7,1.241-12.026,1.605-14.223.118-.709.2-1.093.2-1.093a16.281,16.281,0,0,1-4.1.532c-3.211-.108-4.009-.483-4.1-.522.01.069.128.443.3,1.083a80.248,80.248,0,0,1,2.295,14.479c.778,12.2,1.556,19.985-.256,56.841,0,0-.364,5.624-.847,13.149-.906,14.045-2.246,34.729-2.541,37.822-.433,4.738.492,17.562.729,27.2.158,6.747.542,13.484-.847,19.029-2.4,9.524-2.669,10.756-2.659,17.168.01,4.984,1.753,10.224,3.388,22.841a113.169,113.169,0,0,1,.758,24.712c-.335,5.22-1.8,15.385-3.634,27.381a269.471,269.471,0,0,0-3.083,27.549c-.207,3.585-.512,11.327-.512,11.327s.138,3.329.3,6.619c.729,5.378,1.724,9.515,1.871,10.332.818,4.452,2.433,7.023,2.679,9.977.059.65-1.162,11.908-1.044,14.735.236,5.624,1.674,9.111,1.487,11.77a9.5,9.5,0,0,1-2.2,5.742c-1.1,1.28-2.64,2.561-6.481,2.561-2.374,0-5.063-.985-5.732-2.265-.01,0-.02.01-.03.02a.577.577,0,0,0-.079.039,9.339,9.339,0,0,1-4.206,1.566,6.216,6.216,0,0,1-4.009-1.192,3.318,3.318,0,0,1-.374-.305c-.01.01-.02.029-.039.039-.433.473-1.1,1.074-3.546.995a6.744,6.744,0,0,1-2.59-.877,7.007,7.007,0,0,1-3.585.424,4.933,4.933,0,0,1-3.122-1.349.784.784,0,0,1-.217.01v.01a4.865,4.865,0,0,1-3.418-1.241,3.108,3.108,0,0,1-.749-3.753,3.969,3.969,0,0,1,.246-.364c.286-.453.621-.906.965-1.359a.01.01,0,0,1,.01-.01,68.516,68.516,0,0,1,6.471-6.6c2.285-2.285,4.482-5.673,4.757-7.781.01-.089.02-.167.03-.256v-.01a13.327,13.327,0,0,0,0-2.659c-.217-2.59-.926-4.935-.424-6.767,3.3-11.8,2.265-19.088.64-27.243-.4-2.049-2.955-16.34-10.775-40.727-1.8-5.634-8.017-25.431-6.333-44.736,1.083-12.528,1.477-16.252,1.359-23.225-.158-9.219-1.7-19.325-1.408-26.84.65-16.6,1.714-21.984,1.182-29.233-.6-8.008-5.811-40.461-10.844-63.627-1.576-7.269-3.142-13.632-4.531-18.034-16.724-52.675-12.351-97.686-6.107-116.686.01-.039.02-.079.03-.128.1-.276.177-.532.276-.788.985-2.837,2.019-5.427,3.1-7.85,0-.01.01-.02.01-.03,6.028-13.543,13.11-21.6,16.843-34.9H314.918c3.694,13.149,10.657,21.166,16.646,34.443,1.152,2.561,2.275,5.309,3.319,8.333.227.65.443,1.33.67,2.049a.036.036,0,0,0,.01.03C340.763,363.406,344.338,398.549,334.8,440.921Z" transform="translate(7777.025 187.673)" fill="#fff" stroke="#3b1f10" stroke-linecap="round" stroke-linejoin="round" stroke-width="1.942"/>
      <path id="Trazado_12098" data-name="Trazado 12098" d="M379.813,438.991a31.439,31.439,0,0,0-1.024,4.9,40.11,40.11,0,0,1-1.468,6.048,9.177,9.177,0,0,1-1.724,3.191c-.256.345-1.753,1.862-1.753,1.862-.936.877-1.99,1.783-2.718,2.374-1.31,1.054-4.147,3.4-5.417,4.324a42.075,42.075,0,0,1-5.013,3.26,2.788,2.788,0,0,1-3.073.079,2.455,2.455,0,0,1-.65-2.65,9.864,9.864,0,0,1,1.458-2.512l.01-.01c.286-.4.5-.67.5-.67s-.039-.207-.079-.483a11.6,11.6,0,0,1-.158-1.152,3.417,3.417,0,0,1,1.221-2.531,38.664,38.664,0,0,0,3.132-3.654l-.148-.463a.031.031,0,0,0,.02-.01,7.783,7.783,0,0,1-.453-.7,2.826,2.826,0,0,1,.266-2.571c.8-1.29,2.275-2.423,2.8-3.191a4.181,4.181,0,0,0,.365-2.2,9.3,9.3,0,0,1-.079-1.349c-.079-1.083-.246-3.428-.916-3.841-.246-.148-1.389-.9-2.236-1.468l-1.064.01c-.276,1.29-.9,4.265-1.251,6.225-.808,4.462-.955,9.436-2.561,12.469a4.005,4.005,0,0,1-1.733,1.842,3.6,3.6,0,0,1-1.674.315,3.749,3.749,0,0,1-2.216-.68,3.012,3.012,0,0,1-1.074-1.655c-.492-1.871.512-7.732.808-11.6.286-3.625.729-7.614.8-10.756a117.13,117.13,0,0,1,2.531-20.556c1.192-4.9,4.462-13.218,3.871-18.054-2.453-19.837-13.592-45.406-16.2-52.163-4.334-11.238-9.712-26.751-12.578-39.309h35.921a73.823,73.823,0,0,1,2.659,12.982c.512,4.718,1.95,20.329,2.265,24.761.217,3.093,1.96,21.964,3.044,34.581.473,5.486.827,9.79.867,11.11.148,4.363.01,10.874-.158,15.414s1.251,10.155,1.921,13.829,4.166,15.434,4.255,17A20.109,20.109,0,0,1,379.813,438.991Z" transform="translate(7774.881 187.673)" fill="#fff" stroke="#3b1f10" stroke-linecap="round" stroke-linejoin="round" stroke-width="1.942"/>
      <path id="Trazado_12099" data-name="Trazado 12099" d="M266.994,314.443a4.671,4.671,0,0,1-2.452,1.124,2.073,2.073,0,0,1-2.068-1.7,5.432,5.432,0,0,0,2.485.822C265.7,314.634,266.994,314.443,266.994,314.443Z" transform="translate(7775.903 187.489)" fill="#3b1f10"/>
      <path id="Trazado_12100" data-name="Trazado 12100" d="M269.667,316.479a6.324,6.324,0,0,1-5.164,2.758,4.243,4.243,0,0,1-3.929-2.063,6.964,6.964,0,0,1-.657-1.4,10.738,10.738,0,0,0,3.047,2.012,6.84,6.84,0,0,0,2.522.029A27.978,27.978,0,0,0,269.667,316.479Z" transform="translate(7775.941 187.461)" fill="#3b1f10"/>
      <path id="Trazado_12101" data-name="Trazado 12101" d="M178.155,451.144c-.163-.34-.542-.637-1.346-.673a4.121,4.121,0,0,0-2.308.454c-.693.413-.764,1.423-.569,2.786a14.065,14.065,0,0,0,.877,3.71,2.833,2.833,0,0,0,2.457.375c.807-.229,1.467-.445,1.618-1.3A14.711,14.711,0,0,0,178.155,451.144Z" transform="translate(7777.238 185.433)" fill="#fff" stroke="#411906" stroke-linecap="round" stroke-linejoin="round" stroke-width="1"/>
      <path id="Trazado_12102" data-name="Trazado 12102" d="M353.036,452.13c.163-.34.542-.637,1.346-.672a4.113,4.113,0,0,1,2.308.453c.693.412.764,1.422.569,2.784a14.075,14.075,0,0,1-.876,3.71,2.821,2.821,0,0,1-2.457.376c-.808-.228-1.467-.443-1.619-1.3A14.722,14.722,0,0,1,353.036,452.13Z" transform="translate(7774.551 185.418)" fill="#fff" stroke="#411906" stroke-linecap="round" stroke-linejoin="round" stroke-width="1"/>
      <path id="Trazado_12108" data-name="Trazado 12108" d="M251.461,558.406s.586,3.488.212,4.934c-.884,3.424-1.183,2.7-2.485,4.728a50.936,50.936,0,0,0,1.545-4.881C250.963,561.916,251.461,558.406,251.461,558.406Z" transform="translate(7776.103 183.807)" fill="#3b1f10"/>
      <path id="Trazado_12109" data-name="Trazado 12109" d="M230.741,553.381a20.381,20.381,0,0,1-4.661-3.524,23.666,23.666,0,0,1-2.516-3.555c-1.357-1.738-1.459,1.445,1.264,4.231A9.263,9.263,0,0,0,230.741,553.381Z" transform="translate(7776.502 183.997)"/>
      <path id="Trazado_12110" data-name="Trazado 12110" d="M247.492,580.961a15.572,15.572,0,0,1-5.282,9.06,15.366,15.366,0,0,1-7.051,2.727,41.758,41.758,0,0,0,6.37-4.579C243.273,586.387,247.492,580.961,247.492,580.961Z" transform="translate(7776.314 183.468)" fill="#3b1f10"/>
      <path id="Trazado_12111" data-name="Trazado 12111" d="M227.871,592.682s-3.646-2.731-5.641-8.953c-.748-2.333-1.509-3.854-1.711-3.2-.335,1.092.186,5.056,1.893,7.613A16.428,16.428,0,0,0,227.871,592.682Z" transform="translate(7776.536 183.476)" fill="#3b1f10"/>
      <path id="Trazado_12112" data-name="Trazado 12112" d="M244.567,630.953s.374-19.127.875-22.981c1.051-8.088,2.407-5.967,1.91-2.726C246.77,609.021,244.567,630.953,244.567,630.953Z" transform="translate(7776.172 183.145)" fill="#3b1f10"/>
      <path id="Trazado_12115" data-name="Trazado 12115" d="M205.328,335.935s6.108,3.553,7.278,8.189c1.5,5.918.667-2.425-2.054-5.145A17.79,17.79,0,0,0,205.328,335.935Z" transform="translate(7776.763 187.157)" fill="#3b1f10"/>
      <path id="Trazado_12116" data-name="Trazado 12116" d="M247.218,687.756c.413,8.969,1.5,29.332,1.5,29.332s-3.548-29.909-3.711-35.77c-.11-3.948-.519-27.689-.581-41.594C244.363,624.589,246.957,682.08,247.218,687.756Z" transform="translate(7776.174 182.621)" fill="#3b1f10"/>
      <path id="Trazado_12125" data-name="Trazado 12125" d="M319.644,338.56a5.54,5.54,0,0,1,2.03-2.4,8.424,8.424,0,0,1,3.255-1.147,14.432,14.432,0,0,0-3.617,3.476c-.842,1.092-1.932,5.059-1.932,5.059A8.594,8.594,0,0,1,319.644,338.56Z" transform="translate(7775.05 187.171)" fill="#3b1f10"/>
      <path id="Trazado_12126" data-name="Trazado 12126" d="M278.923,558.406s-.586,3.488-.212,4.934c.884,3.424,1.183,2.7,2.485,4.728a50.931,50.931,0,0,1-1.545-4.881C279.421,561.916,278.923,558.406,278.923,558.406Z" transform="translate(7775.66 183.807)" fill="#3b1f10"/>
      <path id="Trazado_12127" data-name="Trazado 12127" d="M299.559,553.381a20.363,20.363,0,0,0,4.66-3.524,23.7,23.7,0,0,0,2.517-3.555c1.357-1.738,1.458,1.445-1.264,4.231A9.263,9.263,0,0,1,299.559,553.381Z" transform="translate(7775.344 183.997)"/>
      <path id="Trazado_12128" data-name="Trazado 12128" d="M282.743,580.961a15.572,15.572,0,0,0,5.282,9.06,15.361,15.361,0,0,0,7.05,2.727,41.764,41.764,0,0,1-6.369-4.579C286.962,586.387,282.743,580.961,282.743,580.961Z" transform="translate(7775.598 183.468)" fill="#3b1f10"/>
      <path id="Trazado_12129" data-name="Trazado 12129" d="M302.439,592.682s3.646-2.731,5.64-8.953c.749-2.333,1.51-3.854,1.712-3.2.335,1.092-.186,5.056-1.893,7.613A16.428,16.428,0,0,1,302.439,592.682Z" transform="translate(7775.301 183.476)" fill="#3b1f10"/>
      <path id="Trazado_12130" data-name="Trazado 12130" d="M285.813,630.953s-.374-19.127-.875-22.981c-1.051-8.088-2.407-5.967-1.91-2.726C283.609,609.021,285.813,630.953,285.813,630.953Z" transform="translate(7775.595 183.145)" fill="#3b1f10"/>
      <g id="Grupo_7720-2" data-name="Grupo 7720" transform="translate(7936.527 616.314)">
        <path id="Trazado_12132" data-name="Trazado 12132" d="M169.329,436.7s-.144-2.331-.292-3.325c-.128-.861-.229-2.791-.229-2.791s-.219,1.935-.27,3.373a4.718,4.718,0,0,1-1.445,2.688l1.486-.692Z" transform="translate(-159.188 -430.582)" fill="#3b1f10"/>
        <path id="Trazado_12133" data-name="Trazado 12133" d="M171.576,459.8a1.539,1.539,0,0,1-.831-.292,34.318,34.318,0,0,1-3.366-3.2c-.755-.863-2.452-2.493-2.452-2.493s-.035-1.926-.142-3.407a11.493,11.493,0,0,1,1.305.913c.917.794,2.577,2.284,2.577,2.284l-1.163-1.5a11.616,11.616,0,0,0-1.33-1.412c-.874-.706-1.127-.973-1.455-1.206a13.178,13.178,0,0,0-.709-2.842s.238-.707.528-1.466a15.99,15.99,0,0,0,.527-2.44l-.013-3.642s-.453,2.059-.707,3.781a23.819,23.819,0,0,1-1,3.312s.477,2.112.786,3.542c.157.729.052,2.348.127,3.453a60.549,60.549,0,0,1-1.952-6.606c-.579-2.1-.915-2.827-1.413-4.24a19.263,19.263,0,0,0-1.829-3.907s1.039,3.283,1.455,4.488c.3.869,1.247,4.074,1.247,4.074l1.828,6.316s1.253,1.268,1.259,1.24c.472.423,1.407,1.272,1.993,1.862.809.817,2.554,2.539,3.274,3.09s2.326,1.454,2.326,1.454Z" transform="translate(-159.067 -430.7)" fill="#3b1f10"/>
      </g>
      <g id="Grupo_7721" data-name="Grupo 7721" transform="translate(8132.989 616.799)">
        <path id="Trazado_12134" data-name="Trazado 12134" d="M361.349,437.19s.143-2.331.292-3.324c.128-.861.229-2.792.229-2.792s.218,1.935.27,3.373a4.072,4.072,0,0,0,1.513,2.534l-1.474,0Z" transform="translate(-358.575 -431.074)" fill="#3b1f10"/>
        <path id="Trazado_12135" data-name="Trazado 12135" d="M359.275,460.782a6.687,6.687,0,0,0,1.66-.566,34.218,34.218,0,0,0,3.366-3.2c.755-.863,2.452-2.494,2.452-2.494s.035-1.926.141-3.406a11.6,11.6,0,0,0-1.3.912c-.917.8-2.578,2.285-2.578,2.285l1.164-1.5a11.455,11.455,0,0,1,1.33-1.412c.873-.706,1.126-.973,1.454-1.2a13.2,13.2,0,0,1,.709-2.843s-.238-.706-.527-1.465a16.033,16.033,0,0,1-.528-2.441l-.4-4.333a37.816,37.816,0,0,1,1.121,4.472,23.844,23.844,0,0,0,1,3.313s-.477,2.11-.787,3.542c-.157.728-.052,2.347-.127,3.452a60.772,60.772,0,0,0,1.953-6.607c.578-2.1.915-2.827,1.413-4.238a19.355,19.355,0,0,1,1.828-3.909s-1.039,3.285-1.455,4.489c-.3.868-1.246,4.073-1.246,4.073l-1.829,6.316s-1.253,1.27-1.259,1.242c-.471.422-1.408,1.271-1.993,1.861-.808.818-2.553,2.539-3.273,3.091s-3.025,2.632-3.025,2.632Z" transform="translate(-358.533 -431.195)" fill="#3b1f10"/>
      </g>
      <path id="Trazado_12165" data-name="Trazado 12165" d="M244.4,770.6a7.368,7.368,0,0,1,1.09-4.611,6.044,6.044,0,0,0-1.777,2.872,6.215,6.215,0,0,0,.272,4.317,5.135,5.135,0,0,0,.505,1.012.536.536,0,0,1,.505.038s-.077-.388.557.062a4.925,4.925,0,0,0,.716.1A6.807,6.807,0,0,1,244.4,770.6Z" transform="translate(7776.189 180.681)" fill="#3b1f10"/>
      <path id="Trazado_12166" data-name="Trazado 12166" d="M235.789,770.621a5.961,5.961,0,0,1,1.457-3.046,5.317,5.317,0,0,0,1.05-1.75,11.746,11.746,0,0,0-1.167,1.206,13.15,13.15,0,0,0-1.575,2.1,5.265,5.265,0,0,0-.235,3.764c.314,1.145,2.412,2.871.916,1.6.525.277,1.05-.35,1.05-.35A4.411,4.411,0,0,1,235.789,770.621Z" transform="translate(7776.315 180.684)" fill="#3b1f10"/>
      <path id="Trazado_12167" data-name="Trazado 12167" d="M229.449,771.429c0-1.213.194-1.827,1.557-3.788a3.619,3.619,0,0,0,.776-1.5,18.029,18.029,0,0,0-1.711,2.061,10.41,10.41,0,0,0-.972,1.633c-.778,2.295-.269,3.619.194,4.239.014.021.589.639.388-.038.225.04.024-.539.283-.354a5.312,5.312,0,0,0,.515.323,3.755,3.755,0,0,0,.377.078A2.771,2.771,0,0,1,229.449,771.429Z" transform="translate(7776.411 180.679)" fill="#3b1f10"/>
      <path id="Trazado_12168" data-name="Trazado 12168" d="M225.5,774.019a3.578,3.578,0,0,1-2.489-3.345,5.222,5.222,0,0,1,1.349-3.374c.794-1.019,1.918-2.264,1.918-2.264s-1.672,1.477-2.567,2.372a4.737,4.737,0,0,0-1.129,1.828,4.953,4.953,0,0,0-.116,3.577c.038-.006.745,1.17.311.429-.229-.391.4.11.972.506A13.849,13.849,0,0,1,225.5,774.019Z" transform="translate(7776.509 180.696)" fill="#3b1f10"/>
      <path id="Trazado_12169" data-name="Trazado 12169" d="M252.66,763.308c2.693.249,4.935,2.281,4.674,1.755-.959-1.942-3.865-2.555-5.97-2.555a4.994,4.994,0,0,0-3.222,1.018A13.225,13.225,0,0,1,252.66,763.308Z" transform="translate(7776.118 180.734)" fill="#3b1f10"/>
      <path id="Trazado_12170" data-name="Trazado 12170" d="M230.386,753.779a17.044,17.044,0,0,1,3.173-4.934c2.2-2.04,2.683-2.606,2.683-2.606a13.941,13.941,0,0,0-3.034,1.672,29.644,29.644,0,0,1-2.56,1.686Z" transform="translate(7776.386 180.979)" fill="#3b1f10"/>
      <path id="Trazado_12171" data-name="Trazado 12171" d="M256.241,743.8c.232.31,1.188,1.539,1.877,2.425.031-.932.053-1.8.065-2.594-.917-.89-3.111-2.488-4.563-2.583C253.62,741.049,255.867,743.3,256.241,743.8Z" transform="translate(7776.036 181.057)" fill="#3b1f10"/>
      <path id="Trazado_12172" data-name="Trazado 12172" d="M285.44,770.6a7.367,7.367,0,0,0-1.09-4.611,6.041,6.041,0,0,1,1.778,2.872,6.215,6.215,0,0,1-.272,4.317,5.083,5.083,0,0,1-.506,1.012.537.537,0,0,0-.505.038s.078-.388-.556.062a4.924,4.924,0,0,1-.716.1A6.8,6.8,0,0,0,285.44,770.6Z" transform="translate(7775.585 180.681)" fill="#3b1f10"/>
      <path id="Trazado_12173" data-name="Trazado 12173" d="M294.044,770.621a5.977,5.977,0,0,0-1.457-3.046,5.317,5.317,0,0,1-1.05-1.75,11.679,11.679,0,0,1,1.166,1.206,13.177,13.177,0,0,1,1.576,2.1,5.271,5.271,0,0,1,.235,3.764c-.314,1.145-2.412,2.871-.917,1.6-.524.277-1.05-.35-1.05-.35A4.411,4.411,0,0,0,294.044,770.621Z" transform="translate(7775.465 180.684)" fill="#3b1f10"/>
      <path id="Trazado_12174" data-name="Trazado 12174" d="M300.385,771.429c0-1.213-.194-1.827-1.558-3.788a3.622,3.622,0,0,1-.775-1.5,18.028,18.028,0,0,1,1.711,2.061,10.412,10.412,0,0,1,.972,1.633c.778,2.295.269,3.619-.194,4.239-.015.021-.589.639-.389-.038-.224.04-.023-.539-.282-.354a5.431,5.431,0,0,1-.515.323,3.8,3.8,0,0,1-.378.078A2.771,2.771,0,0,0,300.385,771.429Z" transform="translate(7775.367 180.679)" fill="#3b1f10"/>
      <path id="Trazado_12175" data-name="Trazado 12175" d="M304.318,774.019a3.578,3.578,0,0,0,2.489-3.345,5.224,5.224,0,0,0-1.35-3.374c-.793-1.019-1.917-2.264-1.917-2.264s1.672,1.477,2.567,2.372a4.737,4.737,0,0,1,1.129,1.828,4.953,4.953,0,0,1,.116,3.577c-.038-.006-.745,1.17-.311.429.228-.391-.4.11-.972.506A13.849,13.849,0,0,0,304.318,774.019Z" transform="translate(7775.284 180.696)" fill="#3b1f10"/>
      <path id="Trazado_12176" data-name="Trazado 12176" d="M277.081,763.308c-2.693.249-4.935,2.281-4.675,1.755.959-1.942,3.865-2.555,5.969-2.555a5,5,0,0,1,3.223,1.018A13.225,13.225,0,0,0,277.081,763.308Z" transform="translate(7775.753 180.734)" fill="#3b1f10"/>
      <path id="Trazado_12177" data-name="Trazado 12177" d="M299.406,753.779a17.067,17.067,0,0,0-3.173-4.934c-2.2-2.04-2.684-2.606-2.684-2.606a13.959,13.959,0,0,1,3.035,1.672,29.437,29.437,0,0,0,2.56,1.686Z" transform="translate(7775.435 180.979)" fill="#3b1f10"/>
      <path id="Trazado_12178" data-name="Trazado 12178" d="M273.571,743.8c-.232.31-1.189,1.539-1.877,2.425-.031-.932-.053-1.8-.065-2.594.917-.89,3.111-2.488,4.563-2.583C276.192,741.049,273.946,743.3,273.571,743.8Z" transform="translate(7775.765 181.057)" fill="#3b1f10"/>
      <path id="Trazado_12179" data-name="Trazado 12179" d="M238.39,768.428c-.779.221-1.323,1.478-1.323,1.478s-.388,1.047.116,1.088a15.557,15.557,0,0,1,3.306.545c.7.164,1.555-1.908,1.088-2.567S239.169,768.209,238.39,768.428Z" transform="translate(7776.288 180.646)" fill="#fff" stroke="#411906" stroke-linecap="round" stroke-linejoin="round" stroke-width="1"/>
      <path id="Trazado_12180" data-name="Trazado 12180" d="M231.957,768.706c-.681.2-1.012,1.166-1.012,1.166s-.562,1.007,0,1.128a9.361,9.361,0,0,0,2.937.4c.614-.131,1.05-1.524.64-2.113A2.936,2.936,0,0,0,231.957,768.706Z" transform="translate(7776.381 180.642)" fill="#fff" stroke="#411906" stroke-linecap="round" stroke-linejoin="round" stroke-width="1"/>
      <path id="Trazado_12181" data-name="Trazado 12181" d="M225.772,768.586a1.867,1.867,0,0,0-1.089.765.689.689,0,0,0,.013.9,4.112,4.112,0,0,0,2.721.768c.622-.081.9-.979.542-1.6A2.348,2.348,0,0,0,225.772,768.586Z" transform="translate(7776.475 180.643)" fill="#fff" stroke="#411906" stroke-linecap="round" stroke-linejoin="round" stroke-width="1"/>
      <path id="Trazado_12182" data-name="Trazado 12182" d="M220.2,766.726a1.74,1.74,0,0,0-1.065.64s-.572.666-.073.861a9.463,9.463,0,0,0,2.41.956c.575-.026.913-.858.643-1.478A2.091,2.091,0,0,0,220.2,766.726Z" transform="translate(7776.559 180.67)" fill="#fff" stroke="#411906" stroke-linecap="round" stroke-linejoin="round" stroke-width="1"/>
      <path id="Trazado_12183" data-name="Trazado 12183" d="M251.257,769.35c1.713.215,2.528.738,3.172.065.387-.406,2.011-2.461-.216-3.721a7.174,7.174,0,0,0-5.562-.427,4.659,4.659,0,0,0-2.2,2.229c-.484.977-.305,1.578.1,1.7C247.681,769.525,248.146,768.961,251.257,769.35Z" transform="translate(7776.148 180.698)" fill="#fff" stroke="#411906" stroke-linecap="round" stroke-linejoin="round" stroke-width="1.175"/>
      <path id="Trazado_12184" data-name="Trazado 12184" d="M291.683,768.428c.779.221,1.323,1.478,1.323,1.478s.389,1.047-.116,1.088a15.557,15.557,0,0,0-3.306.545c-.7.164-1.555-1.908-1.088-2.567S290.905,768.209,291.683,768.428Z" transform="translate(7775.513 180.646)" fill="#fff" stroke="#411906" stroke-linecap="round" stroke-linejoin="round" stroke-width="1"/>
      <path id="Trazado_12185" data-name="Trazado 12185" d="M298.128,768.706c.681.2,1.012,1.166,1.012,1.166s.563,1.007,0,1.128a9.358,9.358,0,0,1-2.937.4c-.613-.131-1.05-1.524-.64-2.113A2.936,2.936,0,0,1,298.128,768.706Z" transform="translate(7775.407 180.642)" fill="#fff" stroke="#411906" stroke-linecap="round" stroke-linejoin="round" stroke-width="1"/>
      <path id="Trazado_12186" data-name="Trazado 12186" d="M304.319,768.586a1.867,1.867,0,0,1,1.089.765.689.689,0,0,1-.013.9,4.112,4.112,0,0,1-2.721.768c-.621-.081-.9-.979-.542-1.6A2.349,2.349,0,0,1,304.319,768.586Z" transform="translate(7775.308 180.643)" fill="#fff" stroke="#411906" stroke-linecap="round" stroke-linejoin="round" stroke-width="1"/>
      <path id="Trazado_12187" data-name="Trazado 12187" d="M309.894,766.726a1.74,1.74,0,0,1,1.065.64s.573.666.073.861a9.463,9.463,0,0,1-2.41.956c-.575-.026-.913-.858-.643-1.478A2.091,2.091,0,0,1,309.894,766.726Z" transform="translate(7775.219 180.67)" fill="#fff" stroke="#411906" stroke-linecap="round" stroke-linejoin="round" stroke-width="1"/>
      <path id="Trazado_12188" data-name="Trazado 12188" d="M278.484,769.35c-1.714.215-2.528.738-3.172.065-.388-.406-2.011-2.461.216-3.721a7.172,7.172,0,0,1,5.561-.427,4.66,4.66,0,0,1,2.2,2.229c.484.977.305,1.578-.1,1.7C282.061,769.525,281.595,768.961,278.484,769.35Z" transform="translate(7775.723 180.698)" fill="#fff" stroke="#411906" stroke-linecap="round" stroke-linejoin="round" stroke-width="1.175"/>
      <path id="Trazado_12204" data-name="Trazado 12204" d="M334.871,343.9c-1.82-5.461-3.19-7.273-3.19-7.273s-15.1,3.546-32.227,5.661c-11.263,1.39-25.97,1.542-32.957,1.525v-.033s-.733.013-2.015.023c-1.282-.01-2.015-.023-2.015-.023v.033c-6.987.018-21.694-.135-32.957-1.525-17.128-2.116-32.227-5.661-32.227-5.661s-1.37,1.812-3.19,7.273a24.341,24.341,0,0,0-.953,4.508s5.524.872,15.035,5.385a114.476,114.476,0,0,1,29.065,19.977c4.937,4.646,9.468,8.719,18.31,23.115,2.443,3.976,4.452,11.56,4.452,11.56s1.194.746,4.843.663,4.491-.858,4.491-.858,1.849-6.929,4.29-10.905c8.843-14.4,13.166-18.929,18.1-23.575a114.476,114.476,0,0,1,29.065-19.977c9.512-4.513,15.035-5.385,15.035-5.385A24.345,24.345,0,0,0,334.871,343.9Z" transform="translate(7776.947 187.147)" fill="#3b1f10"/>
    </g>
    <path id="Trazado_13426" data-name="Trazado 13426" d="M0,0H958V4H0Z" transform="translate(91 6869)" fill="#fed97b"/>
    <path id="Trazado_12262" data-name="Trazado 12262" d="M6494.047,5575v284.047" transform="translate(-6213 1296)" fill="none" stroke="#ed3a3a" stroke-width="3" stroke-dasharray="3"/>
    <path id="Trazado_12263" data-name="Trazado 12263" d="M6297,5844.193h249.719" transform="translate(-6167 1314)" fill="none" stroke="#ed3a3a" stroke-width="3"/>
    <path id="Trazado_12264" data-name="Trazado 12264" d="M6674.557,5577v465.495" transform="translate(-6044 1296)" fill="none" stroke="#ed3a3a" stroke-width="3" stroke-dasharray="3"/>
    <path id="Trazado_12265" data-name="Trazado 12265" d="M6640.859,5695.448H6921.11" transform="translate(-6221.708 1296)" fill="none" stroke="#ed3a3a" stroke-width="3"/>
    <g id="Grupo_7727" data-name="Grupo 7727" transform="translate(22 3370)">
      <circle id="Elipse_496" data-name="Elipse 496" cx="15" cy="15" r="15" transform="translate(244 3669)" fill="#00a99a"/>
      <text id="_1" data-name="1" transform="translate(259 3691)" fill="#fff" font-size="20" font-family="OpenSans-Bold, Open Sans" font-weight="700"><tspan x="-5.708" y="0">1</tspan></text>
    </g>
    <g id="Grupo_7728" data-name="Grupo 7728" transform="translate(372 3409)">
      <circle id="Elipse_496-2" data-name="Elipse 496" cx="15" cy="15" r="15" transform="translate(244 3669)" fill="#00a99a"/>
      <text id="_2" data-name="2" transform="translate(259 3691)" fill="#fff" font-size="20" font-family="OpenSans-Bold, Open Sans" font-weight="700"><tspan x="-5.708" y="0">2</tspan></text>
    </g>
    <path id="Trazado_12266" data-name="Trazado 12266" d="M6640.859,5695.448H6921.11" transform="translate(-6221.708 1177)" fill="none" stroke="#ed3a3a" stroke-width="3"/>
    <path id="Trazado_12267" data-name="Trazado 12267" d="M6675,5577v113.995" transform="translate(-6167 1296)" fill="none" stroke="#ed3a3a" stroke-width="3" stroke-dasharray="3"/>
    <g id="Grupo_7729" data-name="Grupo 7729" transform="translate(249 3307)">
      <circle id="Elipse_496-3" data-name="Elipse 496" cx="15" cy="15" r="15" transform="translate(244 3669)" fill="#00a99a"/>
      <text id="_3" data-name="3" transform="translate(259 3691)" fill="#fff" font-size="20" font-family="OpenSans-Bold, Open Sans" font-weight="700"><tspan x="-5.708" y="0">3</tspan></text>
    </g>
    <path id="Trazado_13427" data-name="Trazado 13427" d="M2.159,0V-15.705H3.985V-1.654h6.929V0ZM20.55,0,20.2-1.676h-.086a4.954,4.954,0,0,1-1.756,1.5,5.353,5.353,0,0,1-2.186.392,3.932,3.932,0,0,1-2.745-.9,3.291,3.291,0,0,1-.994-2.567q0-3.566,5.7-3.738l2-.064v-.73a2.985,2.985,0,0,0-.6-2.046,2.452,2.452,0,0,0-1.907-.661,7.769,7.769,0,0,0-3.33.9l-.548-1.364a8.379,8.379,0,0,1,1.907-.741,8.258,8.258,0,0,1,2.079-.269,4.485,4.485,0,0,1,3.121.935,3.9,3.9,0,0,1,1.015,3V0ZM16.521-1.257a3.619,3.619,0,0,0,2.616-.913,3.378,3.378,0,0,0,.951-2.557V-5.79L18.3-5.715a6.486,6.486,0,0,0-3.067.661,1.992,1.992,0,0,0-.94,1.821,1.837,1.837,0,0,0,.585,1.472A2.43,2.43,0,0,0,16.521-1.257ZM30.916-11.988a6.978,6.978,0,0,1,1.407.129l-.247,1.654a6.074,6.074,0,0,0-1.289-.161,3.138,3.138,0,0,0-2.444,1.16,4.23,4.23,0,0,0-1.015,2.89V0H25.545V-11.773h1.472l.2,2.181h.086a5.175,5.175,0,0,1,1.579-1.772A3.555,3.555,0,0,1,30.916-11.988Zm13.245.215v1.128l-2.181.258a3.748,3.748,0,0,1,.537.983,3.75,3.75,0,0,1,.236,1.37,3.48,3.48,0,0,1-1.182,2.761,4.767,4.767,0,0,1-3.244,1.031,5.4,5.4,0,0,1-.988-.086A1.755,1.755,0,0,0,36.2-2.814a.769.769,0,0,0,.4.714,2.9,2.9,0,0,0,1.364.231h2.084a4.667,4.667,0,0,1,2.938.806,2.8,2.8,0,0,1,1.026,2.342,3.343,3.343,0,0,1-1.568,2.981,8.394,8.394,0,0,1-4.576,1.026,6.252,6.252,0,0,1-3.561-.859A2.775,2.775,0,0,1,33.054,2,2.727,2.727,0,0,1,33.741.14,3.5,3.5,0,0,1,35.675-.924a1.865,1.865,0,0,1-.757-.634,1.677,1.677,0,0,1-.306-1,1.9,1.9,0,0,1,.344-1.128,3.614,3.614,0,0,1,1.085-.935A3.18,3.18,0,0,1,34.552-5.9a3.756,3.756,0,0,1-.575-2.062,3.81,3.81,0,0,1,1.16-2.981,4.737,4.737,0,0,1,3.287-1.047,5.977,5.977,0,0,1,1.665.215ZM34.772,1.977a1.6,1.6,0,0,0,.806,1.45,4.447,4.447,0,0,0,2.31.494,6.445,6.445,0,0,0,3.325-.671,2.056,2.056,0,0,0,1.08-1.821A1.441,1.441,0,0,0,41.7.1a4.589,4.589,0,0,0-2.224-.371H37.34a2.816,2.816,0,0,0-1.891.58A2.073,2.073,0,0,0,34.772,1.977ZM35.739-8a2.4,2.4,0,0,0,.7,1.869,2.788,2.788,0,0,0,1.944.634q2.61,0,2.61-2.535a2.34,2.34,0,0,0-2.643-2.653,2.616,2.616,0,0,0-1.934.677A2.725,2.725,0,0,0,35.739-8Zm21,2.105a6.5,6.5,0,0,1-1.45,4.5A5.107,5.107,0,0,1,51.283.215a5.307,5.307,0,0,1-2.8-.741,4.892,4.892,0,0,1-1.891-2.127A7.413,7.413,0,0,1,45.923-5.9a6.485,6.485,0,0,1,1.439-4.485,5.091,5.091,0,0,1,4-1.606,4.981,4.981,0,0,1,3.926,1.644A6.467,6.467,0,0,1,56.74-5.9Zm-8.97,0a5.588,5.588,0,0,0,.9,3.438,3.132,3.132,0,0,0,2.653,1.182,3.153,3.153,0,0,0,2.659-1.176A5.56,5.56,0,0,0,54.893-5.9a5.47,5.47,0,0,0-.908-3.411,3.189,3.189,0,0,0-2.68-1.166,3.139,3.139,0,0,0-2.643,1.149A5.532,5.532,0,0,0,47.771-5.9ZM73.595-1.579h-.1A4.19,4.19,0,0,1,69.8.215a4.371,4.371,0,0,1-3.593-1.579,6.951,6.951,0,0,1-1.284-4.49,7.068,7.068,0,0,1,1.289-4.522A4.338,4.338,0,0,1,69.8-11.988a4.281,4.281,0,0,1,3.674,1.74h.14l-.075-.849-.043-.827v-4.791h1.783V0h-1.45Zm-3.566.3a3.247,3.247,0,0,0,2.648-.994A5.021,5.021,0,0,0,73.5-5.479v-.376a5.908,5.908,0,0,0-.833-3.572A3.161,3.161,0,0,0,70.007-10.5a2.729,2.729,0,0,0-2.4,1.219,6.062,6.062,0,0,0-.833,3.443A5.812,5.812,0,0,0,67.6-2.428,2.8,2.8,0,0,0,70.028-1.278ZM84.036.215a5.409,5.409,0,0,1-4.12-1.59A6.155,6.155,0,0,1,78.407-5.79a6.826,6.826,0,0,1,1.4-4.522,4.657,4.657,0,0,1,3.765-1.676,4.44,4.44,0,0,1,3.5,1.456,5.579,5.579,0,0,1,1.289,3.84v1.128h-8.11A4.667,4.667,0,0,0,81.3-2.417a3.622,3.622,0,0,0,2.8,1.074,9.483,9.483,0,0,0,3.76-.795v1.59a9.437,9.437,0,0,1-1.789.585A10.051,10.051,0,0,1,84.036.215ZM83.553-10.5a2.912,2.912,0,0,0-2.261.924A4.258,4.258,0,0,0,80.3-7.015h6.155A3.921,3.921,0,0,0,85.7-9.6,2.647,2.647,0,0,0,83.553-10.5ZM98.9,0H97.12V-16.715H98.9Zm11.021,0-.354-1.676h-.086a4.954,4.954,0,0,1-1.756,1.5,5.353,5.353,0,0,1-2.186.392,3.932,3.932,0,0,1-2.745-.9,3.291,3.291,0,0,1-.994-2.567q0-3.566,5.7-3.738l2-.064v-.73a2.985,2.985,0,0,0-.6-2.046A2.452,2.452,0,0,0,107-10.5a7.769,7.769,0,0,0-3.33.9l-.548-1.364a8.379,8.379,0,0,1,1.907-.741,8.258,8.258,0,0,1,2.079-.269,4.485,4.485,0,0,1,3.121.935,3.9,3.9,0,0,1,1.015,3V0ZM105.9-1.257a3.619,3.619,0,0,0,2.616-.913,3.378,3.378,0,0,0,.951-2.557V-5.79l-1.783.075a6.486,6.486,0,0,0-3.067.661,1.992,1.992,0,0,0-.94,1.821,1.837,1.837,0,0,0,.585,1.472A2.43,2.43,0,0,0,105.9-1.257Zm20.045-9.131h-3V0h-1.783V-10.388h-2.105v-.806l2.105-.645v-.655q0-4.34,3.792-4.34a7.8,7.8,0,0,1,2.191.376l-.462,1.429a5.9,5.9,0,0,0-1.762-.333,1.716,1.716,0,0,0-1.493.671,3.747,3.747,0,0,0-.483,2.154v.763h3ZM135.33,0l-.354-1.676h-.086a4.954,4.954,0,0,1-1.756,1.5,5.353,5.353,0,0,1-2.186.392,3.932,3.932,0,0,1-2.745-.9,3.291,3.291,0,0,1-.994-2.567q0-3.566,5.7-3.738l2-.064v-.73a2.985,2.985,0,0,0-.6-2.046,2.452,2.452,0,0,0-1.907-.661,7.769,7.769,0,0,0-3.33.9l-.548-1.364a8.379,8.379,0,0,1,1.907-.741,8.258,8.258,0,0,1,2.079-.269,4.485,4.485,0,0,1,3.121.935,3.9,3.9,0,0,1,1.015,3V0ZM131.3-1.257a3.619,3.619,0,0,0,2.616-.913,3.378,3.378,0,0,0,.951-2.557V-5.79l-1.783.075a6.486,6.486,0,0,0-3.067.661,1.992,1.992,0,0,0-.94,1.821,1.837,1.837,0,0,0,.585,1.472A2.43,2.43,0,0,0,131.3-1.257ZM142.108,0h-1.783V-16.715h1.783ZM153.9-1.579h-.1a4.19,4.19,0,0,1-3.7,1.794,4.371,4.371,0,0,1-3.593-1.579,6.951,6.951,0,0,1-1.284-4.49,7.068,7.068,0,0,1,1.289-4.522,4.338,4.338,0,0,1,3.588-1.611,4.281,4.281,0,0,1,3.674,1.74h.14l-.075-.849-.043-.827v-4.791h1.783V0h-1.45Zm-3.566.3a3.247,3.247,0,0,0,2.648-.994,5.021,5.021,0,0,0,.822-3.207v-.376a5.908,5.908,0,0,0-.833-3.572,3.161,3.161,0,0,0-2.659-1.069,2.729,2.729,0,0,0-2.4,1.219,6.063,6.063,0,0,0-.833,3.443,5.812,5.812,0,0,0,.827,3.405A2.8,2.8,0,0,0,150.337-1.278ZM166.611,0l-.354-1.676h-.086a4.954,4.954,0,0,1-1.756,1.5,5.353,5.353,0,0,1-2.186.392,3.932,3.932,0,0,1-2.745-.9,3.291,3.291,0,0,1-.994-2.567q0-3.566,5.7-3.738l2-.064v-.73a2.985,2.985,0,0,0-.6-2.046,2.452,2.452,0,0,0-1.907-.661,7.769,7.769,0,0,0-3.33.9l-.548-1.364a8.379,8.379,0,0,1,1.907-.741,8.258,8.258,0,0,1,2.079-.269,4.485,4.485,0,0,1,3.121.935,3.9,3.9,0,0,1,1.015,3V0Zm-4.028-1.257A3.619,3.619,0,0,0,165.2-2.17a3.378,3.378,0,0,0,.951-2.557V-5.79l-1.783.075a6.486,6.486,0,0,0-3.067.661,1.992,1.992,0,0,0-.94,1.821,1.837,1.837,0,0,0,.585,1.472A2.43,2.43,0,0,0,162.583-1.257Z" transform="translate(780 7059)" fill="#00223d"/>
    <g id="Grupo_7730" data-name="Grupo 7730" transform="translate(476 3366)">
      <circle id="Elipse_496-4" data-name="Elipse 496" cx="15" cy="15" r="15" transform="translate(244 3669)" fill="#00a99a"/>
      <text id="_1-2" data-name="1" transform="translate(259 3691)" fill="#fff" font-size="20" font-family="OpenSans-Bold, Open Sans" font-weight="700"><tspan x="-5.708" y="0">1</tspan></text>
    </g>
    <path id="Trazado_13428" data-name="Trazado 13428" d="M2.159,0V-15.705H3.985V-1.654h6.929V0ZM20.55,0,20.2-1.676h-.086a4.954,4.954,0,0,1-1.756,1.5,5.353,5.353,0,0,1-2.186.392,3.932,3.932,0,0,1-2.745-.9,3.291,3.291,0,0,1-.994-2.567q0-3.566,5.7-3.738l2-.064v-.73a2.985,2.985,0,0,0-.6-2.046,2.452,2.452,0,0,0-1.907-.661,7.769,7.769,0,0,0-3.33.9l-.548-1.364a8.379,8.379,0,0,1,1.907-.741,8.258,8.258,0,0,1,2.079-.269,4.485,4.485,0,0,1,3.121.935,3.9,3.9,0,0,1,1.015,3V0ZM16.521-1.257a3.619,3.619,0,0,0,2.616-.913,3.378,3.378,0,0,0,.951-2.557V-5.79L18.3-5.715a6.486,6.486,0,0,0-3.067.661,1.992,1.992,0,0,0-.94,1.821,1.837,1.837,0,0,0,.585,1.472A2.43,2.43,0,0,0,16.521-1.257ZM30.916-11.988a6.978,6.978,0,0,1,1.407.129l-.247,1.654a6.074,6.074,0,0,0-1.289-.161,3.138,3.138,0,0,0-2.444,1.16,4.23,4.23,0,0,0-1.015,2.89V0H25.545V-11.773h1.472l.2,2.181h.086a5.175,5.175,0,0,1,1.579-1.772A3.555,3.555,0,0,1,30.916-11.988Zm13.245.215v1.128l-2.181.258a3.748,3.748,0,0,1,.537.983,3.75,3.75,0,0,1,.236,1.37,3.48,3.48,0,0,1-1.182,2.761,4.767,4.767,0,0,1-3.244,1.031,5.4,5.4,0,0,1-.988-.086A1.755,1.755,0,0,0,36.2-2.814a.769.769,0,0,0,.4.714,2.9,2.9,0,0,0,1.364.231h2.084a4.667,4.667,0,0,1,2.938.806,2.8,2.8,0,0,1,1.026,2.342,3.343,3.343,0,0,1-1.568,2.981,8.394,8.394,0,0,1-4.576,1.026,6.252,6.252,0,0,1-3.561-.859A2.775,2.775,0,0,1,33.054,2,2.727,2.727,0,0,1,33.741.14,3.5,3.5,0,0,1,35.675-.924a1.865,1.865,0,0,1-.757-.634,1.677,1.677,0,0,1-.306-1,1.9,1.9,0,0,1,.344-1.128,3.614,3.614,0,0,1,1.085-.935A3.18,3.18,0,0,1,34.552-5.9a3.756,3.756,0,0,1-.575-2.062,3.81,3.81,0,0,1,1.16-2.981,4.737,4.737,0,0,1,3.287-1.047,5.977,5.977,0,0,1,1.665.215ZM34.772,1.977a1.6,1.6,0,0,0,.806,1.45,4.447,4.447,0,0,0,2.31.494,6.445,6.445,0,0,0,3.325-.671,2.056,2.056,0,0,0,1.08-1.821A1.441,1.441,0,0,0,41.7.1a4.589,4.589,0,0,0-2.224-.371H37.34a2.816,2.816,0,0,0-1.891.58A2.073,2.073,0,0,0,34.772,1.977ZM35.739-8a2.4,2.4,0,0,0,.7,1.869,2.788,2.788,0,0,0,1.944.634q2.61,0,2.61-2.535a2.34,2.34,0,0,0-2.643-2.653,2.616,2.616,0,0,0-1.934.677A2.725,2.725,0,0,0,35.739-8Zm21,2.105a6.5,6.5,0,0,1-1.45,4.5A5.107,5.107,0,0,1,51.283.215a5.307,5.307,0,0,1-2.8-.741,4.892,4.892,0,0,1-1.891-2.127A7.413,7.413,0,0,1,45.923-5.9a6.485,6.485,0,0,1,1.439-4.485,5.091,5.091,0,0,1,4-1.606,4.981,4.981,0,0,1,3.926,1.644A6.467,6.467,0,0,1,56.74-5.9Zm-8.97,0a5.588,5.588,0,0,0,.9,3.438,3.132,3.132,0,0,0,2.653,1.182,3.153,3.153,0,0,0,2.659-1.176A5.56,5.56,0,0,0,54.893-5.9a5.47,5.47,0,0,0-.908-3.411,3.189,3.189,0,0,0-2.68-1.166,3.139,3.139,0,0,0-2.643,1.149A5.532,5.532,0,0,0,47.771-5.9ZM69.384-1.257a5.825,5.825,0,0,0,.913-.07,5.911,5.911,0,0,0,.7-.145V-.107a3.26,3.26,0,0,1-.854.231,6.413,6.413,0,0,1-1.015.091q-3.416,0-3.416-3.6v-7H64.023v-.859l1.687-.741.752-2.514h1.031v2.729h3.416v1.386H67.493v6.929A2.384,2.384,0,0,0,68-1.826,1.757,1.757,0,0,0,69.384-1.257ZM83.51-5.9a6.5,6.5,0,0,1-1.45,4.5A5.107,5.107,0,0,1,78.053.215a5.307,5.307,0,0,1-2.8-.741,4.892,4.892,0,0,1-1.891-2.127A7.413,7.413,0,0,1,72.692-5.9a6.485,6.485,0,0,1,1.439-4.485,5.091,5.091,0,0,1,4-1.606,4.981,4.981,0,0,1,3.926,1.644A6.467,6.467,0,0,1,83.51-5.9Zm-8.97,0a5.588,5.588,0,0,0,.9,3.438A3.132,3.132,0,0,0,78.1-1.278a3.153,3.153,0,0,0,2.659-1.176A5.56,5.56,0,0,0,81.662-5.9a5.47,5.47,0,0,0-.908-3.411,3.189,3.189,0,0,0-2.68-1.166,3.139,3.139,0,0,0-2.643,1.149A5.532,5.532,0,0,0,74.54-5.9Zm15.9,4.641a5.825,5.825,0,0,0,.913-.07,5.911,5.911,0,0,0,.7-.145V-.107A3.26,3.26,0,0,1,91.2.124a6.413,6.413,0,0,1-1.015.091q-3.416,0-3.416-3.6v-7H85.078v-.859l1.687-.741.752-2.514h1.031v2.729h3.416v1.386H88.548v6.929a2.384,2.384,0,0,0,.5,1.633A1.757,1.757,0,0,0,90.438-1.257ZM101.643,0l-.354-1.676H101.2a4.954,4.954,0,0,1-1.756,1.5A5.353,5.353,0,0,1,97.26.215a3.932,3.932,0,0,1-2.745-.9,3.291,3.291,0,0,1-.994-2.567q0-3.566,5.7-3.738l2-.064v-.73a2.985,2.985,0,0,0-.6-2.046,2.452,2.452,0,0,0-1.907-.661,7.769,7.769,0,0,0-3.33.9l-.548-1.364A8.379,8.379,0,0,1,96.75-11.7a8.258,8.258,0,0,1,2.079-.269,4.485,4.485,0,0,1,3.121.935,3.9,3.9,0,0,1,1.015,3V0ZM97.614-1.257a3.619,3.619,0,0,0,2.616-.913,3.378,3.378,0,0,0,.951-2.557V-5.79L99.4-5.715a6.486,6.486,0,0,0-3.067.661,1.992,1.992,0,0,0-.94,1.821,1.837,1.837,0,0,0,.585,1.472A2.43,2.43,0,0,0,97.614-1.257ZM108.421,0h-1.783V-16.715h1.783Zm17.51-1.579h-.1a4.19,4.19,0,0,1-3.7,1.794,4.371,4.371,0,0,1-3.593-1.579,6.951,6.951,0,0,1-1.284-4.49,7.068,7.068,0,0,1,1.289-4.522,4.338,4.338,0,0,1,3.588-1.611,4.281,4.281,0,0,1,3.674,1.74h.14l-.075-.849-.043-.827v-4.791h1.783V0h-1.45Zm-3.566.3a3.247,3.247,0,0,0,2.648-.994,5.021,5.021,0,0,0,.822-3.207v-.376A5.908,5.908,0,0,0,125-9.426a3.161,3.161,0,0,0-2.659-1.069,2.729,2.729,0,0,0-2.4,1.219,6.062,6.062,0,0,0-.833,3.443,5.812,5.812,0,0,0,.827,3.405A2.8,2.8,0,0,0,122.364-1.278ZM136.372.215a5.409,5.409,0,0,1-4.12-1.59,6.155,6.155,0,0,1-1.509-4.415,6.826,6.826,0,0,1,1.4-4.522,4.657,4.657,0,0,1,3.765-1.676,4.44,4.44,0,0,1,3.5,1.456,5.579,5.579,0,0,1,1.289,3.84v1.128h-8.11a4.667,4.667,0,0,0,1.047,3.147,3.622,3.622,0,0,0,2.8,1.074,9.483,9.483,0,0,0,3.76-.795v1.59a9.436,9.436,0,0,1-1.789.585A10.051,10.051,0,0,1,136.372.215Zm-.483-10.71a2.912,2.912,0,0,0-2.261.924,4.258,4.258,0,0,0-.994,2.557h6.155a3.921,3.921,0,0,0-.752-2.583A2.647,2.647,0,0,0,135.889-10.5ZM145.524,0h-1.783V-16.715h1.783ZM160.5.215a5.1,5.1,0,0,1-2.1-.424,3.949,3.949,0,0,1-1.6-1.305h-.129A15.792,15.792,0,0,1,156.8.44V5.285h-1.783V-11.773h1.45l.247,1.611h.086a4.141,4.141,0,0,1,1.6-1.4,4.866,4.866,0,0,1,2.095-.43,4.351,4.351,0,0,1,3.615,1.6,7.047,7.047,0,0,1,1.273,4.49,7.005,7.005,0,0,1-1.294,4.506A4.359,4.359,0,0,1,160.5.215Zm-.258-10.688a3.16,3.16,0,0,0-2.61,1,5.141,5.141,0,0,0-.827,3.18v.4a5.892,5.892,0,0,0,.827,3.55,3.146,3.146,0,0,0,2.653,1.069,2.759,2.759,0,0,0,2.39-1.235,5.858,5.858,0,0,0,.865-3.405,5.638,5.638,0,0,0-.865-3.378A2.844,2.844,0,0,0,160.241-10.474ZM175.742,0l-.354-1.676H175.3a4.954,4.954,0,0,1-1.756,1.5,5.353,5.353,0,0,1-2.186.392,3.932,3.932,0,0,1-2.745-.9,3.291,3.291,0,0,1-.994-2.567q0-3.566,5.7-3.738l2-.064v-.73a2.985,2.985,0,0,0-.6-2.046,2.452,2.452,0,0,0-1.907-.661,7.769,7.769,0,0,0-3.33.9l-.548-1.364a8.379,8.379,0,0,1,1.907-.741,8.258,8.258,0,0,1,2.079-.269,4.485,4.485,0,0,1,3.121.935,3.9,3.9,0,0,1,1.015,3V0Zm-4.028-1.257a3.619,3.619,0,0,0,2.616-.913,3.378,3.378,0,0,0,.951-2.557V-5.79l-1.783.075a6.486,6.486,0,0,0-3.067.661,1.992,1.992,0,0,0-.94,1.821,1.837,1.837,0,0,0,.585,1.472A2.43,2.43,0,0,0,171.714-1.257ZM188.794,0V-7.616a3.073,3.073,0,0,0-.655-2.148,2.669,2.669,0,0,0-2.052-.709,3.384,3.384,0,0,0-2.707,1,5.044,5.044,0,0,0-.859,3.3V0h-1.783V-11.773h1.45l.29,1.611h.086A3.641,3.641,0,0,1,184.1-11.51a4.991,4.991,0,0,1,2.2-.478,4.472,4.472,0,0,1,3.2,1.026,4.366,4.366,0,0,1,1.074,3.282V0Zm9.249-1.257a5.825,5.825,0,0,0,.913-.07,5.91,5.91,0,0,0,.7-.145V-.107a3.26,3.26,0,0,1-.854.231,6.413,6.413,0,0,1-1.015.091q-3.416,0-3.416-3.6v-7h-1.687v-.859l1.687-.741.752-2.514h1.031v2.729h3.416v1.386h-3.416v6.929a2.384,2.384,0,0,0,.5,1.633A1.757,1.757,0,0,0,198.043-1.257ZM209.247,0l-.354-1.676h-.086a4.954,4.954,0,0,1-1.756,1.5,5.353,5.353,0,0,1-2.186.392,3.932,3.932,0,0,1-2.745-.9,3.291,3.291,0,0,1-.994-2.567q0-3.566,5.7-3.738l2-.064v-.73a2.985,2.985,0,0,0-.6-2.046,2.452,2.452,0,0,0-1.907-.661,7.769,7.769,0,0,0-3.33.9l-.548-1.364a8.379,8.379,0,0,1,1.907-.741,8.258,8.258,0,0,1,2.079-.269,4.485,4.485,0,0,1,3.121.935,3.9,3.9,0,0,1,1.015,3V0Zm-4.028-1.257a3.619,3.619,0,0,0,2.616-.913,3.378,3.378,0,0,0,.951-2.557V-5.79L207-5.715a6.486,6.486,0,0,0-3.067.661A1.992,1.992,0,0,0,203-3.233a1.837,1.837,0,0,0,.585,1.472A2.43,2.43,0,0,0,205.219-1.257ZM216.025,0h-1.783V-16.715h1.783Zm13.943-5.9a6.5,6.5,0,0,1-1.45,4.5A5.107,5.107,0,0,1,224.512.215a5.307,5.307,0,0,1-2.8-.741,4.892,4.892,0,0,1-1.891-2.127,7.413,7.413,0,0,1-.666-3.244,6.485,6.485,0,0,1,1.439-4.485,5.091,5.091,0,0,1,4-1.606,4.981,4.981,0,0,1,3.926,1.644A6.467,6.467,0,0,1,229.969-5.9ZM221-5.9a5.588,5.588,0,0,0,.9,3.438,3.132,3.132,0,0,0,2.653,1.182,3.153,3.153,0,0,0,2.659-1.176,5.56,5.56,0,0,0,.908-3.443,5.47,5.47,0,0,0-.908-3.411,3.189,3.189,0,0,0-2.68-1.166,3.139,3.139,0,0,0-2.643,1.149A5.532,5.532,0,0,0,221-5.9Zm2.063-7.7q.516-.666,1.112-1.611a18.442,18.442,0,0,0,.94-1.644h2.17v.226a15.88,15.88,0,0,1-1.407,1.719,15.977,15.977,0,0,1-1.622,1.579h-1.192ZM241.151,0V-7.616a3.073,3.073,0,0,0-.655-2.148,2.669,2.669,0,0,0-2.052-.709,3.384,3.384,0,0,0-2.707,1,5.044,5.044,0,0,0-.859,3.3V0h-1.783V-11.773h1.45l.29,1.611h.086a3.641,3.641,0,0,1,1.536-1.348,4.991,4.991,0,0,1,2.2-.478,4.472,4.472,0,0,1,3.2,1.026,4.366,4.366,0,0,1,1.074,3.282V0Z" transform="translate(780 7102)" fill="#00223d"/>
    <g id="Grupo_7731" data-name="Grupo 7731" transform="translate(476 3409)">
      <circle id="Elipse_496-5" data-name="Elipse 496" cx="15" cy="15" r="15" transform="translate(244 3669)" fill="#00a99a"/>
      <text id="_2-2" data-name="2" transform="translate(259 3691)" fill="#fff" font-size="20" font-family="OpenSans-Bold, Open Sans" font-weight="700"><tspan x="-5.708" y="0">2</tspan></text>
    </g>
    <path id="Trazado_13429" data-name="Trazado 13429" d="M12.031,0,10.076-5H3.781L1.848,0H0L6.209-15.77H7.745L13.922,0ZM9.507-6.639,7.681-11.5q-.354-.924-.73-2.267A20.354,20.354,0,0,1,6.273-11.5L4.426-6.639ZM17.6,0H15.813V-16.715H17.6ZM25.18-1.257a5.825,5.825,0,0,0,.913-.07,5.91,5.91,0,0,0,.7-.145V-.107a3.26,3.26,0,0,1-.854.231,6.413,6.413,0,0,1-1.015.091q-3.416,0-3.416-3.6v-7H19.819v-.859l1.687-.741.752-2.514h1.031v2.729h3.416v1.386H23.289v6.929a2.384,2.384,0,0,0,.5,1.633A1.757,1.757,0,0,0,25.18-1.257Zm5.64-10.517v7.638a3.073,3.073,0,0,0,.655,2.148,2.669,2.669,0,0,0,2.052.709,3.348,3.348,0,0,0,2.7-1.01,5.094,5.094,0,0,0,.854-3.3v-6.187h1.783V0H37.394l-.258-1.579h-.1a3.554,3.554,0,0,1-1.52,1.332A5.109,5.109,0,0,1,33.3.215,4.5,4.5,0,0,1,30.083-.806a4.344,4.344,0,0,1-1.069-3.266v-7.7Zm17.2-.215a6.978,6.978,0,0,1,1.407.129l-.247,1.654a6.074,6.074,0,0,0-1.289-.161,3.138,3.138,0,0,0-2.444,1.16,4.23,4.23,0,0,0-1.015,2.89V0H42.646V-11.773h1.472l.2,2.181h.086a5.175,5.175,0,0,1,1.579-1.772A3.555,3.555,0,0,1,48.018-11.988ZM58.867,0l-.354-1.676h-.086a4.954,4.954,0,0,1-1.756,1.5,5.353,5.353,0,0,1-2.186.392,3.932,3.932,0,0,1-2.745-.9,3.291,3.291,0,0,1-.994-2.567q0-3.566,5.7-3.738l2-.064v-.73a2.985,2.985,0,0,0-.6-2.046,2.452,2.452,0,0,0-1.907-.661,7.769,7.769,0,0,0-3.33.9l-.548-1.364a8.379,8.379,0,0,1,1.907-.741,8.258,8.258,0,0,1,2.079-.269,4.485,4.485,0,0,1,3.121.935,3.9,3.9,0,0,1,1.015,3V0ZM54.839-1.257a3.619,3.619,0,0,0,2.616-.913,3.378,3.378,0,0,0,.951-2.557V-5.79l-1.783.075a6.486,6.486,0,0,0-3.067.661,1.992,1.992,0,0,0-.94,1.821A1.837,1.837,0,0,0,53.2-1.762,2.43,2.43,0,0,0,54.839-1.257Zm22.752-.322h-.1A4.19,4.19,0,0,1,73.8.215a4.371,4.371,0,0,1-3.593-1.579,6.951,6.951,0,0,1-1.284-4.49,7.068,7.068,0,0,1,1.289-4.522A4.338,4.338,0,0,1,73.8-11.988a4.281,4.281,0,0,1,3.674,1.74h.14l-.075-.849-.043-.827v-4.791h1.783V0h-1.45Zm-3.566.3a3.247,3.247,0,0,0,2.648-.994,5.021,5.021,0,0,0,.822-3.207v-.376a5.908,5.908,0,0,0-.833-3.572A3.161,3.161,0,0,0,74-10.5a2.729,2.729,0,0,0-2.4,1.219,6.062,6.062,0,0,0-.833,3.443A5.812,5.812,0,0,0,71.6-2.428,2.8,2.8,0,0,0,74.024-1.278ZM88.032.215a5.409,5.409,0,0,1-4.12-1.59A6.155,6.155,0,0,1,82.4-5.79a6.826,6.826,0,0,1,1.4-4.522,4.657,4.657,0,0,1,3.765-1.676,4.44,4.44,0,0,1,3.5,1.456,5.579,5.579,0,0,1,1.289,3.84v1.128h-8.11A4.667,4.667,0,0,0,85.3-2.417a3.622,3.622,0,0,0,2.8,1.074,9.483,9.483,0,0,0,3.76-.795v1.59a9.437,9.437,0,0,1-1.789.585A10.051,10.051,0,0,1,88.032.215ZM87.549-10.5a2.912,2.912,0,0,0-2.261.924,4.258,4.258,0,0,0-.994,2.557h6.155A3.921,3.921,0,0,0,89.7-9.6,2.647,2.647,0,0,0,87.549-10.5ZM97.185,0H95.4V-16.715h1.783Zm13.3-1.257a5.825,5.825,0,0,0,.913-.07,5.911,5.911,0,0,0,.7-.145V-.107a3.26,3.26,0,0,1-.854.231,6.413,6.413,0,0,1-1.015.091q-3.416,0-3.416-3.6v-7h-1.687v-.859l1.687-.741.752-2.514h1.031v2.729h3.416v1.386h-3.416v6.929a2.384,2.384,0,0,0,.5,1.633A1.757,1.757,0,0,0,110.483-1.257ZM116.23,0h-1.783V-11.773h1.783ZM114.3-14.964a1.184,1.184,0,0,1,.3-.9,1.051,1.051,0,0,1,.752-.285,1.051,1.051,0,0,1,.741.29,1.163,1.163,0,0,1,.312.892,1.181,1.181,0,0,1-.312.9,1.04,1.04,0,0,1-.741.3,1.03,1.03,0,0,1-.752-.3A1.206,1.206,0,0,1,114.3-14.964Zm11.086,2.976a6.978,6.978,0,0,1,1.407.129l-.247,1.654a6.074,6.074,0,0,0-1.289-.161,3.138,3.138,0,0,0-2.444,1.16,4.23,4.23,0,0,0-1.015,2.89V0h-1.783V-11.773h1.472l.2,2.181h.086a5.175,5.175,0,0,1,1.579-1.772A3.555,3.555,0,0,1,125.383-11.988ZM139.154-5.9a6.5,6.5,0,0,1-1.45,4.5A5.107,5.107,0,0,1,133.7.215a5.307,5.307,0,0,1-2.8-.741A4.892,4.892,0,0,1,129-2.653a7.413,7.413,0,0,1-.666-3.244,6.485,6.485,0,0,1,1.439-4.485,5.091,5.091,0,0,1,4-1.606,4.981,4.981,0,0,1,3.926,1.644A6.467,6.467,0,0,1,139.154-5.9Zm-8.97,0a5.588,5.588,0,0,0,.9,3.438,3.132,3.132,0,0,0,2.653,1.182A3.153,3.153,0,0,0,136.4-2.455a5.56,5.56,0,0,0,.908-3.443,5.47,5.47,0,0,0-.908-3.411,3.189,3.189,0,0,0-2.68-1.166,3.139,3.139,0,0,0-2.643,1.149A5.532,5.532,0,0,0,130.185-5.9Z" transform="translate(780 7145)" fill="#00223d"/>
    <g id="Grupo_7732" data-name="Grupo 7732" transform="translate(476 3452)">
      <circle id="Elipse_496-6" data-name="Elipse 496" cx="15" cy="15" r="15" transform="translate(244 3669)" fill="#00a99a"/>
      <text id="_3-2" data-name="3" transform="translate(259 3691)" fill="#fff" font-size="20" font-family="OpenSans-Bold, Open Sans" font-weight="700"><tspan x="-5.708" y="0">3</tspan></text>
    </g>
  </g>
</svg>
