<svg xmlns="http://www.w3.org/2000/svg" width="958" height="462" viewBox="0 0 958 462">
  <g id="Grupo_8373" data-name="Grupo 8373" transform="translate(-91 -3636)">
    <g id="Grupo_7709" data-name="Grupo 7709" transform="translate(-173 -152)">
      <path id="Trazado_11929" data-name="Trazado 11929" d="M318.022,158.146c-3.571-14.03-5.867-17.857-10.2-41.836-2.314-12.8-1.857-24.987-1.943-37.908-.134-20.178-.012-43.348-16.367-47.207-5.783-1.364-4.479-8.442-19.123-9.647-5.449-.449-12.386-.093-16.712,1.2-8.637,2.592-11.924,4.434-17.142,8.787-4.354,3.632-6.892,7.15-9.562,15.161-1.377,4.129-2.908,15.468-3.015,18.005-.191,4.546-1.856,36.542-5.08,58.462-1.346,9.154-4.66,29.841,1.8,35.764s17.889.611,21.6-2.382c8.256-6.668,8.67-16,7.862-23.536s-8.694-24.226-8.777-25.839c-.431-8.356-9.476-27.221-1.206-39.367,2.94-4.319,11.795-6.93,20.5-9.477,8.243-2.412,16.2-6.258,19.3-5.944,10.941.43,14.958,20.1,15.161,21.277.948,5.513-.151,7.633.6,10.768L285.2,105.52l.05,37.383c.838,6.978-3.942,14.126,14.016,21.11C304.117,165.9,321.069,170.117,318.022,158.146Z" transform="translate(271.605 3766.637)" fill="#3b1f10"/>
      <path id="Trazado_11962" data-name="Trazado 11962" d="M380.57,441.09a31.915,31.915,0,0,0-1.04,4.98,40.721,40.721,0,0,1-1.49,6.14,9.318,9.318,0,0,1-1.75,3.24c-.26.35-1.78,1.89-1.78,1.89-.95.89-2.02,1.81-2.76,2.41-1.33,1.07-4.21,3.45-5.5,4.39a42.717,42.717,0,0,1-5.09,3.31,2.83,2.83,0,0,1-3.12.08,2.493,2.493,0,0,1-.66-2.69,10.114,10.114,0,0,1,1.49-2.56c.29-.41.51-.68.51-.68s-.04-.21-.08-.49a11.77,11.77,0,0,1-.16-1.17,3.469,3.469,0,0,1,1.24-2.57,39.252,39.252,0,0,0,3.18-3.71l-.15-.47a.031.031,0,0,0,.02-.01,7.912,7.912,0,0,1-.46-.71,2.869,2.869,0,0,1,.27-2.61c.81-1.31,2.31-2.46,2.84-3.24a4.245,4.245,0,0,0,.37-2.23,9.447,9.447,0,0,1-.08-1.37c-.08-1.1-.25-3.48-.93-3.9-.25-.15-1.41-.91-2.27-1.49l-1.08.01c-.28,1.31-.91,4.33-1.27,6.32-.82,4.53-.97,9.58-2.6,12.66a4.067,4.067,0,0,1-1.76,1.87,3.651,3.651,0,0,1-1.7.32,3.807,3.807,0,0,1-2.25-.69,3.059,3.059,0,0,1-1.09-1.68c-.5-1.9.52-7.85.82-11.78.29-3.68.74-7.73.81-10.92a118.914,118.914,0,0,1,2.57-20.87c1.21-4.97,4.53-13.42,3.93-18.33-2.49-20.14-13.8-46.1-16.45-52.96-5.37-13.93-12.33-34.32-14.28-47.83-2.1-14.56-3.83-20.52-4.15-38.23-.05-2.85.16-9.85.28-13.42.03-.93.06-1.62.07-1.96.01-.14.01-.22.01-.22s-.08.2-.23.58c-.27.68-.76,1.94-1.38,3.66-3.5,9.67-11.2,33.92-7.9,51.75,3.15,16.99,11.34,25.42,18.24,40.73,1.17,2.6,2.31,5.39,3.37,8.46.23.67.46,1.37.69,2.11,5.28,17.14,8.91,52.82-.77,95.84-.56,2.51-3.55,15.84-7.17,32.2-.45,2.02-.9,4.05-1.37,6.07H268.36c-.53-25.11-.92-50.98-.53-57.09.43-6.8,1.26-12.21,1.63-14.44.12-.72.2-1.11.2-1.11a16.529,16.529,0,0,1-4.16.54c-3.26-.11-4.07-.49-4.16-.53.01.07.13.45.3,1.1a81.473,81.473,0,0,1,2.33,14.7c.78,12.29,1.57,20.16-.22,56.83H204.03c-1.49-6.76-2.96-12.65-4.27-16.82-16.98-53.48-12.54-99.18-6.2-118.47a.127.127,0,0,0,.01-.06q.15-.45.3-.87c1-2.89,2.06-5.53,3.16-8,6.95-15.61,15.26-24.03,18.44-41.19,3.08-16.61-3.85-39.48-7.83-50.65-.54-1.54-1.04-2.85-1.44-3.9-.68-1.77-1.1-2.77-1.1-2.77s-.05-.93-.08.89c-.01.55-.02,1.35-.02,2.51-.01.87-.01,1.94-.01,3.26,0,3.69-.2,7.07-.18,9.24.1,8.73-.85,23.19-1.66,31.92-.24,2.59-.47,4.68-.65,5.96-1.95,13.51-10.04,35.51-14.29,47.83-2.4,6.94-13.97,32.82-16.46,52.95-.61,4.91,2.72,13.37,3.92,18.33a118.09,118.09,0,0,1,2.57,20.87c.07,3.19.52,7.25.8,10.93.31,3.92,1.33,9.87.82,11.77a2.994,2.994,0,0,1-.9,1.53v.01a3.754,3.754,0,0,1-2.44.84,3.533,3.533,0,0,1-1.95-.46,4.285,4.285,0,0,1-1.5-1.74c-1.64-3.08-1.78-8.13-2.6-12.66-.32-1.77-.86-4.37-1.17-5.84-.14-.68-.24-1.12-.24-1.12s-.46.31-1.03.69c-.84.57-1.94,1.29-2.18,1.43a5.073,5.073,0,0,0-.71,2.2,16.5,16.5,0,0,0-.24,1.85,14.838,14.838,0,0,0-.01,2.5,2.179,2.179,0,0,0,.32.95c.53.78,2.03,1.94,2.84,3.24a2.862,2.862,0,0,1,.26,2.61,8.551,8.551,0,0,1-.7,1.05,44.276,44.276,0,0,0,3.29,3.85,3.548,3.548,0,0,1,1.25,2.58c-.02.41-.25,1.66-.25,1.66a14,14,0,0,1,2,3.24,2.486,2.486,0,0,1-.66,2.69,2.85,2.85,0,0,1-3.12-.09,42.717,42.717,0,0,1-5.09-3.31c-1.29-.94-4.17-3.31-5.5-4.39a34.165,34.165,0,0,1-4.53-4.3,9.133,9.133,0,0,1-1.76-3.25,41.917,41.917,0,0,1-1.48-6.13,32,32,0,0,0-1.05-4.98,20.566,20.566,0,0,1-1.3-7.76c.09-1.59,3.64-13.53,4.32-17.26s2.12-9.43,1.95-14.04-.3-11.22-.15-15.65c.04-1.34.4-5.71.88-11.27,1.11-12.82,2.88-31.98,3.1-35.12.32-4.5,1.79-20.35,2.3-25.14.9-8.3,3.61-17.34,6.38-22.6,4.02-7.63,6.06-13.52,6.56-19.85.24-3.14.1-13.45-.14-24.35-.24-11.06-.6-22.73-.76-28.08-.34-11.3-.19-24.2,1.19-32.43,1.46-8.8,5.66-15.81,12.87-19.21a66.732,66.732,0,0,1,15.03-4.47c4.9-.86,9.76-3.59,15.65-6.63,1.17-.6,2.39-1.22,3.65-1.84.21-.11.43-.21.64-.32,1.95-.94,4.02-1.87,6.23-2.76,9.5-3.81,12.47-9.44,13.4-12.61a10.326,10.326,0,0,0,.41-2.2c.01-.12.01-.19.01-.2s-.1-.75-.24-1.97c0,0-.84-7.65-1.15-11.79-.1-1.44-.8-10.81-.8-10.81h.97l1.14.01,16.88.07h1.34l3.42.02h1.74l2.37-.01,1.97-.01,14.64-.06,4.41-.02h.63s-.69,9.37-.8,10.81c-.3,4.14-1.14,11.79-1.14,11.79-.15,1.22-.24,1.97-.24,1.97,0,.14.05,9.49,13.81,15.01,6.43,2.58,11.62,5.56,16.29,7.89a37.238,37.238,0,0,0,9.88,3.66,66.671,66.671,0,0,1,15.04,4.47c7.21,3.4,11.41,10.41,12.87,19.21,1.37,8.23,1.53,21.13,1.19,32.43-.08,2.53-.2,6.49-.33,11.12,0,0-.63,37.69-.24,42.7.49,6.33,2.53,12.22,6.55,19.85,2.77,5.26,5.48,14.3,6.37,22.6.52,4.79,1.98,20.64,2.3,25.14.22,3.14,1.99,22.3,3.09,35.11.48,5.57.84,9.94.88,11.28.15,4.43.01,11.04-.16,15.65s1.27,10.31,1.95,14.04,4.23,15.67,4.32,17.26A20.417,20.417,0,0,1,380.57,441.09Z" transform="translate(271.605 3766.637)" fill="#fff" stroke="#3b1f10" stroke-linecap="round" stroke-linejoin="round" stroke-width="1.942"/>
      <path id="Trazado_11963" data-name="Trazado 11963" d="M267.063,314.452a4.743,4.743,0,0,1-2.49,1.141,2.1,2.1,0,0,1-2.1-1.725A5.515,5.515,0,0,0,265,314.7C265.753,314.646,267.063,314.452,267.063,314.452Z" transform="translate(271.605 3766.637)" fill="#3b1f10"/>
      <path id="Trazado_11964" data-name="Trazado 11964" d="M269.816,316.49a6.42,6.42,0,0,1-5.243,2.8,4.308,4.308,0,0,1-3.989-2.1,7.069,7.069,0,0,1-.667-1.417,10.9,10.9,0,0,0,3.094,2.043,6.944,6.944,0,0,0,2.561.029A28.408,28.408,0,0,0,269.816,316.49Z" transform="translate(271.605 3766.637)" fill="#3b1f10"/>
      <path id="Trazado_11965" data-name="Trazado 11965" d="M178.221,451.154c-.165-.345-.55-.647-1.367-.683a4.184,4.184,0,0,0-2.343.461c-.7.419-.776,1.445-.578,2.829a14.281,14.281,0,0,0,.89,3.767,2.876,2.876,0,0,0,2.495.381c.819-.232,1.489-.452,1.643-1.318A14.936,14.936,0,0,0,178.221,451.154Z" transform="translate(271.605 3766.637)" fill="#fff" stroke="#411906" stroke-linecap="round" stroke-linejoin="round" stroke-width="1"/>
      <path id="Trazado_11966" data-name="Trazado 11966" d="M353.048,452.14c.165-.345.55-.647,1.367-.682a4.175,4.175,0,0,1,2.343.46c.7.418.776,1.444.578,2.827a14.292,14.292,0,0,1-.889,3.767,2.864,2.864,0,0,1-2.495.382c-.82-.231-1.489-.45-1.644-1.318A14.946,14.946,0,0,1,353.048,452.14Z" transform="translate(271.605 3766.637)" fill="#fff" stroke="#411906" stroke-linecap="round" stroke-linejoin="round" stroke-width="1"/>
      <path id="Trazado_11967" data-name="Trazado 11967" d="M187.759,279.644a14.318,14.318,0,0,0-1.655,4.65c-.227,1.712-.294,3.424-.294,3.424a7.471,7.471,0,0,1-.05-4.877A9.412,9.412,0,0,1,187.759,279.644Z" transform="translate(271.605 3766.637)" fill="#3b1f10"/>
      <path id="Trazado_11968" data-name="Trazado 11968" d="M182.132,279.192a7.6,7.6,0,0,0-.893,2.469,15.28,15.28,0,0,0-.083,1.567,4.549,4.549,0,0,1-.334-2.17A2.6,2.6,0,0,1,182.132,279.192Z" transform="translate(271.605 3766.637)" fill="#3b1f10"/>
      <path id="Trazado_11969" data-name="Trazado 11969" d="M341.636,279.644a14.317,14.317,0,0,1,1.655,4.65c.228,1.712.294,3.424.294,3.424a7.471,7.471,0,0,0,.05-4.877A9.412,9.412,0,0,0,341.636,279.644Z" transform="translate(271.605 3766.637)" fill="#3b1f10"/>
      <path id="Trazado_11970" data-name="Trazado 11970" d="M347.263,279.192a7.6,7.6,0,0,1,.893,2.469,15.281,15.281,0,0,1,.083,1.567,4.544,4.544,0,0,0,.335-2.17A2.6,2.6,0,0,0,347.263,279.192Z" transform="translate(271.605 3766.637)" fill="#3b1f10"/>
      <path id="Trazado_11971" data-name="Trazado 11971" d="M195.778,197.459a49.878,49.878,0,0,0,1.275,5.5c.716,2.231,1.532,5.329,2.341,6.417,2.447,3.294,3.943,2.777,3.943,2.777l-.131,2.116a11.03,11.03,0,0,1-4.182-3.619,22.748,22.748,0,0,1-2.542-7.343C196.184,201.61,195.778,197.459,195.778,197.459Z" transform="translate(271.605 3766.637)" fill="#3b1f10"/>
      <path id="Trazado_11972" data-name="Trazado 11972" d="M255.55,229.6s-2.183,10.4-11.381,16.51a30.442,30.442,0,0,1-19.863,4.569c-5.1-.678-12.728-2.764-17.2-8.127-4.9-5.879-5.616-14.408-5.887-19.025a37.729,37.729,0,0,1,2.793-14.451,29.672,29.672,0,0,1,3-5.609,46.353,46.353,0,0,0-2.943,7.171A54.482,54.482,0,0,0,202.192,221a41.65,41.65,0,0,0,2.715,15.2,17.52,17.52,0,0,0,7.2,8.661,28.667,28.667,0,0,0,12.83,4.418,30.228,30.228,0,0,0,15.93-2.773,26.464,26.464,0,0,0,8.643-6.844A59.7,59.7,0,0,0,255.55,229.6Z" transform="translate(271.605 3766.637)" fill="#3b1f10"/>
      <path id="Trazado_11973" data-name="Trazado 11973" d="M216.671,221.2s-2.709,1.463-3.083,4.037c-.424,2.914.487,4.564,1.681,5.705s3.471,1.449,5.245,1.228a5.556,5.556,0,0,0,3.87-2.749,12.4,12.4,0,0,0,.727-2.973,9.331,9.331,0,0,1-1.508,2.943,4.957,4.957,0,0,1-3.788,1.772,5.866,5.866,0,0,1-3.572-.787c-2.17-1.6-1.86-4.327-1.757-5.044A7.534,7.534,0,0,1,216.671,221.2Z" transform="translate(271.605 3766.637)" fill="#3b1f10"/>
      <path id="Trazado_11974" data-name="Trazado 11974" d="M243.244,134.952s3.317,8.547,4,13.579-.676,3-1.34.007a57.392,57.392,0,0,0-3.518-10.5Z" transform="translate(271.605 3766.637)" fill="#3b1f10"/>
      <path id="Trazado_11975" data-name="Trazado 11975" d="M220.379,226.324a1.384,1.384,0,0,0-1.056-.966,1.219,1.219,0,0,0-1.434.679,1.791,1.791,0,0,1,1.259-.325A2.618,2.618,0,0,1,220.379,226.324Z" transform="translate(271.605 3766.637)" fill="#3b1f10"/>
      <path id="Trazado_11980" data-name="Trazado 11980" d="M219.978,226.885a1.931,1.931,0,0,1-1.031.274c-.5-.054-.8-.656-.8-.656s-.022.973.8,1.115a.7.7,0,0,0,.715-.22A1.772,1.772,0,0,0,219.978,226.885Z" transform="translate(271.605 3766.637)" fill="#3b1f10"/>
      <path id="Trazado_11981" data-name="Trazado 11981" d="M276.212,151.8a57.751,57.751,0,0,1-4.109,7.592s2.993-8.536,4.109-12.63,3.9-13.163,3.9-13.163S279.071,144.795,276.212,151.8Z" transform="translate(271.605 3766.637)" fill="#3b1f10"/>
      <path id="Trazado_11982" data-name="Trazado 11982" d="M218.11,165.134a80.754,80.754,0,0,1,11.284-.294c10.319.893,12.163,3.457,14.582,4.946s-4.343-2.021-11.656-3.077C227.682,166.039,218.11,165.134,218.11,165.134Z" transform="translate(271.605 3766.637)" fill="#3b1f10"/>
      <path id="Trazado_11983" data-name="Trazado 11983" d="M205.328,335.935s6.2,3.607,7.389,8.314c1.518,6.008.677-2.462-2.085-5.224A18.062,18.062,0,0,0,205.328,335.935Z" transform="translate(271.605 3766.637)" fill="#3b1f10"/>
      <path id="Trazado_11984" data-name="Trazado 11984" d="M260.017,170.017s2.233-3.847,5.693-3.614a4.1,4.1,0,0,1,3.592,1.833,3.256,3.256,0,0,1,.765,1.852s-3.487-2.426-5.16-2.22S260.017,170.017,260.017,170.017Z" transform="translate(271.605 3766.637)" fill="#3b1f10"/>
      <path id="Trazado_11985" data-name="Trazado 11985" d="M334.645,197.459a49.624,49.624,0,0,1-1.275,5.5c-.715,2.231-1.532,5.329-2.34,6.417-2.447,3.294-3.943,2.777-3.943,2.777l.131,2.116a11.03,11.03,0,0,0,4.182-3.619,22.8,22.8,0,0,0,2.542-7.343C334.24,201.61,334.645,197.459,334.645,197.459Z" transform="translate(271.605 3766.637)" fill="#3b1f10"/>
      <path id="Trazado_11986" data-name="Trazado 11986" d="M274.873,229.6s2.184,10.4,11.382,16.51a30.441,30.441,0,0,0,19.863,4.569c5.1-.678,12.728-2.764,17.2-8.127,4.9-5.879,5.616-14.408,5.887-19.025a37.748,37.748,0,0,0-2.793-14.451,29.673,29.673,0,0,0-3-5.609,46.353,46.353,0,0,1,2.943,7.171A54.481,54.481,0,0,1,328.232,221a41.65,41.65,0,0,1-2.715,15.2,18.3,18.3,0,0,1-7.393,8.823,32.148,32.148,0,0,1-12.763,4.117,28.58,28.58,0,0,1-15.642-2.68,26.594,26.594,0,0,1-8.8-6.8A59.747,59.747,0,0,1,274.873,229.6Z" transform="translate(271.605 3766.637)" fill="#3b1f10"/>
      <path id="Trazado_11987" data-name="Trazado 11987" d="M314.23,220.6s2.709,1.462,3.083,4.037c.424,2.913-.487,4.563-1.681,5.7s-3.471,1.45-5.245,1.229a5.557,5.557,0,0,1-3.87-2.75,12.4,12.4,0,0,1-.727-2.973,9.343,9.343,0,0,0,1.508,2.944,4.963,4.963,0,0,0,3.788,1.772,5.867,5.867,0,0,0,3.572-.788c2.17-1.6,1.86-4.326,1.757-5.043A7.529,7.529,0,0,0,314.23,220.6Z" transform="translate(271.605 3766.637)" fill="#3b1f10"/>
      <path id="Trazado_11988" data-name="Trazado 11988" d="M286.061,172.786s2.153-3.983,5.865-4.957a15.745,15.745,0,0,1,7.552.186s-3.9.317-5.361.608a13.659,13.659,0,0,0-4.709,1.782C288.487,171.161,286.061,172.786,286.061,172.786Z" transform="translate(271.605 3766.637)" fill="#3b1f10"/>
      <path id="Trazado_11989" data-name="Trazado 11989" d="M298.425,174.181a59.624,59.624,0,0,1,8.016-3.222,92.836,92.836,0,0,1,14.3-2.129,134.941,134.941,0,0,1-13.917,3.241C304.78,172.44,298.425,174.181,298.425,174.181Z" transform="translate(271.605 3766.637)" fill="#3b1f10"/>
      <path id="Trazado_11990" data-name="Trazado 11990" d="M287.552,134.353c-3,7.738-3.583,8.361-4.375,14.178-.687,5.033,2.021,13.934,2.021,13.934s-1.346-10.931-.681-13.927a57.434,57.434,0,0,1,3.517-10.5Z" transform="translate(271.605 3766.637)" fill="#3b1f10"/>
      <path id="Trazado_11991" data-name="Trazado 11991" d="M310.224,225.612a1.738,1.738,0,0,1,1.329-1.216,1.534,1.534,0,0,1,1.806.855,2.254,2.254,0,0,0-1.586-.409A3.28,3.28,0,0,0,310.224,225.612Z" transform="translate(271.605 3766.637)" fill="#3b1f10"/>
      <path id="Trazado_11992" data-name="Trazado 11992" d="M319.652,338.614a5.625,5.625,0,0,1,2.061-2.438,8.552,8.552,0,0,1,3.3-1.165,14.652,14.652,0,0,0-3.672,3.529c-.855,1.109-1.962,5.136-1.962,5.136A8.725,8.725,0,0,1,319.652,338.614Z" transform="translate(271.605 3766.637)" fill="#3b1f10"/>
      <path id="Trazado_11997" data-name="Trazado 11997" d="M310.65,226.075a2.616,2.616,0,0,0,1.4.371c.668-.073,1.078-.887,1.078-.887s.029,1.316-1.077,1.508a.949.949,0,0,1-.965-.3A2.392,2.392,0,0,1,310.65,226.075Z" transform="translate(271.605 3766.637)" fill="#3b1f10"/>
      <path id="Trazado_11998" data-name="Trazado 11998" d="M254.212,151.8a57.751,57.751,0,0,0,4.109,7.592s-2.993-8.536-4.109-12.63-3.9-13.163-3.9-13.163S251.352,144.795,254.212,151.8Z" transform="translate(271.605 3766.637)" fill="#3b1f10"/>
      <g id="Grupo_7706" data-name="Grupo 7706" transform="translate(271.605 3766.637)">
        <path id="Trazado_11999" data-name="Trazado 11999" d="M169.363,436.792s-.146-2.367-.3-3.376c-.13-.874-.232-2.834-.232-2.834s-.222,1.965-.274,3.425a4.79,4.79,0,0,1-1.467,2.729l1.509-.7Z" fill="#3b1f10"/>
        <path id="Trazado_12000" data-name="Trazado 12000" d="M171.767,460.126a1.563,1.563,0,0,1-.844-.3,34.845,34.845,0,0,1-3.417-3.249c-.767-.876-2.489-2.531-2.489-2.531s-.036-1.955-.144-3.459a11.675,11.675,0,0,1,1.325.927c.931.806,2.616,2.319,2.616,2.319l-1.181-1.519a11.794,11.794,0,0,0-1.35-1.434c-.887-.717-1.144-.988-1.477-1.224a13.38,13.38,0,0,0-.72-2.885s.242-.718.536-1.488a16.232,16.232,0,0,0,.535-2.477l-.013-3.7s-.46,2.09-.718,3.839a24.183,24.183,0,0,1-1.012,3.363s.484,2.144.8,3.6c.159.74.053,2.384.129,3.506a61.478,61.478,0,0,1-1.982-6.707c-.588-2.135-.929-2.87-1.435-4.305a19.558,19.558,0,0,0-1.857-3.967s1.055,3.333,1.477,4.557c.3.882,1.266,4.136,1.266,4.136l1.856,6.413s1.272,1.287,1.278,1.259c.479.43,1.429,1.291,2.023,1.891.821.829,2.593,2.578,3.324,3.137s2.362,1.476,2.362,1.476Z" fill="#3b1f10"/>
      </g>
      <g id="Grupo_7707" data-name="Grupo 7707" transform="translate(271.605 3766.637)">
        <path id="Trazado_12001" data-name="Trazado 12001" d="M361.349,437.284s.145-2.367.3-3.375c.13-.874.232-2.835.232-2.835s.221,1.965.274,3.425a4.134,4.134,0,0,0,1.536,2.573l-1.5.005Z" fill="#3b1f10"/>
        <path id="Trazado_12002" data-name="Trazado 12002" d="M359.286,461.113a6.79,6.79,0,0,0,1.685-.575,34.733,34.733,0,0,0,3.417-3.249c.767-.876,2.49-2.532,2.49-2.532s.036-1.955.143-3.458a11.781,11.781,0,0,0-1.324.926c-.931.808-2.617,2.32-2.617,2.32l1.182-1.519a11.633,11.633,0,0,1,1.35-1.434c.886-.717,1.143-.988,1.476-1.223a13.4,13.4,0,0,1,.72-2.886s-.242-.717-.535-1.487a16.28,16.28,0,0,1-.536-2.478l-.407-4.4a38.394,38.394,0,0,1,1.138,4.54,24.216,24.216,0,0,0,1.013,3.364s-.484,2.142-.8,3.6c-.159.739-.053,2.383-.129,3.505a61.7,61.7,0,0,0,1.983-6.708c.587-2.135.929-2.87,1.435-4.3a19.65,19.65,0,0,1,1.856-3.969s-1.055,3.335-1.477,4.558c-.3.881-1.265,4.135-1.265,4.135l-1.857,6.413s-1.272,1.289-1.278,1.261c-.478.428-1.429,1.29-2.023,1.889-.82.83-2.592,2.578-3.323,3.138s-3.071,2.672-3.071,2.672Z" fill="#3b1f10"/>
      </g>
      <path id="Trazado_12003" data-name="Trazado 12003" d="M291.891,65.324c-2.107-4.806-4.015-10.438-8.511-12.846-4.621-2.476-7.534,0-19.219,3.932-13.29,4.474-24.606,8.111-26.649,12.917s-2.4,14.289-2.146,18.316,3.7,16.736,3.7,16.736a36.7,36.7,0,0,0,6.035,12.428c2.931,3.828,9.172,10.245,11.545,11.763,7.262,4.648,14.248,1.889,18.387-.943a67.262,67.262,0,0,0,9.635-8.51c3.378-3.564,7.194-12.115,7.868-14.934,1.1-4.588,3.64-12.471,3.974-16.493C296.943,82.462,294,70.13,291.891,65.324Z" transform="translate(271.605 3766.637)" fill="#fff" stroke="#411906" stroke-linecap="round" stroke-linejoin="round" stroke-width="1.866"/>
      <path id="Trazado_12004" data-name="Trazado 12004" d="M245.292,103.711c-1.615-.858-1.069-.351.413,1.046a8.7,8.7,0,0,1,1.628,1.677,11.775,11.775,0,0,1,1.639,3.329,9.367,9.367,0,0,0-1.865-4.815A7.977,7.977,0,0,0,245.292,103.711Z" transform="translate(271.605 3766.637)" fill="#3b1f10"/>
      <path id="Trazado_12005" data-name="Trazado 12005" d="M261.426,102.568c-.34.115-.723.14-.921-.187a.442.442,0,0,1,.111-.381,2.189,2.189,0,0,1,1.714-.256c.944.276,1.585,1.16,1.457,1.316s-.965-.465-1.392-.569a1.565,1.565,0,0,0-.743,0Z" transform="translate(271.605 3766.637)" fill="#3b1f10"/>
      <path id="Trazado_12006" data-name="Trazado 12006" d="M269.709,102.509a.77.77,0,0,0,.818-.188c.069-.143.064-.139-.1-.333a1.982,1.982,0,0,0-2.1-.04c-.646.32-1.253,1.01-1.123,1.178s.748-.308,1.294-.589a1.585,1.585,0,0,1,.886-.072A.492.492,0,0,0,269.709,102.509Z" transform="translate(271.605 3766.637)" fill="#3b1f10"/>
      <path id="Trazado_12007" data-name="Trazado 12007" d="M259.646,99.17c-.148.036-.242.031-.758.856a2.584,2.584,0,0,0-.341,1.229,2.056,2.056,0,0,0,.459,1.682c.455.518.6.514,1.362.7.528.127.507-.078.507-.078-.234-.228-.766-.251-1.266-.76a2.067,2.067,0,0,1-.427-.687,3.412,3.412,0,0,1-.031-1.163,2.788,2.788,0,0,1,.347-1.138c.223-.437.39-.561.258-.619A.239.239,0,0,0,259.646,99.17Z" transform="translate(271.605 3766.637)" fill="#3b1f10"/>
      <path id="Trazado_12008" data-name="Trazado 12008" d="M271.343,99.2c.148.036.243.031.758.855a2.6,2.6,0,0,1,.342,1.229,2.054,2.054,0,0,1-.461,1.682c-.453.518-.6.514-1.361.7-.529.128-.507-.078-.507-.078.233-.227.766-.25,1.267-.76a2.107,2.107,0,0,0,.427-.687,3.441,3.441,0,0,0,.03-1.163,2.782,2.782,0,0,0-.347-1.137c-.222-.438-.39-.561-.257-.62A.226.226,0,0,1,271.343,99.2Z" transform="translate(271.605 3766.637)" fill="#3b1f10"/>
      <path id="Trazado_12009" data-name="Trazado 12009" d="M270.1,82.09a14.8,14.8,0,0,0-.964,3.169,25.671,25.671,0,0,0,.344,4.339s.345-3.926.345-4.615S270.1,82.09,270.1,82.09Z" transform="translate(271.605 3766.637)" fill="#3b1f10"/>
      <path id="Trazado_12010" data-name="Trazado 12010" d="M264.894,105.656a7.5,7.5,0,0,1-.377,3.1c-.294.681.551.377.551.377a13.218,13.218,0,0,0,.174-2.2A4.594,4.594,0,0,0,264.894,105.656Z" transform="translate(271.605 3766.637)" fill="#3b1f10"/>
      <path id="Trazado_12011" data-name="Trazado 12011" d="M272.589,77.186s.115-.7,2.479-1.489a34.719,34.719,0,0,1,8.03-1.961,30.508,30.508,0,0,1,5.508-.187,15.644,15.644,0,0,1,4.24.748c.292.2.146.467-.058.467s-4.778-.62-6.471-.533a22.526,22.526,0,0,0-4.807.812c-1.138.351-4.164,1.851-5.36,2.231a6.414,6.414,0,0,1-2.452.525C272.706,77.8,272.151,77.653,272.589,77.186Z" transform="translate(271.605 3766.637)" fill="#3b1f10"/>
      <path id="Trazado_12012" data-name="Trazado 12012" d="M257.7,77.186s-.116-.7-2.48-1.489a34.709,34.709,0,0,0-8.029-1.961,30.513,30.513,0,0,0-5.508-.187,15.653,15.653,0,0,0-4.241.748c-.292.2-.146.467.059.467s5.079-.38,6.772-.292a20.7,20.7,0,0,1,4.505.571c1.139.351,4.164,1.851,5.361,2.231a6.41,6.41,0,0,0,2.452.525C257.581,77.8,258.135,77.653,257.7,77.186Z" transform="translate(271.605 3766.637)" fill="#3b1f10"/>
      <g id="Grupo_7708" data-name="Grupo 7708" transform="translate(271.605 3766.637)">
        <path id="Trazado_12013" data-name="Trazado 12013" d="M278.762,82.814A3.175,3.175,0,0,0,279.82,84.2a3.335,3.335,0,0,0,2.2.481,2.525,2.525,0,0,0,2.089-1.456,5.537,5.537,0,0,0,.164-1.992,17.326,17.326,0,0,0-3.158-.24,21.1,21.1,0,0,0-2.677.889S278.667,82.613,278.762,82.814Z" fill="#3b1f10"/>
        <path id="Trazado_12014" data-name="Trazado 12014" d="M281.252,82.093s-.164-.561.572-.62,1.228-.07,1.111.106-.678.233-.795.374a.7.7,0,0,1-.468.268A1.267,1.267,0,0,1,281.252,82.093Z" fill="#fff"/>
        <path id="Trazado_12015" data-name="Trazado 12015" d="M279.884,82.783s.2-.386.4-.269.468.362.363.467a.655.655,0,0,1-.5.141C280,83.087,279.884,82.783,279.884,82.783Z" fill="#fff"/>
        <path id="Trazado_12016" data-name="Trazado 12016" d="M281.3,83.823a.728.728,0,0,1,.526-.257,3.846,3.846,0,0,0,1.041-.222c.093-.059.432-.246.432-.246a6.778,6.778,0,0,1-.865.772,1.785,1.785,0,0,1-.993.234C281.287,84.045,281.3,83.823,281.3,83.823Z" fill="#fff"/>
        <path id="Trazado_12017" data-name="Trazado 12017" d="M287.414,83.46a6.949,6.949,0,0,1,1.579.288,2.3,2.3,0,0,0-.865-.577,3.22,3.22,0,0,0-.695-.1c.272-.222.519-.435.729-.628a2.87,2.87,0,0,1,.392-.025,13.369,13.369,0,0,1,1.628.25,3.208,3.208,0,0,0-.571-.36,4.255,4.255,0,0,0-1.064-.243c.082-.085.152-.161.2-.219a5.4,5.4,0,0,0,.7-.4,2,2,0,0,0,.467-.727s-.515.467-.655.572a5.041,5.041,0,0,1-.633.315,1.869,1.869,0,0,1-.383,0,5.607,5.607,0,0,0,.681-.547c.224-.224.873-1.126.873-1.126s-.735.672-.9.8a8.233,8.233,0,0,1-1.264.724c-.142-.045-.3-.1-.469-.153.152-.176.458-.526.594-.667a7.4,7.4,0,0,0,.8-1.3s-.912.9-1.181,1.111c-.187.147-.678.443-.962.611-.222-.069-.458-.137-.7-.2.132-.112.3-.257.435-.375.435.127.715.211.715.211s-.263-.1-.67-.251c.057-.05.106-.1.136-.123A4.139,4.139,0,0,0,287.2,79.1s-.959.83-1.251,1.029c-.056.038-.14.085-.233.135-.3-.111-.646-.233-1.006-.359a5.713,5.713,0,0,0,.6-1.038s-.671.672-.927.923c-.368-.126-.742-.25-1.1-.362.17-.358.326-.762.326-.762s-.292.354-.576.684c-.362-.11-.7-.205-.973-.268.079-.149.138-.262.138-.262l-.26.237c-.052-.011-.108-.024-.155-.032a5.355,5.355,0,0,0-3.256.191,6.825,6.825,0,0,0-3.146,2.455l-.107.127a17.182,17.182,0,0,1,2.883-2.006,5.981,5.981,0,0,1,3.187-.535c.086.008.2.026.325.049-.156.144-.3.281-.359.344a6.532,6.532,0,0,1-.976.846,8.38,8.38,0,0,0-1.366.367,8.816,8.816,0,0,0-3.571,2.569c-.185.2-.765.76-.765.76s1.412-.714,2.317-1.268c.406-.249.934-.531,1.439-.783a10.392,10.392,0,0,1,2.448-.8,10.573,10.573,0,0,1,4.246.1c1.22.185,1.868.35,1.868.35a11.284,11.284,0,0,1-1.839,2.189,10.265,10.265,0,0,1-3.824,1.285,14.966,14.966,0,0,1-4-.759,6.111,6.111,0,0,0-1.576-.058,16.951,16.951,0,0,0,4.465,1.174,8.8,8.8,0,0,0,1.492.037,2.439,2.439,0,0,1,.4.252,3.935,3.935,0,0,1,.44.429c-.783.056-1.47.048-1.47.048a7.937,7.937,0,0,0,1.673.175c.177.2.319.364.319.364s-.065-.167-.149-.368c.108,0,.217-.007.327-.016a6.78,6.78,0,0,0,1.273-.26c.178.171.307.3.307.3s-.056-.146-.157-.349a8.245,8.245,0,0,0,1.077-.42c.047-.023.094-.059.141-.086.163.183.284.336.284.336s-.089-.166-.209-.381a5.35,5.35,0,0,0,1.1-.99c.3.17.575.338.575.338s-.2-.255-.43-.5c.366-.435.616-.8.616-.8s-.314.328-.717.7a2.74,2.74,0,0,0-.293-.268,4.487,4.487,0,0,0-.432-.252c.172-.126.342-.255.514-.387A3.44,3.44,0,0,1,287.414,83.46Zm-5.337-3.107c-.3,0-.611.022-.931.048a2.381,2.381,0,0,0,.48-.529c.043-.067.168-.293.289-.519.266.055.584.13.927.216-.055.061-.107.12-.153.169C282.5,79.938,282.253,80.184,282.077,80.353Zm.565.019a5.32,5.32,0,0,0,.432-.552c.03-.047.064-.106.1-.168.342.088.7.184,1.053.281a3.232,3.232,0,0,1-.743.5C283.213,80.406,282.933,80.385,282.642,80.372Zm2.258.287c-.239-.049-.5-.095-.761-.138.142-.142.167-.145.362-.357.037-.04.071-.083.1-.125.357.1.7.195,1,.283C285.369,80.444,285.087,80.574,284.9,80.659Zm-.92,5.479a7.924,7.924,0,0,1-1.2.187,2.7,2.7,0,0,0-.213-.407,2.247,2.247,0,0,0-.276-.306,9.659,9.659,0,0,0,1.092-.192,2.6,2.6,0,0,1,.324.2,6.562,6.562,0,0,1,.535.447C284.154,86.088,284.074,86.114,283.98,86.138Zm.518-.148a3.555,3.555,0,0,0-.394-.566,1.856,1.856,0,0,0-.159-.161c.255-.079.474-.158.64-.225.065-.026.156-.075.244-.122.163.1.341.207.48.3a2.6,2.6,0,0,1,.331.292A6.361,6.361,0,0,1,284.5,85.99Zm2.188-1.473c.06.03.121.063.183.1-.058.051-.116.1-.176.152a6.39,6.39,0,0,1-.914.665,4.089,4.089,0,0,0-.47-.716l-.06-.046c.219-.139.458-.3.716-.481C286.163,84.271,286.41,84.38,286.686,84.517Z" fill="#3b1f10"/>
      </g>
      <path id="Trazado_12018" data-name="Trazado 12018" d="M247.179,82.814a3.183,3.183,0,0,0,1.058,1.387,3.337,3.337,0,0,0,2.2.481,2.919,2.919,0,0,0,2.088-1.456c.635-1.11.506-1.623.506-1.623a17.2,17.2,0,0,0-3.757-.769c-.772.129-2.989.385-2.989.385S247.085,82.613,247.179,82.814Z" transform="translate(271.605 3766.637)" fill="#3b1f10"/>
      <path id="Trazado_12019" data-name="Trazado 12019" d="M249.669,82.093s-.164-.561.573-.62,1.227-.07,1.11.106-.678.233-.794.374a.7.7,0,0,1-.468.268A1.266,1.266,0,0,1,249.669,82.093Z" transform="translate(271.605 3766.637)" fill="#fff"/>
      <path id="Trazado_12020" data-name="Trazado 12020" d="M248.3,82.783s.2-.386.4-.269.467.362.362.467a.651.651,0,0,1-.5.141C248.418,83.087,248.3,82.783,248.3,82.783Z" transform="translate(271.605 3766.637)" fill="#fff"/>
      <path id="Trazado_12021" data-name="Trazado 12021" d="M249.716,83.823a.728.728,0,0,1,.526-.257,3.828,3.828,0,0,0,1.04-.222c.094-.059.433-.246.433-.246a6.778,6.778,0,0,1-.865.772,1.788,1.788,0,0,1-.994.234C249.7,84.045,249.716,83.823,249.716,83.823Z" transform="translate(271.605 3766.637)" fill="#fff"/>
      <path id="Trazado_12022" data-name="Trazado 12022" d="M244.285,83.521q.256.2.513.387a4.612,4.612,0,0,0-.432.252,2.837,2.837,0,0,0-.293.268c-.4-.369-.716-.7-.716-.7s.25.369.616.8c-.231.249-.431.5-.431.5s.271-.168.576-.338a5.371,5.371,0,0,0,1.1.99c-.12.215-.209.381-.209.381s.122-.153.284-.336c.047.027.1.063.141.086a8.2,8.2,0,0,0,1.078.42c-.1.2-.157.349-.157.349s.129-.13.307-.3a6.78,6.78,0,0,0,1.273.26c.11.009.219.013.327.016-.085.2-.149.368-.149.368s.142-.166.318-.364a7.941,7.941,0,0,0,1.674-.175s-.687.008-1.471-.048a3.936,3.936,0,0,1,.44-.429,2.48,2.48,0,0,1,.4-.252,8.811,8.811,0,0,0,1.493-.037,16.937,16.937,0,0,0,4.464-1.174,6.1,6.1,0,0,0-1.575.058,14.983,14.983,0,0,1-4,.759,10.271,10.271,0,0,1-3.824-1.285A11.322,11.322,0,0,1,244.2,81.8s.648-.165,1.869-.35a10.573,10.573,0,0,1,4.246-.1,10.4,10.4,0,0,1,2.447.8c.506.252,1.034.534,1.44.783.9.554,2.316,1.268,2.316,1.268s-.579-.563-.764-.76a8.816,8.816,0,0,0-3.571-2.569,8.436,8.436,0,0,0-1.366-.367,6.531,6.531,0,0,1-.976-.846c-.059-.063-.2-.2-.359-.344.125-.023.239-.041.325-.049a5.977,5.977,0,0,1,3.186.535,17.162,17.162,0,0,1,2.884,2.006l-.108-.127a5.589,5.589,0,0,0-2.847-2.587,6.41,6.41,0,0,0-3.555-.059c-.047.008-.1.021-.155.032l-.26-.237s.059.113.139.262c-.275.063-.611.158-.973.268-.284-.33-.577-.684-.577-.684s.157.4.326.762c-.356.112-.729.236-1.1.362-.256-.251-.926-.923-.926-.923a5.743,5.743,0,0,0,.6,1.038c-.359.126-.7.248-1.005.359-.093-.05-.178-.1-.233-.135-.292-.2-1.251-1.029-1.251-1.029a4.138,4.138,0,0,0,.873,1.215c.029.028.079.073.135.123-.406.151-.669.251-.669.251s.279-.084.715-.211c.134.118.3.263.435.375-.244.066-.481.134-.7.2-.283-.168-.774-.464-.961-.611-.269-.211-1.181-1.111-1.181-1.111a7.4,7.4,0,0,0,.8,1.3c.136.141.441.491.594.667-.169.056-.327.108-.469.153a8.235,8.235,0,0,1-1.265-.724c-.165-.125-.9-.8-.9-.8s.649.9.872,1.126a5.764,5.764,0,0,0,.681.547,1.859,1.859,0,0,1-.382,0,4.974,4.974,0,0,1-.633-.315c-.141-.105-.655-.572-.655-.572a1.985,1.985,0,0,0,.467.727,5.389,5.389,0,0,0,.7.4c.05.058.119.134.2.219a4.257,4.257,0,0,0-1.063.243,3.228,3.228,0,0,0-.572.36,13.363,13.363,0,0,1,1.629-.25,2.878,2.878,0,0,1,.392.025c.21.193.457.406.728.628a3.221,3.221,0,0,0-.694.1,2.3,2.3,0,0,0-.865.577,6.947,6.947,0,0,1,1.578-.288A3.451,3.451,0,0,1,244.285,83.521Zm4.174-3.783c-.045-.049-.1-.108-.152-.169.342-.086.661-.161.927-.216.121.226.245.452.289.519A2.382,2.382,0,0,0,250,80.4c-.319-.026-.634-.048-.931-.048C248.9,80.184,248.646,79.938,248.459,79.738Zm-.792.7a3.232,3.232,0,0,1-.743-.5c.354-.1.711-.193,1.053-.281.034.062.067.121.1.168a5.32,5.32,0,0,0,.432.552C248.215,80.385,247.936,80.406,247.667,80.437Zm-2.126-.115c.306-.088.645-.184,1-.283.034.042.069.085.1.125.195.212.221.215.363.357-.265.043-.522.089-.762.138C246.061,80.574,245.78,80.444,245.541,80.322Zm1.366,5.741a6.745,6.745,0,0,1,.536-.447,2.607,2.607,0,0,1,.324-.2,9.641,9.641,0,0,0,1.091.192,2.305,2.305,0,0,0-.275.306,2.782,2.782,0,0,0-.214.407,7.964,7.964,0,0,1-1.2-.187C247.075,86.114,246.994,86.088,246.907,86.063Zm-1.4-.553a2.6,2.6,0,0,1,.331-.292c.138-.1.316-.205.48-.3.088.047.178.1.243.122.166.067.385.146.64.225a2,2,0,0,0-.158.161,3.565,3.565,0,0,0-.4.566A6.347,6.347,0,0,1,245.509,85.51Zm-.326-1.323c.259.183.5.342.716.481l-.059.046a4.091,4.091,0,0,0-.47.716,6.391,6.391,0,0,1-.914-.665c-.06-.05-.119-.1-.177-.152.063-.033.124-.066.184-.1C244.738,84.38,244.986,84.271,245.183,84.187Z" transform="translate(271.605 3766.637)" fill="#3b1f10"/>
      <path id="Trazado_12048" data-name="Trazado 12048" d="M275,112.27a3.073,3.073,0,0,1-1.715.169A22.017,22.017,0,0,1,270,111.19a7.574,7.574,0,0,0-3.516-.572c-.569.17-.875.415-1.179.444a6.282,6.282,0,0,1-1.164-.289,4.078,4.078,0,0,0-3.173.117,23.91,23.91,0,0,1-3.9,1.426,4.432,4.432,0,0,1-1.21.06.412.412,0,0,0-.428.551,15.721,15.721,0,0,0,4.567,4.917c.959.667,2.894.814,4.9.781l.415,0,.415,0c2,.033,3.938-.114,4.9-.781a15.734,15.734,0,0,0,4.567-4.917C275.323,112.689,275.242,112.1,275,112.27Zm-17.239.529c.875-.286,2.413-1.094,3.466-1.43a4.1,4.1,0,0,1,1.9-.315,22.05,22.05,0,0,0,2.216.55c.9-.014,1.259-.468,1.968-.408a9.814,9.814,0,0,1,2.49.607c1.046.356,2.287.878,3.162,1.165.158.052.461.387-.139.443-.712.067-1.771.111-3.423.147-1.485.032-2.7.545-4.046.533-1.263-.011-2.895-.506-4.153-.533-1.652-.036-2.71-.08-3.423-.147C257.185,113.355,257.6,112.851,257.762,112.8Zm15.864,1.28a6.889,6.889,0,0,1-.707,1.028,10.03,10.03,0,0,1-2.494,2.231c-1.233.768-3.483.764-5.064.73v0h-.107v0c-1.581.034-3.83.038-5.063-.73a10.037,10.037,0,0,1-2.495-2.231,6.961,6.961,0,0,1-.707-1.028c-.086-.16-.012-.424.283-.351a15.786,15.786,0,0,0,3.032.351,38.964,38.964,0,0,1,4.467.73,2.9,2.9,0,0,0,.483.022v0c.019,0,.036,0,.054,0s.035,0,.053,0v0a2.894,2.894,0,0,0,.483-.022,38.948,38.948,0,0,1,4.468-.73,15.772,15.772,0,0,0,3.031-.351C273.639,113.655,273.712,113.919,273.626,114.079Z" transform="translate(271.605 3766.637)" fill="#3b1f10"/>
      <path id="Trazado_12049" data-name="Trazado 12049" d="M230.59,88.843c-.056,2.649-.039,3.813.719,5.55.381.874,2.225,4.624,3.235,5.51a1.6,1.6,0,0,0,2.575-.818c.215-.6-.422-2.326-1.019-4.752-.626-2.548-1.23-5.816-1.8-6.968A2.074,2.074,0,0,0,230.59,88.843Z" transform="translate(271.605 3766.637)" fill="#fff" stroke="#411906" stroke-linecap="round" stroke-linejoin="round" stroke-width="1.866"/>
      <path id="Trazado_12050" data-name="Trazado 12050" d="M301.006,88.843c.056,2.649.039,3.813-.719,5.55-.382.874-2.226,4.624-3.235,5.51a1.6,1.6,0,0,1-2.575-.818c-.215-.6.422-2.326,1.018-4.752.626-2.548,1.231-5.816,1.8-6.968A2.074,2.074,0,0,1,301.006,88.843Z" transform="translate(271.605 3766.637)" fill="#fff" stroke="#411906" stroke-linecap="round" stroke-linejoin="round" stroke-width="1.866"/>
      <path id="Trazado_12051" data-name="Trazado 12051" d="M233.7,110.5c1.187,8.784.632,26.61-.317,31.121s-3.469,6.09-3.469,6.09a54.55,54.55,0,0,0,2.375-7.36c1.513-7.318,1.288-26.259.776-29.533C231.873,103.225,232.509,101.72,233.7,110.5Z" transform="translate(271.605 3766.637)" fill="#fff"/>
      <path id="Trazado_12052" data-name="Trazado 12052" d="M301.129,101.185s.926,19.581,2.588,25.991c2.936,11.324,2.7,13.179,7.145,25.287,0,0-6.279-13.548-8.415-27.033C299.43,106.376,301.129,101.185,301.129,101.185Z" transform="translate(271.605 3766.637)" fill="#fff"/>
      <path id="Trazado_12053" data-name="Trazado 12053" d="M225.122,92.245s-3.018,26.675-4.129,35.249,0,24.293,0,24.293.476-16.989.953-23.817S225.122,92.245,225.122,92.245Z" transform="translate(271.605 3766.637)" fill="#fff"/>
      <path id="Trazado_12054" data-name="Trazado 12054" d="M286.722,45.228s7.508,11.354,9.9,19.336c1.5,5.021,2.878,17.84,2.878,17.84s-1.272-14.5-2.348-18.522A44.18,44.18,0,0,0,286.722,45.228Z" transform="translate(271.605 3766.637)" fill="#fff"/>
      <path id="Trazado_12055" data-name="Trazado 12055" d="M304.892,152.7s1.988,15.5-.058,26.5c-2.917,15.7-7.883,22.524-14.684,35.2-7.106,13.239-18.535,26.909-18.535,26.909,13.569,7.4,21.1,10.658,27.825,11.631a27.033,27.033,0,0,0,24.622-9.562c3.678-4.785,5.467-12.387,3.358-22.607-2.351-11.39-11.985-21.013-16.848-39.342-2.232-8.413-2.781-27.465-2.781-27.465Z" transform="translate(271.605 3766.637)" fill="#3b1f10"/>
      <path id="Trazado_12056" data-name="Trazado 12056" d="M225.138,152.7s-1.988,15.5.058,26.5c2.917,15.7,7.883,22.524,14.684,35.2,7.106,13.239,20.385,26.909,20.385,26.909-13.569,7.4-22.95,10.658-29.675,11.631a27.033,27.033,0,0,1-24.622-9.562c-3.678-4.785-4.124-9.382-2.376-20.879s11-22.741,15.866-41.07c2.232-8.413,2.781-27.465,2.781-27.465Z" transform="translate(271.605 3766.637)" fill="#3b1f10"/>
      <path id="Trazado_12057" data-name="Trazado 12057" d="M337.038,344.011c-1.848-5.544-3.239-7.384-3.239-7.384s-15.33,3.6-32.72,5.748c-11.435,1.411-26.367,1.566-33.461,1.548v-.033s-.744.013-2.046.023c-1.3-.01-2.046-.023-2.046-.023v.033c-7.094.018-22.026-.137-33.461-1.548-17.39-2.148-32.72-5.748-32.72-5.748s-1.391,1.84-3.239,7.384a24.713,24.713,0,0,0-.968,4.577s5.608.885,15.265,5.467a116.224,116.224,0,0,1,29.509,20.282c5.012,4.717,9.613,8.852,18.59,23.468,2.48,4.037,4.52,11.737,4.52,11.737s1.212.757,4.917.673,4.56-.871,4.56-.871,1.877-7.035,4.356-11.072c8.978-14.616,13.367-19.218,18.379-23.935a116.224,116.224,0,0,1,29.509-20.282c9.657-4.582,15.265-5.467,15.265-5.467A24.716,24.716,0,0,0,337.038,344.011Z" transform="translate(271.605 3766.637)" fill="#3b1f10"/>
      <path id="Trazado_12058" data-name="Trazado 12058" d="M255.77,240.471a38.056,38.056,0,0,1,6.362-1.081,32.307,32.307,0,0,1,10.483.88c2.6.791,4.082,1.4,4.082,1.4l-.64,1.68a49.49,49.49,0,0,0-6.4-1.4,41.08,41.08,0,0,0-9.4-.04c-1.889.215-6.882,1.28-6.882,1.28l-.6-1.96Z" transform="translate(271.605 3766.637)" fill="#3b1f10"/>
    </g>
    <rect id="Rectángulo_1840" data-name="Rectángulo 1840" width="958" height="4" transform="translate(91 4094)" fill="#fed97b"/>
    <path id="Trazado_12060" data-name="Trazado 12060" d="M6541.924,2684.672s52.082,55.112,122.815,4.516" transform="translate(-6239.29 1144)" fill="none" stroke="#ed3a3a" stroke-width="3" stroke-dasharray="3"/>
    <path id="Trazado_12061" data-name="Trazado 12061" d="M6584.208,2600.268s13.8,9.826,31.369,9a41.248,41.248,0,0,0,23.58-9" transform="translate(-6246.721 1144)" fill="none" stroke="#ed3a3a" stroke-width="3" stroke-dasharray="3"/>
    <path id="Trazado_12062" data-name="Trazado 12062" d="M6550.419,2726.331s45.357,32.669,103.672,3.539" transform="translate(-6237.023 1144)" fill="none" stroke="#ed3a3a" stroke-width="3" stroke-dasharray="3"/>
    <path id="Trazado_12063" data-name="Trazado 12063" d="M6550.419,2726.331s45.357,32.669,103.672,3.539" transform="translate(-6237.023 1186)" fill="none" stroke="#ed3a3a" stroke-width="3" stroke-dasharray="3"/>
    <path id="Trazado_12064" data-name="Trazado 12064" d="M6550.419,2726.331s67.546,32.669,154.389,3.539" transform="translate(-6262.565 1251)" fill="none" stroke="#ed3a3a" stroke-width="3" stroke-dasharray="3"/>
    <path id="Trazado_13415" data-name="Trazado 13415" d="M8.884-14.3A5.135,5.135,0,0,0,4.8-12.574,6.954,6.954,0,0,0,3.3-7.853,7.093,7.093,0,0,0,4.743-3.088a5.136,5.136,0,0,0,4.12,1.681A14.066,14.066,0,0,0,12.611-2V-.4A11.545,11.545,0,0,1,8.583.215,6.815,6.815,0,0,1,3.228-1.891,8.671,8.671,0,0,1,1.343-7.874a9.444,9.444,0,0,1,.908-4.254,6.517,6.517,0,0,1,2.621-2.814,7.933,7.933,0,0,1,4.034-.988,9.733,9.733,0,0,1,4.318.9L12.45-13.46A8.324,8.324,0,0,0,8.884-14.3ZM25.932-5.9a6.5,6.5,0,0,1-1.45,4.5A5.107,5.107,0,0,1,20.475.215a5.307,5.307,0,0,1-2.8-.741A4.892,4.892,0,0,1,15.78-2.653,7.413,7.413,0,0,1,15.114-5.9a6.485,6.485,0,0,1,1.439-4.485,5.091,5.091,0,0,1,4-1.606,4.981,4.981,0,0,1,3.926,1.644A6.467,6.467,0,0,1,25.932-5.9Zm-8.97,0a5.588,5.588,0,0,0,.9,3.438,3.132,3.132,0,0,0,2.653,1.182,3.153,3.153,0,0,0,2.659-1.176A5.56,5.56,0,0,0,24.084-5.9a5.47,5.47,0,0,0-.908-3.411,3.189,3.189,0,0,0-2.68-1.166,3.139,3.139,0,0,0-2.643,1.149A5.532,5.532,0,0,0,16.962-5.9ZM37.114,0V-7.616a3.073,3.073,0,0,0-.655-2.148,2.669,2.669,0,0,0-2.052-.709,3.384,3.384,0,0,0-2.707,1,5.044,5.044,0,0,0-.859,3.3V0H29.058V-11.773h1.45l.29,1.611h.086A3.641,3.641,0,0,1,32.42-11.51a4.991,4.991,0,0,1,2.2-.478,4.472,4.472,0,0,1,3.2,1.026A4.366,4.366,0,0,1,38.9-7.681V0Zm9.249-1.257a5.825,5.825,0,0,0,.913-.07,5.91,5.91,0,0,0,.7-.145V-.107a3.26,3.26,0,0,1-.854.231,6.413,6.413,0,0,1-1.015.091q-3.416,0-3.416-3.6v-7H41v-.859l1.687-.741.752-2.514h1.031v2.729h3.416v1.386H44.473v6.929a2.384,2.384,0,0,0,.5,1.633A1.757,1.757,0,0,0,46.363-1.257ZM60.489-5.9a6.5,6.5,0,0,1-1.45,4.5A5.107,5.107,0,0,1,55.032.215a5.307,5.307,0,0,1-2.8-.741,4.892,4.892,0,0,1-1.891-2.127A7.413,7.413,0,0,1,49.672-5.9a6.485,6.485,0,0,1,1.439-4.485,5.091,5.091,0,0,1,4-1.606,4.981,4.981,0,0,1,3.926,1.644A6.467,6.467,0,0,1,60.489-5.9Zm-8.97,0a5.588,5.588,0,0,0,.9,3.438,3.132,3.132,0,0,0,2.653,1.182,3.153,3.153,0,0,0,2.659-1.176A5.56,5.56,0,0,0,58.642-5.9a5.47,5.47,0,0,0-.908-3.411,3.189,3.189,0,0,0-2.68-1.166,3.139,3.139,0,0,0-2.643,1.149A5.532,5.532,0,0,0,51.52-5.9Zm17.467-6.091a6.978,6.978,0,0,1,1.407.129l-.247,1.654a6.074,6.074,0,0,0-1.289-.161,3.138,3.138,0,0,0-2.444,1.16A4.23,4.23,0,0,0,65.4-6.316V0H63.615V-11.773h1.472l.2,2.181h.086a5.175,5.175,0,0,1,1.579-1.772A3.555,3.555,0,0,1,68.986-11.988ZM80.652,0V-7.616A3.073,3.073,0,0,0,80-9.765a2.669,2.669,0,0,0-2.052-.709,3.384,3.384,0,0,0-2.707,1,5.044,5.044,0,0,0-.859,3.3V0H72.6V-11.773h1.45l.29,1.611h.086a3.641,3.641,0,0,1,1.536-1.348,4.991,4.991,0,0,1,2.2-.478,4.472,4.472,0,0,1,3.2,1.026,4.366,4.366,0,0,1,1.074,3.282V0ZM96.261-5.9a6.5,6.5,0,0,1-1.45,4.5A5.107,5.107,0,0,1,90.8.215,5.307,5.307,0,0,1,88-.526a4.892,4.892,0,0,1-1.891-2.127A7.413,7.413,0,0,1,85.443-5.9a6.485,6.485,0,0,1,1.439-4.485,5.091,5.091,0,0,1,4-1.606,4.981,4.981,0,0,1,3.926,1.644A6.467,6.467,0,0,1,96.261-5.9Zm-8.97,0a5.588,5.588,0,0,0,.9,3.438,3.132,3.132,0,0,0,2.653,1.182,3.153,3.153,0,0,0,2.659-1.176A5.56,5.56,0,0,0,94.413-5.9a5.47,5.47,0,0,0-.908-3.411,3.189,3.189,0,0,0-2.68-1.166,3.139,3.139,0,0,0-2.643,1.149A5.532,5.532,0,0,0,87.291-5.9Zm25.824,4.318h-.1a4.19,4.19,0,0,1-3.7,1.794,4.371,4.371,0,0,1-3.593-1.579,6.951,6.951,0,0,1-1.284-4.49,7.068,7.068,0,0,1,1.289-4.522,4.338,4.338,0,0,1,3.588-1.611A4.281,4.281,0,0,1,113-10.248h.14l-.075-.849-.043-.827v-4.791H114.8V0h-1.45Zm-3.566.3a3.247,3.247,0,0,0,2.648-.994,5.021,5.021,0,0,0,.822-3.207v-.376a5.908,5.908,0,0,0-.833-3.572,3.161,3.161,0,0,0-2.659-1.069,2.729,2.729,0,0,0-2.4,1.219,6.062,6.062,0,0,0-.833,3.443,5.812,5.812,0,0,0,.827,3.405A2.8,2.8,0,0,0,109.549-1.278ZM123.557.215a5.409,5.409,0,0,1-4.12-1.59,6.155,6.155,0,0,1-1.509-4.415,6.826,6.826,0,0,1,1.4-4.522,4.657,4.657,0,0,1,3.765-1.676,4.44,4.44,0,0,1,3.5,1.456,5.579,5.579,0,0,1,1.289,3.84v1.128h-8.11a4.667,4.667,0,0,0,1.047,3.147,3.622,3.622,0,0,0,2.8,1.074,9.483,9.483,0,0,0,3.76-.795v1.59a9.437,9.437,0,0,1-1.789.585A10.051,10.051,0,0,1,123.557.215Zm-.483-10.71a2.912,2.912,0,0,0-2.261.924,4.258,4.258,0,0,0-.994,2.557h6.155a3.921,3.921,0,0,0-.752-2.583A2.647,2.647,0,0,0,123.073-10.5ZM141.346.215a5.025,5.025,0,0,1-3.958-1.574,6.472,6.472,0,0,1-1.4-4.453,6.673,6.673,0,0,1,1.423-4.565,5.125,5.125,0,0,1,4.055-1.611,8.047,8.047,0,0,1,1.7.183,5.591,5.591,0,0,1,1.332.43l-.548,1.515a8.384,8.384,0,0,0-1.289-.392,5.756,5.756,0,0,0-1.235-.156q-3.588,0-3.588,4.576a5.449,5.449,0,0,0,.875,3.33,3.046,3.046,0,0,0,2.594,1.16,7.932,7.932,0,0,0,3.019-.634V-.4A6.433,6.433,0,0,1,141.346.215Zm7.444-11.988v7.638a3.073,3.073,0,0,0,.655,2.148,2.669,2.669,0,0,0,2.052.709,3.348,3.348,0,0,0,2.7-1.01,5.094,5.094,0,0,0,.854-3.3v-6.187h1.783V0h-1.472l-.258-1.579h-.1a3.554,3.554,0,0,1-1.52,1.332,5.109,5.109,0,0,1-2.218.462,4.5,4.5,0,0,1-3.217-1.021,4.344,4.344,0,0,1-1.069-3.266v-7.7ZM165.591.215a5.409,5.409,0,0,1-4.12-1.59,6.155,6.155,0,0,1-1.509-4.415,6.826,6.826,0,0,1,1.4-4.522,4.657,4.657,0,0,1,3.765-1.676,4.44,4.44,0,0,1,3.5,1.456,5.579,5.579,0,0,1,1.289,3.84v1.128h-8.11a4.667,4.667,0,0,0,1.047,3.147,3.622,3.622,0,0,0,2.8,1.074,9.483,9.483,0,0,0,3.76-.795v1.59a9.436,9.436,0,0,1-1.789.585A10.051,10.051,0,0,1,165.591.215Zm-.483-10.71a2.912,2.912,0,0,0-2.261.924,4.258,4.258,0,0,0-.994,2.557h6.155a3.921,3.921,0,0,0-.752-2.583A2.647,2.647,0,0,0,165.107-10.5ZM174.743,0H172.96V-16.715h1.783Zm5.564,0h-1.783V-16.715h1.783Zm13.943-5.9a6.5,6.5,0,0,1-1.45,4.5A5.107,5.107,0,0,1,188.794.215a5.307,5.307,0,0,1-2.8-.741A4.892,4.892,0,0,1,184.1-2.653a7.413,7.413,0,0,1-.666-3.244,6.485,6.485,0,0,1,1.439-4.485,5.091,5.091,0,0,1,4-1.606,4.981,4.981,0,0,1,3.926,1.644A6.467,6.467,0,0,1,194.251-5.9Zm-8.97,0a5.588,5.588,0,0,0,.9,3.438,3.132,3.132,0,0,0,2.653,1.182A3.153,3.153,0,0,0,191.5-2.455,5.56,5.56,0,0,0,192.4-5.9a5.47,5.47,0,0,0-.908-3.411,3.189,3.189,0,0,0-2.68-1.166,3.139,3.139,0,0,0-2.643,1.149A5.532,5.532,0,0,0,185.281-5.9Z" transform="translate(680 3754)" fill="#00223d"/>
    <path id="Trazado_13416" data-name="Trazado 13416" d="M8.884-14.3A5.135,5.135,0,0,0,4.8-12.574,6.954,6.954,0,0,0,3.3-7.853,7.093,7.093,0,0,0,4.743-3.088a5.136,5.136,0,0,0,4.12,1.681A14.066,14.066,0,0,0,12.611-2V-.4A11.545,11.545,0,0,1,8.583.215,6.815,6.815,0,0,1,3.228-1.891,8.671,8.671,0,0,1,1.343-7.874a9.444,9.444,0,0,1,.908-4.254,6.517,6.517,0,0,1,2.621-2.814,7.933,7.933,0,0,1,4.034-.988,9.733,9.733,0,0,1,4.318.9L12.45-13.46A8.324,8.324,0,0,0,8.884-14.3ZM25.932-5.9a6.5,6.5,0,0,1-1.45,4.5A5.107,5.107,0,0,1,20.475.215a5.307,5.307,0,0,1-2.8-.741A4.892,4.892,0,0,1,15.78-2.653,7.413,7.413,0,0,1,15.114-5.9a6.485,6.485,0,0,1,1.439-4.485,5.091,5.091,0,0,1,4-1.606,4.981,4.981,0,0,1,3.926,1.644A6.467,6.467,0,0,1,25.932-5.9Zm-8.97,0a5.588,5.588,0,0,0,.9,3.438,3.132,3.132,0,0,0,2.653,1.182,3.153,3.153,0,0,0,2.659-1.176A5.56,5.56,0,0,0,24.084-5.9a5.47,5.47,0,0,0-.908-3.411,3.189,3.189,0,0,0-2.68-1.166,3.139,3.139,0,0,0-2.643,1.149A5.532,5.532,0,0,0,16.962-5.9ZM37.114,0V-7.616a3.073,3.073,0,0,0-.655-2.148,2.669,2.669,0,0,0-2.052-.709,3.384,3.384,0,0,0-2.707,1,5.044,5.044,0,0,0-.859,3.3V0H29.058V-11.773h1.45l.29,1.611h.086A3.641,3.641,0,0,1,32.42-11.51a4.991,4.991,0,0,1,2.2-.478,4.472,4.472,0,0,1,3.2,1.026A4.366,4.366,0,0,1,38.9-7.681V0Zm9.249-1.257a5.825,5.825,0,0,0,.913-.07,5.91,5.91,0,0,0,.7-.145V-.107a3.26,3.26,0,0,1-.854.231,6.413,6.413,0,0,1-1.015.091q-3.416,0-3.416-3.6v-7H41v-.859l1.687-.741.752-2.514h1.031v2.729h3.416v1.386H44.473v6.929a2.384,2.384,0,0,0,.5,1.633A1.757,1.757,0,0,0,46.363-1.257ZM60.489-5.9a6.5,6.5,0,0,1-1.45,4.5A5.107,5.107,0,0,1,55.032.215a5.307,5.307,0,0,1-2.8-.741,4.892,4.892,0,0,1-1.891-2.127A7.413,7.413,0,0,1,49.672-5.9a6.485,6.485,0,0,1,1.439-4.485,5.091,5.091,0,0,1,4-1.606,4.981,4.981,0,0,1,3.926,1.644A6.467,6.467,0,0,1,60.489-5.9Zm-8.97,0a5.588,5.588,0,0,0,.9,3.438,3.132,3.132,0,0,0,2.653,1.182,3.153,3.153,0,0,0,2.659-1.176A5.56,5.56,0,0,0,58.642-5.9a5.47,5.47,0,0,0-.908-3.411,3.189,3.189,0,0,0-2.68-1.166,3.139,3.139,0,0,0-2.643,1.149A5.532,5.532,0,0,0,51.52-5.9Zm17.467-6.091a6.978,6.978,0,0,1,1.407.129l-.247,1.654a6.074,6.074,0,0,0-1.289-.161,3.138,3.138,0,0,0-2.444,1.16A4.23,4.23,0,0,0,65.4-6.316V0H63.615V-11.773h1.472l.2,2.181h.086a5.175,5.175,0,0,1,1.579-1.772A3.555,3.555,0,0,1,68.986-11.988ZM80.652,0V-7.616A3.073,3.073,0,0,0,80-9.765a2.669,2.669,0,0,0-2.052-.709,3.384,3.384,0,0,0-2.707,1,5.044,5.044,0,0,0-.859,3.3V0H72.6V-11.773h1.45l.29,1.611h.086a3.641,3.641,0,0,1,1.536-1.348,4.991,4.991,0,0,1,2.2-.478,4.472,4.472,0,0,1,3.2,1.026,4.366,4.366,0,0,1,1.074,3.282V0ZM96.261-5.9a6.5,6.5,0,0,1-1.45,4.5A5.107,5.107,0,0,1,90.8.215,5.307,5.307,0,0,1,88-.526a4.892,4.892,0,0,1-1.891-2.127A7.413,7.413,0,0,1,85.443-5.9a6.485,6.485,0,0,1,1.439-4.485,5.091,5.091,0,0,1,4-1.606,4.981,4.981,0,0,1,3.926,1.644A6.467,6.467,0,0,1,96.261-5.9Zm-8.97,0a5.588,5.588,0,0,0,.9,3.438,3.132,3.132,0,0,0,2.653,1.182,3.153,3.153,0,0,0,2.659-1.176A5.56,5.56,0,0,0,94.413-5.9a5.47,5.47,0,0,0-.908-3.411,3.189,3.189,0,0,0-2.68-1.166,3.139,3.139,0,0,0-2.643,1.149A5.532,5.532,0,0,0,87.291-5.9Zm25.824,4.318h-.1a4.19,4.19,0,0,1-3.7,1.794,4.371,4.371,0,0,1-3.593-1.579,6.951,6.951,0,0,1-1.284-4.49,7.068,7.068,0,0,1,1.289-4.522,4.338,4.338,0,0,1,3.588-1.611A4.281,4.281,0,0,1,113-10.248h.14l-.075-.849-.043-.827v-4.791H114.8V0h-1.45Zm-3.566.3a3.247,3.247,0,0,0,2.648-.994,5.021,5.021,0,0,0,.822-3.207v-.376a5.908,5.908,0,0,0-.833-3.572,3.161,3.161,0,0,0-2.659-1.069,2.729,2.729,0,0,0-2.4,1.219,6.062,6.062,0,0,0-.833,3.443,5.812,5.812,0,0,0,.827,3.405A2.8,2.8,0,0,0,109.549-1.278ZM123.557.215a5.409,5.409,0,0,1-4.12-1.59,6.155,6.155,0,0,1-1.509-4.415,6.826,6.826,0,0,1,1.4-4.522,4.657,4.657,0,0,1,3.765-1.676,4.44,4.44,0,0,1,3.5,1.456,5.579,5.579,0,0,1,1.289,3.84v1.128h-8.11a4.667,4.667,0,0,0,1.047,3.147,3.622,3.622,0,0,0,2.8,1.074,9.483,9.483,0,0,0,3.76-.795v1.59a9.437,9.437,0,0,1-1.789.585A10.051,10.051,0,0,1,123.557.215Zm-.483-10.71a2.912,2.912,0,0,0-2.261.924,4.258,4.258,0,0,0-.994,2.557h6.155a3.921,3.921,0,0,0-.752-2.583A2.647,2.647,0,0,0,123.073-10.5Zm13.836-5.21h4.437a8.371,8.371,0,0,1,4.522.935,3.3,3.3,0,0,1,1.4,2.954,3.413,3.413,0,0,1-.779,2.3,3.749,3.749,0,0,1-2.272,1.176v.107q3.577.612,3.577,3.76a4.038,4.038,0,0,1-1.423,3.287A6.058,6.058,0,0,1,142.388,0h-5.479Zm1.826,6.725h3.008a4.9,4.9,0,0,0,2.782-.607,2.343,2.343,0,0,0,.849-2.046,2.071,2.071,0,0,0-.945-1.907,5.907,5.907,0,0,0-3.008-.585h-2.686Zm0,1.547v5.876h3.276a4.667,4.667,0,0,0,2.863-.736,2.717,2.717,0,0,0,.961-2.3,2.44,2.44,0,0,0-.983-2.148,5.253,5.253,0,0,0-2.992-.687Zm13.836-4.34v7.638a3.073,3.073,0,0,0,.655,2.148,2.669,2.669,0,0,0,2.052.709,3.348,3.348,0,0,0,2.7-1.01,5.094,5.094,0,0,0,.854-3.3v-6.187h1.783V0h-1.472l-.258-1.579h-.1a3.554,3.554,0,0,1-1.52,1.332,5.109,5.109,0,0,1-2.218.462,4.5,4.5,0,0,1-3.217-1.021,4.344,4.344,0,0,1-1.069-3.266v-7.7Zm19.422,8.562a2.949,2.949,0,0,1-1.225,2.535,5.756,5.756,0,0,1-3.437.892,7.475,7.475,0,0,1-3.652-.741V-2.181A8.832,8.832,0,0,0,165.5-1.5a7.6,7.6,0,0,0,1.875.247,4.251,4.251,0,0,0,2.148-.446,1.474,1.474,0,0,0,.752-1.359,1.475,1.475,0,0,0-.6-1.176,9.378,9.378,0,0,0-2.326-1.155,12.611,12.611,0,0,1-2.336-1.069A3.192,3.192,0,0,1,163.985-7.5a2.7,2.7,0,0,1-.338-1.386,2.642,2.642,0,0,1,1.171-2.272,5.456,5.456,0,0,1,3.212-.833,9.4,9.4,0,0,1,3.717.773l-.634,1.45a8.532,8.532,0,0,0-3.212-.73,3.7,3.7,0,0,0-1.912.4,1.229,1.229,0,0,0-.645,1.1,1.334,1.334,0,0,0,.242.806,2.385,2.385,0,0,0,.779.634,17.405,17.405,0,0,0,2.063.87,7.705,7.705,0,0,1,2.831,1.536A2.709,2.709,0,0,1,171.993-3.212Zm6.7,1.955a5.825,5.825,0,0,0,.913-.07,5.91,5.91,0,0,0,.7-.145V-.107a3.26,3.26,0,0,1-.854.231,6.413,6.413,0,0,1-1.015.091q-3.416,0-3.416-3.6v-7h-1.687v-.859l1.687-.741.752-2.514h1.031v2.729h3.416v1.386h-3.416v6.929a2.384,2.384,0,0,0,.5,1.633A1.757,1.757,0,0,0,178.7-1.257ZM192.822-5.9a6.5,6.5,0,0,1-1.45,4.5A5.107,5.107,0,0,1,187.365.215a5.307,5.307,0,0,1-2.8-.741,4.892,4.892,0,0,1-1.891-2.127A7.413,7.413,0,0,1,182-5.9a6.485,6.485,0,0,1,1.439-4.485,5.091,5.091,0,0,1,4-1.606,4.981,4.981,0,0,1,3.926,1.644A6.467,6.467,0,0,1,192.822-5.9Zm-8.97,0a5.588,5.588,0,0,0,.9,3.438,3.132,3.132,0,0,0,2.653,1.182,3.153,3.153,0,0,0,2.659-1.176,5.56,5.56,0,0,0,.908-3.443,5.47,5.47,0,0,0-.908-3.411,3.189,3.189,0,0,0-2.68-1.166,3.139,3.139,0,0,0-2.643,1.149A5.532,5.532,0,0,0,183.853-5.9Z" transform="translate(680 3844)" fill="#00223d"/>
    <path id="Trazado_13417" data-name="Trazado 13417" d="M8.884-14.3A5.135,5.135,0,0,0,4.8-12.574,6.954,6.954,0,0,0,3.3-7.853,7.093,7.093,0,0,0,4.743-3.088a5.136,5.136,0,0,0,4.12,1.681A14.066,14.066,0,0,0,12.611-2V-.4A11.545,11.545,0,0,1,8.583.215,6.815,6.815,0,0,1,3.228-1.891,8.671,8.671,0,0,1,1.343-7.874a9.444,9.444,0,0,1,.908-4.254,6.517,6.517,0,0,1,2.621-2.814,7.933,7.933,0,0,1,4.034-.988,9.733,9.733,0,0,1,4.318.9L12.45-13.46A8.324,8.324,0,0,0,8.884-14.3ZM25.932-5.9a6.5,6.5,0,0,1-1.45,4.5A5.107,5.107,0,0,1,20.475.215a5.307,5.307,0,0,1-2.8-.741A4.892,4.892,0,0,1,15.78-2.653,7.413,7.413,0,0,1,15.114-5.9a6.485,6.485,0,0,1,1.439-4.485,5.091,5.091,0,0,1,4-1.606,4.981,4.981,0,0,1,3.926,1.644A6.467,6.467,0,0,1,25.932-5.9Zm-8.97,0a5.588,5.588,0,0,0,.9,3.438,3.132,3.132,0,0,0,2.653,1.182,3.153,3.153,0,0,0,2.659-1.176A5.56,5.56,0,0,0,24.084-5.9a5.47,5.47,0,0,0-.908-3.411,3.189,3.189,0,0,0-2.68-1.166,3.139,3.139,0,0,0-2.643,1.149A5.532,5.532,0,0,0,16.962-5.9ZM37.114,0V-7.616a3.073,3.073,0,0,0-.655-2.148,2.669,2.669,0,0,0-2.052-.709,3.384,3.384,0,0,0-2.707,1,5.044,5.044,0,0,0-.859,3.3V0H29.058V-11.773h1.45l.29,1.611h.086A3.641,3.641,0,0,1,32.42-11.51a4.991,4.991,0,0,1,2.2-.478,4.472,4.472,0,0,1,3.2,1.026A4.366,4.366,0,0,1,38.9-7.681V0Zm9.249-1.257a5.825,5.825,0,0,0,.913-.07,5.91,5.91,0,0,0,.7-.145V-.107a3.26,3.26,0,0,1-.854.231,6.413,6.413,0,0,1-1.015.091q-3.416,0-3.416-3.6v-7H41v-.859l1.687-.741.752-2.514h1.031v2.729h3.416v1.386H44.473v6.929a2.384,2.384,0,0,0,.5,1.633A1.757,1.757,0,0,0,46.363-1.257ZM60.489-5.9a6.5,6.5,0,0,1-1.45,4.5A5.107,5.107,0,0,1,55.032.215a5.307,5.307,0,0,1-2.8-.741,4.892,4.892,0,0,1-1.891-2.127A7.413,7.413,0,0,1,49.672-5.9a6.485,6.485,0,0,1,1.439-4.485,5.091,5.091,0,0,1,4-1.606,4.981,4.981,0,0,1,3.926,1.644A6.467,6.467,0,0,1,60.489-5.9Zm-8.97,0a5.588,5.588,0,0,0,.9,3.438,3.132,3.132,0,0,0,2.653,1.182,3.153,3.153,0,0,0,2.659-1.176A5.56,5.56,0,0,0,58.642-5.9a5.47,5.47,0,0,0-.908-3.411,3.189,3.189,0,0,0-2.68-1.166,3.139,3.139,0,0,0-2.643,1.149A5.532,5.532,0,0,0,51.52-5.9Zm17.467-6.091a6.978,6.978,0,0,1,1.407.129l-.247,1.654a6.074,6.074,0,0,0-1.289-.161,3.138,3.138,0,0,0-2.444,1.16A4.23,4.23,0,0,0,65.4-6.316V0H63.615V-11.773h1.472l.2,2.181h.086a5.175,5.175,0,0,1,1.579-1.772A3.555,3.555,0,0,1,68.986-11.988ZM80.652,0V-7.616A3.073,3.073,0,0,0,80-9.765a2.669,2.669,0,0,0-2.052-.709,3.384,3.384,0,0,0-2.707,1,5.044,5.044,0,0,0-.859,3.3V0H72.6V-11.773h1.45l.29,1.611h.086a3.641,3.641,0,0,1,1.536-1.348,4.991,4.991,0,0,1,2.2-.478,4.472,4.472,0,0,1,3.2,1.026,4.366,4.366,0,0,1,1.074,3.282V0ZM96.261-5.9a6.5,6.5,0,0,1-1.45,4.5A5.107,5.107,0,0,1,90.8.215,5.307,5.307,0,0,1,88-.526a4.892,4.892,0,0,1-1.891-2.127A7.413,7.413,0,0,1,85.443-5.9a6.485,6.485,0,0,1,1.439-4.485,5.091,5.091,0,0,1,4-1.606,4.981,4.981,0,0,1,3.926,1.644A6.467,6.467,0,0,1,96.261-5.9Zm-8.97,0a5.588,5.588,0,0,0,.9,3.438,3.132,3.132,0,0,0,2.653,1.182,3.153,3.153,0,0,0,2.659-1.176A5.56,5.56,0,0,0,94.413-5.9a5.47,5.47,0,0,0-.908-3.411,3.189,3.189,0,0,0-2.68-1.166,3.139,3.139,0,0,0-2.643,1.149A5.532,5.532,0,0,0,87.291-5.9Zm25.824,4.318h-.1a4.19,4.19,0,0,1-3.7,1.794,4.371,4.371,0,0,1-3.593-1.579,6.951,6.951,0,0,1-1.284-4.49,7.068,7.068,0,0,1,1.289-4.522,4.338,4.338,0,0,1,3.588-1.611A4.281,4.281,0,0,1,113-10.248h.14l-.075-.849-.043-.827v-4.791H114.8V0h-1.45Zm-3.566.3a3.247,3.247,0,0,0,2.648-.994,5.021,5.021,0,0,0,.822-3.207v-.376a5.908,5.908,0,0,0-.833-3.572,3.161,3.161,0,0,0-2.659-1.069,2.729,2.729,0,0,0-2.4,1.219,6.062,6.062,0,0,0-.833,3.443,5.812,5.812,0,0,0,.827,3.405A2.8,2.8,0,0,0,109.549-1.278ZM123.557.215a5.409,5.409,0,0,1-4.12-1.59,6.155,6.155,0,0,1-1.509-4.415,6.826,6.826,0,0,1,1.4-4.522,4.657,4.657,0,0,1,3.765-1.676,4.44,4.44,0,0,1,3.5,1.456,5.579,5.579,0,0,1,1.289,3.84v1.128h-8.11a4.667,4.667,0,0,0,1.047,3.147,3.622,3.622,0,0,0,2.8,1.074,9.483,9.483,0,0,0,3.76-.795v1.59a9.437,9.437,0,0,1-1.789.585A10.051,10.051,0,0,1,123.557.215Zm-.483-10.71a2.912,2.912,0,0,0-2.261.924,4.258,4.258,0,0,0-.994,2.557h6.155a3.921,3.921,0,0,0-.752-2.583A2.647,2.647,0,0,0,123.073-10.5Zm20.561-3.8a5.135,5.135,0,0,0-4.087,1.724,6.954,6.954,0,0,0-1.5,4.721,7.093,7.093,0,0,0,1.445,4.764,5.136,5.136,0,0,0,4.12,1.681A14.066,14.066,0,0,0,147.361-2V-.4a11.545,11.545,0,0,1-4.028.612,6.815,6.815,0,0,1-5.355-2.105,8.671,8.671,0,0,1-1.885-5.983A9.443,9.443,0,0,1,137-12.128a6.517,6.517,0,0,1,2.621-2.814,7.933,7.933,0,0,1,4.034-.988,9.733,9.733,0,0,1,4.318.9L147.2-13.46A8.324,8.324,0,0,0,143.634-14.3ZM152.3,0H150.52V-11.773H152.3Zm-1.934-14.964a1.184,1.184,0,0,1,.3-.9,1.051,1.051,0,0,1,.752-.285,1.051,1.051,0,0,1,.741.29,1.163,1.163,0,0,1,.312.892,1.181,1.181,0,0,1-.312.9,1.04,1.04,0,0,1-.741.3,1.03,1.03,0,0,1-.752-.3A1.206,1.206,0,0,1,150.369-14.964ZM164.141,0V-7.616a3.073,3.073,0,0,0-.655-2.148,2.669,2.669,0,0,0-2.052-.709,3.384,3.384,0,0,0-2.707,1,5.044,5.044,0,0,0-.859,3.3V0h-1.783V-11.773h1.45l.29,1.611h.086a3.641,3.641,0,0,1,1.536-1.348,4.991,4.991,0,0,1,2.2-.478,4.472,4.472,0,0,1,3.2,1.026,4.366,4.366,0,0,1,1.074,3.282V0Zm9.249-1.257a5.825,5.825,0,0,0,.913-.07,5.91,5.91,0,0,0,.7-.145V-.107a3.26,3.26,0,0,1-.854.231,6.413,6.413,0,0,1-1.015.091q-3.416,0-3.416-3.6v-7h-1.687v-.859l1.687-.741.752-2.514H171.5v2.729h3.416v1.386H171.5v6.929a2.384,2.384,0,0,0,.5,1.633A1.757,1.757,0,0,0,173.39-1.257Zm5.64-10.517v7.638a3.073,3.073,0,0,0,.655,2.148,2.669,2.669,0,0,0,2.052.709,3.348,3.348,0,0,0,2.7-1.01,5.094,5.094,0,0,0,.854-3.3v-6.187h1.783V0H185.6l-.258-1.579h-.1a3.554,3.554,0,0,1-1.52,1.332,5.109,5.109,0,0,1-2.218.462,4.5,4.5,0,0,1-3.217-1.021,4.344,4.344,0,0,1-1.069-3.266v-7.7Zm17.2-.215a6.978,6.978,0,0,1,1.407.129l-.247,1.654a6.074,6.074,0,0,0-1.289-.161,3.138,3.138,0,0,0-2.444,1.16,4.23,4.23,0,0,0-1.015,2.89V0h-1.783V-11.773h1.472l.2,2.181h.086a5.175,5.175,0,0,1,1.579-1.772A3.555,3.555,0,0,1,196.228-11.988ZM207.077,0l-.354-1.676h-.086a4.954,4.954,0,0,1-1.756,1.5,5.353,5.353,0,0,1-2.186.392,3.932,3.932,0,0,1-2.745-.9,3.291,3.291,0,0,1-.994-2.567q0-3.566,5.7-3.738l2-.064v-.73a2.985,2.985,0,0,0-.6-2.046,2.452,2.452,0,0,0-1.907-.661,7.769,7.769,0,0,0-3.33.9l-.548-1.364a8.379,8.379,0,0,1,1.907-.741,8.258,8.258,0,0,1,2.079-.269,4.485,4.485,0,0,1,3.121.935,3.9,3.9,0,0,1,1.015,3V0Zm-4.028-1.257a3.619,3.619,0,0,0,2.616-.913,3.378,3.378,0,0,0,.951-2.557V-5.79l-1.783.075a6.486,6.486,0,0,0-3.067.661,1.992,1.992,0,0,0-.94,1.821,1.837,1.837,0,0,0,.585,1.472A2.43,2.43,0,0,0,203.049-1.257Z" transform="translate(680 3923)" fill="#00223d"/>
    <path id="Trazado_13419" data-name="Trazado 13419" d="M8.884-14.3A5.135,5.135,0,0,0,4.8-12.574,6.954,6.954,0,0,0,3.3-7.853,7.093,7.093,0,0,0,4.743-3.088a5.136,5.136,0,0,0,4.12,1.681A14.066,14.066,0,0,0,12.611-2V-.4A11.545,11.545,0,0,1,8.583.215,6.815,6.815,0,0,1,3.228-1.891,8.671,8.671,0,0,1,1.343-7.874a9.444,9.444,0,0,1,.908-4.254,6.517,6.517,0,0,1,2.621-2.814,7.933,7.933,0,0,1,4.034-.988,9.733,9.733,0,0,1,4.318.9L12.45-13.46A8.324,8.324,0,0,0,8.884-14.3ZM25.932-5.9a6.5,6.5,0,0,1-1.45,4.5A5.107,5.107,0,0,1,20.475.215a5.307,5.307,0,0,1-2.8-.741A4.892,4.892,0,0,1,15.78-2.653,7.413,7.413,0,0,1,15.114-5.9a6.485,6.485,0,0,1,1.439-4.485,5.091,5.091,0,0,1,4-1.606,4.981,4.981,0,0,1,3.926,1.644A6.467,6.467,0,0,1,25.932-5.9Zm-8.97,0a5.588,5.588,0,0,0,.9,3.438,3.132,3.132,0,0,0,2.653,1.182,3.153,3.153,0,0,0,2.659-1.176A5.56,5.56,0,0,0,24.084-5.9a5.47,5.47,0,0,0-.908-3.411,3.189,3.189,0,0,0-2.68-1.166,3.139,3.139,0,0,0-2.643,1.149A5.532,5.532,0,0,0,16.962-5.9ZM37.114,0V-7.616a3.073,3.073,0,0,0-.655-2.148,2.669,2.669,0,0,0-2.052-.709,3.384,3.384,0,0,0-2.707,1,5.044,5.044,0,0,0-.859,3.3V0H29.058V-11.773h1.45l.29,1.611h.086A3.641,3.641,0,0,1,32.42-11.51a4.991,4.991,0,0,1,2.2-.478,4.472,4.472,0,0,1,3.2,1.026A4.366,4.366,0,0,1,38.9-7.681V0Zm9.249-1.257a5.825,5.825,0,0,0,.913-.07,5.91,5.91,0,0,0,.7-.145V-.107a3.26,3.26,0,0,1-.854.231,6.413,6.413,0,0,1-1.015.091q-3.416,0-3.416-3.6v-7H41v-.859l1.687-.741.752-2.514h1.031v2.729h3.416v1.386H44.473v6.929a2.384,2.384,0,0,0,.5,1.633A1.757,1.757,0,0,0,46.363-1.257ZM60.489-5.9a6.5,6.5,0,0,1-1.45,4.5A5.107,5.107,0,0,1,55.032.215a5.307,5.307,0,0,1-2.8-.741,4.892,4.892,0,0,1-1.891-2.127A7.413,7.413,0,0,1,49.672-5.9a6.485,6.485,0,0,1,1.439-4.485,5.091,5.091,0,0,1,4-1.606,4.981,4.981,0,0,1,3.926,1.644A6.467,6.467,0,0,1,60.489-5.9Zm-8.97,0a5.588,5.588,0,0,0,.9,3.438,3.132,3.132,0,0,0,2.653,1.182,3.153,3.153,0,0,0,2.659-1.176A5.56,5.56,0,0,0,58.642-5.9a5.47,5.47,0,0,0-.908-3.411,3.189,3.189,0,0,0-2.68-1.166,3.139,3.139,0,0,0-2.643,1.149A5.532,5.532,0,0,0,51.52-5.9Zm17.467-6.091a6.978,6.978,0,0,1,1.407.129l-.247,1.654a6.074,6.074,0,0,0-1.289-.161,3.138,3.138,0,0,0-2.444,1.16A4.23,4.23,0,0,0,65.4-6.316V0H63.615V-11.773h1.472l.2,2.181h.086a5.175,5.175,0,0,1,1.579-1.772A3.555,3.555,0,0,1,68.986-11.988ZM80.652,0V-7.616A3.073,3.073,0,0,0,80-9.765a2.669,2.669,0,0,0-2.052-.709,3.384,3.384,0,0,0-2.707,1,5.044,5.044,0,0,0-.859,3.3V0H72.6V-11.773h1.45l.29,1.611h.086a3.641,3.641,0,0,1,1.536-1.348,4.991,4.991,0,0,1,2.2-.478,4.472,4.472,0,0,1,3.2,1.026,4.366,4.366,0,0,1,1.074,3.282V0ZM96.261-5.9a6.5,6.5,0,0,1-1.45,4.5A5.107,5.107,0,0,1,90.8.215,5.307,5.307,0,0,1,88-.526a4.892,4.892,0,0,1-1.891-2.127A7.413,7.413,0,0,1,85.443-5.9a6.485,6.485,0,0,1,1.439-4.485,5.091,5.091,0,0,1,4-1.606,4.981,4.981,0,0,1,3.926,1.644A6.467,6.467,0,0,1,96.261-5.9Zm-8.97,0a5.588,5.588,0,0,0,.9,3.438,3.132,3.132,0,0,0,2.653,1.182,3.153,3.153,0,0,0,2.659-1.176A5.56,5.56,0,0,0,94.413-5.9a5.47,5.47,0,0,0-.908-3.411,3.189,3.189,0,0,0-2.68-1.166,3.139,3.139,0,0,0-2.643,1.149A5.532,5.532,0,0,0,87.291-5.9Zm25.824,4.318h-.1a4.19,4.19,0,0,1-3.7,1.794,4.371,4.371,0,0,1-3.593-1.579,6.951,6.951,0,0,1-1.284-4.49,7.068,7.068,0,0,1,1.289-4.522,4.338,4.338,0,0,1,3.588-1.611A4.281,4.281,0,0,1,113-10.248h.14l-.075-.849-.043-.827v-4.791H114.8V0h-1.45Zm-3.566.3a3.247,3.247,0,0,0,2.648-.994,5.021,5.021,0,0,0,.822-3.207v-.376a5.908,5.908,0,0,0-.833-3.572,3.161,3.161,0,0,0-2.659-1.069,2.729,2.729,0,0,0-2.4,1.219,6.062,6.062,0,0,0-.833,3.443,5.812,5.812,0,0,0,.827,3.405A2.8,2.8,0,0,0,109.549-1.278ZM123.557.215a5.409,5.409,0,0,1-4.12-1.59,6.155,6.155,0,0,1-1.509-4.415,6.826,6.826,0,0,1,1.4-4.522,4.657,4.657,0,0,1,3.765-1.676,4.44,4.44,0,0,1,3.5,1.456,5.579,5.579,0,0,1,1.289,3.84v1.128h-8.11a4.667,4.667,0,0,0,1.047,3.147,3.622,3.622,0,0,0,2.8,1.074,9.483,9.483,0,0,0,3.76-.795v1.59a9.437,9.437,0,0,1-1.789.585A10.051,10.051,0,0,1,123.557.215Zm-.483-10.71a2.912,2.912,0,0,0-2.261.924,4.258,4.258,0,0,0-.994,2.557h6.155a3.921,3.921,0,0,0-.752-2.583A2.647,2.647,0,0,0,123.073-10.5Zm20.561-3.8a5.135,5.135,0,0,0-4.087,1.724,6.954,6.954,0,0,0-1.5,4.721,7.093,7.093,0,0,0,1.445,4.764,5.136,5.136,0,0,0,4.12,1.681A14.066,14.066,0,0,0,147.361-2V-.4a11.545,11.545,0,0,1-4.028.612,6.815,6.815,0,0,1-5.355-2.105,8.671,8.671,0,0,1-1.885-5.983A9.443,9.443,0,0,1,137-12.128a6.517,6.517,0,0,1,2.621-2.814,7.933,7.933,0,0,1,4.034-.988,9.733,9.733,0,0,1,4.318.9L147.2-13.46A8.324,8.324,0,0,0,143.634-14.3ZM157.76,0l-.354-1.676h-.086a4.954,4.954,0,0,1-1.756,1.5,5.353,5.353,0,0,1-2.186.392,3.932,3.932,0,0,1-2.745-.9,3.291,3.291,0,0,1-.994-2.567q0-3.566,5.7-3.738l2-.064v-.73a2.985,2.985,0,0,0-.6-2.046,2.452,2.452,0,0,0-1.907-.661,7.769,7.769,0,0,0-3.33.9l-.548-1.364a8.379,8.379,0,0,1,1.907-.741,8.258,8.258,0,0,1,2.079-.269,4.485,4.485,0,0,1,3.121.935,3.9,3.9,0,0,1,1.015,3V0Zm-4.028-1.257a3.619,3.619,0,0,0,2.616-.913,3.378,3.378,0,0,0,.951-2.557V-5.79l-1.783.075a6.486,6.486,0,0,0-3.067.661,1.992,1.992,0,0,0-.94,1.821,1.837,1.837,0,0,0,.585,1.472A2.43,2.43,0,0,0,153.731-1.257Zm17.037-.322h-.1a4.19,4.19,0,0,1-3.7,1.794,4.371,4.371,0,0,1-3.593-1.579,6.951,6.951,0,0,1-1.284-4.49,7.068,7.068,0,0,1,1.289-4.522,4.338,4.338,0,0,1,3.588-1.611,4.281,4.281,0,0,1,3.674,1.74h.14l-.075-.849-.043-.827v-4.791h1.783V0H171Zm-3.566.3a3.247,3.247,0,0,0,2.648-.994,5.021,5.021,0,0,0,.822-3.207v-.376a5.908,5.908,0,0,0-.833-3.572,3.161,3.161,0,0,0-2.659-1.069,2.729,2.729,0,0,0-2.4,1.219,6.063,6.063,0,0,0-.833,3.443,5.812,5.812,0,0,0,.827,3.405A2.8,2.8,0,0,0,167.2-1.278ZM181.21.215a5.409,5.409,0,0,1-4.12-1.59,6.155,6.155,0,0,1-1.509-4.415,6.826,6.826,0,0,1,1.4-4.522,4.657,4.657,0,0,1,3.765-1.676,4.44,4.44,0,0,1,3.5,1.456,5.579,5.579,0,0,1,1.289,3.84v1.128h-8.11a4.667,4.667,0,0,0,1.047,3.147,3.622,3.622,0,0,0,2.8,1.074,9.483,9.483,0,0,0,3.76-.795v1.59a9.436,9.436,0,0,1-1.789.585A10.051,10.051,0,0,1,181.21.215Zm-.483-10.71a2.912,2.912,0,0,0-2.261.924,4.258,4.258,0,0,0-.994,2.557h6.155a3.921,3.921,0,0,0-.752-2.583A2.647,2.647,0,0,0,180.727-10.5Zm13.224-1.493a6.978,6.978,0,0,1,1.407.129l-.247,1.654a6.074,6.074,0,0,0-1.289-.161,3.138,3.138,0,0,0-2.444,1.16,4.23,4.23,0,0,0-1.015,2.89V0h-1.783V-11.773h1.472l.2,2.181h.086a5.175,5.175,0,0,1,1.579-1.772A3.555,3.555,0,0,1,193.95-11.988ZM204.8,0l-.354-1.676h-.086a4.954,4.954,0,0,1-1.756,1.5,5.353,5.353,0,0,1-2.186.392,3.932,3.932,0,0,1-2.745-.9,3.291,3.291,0,0,1-.994-2.567q0-3.566,5.7-3.738l2-.064v-.73a2.985,2.985,0,0,0-.6-2.046,2.452,2.452,0,0,0-1.907-.661,7.769,7.769,0,0,0-3.33.9L198-10.957a8.379,8.379,0,0,1,1.907-.741,8.258,8.258,0,0,1,2.079-.269,4.485,4.485,0,0,1,3.121.935,3.9,3.9,0,0,1,1.015,3V0Zm-4.028-1.257a3.619,3.619,0,0,0,2.616-.913,3.378,3.378,0,0,0,.951-2.557V-5.79l-1.783.075a6.486,6.486,0,0,0-3.067.661,1.992,1.992,0,0,0-.94,1.821,1.837,1.837,0,0,0,.585,1.472A2.43,2.43,0,0,0,200.771-1.257Z" transform="translate(680 3988)" fill="#00223d"/>
    <path id="Trazado_13418" data-name="Trazado 13418" d="M8.884-14.3A5.135,5.135,0,0,0,4.8-12.574,6.954,6.954,0,0,0,3.3-7.853,7.093,7.093,0,0,0,4.743-3.088a5.136,5.136,0,0,0,4.12,1.681A14.066,14.066,0,0,0,12.611-2V-.4A11.545,11.545,0,0,1,8.583.215,6.815,6.815,0,0,1,3.228-1.891,8.671,8.671,0,0,1,1.343-7.874a9.444,9.444,0,0,1,.908-4.254,6.517,6.517,0,0,1,2.621-2.814,7.933,7.933,0,0,1,4.034-.988,9.733,9.733,0,0,1,4.318.9L12.45-13.46A8.324,8.324,0,0,0,8.884-14.3ZM25.932-5.9a6.5,6.5,0,0,1-1.45,4.5A5.107,5.107,0,0,1,20.475.215a5.307,5.307,0,0,1-2.8-.741A4.892,4.892,0,0,1,15.78-2.653,7.413,7.413,0,0,1,15.114-5.9a6.485,6.485,0,0,1,1.439-4.485,5.091,5.091,0,0,1,4-1.606,4.981,4.981,0,0,1,3.926,1.644A6.467,6.467,0,0,1,25.932-5.9Zm-8.97,0a5.588,5.588,0,0,0,.9,3.438,3.132,3.132,0,0,0,2.653,1.182,3.153,3.153,0,0,0,2.659-1.176A5.56,5.56,0,0,0,24.084-5.9a5.47,5.47,0,0,0-.908-3.411,3.189,3.189,0,0,0-2.68-1.166,3.139,3.139,0,0,0-2.643,1.149A5.532,5.532,0,0,0,16.962-5.9ZM37.114,0V-7.616a3.073,3.073,0,0,0-.655-2.148,2.669,2.669,0,0,0-2.052-.709,3.384,3.384,0,0,0-2.707,1,5.044,5.044,0,0,0-.859,3.3V0H29.058V-11.773h1.45l.29,1.611h.086A3.641,3.641,0,0,1,32.42-11.51a4.991,4.991,0,0,1,2.2-.478,4.472,4.472,0,0,1,3.2,1.026A4.366,4.366,0,0,1,38.9-7.681V0Zm9.249-1.257a5.825,5.825,0,0,0,.913-.07,5.91,5.91,0,0,0,.7-.145V-.107a3.26,3.26,0,0,1-.854.231,6.413,6.413,0,0,1-1.015.091q-3.416,0-3.416-3.6v-7H41v-.859l1.687-.741.752-2.514h1.031v2.729h3.416v1.386H44.473v6.929a2.384,2.384,0,0,0,.5,1.633A1.757,1.757,0,0,0,46.363-1.257ZM60.489-5.9a6.5,6.5,0,0,1-1.45,4.5A5.107,5.107,0,0,1,55.032.215a5.307,5.307,0,0,1-2.8-.741,4.892,4.892,0,0,1-1.891-2.127A7.413,7.413,0,0,1,49.672-5.9a6.485,6.485,0,0,1,1.439-4.485,5.091,5.091,0,0,1,4-1.606,4.981,4.981,0,0,1,3.926,1.644A6.467,6.467,0,0,1,60.489-5.9Zm-8.97,0a5.588,5.588,0,0,0,.9,3.438,3.132,3.132,0,0,0,2.653,1.182,3.153,3.153,0,0,0,2.659-1.176A5.56,5.56,0,0,0,58.642-5.9a5.47,5.47,0,0,0-.908-3.411,3.189,3.189,0,0,0-2.68-1.166,3.139,3.139,0,0,0-2.643,1.149A5.532,5.532,0,0,0,51.52-5.9Zm17.467-6.091a6.978,6.978,0,0,1,1.407.129l-.247,1.654a6.074,6.074,0,0,0-1.289-.161,3.138,3.138,0,0,0-2.444,1.16A4.23,4.23,0,0,0,65.4-6.316V0H63.615V-11.773h1.472l.2,2.181h.086a5.175,5.175,0,0,1,1.579-1.772A3.555,3.555,0,0,1,68.986-11.988ZM80.652,0V-7.616A3.073,3.073,0,0,0,80-9.765a2.669,2.669,0,0,0-2.052-.709,3.384,3.384,0,0,0-2.707,1,5.044,5.044,0,0,0-.859,3.3V0H72.6V-11.773h1.45l.29,1.611h.086a3.641,3.641,0,0,1,1.536-1.348,4.991,4.991,0,0,1,2.2-.478,4.472,4.472,0,0,1,3.2,1.026,4.366,4.366,0,0,1,1.074,3.282V0ZM96.261-5.9a6.5,6.5,0,0,1-1.45,4.5A5.107,5.107,0,0,1,90.8.215,5.307,5.307,0,0,1,88-.526a4.892,4.892,0,0,1-1.891-2.127A7.413,7.413,0,0,1,85.443-5.9a6.485,6.485,0,0,1,1.439-4.485,5.091,5.091,0,0,1,4-1.606,4.981,4.981,0,0,1,3.926,1.644A6.467,6.467,0,0,1,96.261-5.9Zm-8.97,0a5.588,5.588,0,0,0,.9,3.438,3.132,3.132,0,0,0,2.653,1.182,3.153,3.153,0,0,0,2.659-1.176A5.56,5.56,0,0,0,94.413-5.9a5.47,5.47,0,0,0-.908-3.411,3.189,3.189,0,0,0-2.68-1.166,3.139,3.139,0,0,0-2.643,1.149A5.532,5.532,0,0,0,87.291-5.9Zm25.824,4.318h-.1a4.19,4.19,0,0,1-3.7,1.794,4.371,4.371,0,0,1-3.593-1.579,6.951,6.951,0,0,1-1.284-4.49,7.068,7.068,0,0,1,1.289-4.522,4.338,4.338,0,0,1,3.588-1.611A4.281,4.281,0,0,1,113-10.248h.14l-.075-.849-.043-.827v-4.791H114.8V0h-1.45Zm-3.566.3a3.247,3.247,0,0,0,2.648-.994,5.021,5.021,0,0,0,.822-3.207v-.376a5.908,5.908,0,0,0-.833-3.572,3.161,3.161,0,0,0-2.659-1.069,2.729,2.729,0,0,0-2.4,1.219,6.062,6.062,0,0,0-.833,3.443,5.812,5.812,0,0,0,.827,3.405A2.8,2.8,0,0,0,109.549-1.278ZM123.557.215a5.409,5.409,0,0,1-4.12-1.59,6.155,6.155,0,0,1-1.509-4.415,6.826,6.826,0,0,1,1.4-4.522,4.657,4.657,0,0,1,3.765-1.676,4.44,4.44,0,0,1,3.5,1.456,5.579,5.579,0,0,1,1.289,3.84v1.128h-8.11a4.667,4.667,0,0,0,1.047,3.147,3.622,3.622,0,0,0,2.8,1.074,9.483,9.483,0,0,0,3.76-.795v1.59a9.437,9.437,0,0,1-1.789.585A10.051,10.051,0,0,1,123.557.215Zm-.483-10.71a2.912,2.912,0,0,0-2.261.924,4.258,4.258,0,0,0-.994,2.557h6.155a3.921,3.921,0,0,0-.752-2.583A2.647,2.647,0,0,0,123.073-10.5ZM136.909,0V-15.705h1.826V0Zm20.872,0V-7.659a3.179,3.179,0,0,0-.6-2.111,2.327,2.327,0,0,0-1.869-.7,3.018,3.018,0,0,0-2.46.956,4.544,4.544,0,0,0-.795,2.943V0h-1.783V-7.659a3.179,3.179,0,0,0-.6-2.111,2.341,2.341,0,0,0-1.88-.7,2.912,2.912,0,0,0-2.455,1,5.436,5.436,0,0,0-.779,3.292V0h-1.783V-11.773h1.45l.29,1.611h.086a3.5,3.5,0,0,1,1.423-1.343,4.348,4.348,0,0,1,2.057-.483q2.761,0,3.609,2h.086a3.754,3.754,0,0,1,1.525-1.461,4.733,4.733,0,0,1,2.277-.537,3.987,3.987,0,0,1,2.992,1.026,4.589,4.589,0,0,1,.994,3.282V0Zm10.936.215a5.1,5.1,0,0,1-2.1-.424,3.949,3.949,0,0,1-1.6-1.305h-.129A15.792,15.792,0,0,1,165.021.44V5.285h-1.783V-11.773h1.45l.247,1.611h.086a4.141,4.141,0,0,1,1.6-1.4,4.866,4.866,0,0,1,2.095-.43,4.351,4.351,0,0,1,3.615,1.6A7.047,7.047,0,0,1,173.6-5.9a7.005,7.005,0,0,1-1.294,4.506A4.359,4.359,0,0,1,168.717.215Zm-.258-10.688a3.16,3.16,0,0,0-2.61,1,5.141,5.141,0,0,0-.827,3.18v.4a5.892,5.892,0,0,0,.827,3.55A3.146,3.146,0,0,0,168.5-1.278a2.759,2.759,0,0,0,2.39-1.235,5.858,5.858,0,0,0,.865-3.405,5.638,5.638,0,0,0-.865-3.378A2.844,2.844,0,0,0,168.459-10.474ZM181.693.215a5.409,5.409,0,0,1-4.12-1.59,6.155,6.155,0,0,1-1.509-4.415,6.826,6.826,0,0,1,1.4-4.522,4.657,4.657,0,0,1,3.765-1.676,4.44,4.44,0,0,1,3.5,1.456,5.579,5.579,0,0,1,1.289,3.84v1.128h-8.11a4.667,4.667,0,0,0,1.047,3.147,3.622,3.622,0,0,0,2.8,1.074,9.483,9.483,0,0,0,3.76-.795v1.59a9.436,9.436,0,0,1-1.789.585A10.051,10.051,0,0,1,181.693.215ZM181.21-10.5a2.912,2.912,0,0,0-2.261.924,4.258,4.258,0,0,0-.994,2.557h6.155a3.921,3.921,0,0,0-.752-2.583A2.647,2.647,0,0,0,181.21-10.5Zm13.224-1.493a6.978,6.978,0,0,1,1.407.129l-.247,1.654a6.074,6.074,0,0,0-1.289-.161,3.138,3.138,0,0,0-2.444,1.16,4.23,4.23,0,0,0-1.015,2.89V0h-1.783V-11.773h1.472l.2,2.181h.086a5.175,5.175,0,0,1,1.579-1.772A3.555,3.555,0,0,1,194.434-11.988ZM199.826,0h-1.783V-11.773h1.783Zm-1.934-14.964a1.184,1.184,0,0,1,.3-.9,1.051,1.051,0,0,1,.752-.285,1.051,1.051,0,0,1,.741.29,1.163,1.163,0,0,1,.312.892,1.181,1.181,0,0,1-.312.9,1.04,1.04,0,0,1-.741.3,1.03,1.03,0,0,1-.752-.3A1.206,1.206,0,0,1,197.893-14.964ZM213.77-5.9a6.5,6.5,0,0,1-1.45,4.5A5.107,5.107,0,0,1,208.313.215a5.307,5.307,0,0,1-2.8-.741,4.892,4.892,0,0,1-1.891-2.127,7.413,7.413,0,0,1-.666-3.244,6.485,6.485,0,0,1,1.439-4.485,5.091,5.091,0,0,1,4-1.606,4.981,4.981,0,0,1,3.926,1.644A6.467,6.467,0,0,1,213.77-5.9Zm-8.97,0a5.588,5.588,0,0,0,.9,3.438,3.132,3.132,0,0,0,2.653,1.182,3.153,3.153,0,0,0,2.659-1.176,5.56,5.56,0,0,0,.908-3.443,5.47,5.47,0,0,0-.908-3.411,3.189,3.189,0,0,0-2.68-1.166,3.139,3.139,0,0,0-2.643,1.149A5.532,5.532,0,0,0,204.8-5.9Z" transform="translate(680 3885)" fill="#00223d"/>
    <path id="Trazado_12065" data-name="Trazado 12065" d="M6453.067,2604.794h400.879" transform="translate(-6205.067 1144)" fill="none" stroke="#00a99a" stroke-width="2" stroke-dasharray="3"/>
    <path id="Trazado_12066" data-name="Trazado 12066" d="M6453.067,2604.794h400.879" transform="translate(-6205.067 1230)" fill="none" stroke="#00a99a" stroke-width="2" stroke-dasharray="3"/>
    <path id="Trazado_12067" data-name="Trazado 12067" d="M6453.067,2604.794h400.879" transform="translate(-6205.067 1271)" fill="none" stroke="#00a99a" stroke-width="2" stroke-dasharray="3"/>
    <path id="Trazado_12068" data-name="Trazado 12068" d="M6453.067,2604.794h400.879" transform="translate(-6205.067 1308)" fill="none" stroke="#00a99a" stroke-width="2" stroke-dasharray="3"/>
    <path id="Trazado_12069" data-name="Trazado 12069" d="M6453.067,2604.794h400.879" transform="translate(-6205.067 1374)" fill="none" stroke="#00a99a" stroke-width="2" stroke-dasharray="3"/>
    <path id="Trazado_13411" data-name="Trazado 13411" d="M9,0l9,16H0Z" transform="translate(653.5 3739.5) rotate(90)" fill="#00a99a"/>
    <path id="Trazado_13412" data-name="Trazado 13412" d="M9,0l9,16H0Z" transform="translate(653.5 3825.5) rotate(90)" fill="#00a99a"/>
    <path id="Trazado_13413" data-name="Trazado 13413" d="M9,0l9,16H0Z" transform="translate(653.5 3866.5) rotate(90)" fill="#00a99a"/>
    <path id="Trazado_13414" data-name="Trazado 13414" d="M9,0l9,16H0Z" transform="translate(653.5 3903.5) rotate(90)" fill="#00a99a"/>
    <path id="Trazado_13420" data-name="Trazado 13420" d="M9,0l9,16H0Z" transform="translate(653.5 3968.5) rotate(90)" fill="#00a99a"/>
  </g>
</svg>
