<svg xmlns="http://www.w3.org/2000/svg" width="920" height="1005.653" viewBox="0 0 920 1005.653">
  <g id="Grupo_8384" data-name="Grupo 8384" transform="translate(-110 -2244)">
    <g id="Grupo_7561" data-name="Grupo 7561" transform="translate(0 29)">
      <rect id="Rect치ngulo_1837" data-name="Rect치ngulo 1837" width="920" height="514" transform="translate(110 2335)" fill="#fed97b"/>
      <rect id="Rect치ngulo_1838" data-name="Rect치ngulo 1838" width="920" height="5" transform="translate(110 2844)" fill="#00a99a"/>
    </g>
    <g id="Grupo_7546" data-name="Grupo 7546" transform="translate(-347.29 2333.152)">
      <path id="Trazado_11631" data-name="Trazado 11631" d="M581.221,903.6c1.5-1.083,5.606-2.447,6.786-3.134a24.651,24.651,0,0,1,7.7-2.581s5.177-3,7.813-4.062,8.672-2.649,11.8-3.881a67.475,67.475,0,0,0,8.093-3.532c2.17-1.232,21.382-10.234,23.364-11.117s8.257-3.532,12.879-5.47,7.766-3.624,10.21-6.453,2.691-8.2,2.691-8.2.648-9.937.407-15.367c-.256-5.681-.347-26-2.679-41.979-2.038-13.939-5.272-32.057-5.977-35.584s-3.86-21.826-4.372-30.3c-.146-2.454-1.595-16.313-2.508-33.9-.874-16.831-1.492-25.505-3.059-31.258-2.622-9.617-5.682-12.983-9.632-20.971-3.927-7.943-4.584-17.9-6.407-24.9-.854-3.28-8.113-32.285-8.113-32.285s-9.771-29.088-12.5-35.527c-5.289-12.467-14.389-44.468-14.4-44.5-5.436-20.92-6.541-29.932-7.853-51.7-.522-8.671,5.842-26.717,4.581-35.336-3.926-26.828.579-65.107,1.309-81.14,1.907-41.824-2-53.16-3.807-89.9-.434-8.834-2.852-37.111-2.852-37.111s-13.53-4.849-18.5-12.93c-5.109-8.3-6.289-15.559-3.292-24.851,1.962-6.081,8.408-16.781,16.787-25.015s35.849-30.867,42.714-36.5c10.146-8.323,28.807-20.974,28.469-27.183-1.182-21.721-6.011-25.5-9.155-31.275a16.491,16.491,0,0,0-6.962-7c-7.835-3.564-12.777-.381-12.777-.381l76.691-66.511s0,43.833.159,49.666,3.5,32,7.156,42.667,11.3,26.974,12.684,36.511c2.891,19.893-4.118,61.969-5.573,79.779-1.573,19.211-21.85,67.4-22.931,83.285-3.264,47.923,10.728,62.639,18.505,86.452,7.058,21.617,5.346,38.9-1.544,54.041-5.869,12.9-13.665,20.357-15.394,21.2a63.4,63.4,0,0,0,.511,6.616c.337,3.28.915,45.073,1.792,66.25.264,6.345,0,37.819-1.134,53.611s-3.02,40.313,2.49,57.068c.012.035.024.07.035.106,24.279,73.836,19.427,131.959,6.421,203.432-1.765,9.7-4.379,31.107-1.562,44.561,1.451,6.923,4.746,20.543,5.822,26.275,1.7,9.052-2.531,15.07-7.992,17.392-7.758,3.3-13.271,2.253-18.713,2.253-2.579,0-12.05-.871-18.117-1.16-3.4-.166-25.064,1.706-32.216,2.307a119.442,119.442,0,0,1-17.194.36,27.108,27.108,0,0,1-8.725-2.243c-.479,0-1.4,3.338-5.667,3.338a5.018,5.018,0,0,1-3.337-1.606,4.659,4.659,0,0,1-2.889,1.342c-2.236-.088-2.274-1.326-2.755-1.326s-1.333,1.6-4.03.974a4.627,4.627,0,0,1-2.13-1.52,10.342,10.342,0,0,1-1.942.731,4.894,4.894,0,0,1-2.9-.2,4.03,4.03,0,0,1-1.794-1.766,7.1,7.1,0,0,1-2.112-.2c-2.169-.849-2.813-1.567-3.378-2.667C579.444,907.779,579.723,904.689,581.221,903.6Z" fill="#fff" stroke="#3b1f10" stroke-linecap="round" stroke-linejoin="round" stroke-width="1.897"/>
      <path id="Trazado_11632" data-name="Trazado 11632" d="M600.969,459.645c-.684,1.6.316,5.28.486,6.438a68.383,68.383,0,0,0,1.033,7.527,120.476,120.476,0,0,0,4.215,12.482c.554,1.274,4.473,5.991,5.851,8.308s1.552,3.816,2.757,3.911,3.211-.517,2.667-3.182c-.212-1.044-1.805-3.958-2.151-5.116a46.059,46.059,0,0,0-3.441-6.368c-1.034-1.641-3.444-9.552-3.444-10.614s-1.548-3.86-1.548-3.86.516.867,1.118,1.737.948,3.667,1.206,4.632c.106.4.523,1.576.981,2.846.648,1.8,1.377,3.778,1.427,4.005a34.85,34.85,0,0,0,2.153,3.667c.343.482,2.324,4.632,2.668,5.4s2.647,4.281,2.99,4.957,1.571,3.535,2.432,4.114,1.807.386,3.184-.192,1.438-2.558,1.161-3.482c-.352-1.169-3.321-9.222-5.337-12.415-.857-1.357-2.632-10.247-3.808-14a2.746,2.746,0,0,0-.8-1.437,2.891,2.891,0,0,1,.931,1.507c1.269,3.383,2.689,11.7,4.24,13.844,1.522,2.107,6.6,8.831,7.116,10.277s1.834,3.388,3.814,3.292a2.539,2.539,0,0,0,2.622-2.356c.258-1.061-1.47-4.8-2.574-6.67a58.33,58.33,0,0,1-3.862-8.309c-.98-2.38-1.735-6.355-2.925-9.6-.693-1.885-1.288-2.223-1.288-2.223a3.967,3.967,0,0,1,.9,1.308c.614,1.125,1.118,3.7,1.817,5.278a35.251,35.251,0,0,0,2.683,5.106c1.059,1.726,4.821,6.183,5.6,7.148s2.016,2.5,3.136,2.016a3.183,3.183,0,0,0,1.65-3.454c-.585-1.989-4.032-6.09-5.451-9.777a23.256,23.256,0,0,1-1.644-9.259c0-3.762,3.438-11.7,4.3-18.845s-.513-13.9-.422-20.746c.11-8.222,1.113-10.142,2.39-14.987,2.54-9.642,13.322-34.965,20.851-55.823s11.786-54.355,12.791-58.745,2.142-5.82,4.152-10.76,1.533-16.654,3.041-23.241,5.213-21.286,8.254-39.1c3.078-18.026,9.263-40.668,9.263-40.668s-61.963-15.943-60.959-13.2,4.014,2.708,1.017,14.7c-7.7,30.8-3.425,82.078-3.929,88.665s-3.011,17.565-6.024,31.835-7.529,48.3-8.032,59.831c-.4,9.061-4.488,46.731-5.914,57.2-.7,5.148-4.784,13.967-7.022,19.66S602.021,457.186,600.969,459.645Z" transform="matrix(0.97, -0.242, 0.242, 0.97, -14.945, 164.089)" fill="#fff" stroke="#3b1f10" stroke-linecap="round" stroke-linejoin="round" stroke-width="1.716"/>
      <path id="Trazado_11633" data-name="Trazado 11633" d="M612.909,495.565s-.352-.96-.032-1.28a3.429,3.429,0,0,1,2.226-.665,4.676,4.676,0,0,1,2.039,2.358c.46.991.695,2.3-.2,2.715s-1.371.539-2.077.04C613.905,498.055,612.909,495.565,612.909,495.565Z" fill="#fff" stroke="#3b1f10" stroke-width="0.935"/>
      <path id="Trazado_11634" data-name="Trazado 11634" d="M620.1,496.217a2.268,2.268,0,0,1,2.356-1.518c.869-.021,1.467.838,1.917,1.478s1.383,2.565,1.639,3.076.224,1.514-.16,1.758c-1.638,1.038-2.237.959-2.836.6a6.742,6.742,0,0,1-1.638-1.9C620.9,498.942,619.743,497.123,620.1,496.217Z" fill="#fff" stroke="#3b1f10" stroke-width="0.935"/>
      <path id="Trazado_11635" data-name="Trazado 11635" d="M629.325,494.379a2.879,2.879,0,0,1,1.757-1.278,1.917,1.917,0,0,1,2,.24c.67.447,1.8,3.118,2.077,3.915.48,1.357.108,1.523-.319,1.8-2.117,1.358-2.778.457-3.076.08a19.1,19.1,0,0,1-1.319-1.917C630.059,496.639,629.057,495.044,629.325,494.379Z" fill="#fff" stroke="#3b1f10" stroke-width="0.935"/>
      <path id="Trazado_11636" data-name="Trazado 11636" d="M635.916,487.509a1.992,1.992,0,0,1,1.758-1.519c1.089-.063,1.55.5,2.276,1.439a7.946,7.946,0,0,1,1.159,2.237c.231.577-.7,1.237-1.079,1.4s-.825.57-1.837-.4C637.584,490.08,635.737,488.09,635.916,487.509Z" fill="#fff" stroke="#3b1f10" stroke-width="0.935"/>
      <path id="Trazado_11637" data-name="Trazado 11637" d="M586.4,208.367s4.048,3.857,12.456,4.421a23.73,23.73,0,0,0,15.263-4.306,51.662,51.662,0,0,0,7.223-6.334s-2.725,7.411-10.222,10.294c-4.563,1.755-8.15,3.076-15.686,1.922-2.939-.449-7.919-3.267-7.919-3.267Z" fill="#3b1f10"/>
      <path id="Trazado_11638" data-name="Trazado 11638" d="M605.767,263.619s3.468,7.358,9.052,16.663c3.259,5.43,7.171,8.713,11.188,7.706,1.252-.314-4.463-1.076-7.278-5.1s-3.2-4.9-6.3-9.557S605.767,263.619,605.767,263.619Z"/>
      <path id="Trazado_11639" data-name="Trazado 11639" d="M614.386,328.718a52.989,52.989,0,0,0-2.509,4.992,11.4,11.4,0,0,0-.536,6.536,36.174,36.174,0,0,0,1.741,4.111s-.535-4.007-.535-4.781a24.263,24.263,0,0,1,1.069-6.787C614.553,329.269,614.386,328.718,614.386,328.718Z"/>
      <path id="Trazado_11640" data-name="Trazado 11640" d="M641.319,393.012s9.627-22.1,12.381-30.192c3.475-10.209,5.43-15.422,6.95-22.372,2.79-12.754,4.779-23.459,4.779-23.459s-3.911,14.545-6.734,24.979c-2.415,8.936-6.472,20.439-7.168,22.59C649.139,371.942,641.319,393.012,641.319,393.012Z" fill="#3b1f10" fill-rule="evenodd"/>
      <path id="Trazado_11641" data-name="Trazado 11641" d="M660.036,100.751a111.756,111.756,0,0,1,12.886-3.118c5.323-.8,8.747-1.263,15.253,1.462s11.1,8.333,14.687,9.794c1.851.755,6.276,2.718,4.06,1.142-1.339-.954-11.191-9.037-14.822-11.211a26.044,26.044,0,0,0-15.76-3.507,40.523,40.523,0,0,0-9.569,2.069A30.094,30.094,0,0,0,660.036,100.751Z"/>
      <path id="Trazado_11642" data-name="Trazado 11642" d="M599.981-21.032S596.5-32.6,595.527-39.392s.527-17.866,3.881-21.888c2.819-3.379,7.117-6.9,12.293-7.873s9.057-2.265,10.675.97,5.824,13.911,4.206,16.822S599.981-21.032,599.981-21.032Z" fill="#3b1f10"/>
      <path id="Trazado_11643" data-name="Trazado 11643" d="M589.831,913.962a18.31,18.31,0,0,0,2.855-.984c.478.1.519.4.191.578a7.5,7.5,0,0,1-2.809,1.176,3.756,3.756,0,0,1-4.336-1.991,3.277,3.277,0,0,1,1.285-4.083c2.195-1.579,2.192-1.392,3.525-2.459.272-.218,1.352-1.461,1.815-1.89a39.061,39.061,0,0,1,3.7-2.33c.539-.308,1.684-1.1,1.684-1.1a.871.871,0,0,1-.209,1.1c-.56.576-4.378,2.418-5.1,3.648a9.161,9.161,0,0,1-2.528,2.224c-.265.164-2.522,1.2-3.012,1.963s-.711,1.393.178,3.052A3.369,3.369,0,0,0,589.831,913.962Z"/>
      <path id="Trazado_11644" data-name="Trazado 11644" d="M587.326,908.958s1,.265,1.28.357c.719.245,1.474.941,1.755.878a8.03,8.03,0,0,0,1.691-1.465,1.157,1.157,0,0,0-.223-1.479c-.115-.136-.276-.466-1.051-.406-.205.015-.5.366-1.436.912C589.025,907.94,587.326,908.958,587.326,908.958Z" fill="#fff" stroke="#3b1f10" stroke-linecap="round" stroke-linejoin="round" stroke-width="0.5"/>
      <path id="Trazado_11645" data-name="Trazado 11645" d="M595.847,915.118c1.3,0,2.382-1.214,2.616-1.178.432.072.485.348.2.529a7.375,7.375,0,0,1-2.934,1.331,3.517,3.517,0,0,1-3.521-1.692,4.28,4.28,0,0,1-.241-1.894,2.4,2.4,0,0,1,.708-1.585,19.838,19.838,0,0,0,3.585-3.016,21.663,21.663,0,0,1,1.493-1.736,34.992,34.992,0,0,1,3.212-2.378c.469-.318,1.459-1.119,1.459-1.119a.838.838,0,0,1-.134,1.037c-.476.566-3.271,2.367-4.4,3.685a17.331,17.331,0,0,1-2.159,2.356,9.386,9.386,0,0,0-2.607,1.985c-.4.74-.029,1.541.682,2.252C594.824,914.718,594.81,915.118,595.847,915.118Z"/>
      <path id="Trazado_11646" data-name="Trazado 11646" d="M593.455,910.493s.913.191,1.167.262c.657.187,1.369.793,1.619.72a7.473,7.473,0,0,0,1.446-1.46,1.1,1.1,0,0,0-.27-1.367c-.109-.12-.271-.419-.962-.32-.185.025-.43.368-1.248.931C594.933,909.449,593.455,910.493,593.455,910.493Z" fill="#fff" stroke="#3b1f10" stroke-linecap="round" stroke-linejoin="round" stroke-width="0.5"/>
      <path id="Trazado_11647" data-name="Trazado 11647" d="M601.536,914.359c.89.031,1.824-1.008,2.026-.987.373.042.426.27.185.431-.943.632-1.416,1.2-2.151,1.233a11.57,11.57,0,0,1-2.187-.246,2.7,2.7,0,0,1-1.206-1.036,2.28,2.28,0,0,1-.074-1.564,4.435,4.435,0,0,1,2.044-2.643,10.38,10.38,0,0,0,1.32-1.34,18.412,18.412,0,0,1,1.23-1.5,30.391,30.391,0,0,1,2.685-2.1c.393-.282,1.219-.985,1.219-.985a.68.68,0,0,1-.085.865c-.394.489-2.191,1.679-3.258,2.746a19.086,19.086,0,0,1-1.9,2.222,10.7,10.7,0,0,0-2.338,1.949,2.224,2.224,0,0,0,.856,2.466A2.42,2.42,0,0,0,601.536,914.359Z"/>
      <path id="Trazado_11648" data-name="Trazado 11648" d="M599.173,910.707s.787.121,1.007.17c.569.132,1.2.6,1.409.534a6.57,6.57,0,0,0,1.2-1.265.891.891,0,0,0-.269-1.124c-.1-.095-.246-.338-.834-.229-.159.028-.358.322-1.043.821C600.408,909.784,599.173,910.707,599.173,910.707Z" fill="#fff" stroke="#3b1f10" stroke-linecap="round" stroke-linejoin="round" stroke-width="0.5"/>
      <path id="Trazado_11649" data-name="Trazado 11649" d="M607.125,914.761a7.824,7.824,0,0,0,1.848-.058c.347,0,.758.249.546.409a3.238,3.238,0,0,1-2.443.569,4.438,4.438,0,0,1-1.9-.711,3.85,3.85,0,0,1-1.3-1.1,1.385,1.385,0,0,1-.3-.918,2.9,2.9,0,0,1,.452-1.39,25.689,25.689,0,0,1,2.63-2.611,15.729,15.729,0,0,1,1.02-1.306,29.879,29.879,0,0,1,2.356-2.04c.346-.278,1.068-.955,1.068-.955a.77.77,0,0,1,0,.894c-.334.452-2.946,2.331-3.318,3.229-.225.542-2.957,2.64-3.218,3.206a1.816,1.816,0,0,0,.521,1.713A3.864,3.864,0,0,0,607.125,914.761Z"/>
      <path id="Trazado_11650" data-name="Trazado 11650" d="M604.642,911.378s.734.024.942.043c.534.054,1.143.392,1.336.309a6.061,6.061,0,0,0,1.032-1.187.7.7,0,0,0-.32-.923c-.1-.07-.246-.261-.785-.109-.145.04-.312.309-.915.8C605.727,910.474,604.642,911.378,604.642,911.378Z" fill="#fff" stroke="#3b1f10" stroke-linecap="round" stroke-linejoin="round" stroke-width="0.5"/>
      <path id="Trazado_11651" data-name="Trazado 11651" d="M581.97,903.335a20.2,20.2,0,0,0,2.694,1.777,2.842,2.842,0,0,0,2.126-.3c.893-.458,3.575-1.8,4.077-2.843.4-.814-.451-1.679-1.45-1.777a4.38,4.38,0,0,0-1.483.131s-2.418.934-3.252,1.237a10.029,10.029,0,0,0-2.53,1.271A1.2,1.2,0,0,0,581.97,903.335Z" fill="#fff" stroke="#3b1f10" stroke-width="0.5"/>
      <path id="Trazado_11652" data-name="Trazado 11652" d="M701.757,849.242c.514,7.2,2.908,18.007,2.951,18.428.266,2.571.051,5.4-2.3,7.4-2.066,1.757-9.126,1.818-7.54,2.191,5.518,1.292,10.145-.583,11.083-3.794s-.017-5.921-1.064-12.227C704.36,858.078,700.991,838.525,701.757,849.242Z" fill="#3b1f10"/>
      <path id="Trazado_11653" data-name="Trazado 11653" d="M672.635,863.951a21.715,21.715,0,0,1,4.754-1.548,7.363,7.363,0,0,0-6.523.97,63.481,63.481,0,0,0-5.746,5.079A47.761,47.761,0,0,1,672.635,863.951Z" fill="#3b1f10" fill-rule="evenodd"/>
      <path id="Trazado_11654" data-name="Trazado 11654" d="M640.218,909.951s15.754-1.808,21.748-1.987c6.521-.194,16.882-.17,19.2,0,5.287.389,14.383,1.182,14.383,1.182a104.522,104.522,0,0,0-13.469-2.488,124.477,124.477,0,0,0-19.456-.391C653.855,907.018,640.218,909.951,640.218,909.951Z" fill="#3b1f10" fill-rule="evenodd"/>
      <path id="Trazado_11655" data-name="Trazado 11655" d="M695.552,591.922s2.107-22.655,2.592-31.775c.607-11.387.941-22.658.861-26.185-.322-13.951-1.737-30.036-1.737-30.036s.264,17.356-.069,28.906c-.284,9.892-.772,25.317-.858,27.734S695.552,591.922,695.552,591.922Z" fill-rule="evenodd"/>
      <path id="Trazado_11656" data-name="Trazado 11656" d="M693.743,432.369a17.621,17.621,0,0,1,3.738.561,19.471,19.471,0,0,1,3.738,1.633l.02,2.525a24.9,24.9,0,0,0-3.681-2.837C696.462,433.759,693.743,432.369,693.743,432.369Z" fill-rule="evenodd"/>
      <path id="Trazado_11657" data-name="Trazado 11657" d="M694.917,436.837a15.929,15.929,0,0,1,3.5.82,18.4,18.4,0,0,1,3.437,1.892l-.119,2.521a24.57,24.57,0,0,0-3.318-3.089C697.407,438.414,694.917,436.837,694.917,436.837Z" fill-rule="evenodd"/>
      <path id="Trazado_11658" data-name="Trazado 11658" d="M645.92,629.138a69.916,69.916,0,0,0-4.626-7.263c-2.461-2.77-3.486-3.9-3.486-3.9l-.924-3.18a32.14,32.14,0,0,1,5.539,6.564A31.037,31.037,0,0,1,645.92,629.138Z"/>
      <path id="Trazado_11659" data-name="Trazado 11659" d="M653.808,647.823s1.948,13.437.512,19.18l1.538,8.1C658.628,663.823,653.808,647.823,653.808,647.823Z"/>
      <path id="Trazado_11660" data-name="Trazado 11660" d="M602.965,35.814c1.54.637,2.2,2.471,2.2,4.471s-2.635,6.505-1.555,9.437c1.349,3.661,3.21,3.64,5.222,3.9,3.728.476,9.666-.667,15.666-2.667s16.668-5.666,23.668-9.333,15.855-8.057,21-11c13-7.439,21.135-14.333,30.968-26.667s11.7-30.5,13.365-42.666-1.333-30-9.333-36.667c-6.266-5.222-14.9-10.009-30.282-9.417-34.667,1.334-46.385,10.917-55.051,15.417S603.5-49.049,602.166-45.049s-2.143,17.6-1.667,22,2.385,9.142,2.385,10.212-2.008,5.39-4.385,9.788-7.383,12.915-7.5,14.46,2.069,3.384,4.993,4.4c2.212.767,2.377,5.231,2.021,6.538s-.713,3.923-.357,4.517a34.95,34.95,0,0,0,2.863,2.942,4.461,4.461,0,0,0-.886,2.778C599.859,34.665,601.454,35.189,602.965,35.814Z" fill="#fff" stroke="#3b1f10" stroke-linecap="round" stroke-linejoin="round" stroke-width="1.942"/>
      <path id="Trazado_11661" data-name="Trazado 11661" d="M723.574-38.994c-1.006-10.44-4.007-25.758-16.026-39.209-5.976-6.688-13.733-9.224-21.083-10.083a107.815,107.815,0,0,0-48.029,4.637c-13.99,4.7-21.673,7.793-29.34,13.459S596.789-59.6,597.03-54.211c.153,3.395,4.338,14.359,22.768,23.925,6.616,3.434,18.554,2.733,23.491,10.688,10.167,16.379,13.029,40.7,17.792,72.784,3.228,21.737,8.921,40.042,20.3,43.265,7.428,2.1,10.719,4.365,15.373,6.9,4.858,2.647,9.893,6.332,12.74,10.492,5.846,8.544,9.246,27.944,11.21,51.02,1.928,22.643,1.531,25.046,2.582,28.572.119.4.3-1.876,1.8-1.876,1.278,0,1.374,1.873,1.374,1.873s.28-2.032,1.553-1.948c1.126.075,1.2,1.876,1.2,1.876s.448-2.529,1.35-2.476c1.277.075,1.652,2.326,1.652,2.326s1.276-3,2.4-2.851c1.384.184,2.1,2.926,2.1,2.926s.672-3.677,1.576-3.752c1.8-.15,1.289,4.25,1.725,3.377,1.276-2.551.756-9.355,0-12.757-1.187-5.344-3.088-10.254-2.471-13.868,2.334-13.667,5.256-24.649,5.429-30.734.489-17.123-2.1-37.773-5.667-49.874-4.364-14.8-4.156-18.135-7.556-29.848C721.611,27.771,725.153-22.615,723.574-38.994Z" fill="#3b1f10"/>
      <path id="Trazado_11662" data-name="Trazado 11662" d="M628.362-23.083a26.483,26.483,0,0,0-7.381-1.457c-2.911-.253-5.775-.873-11.091.7-2.011.593-3.786,2.649-3.533,3.283s1.065.581,1.824.075,1.046-2.232,5.694-3.1a47.377,47.377,0,0,1,7.243-.091,67.494,67.494,0,0,1,6.925,1.047C628.916-22.475,628.909-22.851,628.362-23.083Z" fill="#3b1f10"/>
      <path id="Trazado_11663" data-name="Trazado 11663" d="M601.913,15.258a4.178,4.178,0,0,0-1.44-1.183,9.944,9.944,0,0,0-2.315-.771c-1.645-.38-3.067-.574-2.94.186s1.27,1.384,2.581,1.048A6.24,6.24,0,0,1,601.913,15.258Z" fill="#3b1f10"/>
      <path id="Trazado_11664" data-name="Trazado 11664" d="M606.1,11.591a4.141,4.141,0,0,1,.851,2.69c-.154,2.006-2.749,2.12-2.749,2.12a6.438,6.438,0,0,0,1.823-1.914A5.525,5.525,0,0,0,606.1,11.591Z" fill="#3b1f10"/>
      <path id="Trazado_11665" data-name="Trazado 11665" d="M612.708,29.486a4.183,4.183,0,0,0-.881-.7,5.245,5.245,0,0,0-1.267-.386c-.11,0-.127.111-.018.276s.734.477.734.606-.423.257-.973.147a28.194,28.194,0,0,1-3.562-1.836,26.229,26.229,0,0,0-4.245-1.974,7.449,7.449,0,0,0-3.247-.573c-.866.061-1.84.659-1.823,1.475.009.5.4,1.112,1.267,1.963.4.392,1.337,1.3,1.337,1.3-.138.33-.347.652-.642,1.459a4.129,4.129,0,0,0,.33,2.726,4.338,4.338,0,0,0,2.691,1.875,8.441,8.441,0,0,0,3.838-.226A8.166,8.166,0,0,0,609.98,32.5c.8-1.181,1.337-2.066,1.337-2.066s.681-.294.938,0,.564.964.674.762A2.242,2.242,0,0,0,612.708,29.486Z" fill="#3b1f10"/>
      <path id="Trazado_11666" data-name="Trazado 11666" d="M609.685,30.623a10.639,10.639,0,0,1-2.639-.244c-.826-.2-3.317-1.007-5.227-.5a2.312,2.312,0,0,0-1.667,1.753,2.556,2.556,0,0,0,.782,2.675,5.4,5.4,0,0,0,4.045.868,6.22,6.22,0,0,0,3.746-2.2,25.349,25.349,0,0,0,1.707-2.474S609.873,30.614,609.685,30.623Z" fill="#fff"/>
      <path id="Trazado_11667" data-name="Trazado 11667" d="M608.626,29.459c-.978-.422-2.621-1.42-3.682-1.945a18.181,18.181,0,0,0-5.087-1.6c-.77.018-1.419.15-1.51.573s.59,1.2.884,1.511,1.546,1.493,1.546,1.493a4.11,4.11,0,0,1,2.518-.695,17.28,17.28,0,0,1,4.046.816,11.269,11.269,0,0,0,2.743.33S608.978,29.611,608.626,29.459Z" fill="#fff"/>
      <g id="Grupo_7545" data-name="Grupo 7545">
        <path id="Trazado_11668" data-name="Trazado 11668" d="M613.3-5.968a4,4,0,0,0-2.715,1.292,3.85,3.85,0,0,0-.62,1.474,5.727,5.727,0,0,1,1.059-1.215,5.381,5.381,0,0,1,1.293-.492L611.723-3.8a3.3,3.3,0,0,0-.1,1.344s.673-1.215.957-1.577a4.755,4.755,0,0,1,1.709-1.33c1.211-.324,2.825-.217,3.417-.456a2.093,2.093,0,0,0,1.176-.894,4.11,4.11,0,0,1-1.621.405C615.653-6.1,614.851-6.253,613.3-5.968Z"/>
        <path id="Trazado_11669" data-name="Trazado 11669" d="M621.8-8.184a43.362,43.362,0,0,0-5.1-3.644,12.754,12.754,0,0,0-5.7-2.183,8.42,8.42,0,0,1-3.911-1.234,10.591,10.591,0,0,1-1.52-1.092,4.581,4.581,0,0,0,.854,1.37,9.909,9.909,0,0,0,2.663,1.81,3.072,3.072,0,0,1,.983.647A16.938,16.938,0,0,1,607.844-13a10.8,10.8,0,0,1-2.792-1.008c-.543-.44-.129.465.491.982a8.3,8.3,0,0,0,2.364,1.427,15.388,15.388,0,0,0,2.734.775,8.312,8.312,0,0,0,.461,1.884c.336.8.931,1.837,1.862,1.965a1.909,1.909,0,0,0,2.005-1.3,3.551,3.551,0,0,0,.046-2.187,3.835,3.835,0,0,1,1.99.392,1.55,1.55,0,0,1-.5.195c-.466.078-1.139.186-1.139.186a3.007,3.007,0,0,0,1.516.156,2.98,2.98,0,0,0,.758-.254c.172.083.349.17.538.267a1.74,1.74,0,0,1-.458.292,7.273,7.273,0,0,1-1.4.289,3.151,3.151,0,0,0,1.582.073,2.452,2.452,0,0,0,.822-.365c.21.113.419.229.632.346a1.867,1.867,0,0,1-.426.2,11.92,11.92,0,0,1-1.469.328,3.6,3.6,0,0,0,1.344.031c.449-.116.785-.224,1.006-.3l.564.318c-.111.032-.277.084-.539.17-.2.068-1.3.3-1.3.3a3.54,3.54,0,0,0,1.047.078,7.025,7.025,0,0,0,1.271-.271,14.87,14.87,0,0,0,1.415.752C622.79-7.106,622.578-7.512,621.8-8.184Zm-8.812.637s-.664,0-1.138-.9c-.223-.429.106-.568.313-.206s.43.749.719.812C613.384-7.736,613.56-7.573,612.99-7.547Zm1.068-1.594c-.137.456-.464.862-.956.655s-.015-.476.063-.813a3.24,3.24,0,0,0-.109-1.062s.434.012.578.031a2.271,2.271,0,0,1,.515.156A8.493,8.493,0,0,1,614.058-9.141Z"/>
      </g>
      <path id="Trazado_11670" data-name="Trazado 11670" d="M614.741-14.2c1.959.774,7.608,5.467,7.608,5.467a27.648,27.648,0,0,0-4.738-4.511c-2.482-1.732-2.777-1.7-4.419-2.1a7.275,7.275,0,0,0-3.745.213S611.373-15.529,614.741-14.2Z"/>
      <path id="Trazado_11671" data-name="Trazado 11671" d="M621.78-71.436s5.081,2.108,7.238,6.133c3.821,7.134,3.116,10.2,3.45,16.53a133.594,133.594,0,0,1-.118,13.367s-.457-20.41-4.195-27.31A51.752,51.752,0,0,0,621.78-71.436Z" fill="#fff"/>
      <path id="Trazado_11672" data-name="Trazado 11672" d="M702.47-74.935s10.063,14.661,11.356,40.966c.985,20.045-1.052,46.427-.719,62.093a195.559,195.559,0,0,0,4.744,38.092c2,9,5.981,21.735,5.981,21.735a192.589,192.589,0,0,1-12.307-55.227c-.995-16,1.151-53.613.145-68.274C710.4-54.1,702.47-74.935,702.47-74.935Z" fill="#fff"/>
      <path id="Trazado_11673" data-name="Trazado 11673" d="M683.064-77.092c6.9,8.194,13.657,20.987,16.819,55.486,1.075,11.727,2.261,40.26,3.162,62.379a435.118,435.118,0,0,0,4.456,47,354.505,354.505,0,0,1-5.75-41.829c-2.034-24.16-2.3-53.323-3.306-63.242-.794-7.83-3.593-32.2-8.05-42.548-6.5-15.1-12.217-21.706-12.217-21.706A32.864,32.864,0,0,1,683.064-77.092Z" fill="#fff"/>
      <path id="Trazado_11674" data-name="Trazado 11674" d="M642.529-76.227s6.537-.662,14.662,29.323c6.037,22.28,8.908,53.482,11.069,64.969,1.121,5.96,11.642,57.208,11.642,57.208s-3.261-10.844-6.9-26.88c-3.26-14.374-6.88-33.79-7.762-38.953-2.013-11.787-5.1-37.82-9.344-55.338C651.3-64.873,642.529-76.227,642.529-76.227Z" fill="#fff"/>
      <path id="Trazado_11675" data-name="Trazado 11675" d="M628.749,16.832a11.426,11.426,0,0,1,.327,5.175,25.346,25.346,0,0,1-.722,3.879s1.378-.773,1.8-3.608A6.3,6.3,0,0,0,628.749,16.832Z" fill="#3b1f10"/>
      <path id="Trazado_11676" data-name="Trazado 11676" d="M707.083,174.754a15.1,15.1,0,0,1-2.7,5.479,20.517,20.517,0,0,1-5.569,4.582l-2.336-1.078s4.958-2.152,6.648-3.773A33.415,33.415,0,0,0,707.083,174.754Z" fill="#3b1f10"/>
      <path id="Trazado_11677" data-name="Trazado 11677" d="M683.951,195.563l-41.809-19.312s-1.671-1.636-3.055-2.933a4.968,4.968,0,0,0-2.285-.975l-5.44-4.325,67.367,11.546Z" transform="matrix(0.985, -0.174, 0.174, 0.985, -9.835, 117.191)" fill="#fff"/>
      <path id="Trazado_11678" data-name="Trazado 11678" d="M591.879,183.7a6.18,6.18,0,0,1-10.456,2.544,5.639,5.639,0,0,1-1.015-3.007,9.873,9.873,0,0,0,3.165,2.314C587.233,187.273,591.879,183.7,591.879,183.7Z" fill="#3b1f10"/>
      <path id="Trazado_11679" data-name="Trazado 11679" d="M587.212,180.467a3.21,3.21,0,0,0-2.235-.672,2.3,2.3,0,0,0-1.507.954,1.745,1.745,0,0,1,1.461-1.61,2.037,2.037,0,0,1,1.656.343A2.743,2.743,0,0,1,587.212,180.467Z" fill="#3b1f10"/>
      <path id="Trazado_11680" data-name="Trazado 11680" d="M583.915,180.92a2.872,2.872,0,0,0,.641.781,1.483,1.483,0,0,0,1.671.016,2.114,2.114,0,0,0,.657-1s.218,1.156-.516,1.609a1.7,1.7,0,0,1-1.828-.031A2.145,2.145,0,0,1,583.915,180.92Z" fill="#3b1f10"/>
    </g>
    <g id="Grupo_7547" data-name="Grupo 7547" transform="translate(58 -1195)">
      <circle id="Elipse_496" data-name="Elipse 496" cx="15" cy="15" r="15" transform="translate(244 3669)" fill="#00a99a"/>
      <text id="_1" data-name="1" transform="translate(259 3691)" fill="#fff" font-size="20" font-family="OpenSans-Bold, Open Sans" font-weight="700"><tspan x="-5.708" y="0">1</tspan></text>
    </g>
    <g id="Grupo_7548" data-name="Grupo 7548" transform="translate(11 -1028)">
      <circle id="Elipse_496-2" data-name="Elipse 496" cx="15" cy="15" r="15" transform="translate(244 3669)" fill="#00a99a"/>
      <text id="_2" data-name="2" transform="translate(259 3691)" fill="#fff" font-size="20" font-family="OpenSans-Bold, Open Sans" font-weight="700"><tspan x="-5.708" y="0">2</tspan></text>
    </g>
    <g id="Grupo_7549" data-name="Grupo 7549" transform="translate(73 -934)">
      <circle id="Elipse_496-3" data-name="Elipse 496" cx="15" cy="15" r="15" transform="translate(244 3669)" fill="#00a99a"/>
      <text id="_3" data-name="3" transform="translate(259 3691)" fill="#fff" font-size="20" font-family="OpenSans-Bold, Open Sans" font-weight="700"><tspan x="-5.708" y="0">3</tspan></text>
    </g>
    <g id="Grupo_7550" data-name="Grupo 7550" transform="translate(16 -697)">
      <circle id="Elipse_496-4" data-name="Elipse 496" cx="15" cy="15" r="15" transform="translate(244 3669)" fill="#00a99a"/>
      <text id="_4" data-name="4" transform="translate(259 3691)" fill="#fff" font-size="20" font-family="OpenSans-Bold, Open Sans" font-weight="700"><tspan x="-5.708" y="0">4</tspan></text>
    </g>
    <g id="Grupo_7551" data-name="Grupo 7551" transform="translate(131 -744)">
      <circle id="Elipse_496-5" data-name="Elipse 496" cx="15" cy="15" r="15" transform="translate(244 3669)" fill="#00a99a"/>
      <text id="_5" data-name="5" transform="translate(259 3691)" fill="#fff" font-size="20" font-family="OpenSans-Bold, Open Sans" font-weight="700"><tspan x="-5.708" y="0">5</tspan></text>
    </g>
    <g id="Grupo_7552" data-name="Grupo 7552" transform="translate(12 -490)">
      <circle id="Elipse_496-6" data-name="Elipse 496" cx="15" cy="15" r="15" transform="translate(244 3669)" fill="#00a99a"/>
      <text id="_6" data-name="6" transform="translate(259 3691)" fill="#fff" font-size="20" font-family="OpenSans-Bold, Open Sans" font-weight="700"><tspan x="-5.708" y="0">6</tspan></text>
    </g>
    <g id="Grupo_7553" data-name="Grupo 7553" transform="translate(137 -458)">
      <circle id="Elipse_496-7" data-name="Elipse 496" cx="15" cy="15" r="15" transform="translate(244 3669)" fill="#00a99a"/>
      <text id="_7" data-name="7" transform="translate(260 3692)" fill="#fff" font-size="20" font-family="OpenSans-Bold, Open Sans" font-weight="700"><tspan x="-5.708" y="0">7</tspan></text>
    </g>
    <path id="Trazado_13361" data-name="Trazado 13361" d="M3.985,0H2.159V-15.705h8.755v1.622H3.985v5.747H10.5v1.622H3.985ZM23.407-5.9a6.5,6.5,0,0,1-1.45,4.5A5.107,5.107,0,0,1,17.95.215a5.307,5.307,0,0,1-2.8-.741,4.892,4.892,0,0,1-1.891-2.127A7.413,7.413,0,0,1,12.59-5.9a6.485,6.485,0,0,1,1.439-4.485,5.091,5.091,0,0,1,4-1.606,4.981,4.981,0,0,1,3.926,1.644A6.467,6.467,0,0,1,23.407-5.9Zm-8.97,0a5.588,5.588,0,0,0,.9,3.438,3.132,3.132,0,0,0,2.653,1.182,3.153,3.153,0,0,0,2.659-1.176A5.56,5.56,0,0,0,21.56-5.9a5.47,5.47,0,0,0-.908-3.411,3.189,3.189,0,0,0-2.68-1.166,3.139,3.139,0,0,0-2.643,1.149A5.532,5.532,0,0,0,14.438-5.9Zm19.69,2.686A2.949,2.949,0,0,1,32.9-.677a5.756,5.756,0,0,1-3.437.892,7.475,7.475,0,0,1-3.652-.741V-2.181a8.833,8.833,0,0,0,1.821.677,7.6,7.6,0,0,0,1.875.247A4.251,4.251,0,0,0,31.657-1.7a1.474,1.474,0,0,0,.752-1.359,1.475,1.475,0,0,0-.6-1.176,9.378,9.378,0,0,0-2.326-1.155,12.611,12.611,0,0,1-2.336-1.069A3.192,3.192,0,0,1,26.12-7.5a2.7,2.7,0,0,1-.338-1.386,2.642,2.642,0,0,1,1.171-2.272,5.456,5.456,0,0,1,3.212-.833,9.4,9.4,0,0,1,3.717.773l-.634,1.45a8.532,8.532,0,0,0-3.212-.73,3.7,3.7,0,0,0-1.912.4A1.229,1.229,0,0,0,27.479-9a1.334,1.334,0,0,0,.242.806,2.385,2.385,0,0,0,.779.634,17.4,17.4,0,0,0,2.063.87,7.705,7.705,0,0,1,2.831,1.536A2.709,2.709,0,0,1,34.128-3.212ZM44.269,0l-.354-1.676h-.086a4.954,4.954,0,0,1-1.756,1.5,5.353,5.353,0,0,1-2.186.392,3.932,3.932,0,0,1-2.745-.9,3.291,3.291,0,0,1-.994-2.567q0-3.566,5.7-3.738l2-.064v-.73a2.985,2.985,0,0,0-.6-2.046,2.452,2.452,0,0,0-1.907-.661,7.769,7.769,0,0,0-3.33.9l-.548-1.364a8.379,8.379,0,0,1,1.907-.741,8.258,8.258,0,0,1,2.079-.269,4.485,4.485,0,0,1,3.121.935,3.9,3.9,0,0,1,1.015,3V0ZM40.24-1.257a3.619,3.619,0,0,0,2.616-.913,3.378,3.378,0,0,0,.951-2.557V-5.79l-1.783.075a6.486,6.486,0,0,0-3.067.661,1.992,1.992,0,0,0-.94,1.821A1.837,1.837,0,0,0,38.6-1.762,2.43,2.43,0,0,0,40.24-1.257ZM62.219,0l-.354-1.676h-.086a4.954,4.954,0,0,1-1.756,1.5,5.353,5.353,0,0,1-2.186.392,3.932,3.932,0,0,1-2.745-.9A3.291,3.291,0,0,1,54.1-3.255q0-3.566,5.7-3.738l2-.064v-.73a2.985,2.985,0,0,0-.6-2.046A2.452,2.452,0,0,0,59.3-10.5a7.769,7.769,0,0,0-3.33.9l-.548-1.364a8.379,8.379,0,0,1,1.907-.741,8.258,8.258,0,0,1,2.079-.269,4.485,4.485,0,0,1,3.121.935,3.9,3.9,0,0,1,1.015,3V0ZM58.19-1.257a3.619,3.619,0,0,0,2.616-.913,3.378,3.378,0,0,0,.951-2.557V-5.79l-1.783.075a6.486,6.486,0,0,0-3.067.661,1.992,1.992,0,0,0-.94,1.821,1.837,1.837,0,0,0,.585,1.472A2.43,2.43,0,0,0,58.19-1.257Zm10.7-10.517v7.638a3.073,3.073,0,0,0,.655,2.148,2.669,2.669,0,0,0,2.052.709,3.348,3.348,0,0,0,2.7-1.01,5.094,5.094,0,0,0,.854-3.3v-6.187h1.783V0H75.464l-.258-1.579h-.1a3.554,3.554,0,0,1-1.52,1.332,5.109,5.109,0,0,1-2.218.462A4.5,4.5,0,0,1,68.154-.806a4.344,4.344,0,0,1-1.069-3.266v-7.7ZM83.553-6.026,79.46-11.773h2.03l3.1,4.512,3.094-4.512H89.7L85.6-6.026,89.912,0h-2.02l-3.3-4.77L81.265,0h-2.02ZM94.026,0H92.243V-11.773h1.783ZM92.093-14.964a1.184,1.184,0,0,1,.3-.9,1.051,1.051,0,0,1,.752-.285,1.051,1.051,0,0,1,.741.29,1.163,1.163,0,0,1,.312.892,1.181,1.181,0,0,1-.312.9,1.04,1.04,0,0,1-.741.3,1.03,1.03,0,0,1-.752-.3A1.206,1.206,0,0,1,92.093-14.964ZM99.591,0H97.808V-16.715h1.783Zm5.564,0h-1.783V-11.773h1.783Zm-1.934-14.964a1.184,1.184,0,0,1,.3-.9,1.051,1.051,0,0,1,.752-.285,1.051,1.051,0,0,1,.741.29,1.163,1.163,0,0,1,.312.892,1.181,1.181,0,0,1-.312.9,1.04,1.04,0,0,1-.741.3,1.03,1.03,0,0,1-.752-.3A1.206,1.206,0,0,1,103.222-14.964ZM116.177,0l-.354-1.676h-.086a4.954,4.954,0,0,1-1.756,1.5,5.353,5.353,0,0,1-2.186.392,3.932,3.932,0,0,1-2.745-.9,3.291,3.291,0,0,1-.994-2.567q0-3.566,5.7-3.738l2-.064v-.73a2.985,2.985,0,0,0-.6-2.046,2.452,2.452,0,0,0-1.907-.661,7.769,7.769,0,0,0-3.33.9l-.548-1.364a8.379,8.379,0,0,1,1.907-.741,8.258,8.258,0,0,1,2.079-.269,4.485,4.485,0,0,1,3.121.935,3.9,3.9,0,0,1,1.015,3V0Zm-4.028-1.257a3.619,3.619,0,0,0,2.616-.913,3.378,3.378,0,0,0,.951-2.557V-5.79l-1.783.075a6.486,6.486,0,0,0-3.067.661,1.992,1.992,0,0,0-.94,1.821,1.837,1.837,0,0,0,.585,1.472A2.43,2.43,0,0,0,112.148-1.257Zm14.395-10.731a6.978,6.978,0,0,1,1.407.129l-.247,1.654a6.074,6.074,0,0,0-1.289-.161,3.138,3.138,0,0,0-2.444,1.16,4.23,4.23,0,0,0-1.015,2.89V0h-1.783V-11.773h1.472l.2,2.181h.086a5.175,5.175,0,0,1,1.579-1.772A3.555,3.555,0,0,1,126.543-11.988Z" transform="translate(603 2485)" fill="#00223d"/>
    <g id="Grupo_7554" data-name="Grupo 7554" transform="translate(299 -1208)">
      <circle id="Elipse_496-8" data-name="Elipse 496" cx="15" cy="15" r="15" transform="translate(244 3669)" fill="#00a99a"/>
      <text id="_1-2" data-name="1" transform="translate(259 3691)" fill="#fff" font-size="20" font-family="OpenSans-Bold, Open Sans" font-weight="700"><tspan x="-5.708" y="0">1</tspan></text>
    </g>
    <path id="Trazado_13362" data-name="Trazado 13362" d="M6.993,0H5.167V-14.083H.193v-1.622H11.967v1.622H6.993ZM19.035.215a5.409,5.409,0,0,1-4.12-1.59A6.155,6.155,0,0,1,13.406-5.79a6.826,6.826,0,0,1,1.4-4.522,4.657,4.657,0,0,1,3.765-1.676,4.44,4.44,0,0,1,3.5,1.456,5.579,5.579,0,0,1,1.289,3.84v1.128h-8.11A4.667,4.667,0,0,0,16.3-2.417a3.622,3.622,0,0,0,2.8,1.074,9.483,9.483,0,0,0,3.76-.795v1.59a9.437,9.437,0,0,1-1.789.585A10.051,10.051,0,0,1,19.035.215ZM18.552-10.5a2.912,2.912,0,0,0-2.261.924A4.258,4.258,0,0,0,15.3-7.015h6.155A3.921,3.921,0,0,0,20.7-9.6,2.647,2.647,0,0,0,18.552-10.5Zm13.224-1.493a6.978,6.978,0,0,1,1.407.129l-.247,1.654a6.074,6.074,0,0,0-1.289-.161A3.138,3.138,0,0,0,29.2-9.206a4.23,4.23,0,0,0-1.015,2.89V0H26.4V-11.773h1.472l.2,2.181h.086a5.175,5.175,0,0,1,1.579-1.772A3.555,3.555,0,0,1,31.775-11.988ZM50.392,0V-7.659a3.179,3.179,0,0,0-.6-2.111,2.327,2.327,0,0,0-1.869-.7,3.018,3.018,0,0,0-2.46.956,4.544,4.544,0,0,0-.795,2.943V0H42.883V-7.659a3.179,3.179,0,0,0-.6-2.111,2.341,2.341,0,0,0-1.88-.7,2.912,2.912,0,0,0-2.455,1,5.436,5.436,0,0,0-.779,3.292V0H35.385V-11.773h1.45l.29,1.611h.086A3.5,3.5,0,0,1,38.634-11.5a4.348,4.348,0,0,1,2.057-.483q2.761,0,3.609,2h.086a3.754,3.754,0,0,1,1.525-1.461,4.733,4.733,0,0,1,2.277-.537,3.987,3.987,0,0,1,2.992,1.026,4.589,4.589,0,0,1,.994,3.282V0Zm7.24,0H55.849V-11.773h1.783ZM55.7-14.964a1.184,1.184,0,0,1,.3-.9,1.051,1.051,0,0,1,.752-.285,1.051,1.051,0,0,1,.741.29,1.163,1.163,0,0,1,.312.892,1.181,1.181,0,0,1-.312.9,1.04,1.04,0,0,1-.741.3,1.03,1.03,0,0,1-.752-.3A1.206,1.206,0,0,1,55.7-14.964ZM69.47,0V-7.616a3.073,3.073,0,0,0-.655-2.148,2.669,2.669,0,0,0-2.052-.709,3.384,3.384,0,0,0-2.707,1,5.044,5.044,0,0,0-.859,3.3V0H61.413V-11.773h1.45l.29,1.611h.086a3.641,3.641,0,0,1,1.536-1.348,4.991,4.991,0,0,1,2.2-.478,4.472,4.472,0,0,1,3.2,1.026,4.366,4.366,0,0,1,1.074,3.282V0ZM82.156,0,81.8-1.676h-.086a4.954,4.954,0,0,1-1.756,1.5,5.353,5.353,0,0,1-2.186.392,3.932,3.932,0,0,1-2.745-.9,3.291,3.291,0,0,1-.994-2.567q0-3.566,5.7-3.738l2-.064v-.73a2.985,2.985,0,0,0-.6-2.046,2.452,2.452,0,0,0-1.907-.661,7.769,7.769,0,0,0-3.33.9l-.548-1.364a8.379,8.379,0,0,1,1.907-.741,8.258,8.258,0,0,1,2.079-.269,4.485,4.485,0,0,1,3.121.935,3.9,3.9,0,0,1,1.015,3V0ZM78.128-1.257a3.619,3.619,0,0,0,2.616-.913,3.378,3.378,0,0,0,.951-2.557V-5.79l-1.783.075a6.486,6.486,0,0,0-3.067.661,1.992,1.992,0,0,0-.94,1.821,1.837,1.837,0,0,0,.585,1.472A2.43,2.43,0,0,0,78.128-1.257ZM91.856.215A5.025,5.025,0,0,1,87.9-1.359a6.472,6.472,0,0,1-1.4-4.453,6.673,6.673,0,0,1,1.423-4.565,5.125,5.125,0,0,1,4.055-1.611,8.047,8.047,0,0,1,1.7.183,5.591,5.591,0,0,1,1.332.43l-.548,1.515a8.385,8.385,0,0,0-1.289-.392,5.756,5.756,0,0,0-1.235-.156q-3.588,0-3.588,4.576a5.449,5.449,0,0,0,.875,3.33,3.046,3.046,0,0,0,2.594,1.16,7.932,7.932,0,0,0,3.019-.634V-.4A6.433,6.433,0,0,1,91.856.215ZM99.408,0H97.625V-11.773h1.783ZM97.475-14.964a1.184,1.184,0,0,1,.3-.9,1.051,1.051,0,0,1,.752-.285,1.051,1.051,0,0,1,.741.29,1.163,1.163,0,0,1,.312.892,1.181,1.181,0,0,1-.312.9,1.04,1.04,0,0,1-.741.3,1.03,1.03,0,0,1-.752-.3A1.206,1.206,0,0,1,97.475-14.964ZM113.352-5.9a6.5,6.5,0,0,1-1.45,4.5A5.107,5.107,0,0,1,107.895.215a5.307,5.307,0,0,1-2.8-.741A4.892,4.892,0,0,1,103.2-2.653a7.413,7.413,0,0,1-.666-3.244,6.485,6.485,0,0,1,1.439-4.485,5.091,5.091,0,0,1,4-1.606,4.981,4.981,0,0,1,3.926,1.644A6.467,6.467,0,0,1,113.352-5.9Zm-8.97,0a5.588,5.588,0,0,0,.9,3.438,3.132,3.132,0,0,0,2.653,1.182A3.153,3.153,0,0,0,110.6-2.455,5.56,5.56,0,0,0,111.5-5.9a5.47,5.47,0,0,0-.908-3.411,3.189,3.189,0,0,0-2.68-1.166,3.139,3.139,0,0,0-2.643,1.149A5.532,5.532,0,0,0,104.382-5.9Zm2.063-7.7q.516-.666,1.112-1.611a18.44,18.44,0,0,0,.94-1.644h2.17v.226a15.879,15.879,0,0,1-1.407,1.719,15.976,15.976,0,0,1-1.622,1.579h-1.192ZM124.534,0V-7.616a3.073,3.073,0,0,0-.655-2.148,2.669,2.669,0,0,0-2.052-.709,3.384,3.384,0,0,0-2.707,1,5.044,5.044,0,0,0-.859,3.3V0h-1.783V-11.773h1.45l.29,1.611h.086a3.641,3.641,0,0,1,1.536-1.348,4.991,4.991,0,0,1,2.2-.478,4.472,4.472,0,0,1,3.2,1.026,4.366,4.366,0,0,1,1.074,3.282V0Zm19.175-1.579h-.1a4.19,4.19,0,0,1-3.7,1.794,4.371,4.371,0,0,1-3.593-1.579,6.951,6.951,0,0,1-1.284-4.49,7.068,7.068,0,0,1,1.289-4.522,4.338,4.338,0,0,1,3.588-1.611,4.281,4.281,0,0,1,3.674,1.74h.14l-.075-.849-.043-.827v-4.791H145.4V0h-1.45Zm-3.566.3a3.247,3.247,0,0,0,2.648-.994,5.021,5.021,0,0,0,.822-3.207v-.376a5.908,5.908,0,0,0-.833-3.572,3.161,3.161,0,0,0-2.659-1.069,2.729,2.729,0,0,0-2.4,1.219,6.063,6.063,0,0,0-.833,3.443,5.812,5.812,0,0,0,.827,3.405A2.8,2.8,0,0,0,140.143-1.278ZM154.15.215a5.409,5.409,0,0,1-4.12-1.59,6.155,6.155,0,0,1-1.509-4.415,6.826,6.826,0,0,1,1.4-4.522,4.657,4.657,0,0,1,3.765-1.676,4.44,4.44,0,0,1,3.5,1.456,5.579,5.579,0,0,1,1.289,3.84v1.128h-8.11a4.667,4.667,0,0,0,1.047,3.147,3.622,3.622,0,0,0,2.8,1.074,9.483,9.483,0,0,0,3.76-.795v1.59a9.436,9.436,0,0,1-1.789.585A10.051,10.051,0,0,1,154.15.215Zm-.483-10.71a2.912,2.912,0,0,0-2.261.924,4.258,4.258,0,0,0-.994,2.557h6.155a3.921,3.921,0,0,0-.752-2.583A2.647,2.647,0,0,0,153.667-10.5ZM169.018,0h-1.783V-16.715h1.783Zm11.021,0-.354-1.676H179.6a4.954,4.954,0,0,1-1.756,1.5,5.353,5.353,0,0,1-2.186.392,3.932,3.932,0,0,1-2.745-.9,3.291,3.291,0,0,1-.994-2.567q0-3.566,5.7-3.738l2-.064v-.73a2.985,2.985,0,0,0-.6-2.046,2.452,2.452,0,0,0-1.907-.661,7.769,7.769,0,0,0-3.33.9l-.548-1.364a8.379,8.379,0,0,1,1.907-.741,8.258,8.258,0,0,1,2.079-.269,4.485,4.485,0,0,1,3.121.935,3.9,3.9,0,0,1,1.015,3V0Zm-4.028-1.257a3.619,3.619,0,0,0,2.616-.913,3.378,3.378,0,0,0,.951-2.557V-5.79l-1.783.075a6.486,6.486,0,0,0-3.067.661,1.992,1.992,0,0,0-.94,1.821,1.837,1.837,0,0,0,.585,1.472A2.43,2.43,0,0,0,176.011-1.257ZM196.12-11.988a6.978,6.978,0,0,1,1.407.129l-.247,1.654a6.074,6.074,0,0,0-1.289-.161,3.138,3.138,0,0,0-2.444,1.16,4.23,4.23,0,0,0-1.015,2.89V0h-1.783V-11.773h1.472l.2,2.181h.086a5.175,5.175,0,0,1,1.579-1.772A3.555,3.555,0,0,1,196.12-11.988ZM204.7.215a5.409,5.409,0,0,1-4.12-1.59,6.155,6.155,0,0,1-1.509-4.415,6.826,6.826,0,0,1,1.4-4.522,4.657,4.657,0,0,1,3.765-1.676,4.44,4.44,0,0,1,3.5,1.456,5.579,5.579,0,0,1,1.289,3.84v1.128h-8.11a4.667,4.667,0,0,0,1.047,3.147,3.622,3.622,0,0,0,2.8,1.074,9.483,9.483,0,0,0,3.76-.795v1.59a9.436,9.436,0,0,1-1.789.585A10.051,10.051,0,0,1,204.7.215ZM204.22-10.5a2.912,2.912,0,0,0-2.261.924,4.258,4.258,0,0,0-.994,2.557h6.155a3.921,3.921,0,0,0-.752-2.583A2.647,2.647,0,0,0,204.22-10.5Zm6.424,15.78a4.292,4.292,0,0,1-1.654-.269V3.566a5.23,5.23,0,0,0,1.461.215,1.536,1.536,0,0,0,1.23-.457,2.094,2.094,0,0,0,.392-1.391V-11.773h1.783V1.8Q213.855,5.285,210.644,5.285Zm1.278-20.249a1.184,1.184,0,0,1,.3-.9,1.051,1.051,0,0,1,.752-.285,1.051,1.051,0,0,1,.741.29,1.163,1.163,0,0,1,.312.892,1.181,1.181,0,0,1-.312.9,1.04,1.04,0,0,1-.741.3,1.03,1.03,0,0,1-.752-.3A1.206,1.206,0,0,1,211.922-14.964ZM224.877,0l-.354-1.676h-.086a4.954,4.954,0,0,1-1.756,1.5,5.353,5.353,0,0,1-2.186.392,3.932,3.932,0,0,1-2.745-.9,3.291,3.291,0,0,1-.994-2.567q0-3.566,5.7-3.738l2-.064v-.73a2.985,2.985,0,0,0-.6-2.046,2.452,2.452,0,0,0-1.907-.661,7.769,7.769,0,0,0-3.33.9l-.548-1.364a8.379,8.379,0,0,1,1.907-.741,8.258,8.258,0,0,1,2.079-.269,4.485,4.485,0,0,1,3.121.935,3.9,3.9,0,0,1,1.015,3V0Zm-4.028-1.257a3.619,3.619,0,0,0,2.616-.913,3.378,3.378,0,0,0,.951-2.557V-5.79l-1.783.075a6.486,6.486,0,0,0-3.067.661,1.992,1.992,0,0,0-.94,1.821,1.837,1.837,0,0,0,.585,1.472A2.43,2.43,0,0,0,220.849-1.257ZM240.292.215a5.025,5.025,0,0,1-3.958-1.574,6.472,6.472,0,0,1-1.4-4.453,6.673,6.673,0,0,1,1.423-4.565,5.125,5.125,0,0,1,4.055-1.611,8.047,8.047,0,0,1,1.7.183,5.591,5.591,0,0,1,1.332.43l-.548,1.515a8.384,8.384,0,0,0-1.289-.392,5.756,5.756,0,0,0-1.235-.156q-3.588,0-3.588,4.576a5.449,5.449,0,0,0,.875,3.33,3.046,3.046,0,0,0,2.594,1.16,7.932,7.932,0,0,0,3.019-.634V-.4A6.433,6.433,0,0,1,240.292.215ZM256.223-5.9a6.5,6.5,0,0,1-1.45,4.5A5.107,5.107,0,0,1,250.766.215a5.307,5.307,0,0,1-2.8-.741,4.892,4.892,0,0,1-1.891-2.127,7.413,7.413,0,0,1-.666-3.244,6.485,6.485,0,0,1,1.439-4.485,5.091,5.091,0,0,1,4-1.606,4.981,4.981,0,0,1,3.926,1.644A6.467,6.467,0,0,1,256.223-5.9Zm-8.97,0a5.588,5.588,0,0,0,.9,3.438,3.132,3.132,0,0,0,2.653,1.182,3.153,3.153,0,0,0,2.659-1.176,5.56,5.56,0,0,0,.908-3.443,5.47,5.47,0,0,0-.908-3.411,3.189,3.189,0,0,0-2.68-1.166,3.139,3.139,0,0,0-2.643,1.149A5.532,5.532,0,0,0,247.253-5.9Zm19.69,2.686a2.949,2.949,0,0,1-1.225,2.535,5.756,5.756,0,0,1-3.437.892,7.475,7.475,0,0,1-3.652-.741V-2.181a8.833,8.833,0,0,0,1.821.677,7.6,7.6,0,0,0,1.875.247,4.251,4.251,0,0,0,2.148-.446,1.474,1.474,0,0,0,.752-1.359,1.475,1.475,0,0,0-.6-1.176A9.378,9.378,0,0,0,262.3-5.393a12.611,12.611,0,0,1-2.336-1.069A3.192,3.192,0,0,1,258.935-7.5a2.7,2.7,0,0,1-.338-1.386,2.642,2.642,0,0,1,1.171-2.272,5.456,5.456,0,0,1,3.212-.833,9.4,9.4,0,0,1,3.717.773l-.634,1.45a8.532,8.532,0,0,0-3.212-.73,3.7,3.7,0,0,0-1.912.4,1.229,1.229,0,0,0-.645,1.1,1.334,1.334,0,0,0,.242.806,2.385,2.385,0,0,0,.779.634,17.4,17.4,0,0,0,2.063.87,7.705,7.705,0,0,1,2.831,1.536A2.709,2.709,0,0,1,266.943-3.212Zm6.7,1.955a5.825,5.825,0,0,0,.913-.07,5.911,5.911,0,0,0,.7-.145V-.107a3.26,3.26,0,0,1-.854.231,6.413,6.413,0,0,1-1.015.091q-3.416,0-3.416-3.6v-7h-1.687v-.859l1.687-.741.752-2.514h1.031v2.729h3.416v1.386h-3.416v6.929a2.384,2.384,0,0,0,.5,1.633A1.757,1.757,0,0,0,273.646-1.257ZM284.851,0,284.5-1.676h-.086a4.954,4.954,0,0,1-1.756,1.5,5.353,5.353,0,0,1-2.186.392,3.932,3.932,0,0,1-2.745-.9,3.291,3.291,0,0,1-.994-2.567q0-3.566,5.7-3.738l2-.064v-.73a2.985,2.985,0,0,0-.6-2.046,2.452,2.452,0,0,0-1.907-.661,7.769,7.769,0,0,0-3.33.9l-.548-1.364a8.38,8.38,0,0,1,1.907-.741,8.258,8.258,0,0,1,2.079-.269,4.485,4.485,0,0,1,3.121.935,3.9,3.9,0,0,1,1.015,3V0Zm-4.028-1.257a3.619,3.619,0,0,0,2.616-.913,3.378,3.378,0,0,0,.951-2.557V-5.79l-1.783.075a6.486,6.486,0,0,0-3.067.661,1.992,1.992,0,0,0-.94,1.821,1.837,1.837,0,0,0,.585,1.472A2.43,2.43,0,0,0,280.822-1.257ZM291.629,0h-1.783V-16.715h1.783Z" transform="translate(603 2531)" fill="#00223d"/>
    <g id="Grupo_7555" data-name="Grupo 7555" transform="translate(299 -1162)">
      <circle id="Elipse_496-9" data-name="Elipse 496" cx="15" cy="15" r="15" transform="translate(244 3669)" fill="#00a99a"/>
      <text id="_2-2" data-name="2" transform="translate(259 3691)" fill="#fff" font-size="20" font-family="OpenSans-Bold, Open Sans" font-weight="700"><tspan x="-5.708" y="0">2</tspan></text>
    </g>
    <path id="Trazado_13363" data-name="Trazado 13363" d="M12.031,0,10.076-5H3.781L1.848,0H0L6.209-15.77H7.745L13.922,0ZM9.507-6.639,7.681-11.5q-.354-.924-.73-2.267A20.354,20.354,0,0,1,6.273-11.5L4.426-6.639ZM21.291.215a5.1,5.1,0,0,1-2.1-.424,3.949,3.949,0,0,1-1.6-1.305h-.129A15.792,15.792,0,0,1,17.6.44V5.285H15.813V-11.773h1.45l.247,1.611H17.6a4.141,4.141,0,0,1,1.6-1.4,4.866,4.866,0,0,1,2.095-.43,4.351,4.351,0,0,1,3.615,1.6A7.047,7.047,0,0,1,26.179-5.9a7.006,7.006,0,0,1-1.294,4.506A4.359,4.359,0,0,1,21.291.215Zm-.258-10.688a3.16,3.16,0,0,0-2.61,1,5.141,5.141,0,0,0-.827,3.18v.4a5.892,5.892,0,0,0,.827,3.55,3.146,3.146,0,0,0,2.653,1.069,2.759,2.759,0,0,0,2.39-1.235,5.858,5.858,0,0,0,.865-3.405A5.638,5.638,0,0,0,23.466-9.3,2.844,2.844,0,0,0,21.033-10.474ZM39.456-5.9a6.5,6.5,0,0,1-1.45,4.5A5.107,5.107,0,0,1,34,.215a5.307,5.307,0,0,1-2.8-.741A4.892,4.892,0,0,1,29.3-2.653,7.413,7.413,0,0,1,28.639-5.9a6.485,6.485,0,0,1,1.439-4.485,5.091,5.091,0,0,1,4-1.606A4.981,4.981,0,0,1,38-10.345,6.467,6.467,0,0,1,39.456-5.9Zm-8.97,0a5.588,5.588,0,0,0,.9,3.438,3.132,3.132,0,0,0,2.653,1.182A3.153,3.153,0,0,0,36.7-2.455,5.56,5.56,0,0,0,37.608-5.9,5.47,5.47,0,0,0,36.7-9.308a3.189,3.189,0,0,0-2.68-1.166,3.139,3.139,0,0,0-2.643,1.149A5.532,5.532,0,0,0,30.486-5.9Zm2.063-7.7q.516-.666,1.112-1.611a18.441,18.441,0,0,0,.94-1.644h2.17v.226a15.88,15.88,0,0,1-1.407,1.719,15.977,15.977,0,0,1-1.622,1.579H32.549Zm15.34,3.212h-3V0H43.108V-10.388H41v-.806l2.105-.645v-.655q0-4.34,3.792-4.34a7.8,7.8,0,0,1,2.191.376l-.462,1.429a5.9,5.9,0,0,0-1.762-.333,1.716,1.716,0,0,0-1.493.671,3.747,3.747,0,0,0-.483,2.154v.763h3ZM51.82,0H50.037V-11.773H51.82ZM49.887-14.964a1.184,1.184,0,0,1,.3-.9,1.051,1.051,0,0,1,.752-.285,1.051,1.051,0,0,1,.741.29,1.163,1.163,0,0,1,.312.892,1.181,1.181,0,0,1-.312.9,1.04,1.04,0,0,1-.741.3,1.03,1.03,0,0,1-.752-.3A1.206,1.206,0,0,1,49.887-14.964ZM63.2-3.212A2.949,2.949,0,0,1,61.972-.677a5.756,5.756,0,0,1-3.437.892,7.475,7.475,0,0,1-3.652-.741V-2.181A8.832,8.832,0,0,0,56.7-1.5a7.6,7.6,0,0,0,1.875.247A4.251,4.251,0,0,0,60.726-1.7a1.474,1.474,0,0,0,.752-1.359,1.475,1.475,0,0,0-.6-1.176,9.378,9.378,0,0,0-2.326-1.155,12.611,12.611,0,0,1-2.336-1.069A3.192,3.192,0,0,1,55.188-7.5a2.7,2.7,0,0,1-.338-1.386,2.642,2.642,0,0,1,1.171-2.272,5.456,5.456,0,0,1,3.212-.833,9.4,9.4,0,0,1,3.717.773l-.634,1.45A8.532,8.532,0,0,0,59.1-10.5a3.7,3.7,0,0,0-1.912.4A1.229,1.229,0,0,0,56.547-9a1.334,1.334,0,0,0,.242.806,2.385,2.385,0,0,0,.779.634,17.4,17.4,0,0,0,2.063.87A7.705,7.705,0,0,1,62.46-5.156,2.709,2.709,0,0,1,63.2-3.212ZM67.88,0H66.1V-11.773H67.88ZM65.946-14.964a1.184,1.184,0,0,1,.3-.9A1.051,1.051,0,0,1,67-16.146a1.051,1.051,0,0,1,.741.29,1.163,1.163,0,0,1,.312.892,1.181,1.181,0,0,1-.312.9,1.04,1.04,0,0,1-.741.3,1.03,1.03,0,0,1-.752-.3A1.206,1.206,0,0,1,65.946-14.964ZM79.256-3.212A2.949,2.949,0,0,1,78.031-.677a5.756,5.756,0,0,1-3.437.892,7.475,7.475,0,0,1-3.652-.741V-2.181a8.833,8.833,0,0,0,1.821.677,7.6,7.6,0,0,0,1.875.247A4.251,4.251,0,0,0,76.785-1.7a1.474,1.474,0,0,0,.752-1.359,1.475,1.475,0,0,0-.6-1.176,9.378,9.378,0,0,0-2.326-1.155,12.611,12.611,0,0,1-2.336-1.069A3.192,3.192,0,0,1,71.248-7.5a2.7,2.7,0,0,1-.338-1.386,2.642,2.642,0,0,1,1.171-2.272,5.456,5.456,0,0,1,3.212-.833,9.4,9.4,0,0,1,3.717.773l-.634,1.45a8.532,8.532,0,0,0-3.212-.73,3.7,3.7,0,0,0-1.912.4A1.229,1.229,0,0,0,72.606-9a1.334,1.334,0,0,0,.242.806,2.385,2.385,0,0,0,.779.634,17.4,17.4,0,0,0,2.063.87A7.705,7.705,0,0,1,78.52-5.156,2.709,2.709,0,0,1,79.256-3.212ZM92.845.215a5.409,5.409,0,0,1-4.12-1.59A6.155,6.155,0,0,1,87.216-5.79a6.826,6.826,0,0,1,1.4-4.522,4.657,4.657,0,0,1,3.765-1.676,4.44,4.44,0,0,1,3.5,1.456,5.579,5.579,0,0,1,1.289,3.84v1.128h-8.11a4.667,4.667,0,0,0,1.047,3.147,3.622,3.622,0,0,0,2.8,1.074,9.483,9.483,0,0,0,3.76-.795v1.59A9.437,9.437,0,0,1,94.88.038,10.051,10.051,0,0,1,92.845.215ZM92.361-10.5a2.912,2.912,0,0,0-2.261.924,4.258,4.258,0,0,0-.994,2.557h6.155A3.921,3.921,0,0,0,94.51-9.6,2.647,2.647,0,0,0,92.361-10.5Zm15.447,7.283a2.949,2.949,0,0,1-1.225,2.535,5.756,5.756,0,0,1-3.437.892,7.475,7.475,0,0,1-3.652-.741V-2.181a8.833,8.833,0,0,0,1.821.677,7.6,7.6,0,0,0,1.875.247,4.251,4.251,0,0,0,2.148-.446,1.474,1.474,0,0,0,.752-1.359,1.475,1.475,0,0,0-.6-1.176,9.378,9.378,0,0,0-2.326-1.155,12.611,12.611,0,0,1-2.336-1.069A3.192,3.192,0,0,1,99.8-7.5a2.7,2.7,0,0,1-.338-1.386,2.642,2.642,0,0,1,1.171-2.272,5.456,5.456,0,0,1,3.212-.833,9.4,9.4,0,0,1,3.717.773l-.634,1.45a8.532,8.532,0,0,0-3.212-.73,3.7,3.7,0,0,0-1.912.4,1.229,1.229,0,0,0-.645,1.1,1.334,1.334,0,0,0,.242.806,2.385,2.385,0,0,0,.779.634,17.4,17.4,0,0,0,2.063.87,7.705,7.705,0,0,1,2.831,1.536A2.709,2.709,0,0,1,107.809-3.212Zm6.7,1.955a5.825,5.825,0,0,0,.913-.07,5.911,5.911,0,0,0,.7-.145V-.107a3.26,3.26,0,0,1-.854.231,6.413,6.413,0,0,1-1.015.091q-3.416,0-3.416-3.6v-7h-1.687v-.859l1.687-.741.752-2.514h1.031v2.729h3.416v1.386h-3.416v6.929a2.384,2.384,0,0,0,.5,1.633A1.757,1.757,0,0,0,114.512-1.257ZM120.259,0h-1.783V-11.773h1.783Zm-1.934-14.964a1.184,1.184,0,0,1,.3-.9,1.051,1.051,0,0,1,.752-.285,1.051,1.051,0,0,1,.741.29,1.163,1.163,0,0,1,.312.892,1.181,1.181,0,0,1-.312.9,1.04,1.04,0,0,1-.741.3,1.03,1.03,0,0,1-.752-.3A1.206,1.206,0,0,1,118.325-14.964ZM125.823,0H124.04V-16.715h1.783Zm13.943-5.9a6.5,6.5,0,0,1-1.45,4.5A5.107,5.107,0,0,1,134.31.215a5.307,5.307,0,0,1-2.8-.741,4.892,4.892,0,0,1-1.891-2.127,7.413,7.413,0,0,1-.666-3.244,6.485,6.485,0,0,1,1.439-4.485,5.091,5.091,0,0,1,4-1.606,4.981,4.981,0,0,1,3.926,1.644A6.467,6.467,0,0,1,139.767-5.9Zm-8.97,0a5.588,5.588,0,0,0,.9,3.438,3.132,3.132,0,0,0,2.653,1.182,3.153,3.153,0,0,0,2.659-1.176,5.56,5.56,0,0,0,.908-3.443,5.47,5.47,0,0,0-.908-3.411,3.189,3.189,0,0,0-2.68-1.166,3.139,3.139,0,0,0-2.643,1.149A5.532,5.532,0,0,0,130.8-5.9ZM144.676,0h-1.783V-11.773h1.783Zm-1.934-14.964a1.184,1.184,0,0,1,.3-.9,1.051,1.051,0,0,1,.752-.285,1.051,1.051,0,0,1,.741.29,1.163,1.163,0,0,1,.312.892,1.181,1.181,0,0,1-.312.9,1.04,1.04,0,0,1-.741.3,1.03,1.03,0,0,1-.752-.3A1.206,1.206,0,0,1,142.742-14.964ZM156.471-1.579h-.1a4.19,4.19,0,0,1-3.7,1.794,4.371,4.371,0,0,1-3.593-1.579,6.951,6.951,0,0,1-1.284-4.49,7.068,7.068,0,0,1,1.289-4.522,4.338,4.338,0,0,1,3.588-1.611,4.281,4.281,0,0,1,3.674,1.74h.14l-.075-.849-.043-.827v-4.791h1.783V0h-1.45Zm-3.566.3a3.247,3.247,0,0,0,2.648-.994,5.021,5.021,0,0,0,.822-3.207v-.376a5.908,5.908,0,0,0-.833-3.572,3.161,3.161,0,0,0-2.659-1.069,2.729,2.729,0,0,0-2.4,1.219,6.063,6.063,0,0,0-.833,3.443,5.812,5.812,0,0,0,.827,3.405A2.8,2.8,0,0,0,152.9-1.278ZM166.912.215a5.409,5.409,0,0,1-4.12-1.59,6.155,6.155,0,0,1-1.509-4.415,6.826,6.826,0,0,1,1.4-4.522,4.657,4.657,0,0,1,3.765-1.676,4.44,4.44,0,0,1,3.5,1.456,5.579,5.579,0,0,1,1.289,3.84v1.128h-8.11a4.667,4.667,0,0,0,1.047,3.147,3.622,3.622,0,0,0,2.8,1.074,9.483,9.483,0,0,0,3.76-.795v1.59a9.436,9.436,0,0,1-1.789.585A10.051,10.051,0,0,1,166.912.215Zm-.483-10.71a2.912,2.912,0,0,0-2.261.924,4.258,4.258,0,0,0-.994,2.557h6.155a3.921,3.921,0,0,0-.752-2.583A2.647,2.647,0,0,0,166.429-10.5ZM188.01-1.579h-.1a4.19,4.19,0,0,1-3.7,1.794,4.371,4.371,0,0,1-3.593-1.579,6.951,6.951,0,0,1-1.284-4.49,7.068,7.068,0,0,1,1.289-4.522,4.338,4.338,0,0,1,3.588-1.611,4.281,4.281,0,0,1,3.674,1.74h.14l-.075-.849-.043-.827v-4.791H189.7V0h-1.45Zm-3.566.3a3.247,3.247,0,0,0,2.648-.994,5.021,5.021,0,0,0,.822-3.207v-.376a5.908,5.908,0,0,0-.833-3.572,3.161,3.161,0,0,0-2.659-1.069,2.729,2.729,0,0,0-2.4,1.219,6.063,6.063,0,0,0-.833,3.443,5.812,5.812,0,0,0,.827,3.405A2.8,2.8,0,0,0,184.443-1.278ZM198.451.215a5.409,5.409,0,0,1-4.12-1.59,6.155,6.155,0,0,1-1.509-4.415,6.826,6.826,0,0,1,1.4-4.522,4.657,4.657,0,0,1,3.765-1.676,4.44,4.44,0,0,1,3.5,1.456,5.579,5.579,0,0,1,1.289,3.84v1.128h-8.11a4.667,4.667,0,0,0,1.047,3.147,3.622,3.622,0,0,0,2.8,1.074,9.483,9.483,0,0,0,3.76-.795v1.59a9.436,9.436,0,0,1-1.789.585A10.051,10.051,0,0,1,198.451.215Zm-.483-10.71a2.912,2.912,0,0,0-2.261.924,4.258,4.258,0,0,0-.994,2.557h6.155a3.921,3.921,0,0,0-.752-2.583A2.647,2.647,0,0,0,197.968-10.5ZM207.6,0H205.82V-16.715H207.6Zm14.867-11.988a6.978,6.978,0,0,1,1.407.129l-.247,1.654a6.074,6.074,0,0,0-1.289-.161,3.138,3.138,0,0,0-2.444,1.16,4.23,4.23,0,0,0-1.015,2.89V0H217.1V-11.773h1.472l.2,2.181h.086a5.175,5.175,0,0,1,1.579-1.772A3.555,3.555,0,0,1,222.471-11.988ZM233.32,0l-.354-1.676h-.086a4.954,4.954,0,0,1-1.756,1.5,5.353,5.353,0,0,1-2.186.392,3.932,3.932,0,0,1-2.745-.9,3.291,3.291,0,0,1-.994-2.567q0-3.566,5.7-3.738l2-.064v-.73a2.985,2.985,0,0,0-.6-2.046A2.452,2.452,0,0,0,230.4-10.5a7.769,7.769,0,0,0-3.33.9l-.548-1.364a8.379,8.379,0,0,1,1.907-.741,8.258,8.258,0,0,1,2.079-.269,4.485,4.485,0,0,1,3.121.935,3.9,3.9,0,0,1,1.015,3V0Zm-4.028-1.257a3.619,3.619,0,0,0,2.616-.913,3.378,3.378,0,0,0,.951-2.557V-5.79l-1.783.075a6.486,6.486,0,0,0-3.067.661,1.992,1.992,0,0,0-.94,1.821,1.837,1.837,0,0,0,.585,1.472A2.43,2.43,0,0,0,229.292-1.257Zm17.037-.322h-.1a4.19,4.19,0,0,1-3.7,1.794,4.371,4.371,0,0,1-3.593-1.579,6.951,6.951,0,0,1-1.284-4.49,7.068,7.068,0,0,1,1.289-4.522,4.338,4.338,0,0,1,3.588-1.611,4.281,4.281,0,0,1,3.674,1.74h.14l-.075-.849-.043-.827v-4.791h1.783V0h-1.45Zm-3.566.3a3.247,3.247,0,0,0,2.648-.994,5.021,5.021,0,0,0,.822-3.207v-.376a5.908,5.908,0,0,0-.833-3.572,3.161,3.161,0,0,0-2.659-1.069,2.729,2.729,0,0,0-2.4,1.219,6.063,6.063,0,0,0-.833,3.443,5.812,5.812,0,0,0,.827,3.405A2.8,2.8,0,0,0,242.763-1.278ZM253.58,0H251.8V-11.773h1.783Zm-1.934-14.964a1.184,1.184,0,0,1,.3-.9,1.051,1.051,0,0,1,.752-.285,1.051,1.051,0,0,1,.741.29,1.163,1.163,0,0,1,.312.892,1.181,1.181,0,0,1-.312.9,1.04,1.04,0,0,1-.741.3,1.03,1.03,0,0,1-.752-.3A1.206,1.206,0,0,1,251.646-14.964ZM267.523-5.9a6.5,6.5,0,0,1-1.45,4.5A5.107,5.107,0,0,1,262.066.215a5.307,5.307,0,0,1-2.8-.741,4.892,4.892,0,0,1-1.891-2.127,7.413,7.413,0,0,1-.666-3.244,6.485,6.485,0,0,1,1.439-4.485,5.091,5.091,0,0,1,4-1.606,4.981,4.981,0,0,1,3.926,1.644A6.467,6.467,0,0,1,267.523-5.9Zm-8.97,0a5.588,5.588,0,0,0,.9,3.438,3.132,3.132,0,0,0,2.653,1.182,3.153,3.153,0,0,0,2.659-1.176,5.56,5.56,0,0,0,.908-3.443,5.47,5.47,0,0,0-.908-3.411,3.189,3.189,0,0,0-2.68-1.166,3.139,3.139,0,0,0-2.643,1.149A5.532,5.532,0,0,0,258.554-5.9Z" transform="translate(603 2577)" fill="#00223d"/>
    <g id="Grupo_7556" data-name="Grupo 7556" transform="translate(299 -1116)">
      <circle id="Elipse_496-10" data-name="Elipse 496" cx="15" cy="15" r="15" transform="translate(244 3669)" fill="#00a99a"/>
      <text id="_3-2" data-name="3" transform="translate(259 3691)" fill="#fff" font-size="20" font-family="OpenSans-Bold, Open Sans" font-weight="700"><tspan x="-5.708" y="0">3</tspan></text>
    </g>
    <path id="Trazado_13364" data-name="Trazado 13364" d="M3.985-6.531V0H2.159V-15.705H6.467a6.778,6.778,0,0,1,4.27,1.106,4.012,4.012,0,0,1,1.38,3.33A4.171,4.171,0,0,1,8.959-7.058L13.224,0H11.064l-3.8-6.531Zm0-1.568h2.5a4.322,4.322,0,0,0,2.836-.768,2.858,2.858,0,0,0,.9-2.3,2.622,2.622,0,0,0-.918-2.245A4.976,4.976,0,0,0,6.359-14.1H3.985ZM25.652-5.9A6.5,6.5,0,0,1,24.2-1.4,5.107,5.107,0,0,1,20.2.215a5.307,5.307,0,0,1-2.8-.741A4.892,4.892,0,0,1,15.5-2.653,7.413,7.413,0,0,1,14.835-5.9a6.485,6.485,0,0,1,1.439-4.485,5.091,5.091,0,0,1,4-1.606A4.981,4.981,0,0,1,24.2-10.345,6.467,6.467,0,0,1,25.652-5.9Zm-8.97,0a5.588,5.588,0,0,0,.9,3.438,3.132,3.132,0,0,0,2.653,1.182A3.153,3.153,0,0,0,22.9-2.455,5.56,5.56,0,0,0,23.8-5.9,5.47,5.47,0,0,0,22.9-9.308a3.189,3.189,0,0,0-2.68-1.166,3.139,3.139,0,0,0-2.643,1.149A5.532,5.532,0,0,0,16.683-5.9Zm15.9,4.641a5.825,5.825,0,0,0,.913-.07,5.91,5.91,0,0,0,.7-.145V-.107a3.26,3.26,0,0,1-.854.231,6.413,6.413,0,0,1-1.015.091q-3.416,0-3.416-3.6v-7H27.221v-.859l1.687-.741.752-2.514H30.69v2.729h3.416v1.386H30.69v6.929a2.384,2.384,0,0,0,.5,1.633A1.757,1.757,0,0,0,32.581-1.257Zm5.64-10.517v7.638a3.073,3.073,0,0,0,.655,2.148,2.669,2.669,0,0,0,2.052.709,3.348,3.348,0,0,0,2.7-1.01,5.094,5.094,0,0,0,.854-3.3v-6.187h1.783V0H44.795l-.258-1.579h-.1A3.554,3.554,0,0,1,42.92-.247,5.109,5.109,0,0,1,40.7.215,4.5,4.5,0,0,1,37.485-.806a4.344,4.344,0,0,1-1.069-3.266v-7.7ZM51.831,0H50.048V-16.715h1.783ZM62.853,0,62.5-1.676h-.086a4.954,4.954,0,0,1-1.756,1.5A5.353,5.353,0,0,1,58.47.215a3.932,3.932,0,0,1-2.745-.9,3.291,3.291,0,0,1-.994-2.567q0-3.566,5.7-3.738l2-.064v-.73a2.985,2.985,0,0,0-.6-2.046,2.452,2.452,0,0,0-1.907-.661,7.769,7.769,0,0,0-3.33.9l-.548-1.364a8.379,8.379,0,0,1,1.907-.741,8.258,8.258,0,0,1,2.079-.269,4.485,4.485,0,0,1,3.121.935,3.9,3.9,0,0,1,1.015,3V0ZM58.824-1.257A3.619,3.619,0,0,0,61.44-2.17a3.378,3.378,0,0,0,.951-2.557V-5.79l-1.783.075a6.486,6.486,0,0,0-3.067.661,1.992,1.992,0,0,0-.94,1.821,1.837,1.837,0,0,0,.585,1.472A2.43,2.43,0,0,0,58.824-1.257Z" transform="translate(603 2623)" fill="#00223d"/>
    <g id="Grupo_7557" data-name="Grupo 7557" transform="translate(299 -1069)">
      <circle id="Elipse_496-11" data-name="Elipse 496" cx="15" cy="15" r="15" transform="translate(244 3669)" fill="#00a99a"/>
      <text id="_4-2" data-name="4" transform="translate(259 3691)" fill="#fff" font-size="20" font-family="OpenSans-Bold, Open Sans" font-weight="700"><tspan x="-5.708" y="0">4</tspan></text>
    </g>
    <path id="Trazado_13365" data-name="Trazado 13365" d="M3.985,0H2.159V-15.705h8.755v1.622H3.985v5.747H10.5v1.622H3.985ZM23.407-5.9a6.5,6.5,0,0,1-1.45,4.5A5.107,5.107,0,0,1,17.95.215a5.307,5.307,0,0,1-2.8-.741,4.892,4.892,0,0,1-1.891-2.127A7.413,7.413,0,0,1,12.59-5.9a6.485,6.485,0,0,1,1.439-4.485,5.091,5.091,0,0,1,4-1.606,4.981,4.981,0,0,1,3.926,1.644A6.467,6.467,0,0,1,23.407-5.9Zm-8.97,0a5.588,5.588,0,0,0,.9,3.438,3.132,3.132,0,0,0,2.653,1.182,3.153,3.153,0,0,0,2.659-1.176A5.56,5.56,0,0,0,21.56-5.9a5.47,5.47,0,0,0-.908-3.411,3.189,3.189,0,0,0-2.68-1.166,3.139,3.139,0,0,0-2.643,1.149A5.532,5.532,0,0,0,14.438-5.9Zm19.69,2.686A2.949,2.949,0,0,1,32.9-.677a5.756,5.756,0,0,1-3.437.892,7.475,7.475,0,0,1-3.652-.741V-2.181a8.833,8.833,0,0,0,1.821.677,7.6,7.6,0,0,0,1.875.247A4.251,4.251,0,0,0,31.657-1.7a1.474,1.474,0,0,0,.752-1.359,1.475,1.475,0,0,0-.6-1.176,9.378,9.378,0,0,0-2.326-1.155,12.611,12.611,0,0,1-2.336-1.069A3.192,3.192,0,0,1,26.12-7.5a2.7,2.7,0,0,1-.338-1.386,2.642,2.642,0,0,1,1.171-2.272,5.456,5.456,0,0,1,3.212-.833,9.4,9.4,0,0,1,3.717.773l-.634,1.45a8.532,8.532,0,0,0-3.212-.73,3.7,3.7,0,0,0-1.912.4A1.229,1.229,0,0,0,27.479-9a1.334,1.334,0,0,0,.242.806,2.385,2.385,0,0,0,.779.634,17.4,17.4,0,0,0,2.063.87,7.705,7.705,0,0,1,2.831,1.536A2.709,2.709,0,0,1,34.128-3.212ZM44.269,0l-.354-1.676h-.086a4.954,4.954,0,0,1-1.756,1.5,5.353,5.353,0,0,1-2.186.392,3.932,3.932,0,0,1-2.745-.9,3.291,3.291,0,0,1-.994-2.567q0-3.566,5.7-3.738l2-.064v-.73a2.985,2.985,0,0,0-.6-2.046,2.452,2.452,0,0,0-1.907-.661,7.769,7.769,0,0,0-3.33.9l-.548-1.364a8.379,8.379,0,0,1,1.907-.741,8.258,8.258,0,0,1,2.079-.269,4.485,4.485,0,0,1,3.121.935,3.9,3.9,0,0,1,1.015,3V0ZM40.24-1.257a3.619,3.619,0,0,0,2.616-.913,3.378,3.378,0,0,0,.951-2.557V-5.79l-1.783.075a6.486,6.486,0,0,0-3.067.661,1.992,1.992,0,0,0-.94,1.821A1.837,1.837,0,0,0,38.6-1.762,2.43,2.43,0,0,0,40.24-1.257ZM60.457.215a5.1,5.1,0,0,1-2.1-.424,3.949,3.949,0,0,1-1.6-1.305h-.129A15.792,15.792,0,0,1,56.762.44V5.285H54.979V-11.773h1.45l.247,1.611h.086a4.141,4.141,0,0,1,1.6-1.4,4.866,4.866,0,0,1,2.095-.43,4.351,4.351,0,0,1,3.615,1.6A7.047,7.047,0,0,1,65.345-5.9,7.006,7.006,0,0,1,64.05-1.391,4.359,4.359,0,0,1,60.457.215ZM60.2-10.474a3.16,3.16,0,0,0-2.61,1,5.141,5.141,0,0,0-.827,3.18v.4a5.892,5.892,0,0,0,.827,3.55,3.146,3.146,0,0,0,2.653,1.069,2.759,2.759,0,0,0,2.39-1.235A5.858,5.858,0,0,0,63.5-5.919,5.638,5.638,0,0,0,62.632-9.3,2.844,2.844,0,0,0,60.2-10.474ZM78.622-5.9a6.5,6.5,0,0,1-1.45,4.5A5.107,5.107,0,0,1,73.165.215a5.307,5.307,0,0,1-2.8-.741,4.892,4.892,0,0,1-1.891-2.127A7.413,7.413,0,0,1,67.8-5.9a6.485,6.485,0,0,1,1.439-4.485,5.091,5.091,0,0,1,4-1.606,4.981,4.981,0,0,1,3.926,1.644A6.467,6.467,0,0,1,78.622-5.9Zm-8.97,0a5.588,5.588,0,0,0,.9,3.438,3.132,3.132,0,0,0,2.653,1.182,3.153,3.153,0,0,0,2.659-1.176A5.56,5.56,0,0,0,76.774-5.9a5.47,5.47,0,0,0-.908-3.411,3.189,3.189,0,0,0-2.68-1.166,3.139,3.139,0,0,0-2.643,1.149A5.532,5.532,0,0,0,69.652-5.9ZM87.227.215a5.1,5.1,0,0,1-2.1-.424,3.949,3.949,0,0,1-1.6-1.305H83.4A15.792,15.792,0,0,1,83.531.44V5.285H81.748V-11.773H83.2l.247,1.611h.086a4.141,4.141,0,0,1,1.6-1.4,4.866,4.866,0,0,1,2.095-.43,4.351,4.351,0,0,1,3.615,1.6A7.047,7.047,0,0,1,92.114-5.9,7.006,7.006,0,0,1,90.82-1.391,4.359,4.359,0,0,1,87.227.215Zm-.258-10.688a3.16,3.16,0,0,0-2.61,1,5.141,5.141,0,0,0-.827,3.18v.4a5.892,5.892,0,0,0,.827,3.55,3.146,3.146,0,0,0,2.653,1.069A2.759,2.759,0,0,0,89.4-2.514a5.858,5.858,0,0,0,.865-3.405A5.638,5.638,0,0,0,89.4-9.3,2.844,2.844,0,0,0,86.969-10.474ZM97.013,0H95.229V-11.773h1.783ZM95.154-13.6q.516-.666,1.112-1.611a18.44,18.44,0,0,0,.94-1.644h2.17v.226a15.879,15.879,0,0,1-1.407,1.719,15.976,15.976,0,0,1-1.622,1.579H95.154ZM104.6-1.257a5.825,5.825,0,0,0,.913-.07,5.911,5.911,0,0,0,.7-.145V-.107a3.26,3.26,0,0,1-.854.231,6.413,6.413,0,0,1-1.015.091q-3.416,0-3.416-3.6v-7H99.236v-.859l1.687-.741.752-2.514h1.031v2.729h3.416v1.386h-3.416v6.929a2.384,2.384,0,0,0,.5,1.633A1.757,1.757,0,0,0,104.6-1.257Zm9.335-10.731a6.978,6.978,0,0,1,1.407.129l-.247,1.654a6.074,6.074,0,0,0-1.289-.161,3.138,3.138,0,0,0-2.444,1.16,4.23,4.23,0,0,0-1.015,2.89V0h-1.783V-11.773h1.472l.2,2.181h.086a5.175,5.175,0,0,1,1.579-1.772A3.555,3.555,0,0,1,113.932-11.988Zm8.583,12.2a5.409,5.409,0,0,1-4.12-1.59,6.155,6.155,0,0,1-1.509-4.415,6.826,6.826,0,0,1,1.4-4.522,4.657,4.657,0,0,1,3.765-1.676,4.44,4.44,0,0,1,3.5,1.456,5.579,5.579,0,0,1,1.289,3.84v1.128h-8.11a4.667,4.667,0,0,0,1.047,3.147,3.622,3.622,0,0,0,2.8,1.074,9.483,9.483,0,0,0,3.76-.795v1.59a9.437,9.437,0,0,1-1.789.585A10.051,10.051,0,0,1,122.515.215Zm-.483-10.71a2.912,2.912,0,0,0-2.261.924,4.258,4.258,0,0,0-.994,2.557h6.155A3.921,3.921,0,0,0,124.18-9.6,2.647,2.647,0,0,0,122.031-10.5ZM137.124,0l-.354-1.676h-.086a4.954,4.954,0,0,1-1.756,1.5,5.353,5.353,0,0,1-2.186.392A3.932,3.932,0,0,1,130-.687,3.291,3.291,0,0,1,129-3.255q0-3.566,5.7-3.738l2-.064v-.73a2.985,2.985,0,0,0-.6-2.046A2.452,2.452,0,0,0,134.2-10.5a7.769,7.769,0,0,0-3.33.9l-.548-1.364a8.379,8.379,0,0,1,1.907-.741,8.258,8.258,0,0,1,2.079-.269,4.485,4.485,0,0,1,3.121.935,3.9,3.9,0,0,1,1.015,3V0ZM133.1-1.257a3.619,3.619,0,0,0,2.616-.913,3.378,3.378,0,0,0,.951-2.557V-5.79l-1.783.075a6.486,6.486,0,0,0-3.067.661,1.992,1.992,0,0,0-.94,1.821,1.837,1.837,0,0,0,.585,1.472A2.43,2.43,0,0,0,133.1-1.257Z" transform="translate(603 2669)" fill="#00223d"/>
    <g id="Grupo_7558" data-name="Grupo 7558" transform="translate(299 -1024)">
      <circle id="Elipse_496-12" data-name="Elipse 496" cx="15" cy="15" r="15" transform="translate(244 3669)" fill="#00a99a"/>
      <text id="_5-2" data-name="5" transform="translate(259 3691)" fill="#fff" font-size="20" font-family="OpenSans-Bold, Open Sans" font-weight="700"><tspan x="-5.708" y="0">5</tspan></text>
    </g>
    <path id="Trazado_13366" data-name="Trazado 13366" d="M10.914,0H2.159V-15.705h8.755v1.622H3.985v5.06H10.5v1.611H3.985v5.779h6.929ZM29.133,0V-7.659a3.179,3.179,0,0,0-.6-2.111,2.327,2.327,0,0,0-1.869-.7,3.018,3.018,0,0,0-2.46.956,4.544,4.544,0,0,0-.795,2.943V0H21.624V-7.659a3.179,3.179,0,0,0-.6-2.111,2.341,2.341,0,0,0-1.88-.7,2.912,2.912,0,0,0-2.455,1,5.436,5.436,0,0,0-.779,3.292V0H14.126V-11.773h1.45l.29,1.611h.086A3.5,3.5,0,0,1,17.375-11.5a4.348,4.348,0,0,1,2.057-.483q2.761,0,3.609,2h.086a3.754,3.754,0,0,1,1.525-1.461,4.733,4.733,0,0,1,2.277-.537,3.987,3.987,0,0,1,2.992,1.026,4.589,4.589,0,0,1,.994,3.282V0ZM40.068.215a5.1,5.1,0,0,1-2.1-.424,3.949,3.949,0,0,1-1.6-1.305h-.129A15.792,15.792,0,0,1,36.373.44V5.285H34.59V-11.773h1.45l.247,1.611h.086a4.141,4.141,0,0,1,1.6-1.4,4.866,4.866,0,0,1,2.095-.43,4.351,4.351,0,0,1,3.615,1.6A7.047,7.047,0,0,1,44.956-5.9a7.006,7.006,0,0,1-1.294,4.506A4.359,4.359,0,0,1,40.068.215Zm-.258-10.688a3.16,3.16,0,0,0-2.61,1,5.141,5.141,0,0,0-.827,3.18v.4a5.892,5.892,0,0,0,.827,3.55,3.146,3.146,0,0,0,2.653,1.069,2.759,2.759,0,0,0,2.39-1.235,5.858,5.858,0,0,0,.865-3.405A5.638,5.638,0,0,0,42.244-9.3,2.844,2.844,0,0,0,39.811-10.474ZM53.045.215a5.409,5.409,0,0,1-4.12-1.59A6.155,6.155,0,0,1,47.416-5.79a6.826,6.826,0,0,1,1.4-4.522,4.657,4.657,0,0,1,3.765-1.676,4.44,4.44,0,0,1,3.5,1.456,5.579,5.579,0,0,1,1.289,3.84v1.128h-8.11a4.667,4.667,0,0,0,1.047,3.147,3.622,3.622,0,0,0,2.8,1.074,9.483,9.483,0,0,0,3.76-.795v1.59a9.437,9.437,0,0,1-1.789.585A10.051,10.051,0,0,1,53.045.215ZM52.562-10.5a2.912,2.912,0,0,0-2.261.924,4.258,4.258,0,0,0-.994,2.557h6.155A3.921,3.921,0,0,0,54.71-9.6,2.647,2.647,0,0,0,52.562-10.5ZM62.2,0H60.414V-11.773H62.2ZM60.264-14.964a1.184,1.184,0,0,1,.3-.9,1.051,1.051,0,0,1,.752-.285,1.051,1.051,0,0,1,.741.29,1.163,1.163,0,0,1,.312.892,1.181,1.181,0,0,1-.312.9,1.04,1.04,0,0,1-.741.3,1.03,1.03,0,0,1-.752-.3A1.206,1.206,0,0,1,60.264-14.964ZM74.035,0V-7.616a3.073,3.073,0,0,0-.655-2.148,2.669,2.669,0,0,0-2.052-.709,3.384,3.384,0,0,0-2.707,1,5.044,5.044,0,0,0-.859,3.3V0H65.979V-11.773h1.45l.29,1.611H67.8a3.641,3.641,0,0,1,1.536-1.348,4.991,4.991,0,0,1,2.2-.478,4.472,4.472,0,0,1,3.2,1.026,4.366,4.366,0,0,1,1.074,3.282V0Zm10.42.215a5.409,5.409,0,0,1-4.12-1.59A6.155,6.155,0,0,1,78.826-5.79a6.826,6.826,0,0,1,1.4-4.522,4.657,4.657,0,0,1,3.765-1.676,4.44,4.44,0,0,1,3.5,1.456,5.579,5.579,0,0,1,1.289,3.84v1.128h-8.11a4.667,4.667,0,0,0,1.047,3.147,3.622,3.622,0,0,0,2.8,1.074,9.483,9.483,0,0,0,3.76-.795v1.59a9.437,9.437,0,0,1-1.789.585A10.051,10.051,0,0,1,84.455.215ZM83.972-10.5a2.912,2.912,0,0,0-2.261.924,4.258,4.258,0,0,0-.994,2.557h6.155A3.921,3.921,0,0,0,86.12-9.6,2.647,2.647,0,0,0,83.972-10.5Z" transform="translate(603 2715)" fill="#00223d"/>
    <g id="Grupo_7559" data-name="Grupo 7559" transform="translate(299 -978)">
      <circle id="Elipse_496-13" data-name="Elipse 496" cx="15" cy="15" r="15" transform="translate(244 3669)" fill="#00a99a"/>
      <text id="_6-2" data-name="6" transform="translate(259 3691)" fill="#fff" font-size="20" font-family="OpenSans-Bold, Open Sans" font-weight="700"><tspan x="-5.708" y="0">6</tspan></text>
    </g>
    <path id="Trazado_13367" data-name="Trazado 13367" d="M6.993,0H5.167V-14.083H.193v-1.622H11.967v1.622H6.993ZM21.3,0l-.354-1.676h-.086A4.954,4.954,0,0,1,19.1-.177a5.353,5.353,0,0,1-2.186.392,3.932,3.932,0,0,1-2.745-.9,3.291,3.291,0,0,1-.994-2.567q0-3.566,5.7-3.738l2-.064v-.73a2.985,2.985,0,0,0-.6-2.046A2.452,2.452,0,0,0,18.38-10.5a7.769,7.769,0,0,0-3.33.9L14.5-10.957a8.379,8.379,0,0,1,1.907-.741,8.258,8.258,0,0,1,2.079-.269,4.485,4.485,0,0,1,3.121.935,3.9,3.9,0,0,1,1.015,3V0ZM17.273-1.257a3.619,3.619,0,0,0,2.616-.913,3.378,3.378,0,0,0,.951-2.557V-5.79l-1.783.075a6.486,6.486,0,0,0-3.067.661,1.992,1.992,0,0,0-.94,1.821,1.837,1.837,0,0,0,.585,1.472A2.43,2.43,0,0,0,17.273-1.257ZM28.08,0H26.3V-16.715H28.08ZM42.023-5.9a6.5,6.5,0,0,1-1.45,4.5A5.107,5.107,0,0,1,36.566.215a5.307,5.307,0,0,1-2.8-.741,4.892,4.892,0,0,1-1.891-2.127A7.413,7.413,0,0,1,31.206-5.9a6.485,6.485,0,0,1,1.439-4.485,5.091,5.091,0,0,1,4-1.606,4.981,4.981,0,0,1,3.926,1.644A6.467,6.467,0,0,1,42.023-5.9Zm-8.97,0a5.588,5.588,0,0,0,.9,3.438,3.132,3.132,0,0,0,2.653,1.182,3.153,3.153,0,0,0,2.659-1.176A5.56,5.56,0,0,0,40.176-5.9a5.47,5.47,0,0,0-.908-3.411,3.189,3.189,0,0,0-2.68-1.166,3.139,3.139,0,0,0-2.643,1.149A5.532,5.532,0,0,0,33.054-5.9Zm2.063-7.7q.516-.666,1.112-1.611a18.441,18.441,0,0,0,.94-1.644h2.17v.226a15.88,15.88,0,0,1-1.407,1.719,15.977,15.977,0,0,1-1.622,1.579H35.116ZM53.206,0V-7.616a3.073,3.073,0,0,0-.655-2.148,2.669,2.669,0,0,0-2.052-.709,3.384,3.384,0,0,0-2.707,1,5.044,5.044,0,0,0-.859,3.3V0H45.149V-11.773H46.6l.29,1.611h.086a3.641,3.641,0,0,1,1.536-1.348,4.991,4.991,0,0,1,2.2-.478,4.472,4.472,0,0,1,3.2,1.026,4.366,4.366,0,0,1,1.074,3.282V0Z" transform="translate(603 2761)" fill="#00223d"/>
    <g id="Grupo_7560" data-name="Grupo 7560" transform="translate(299 -932)">
      <circle id="Elipse_496-14" data-name="Elipse 496" cx="15" cy="15" r="15" transform="translate(244 3669)" fill="#00a99a"/>
      <text id="_7-2" data-name="7" transform="translate(259 3691)" fill="#fff" font-size="20" font-family="OpenSans-Bold, Open Sans" font-weight="700"><tspan x="-5.708" y="0">7</tspan></text>
    </g>
    <rect id="Rect치ngulo_2106" data-name="Rect치ngulo 2106" width="8" height="8" transform="translate(352 2936)" fill="#19a99a"/>
    <rect id="Rect치ngulo_2107" data-name="Rect치ngulo 2107" width="8" height="8" transform="translate(292 2975)" fill="#19a99a"/>
    <rect id="Rect치ngulo_2108" data-name="Rect치ngulo 2108" width="8" height="8" transform="translate(292 3205)" fill="#19a99a"/>
    <rect id="Rect치ngulo_2109" data-name="Rect치ngulo 2109" width="8" height="8" transform="translate(366 3224)" fill="#19a99a"/>
    <rect id="Rect치ngulo_2110" data-name="Rect치ngulo 2110" width="8" height="8" transform="translate(355 2746)" fill="#19a99a"/>
    <rect id="Rect치ngulo_2111" data-name="Rect치ngulo 2111" width="8" height="8" transform="translate(294 2504)" fill="#19a99a"/>
    <rect id="Rect치ngulo_2112" data-name="Rect치ngulo 2112" width="8" height="8" transform="translate(294 2652)" fill="#19a99a"/>
    <path id="Trazado_13443" data-name="Trazado 13443" d="M3469,1212v144.465" transform="translate(-3171 1296)" fill="none" stroke="#00a99a" stroke-width="2"/>
  </g>
</svg>
