<svg xmlns="http://www.w3.org/2000/svg" width="336.194" height="543.833" viewBox="0 0 336.194 543.833">
  <g id="Grupo_8385" data-name="Grupo 8385" transform="translate(-393.21 -4062.276)">
    <path id="Trazado_13303" data-name="Trazado 13303" d="M7.61,0H-7.361V-3.149l5.376-5.435Q.4-11.03,1.135-11.975a7.458,7.458,0,0,0,1.055-1.75,4.457,4.457,0,0,0,.322-1.67,2.433,2.433,0,0,0-.71-1.919,2.755,2.755,0,0,0-1.9-.63,5.455,5.455,0,0,0-2.417.571,12.473,12.473,0,0,0-2.446,1.626l-2.461-2.915a16.055,16.055,0,0,1,2.622-1.9,9.625,9.625,0,0,1,2.271-.857,11.634,11.634,0,0,1,2.754-.3,8.154,8.154,0,0,1,3.545.732A5.655,5.655,0,0,1,6.16-18.94a5.448,5.448,0,0,1,.85,3.018,7.386,7.386,0,0,1-.52,2.776,10.658,10.658,0,0,1-1.611,2.659A39.392,39.392,0,0,1,1.033-6.606L-1.721-4.014v.205H7.61Z" transform="translate(566 4084)" fill="#00a99a"/>
    <g id="Grupo_8337" data-name="Grupo 8337">
      <path id="Trazado_13302" data-name="Trazado 13302" d="M96.5,0A96.5,96.5,0,1,1,0,96.5,96.5,96.5,0,0,1,96.5,0Z" transform="translate(474 4225)" fill="#fed97b" opacity="0.571"/>
      <path id="Trazado_11413" data-name="Trazado 11413" d="M-294.59,2163.887l106.973-44.01" transform="translate(2337.113 2997.829) rotate(45)" fill="none" stroke="#e55858" stroke-linecap="round" stroke-width="4"/>
      <path id="Trazado_11412" data-name="Trazado 11412" d="M-294.59,2163.887l106.973-44.01" transform="translate(2160.113 2933.829) rotate(45)" fill="none" stroke="#e55858" stroke-width="4"/>
      <path id="Trazado_11410" data-name="Trazado 11410" d="M-294.59,2163.887l106.973-44.01" transform="translate(710.191 2205)" fill="none" stroke="#e55858" stroke-linecap="round" stroke-width="4"/>
      <g id="Grupo_7436" data-name="Grupo 7436" transform="translate(3 47.204)">
        <g id="Grupo_7433" data-name="Grupo 7433" transform="translate(510 4072.832)">
          <path id="Trazado_11362" data-name="Trazado 11362" d="M2817.039,2381.717s4.289-.321,2.25-6.938l.745-4.173a6.231,6.231,0,0,1,2.043,1.975c.234.444,3.438,9.9,3.438,9.9l.678,3.753a19.556,19.556,0,0,0,.125,3.916c.246.81,1.985,3.2,3.247-.958l1.8-1.735s1.757-3.911,2.669-5.515a4.987,4.987,0,0,0,.11-1.665,7.462,7.462,0,0,0,.859-1.457,8.185,8.185,0,0,0-.118-1.856,6.84,6.84,0,0,0,1.049-1.685c.238-1.386-1.014-4.6-.536-5.6a6.484,6.484,0,0,0,.018-1.982c-.187-.633-3.181-5.827-3.181-5.827l-2.532-9.16a28.925,28.925,0,0,1-.546-4.009,8.46,8.46,0,0,0-1.006-3.869s-1.366-8.474-1.576-11.324c-.473-6.421-.425-15.318-1-22.105a184.422,184.422,0,0,0-3.735-25.175,19.307,19.307,0,0,0-5.282-8.617c-2.864-2.47-9.354-1.482-11.256,2.213-1.924,3.742-.661,12.064.111,15.958,1.052,5.293,3.7,15.53,5.177,20.727,2.026,7.122,4.638,14.2,5.8,21.52.489,3.079,1.912,16.147,1.665,17.433-.284,1.474-1.527,3.71-1.984,5.14-.623,1.949-1.586,8.2-1.586,8.2l1.057,7.166Zm12.283,2.3.211-2.246-1.312-5.852.852.264s.627,4.456,1.051,5.018S2829.322,2384.021,2829.322,2384.021Z" transform="translate(-2715.021 -2121.795)" fill="#fff" stroke="#3b1f10" stroke-width="2" fill-rule="evenodd"/>
          <path id="Trazado_11361" data-name="Trazado 11361" d="M1946.914,1386.452c1.1-3.552-.7-6.221-1.448-8.589-1.786-5.683,1.684-53.736-2.292-70.857-2.326-10.017-8.945-18.809-11.331-28.946-1.685-7.163-3.983-28.285-4.33-52.454-.194-13.548-.458-36.422-1.1-43.7a102.056,102.056,0,0,0-14.325-44.433c-5.486-9.136-14.134-23.966-.26-49.963,0,0,7.744-12.1,8.712-17.908-.076,3.768-.1,7.545-.214,11.313-.194,6.2-.681,12.428-.32,18.619.3,5.072,1.525,17.188,2.928,18.685a15.721,15.721,0,0,0,6.575,3.691c2.772.572,6.786-2.131,8.651-4.5s.807-7.011.289-9.817c-2.676-14.5-.015-54.515.322-58.979.354-4.7,3.066-17.976-8.792-22.574s-23.1-1.814-27.9-15.749c-4.226-12.271-1.323-26.239-.544-28.911-1.114,2.359-11.388,15.341-28.518,23.907,0,0,2.406,2.543,2.261,10.6-.076,4.234.145,4.347-12.819,8.692-5.153,1.727-16.555,6.324-15.729,16.411a84.4,84.4,0,0,0,1.477,13.452c-4.193,6.635-4.756,7.3-6.515,10.542a15.211,15.211,0,0,0-2.114,6.707c-.3,5.363,1.025,10.526,10.34,14.821a2.929,2.929,0,0,0,.713.232c.547,6.528,1.561,28.191-1.724,37.792-7.855,22.965-9.194,34.421-7.255,59.047.921,11.693,2.8,56.771,10.2,80.221,1.088,3.447,3.2,9.346,2.713,14.458-.3,3.17.461,7.406,2.735,12.441,0,0,3.905,57.287-1.126,77.048-1.432,5.622-10.459,13.625-13.949,16.039-2.743,1.9-8.6,4.78-10.024,8.517-1.935,5.089,12.574,4.632,17.054,1.85,1.806-1.121,4.911-3.905,8.58-4.616,3.378-.655,11.37.234,13.3-3.129s-.883-10.585-.946-12.44c-.465-13.756,4.362-28.635,8.289-44.084,3.6-14.148,5.849-19.936-.7-44.52,0,0-1.06-8.958-.662-11.921,1.641-12.217,4.3-80.138,4.3-80.138l2.908-.488s16.546,67.939,20.924,79.747a57.333,57.333,0,0,0,7.08,14.606c4.438,6.8,2.7,20.264,6.755,31.773,3.722,10.558,10.755,36.989,12.485,44.914,1.578,7.229,3.446,15.323,1.515,22.216s-2.395,8.4-3.338,11.1c-1.215,3.472-4.5,8.821-3.742,11.273.637,2.069,1.063,3.809,4.442,4.146s14.511,1.71,17.28-3.81C1949.4,1405.426,1945.915,1389.666,1946.914,1386.452Z" transform="translate(-1832.02 -945.812)" fill="#fff" stroke="#3b1f10" stroke-width="2"/>
          <path id="Trazado_11363" data-name="Trazado 11363" d="M2315.917,1144.9c-.009-.222-.016.934-.022.714-6.505,5.041-17.221,8.237-25.774,10.118a22.952,22.952,0,0,1,1.192,8.632,11.189,11.189,0,0,1-.61,4A78.231,78.231,0,0,0,2315.917,1144.9Z" transform="translate(-2248.061 -1094.294)" fill="#e6e6e6"/>
          <path id="Trazado_11364" data-name="Trazado 11364" d="M2010.737,2832.878a101.165,101.165,0,0,0-5.1-15.033c-39.927,15.6-72.023,7.431-77.155,5.64a89.583,89.583,0,0,0-.459,13.671,106.153,106.153,0,0,1,14.286,7.182c5.008,2.973,10.252,8.258,14.5,11.774,6.615,5.48,10.637,5.044,10.637,5.044l4.013-.488C1969.337,2840.383,2002.907,2834.071,2010.737,2832.878Z" transform="translate(-1919.16 -2613.663)" fill="#3b1f10" fill-rule="evenodd"/>
          <path id="Trazado_11365" data-name="Trazado 11365" d="M1978.148,1496.992a19.709,19.709,0,0,1,7.34.784q.735-1.526,1.577-3.105s2.7-4.22,5.112-8.873c-.867-.57-8.522-1.985-9.371-6.538-.284-1.526-.409-8.05-.855-10.859-.675-4.249-1.66-8.448-.192-13.921,2.164-8.069,6.65-14.883,13.39-21.993-1.218-.29-2.215-.593-3.527-.789-2.99,2.579-6.774,7.683-11.945,15.023-2.338,3.319-5.969,11.4-11.538,12.9-17.75,4.806-21.431,14.392-22.6,14.5-.494.045-3.262-8.868-11.235-14.563a6.8,6.8,0,0,1-2.4-3.015c-.845-2.569-.464-5.059.881-10.542,1.051-4.281,2.341-9.1,3.214-12.181-.9.317-1.934.709-3.028,1.185-1.958,5.769-8.2,25.1-10.427,28.4-4.193,6.635-4.714,7.237-6.514,10.542a15.176,15.176,0,0,0-2.115,6.707c-.3,5.362,1.025,10.526,10.34,14.821a2.923,2.923,0,0,0,.713.232c0,.05,2.7.022,2.7.022s14.2-4.863,16.049-4.941c.97-.041,7.516,3.646,16.361,6.65C1964.005,1498.78,1971.864,1498.183,1978.148,1496.992Z" transform="translate(-1906.358 -1354.785)" fill="#3b1f10"/>
          <g id="Grupo_7432" data-name="Grupo 7432" transform="translate(24.019 0)">
            <g id="Grupo_7421" data-name="Grupo 7421" transform="translate(0 2.952)">
              <path id="Trazado_11366" data-name="Trazado 11366" d="M2095.918,668.873s-.783,2.07-1.786,2.446c0,0-.847-1.9.5-8.231a34.311,34.311,0,0,0,.351-10.519,33.4,33.4,0,0,1,.987-13.2c.459-2.043,2.664-4.371,6.385-6.169,3.426-1.655,6.782-4.908,11.188-7.058,3.884,2.274,5.591,5.8,7.92,9.58,2.247,3.648,3.385,7.819,4.465,11.925.574,2.184,1.249,4.327,1.944,6.476.679,2.1,1.258,4.21,1.737,6.365a42.281,42.281,0,0,1,1.379,11.723,19.07,19.07,0,0,1-1.186,5.682,17.458,17.458,0,0,1-1.368,2.8c-.548.9-1.2,1.711-1.815,2.562-1.585,2.192-18.906,4.93-18.906,4.93s-4.713-2.028-8.179-10.7a11.151,11.151,0,0,1-.591-4.055c-.066.434-.408.993-2.112,1.352-1.6.338-2.959.12-3.21-.507C2093.626,674.275,2096.16,673.6,2095.918,668.873Z" transform="translate(-2093.626 -626.142)" fill="#3b1f10"/>
              <path id="Trazado_11367" data-name="Trazado 11367" d="M2159.377,738.223a1.178,1.178,0,0,1,1.151-.263,2.3,2.3,0,0,1,1.029.849,8.3,8.3,0,0,0-.558,2.48,14.972,14.972,0,0,1-.919,2.817,9.968,9.968,0,0,0-.6,3.016A9.871,9.871,0,0,1,2159,750.3c-.093-.286-.18-.574-.256-.866a21.524,21.524,0,0,1-.638-4.3q-.057-1.066-.048-2.135a16.161,16.161,0,0,1,.071-1.97A4.4,4.4,0,0,1,2159.377,738.223Z" transform="translate(-2152.144 -727.64)" fill="#3b1f10"/>
              <path id="Trazado_11368" data-name="Trazado 11368" d="M2131.029,1077.618c.2-.614,2.919,3.494,3.817,3.531,3.569.149,6.246,4.678,8.178,7.152a15.848,15.848,0,0,1,3.1,5.58c.294,1.114,1.054,2.277,1,3.427-.038.769.319,1.253.166,2.009-4.019-.608-6.681-1.169-6.681-1.169s-4.664-1.467-8.864-10.567A17.5,17.5,0,0,1,2131.029,1077.618Z" transform="translate(-2127.216 -1036.109)" fill="#3b1f10"/>
            </g>
            <g id="Grupo_7430" data-name="Grupo 7430" transform="translate(2.764 3.899)">
              <path id="Trazado_11369" data-name="Trazado 11369" d="M2140.064,642.126c-9.393,4.981-9.887,12.136-12.561,20.833-.58,1.885,1.2,3.857,1.457,5.162.237,1.217-1.828,4.628-.923,10.339.706,4.458,1.756,6.59,2.941,10.313a45.974,45.974,0,0,0,2.419,5.205c1.833,3.875,2.438,4.378,3.653,4.782,1.687.562,5.291.213,6.55-.1,2.728-.681,11.906-4.1,15.066-7.112,3.194-3.049,5.322-6,5.006-15.2,0,0,9.953-2.882,11.886-11.043,1.721-7.263-2.4-25.518-14.144-27.915C2149.788,635.015,2148.952,637.413,2140.064,642.126Z" transform="translate(-2127.052 -636.461)" fill="#fff" stroke="#3b1f10" stroke-width="1"/>
              <g id="Grupo_7429" data-name="Grupo 7429" transform="translate(0 25.776)">
                <g id="Grupo_7423" data-name="Grupo 7423" transform="translate(5.575 14.598)">
                  <path id="Trazado_11370" data-name="Trazado 11370" d="M2185.034,1077.618c.139-.332.223-.592.56-1.418-.16.7-.385,1.607-.757,2.988a2.539,2.539,0,0,0,.836.851c.917.644,1.121.485,2.3.054a2.209,2.209,0,0,1,1.2,0c.726.178,1.972.344,2.719.457a1.738,1.738,0,0,0,2.05-1.188,2.359,2.359,0,0,1-.1.994,1.5,1.5,0,0,1-.558.726,2.365,2.365,0,0,1-1.2.567,8.535,8.535,0,0,1-2.775.408,6,6,0,0,1-1,.179,3.66,3.66,0,0,1-1.2-.067s-1.5-1.252-2.289-2.079C2184.3,1079.544,2184.267,1079.448,2185.034,1077.618Z" transform="translate(-2184.443 -1076.2)" fill="#3b1f10"/>
                  <path id="Trazado_11371" data-name="Trazado 11371" d="M2194.446,1122.707a13.094,13.094,0,0,1-1.478-1.254C2192.974,1121.045,2194.144,1121.771,2194.446,1122.707Z" transform="translate(-2192.185 -1117.192)" fill="#c47e5b" opacity="0.298"/>
                  <g id="Grupo_7422" data-name="Grupo 7422" transform="translate(3.978 4.631)">
                    <path id="Trazado_11372" data-name="Trazado 11372" d="M2231.035,1127.071a4.693,4.693,0,0,0-2.271-.422c-.613.064-1.02.189-.988.515s.687.328,1.291.205C2229.771,1127.227,2231.277,1127.291,2231.035,1127.071Z" transform="translate(-2227.775 -1126.639)" fill="#2e2e2e"/>
                  </g>
                </g>
                <g id="Grupo_7426" data-name="Grupo 7426" transform="translate(0 4.023)">
                  <g id="Grupo_7424" data-name="Grupo 7424" transform="translate(17.424 0.313)">
                    <path id="Trazado_11374" data-name="Trazado 11374" d="M2314.816,966.821a3.137,3.137,0,0,1,2.624-1.02,9.8,9.8,0,0,1,4.6,1.851,5.307,5.307,0,0,1-5.067,1.5c-2.329-.257-2.857-1.251-2.857-1.251A3.239,3.239,0,0,1,2314.816,966.821Zm.181,2.092a7.494,7.494,0,0,0,3.8.765c4.365-.017,5-3.027,5-3.027a20.454,20.454,0,0,1-2.156-1.34,6.746,6.746,0,0,0-6.056-.315,2.892,2.892,0,0,0-1.7,2.906c-.119.422-.385.46-.385.46A4.426,4.426,0,0,1,2315,968.913Z" transform="translate(-2313.498 -964.428)" fill="#3b1f10"/>
                    <path id="Trazado_11375" data-name="Trazado 11375" d="M2340.8,972.172a2.221,2.221,0,0,1-2.29,2.39,2.153,2.153,0,0,1-.137-4.292A2.287,2.287,0,0,1,2340.8,972.172Z" transform="translate(-2334.336 -969.732)" fill="#3b1f10"/>
                  </g>
                  <g id="Grupo_7425" data-name="Grupo 7425">
                    <path id="Trazado_11376" data-name="Trazado 11376" d="M2123.726,963.34a4.706,4.706,0,0,0,1.492-1.347c.338-1.336,2.028-.962,2.669-.8a6.781,6.781,0,0,1,2.9,1.436,3.321,3.321,0,0,1,1,1.977c.028.329-.1.559.052.851-.469-.592-.692-1.4-1.423-1.781-1.743-.919-4.139-1.561-4.52-.8a8.639,8.639,0,0,0-.037,1.929c.239.611,1.057,1.089,2.3,1.167.742.047,2.416-.22,3.459-.314a.657.657,0,0,0,.073.105c-3.029.561-4.175.689-4.175.689-2.92.007-2.541-2.483-2.541-2.483-.007-.15-.009-.291-.007-.427A1.479,1.479,0,0,1,2123.726,963.34Z" transform="translate(-2123.726 -961.019)" fill="#3b1f10"/>
                    <path id="Trazado_11377" data-name="Trazado 11377" d="M2156.381,974.984a1.844,1.844,0,0,1-1.754,1.891,1.915,1.915,0,0,1-1.753-1.987c.024-1.055.454-1.832,1.657-1.861A1.943,1.943,0,0,1,2156.381,974.984Z" transform="translate(-2150.198 -971.924)" fill="#3b1f10"/>
                  </g>
                </g>
                <g id="Grupo_7427" data-name="Grupo 7427" transform="translate(6.108 23.718)">
                  <path id="Trazado_11378" data-name="Trazado 11378" d="M2194.926,1177.348s.1.682.562.68a11.432,11.432,0,0,0,1.192-.087c.318-.036.4.555,2.131.624.551.022,2.946-.874,3.86-.626s2.383.142,2.531.252c0,0-3.977-2.324-5.541-2.587a2.344,2.344,0,0,0-1.442.258c-.579.353-1-.339-1.893-.337A1.739,1.739,0,0,0,2194.926,1177.348Z" transform="translate(-2194.494 -1175.525)" fill="none" stroke="#3b1f10" stroke-width="1"/>
                  <path id="Trazado_11379" data-name="Trazado 11379" d="M2199.939,1201.507c.8-.5,2.067.379,2.067.379s.814.352,1.229.145a6.154,6.154,0,0,1,3.377-.529c.514.265,3.079,0,2.789.161a4.787,4.787,0,0,0-1.467,1.078,8.865,8.865,0,0,1-2.3,1.77,8.107,8.107,0,0,1-2.351.689,4.021,4.021,0,0,1-1.665-.177,2.9,2.9,0,0,1-1.166-.679,2.742,2.742,0,0,1-.8-2A1.381,1.381,0,0,1,2199.939,1201.507Z" transform="translate(-2198.785 -1198.981)" fill="none" stroke="#3b1f10" stroke-width="1"/>
                </g>
                <g id="Grupo_7428" data-name="Grupo 7428" transform="translate(14.578 0.514)">
                  <path id="Trazado_11381" data-name="Trazado 11381" d="M2282.528,925.869a2.464,2.464,0,0,0,2.638.06,9.76,9.76,0,0,1,2.181-1.2c3.907-1.083,5.037-.6,8.911,1.1a10.138,10.138,0,0,0-7.264-3.013C2285.677,922.975,2282.176,925.671,2282.528,925.869Z" transform="translate(-2282.503 -922.798)" fill="#3b1f10"/>
                </g>
                <path id="Trazado_11382" data-name="Trazado 11382" d="M2127.134,917.484c.49-.82,2.664.291,5.412,1.682a3.69,3.69,0,0,1,2.04,2.452,5.71,5.71,0,0,1,.643,2.864,19.243,19.243,0,0,1-.836,3.157,27.854,27.854,0,0,0,.18-3.6,4.557,4.557,0,0,0-.732-2.135,6.661,6.661,0,0,0-2.717-1.838c-.978-.534-1.73-1.113-2.543-1.452-1.174-.489-1.717.178-1.712.371C2126.863,918.709,2126.96,917.586,2127.134,917.484Z" transform="translate(-2126.581 -917.205)" fill="#3b1f10"/>
              </g>
            </g>
            <g id="Grupo_7431" data-name="Grupo 7431" transform="translate(8.812 0)">
              <path id="Trazado_11383" data-name="Trazado 11383" d="M2447.353,724.282a17.109,17.109,0,0,0,5.292-9.263c.944-5.823-.647-8.792-2-12.912-.883-2.7,1.673-10.467,1.673-10.467l9.187-21.842a15.187,15.187,0,0,1,10.629,10.265c2.28,6.944,1,29.158,1,29.158l2.035,2.253a28.87,28.87,0,0,1-3.339,9.875c-2.172,4-5.979,4.817-5.593,4.389,1.79-1.984,2.142-4.054,1.776-3.4a10.028,10.028,0,0,1-3.98,3.94c-4.3,2.488-5.134.417-10.431-1.361a11.835,11.835,0,0,0,3.466-2.844S2454.194,726.812,2447.353,724.282Z" transform="translate(-2423.688 -662.837)" fill="#3b1f10"/>
              <path id="Trazado_11384" data-name="Trazado 11384" d="M2202.194,595.948c4.212-1.118,9.868-2.991,18.963-1.23,12.358,2.392,19.247,15.261,20.748,21.409a32.2,32.2,0,0,1,.1,11.591c-.149,1.624-.47,5.042-.79,6.765-.308,3.064,3.919,5.092,3.919,5.092s-2.95.36-4.44-.872a5.786,5.786,0,0,0,3.8,4.813,9.422,9.422,0,0,0,2.693.211,5.825,5.825,0,0,1-3.417,1.552,7.311,7.311,0,0,1-1.86-.01c-.125-.014-1.612-.049-2.051-1.158a19.7,19.7,0,0,0,2.823,3.367c-10.27-.223-17.377-11.364-17.377-11.364,1.806,6.307,6.232,7.889,6.232,7.889-3.081-.109-4.115-1.373-5.4-1.7.235,1.977-.654,4.092-3.522,6.267,0,0,1.862-2.568.478-7.466-6.4-3.772-11.712-12.062-11.712-12.062s-.235-.143-4.781-3.515c-4.921-3.65-6.915-8.634-9.041-15.073-1.575-4.769-4.782-6.749-7.4-3.811-.849.952-1.053-3.877,1.818-6.438C2193.813,598.562,2197.865,597.1,2202.194,595.948Z" transform="translate(-2189.598 -593.996)" fill="#3b1f10"/>
              <path id="Trazado_11385" data-name="Trazado 11385" d="M2201.01,703.163c3.62,1.065,4.591,3.876,5.688,8.1-.523-.718-1.591-2.371-2.195-3.123-3.744-4.664-7.216-3.151-9-1.244a5.481,5.481,0,0,1,.993-2.858C2198.116,702.507,2199.429,702.7,2201.01,703.163Z" transform="translate(-2194.955 -692.836)" fill="#3b1f10"/>
            </g>
          </g>
        </g>
        <path id="Trazado_11386" data-name="Trazado 11386" d="M143.4,2943.684l2.043,12.981h15.513l-.7-10.442-11.149-7.27Z" transform="translate(456.96 1295.929)" fill="#fff"/>
        <path id="Trazado_11388" data-name="Trazado 11388" d="M-189.452,580.4s.225-11.473.524-13.786c.63-4.852,1.444-3.579,1.146-1.635C-188.13,567.239-189.452,580.4-189.452,580.4Z" transform="translate(800.662 3861.056)" fill="#3b1f10"/>
        <path id="Trazado_11389" data-name="Trazado 11389" d="M-187.963,640.136c.247,5.38.9,17.594.9,17.594s-2.128-17.94-2.226-21.457c-.066-2.368-.312-16.609-.349-24.951C-189.676,602.244-188.12,636.731-187.963,640.136Z" transform="translate(800.765 3835.075)" fill="#3b1f10"/>
        <path id="Trazado_11390" data-name="Trazado 11390" d="M-138.425,534.643a9.339,9.339,0,0,0,3.169,5.434,9.213,9.213,0,0,0,4.23,1.636,25.075,25.075,0,0,1-3.821-2.746C-135.894,537.9-138.425,534.643-138.425,534.643Z" transform="translate(731.208 3873.016)" fill="#3b1f10"/>
        <path id="Trazado_11391" data-name="Trazado 11391" d="M-112.1,541.242a11.251,11.251,0,0,0,3.384-5.37c.449-1.4.905-2.312,1.026-1.919a7.5,7.5,0,0,1-1.136,4.567A9.857,9.857,0,0,1-112.1,541.242Z" transform="translate(716.518 3873.452)" fill="#3b1f10"/>
        <path id="Trazado_11392" data-name="Trazado 11392" d="M-136.451,580.4s-.224-11.473-.524-13.786c-.63-4.852-1.444-3.579-1.146-1.635C-137.773,567.239-136.451,580.4-136.451,580.4Z" transform="translate(741.07 3854.059)" fill="#3b1f10"/>
        <path id="Trazado_11393" data-name="Trazado 11393" d="M-138.425,534.643a9.339,9.339,0,0,0,3.169,5.434,9.213,9.213,0,0,0,4.23,1.636,25.075,25.075,0,0,1-3.821-2.746C-135.894,537.9-138.425,534.643-138.425,534.643Z" transform="translate(675.232 3876.015)" fill="#3b1f10"/>
        <path id="Trazado_11394" data-name="Trazado 11394" d="M-112.1,541.242a11.251,11.251,0,0,0,3.384-5.37c.449-1.4.905-2.312,1.026-1.919a7.5,7.5,0,0,1-1.136,4.567A9.857,9.857,0,0,1-112.1,541.242Z" transform="translate(659.543 3869.454)" fill="#3b1f10"/>
        <path id="Trazado_11395" data-name="Trazado 11395" d="M-189.452,593.555s.225-20.275.524-24.361c.63-8.573,1.444-6.325,1.146-2.889C-188.13,570.306-189.452,593.555-189.452,593.555Z" transform="translate(741.688 3857.893)" fill="#3b1f10"/>
        <g id="Grupo_7434" data-name="Grupo 7434" transform="translate(546.311 4263.847)">
          <path id="Trazado_11396" data-name="Trazado 11396" d="M-162.807,177.975a2.794,2.794,0,0,1-1.471.674,1.243,1.243,0,0,1-1.241-1.019,3.26,3.26,0,0,0,1.491.494C-163.58,178.09-162.807,177.975-162.807,177.975Z" transform="translate(167.028 -177.63)" fill="#3b1f10"/>
          <path id="Trazado_11397" data-name="Trazado 11397" d="M-163.086,180.6a3.792,3.792,0,0,1-3.1,1.655,2.548,2.548,0,0,1-2.357-1.238,4.187,4.187,0,0,1-.394-.837,6.456,6.456,0,0,0,1.828,1.207,4.108,4.108,0,0,0,1.513.017A16.843,16.843,0,0,0-163.086,180.6Z" transform="translate(168.935 -179.055)" fill="#3b1f10"/>
        </g>
        <path id="Trazado_11399" data-name="Trazado 11399" d="M-150.218-52.573a34.158,34.158,0,0,1-2.428,4.485s1.768-5.043,2.428-7.462,2.3-7.777,2.3-7.777S-148.529-56.712-150.218-52.573Z" transform="translate(718.152 4200.676)" fill="#3b1f10"/>
        <path id="Trazado_11400" data-name="Trazado 11400" d="M-135.343-62.319c-1.775,4.572-2.116,4.94-2.585,8.377-.406,2.973,1.194,8.233,1.194,8.233s-.795-6.459-.4-8.229a33.893,33.893,0,0,1,2.079-6.205Z" transform="translate(716.974 4202.113)" fill="#3b1f10"/>
        <path id="Trazado_11401" data-name="Trazado 11401" d="M-179.469-52.573a34.1,34.1,0,0,0,2.428,4.485s-1.768-5.043-2.428-7.462-2.3-7.777-2.3-7.777S-181.159-56.712-179.469-52.573Z" transform="translate(740.402 4202.675)" fill="#3b1f10"/>
        <g id="Grupo_7435" data-name="Grupo 7435" transform="matrix(-0.966, -0.259, 0.259, -0.966, 611.996, 4244.243)">
          <path id="Trazado_11402" data-name="Trazado 11402" d="M0,0A15.961,15.961,0,0,1,1.845,5.183C2.1,7.091,2.172,9,2.172,9a8.326,8.326,0,0,0,.056-5.435A10.484,10.484,0,0,0,0,0Z" transform="translate(0 0.504)" fill="#3b1f10"/>
          <path id="Trazado_11403" data-name="Trazado 11403" d="M0,0A8.468,8.468,0,0,1,1,2.752,17.1,17.1,0,0,1,1.088,4.5,5.062,5.062,0,0,0,1.461,2.08,2.9,2.9,0,0,0,0,0Z" transform="translate(6.271 0)" fill="#3b1f10"/>
        </g>
        <path id="Trazado_11404" data-name="Trazado 11404" d="M-224.816-21.479a47.682,47.682,0,0,1,6.667-.173c6.1.528,7.186,2.043,8.615,2.922s-2.566-1.194-6.887-1.818C-219.161-20.944-224.816-21.479-224.816-21.479Z" transform="translate(764.419 4226.438)" fill="#3b1f10"/>
        <path id="Trazado_11405" data-name="Trazado 11405" d="M-168.8-17.351s1.319-2.273,3.363-2.135a2.422,2.422,0,0,1,2.122,1.083,1.929,1.929,0,0,1,.453,1.094s-2.061-1.433-3.049-1.311A11.045,11.045,0,0,0-168.8-17.351Z" transform="translate(733.164 4225.196)" fill="#3b1f10"/>
        <path id="Trazado_11406" data-name="Trazado 11406" d="M-133.989-14.934a6.45,6.45,0,0,1,3.465-2.928,9.3,9.3,0,0,1,4.462.11s-2.3.187-3.167.359a8.07,8.07,0,0,0-2.783,1.053C-132.556-15.894-133.989-14.934-133.989-14.934Z" transform="translate(713.739 4224.415)" fill="#3b1f10"/>
        <path id="Trazado_11408" data-name="Trazado 11408" d="M-168.8-17.351s1.319-2.273,3.363-2.135a2.422,2.422,0,0,1,2.122,1.083,1.929,1.929,0,0,1,.453,1.094s-2.061-1.433-3.049-1.311A11.045,11.045,0,0,0-168.8-17.351Z" transform="translate(728.166 4178.216)" fill="#3b1f10"/>
        <path id="Trazado_11409" data-name="Trazado 11409" d="M-133.989-14.934a6.45,6.45,0,0,1,3.465-2.928,9.3,9.3,0,0,1,4.462.11s-2.3.187-3.167.359a8.07,8.07,0,0,0-2.783,1.053C-132.556-15.894-133.989-14.934-133.989-14.934Z" transform="translate(713.739 4176.436)" fill="#3b1f10"/>
      </g>
      <path id="Trazado_11411" data-name="Trazado 11411" d="M-294.59,2163.887l106.973-44.01" transform="translate(882.191 2136)" fill="none" stroke="#e55858" stroke-linecap="round" stroke-width="4"/>
      <path id="Trazado_13304" data-name="Trazado 13304" d="M3.831,0H-.7V-12.393l.044-2.036.073-2.227q-1.128,1.128-1.567,1.479L-4.607-13.2-6.79-15.923l6.9-5.493H3.831Z" transform="translate(400 4385)" fill="#00a99a"/>
      <path id="Trazado_11414" data-name="Trazado 11414" d="M105.473,2734.535v510.574" transform="translate(460 1361)" fill="none" stroke="#d53030" stroke-width="4"/>
      <path id="Trazado_13305" data-name="Trazado 13305" d="M6.775-16.626a5.04,5.04,0,0,1-1.216,3.413,6.3,6.3,0,0,1-3.413,1.934v.088A6.821,6.821,0,0,1,6.072-9.617,4.411,4.411,0,0,1,7.4-6.24,5.721,5.721,0,0,1,5.164-1.428,10.331,10.331,0,0,1-1.238.293,15.544,15.544,0,0,1-7.419-.864V-4.717A13.971,13.971,0,0,0-4.68-3.691a11.527,11.527,0,0,0,2.959.4,5.754,5.754,0,0,0,3.311-.762A2.8,2.8,0,0,0,2.659-6.5a2.209,2.209,0,0,0-1.23-2.139A9.1,9.1,0,0,0-2.5-9.272H-4.124v-3.472h1.655a7.7,7.7,0,0,0,3.64-.652,2.354,2.354,0,0,0,1.15-2.234q0-2.432-3.047-2.432a6.973,6.973,0,0,0-2.146.352A10.483,10.483,0,0,0-5.3-16.494l-2.095-3.12A11.639,11.639,0,0,1-.4-21.724a9.022,9.022,0,0,1,5.251,1.348A4.322,4.322,0,0,1,6.775-16.626Z" transform="translate(722 4387)" fill="#00a99a"/>
    </g>
  </g>
</svg>
