<svg xmlns="http://www.w3.org/2000/svg" width="221.625" height="447.35" viewBox="0 0 221.625 447.35">
  <g id="Grupo_8384" data-name="Grupo 8384" transform="translate(-175.414 -3208.037)">
    <circle id="Elipse_504" data-name="Elipse 504" cx="96.5" cy="96.5" r="96.5" transform="translate(189 3313)" fill="#fed97b" opacity="0.571"/>
    <g id="Grupo_7414" data-name="Grupo 7414" transform="translate(222 3208.037)">
      <g id="Grupo_7409" data-name="Grupo 7409" transform="translate(123.618 242.173)">
        <path id="Trazado_11245" data-name="Trazado 11245" d="M-33.355,337.966s.086-1.4.175-2c.077-.517.138-1.676.138-1.676s.131,1.162.162,2.024a2.442,2.442,0,0,0,.908,1.521l-.885,0Z" transform="translate(35.019 -334.295)" fill="#3b1f10"/>
        <path id="Trazado_11246" data-name="Trazado 11246" d="M-36.674,358.049a4.011,4.011,0,0,0,1-.34,20.54,20.54,0,0,0,2.02-1.92c.454-.518,1.472-1.5,1.472-1.5s.021-1.156.085-2.044a7.086,7.086,0,0,0-.783.547c-.55.478-1.546,1.372-1.546,1.372l.7-.9a6.9,6.9,0,0,1,.8-.847c.524-.424.676-.584.872-.723a7.932,7.932,0,0,1,.425-1.706s-.143-.424-.316-.879a9.592,9.592,0,0,1-.317-1.465l-.241-2.6a22.59,22.59,0,0,1,.673,2.683,14.294,14.294,0,0,0,.6,1.988s-.287,1.266-.472,2.126c-.094.437-.031,1.409-.076,2.072a36.432,36.432,0,0,0,1.172-3.965c.347-1.262.549-1.7.848-2.544a11.606,11.606,0,0,1,1.1-2.346s-.624,1.971-.873,2.694c-.18.521-.748,2.444-.748,2.444l-1.1,3.791s-.752.762-.755.746c-.283.253-.845.763-1.2,1.117-.485.491-1.533,1.524-1.965,1.855s-1.815,1.58-1.815,1.58Z" transform="translate(37.119 -340.293)" fill="#3b1f10"/>
      </g>
      <g id="Grupo_7413" data-name="Grupo 7413" transform="translate(0 0)">
        <path id="Trazado_11202" data-name="Trazado 11202" d="M-166.721-132.5c-2.111-8.293-3.468-10.555-6.031-24.728-1.368-7.564-1.1-14.769-1.149-22.407-.079-11.927-.007-25.622-9.674-27.9-3.418-.807-2.648-4.99-11.3-5.7a30.5,30.5,0,0,0-9.878.713c-5.1,1.532-7.048,2.621-10.132,5.194-2.574,2.146-4.074,4.226-5.652,8.961a66.134,66.134,0,0,0-1.782,10.642c-.113,2.687-1.1,21.6-3,34.556-.8,5.411-2.755,17.638,1.064,21.139s10.574.361,12.764-1.408c4.88-3.942,5.125-9.456,4.647-13.912s-5.138-14.32-5.188-15.273c-.255-4.939-5.6-16.09-.713-23.269,1.738-2.552,6.971-4.1,12.118-5.6,4.873-1.425,9.575-3.7,11.405-3.513,6.467.254,8.842,11.879,8.962,12.576.56,3.259-.09,4.512.356,6.365l-6.21,12.465.03,22.1c.5,4.124-2.33,8.35,8.285,12.477C-174.94-127.916-164.92-125.422-166.721-132.5Z" transform="translate(266.394 213.347)" fill="#3b1f10"/>
        <path id="Trazado_11203" data-name="Trazado 11203" d="M-179.249,97.245c-.049-.937-2.146-8-2.55-10.2s-1.251-5.571-1.153-8.3.182-6.635.094-9.251c-.027-.792-.237-3.375-.52-6.665-.652-7.576-1.7-18.9-1.829-20.755-.187-2.66-1.052-12.028-1.356-14.858a41.341,41.341,0,0,0-3.769-13.363c-2.375-4.511-3.579-7.991-3.87-11.734-.23-2.96.142-25.236.142-25.236.077-2.738.148-5.077.193-6.574.2-6.676.111-14.3-.7-19.17-.865-5.2-3.347-9.342-7.608-11.35a39.012,39.012,0,0,0-8.888-2.642c-4.442-.782-8.842-4.171-15.469-6.829-8.193-3.286-8.165-8.872-8.165-8.872s.056-.442.141-1.167c0,0,.5-4.517.677-6.969.062-.851.473-6.385.473-6.385l-14.633.058-14.632-.058s.411,5.534.473,6.385c.179,2.452.677,6.969.677,6.969.085.726.141,1.167.141,1.167s.028,5.586-8.165,8.872c-6.627,2.657-11.027,6.047-15.469,6.829A39.012,39.012,0,0,0-293.9-60.21c-4.261,2.008-6.742,6.149-7.608,11.35-.811,4.87-.9,12.494-.7,19.17.1,3.162.3,10.058.449,16.6.143,6.439.225,12.534.08,14.39-.292,3.742-1.5,7.223-3.873,11.733A41.341,41.341,0,0,0-309.324,26.4c-.306,2.83-1.172,12.2-1.36,14.857-.13,1.854-1.18,13.18-1.834,20.756-.284,3.289-.493,5.872-.521,6.664-.089,2.617,0,6.528.091,9.253s-.751,6.091-1.155,8.3-2.5,9.264-2.552,10.2a12.087,12.087,0,0,0,.769,4.588,18.615,18.615,0,0,1,.616,2.942,24.424,24.424,0,0,0,.88,3.628,5.472,5.472,0,0,0,1.035,1.918,20.422,20.422,0,0,0,2.681,2.544c.784.633,2.491,2.035,3.25,2.591a24.842,24.842,0,0,0,3.009,1.956,1.681,1.681,0,0,0,1.846.052,1.474,1.474,0,0,0,.39-1.588,8.226,8.226,0,0,0-1.185-1.916s.134-.735.147-.982a2.09,2.09,0,0,0-.736-1.522,25.273,25.273,0,0,1-1.946-2.277,5.751,5.751,0,0,0,.417-.621,1.693,1.693,0,0,0-.158-1.542c-.479-.77-1.365-1.454-1.677-1.916a4.012,4.012,0,0,1-.182-2.037,6.4,6.4,0,0,1,.558-2.394c.248-.135,1.9-1.255,1.9-1.255s.554,2.585.831,4.117c.484,2.676.57,5.661,1.536,7.48a2.06,2.06,0,0,0,2.043,1.3,1.906,1.906,0,0,0,1.974-1.4c.3-1.122-.306-4.638-.485-6.96-.168-2.174-.433-4.571-.473-6.457a70.432,70.432,0,0,0-1.519-12.335c-.712-2.935-2.677-7.932-2.318-10.835,1.472-11.9,8.309-27.195,9.727-31.3,2.515-7.28,7.294-20.285,8.447-28.273.11-.758.244-1.993.386-3.524.478-5.16,1.036-13.706.98-18.865-.014-1.281.1-3.283.1-5.46,0-5.22.069-3.94.069-3.94s8.622,20.423,6.13,33.883c-2.175,11.744-8.425,16.565-12.77,29.073-3.842,11.064-6.717,38.445,3.479,70.578.837,2.64,1.775,6.456,2.723,10.82,3.02,13.9,6.148,33.38,6.5,38.187.322,4.347-.315,7.579-.709,17.544-.178,4.507.752,10.573.847,16.1.071,4.185-.166,6.421-.819,13.94-1.006,11.582,2.721,23.466,3.8,26.845a202.019,202.019,0,0,1,6.466,24.443c.971,4.893,1.6,9.268-.383,16.351-.419,1.5.526,3.576.234,5.813a10.349,10.349,0,0,1-2.858,4.672,30.039,30.039,0,0,0-4.617,5,1.875,1.875,0,0,0,.45,2.251,2.906,2.906,0,0,0,2.182.733,2.965,2.965,0,0,0,1.875.808,4.2,4.2,0,0,0,2.151-.252,4.072,4.072,0,0,0,1.553.524c1.508.05,1.885-.333,2.151-.619a3.654,3.654,0,0,0,2.633.9,5.8,5.8,0,0,0,2.59-.979c.4.769,2.016,1.364,3.439,1.364,2.3,0,3.226-.77,3.886-1.54a5.691,5.691,0,0,0,1.32-3.446c.11-1.595-.75-3.69-.891-7.063-.071-1.7.66-8.45.627-8.842-.151-1.774-1.119-3.317-1.611-5.986-.092-.5-.688-2.977-1.121-6.205-.1-1.972-.181-3.968-.181-3.968s.185-4.647.31-6.8a159.878,159.878,0,0,1,1.848-16.536c1.1-7.2,1.978-13.3,2.184-16.43a68.176,68.176,0,0,0-.459-14.83c-.982-7.572-2.026-10.72-2.032-13.711-.008-3.845.155-4.584,1.593-10.3.837-3.326.607-7.371.509-11.415-.141-5.787-.7-13.486-.432-16.33.173-1.854.981-14.264,1.523-22.7.291-4.515.5-7.89.5-7.89,1.09-22.118.623-26.791.156-34.112a45.783,45.783,0,0,0-1.558-9.346,6.544,6.544,0,0,0,2.462.322,9.79,9.79,0,0,0,2.463-.322,80.678,80.678,0,0,0-1.087,9.192c-.467,7.321.968,62.756,1.164,64.851.265,2.845-.292,10.543-.432,16.33-.1,4.044-.328,8.088.509,11.415,1.437,5.719,1.6,6.458,1.593,10.3-.007,2.992-1.05,6.139-2.032,13.711a68.232,68.232,0,0,0-.459,14.83c.206,3.132,1.085,9.23,2.184,16.43a159.836,159.836,0,0,1,1.848,16.536c.126,2.15.311,6.8.311,6.8s-.079,1.928-.176,3.867c-.433,3.278-1.042,5.807-1.134,6.307-.492,2.67-1.46,4.212-1.611,5.986-.034.391.7,7.146.627,8.842-.141,3.373-1.149,5.541-1.039,7.136a4.559,4.559,0,0,0,1.687,3.52,5.405,5.405,0,0,0,3.666,1.32c1.423.055,3.044-.521,3.441-1.29a5.8,5.8,0,0,0,2.591.979,3.655,3.655,0,0,0,2.633-.9c.266.287.643.669,2.151.619a4.076,4.076,0,0,0,1.554-.524,4.2,4.2,0,0,0,2.15.252,2.965,2.965,0,0,0,1.875-.808,2.905,2.905,0,0,0,2.182-.733,1.875,1.875,0,0,0,.45-2.251,30.039,30.039,0,0,0-4.617-5,10.349,10.349,0,0,1-2.858-4.672c-.292-2.237.671-2.691.671-4.25,0-2.291-1.25-5.729-1.323-9.92a47.287,47.287,0,0,1,.513-7.993,209.761,209.761,0,0,1,6.466-24.443c1.083-3.379,4.811-15.263,3.8-26.845-.652-7.518-.89-9.755-.819-13.94.094-5.53,1.025-11.6.847-16.1-.394-9.965-.685-13.185-.709-17.544-.043-7.671,5.171-25.46,8.974-42.655,2.138-9.669,3.9-17.549,4.238-19.032,5.971-26.524,3.37-48.322.045-57.9-4.345-12.508-10.6-17.329-12.77-29.073-2.492-13.459,5.618-33.094,5.618-33.094s-.255,6.914-.214,9.219c.191,10.468,1.215,13.99,2.455,22.6,1.151,7.988,5.263,20.041,8.44,28.275,1.563,4.051,8.251,19.4,9.72,31.3.359,2.9-1.607,7.9-2.32,10.835a70.442,70.442,0,0,0-1.521,12.335c-.041,1.885-.306,4.283-.474,6.456-.18,2.322-.785,5.838-.487,6.96a1.908,1.908,0,0,0,1.974,1.406,2.062,2.062,0,0,0,2.043-1.3c.966-1.818,1.053-4.8,1.538-7.479.212-1.175.588-2.965.751-3.738l.641,0c.5.339,1.194.787,1.341.879.4.248.5,1.653.551,2.306a5.669,5.669,0,0,0,.042.807,2.454,2.454,0,0,1-.218,1.318c-.313.461-1.2,1.145-1.678,1.916a1.69,1.69,0,0,0-.158,1.542,4.774,4.774,0,0,0,.27.422l-.011.008.089.278a23.3,23.3,0,0,1-1.879,2.19,2.086,2.086,0,0,0-.736,1.521c.013.247.147.982.147.982a8.241,8.241,0,0,0-1.186,1.916,1.472,1.472,0,0,0,.39,1.588,1.68,1.68,0,0,0,1.846-.051,24.872,24.872,0,0,0,3.008-1.956c.76-.555,2.467-1.957,3.251-2.59.438-.356,1.07-.9,1.63-1.43,0,0,.9-.906,1.052-1.114a5.486,5.486,0,0,0,1.036-1.917,24.485,24.485,0,0,0,.881-3.629,18.579,18.579,0,0,1,.616-2.941A12.084,12.084,0,0,0-179.249,97.245Z" transform="translate(316.664 146.26)" fill="#fff" stroke="#3b1f10" stroke-linecap="round" stroke-linejoin="round" stroke-width="1.942"/>
        <path id="Trazado_11204" data-name="Trazado 11204" d="M-162.805,177.975a2.8,2.8,0,0,1-1.471.674,1.244,1.244,0,0,1-1.241-1.02,3.261,3.261,0,0,0,1.492.494C-163.579,178.09-162.805,177.975-162.805,177.975Z" transform="translate(232.356 -4.736)" fill="#3b1f10"/>
        <path id="Trazado_11205" data-name="Trazado 11205" d="M-163.084,180.6a3.794,3.794,0,0,1-3.1,1.656,2.549,2.549,0,0,1-2.358-1.239,4.189,4.189,0,0,1-.394-.838,6.459,6.459,0,0,0,1.829,1.208,4.11,4.11,0,0,0,1.514.017A16.851,16.851,0,0,0-163.084,180.6Z" transform="translate(234.262 -6.161)" fill="#3b1f10"/>
        <path id="Trazado_11206" data-name="Trazado 11206" d="M-281.4,360.621c-.1-.2-.325-.382-.808-.4a2.477,2.477,0,0,0-1.385.272c-.416.248-.459.854-.341,1.672a8.453,8.453,0,0,0,.525,2.227,1.7,1.7,0,0,0,1.475.226c.485-.138.88-.267.972-.779A8.841,8.841,0,0,0-281.4,360.621Z" transform="translate(298.441 -106.579)" fill="#fff" stroke="#411906" stroke-linecap="round" stroke-linejoin="round" stroke-width="1"/>
        <path id="Trazado_11207" data-name="Trazado 11207" d="M-45.03,361.939c.1-.2.325-.383.808-.4a2.472,2.472,0,0,1,1.385.272c.416.247.459.853.341,1.672a8.433,8.433,0,0,1-.525,2.227,1.694,1.694,0,0,1-1.475.225c-.485-.136-.88-.266-.972-.779A8.827,8.827,0,0,1-45.03,361.939Z" transform="translate(165.405 -107.314)" fill="#fff" stroke="#411906" stroke-linecap="round" stroke-linejoin="round" stroke-width="1"/>
        <path id="Trazado_11208" data-name="Trazado 11208" d="M-267.14,131.885a8.466,8.466,0,0,0-.979,2.749c-.134,1.012-.173,2.024-.173,2.024a4.416,4.416,0,0,1-.03-2.882A5.56,5.56,0,0,1-267.14,131.885Z" transform="translate(289.816 20.78)" fill="#3b1f10"/>
        <path id="Trazado_11209" data-name="Trazado 11209" d="M-273.909,131.281a4.484,4.484,0,0,0-.528,1.459,8.993,8.993,0,0,0-.049.926,2.685,2.685,0,0,1-.2-1.282A1.538,1.538,0,0,1-273.909,131.281Z" transform="translate(293.259 21.117)" fill="#3b1f10"/>
        <path id="Trazado_11210" data-name="Trazado 11210" d="M-59.705,131.885a8.465,8.465,0,0,1,.979,2.749c.134,1.012.173,2.024.173,2.024a4.416,4.416,0,0,0,.03-2.882A5.56,5.56,0,0,0-59.705,131.885Z" transform="translate(173.335 20.78)" fill="#3b1f10"/>
        <path id="Trazado_11211" data-name="Trazado 11211" d="M-52.184,131.281a4.491,4.491,0,0,1,.528,1.459,9.067,9.067,0,0,1,.049.926,2.685,2.685,0,0,0,.2-1.282A1.537,1.537,0,0,0-52.184,131.281Z" transform="translate(169.14 21.117)" fill="#3b1f10"/>
        <path id="Trazado_11212" data-name="Trazado 11212" d="M-254.666,22.032a29.459,29.459,0,0,0,.754,3.251,19.01,19.01,0,0,0,1.383,3.793c1.447,1.947,2.331,1.641,2.331,1.641l-.077,1.251a6.516,6.516,0,0,1-2.472-2.139,13.461,13.461,0,0,1-1.5-4.34C-254.426,24.486-254.666,22.032-254.666,22.032Z" transform="translate(282.082 82.055)" fill="#3b1f10"/>
        <path id="Trazado_11213" data-name="Trazado 11213" d="M-215.3,45.507a17.067,17.067,0,0,1-6.727,9.758,18,18,0,0,1-11.741,2.7c-3.014-.4-7.523-1.634-10.166-4.8-2.9-3.474-3.32-8.517-3.48-11.245a22.31,22.31,0,0,1,1.651-8.542,17.578,17.578,0,0,1,1.771-3.315,27.433,27.433,0,0,0-1.74,4.239,32.23,32.23,0,0,0-1.108,6.128,24.624,24.624,0,0,0,1.6,8.986,10.36,10.36,0,0,0,4.253,5.12,16.949,16.949,0,0,0,7.583,2.611,17.872,17.872,0,0,0,9.416-1.639,15.653,15.653,0,0,0,5.108-4.045A35.3,35.3,0,0,0-215.3,45.507Z" transform="translate(278.047 77.577)" fill="#3b1f10"/>
        <path id="Trazado_11214" data-name="Trazado 11214" d="M-229.117,53.763a3.74,3.74,0,0,0-1.822,2.387,3.547,3.547,0,0,0,.994,3.371,4.078,4.078,0,0,0,3.1.727,3.285,3.285,0,0,0,2.288-1.626,7.311,7.311,0,0,0,.429-1.757,5.506,5.506,0,0,1-.891,1.74,2.932,2.932,0,0,1-2.238,1.048,3.467,3.467,0,0,1-2.111-.466,3.1,3.1,0,0,1-1.039-2.981A4.453,4.453,0,0,1-229.117,53.763Z" transform="translate(268.883 64.356)" fill="#3b1f10"/>
        <path id="Trazado_11215" data-name="Trazado 11215" d="M-191.858-61.518a48.046,48.046,0,0,1,2.367,8.027c.406,2.975-.4,1.775-.792,0a33.925,33.925,0,0,0-2.079-6.208Z" transform="translate(247.33 128.659)" fill="#3b1f10"/>
        <path id="Trazado_11216" data-name="Trazado 11216" d="M-223.64,59.865a.816.816,0,0,0-.624-.57.72.72,0,0,0-.847.4,1.056,1.056,0,0,1,.744-.192A1.546,1.546,0,0,1-223.64,59.865Z" transform="translate(265.597 61.283)" fill="#3b1f10"/>
        <path id="Trazado_11217" data-name="Trazado 11217" d="M-181.911,504.494a10.711,10.711,0,0,1,.127,2.961c-.531,2.055-.71,1.623-1.491,2.837a30.571,30.571,0,0,0,.927-2.93C-182.21,506.6-181.911,504.494-181.911,504.494Z" transform="translate(242.261 -187.057)" fill="#3b1f10"/>
        <path id="Trazado_11218" data-name="Trazado 11218" d="M-213.9,492.2a12.241,12.241,0,0,1-2.8-2.115,14.262,14.262,0,0,1-1.51-2.133c-.815-1.043-.875.867.759,2.539A5.556,5.556,0,0,0-213.9,492.2Z" transform="translate(262.059 -177.664)"/>
        <path id="Trazado_11219" data-name="Trazado 11219" d="M-194.626,534.643a9.342,9.342,0,0,1-3.17,5.437,9.216,9.216,0,0,1-4.231,1.637,25.087,25.087,0,0,0,3.822-2.747C-197.158,537.9-194.626,534.643-194.626,534.643Z" transform="translate(252.721 -203.874)" fill="#3b1f10"/>
        <path id="Trazado_11220" data-name="Trazado 11220" d="M-217.255,541.245a11.257,11.257,0,0,1-3.385-5.373c-.449-1.4-.906-2.313-1.027-1.92a7.5,7.5,0,0,0,1.136,4.569A9.858,9.858,0,0,0-217.255,541.245Z" transform="translate(263.708 -203.438)" fill="#3b1f10"/>
        <path id="Trazado_11221" data-name="Trazado 11221" d="M-189.452,580.4s.225-11.478.524-13.792c.631-4.854,1.445-3.581,1.146-1.636C-188.13,567.241-189.452,580.4-189.452,580.4Z" transform="translate(245.706 -219.827)" fill="#3b1f10"/>
        <path id="Trazado_11222" data-name="Trazado 11222" d="M-223.683,61.08a1.143,1.143,0,0,1-.61.162c-.293-.032-.472-.388-.472-.388s-.013.575.471.659a.415.415,0,0,0,.422-.13A1.039,1.039,0,0,0-223.683,61.08Z" transform="translate(265.404 60.401)" fill="#3b1f10"/>
        <path id="Trazado_11223" data-name="Trazado 11223" d="M-150.217-52.568a34.173,34.173,0,0,1-2.429,4.487s1.769-5.045,2.429-7.465,2.306-7.781,2.306-7.781S-148.527-56.709-150.217-52.568Z" transform="translate(225.176 129.667)" fill="#3b1f10"/>
        <path id="Trazado_11224" data-name="Trazado 11224" d="M-224.816-21.479a47.7,47.7,0,0,1,6.67-.173c6.1.528,7.189,2.043,8.619,2.923s-2.567-1.194-6.89-1.818C-219.158-20.944-224.816-21.479-224.816-21.479Z" transform="translate(265.432 106.459)" fill="#3b1f10"/>
        <path id="Trazado_11225" data-name="Trazado 11225" d="M-241.9,207.127s3.665,2.132,4.368,4.914c.9,3.551.4-1.455-1.233-3.087A10.668,10.668,0,0,0-241.9,207.127Z" transform="translate(274.962 -21.189)" fill="#3b1f10"/>
        <path id="Trazado_11226" data-name="Trazado 11226" d="M-187.963,640.149c.247,5.383.9,17.6.9,17.6s-2.129-17.948-2.227-21.466c-.066-2.369-.312-16.616-.349-24.961C-189.676,602.241-188.12,636.743-187.963,640.149Z" transform="translate(245.809 -245.799)" fill="#3b1f10"/>
        <path id="Trazado_11227" data-name="Trazado 11227" d="M-168.8-17.35s1.32-2.274,3.365-2.136a2.423,2.423,0,0,1,2.123,1.083,1.93,1.93,0,0,1,.453,1.094s-2.062-1.433-3.05-1.312A11.05,11.05,0,0,0-168.8-17.35Z" transform="translate(234.187 105.217)" fill="#3b1f10"/>
        <path id="Trazado_11228" data-name="Trazado 11228" d="M-74.684,22.032a29.46,29.46,0,0,1-.754,3.251,19.01,19.01,0,0,1-1.383,3.793c-1.446,1.947-2.33,1.641-2.33,1.641l.077,1.251A6.517,6.517,0,0,0-76.6,29.829a13.463,13.463,0,0,0,1.5-4.34C-74.923,24.486-74.684,22.032-74.684,22.032Z" transform="translate(184.182 82.055)" fill="#3b1f10"/>
        <path id="Trazado_11229" data-name="Trazado 11229" d="M-148.943,45.507a17.067,17.067,0,0,0,6.727,9.758,18,18,0,0,0,11.741,2.7c3.015-.4,7.523-1.634,10.167-4.8,2.9-3.474,3.319-8.517,3.48-11.245a22.32,22.32,0,0,0-1.651-8.542,17.563,17.563,0,0,0-1.771-3.315,27.4,27.4,0,0,1,1.739,4.239,32.232,32.232,0,0,1,1.108,6.128,24.624,24.624,0,0,1-1.6,8.986,10.815,10.815,0,0,1-4.37,5.215,19,19,0,0,1-7.544,2.433,16.9,16.9,0,0,1-9.246-1.584,15.716,15.716,0,0,1-5.2-4.018A35.3,35.3,0,0,1-148.943,45.507Z" transform="translate(223.111 77.577)" fill="#3b1f10"/>
        <path id="Trazado_11230" data-name="Trazado 11230" d="M-102.629,52.966a3.74,3.74,0,0,1,1.822,2.386,3.547,3.547,0,0,1-.994,3.372,4.076,4.076,0,0,1-3.1.726,3.285,3.285,0,0,1-2.288-1.625,7.316,7.316,0,0,1-.429-1.757,5.511,5.511,0,0,0,.891,1.74,2.93,2.93,0,0,0,2.238,1.047,3.464,3.464,0,0,0,2.111-.466,3.1,3.1,0,0,0,1.039-2.981A4.454,4.454,0,0,0-102.629,52.966Z" transform="translate(200.06 64.801)" fill="#3b1f10"/>
        <path id="Trazado_11231" data-name="Trazado 11231" d="M-133.989-14.933a6.453,6.453,0,0,1,3.466-2.93,9.3,9.3,0,0,1,4.464.11s-2.3.187-3.168.359a8.073,8.073,0,0,0-2.784,1.054C-132.555-15.893-133.989-14.933-133.989-14.933Z" transform="translate(214.77 104.436)" fill="#3b1f10"/>
        <path id="Trazado_11232" data-name="Trazado 11232" d="M-117.463-13.072a35.258,35.258,0,0,1,4.738-1.9,54.871,54.871,0,0,1,8.453-1.259,79.744,79.744,0,0,1-8.226,1.916C-113.707-14.1-117.463-13.072-117.463-13.072Z" transform="translate(205.552 103.4)" fill="#3b1f10"/>
        <path id="Trazado_11233" data-name="Trazado 11233" d="M-135.342-62.319c-1.775,4.574-2.117,4.942-2.586,8.381-.406,2.975,1.195,8.236,1.195,8.236s-.8-6.462-.4-8.232a33.907,33.907,0,0,1,2.08-6.208Z" transform="translate(217.004 129.105)" fill="#3b1f10"/>
        <path id="Trazado_11234" data-name="Trazado 11234" d="M-101.692,58.72a1.028,1.028,0,0,1,.786-.719.906.906,0,0,1,1.067.505,1.33,1.33,0,0,0-.937-.242A1.939,1.939,0,0,0-101.692,58.72Z" transform="translate(196.755 62.008)" fill="#3b1f10"/>
        <path id="Trazado_11235" data-name="Trazado 11235" d="M-89.478,208.022a3.327,3.327,0,0,1,1.218-1.441,5.055,5.055,0,0,1,1.954-.689,8.643,8.643,0,0,0-2.17,2.086,14.33,14.33,0,0,0-1.16,3.036A5.157,5.157,0,0,1-89.478,208.022Z" transform="translate(190.113 -20.5)" fill="#3b1f10"/>
        <path id="Trazado_11236" data-name="Trazado 11236" d="M-143.778,504.494a10.712,10.712,0,0,0-.127,2.961c.531,2.055.71,1.623,1.491,2.837a30.666,30.666,0,0,1-.927-2.93C-143.48,506.6-143.778,504.494-143.778,504.494Z" transform="translate(220.343 -187.057)" fill="#3b1f10"/>
        <path id="Trazado_11237" data-name="Trazado 11237" d="M-115.947,492.2a12.233,12.233,0,0,0,2.8-2.115,14.23,14.23,0,0,0,1.51-2.133c.815-1.043.875.867-.759,2.539A5.555,5.555,0,0,1-115.947,492.2Z" transform="translate(204.706 -177.664)"/>
        <path id="Trazado_11238" data-name="Trazado 11238" d="M-138.425,534.643a9.342,9.342,0,0,0,3.17,5.437,9.217,9.217,0,0,0,4.232,1.637,25.083,25.083,0,0,1-3.822-2.747C-135.892,537.9-138.425,534.643-138.425,534.643Z" transform="translate(217.244 -203.874)" fill="#3b1f10"/>
        <path id="Trazado_11239" data-name="Trazado 11239" d="M-112.1,541.245a11.256,11.256,0,0,0,3.385-5.373c.449-1.4.906-2.313,1.027-1.92a7.5,7.5,0,0,1-1.136,4.569A9.862,9.862,0,0,1-112.1,541.245Z" transform="translate(202.559 -203.438)" fill="#3b1f10"/>
        <path id="Trazado_11240" data-name="Trazado 11240" d="M-136.451,580.4s-.224-11.478-.524-13.792c-.631-4.854-1.445-3.581-1.146-1.636C-137.773,567.241-136.451,580.4-136.451,580.4Z" transform="translate(217.11 -219.827)" fill="#3b1f10"/>
        <path id="Trazado_11241" data-name="Trazado 11241" d="M-101.122,59.9a1.544,1.544,0,0,0,.824.219c.4-.042.637-.524.637-.524s.017.778-.636.891a.559.559,0,0,1-.57-.176A1.407,1.407,0,0,1-101.122,59.9Z" transform="translate(196.437 61.104)" fill="#3b1f10"/>
        <path id="Trazado_11242" data-name="Trazado 11242" d="M-179.468-52.568a34.118,34.118,0,0,0,2.429,4.487s-1.769-5.045-2.429-7.465-2.306-7.781-2.306-7.781S-181.159-56.709-179.468-52.568Z" transform="translate(241.424 129.667)" fill="#3b1f10"/>
        <g id="Grupo_7408" data-name="Grupo 7408" transform="translate(5.717 241.882)">
          <path id="Trazado_11243" data-name="Trazado 11243" d="M-291.666,337.307s-.086-1.4-.175-1.995c-.077-.517-.138-1.676-.138-1.676s-.13,1.162-.162,2.024a2.832,2.832,0,0,1-.867,1.613l.892-.415Z" transform="translate(297.751 -333.637)" fill="#3b1f10"/>
          <path id="Trazado_11244" data-name="Trazado 11244" d="M-296.229,356.957a.921.921,0,0,1-.5-.175,20.49,20.49,0,0,1-2.02-1.921c-.453-.517-1.472-1.5-1.472-1.5s-.021-1.156-.084-2.044a7,7,0,0,1,.783.547c.55.477,1.546,1.371,1.546,1.371l-.7-.9a6.941,6.941,0,0,0-.8-.848c-.524-.423-.676-.584-.872-.723a7.925,7.925,0,0,0-.425-1.706s.143-.424.317-.879a9.629,9.629,0,0,0,.316-1.464l-.008-2.186s-.272,1.235-.424,2.269a14.251,14.251,0,0,1-.6,1.988s.287,1.267.472,2.126c.094.437.031,1.408.077,2.072a36.406,36.406,0,0,1-1.172-3.964c-.347-1.262-.549-1.7-.848-2.544a11.556,11.556,0,0,0-1.1-2.345s.624,1.97.873,2.694c.18.521.748,2.445.748,2.445l1.1,3.791s.752.761.755.745c.283.254.845.762,1.2,1.117.485.49,1.533,1.523,1.965,1.854s1.4.872,1.4.872Z" transform="translate(303.736 -339.494)" fill="#3b1f10"/>
        </g>
        <path id="Trazado_11247" data-name="Trazado 11247" d="M-168.394-164.9c-1.246-2.841-2.373-6.169-5.031-7.593-2.732-1.463-4.453,0-11.36,2.325-7.855,2.644-14.543,4.794-15.752,7.635s-1.419,8.446-1.268,10.826,2.185,9.892,2.185,9.892a21.677,21.677,0,0,0,3.567,7.346,43.64,43.64,0,0,0,6.824,6.953c4.292,2.747,8.421,1.116,10.868-.558a39.709,39.709,0,0,0,5.695-5.031c2-2.106,4.253-7.16,4.651-8.827.648-2.712,2.151-7.371,2.349-9.749C-165.408-154.774-167.148-162.064-168.394-164.9Z" transform="translate(252.62 190.889)" fill="#fff" stroke="#411906" stroke-linecap="round" stroke-linejoin="round" stroke-width="1.866"/>
        <path id="Trazado_11248" data-name="Trazado 11248" d="M-189.216-103.59c-.955-.508-.632-.208.244.618a5.132,5.132,0,0,1,.962.991,6.949,6.949,0,0,1,.969,1.967,5.539,5.539,0,0,0-1.1-2.847A4.727,4.727,0,0,0-189.216-103.59Z" transform="translate(245.899 152.265)" fill="#3b1f10"/>
        <path id="Trazado_11249" data-name="Trazado 11249" d="M-167.61-105.472c-.2.068-.428.082-.544-.111a.26.26,0,0,1,.066-.225,1.293,1.293,0,0,1,1.013-.152c.558.163.937.686.861.778s-.57-.275-.823-.336a.919.919,0,0,0-.439,0Z" transform="translate(233.829 153.471)" fill="#3b1f10"/>
        <path id="Trazado_11250" data-name="Trazado 11250" d="M-157.725-105.5a.455.455,0,0,0,.483-.111c.041-.085.038-.082-.06-.2a1.17,1.17,0,0,0-1.239-.023c-.383.189-.741.6-.664.7s.442-.182.764-.348a.931.931,0,0,1,.524-.042A.294.294,0,0,0-157.725-105.5Z" transform="translate(228.841 153.464)" fill="#3b1f10"/>
        <path id="Trazado_11251" data-name="Trazado 11251" d="M-170.118-109.347c-.088.022-.143.019-.448.506a1.528,1.528,0,0,0-.2.727,1.217,1.217,0,0,0,.272.994c.268.306.356.3.8.411.312.075.3-.046.3-.046-.138-.135-.453-.148-.749-.449a1.232,1.232,0,0,1-.253-.406,2.028,2.028,0,0,1-.018-.688,1.645,1.645,0,0,1,.205-.673c.132-.258.23-.331.153-.366A.145.145,0,0,0-170.118-109.347Z" transform="translate(235.285 155.337)" fill="#3b1f10"/>
        <path id="Trazado_11252" data-name="Trazado 11252" d="M-154.579-109.308c.088.022.143.019.448.506a1.533,1.533,0,0,1,.2.727,1.213,1.213,0,0,1-.273.994c-.268.306-.355.3-.8.411-.313.076-.3-.046-.3-.046.138-.134.453-.148.75-.449a1.247,1.247,0,0,0,.252-.406,2.028,2.028,0,0,0,.018-.688,1.643,1.643,0,0,0-.2-.672c-.131-.259-.23-.331-.153-.367A.145.145,0,0,1-154.579-109.308Z" transform="translate(226.66 155.315)" fill="#3b1f10"/>
        <path id="Trazado_11253" data-name="Trazado 11253" d="M-156.067-132.176a8.728,8.728,0,0,0-.57,1.873,15.145,15.145,0,0,0,.2,2.565s.2-2.32.2-2.728S-156.067-132.176-156.067-132.176Z" transform="translate(227.411 168.071)" fill="#3b1f10"/>
        <path id="Trazado_11254" data-name="Trazado 11254" d="M-162.61-100.677a4.442,4.442,0,0,1-.223,1.832c-.174.4.325.222.325.222a7.785,7.785,0,0,0,.1-1.3A2.714,2.714,0,0,0-162.61-100.677Z" transform="translate(230.879 150.501)" fill="#3b1f10"/>
        <path id="Trazado_11255" data-name="Trazado 11255" d="M-152.11-141.461s.068-.414,1.465-.88A20.542,20.542,0,0,1-145.9-143.5a18.012,18.012,0,0,1,3.256-.111,9.274,9.274,0,0,1,2.506.442c.173.121.086.276-.035.276s-2.824-.367-3.825-.315a13.311,13.311,0,0,0-2.841.48c-.673.207-2.461,1.094-3.168,1.318a3.779,3.779,0,0,1-1.45.31C-152.041-141.1-152.369-141.185-152.11-141.461Z" transform="translate(224.927 174.457)" fill="#3b1f10"/>
        <path id="Trazado_11256" data-name="Trazado 11256" d="M-187.127-141.461s-.069-.414-1.466-.88a20.538,20.538,0,0,0-4.746-1.159,18.015,18.015,0,0,0-3.256-.111,9.271,9.271,0,0,0-2.506.442c-.173.121-.087.276.035.276s3-.225,4-.172a12.254,12.254,0,0,1,2.663.338c.673.207,2.461,1.094,3.168,1.318a3.779,3.779,0,0,0,1.449.31C-187.2-141.1-186.869-141.185-187.127-141.461Z" transform="translate(251.143 174.457)" fill="#3b1f10"/>
        <g id="Grupo_7410" data-name="Grupo 7410" transform="translate(74.025 33.871)">
          <path id="Trazado_11257" data-name="Trazado 11257" d="M-143.99-132.586a1.88,1.88,0,0,0,.625.82,1.973,1.973,0,0,0,1.3.285,1.493,1.493,0,0,0,1.234-.861,3.273,3.273,0,0,0,.1-1.177,10.252,10.252,0,0,0-1.866-.142,12.434,12.434,0,0,0-1.583.525S-144.046-132.7-143.99-132.586Z" transform="translate(146.431 135.037)" fill="#3b1f10"/>
          <path id="Trazado_11258" data-name="Trazado 11258" d="M-140.43-132.663s-.1-.332.339-.367.725-.041.656.062-.4.138-.47.221a.411.411,0,0,1-.276.159A.751.751,0,0,1-140.43-132.663Z" transform="translate(144.342 134.688)" fill="#fff"/>
          <path id="Trazado_11259" data-name="Trazado 11259" d="M-142.246-131.468s.118-.228.235-.159.276.214.214.276a.389.389,0,0,1-.3.083C-142.177-131.288-142.246-131.468-142.246-131.468Z" transform="translate(145.35 133.9)" fill="#fff"/>
          <path id="Trazado_11260" data-name="Trazado 11260" d="M-140.355-130.4a.433.433,0,0,1,.311-.152,2.223,2.223,0,0,0,.615-.131c.055-.034.256-.145.256-.145a3.974,3.974,0,0,1-.511.456,1.053,1.053,0,0,1-.587.138C-140.362-130.269-140.355-130.4-140.355-130.4Z" transform="translate(144.296 133.448)" fill="#fff"/>
          <path id="Trazado_11261" data-name="Trazado 11261" d="M-141.711-133.919a4.109,4.109,0,0,1,.934.17,1.359,1.359,0,0,0-.511-.341,1.93,1.93,0,0,0-.411-.061c.161-.131.306-.257.43-.371a1.673,1.673,0,0,1,.232-.015,8,8,0,0,1,.963.148,1.912,1.912,0,0,0-.338-.213,2.506,2.506,0,0,0-.629-.143c.048-.051.089-.1.119-.13a3.173,3.173,0,0,0,.413-.238,1.171,1.171,0,0,0,.276-.43s-.3.276-.387.338a2.883,2.883,0,0,1-.374.186,1.062,1.062,0,0,1-.226,0,3.444,3.444,0,0,0,.4-.323c.132-.133.516-.666.516-.666s-.434.4-.532.471a4.851,4.851,0,0,1-.748.428l-.277-.091c.091-.1.271-.311.351-.394a4.333,4.333,0,0,0,.473-.766s-.539.532-.7.656c-.111.087-.4.262-.569.361-.131-.041-.271-.081-.415-.119.078-.067.178-.152.257-.222l.422.125s-.155-.059-.4-.148l.08-.073a2.445,2.445,0,0,0,.516-.718s-.566.49-.739.608c-.033.022-.083.05-.138.08-.18-.065-.382-.138-.594-.212a3.4,3.4,0,0,0,.352-.614s-.4.4-.547.546c-.218-.074-.439-.147-.649-.214.1-.211.192-.45.192-.45s-.172.209-.341.4c-.214-.065-.413-.121-.575-.159l.082-.155s-.068.061-.154.14l-.092-.019a3.166,3.166,0,0,0-1.925.113,4.03,4.03,0,0,0-1.86,1.451l-.063.075a10.163,10.163,0,0,1,1.7-1.186,3.535,3.535,0,0,1,1.883-.316c.051,0,.119.015.192.029-.092.085-.178.166-.212.2a3.873,3.873,0,0,1-.577.5,4.978,4.978,0,0,0-.808.217,5.211,5.211,0,0,0-2.111,1.519c-.109.116-.452.449-.452.449s.834-.422,1.37-.75c.24-.147.552-.314.851-.463a6.123,6.123,0,0,1,1.446-.471,6.245,6.245,0,0,1,2.51.061c.721.109,1.1.207,1.1.207a6.68,6.68,0,0,1-1.087,1.294,6.076,6.076,0,0,1-2.26.759,8.86,8.86,0,0,1-2.364-.449,3.642,3.642,0,0,0-.931-.035,10.024,10.024,0,0,0,2.639.695,5.2,5.2,0,0,0,.882.021,1.474,1.474,0,0,1,.237.149,2.421,2.421,0,0,1,.26.254c-.463.033-.869.028-.869.028a4.668,4.668,0,0,0,.989.1c.1.117.188.215.188.215s-.038-.1-.088-.218c.064,0,.128,0,.193-.01a3.933,3.933,0,0,0,.752-.154c.106.1.182.178.182.178s-.033-.086-.093-.206a4.868,4.868,0,0,0,.637-.249c.028-.013.056-.035.084-.05.1.107.168.2.168.2s-.053-.1-.123-.225a3.169,3.169,0,0,0,.652-.585c.18.1.34.2.34.2s-.118-.151-.254-.3c.216-.257.364-.475.364-.475s-.186.194-.424.412a1.549,1.549,0,0,0-.173-.158,2.584,2.584,0,0,0-.255-.149q.152-.112.3-.229A2.049,2.049,0,0,1-141.711-133.919Zm-3.154-1.837c-.176,0-.362.013-.551.029a1.392,1.392,0,0,0,.283-.313c.026-.039.1-.173.171-.307.157.033.345.077.548.128l-.09.1C-144.614-136-144.762-135.855-144.865-135.756Zm.334.011a3.2,3.2,0,0,0,.255-.326c.018-.028.038-.063.058-.1.2.052.413.109.623.166a1.941,1.941,0,0,1-.439.3C-144.194-135.724-144.359-135.736-144.531-135.744Zm1.335.17c-.141-.029-.294-.056-.45-.081.084-.084.1-.086.214-.211.022-.023.042-.049.062-.074.211.058.411.115.592.167C-142.92-135.7-143.086-135.624-143.2-135.574Zm-.543,3.238a4.667,4.667,0,0,1-.71.111,1.618,1.618,0,0,0-.126-.241,1.381,1.381,0,0,0-.163-.181,5.732,5.732,0,0,0,.645-.113,1.493,1.493,0,0,1,.191.116,3.918,3.918,0,0,1,.317.264C-143.638-132.365-143.685-132.35-143.74-132.336Zm.306-.088a2.139,2.139,0,0,0-.233-.334,1.184,1.184,0,0,0-.094-.1c.151-.047.28-.094.378-.133.038-.015.092-.045.144-.073.1.057.2.122.284.179a1.468,1.468,0,0,1,.2.172A3.738,3.738,0,0,1-143.434-132.424Zm1.293-.87.108.057c-.034.031-.069.061-.1.09a3.857,3.857,0,0,1-.54.393,2.424,2.424,0,0,0-.278-.423l-.035-.027c.129-.082.27-.176.423-.284C-142.45-133.439-142.3-133.375-142.141-133.294Z" transform="translate(149.266 136.752)" fill="#3b1f10"/>
        </g>
        <path id="Trazado_11262" data-name="Trazado 11262" d="M-186.63-132.694a1.881,1.881,0,0,0,.625.82,1.973,1.973,0,0,0,1.3.285,1.728,1.728,0,0,0,1.234-.861c.375-.656.3-.959.3-.959a10.175,10.175,0,0,0-2.221-.455c-.456.076-1.767.227-1.767.227S-186.686-132.813-186.63-132.694Z" transform="translate(244.428 169.017)" fill="#3b1f10"/>
        <path id="Trazado_11263" data-name="Trazado 11263" d="M-182.644-132.663s-.1-.332.339-.367.726-.041.656.062-.4.138-.47.221a.409.409,0,0,1-.276.159A.751.751,0,0,1-182.644-132.663Z" transform="translate(241.914 168.56)" fill="#fff"/>
        <path id="Trazado_11264" data-name="Trazado 11264" d="M-184.461-131.468s.118-.228.235-.159.276.214.214.276a.389.389,0,0,1-.3.083C-184.392-131.288-184.461-131.468-184.461-131.468Z" transform="translate(242.922 167.772)" fill="#fff"/>
        <path id="Trazado_11265" data-name="Trazado 11265" d="M-182.57-130.4a.433.433,0,0,1,.311-.152,2.226,2.226,0,0,0,.615-.131c.055-.034.256-.145.256-.145a3.985,3.985,0,0,1-.512.456,1.053,1.053,0,0,1-.587.138C-182.577-130.269-182.57-130.4-182.57-130.4Z" transform="translate(241.868 167.319)" fill="#fff"/>
        <path id="Trazado_11266" data-name="Trazado 11266" d="M-192.3-133.883c.1.078.2.154.3.229a2.548,2.548,0,0,0-.256.149,1.586,1.586,0,0,0-.173.158c-.238-.218-.424-.412-.424-.412s.148.218.364.475c-.136.148-.254.3-.254.3s.16-.1.34-.2a3.18,3.18,0,0,0,.652.585c-.071.127-.123.225-.123.225s.072-.091.168-.2c.027.016.056.037.083.05a4.867,4.867,0,0,0,.637.249c-.06.12-.093.206-.093.206s.076-.077.182-.178a3.933,3.933,0,0,0,.752.154c.065.006.13.008.193.01-.05.119-.088.218-.088.218s.084-.1.188-.215a4.667,4.667,0,0,0,.989-.1s-.406,0-.869-.028a2.419,2.419,0,0,1,.26-.254,1.474,1.474,0,0,1,.237-.149,5.2,5.2,0,0,0,.882-.021,10.024,10.024,0,0,0,2.639-.695,3.642,3.642,0,0,0-.931.035,8.86,8.86,0,0,1-2.364.449,6.076,6.076,0,0,1-2.26-.759,6.679,6.679,0,0,1-1.087-1.294s.383-.1,1.1-.207a6.246,6.246,0,0,1,2.51-.061,6.115,6.115,0,0,1,1.446.471c.3.149.611.316.851.463.535.328,1.37.75,1.37.75s-.343-.333-.452-.449a5.211,5.211,0,0,0-2.111-1.519,4.984,4.984,0,0,0-.807-.217,3.85,3.85,0,0,1-.577-.5c-.034-.037-.12-.118-.212-.2.074-.013.142-.024.192-.029a3.535,3.535,0,0,1,1.883.316,10.141,10.141,0,0,1,1.7,1.186l-.063-.075a3.308,3.308,0,0,0-1.683-1.53,3.8,3.8,0,0,0-2.1-.034l-.092.019c-.086-.08-.154-.14-.154-.14l.082.155c-.163.038-.361.093-.575.159-.168-.2-.341-.4-.341-.4s.092.239.192.45c-.21.066-.431.139-.649.214-.151-.148-.547-.546-.547-.546a3.4,3.4,0,0,0,.352.614c-.212.074-.415.147-.594.212-.055-.03-.1-.057-.138-.08-.173-.118-.739-.608-.739-.608a2.445,2.445,0,0,0,.516.718l.08.073-.4.148.422-.125c.08.07.179.155.257.222-.144.038-.284.079-.415.119-.168-.1-.458-.274-.569-.361-.159-.124-.7-.656-.7-.656a4.333,4.333,0,0,0,.473.766c.08.084.261.291.351.394l-.277.091a4.85,4.85,0,0,1-.748-.428c-.1-.073-.532-.471-.532-.471s.383.533.516.666a3.442,3.442,0,0,0,.4.323,1.057,1.057,0,0,1-.226,0,2.862,2.862,0,0,1-.375-.186c-.083-.062-.387-.338-.387-.338a1.178,1.178,0,0,0,.276.43,3.17,3.17,0,0,0,.413.238c.03.035.071.079.119.13a2.506,2.506,0,0,0-.629.143,1.912,1.912,0,0,0-.338.213,8,8,0,0,1,.963-.148,1.673,1.673,0,0,1,.232.015c.124.114.27.24.43.371a1.922,1.922,0,0,0-.41.061,1.357,1.357,0,0,0-.512.341,4.109,4.109,0,0,1,.934-.17A2.049,2.049,0,0,1-192.3-133.883Zm2.468-2.236-.09-.1c.2-.051.391-.1.548-.128.072.134.145.268.171.307a1.393,1.393,0,0,0,.283.313c-.189-.015-.375-.028-.551-.029C-189.579-135.855-189.726-136-189.837-136.119Zm-.468.413a1.932,1.932,0,0,1-.44-.3c.21-.057.421-.114.623-.166.019.037.039.071.057.1a3.141,3.141,0,0,0,.256.326C-189.981-135.736-190.146-135.724-190.305-135.706Zm-1.256-.068c.18-.052.381-.109.592-.167.02.025.04.05.062.074.115.125.13.127.214.211-.157.025-.309.052-.45.081C-191.254-135.624-191.42-135.7-191.561-135.774Zm.807,3.394a3.916,3.916,0,0,1,.317-.264,1.523,1.523,0,0,1,.191-.116,5.732,5.732,0,0,0,.645.113,1.414,1.414,0,0,0-.163.181,1.665,1.665,0,0,0-.126.241,4.652,4.652,0,0,1-.71-.111C-190.655-132.35-190.7-132.365-190.754-132.38Zm-.826-.327a1.469,1.469,0,0,1,.2-.172c.082-.057.187-.122.284-.179.052.028.105.057.144.073.1.039.228.086.378.133a1.19,1.19,0,0,0-.094.1,2.173,2.173,0,0,0-.233.334A3.738,3.738,0,0,1-191.58-132.707Zm-.193-.782c.153.108.294.2.423.284l-.035.027a2.423,2.423,0,0,0-.278.423,3.824,3.824,0,0,1-.54-.393c-.036-.03-.07-.06-.1-.09l.108-.057C-192.036-133.375-191.89-133.439-191.773-133.489Z" transform="translate(248.392 170.623)" fill="#3b1f10"/>
        <path id="Trazado_11267" data-name="Trazado 11267" d="M-190.378,784.726a4.423,4.423,0,0,1,.654-2.767,3.631,3.631,0,0,0-1.067,1.724,3.734,3.734,0,0,0,.163,2.591,3.062,3.062,0,0,0,.3.607.322.322,0,0,1,.3.023s-.046-.233.334.037a2.935,2.935,0,0,0,.43.059A4.085,4.085,0,0,1-190.378,784.726Z" transform="translate(246.541 -341.825)" fill="#3b1f10"/>
        <path id="Trazado_11268" data-name="Trazado 11268" d="M-201.712,784.619a3.583,3.583,0,0,1,.874-1.828,3.188,3.188,0,0,0,.63-1.05,6.98,6.98,0,0,0-.7.724,7.89,7.89,0,0,0-.945,1.261,3.158,3.158,0,0,0-.141,2.259c.188.687,1.447,1.723.55.961.315.166.63-.21.63-.21A2.647,2.647,0,0,1-201.712,784.619Z" transform="translate(252.784 -341.702)" fill="#3b1f10"/>
        <path id="Trazado_11269" data-name="Trazado 11269" d="M-210.214,785.337c0-.729.116-1.1.935-2.274a2.176,2.176,0,0,0,.466-.9,10.881,10.881,0,0,0-1.027,1.237,6.245,6.245,0,0,0-.583.98,2.687,2.687,0,0,0,.117,2.544c.008.012.353.383.233-.023.134.025.014-.324.169-.213a3.308,3.308,0,0,0,.309.194,2.3,2.3,0,0,0,.227.046A1.662,1.662,0,0,1-210.214,785.337Z" transform="translate(257.539 -341.938)" fill="#3b1f10"/>
        <path id="Trazado_11270" data-name="Trazado 11270" d="M-217.374,786.076a2.146,2.146,0,0,1-1.494-2.007,3.132,3.132,0,0,1,.81-2.025c.476-.612,1.151-1.359,1.151-1.359s-1,.887-1.541,1.423a2.849,2.849,0,0,0-.677,1.1,2.97,2.97,0,0,0-.07,2.147c.023,0,.447.7.187.257-.137-.234.24.067.583.3A8.354,8.354,0,0,1-217.374,786.076Z" transform="translate(262.389 -341.114)" fill="#3b1f10"/>
        <path id="Trazado_11271" data-name="Trazado 11271" d="M-181.962,777.788c1.616.149,2.961,1.369,2.805,1.053-.576-1.165-2.319-1.533-3.582-1.533a3,3,0,0,0-1.934.611A7.933,7.933,0,0,1-181.962,777.788Z" transform="translate(243.041 -339.23)" fill="#3b1f10"/>
        <path id="Trazado_11272" data-name="Trazado 11272" d="M-208.408,760.087a10.237,10.237,0,0,1,1.9-2.961c1.318-1.224,1.61-1.564,1.61-1.564a8.354,8.354,0,0,0-1.821,1,17.739,17.739,0,0,1-1.537,1.012Z" transform="translate(256.28 -327.101)" fill="#3b1f10"/>
        <path id="Trazado_11273" data-name="Trazado 11273" d="M-175.779,750.276c.14.186.713.923,1.127,1.455.018-.559.032-1.082.039-1.557a5.874,5.874,0,0,0-2.738-1.551S-176,749.976-175.779,750.276Z" transform="translate(238.957 -323.231)" fill="#3b1f10"/>
        <path id="Trazado_11274" data-name="Trazado 11274" d="M-136.195,784.726a4.422,4.422,0,0,0-.654-2.767,3.627,3.627,0,0,1,1.067,1.724,3.73,3.73,0,0,1-.163,2.591,3.036,3.036,0,0,1-.3.607.322.322,0,0,0-.3.023s.046-.233-.334.037a2.926,2.926,0,0,1-.429.059A4.085,4.085,0,0,0-136.195,784.726Z" transform="translate(216.625 -341.825)" fill="#3b1f10"/>
        <path id="Trazado_11275" data-name="Trazado 11275" d="M-125.166,784.619a3.586,3.586,0,0,0-.874-1.828,3.188,3.188,0,0,1-.63-1.05,6.98,6.98,0,0,1,.7.724,7.889,7.889,0,0,1,.945,1.261,3.162,3.162,0,0,1,.141,2.259c-.188.687-1.447,1.723-.55.961-.315.166-.63-.21-.63-.21A2.648,2.648,0,0,0-125.166,784.619Z" transform="translate(210.687 -341.702)" fill="#3b1f10"/>
        <path id="Trazado_11276" data-name="Trazado 11276" d="M-116.562,785.337c0-.729-.117-1.1-.935-2.274a2.176,2.176,0,0,1-.466-.9,10.846,10.846,0,0,1,1.027,1.237,6.259,6.259,0,0,1,.584.98,2.688,2.688,0,0,1-.117,2.544c-.008.012-.354.383-.233-.023-.134.025-.014-.324-.169-.213a3.309,3.309,0,0,1-.309.194,2.3,2.3,0,0,1-.227.046A1.662,1.662,0,0,0-116.562,785.337Z" transform="translate(205.83 -341.938)" fill="#3b1f10"/>
        <path id="Trazado_11277" data-name="Trazado 11277" d="M-110.159,786.076a2.146,2.146,0,0,0,1.494-2.007,3.135,3.135,0,0,0-.81-2.025c-.476-.612-1.151-1.359-1.151-1.359s1,.887,1.541,1.423a2.849,2.849,0,0,1,.677,1.1,2.972,2.972,0,0,1,.07,2.147c-.023,0-.447.7-.187.257.137-.234-.24.067-.583.3A8.354,8.354,0,0,0-110.159,786.076Z" transform="translate(201.738 -341.114)" fill="#3b1f10"/>
        <path id="Trazado_11278" data-name="Trazado 11278" d="M-149.45,777.788c-1.616.149-2.961,1.369-2.805,1.053.576-1.165,2.319-1.533,3.582-1.533a3,3,0,0,1,1.934.611A7.929,7.929,0,0,0-149.45,777.788Z" transform="translate(224.966 -339.23)" fill="#3b1f10"/>
        <path id="Trazado_11279" data-name="Trazado 11279" d="M-120.464,760.087a10.237,10.237,0,0,0-1.9-2.961c-1.318-1.224-1.61-1.564-1.61-1.564a8.366,8.366,0,0,1,1.821,1,17.8,17.8,0,0,0,1.536,1.012Z" transform="translate(209.186 -327.101)" fill="#3b1f10"/>
        <path id="Trazado_11280" data-name="Trazado 11280" d="M-152.114,750.276c-.14.186-.713.923-1.127,1.455-.018-.559-.032-1.082-.039-1.557a5.872,5.872,0,0,1,2.738-1.551S-151.89,749.976-152.114,750.276Z" transform="translate(225.53 -323.231)" fill="#3b1f10"/>
        <path id="Trazado_11281" data-name="Trazado 11281" d="M-198.789,785.145c-.467.132-.794.887-.794.887s-.233.628.07.654a9.355,9.355,0,0,1,1.984.327c.419.1.934-1.145.654-1.54S-198.322,785.014-198.789,785.145Z" transform="translate(251.405 -343.567)" fill="#fff" stroke="#411906" stroke-linecap="round" stroke-linejoin="round" stroke-width="1"/>
        <path id="Trazado_11282" data-name="Trazado 11282" d="M-207.237,785.537c-.409.118-.607.7-.607.7s-.338.6,0,.677a5.6,5.6,0,0,0,1.763.241c.368-.079.63-.914.384-1.268A1.761,1.761,0,0,0-207.237,785.537Z" transform="translate(256.049 -343.795)" fill="#fff" stroke="#411906" stroke-linecap="round" stroke-linejoin="round" stroke-width="1"/>
        <path id="Trazado_11283" data-name="Trazado 11283" d="M-215.505,785.409a1.119,1.119,0,0,0-.653.459.414.414,0,0,0,.007.543,2.466,2.466,0,0,0,1.634.461c.373-.048.541-.587.325-.96A1.411,1.411,0,0,0-215.505,785.409Z" transform="translate(260.661 -343.739)" fill="#fff" stroke="#411906" stroke-linecap="round" stroke-linejoin="round" stroke-width="1"/>
        <path id="Trazado_11284" data-name="Trazado 11284" d="M-223.011,782.939a1.042,1.042,0,0,0-.639.384s-.344.4-.044.517a5.657,5.657,0,0,0,1.446.574c.345-.015.548-.514.386-.887A1.257,1.257,0,0,0-223.011,782.939Z" transform="translate(264.874 -342.369)" fill="#fff" stroke="#411906" stroke-linecap="round" stroke-linejoin="round" stroke-width="1"/>
        <path id="Trazado_11285" data-name="Trazado 11285" d="M-184.266,783.176c1.028.129,1.517.443,1.9.039.233-.244,1.207-1.477-.129-2.233a4.307,4.307,0,0,0-3.338-.256,2.8,2.8,0,0,0-1.322,1.338c-.29.586-.183.947.062,1.019C-186.413,783.281-186.133,782.943-184.266,783.176Z" transform="translate(244.521 -341.014)" fill="#fff" stroke="#411906" stroke-linecap="round" stroke-linejoin="round" stroke-width="1.175"/>
        <path id="Trazado_11286" data-name="Trazado 11286" d="M-128.92,785.145c.467.132.794.887.794.887s.233.628-.07.654a9.358,9.358,0,0,0-1.984.327c-.419.1-.934-1.145-.653-1.54S-129.388,785.014-128.92,785.145Z" transform="translate(213.054 -343.567)" fill="#fff" stroke="#411906" stroke-linecap="round" stroke-linejoin="round" stroke-width="1"/>
        <path id="Trazado_11287" data-name="Trazado 11287" d="M-119.867,785.537c.409.118.607.7.607.7s.338.6,0,.677a5.6,5.6,0,0,1-1.763.241c-.368-.079-.63-.914-.384-1.268A1.762,1.762,0,0,1-119.867,785.537Z" transform="translate(207.805 -343.795)" fill="#fff" stroke="#411906" stroke-linecap="round" stroke-linejoin="round" stroke-width="1"/>
        <path id="Trazado_11288" data-name="Trazado 11288" d="M-111.312,785.409a1.119,1.119,0,0,1,.653.459.413.413,0,0,1-.007.543,2.466,2.466,0,0,1-1.633.461c-.373-.048-.541-.587-.325-.96A1.411,1.411,0,0,1-111.312,785.409Z" transform="translate(202.906 -343.739)" fill="#fff" stroke="#411906" stroke-linecap="round" stroke-linejoin="round" stroke-width="1"/>
        <path id="Trazado_11289" data-name="Trazado 11289" d="M-103.613,782.939a1.044,1.044,0,0,1,.639.384s.344.4.043.517a5.662,5.662,0,0,1-1.446.574c-.345-.015-.548-.514-.386-.887A1.256,1.256,0,0,1-103.613,782.939Z" transform="translate(198.499 -342.369)" fill="#fff" stroke="#411906" stroke-linecap="round" stroke-linejoin="round" stroke-width="1"/>
        <path id="Trazado_11290" data-name="Trazado 11290" d="M-147.141,783.176c-1.028.129-1.517.443-1.9.039-.233-.244-1.207-1.477.129-2.233a4.307,4.307,0,0,1,3.338-.256,2.8,2.8,0,0,1,1.322,1.338c.291.586.183.947-.061,1.019C-145,783.281-145.274,782.943-147.141,783.176Z" transform="translate(223.48 -341.014)" fill="#fff" stroke="#411906" stroke-linecap="round" stroke-linejoin="round" stroke-width="1.175"/>
        <path id="Trazado_11291" data-name="Trazado 11291" d="M-163.392-93.151a1.814,1.814,0,0,1-1.014.1,12.979,12.979,0,0,1-1.941-.738,4.474,4.474,0,0,0-2.078-.338c-.336.1-.517.245-.7.262a3.693,3.693,0,0,1-.688-.17,2.406,2.406,0,0,0-1.875.069,14.142,14.142,0,0,1-2.308.843,2.609,2.609,0,0,1-.716.035c-.171-.029-.333.185-.253.326a9.29,9.29,0,0,0,2.7,2.906,5.646,5.646,0,0,0,2.9.462l.245,0,.245,0a5.646,5.646,0,0,0,2.9-.462,9.293,9.293,0,0,0,2.7-2.906C-163.2-92.9-163.25-93.251-163.392-93.151Zm-10.19.313c.517-.17,1.427-.647,2.049-.845a2.431,2.431,0,0,1,1.126-.187,12.959,12.959,0,0,0,1.31.325c.532-.008.744-.277,1.163-.241a5.8,5.8,0,0,1,1.472.359c.619.21,1.352.519,1.869.689.094.031.273.229-.082.262-.421.04-1.047.066-2.023.087-.877.019-1.6.322-2.391.316-.747-.007-1.711-.3-2.455-.316-.976-.021-1.6-.047-2.023-.087C-173.924-92.51-173.676-92.808-173.583-92.838Zm9.378.757a4.086,4.086,0,0,1-.418.607,5.921,5.921,0,0,1-1.474,1.319,6.206,6.206,0,0,1-2.993.432h-.063a6.206,6.206,0,0,1-2.993-.432,5.929,5.929,0,0,1-1.474-1.319,4.15,4.15,0,0,1-.418-.607c-.051-.1-.007-.251.168-.208a9.327,9.327,0,0,0,1.792.207,23.08,23.08,0,0,1,2.641.432,1.71,1.71,0,0,0,.285.013v0h.063v0a1.708,1.708,0,0,0,.285-.013,23.08,23.08,0,0,1,2.641-.432,9.328,9.328,0,0,0,1.792-.207C-164.2-92.332-164.154-92.177-164.205-92.082Z" transform="translate(237.636 146.885)" fill="#3b1f10"/>
        <path id="Trazado_11292" data-name="Trazado 11292" d="M-208.15-124.866a6.7,6.7,0,0,0,.425,3.281,15.062,15.062,0,0,0,1.912,3.256.945.945,0,0,0,1.522-.483,10.374,10.374,0,0,0-.6-2.809,34.433,34.433,0,0,0-1.062-4.118A1.226,1.226,0,0,0-208.15-124.866Z" transform="translate(256.142 164.752)" fill="#fff" stroke="#411906" stroke-linecap="round" stroke-linejoin="round" stroke-width="1.866"/>
        <path id="Trazado_11293" data-name="Trazado 11293" d="M-118.913-124.866a6.694,6.694,0,0,1-.425,3.281,15.042,15.042,0,0,1-1.912,3.256.945.945,0,0,1-1.522-.483,10.356,10.356,0,0,1,.6-2.809,34.435,34.435,0,0,1,1.062-4.118A1.225,1.225,0,0,1-118.913-124.866Z" transform="translate(208.527 164.752)" fill="#fff" stroke="#411906" stroke-linecap="round" stroke-linejoin="round" stroke-width="1.866"/>
        <path id="Trazado_11294" data-name="Trazado 11294" d="M-206.807-98.672c.7,5.192.373,15.729-.187,18.395a5.6,5.6,0,0,1-2.051,3.6,32.242,32.242,0,0,0,1.4-4.35c.894-4.326.762-15.522.459-17.457C-207.884-102.975-207.508-103.864-206.807-98.672Z" transform="translate(256.635 151.362)" fill="#fff"/>
        <path id="Trazado_11295" data-name="Trazado 11295" d="M-114.2-106.653s.547,11.574,1.53,15.363c1.736,6.693,1.6,7.79,4.224,14.947a70.233,70.233,0,0,1-4.974-15.979C-115.209-103.585-114.2-106.653-114.2-106.653Z" transform="translate(203.891 153.834)" fill="#fff"/>
        <path id="Trazado_11296" data-name="Trazado 11296" d="M-218.891-118.6s-1.783,15.767-2.441,20.835,0,14.359,0,14.359.282-10.042.563-14.078S-218.891-118.6-218.891-118.6Z" transform="translate(263.651 160.5)" fill="#fff"/>
        <path id="Trazado_11297" data-name="Trazado 11297" d="M-133.1-181.449s4.438,6.712,5.85,11.429a89.668,89.668,0,0,1,1.7,10.545s-.752-8.574-1.388-10.948A26.122,26.122,0,0,0-133.1-181.449Z" transform="translate(214.277 195.555)" fill="#fff"/>
        <path id="Trazado_11348" data-name="Trazado 11348" d="M-133.629-37.8s1.174,9.16-.034,15.666c-1.725,9.28-4.66,13.314-8.679,20.8A112.2,112.2,0,0,1-153.3,14.576c8.02,4.373,12.472,6.3,16.447,6.875A15.978,15.978,0,0,0-122.3,15.8c2.174-2.829,3.231-7.322,1.985-13.363C-121.7-4.3-127.4-9.984-130.272-20.818c-1.319-4.973-1.644-16.234-1.644-16.234Z" transform="translate(225.541 115.428)" fill="#3b1f10"/>
        <path id="Trazado_11349" data-name="Trazado 11349" d="M-232.223-37.8s-1.175,9.16.034,15.666c1.725,9.28,4.66,13.314,8.679,20.8,4.2,7.825,12.049,15.906,12.049,15.906-8.02,4.373-13.565,6.3-17.54,6.875A15.978,15.978,0,0,1-243.553,15.8c-2.174-2.829-2.438-5.546-1.4-12.342s6.5-13.441,9.378-24.276c1.319-4.973,1.644-16.234,1.644-16.234Z" transform="translate(276.992 115.428)" fill="#3b1f10"/>
        <path id="Trazado_11350" data-name="Trazado 11350" d="M-173.14,212.417a17.062,17.062,0,0,0-1.915-4.365s-9.061,2.128-19.34,3.4a178.608,178.608,0,0,1-19.778.916v-.02s-.44.008-1.209.014-1.209-.014-1.209-.014v.02a178.609,178.609,0,0,1-19.778-.916c-10.279-1.269-19.34-3.4-19.34-3.4a17.055,17.055,0,0,0-1.914,4.365,14.61,14.61,0,0,0-.572,2.7,37.328,37.328,0,0,1,9.023,3.232,68.7,68.7,0,0,1,17.443,11.988c2.962,2.789,5.682,5.232,10.988,13.872a33.449,33.449,0,0,1,2.672,6.937,5.873,5.873,0,0,0,2.906.4c2.19-.05,2.7-.515,2.7-.515a30.831,30.831,0,0,1,2.575-6.544c5.307-8.639,7.9-11.359,10.864-14.148a68.689,68.689,0,0,1,17.443-11.988,37.322,37.322,0,0,1,9.022-3.232A14.632,14.632,0,0,0-173.14,212.417Z" transform="translate(284.052 -21.705)" fill="#3b1f10"/>
        <path id="Trazado_11352" data-name="Trazado 11352" d="M-176.715,78.657a22.494,22.494,0,0,1,3.76-.639,19.093,19.093,0,0,1,6.2.52c1.539.467,2.412.828,2.412.828l-.379.993a29.233,29.233,0,0,0-3.784-.828,24.289,24.289,0,0,0-5.558-.023c-1.117.127-4.068.757-4.068.757l-.355-1.159Z" transform="translate(239.591 50.853)" fill="#3b1f10"/>
      </g>
    </g>
    <path id="Trazado_11358" data-name="Trazado 11358" d="M-265.586,2055.9H-43.961" transform="translate(441 1316)" fill="none" stroke="#e55858" stroke-width="4"/>
  </g>
</svg>
