<svg xmlns="http://www.w3.org/2000/svg" width="193" height="497.199" viewBox="0 0 193 497.199">
  <g id="Grupo_8382" data-name="Grupo 8382" transform="translate(-474 -3178.512)">
    <circle id="Elipse_505" data-name="Elipse 505" cx="96.5" cy="96.5" r="96.5" transform="translate(474 3313)" fill="#fed97b" opacity="0.571"/>
    <g id="Grupo_7416" data-name="Grupo 7416" transform="translate(499 3208.077)">
      <g id="Grupo_7407" data-name="Grupo 7407">
        <path id="Trazado_11143" data-name="Trazado 11143" d="M194.84,117.783a65.466,65.466,0,0,1-2.6-7.863c-.141-1.755.65-3.918.51-5.182a33.365,33.365,0,0,0-1.634-4.927,7.308,7.308,0,0,1-.268-1.363s-.335-4.074-.536-6.4c-.654-7.576-1.309-18.032-1.439-19.886-.188-2.66-1.055-12.028-1.36-14.858a41.341,41.341,0,0,0-3.772-13.361c-2.376-4.51-3.58-7.991-3.872-11.733-.145-1.856-.062-7.952.08-14.39.145-6.542.353-13.438.449-16.6.2-6.676.111-14.3-.7-19.17-.865-5.2-3.347-9.343-7.607-11.35a39.054,39.054,0,0,0-8.889-2.643c-3.769-.663-7.513-3.2-12.608-5.582h-49.41c-5.095,2.378-8.84,4.918-12.609,5.582A39.021,39.021,0,0,0,79.689-29.3c-4.261,2.008-6.743,6.149-7.608,11.35-.81,4.869-.9,12.494-.7,19.17.1,3.163.3,10.059.448,16.6.144,6.439.226,12.535.08,14.39-.292,3.742-1.5,7.223-3.873,11.733A41.352,41.352,0,0,0,64.265,57.3c-.305,2.831-1.172,12.2-1.359,14.858-.131,1.853-.785,12.31-1.439,19.886-.2,2.325-.536,6.4-.536,6.4a7.264,7.264,0,0,1-.269,1.363,33.4,33.4,0,0,0-1.633,4.927c-.141,1.264.651,3.427.51,5.182a65.463,65.463,0,0,1-2.6,7.863c-.762,2.114-1.966,6.038-1.825,7.723a38.145,38.145,0,0,0,.987,5.636c.491,2.036.857,3.731,1.25,5.239.338,1.3,1.414,3.377,1.905,5.272s.954,4.341,2.317,4.914c.7.293,1.194.492,1.194.492s.491,1.124,1.194,1.4a1.157,1.157,0,0,0,1.657-.643c.352-.772-.182-3.78-.182-3.78a6.568,6.568,0,0,0,1.288,2.555,1.036,1.036,0,0,0,1.763-.456c.184-.793-.672-2.981-1.106-4.2-.489-1.375-1.639-5.015-2.363-7.143a55.207,55.207,0,0,1-1.618-6.621,22.679,22.679,0,0,1,.21-5.406,16.241,16.241,0,0,1,.913-3.019A19.329,19.329,0,0,1,65.83,123.9a25.933,25.933,0,0,1-.042,4.275c-.141,1.123-.551,3.818-.331,4.517.451,1.431,1.286,3.193,2.115,3.152,1.29-.064,2.53-1.659,2.5-4.509a68.856,68.856,0,0,1,.736-11.167,43.314,43.314,0,0,0,1.089-9.333c-.07-2.528-.822-12.236-.807-12.386,0,0,3.287-10.546,3.773-11.948,1.558-4.5,3.451-8.895,5-13.391,2.516-7.281,7.294-20.286,8.447-28.273.11-.757.244-1.993.386-3.523.478-5.16,1.036-13.706.98-18.866-.014-1.281.1-3.283.1-5.46,0-1.845.008-2.876.02-3.44A12.283,12.283,0,0,0,90.51,14.7c1.965,5.123,7.539,21.07,5.473,32.23C93.808,58.673,87.557,63.494,83.213,76c-3.842,11.064-6.717,38.445,3.479,70.579.838,2.639,1.775,6.455,2.723,10.819,3.019,13.9,6.148,33.38,6.5,38.186.322,4.347-.315,7.58-.708,17.544-.179,4.507.752,10.573.846,16.1.072,4.186-.166,6.421-.819,13.94-1.006,11.582,2.721,23.467,3.805,26.845,2.139,6.674,3.619,12.079,4.61,16.11.922,3.715,1.69,7.024,2.037,9.029,1.648,9.505,3.014,13.44,2.178,15.681a11.929,11.929,0,0,0-.757,5.1,1,1,0,0,0-.9-.177,1.668,1.668,0,0,0-1.194.876c-.109.062-.467-.212-1.01-.028a4.615,4.615,0,0,0-1.006.557,3.949,3.949,0,0,0-1.053.56,1.714,1.714,0,0,0-.565,1.792,1.3,1.3,0,0,0,.615.8,3.453,3.453,0,0,0,.214,1.526,9.89,9.89,0,0,0,2.9,2.986c1.509.966,4.418,3.322,5.318,3.988,2.217,1.636,3.858,2.542,7.129,1.8,3.164-.722,4.053-3.651,4.012-5.841s-.584-5.527-.329-7.031c.677-3.978-.142-4.868-.616-7.543-.3-1.691-1.108-12.726-1.521-21.783h.079c.023-.457.045-.878.065-1.232a159.879,159.879,0,0,1,1.848-16.536c1.1-7.2,1.978-13.3,2.184-16.43a68.228,68.228,0,0,0-.459-14.829c-.982-7.572-2.027-10.72-2.032-13.711-.009-3.844.155-4.584,1.592-10.3.837-3.326.607-7.371.509-11.414-.14-5.788-.7-13.486-.432-16.331.173-1.853.98-14.263,1.523-22.7.29-4.515.505-7.89.505-7.89.265-5.391.439-9.743.542-13.352V129.533c-.1-2.342-.242-4.347-.386-6.6a47.589,47.589,0,0,0-1.353-8.593c.409.014,1.565-2.721,2.669-2.721s2.115,2.735,2.523,2.721a47.582,47.582,0,0,0-1.351,8.593c-.144,2.257-.289,4.262-.387,6.6v14.155c.1,3.609.276,7.961.542,13.352,0,0,.214,3.375.5,7.89.542,8.432,1.351,20.842,1.523,22.7.265,2.845-.292,10.543-.432,16.331-.1,4.044-.328,8.088.509,11.414,1.438,5.719,1.6,6.459,1.594,10.3-.007,2.992-1.05,6.139-2.032,13.711a68.208,68.208,0,0,0-.459,14.829c.206,3.132,1.086,9.23,2.184,16.43a159.88,159.88,0,0,1,1.848,16.536c.021.354.042.775.065,1.232h.079c-.413,9.057-1.22,20.092-1.521,21.783-.475,2.675-1.293,3.565-.618,7.543.256,1.5-.287,4.841-.328,7.031s.846,5.119,4.011,5.841c3.272.746,4.913-.161,7.129-1.8.9-.666,3.811-3.022,5.32-3.988a9.889,9.889,0,0,0,2.9-2.986,3.456,3.456,0,0,0,.214-1.526,1.3,1.3,0,0,0,.615-.8,1.716,1.716,0,0,0-.566-1.792,3.932,3.932,0,0,0-1.054-.56,4.588,4.588,0,0,0-1.006-.557c-.543-.184-.9.09-1.009.028a1.666,1.666,0,0,0-1.194-.876,1,1,0,0,0-.9.177,11.921,11.921,0,0,0-.758-5.1c-.834-2.241.531-6.175,2.178-15.681.348-2,1.116-5.313,2.038-9.029.992-4.03,2.471-9.436,4.61-16.11,1.083-3.379,4.811-15.263,3.8-26.845-.652-7.518-.89-9.754-.819-13.94.1-5.53,1.025-11.6.847-16.1-.394-9.964-1.031-13.2-.709-17.544.356-4.806,3.485-24.283,6.505-38.186.947-4.364,1.885-8.18,2.722-10.819,10.2-32.134,7.321-59.515,3.479-70.579-4.344-12.508-10.595-17.329-12.77-29.073-2.067-11.16,3.508-27.107,5.473-32.23a12.1,12.1,0,0,0,.706-1.153c.011.564.02,1.6.02,3.44,0,2.177.117,4.179.1,5.46-.055,5.159.5,13.705.981,18.866.141,1.53.276,2.766.385,3.523,1.153,7.988,5.932,20.993,8.447,28.273,1.554,4.5,3.447,8.888,5.006,13.391.484,1.4,3.772,11.948,3.772,11.948.015.15-.737,9.858-.807,12.386a43.371,43.371,0,0,0,1.089,9.333,68.871,68.871,0,0,1,.737,11.167c-.032,2.85,1.208,4.445,2.5,4.509.83.042,1.664-1.721,2.115-3.152.22-.7-.19-3.394-.331-4.517a26.026,26.026,0,0,1-.042-4.275,19.317,19.317,0,0,1,1.307-4.149,16.167,16.167,0,0,1,.912,3.019,22.632,22.632,0,0,1,.211,5.406,55.263,55.263,0,0,1-1.618,6.621c-.724,2.128-1.875,5.768-2.364,7.143-.434,1.22-1.289,3.408-1.106,4.2a1.036,1.036,0,0,0,1.763.456,6.554,6.554,0,0,0,1.289-2.555s-.534,3.008-.183,3.78a1.158,1.158,0,0,0,1.657.643c.7-.28,1.194-1.4,1.194-1.4s.5-.2,1.194-.492c1.363-.573,1.825-3.019,2.316-4.914s1.568-3.974,1.906-5.272c.392-1.507.758-3.2,1.25-5.239a38.258,38.258,0,0,0,.986-5.636C196.805,123.821,195.6,119.9,194.84,117.783Z" transform="translate(-55.105 115.236)" fill="#fff" stroke="#3b1f10" stroke-linecap="round" stroke-linejoin="round" stroke-width="1.942"/>
        <path id="Trazado_11144" data-name="Trazado 11144" d="M349.145,320.293a7.388,7.388,0,0,1-1.442.673c-.769.144-1.05-.179-1.05-.179a7.735,7.735,0,0,0,1.459-.542,4.866,4.866,0,0,0,1.177-1.418l.032.977Z" transform="translate(-217.728 -83.534)" fill="#3b1f10"/>
        <path id="Trazado_11145" data-name="Trazado 11145" d="M347.514,326.079a2.74,2.74,0,0,1-1.4,1.123,1.969,1.969,0,0,1-1.685-.351,3.044,3.044,0,0,0,1.826-.281,18.641,18.641,0,0,0,1.544-1.615Z" transform="translate(-216.484 -86.953)" fill="#3b1f10"/>
        <path id="Trazado_11146" data-name="Trazado 11146" d="M348.192,337.619a1.846,1.846,0,0,1-1.563,1.058,1.559,1.559,0,0,1-.824-.343,1.574,1.574,0,0,0,1.45-.475,4.182,4.182,0,0,0,.656-1.632Z" transform="translate(-217.255 -93.24)" fill="#3b1f10"/>
        <path id="Trazado_11147" data-name="Trazado 11147" d="M361.6,335.435s-.028,2.688-.028,3.741a19.773,19.773,0,0,1-.7,4.638,43.193,43.193,0,0,0-1.241,4.609c.071.28-.056,1.117.563,1.263,1.28.3,1.966-1.615,1.966-1.615S362,350.2,360.823,350.4c-1.826.312-1.85-.869-1.85-1.922s1.151-3.975,1.394-4.855a21,21,0,0,0,.625-3.34C361.087,339.416,361.6,335.435,361.6,335.435Z" transform="translate(-224.6 -92.798)" fill="#3b1f10"/>
        <path id="Trazado_11148" data-name="Trazado 11148" d="M354.469,342.262s-1.01,4.829-1.362,6.514-1.64,6.964-1.85,7.666-1.034.24-1.034.24.891-2.636,1.2-3.653c.432-1.418,1.3-4.378,1.514-5.431.118-.59.454-2.668.841-3.965A3.2,3.2,0,0,1,354.469,342.262Z" transform="translate(-219.719 -96.606)" fill="#3b1f10"/>
        <path id="Trazado_11149" data-name="Trazado 11149" d="M357.821,368.887a1.219,1.219,0,0,1-1.586-1.081c-.116-.552.749-3.035,1.129-4.638a3.057,3.057,0,0,0,.024-1.394s-2.451,5.5-1.658,6.994a1.529,1.529,0,0,0,1.161.807Z" transform="translate(-222.703 -107.489)" fill="#3b1f10"/>
        <path id="Trazado_11150" data-name="Trazado 11150" d="M338.83,268.727a4.724,4.724,0,0,0,2.576,1.244,8.09,8.09,0,0,0,3.2,0,5.615,5.615,0,0,1-4.181.409c-1.435-.307-1.687-1.2-1.687-1.2Z" transform="translate(-213.316 -55.589)" fill="#3b1f10"/>
        <path id="Trazado_11151" data-name="Trazado 11151" d="M304.346,270.522s.926,3.6-1.068,9.588c-1.125,3.378-4.458,7.223-4.458,7.223a67.434,67.434,0,0,0,3.706-8.033A53.254,53.254,0,0,0,304.346,270.522Z" transform="translate(-191.046 -56.59)" fill="#3b1f10"/>
        <path id="Trazado_11152" data-name="Trazado 11152" d="M243.154,184.6s-4.591,1.219-6.448,5.066c-1.305,2.7,0-2.317,1.857-3.605C239.83,185.176,243.154,184.6,243.154,184.6Z" transform="translate(-156.106 -8.663)" fill="#3b1f10"/>
        <path id="Trazado_11153" data-name="Trazado 11153" d="M223.311,440.808c1.263,5.318,1.244,5.436,2.463,9.578,1.152,3.915,2.142,6.311,2.142,6.311a16.92,16.92,0,0,1-3.761-7.931C223.761,446.952,223.311,440.808,223.311,440.808Z" transform="translate(-148.929 -151.574)" fill="#3b1f10"/>
        <path id="Trazado_11154" data-name="Trazado 11154" d="M273.692,488.2a97.086,97.086,0,0,0-2.1,11.759c-.23,3.914,2.1,13.111,2.1,13.111s-3.015-7.332-2.994-12.665C270.712,496.717,273.692,488.2,273.692,488.2Z" transform="translate(-175.361 -178.007)" fill="#3b1f10"/>
        <path id="Trazado_11155" data-name="Trazado 11155" d="M249.472,520.483s.614,4.346-.537,6.879a5.023,5.023,0,0,1-3.079,2.971s2.146-2.816,2.322-3.241A24.5,24.5,0,0,0,249.472,520.483Z" transform="translate(-161.504 -196.016)" fill="#3b1f10"/>
        <path id="Trazado_11156" data-name="Trazado 11156" d="M229.355,527.774a33.03,33.03,0,0,0,1.381,9.441c.922,2.3-1.318-1.628-1.8-4.328A10.061,10.061,0,0,1,229.355,527.774Z" transform="translate(-151.979 -200.083)" fill="#3b1f10"/>
        <path id="Trazado_11157" data-name="Trazado 11157" d="M274.462,611.614a14.717,14.717,0,0,1-1.757,4.43,7.583,7.583,0,0,1-3.1,2.751,15.8,15.8,0,0,0,2.585-3.289C273.176,613.935,274.462,611.614,274.462,611.614Z" transform="translate(-174.749 -246.848)" fill="#3b1f10"/>
        <path id="Trazado_11158" data-name="Trazado 11158" d="M270.266,78.861a11.289,11.289,0,0,1-3.739-1.087c-2.334-1.688-2.3-2.94-2.3-2.94a3.92,3.92,0,0,0,1.565,3.483A4.232,4.232,0,0,0,270.266,78.861Z" transform="translate(-171.743 52.563)" fill="#3b1f10"/>
        <path id="Trazado_11159" data-name="Trazado 11159" d="M223.832,101.587a64.147,64.147,0,0,0-2.383,7.941c-.816,3.807-.337,13.272-.337,13.272s-1.842-4.657-.221-13.981A24.633,24.633,0,0,1,223.832,101.587Z" transform="translate(-147.207 37.64)" fill="#3b1f10"/>
        <path id="Trazado_11160" data-name="Trazado 11160" d="M223.855,164.923a9.917,9.917,0,0,0,.158,3.141,17.039,17.039,0,0,0,1.023,2.575s-1.029-.344-1.637-2.422A11.549,11.549,0,0,1,223.855,164.923Z" transform="translate(-148.954 2.312)" fill="#3b1f10"/>
        <path id="Trazado_11161" data-name="Trazado 11161" d="M332.372,145.538a12.786,12.786,0,0,1-1.644,2.623,17.008,17.008,0,0,1-2.389,1.75s.784,2.243.979,3.1a22.513,22.513,0,0,1,.313,2.467s-1.1-2.912-1.383-3.486c-.484-1-1.083-1.956-.809-2.347s1.9-1.037,2.773-1.883C330.791,147.207,332.372,145.538,332.372,145.538Z" transform="translate(-206.972 13.125)" fill="#3b1f10"/>
        <path id="Trazado_11162" data-name="Trazado 11162" d="M341.35,286.339c.22-.588.941-2.124,1.151-2.686a6.687,6.687,0,0,0,.182-1.792,4.193,4.193,0,0,1,.352,1.615c-.07.632-1.082,2.932-1.136,3.768a5.349,5.349,0,0,0,.671,3.165c.179.376,3.557,5.561,4.622,7.254.278.443,2.572,5.045,3.488,5.3a7.687,7.687,0,0,0,2.355.1,3.517,3.517,0,0,1-1.826.528,2.027,2.027,0,0,1-2.028-1.064c-.529-.672-3.441-6.113-3.933-6.674a46.691,46.691,0,0,1-3.406-5.146A5.055,5.055,0,0,1,341.35,286.339Z" transform="translate(-214.6 -62.915)" fill="#3b1f10"/>
        <path id="Trazado_11163" data-name="Trazado 11163" d="M216.958,340.257v14.155C216.769,347.778,216.815,343.661,216.958,340.257Z" transform="translate(-145.315 -95.488)" fill="#fff" stroke="#411906" stroke-linecap="round" stroke-linejoin="round" stroke-width="1.175"/>
        <g id="Grupo_7405" data-name="Grupo 7405" transform="translate(77.077 414.761)">
          <path id="Trazado_11164" data-name="Trazado 11164" d="M231.956,724.671s-.769,9.974-.811,12.42-1.869,10.889-1.734,12.888a22.177,22.177,0,0,0,.611,3.779,35.259,35.259,0,0,1,.031-5.083c.218-2.889,1.424-6.568,1.753-11.247C231.979,734.979,231.956,724.671,231.956,724.671Z" transform="translate(-229.404 -724.671)" fill="#3b1f10"/>
          <path id="Trazado_11165" data-name="Trazado 11165" d="M251.293,760.264a6.72,6.72,0,0,0,2.025-2.477,8.976,8.976,0,0,0,.838-3.73s.84,2.768-.211,4.354A4.758,4.758,0,0,1,251.293,760.264Z" transform="translate(-241.613 -741.063)" fill="#3b1f10"/>
          <path id="Trazado_11166" data-name="Trazado 11166" d="M246.774,760.009s.027-.25.073-.654a45.343,45.343,0,0,0,.743-4.641c-.019-2.873-1.187-4.927-1.125-8.706a62.051,62.051,0,0,1,1.24-9.333s-.952,9.336-.61,11.554c.544,3.529,1.159,5.106,1.1,6.239A14.345,14.345,0,0,1,246.774,760.009Z" transform="translate(-238.92 -731.367)" fill="#3b1f10"/>
          <path id="Trazado_11167" data-name="Trazado 11167" d="M266.224,766.194a1.84,1.84,0,0,1,.373-.787,2.87,2.87,0,0,1,.776-.33l-.767-.256a.529.529,0,0,0-.333.385A3.52,3.52,0,0,0,266.224,766.194Z" transform="translate(-249.934 -747.066)" fill="#3b1f10"/>
          <path id="Trazado_11168" data-name="Trazado 11168" d="M261.7,765.042a2.609,2.609,0,0,1,.327-.855,3.3,3.3,0,0,1,.612-.483l-.8-.086a.559.559,0,0,0-.264.447A3.5,3.5,0,0,0,261.7,765.042Z" transform="translate(-247.345 -746.395)" fill="#3b1f10"/>
        </g>
        <path id="Trazado_11169" data-name="Trazado 11169" d="M77.846,320.293a7.389,7.389,0,0,0,1.442.673c.769.144,1.05-.179,1.05-.179a7.7,7.7,0,0,1-1.459-.542,4.867,4.867,0,0,1-1.178-1.418l-.031.977Z" transform="translate(-67.692 -83.534)" fill="#3b1f10"/>
        <path id="Trazado_11170" data-name="Trazado 11170" d="M78.59,326.079a2.742,2.742,0,0,0,1.4,1.123,1.967,1.967,0,0,0,1.685-.351,3.04,3.04,0,0,1-1.825-.281,18.747,18.747,0,0,1-1.545-1.615Z" transform="translate(-68.048 -86.953)" fill="#3b1f10"/>
        <path id="Trazado_11171" data-name="Trazado 11171" d="M79.155,337.619a1.844,1.844,0,0,0,1.561,1.058,1.561,1.561,0,0,0,.825-.343,1.573,1.573,0,0,1-1.449-.475,4.166,4.166,0,0,1-.657-1.632Z" transform="translate(-68.52 -93.24)" fill="#3b1f10"/>
        <path id="Trazado_11172" data-name="Trazado 11172" d="M64.742,335.435s.028,2.688.028,3.741a19.794,19.794,0,0,0,.7,4.638,43.157,43.157,0,0,1,1.24,4.609c-.07.28.057,1.117-.562,1.263-1.28.3-1.966-1.615-1.966-1.615s.158,2.125,1.335,2.327c1.827.312,1.851-.869,1.851-1.922s-1.151-3.975-1.394-4.855a21.01,21.01,0,0,1-.625-3.34C65.25,339.416,64.742,335.435,64.742,335.435Z" transform="translate(-60.167 -92.798)" fill="#3b1f10"/>
        <path id="Trazado_11173" data-name="Trazado 11173" d="M70.53,342.262s1.011,4.829,1.362,6.514,1.64,6.964,1.851,7.666,1.033.24,1.033.24-.891-2.636-1.2-3.653c-.433-1.418-1.3-4.378-1.514-5.431-.119-.59-.454-2.668-.842-3.965A3.18,3.18,0,0,0,70.53,342.262Z" transform="translate(-63.709 -96.606)" fill="#3b1f10"/>
        <path id="Trazado_11174" data-name="Trazado 11174" d="M69.7,368.887a1.22,1.22,0,0,0,1.587-1.081c.115-.552-.75-3.035-1.13-4.638a3.043,3.043,0,0,1-.024-1.394s2.451,5.5,1.658,6.994a1.53,1.53,0,0,1-1.161.807Z" transform="translate(-63.245 -107.489)" fill="#3b1f10"/>
        <path id="Trazado_11175" data-name="Trazado 11175" d="M84.123,268.727a4.719,4.719,0,0,1-2.576,1.244,8.094,8.094,0,0,1-3.205,0,5.617,5.617,0,0,0,4.182.409c1.435-.307,1.687-1.2,1.687-1.2Z" transform="translate(-68.067 -55.589)" fill="#3b1f10"/>
        <path id="Trazado_11176" data-name="Trazado 11176" d="M174.916,214.28a23.362,23.362,0,0,1,3.343,7.281,56.688,56.688,0,0,1,1.193,14.313c-.193,3.218.465,11.4-1.257,15.666-1.233,3.057-2.88,5.657-9.109,7.07a28.537,28.537,0,0,1-10.507.267,55.078,55.078,0,0,1-7.071-1.959,26.222,26.222,0,0,0,7.613,2.837,26.688,26.688,0,0,0,10.872-.238c2.609-.637,7.1-1.32,9.653-7.795,1.641-4.159.913-13.036.913-16.785,0-2.544-.306-10.6-1.107-12.864C177.492,216.534,174.916,214.28,174.916,214.28Z" transform="translate(-108.878 -25.219)" fill="#3b1f10"/>
        <path id="Trazado_11177" data-name="Trazado 11177" d="M118.767,270.522s-.926,3.6,1.068,9.588c1.126,3.378,4.458,7.223,4.458,7.223a67.327,67.327,0,0,1-3.705-8.033A53.25,53.25,0,0,1,118.767,270.522Z" transform="translate(-90.496 -56.59)" fill="#3b1f10"/>
        <path id="Trazado_11178" data-name="Trazado 11178" d="M178.4,184.6s4.591,1.219,6.447,5.066c1.3,2.7,0-2.317-1.857-3.605C181.727,185.176,178.4,184.6,178.4,184.6Z" transform="translate(-123.881 -8.663)" fill="#3b1f10"/>
        <path id="Trazado_11179" data-name="Trazado 11179" d="M201.236,440.808c-1.263,5.318-1.245,5.436-2.464,9.578-1.151,3.915-2.141,6.311-2.141,6.311a16.915,16.915,0,0,0,3.761-7.931C200.786,446.952,201.236,440.808,201.236,440.808Z" transform="translate(-134.047 -151.574)" fill="#3b1f10"/>
        <path id="Trazado_11180" data-name="Trazado 11180" d="M152.887,488.2a97.176,97.176,0,0,1,2.1,11.759c.23,3.914-2.1,13.111-2.1,13.111s3.015-7.332,2.994-12.665C155.866,496.717,152.887,488.2,152.887,488.2Z" transform="translate(-109.647 -178.007)" fill="#3b1f10"/>
        <path id="Trazado_11181" data-name="Trazado 11181" d="M176.115,520.483s-.614,4.346.538,6.879a5.02,5.02,0,0,0,3.078,2.971s-2.146-2.816-2.322-3.241A24.48,24.48,0,0,1,176.115,520.483Z" transform="translate(-122.512 -196.016)" fill="#3b1f10"/>
        <path id="Trazado_11182" data-name="Trazado 11182" d="M198.256,527.774a33.02,33.02,0,0,1-1.382,9.441c-.921,2.3,1.319-1.628,1.8-4.328A10.061,10.061,0,0,0,198.256,527.774Z" transform="translate(-134.06 -200.083)" fill="#3b1f10"/>
        <path id="Trazado_11183" data-name="Trazado 11183" d="M149.762,611.614a14.751,14.751,0,0,0,1.758,4.43,7.58,7.58,0,0,0,3.1,2.751,15.813,15.813,0,0,1-2.586-3.289C151.048,613.935,149.762,611.614,149.762,611.614Z" transform="translate(-107.904 -246.848)" fill="#3b1f10"/>
        <path id="Trazado_11184" data-name="Trazado 11184" d="M152.456,78.861a11.292,11.292,0,0,0,3.739-1.087c2.333-1.688,2.295-2.94,2.295-2.94a3.92,3.92,0,0,1-1.564,3.483A4.232,4.232,0,0,1,152.456,78.861Z" transform="translate(-109.407 52.563)" fill="#3b1f10"/>
        <path id="Trazado_11185" data-name="Trazado 11185" d="M201.971,101.587a64.288,64.288,0,0,1,2.384,7.941c.815,3.807.336,13.272.336,13.272s1.843-4.657.221-13.981A24.64,24.64,0,0,0,201.971,101.587Z" transform="translate(-137.026 37.64)" fill="#3b1f10"/>
        <path id="Trazado_11186" data-name="Trazado 11186" d="M204.383,164.923a9.908,9.908,0,0,1-.157,3.141,16.978,16.978,0,0,1-1.023,2.575s1.029-.344,1.637-2.422A11.533,11.533,0,0,0,204.383,164.923Z" transform="translate(-137.712 2.312)" fill="#3b1f10"/>
        <path id="Trazado_11187" data-name="Trazado 11187" d="M91.674,145.538a12.762,12.762,0,0,0,1.645,2.623,16.982,16.982,0,0,0,2.389,1.75s-.784,2.243-.979,3.1a22.257,22.257,0,0,0-.314,2.467S95.52,152.569,95.8,152c.484-1,1.083-1.956.809-2.347s-1.9-1.037-2.774-1.883C93.255,147.207,91.674,145.538,91.674,145.538Z" transform="translate(-75.503 13.125)" fill="#3b1f10"/>
        <path id="Trazado_11188" data-name="Trazado 11188" d="M73.882,286.339c-.22-.588-.941-2.124-1.152-2.686a6.725,6.725,0,0,1-.182-1.792,4.206,4.206,0,0,0-.351,1.615c.07.632,1.081,2.932,1.136,3.768a5.353,5.353,0,0,1-.672,3.165c-.178.376-3.557,5.561-4.621,7.254-.279.443-2.573,5.045-3.489,5.3a7.687,7.687,0,0,1-2.355.1,3.52,3.52,0,0,0,1.827.528,2.028,2.028,0,0,0,2.028-1.064c.529-.672,3.44-6.113,3.931-6.674a46.74,46.74,0,0,0,3.407-5.146A5.055,5.055,0,0,0,73.882,286.339Z" transform="translate(-59.062 -62.915)" fill="#3b1f10"/>
        <path id="Trazado_11189" data-name="Trazado 11189" d="M213.239,340.257v14.155C213.429,347.778,213.382,343.661,213.239,340.257Z" transform="translate(-143.311 -95.488)" fill="#fff" stroke="#411906" stroke-linecap="round" stroke-linejoin="round" stroke-width="1.175"/>
        <g id="Grupo_7406" data-name="Grupo 7406" transform="translate(47.056 414.761)">
          <path id="Trazado_11190" data-name="Trazado 11190" d="M195.177,724.671s.77,9.974.812,12.42,1.869,10.889,1.733,12.888a22.23,22.23,0,0,1-.61,3.779,35.445,35.445,0,0,0-.031-5.083c-.218-2.889-1.424-6.568-1.754-11.247C195.155,734.979,195.177,724.671,195.177,724.671Z" transform="translate(-180.291 -724.671)" fill="#3b1f10"/>
          <path id="Trazado_11191" data-name="Trazado 11191" d="M175.049,760.264a6.714,6.714,0,0,1-2.024-2.477,8.961,8.961,0,0,1-.84-3.73s-.839,2.768.211,4.354A4.759,4.759,0,0,0,175.049,760.264Z" transform="translate(-167.29 -741.063)" fill="#3b1f10"/>
          <path id="Trazado_11192" data-name="Trazado 11192" d="M181.391,760.009s-.029-.25-.073-.654a45.219,45.219,0,0,1-.744-4.641c.019-2.873,1.188-4.927,1.124-8.706a61.89,61.89,0,0,0-1.24-9.333s.952,9.336.61,11.554c-.544,3.529-1.16,5.106-1.1,6.239A14.341,14.341,0,0,0,181.391,760.009Z" transform="translate(-171.806 -731.367)" fill="#3b1f10"/>
          <path id="Trazado_11193" data-name="Trazado 11193" d="M162.664,766.194a1.848,1.848,0,0,0-.372-.787,2.864,2.864,0,0,0-.776-.33l.766-.256a.53.53,0,0,1,.334.385A3.5,3.5,0,0,1,162.664,766.194Z" transform="translate(-161.516 -747.066)" fill="#3b1f10"/>
          <path id="Trazado_11194" data-name="Trazado 11194" d="M167.308,765.042a2.624,2.624,0,0,0-.328-.855,3.305,3.305,0,0,0-.612-.483l.8-.086a.559.559,0,0,1,.264.447A3.5,3.5,0,0,1,167.308,765.042Z" transform="translate(-164.222 -746.395)" fill="#3b1f10"/>
        </g>
        <path id="Trazado_11195" data-name="Trazado 11195" d="M116.993,38.509a61.61,61.61,0,0,1,4.616,8.651,51.7,51.7,0,0,1,2.363,9.96l1.454-.109s-2.215-8.279-3.417-11.05A37.915,37.915,0,0,0,116.993,38.509Z" transform="translate(-89.626 72.824)" fill="#3b1f10"/>
        <path id="Trazado_11196" data-name="Trazado 11196" d="M207.52-116.869c-.167-1.718-.686-3.963-2.379-11.58s-1.693-11.679-2.708-17.265-1.185-13.541-2.2-22.851c-.106-.973-.278-17.845-.333-19.16-.063-1.5-.556-8.244-1.537-10.622-2.236-5.423-3.523-7.391-6.1-9.537-3.085-2.573-4.48-3.638-9.584-4.788a31.644,31.644,0,0,0-6.845-.581,18.979,18.979,0,0,0-7.017,1.2c-5.908,2.6-5.837,5.2-8.922,7.775-2.573,2.147-4.268.889-6.5,6.313-.981,2.378-1.555,8.742-1.618,10.242-.083,1.972.035,16.26-.221,28.891-.092,4.582-.235,8.945-.454,12.424-.144,2.289-1.769,12.794-1.769,12.794-.754,4.742-2.479,19.4-2.694,23.818s-.69,8.152-.151,10.846a24.528,24.528,0,0,0,1.552,4.889,33.678,33.678,0,0,1-.647-6.682c.041-1.122.515-5.964,1.163-9.709-.074,2.038-.061,5.347.008,6.515a57.453,57.453,0,0,0,.7,6.732,33.1,33.1,0,0,0,1.146,4.85c.222.923.568,2.77.568,2.77l.433-2.737s.394,1.066.761,1.934a12.912,12.912,0,0,1,.54,2.772s.3-2.244.429-2.578.728-.342,1.2.259a13.408,13.408,0,0,1,1.1,2.747s.033-1.713.647-1.616c.641.1,1.324.42,1.7,1.957.185.748.3.834.3.834s.1-.968.534-1.268a1.127,1.127,0,0,1,1.2-.067c.367.167.868,1.636.968,1.836s.385-1.163.881-1.256c1.034-.194,1.583.032,1.923.622a10.946,10.946,0,0,1,.534,1.235s.234-.934.534-1.1a1.236,1.236,0,0,1,1.269,0,2.9,2.9,0,0,1,.566,1s.534-.9.8-.968a.965.965,0,0,1,.968.134,1.979,1.979,0,0,1,.534.8s.4-.667.734-.667a.947.947,0,0,1,.834.367c.167.267.367.634.367.634s.3-.834.634-.834.606.708.673.975-.206-.774.429-.808.73.376.9.743.138-.476.505-.61.768-.067.834.067.3.567.3.567a3.23,3.23,0,0,1,.535-.567.99.99,0,0,1,.591,0,2.309,2.309,0,0,1,.5.769s.268-.635.334-.769.467-.2.834-.067.409.912.576.545.192-.712.826-.679.593,1.01.66.743.108-.91.441-.91.634.834.634.834.2-.367.368-.634a.945.945,0,0,1,.834-.367c.333,0,.734.667.734.667a1.979,1.979,0,0,1,.534-.8.966.966,0,0,1,.968-.134c.267.066.8.968.8.968a2.907,2.907,0,0,1,.568-1,1.235,1.235,0,0,1,1.268,0,2.068,2.068,0,0,1,.573.764,5.579,5.579,0,0,1,.5-.9,1.575,1.575,0,0,1,1.569-.534c.489.128,1.135,1.368,1.235,1.168s.354-1.4.674-1.643a1.186,1.186,0,0,1,1.5-.126c.433.3.534,1.268.534,1.268a3.192,3.192,0,0,0,.782-1.24,2.64,2.64,0,0,1,1.32-1.6c.4-.067.877,1.856.877,1.856a11.974,11.974,0,0,1,.959-2.923c.467-.6,1.1-.6,1.234-.267a20.389,20.389,0,0,1,.2,2.57s.583-1.907.734-2.837c.168-1.033.362-1.873.362-1.873a4.011,4.011,0,0,1,.388,1.357c.048.563.032,2.262.032,2.262s.738-2.361.905-3.3,1.056-4.423,1.47-7.731c.175-1.394.179-2.809.261-4.2.069-1.167-.009-4.453-.084-6.491a46.125,46.125,0,0,1,1.254,9.686,29.756,29.756,0,0,1-1.194,7.449,14.869,14.869,0,0,0,2.058-6.047c.423-2.715.107-6.035-.108-10.454-.138-2.82-1.582-13.5-2.3-19.421a77.547,77.547,0,0,1,3.132,9.63c1.015,4.232.968,11.451.968,11.451A43.412,43.412,0,0,0,207.52-116.869Z" transform="translate(-105.938 213.257)" fill="#3b1f10"/>
        <path id="Trazado_11197" data-name="Trazado 11197" d="M164.658-113.34s0,16.588-.846,24.205-3.281,19.489-4.128,23.212-1.967,19.443-1.967,19.443,2.573-16.236,3.208-19.443c1.182-5.968,3.286-19.042,3.781-22.748C165.829-97.06,164.658-113.34,164.658-113.34Z" transform="translate(-112.341 157.524)" fill="#fff"/>
        <path id="Trazado_11198" data-name="Trazado 11198" d="M260.3-83.866s1.693,23.7,2.032,28.944.716,17.788.539,21.688c-.124,2.727-.708,11.15-.708,11.15s-.418-22.458-.651-27.576C261.276-54.859,260.3-83.866,260.3-83.866Z" transform="translate(-169.561 141.084)" fill="#fff"/>
        <path id="Trazado_11199" data-name="Trazado 11199" d="M186.126-13.053s-1.525,11-2.2,17.942a67.351,67.351,0,0,0-.169,14.388,8.209,8.209,0,0,0,1.185,3.047s-1.125-5.749-.2-15.468C185.01,3.971,186.126-13.053,186.126-13.053Z" transform="translate(-126.7 101.585)" fill="#fff"/>
        <path id="Trazado_11200" data-name="Trazado 11200" d="M235.345,301.931a23.379,23.379,0,0,1-9.907.141c-4.87-1.171-8.464-4.465-9.7-7.522a14.468,14.468,0,0,1-.794-3.082h-1.411a14.1,14.1,0,0,0,.755,3.173c2.556,6.474,7.614,7.568,9.653,8.157a22.633,22.633,0,0,0,10.862.011,26.222,26.222,0,0,0,7.612-2.837A55.037,55.037,0,0,1,235.345,301.931Z" transform="translate(-143.475 -68.273)" fill="#3b1f10"/>
        <path id="Trazado_11201" data-name="Trazado 11201" d="M216.03,221.976a28.281,28.281,0,0,1,3.364-7.7s-2.577,2.254-4.536,7.792a18.849,18.849,0,0,0-.633,3.681l1.02,2.5A35.213,35.213,0,0,1,216.03,221.976Z" transform="translate(-143.861 -25.219)" fill="#3b1f10"/>
      </g>
      <path id="Trazado_11351" data-name="Trazado 11351" d="M203.29,211.372c-1.092-3.278-1.928-4.178-1.928-4.178s-9.062,2.128-19.341,3.4a178.623,178.623,0,0,1-19.778.916v-.02s-.44.008-1.209.015-1.209-.015-1.209-.015,0,.011,0,.02a178.632,178.632,0,0,1-19.778-.916c-10.279-1.269-19.34-3.4-19.34-3.4a17.061,17.061,0,0,0-1.915,4.365,14.612,14.612,0,0,0-.572,2.705,48.19,48.19,0,0,1,16.66,2.223c7.109,2.128,11.988,4,16.818,8.545,2.963,2.788,6.5,6.2,7.292,11.756a32.664,32.664,0,0,1-.645,13.505,5.87,5.87,0,0,0,2.906.4c2.19-.05,2.7-.515,2.7-.515s-1.242-8.784.758-14.1c3.157-8.382,5.91-10.852,9.253-13.171,6.041-4.19,7.535-4.6,14.585-6.912,6.967-2.286,15.566-1.8,15.566-1.8S203.715,212.646,203.29,211.372Z" transform="translate(-90.309 -21.267)" fill="#3b1f10"/>
      <path id="Trazado_11357" data-name="Trazado 11357" d="M140.576,84.667c3.937,1.023,16.926,2.885,28.519,3.156a103.156,103.156,0,0,0,24.165-1.9,110.53,110.53,0,0,0,11.865-3.211l.98-2.068a80.94,80.94,0,0,1-11.049,3.1,82.236,82.236,0,0,1-24,2.613c-2.165-.035-6.78-.077-9.415-.272a120.794,120.794,0,0,1-18.994-2.939,49.763,49.763,0,0,1-7.675-2.286l.762,2.4S137.855,83.959,140.576,84.667Z" transform="translate(-99.653 49.325)" fill="#3b1f10"/>
    </g>
    <path id="Trazado_11359" data-name="Trazado 11359" d="M-265.586,2055.9h497.2" transform="translate(2626.398 3444.098) rotate(90)" fill="none" stroke="#e55858" stroke-width="4"/>
  </g>
</svg>
