<svg xmlns="http://www.w3.org/2000/svg" width="744" height="656.195" viewBox="0 0 744 656.195">
  <g id="Grupo_8381" data-name="Grupo 8381" transform="translate(-119 -704)">
    <g id="Grupo_8368" data-name="Grupo 8368">
      <g id="Grupo_8353" data-name="Grupo 8353">
        <g id="Grupo_7508" data-name="Grupo 7508">
          <rect id="Rectángulo_1817" data-name="Rectángulo 1817" width="113" height="113" transform="translate(119 704)" fill="#00a99a"/>
          <path id="Trazado_11516" data-name="Trazado 11516" d="M2074.862-580.044H2145.7" transform="translate(-1935 1341)" fill="none" stroke="#fed97b" stroke-width="4"/>
        </g>
        <path id="Trazado_13319" data-name="Trazado 13319" d="M-39.014,0h-3.018V-6.162h-5.654V0h-3.027V-14.277h3.027v5.6h5.654v-5.6h3.018Zm5.742-5.479a4.582,4.582,0,0,0,.532,2.451,1.9,1.9,0,0,0,1.733.83,1.873,1.873,0,0,0,1.714-.825,4.648,4.648,0,0,0,.522-2.456A4.51,4.51,0,0,0-29.3-7.91a1.907,1.907,0,0,0-1.729-.811,1.9,1.9,0,0,0-1.719.806A4.506,4.506,0,0,0-33.271-5.479Zm7.549,0a5.867,5.867,0,0,1-1.406,4.17A5.1,5.1,0,0,1-31.045.2a5.478,5.478,0,0,1-2.773-.688,4.581,4.581,0,0,1-1.846-1.978,6.645,6.645,0,0,1-.645-3.008,5.835,5.835,0,0,1,1.4-4.16,5.128,5.128,0,0,1,3.926-1.484,5.509,5.509,0,0,1,2.773.684,4.563,4.563,0,0,1,1.846,1.963A6.584,6.584,0,0,1-25.723-5.479Zm8.555-5.645a4.8,4.8,0,0,1,1.006.088l-.225,2.793a3.412,3.412,0,0,0-.879-.1,3.159,3.159,0,0,0-2.222.732,2.648,2.648,0,0,0-.8,2.051V0h-2.979V-10.918h2.256l.439,1.836h.146a4.1,4.1,0,0,1,1.372-1.479A3.383,3.383,0,0,1-17.168-11.123Zm2.861-2.617q0-1.455,1.621-1.455t1.621,1.455a1.419,1.419,0,0,1-.405,1.079,1.7,1.7,0,0,1-1.216.386Q-14.307-12.275-14.307-13.74ZM-11.2,0H-14.18V-10.918H-11.2ZM-.479,0H-9.1V-1.758l5.059-6.885H-8.8v-2.275H-.654v1.934L-5.576-2.275h5.1ZM4.053-5.479a4.582,4.582,0,0,0,.532,2.451,1.9,1.9,0,0,0,1.733.83,1.873,1.873,0,0,0,1.714-.825,4.648,4.648,0,0,0,.522-2.456A4.51,4.51,0,0,0,8.027-7.91,1.907,1.907,0,0,0,6.3-8.721a1.9,1.9,0,0,0-1.719.806A4.506,4.506,0,0,0,4.053-5.479Zm7.549,0A5.867,5.867,0,0,1,10.2-1.309,5.1,5.1,0,0,1,6.279.2,5.478,5.478,0,0,1,3.506-.493,4.581,4.581,0,0,1,1.66-2.471a6.645,6.645,0,0,1-.645-3.008,5.835,5.835,0,0,1,1.4-4.16,5.128,5.128,0,0,1,3.926-1.484,5.509,5.509,0,0,1,2.773.684,4.563,4.563,0,0,1,1.846,1.963A6.584,6.584,0,0,1,11.6-5.479ZM24.141,0H21.162V-6.377a3.063,3.063,0,0,0-.42-1.772A1.528,1.528,0,0,0,19.4-8.74a2.011,2.011,0,0,0-1.807.835,5.178,5.178,0,0,0-.557,2.769V0H14.063V-10.918h2.275l.4,1.4H16.9a3.148,3.148,0,0,1,1.372-1.2,4.672,4.672,0,0,1,1.987-.405,3.818,3.818,0,0,1,2.891,1.03,4.134,4.134,0,0,1,.986,2.974Zm7.666-2.178a6.457,6.457,0,0,0,1.875-.342V-.3a6.685,6.685,0,0,1-2.734.5,3.347,3.347,0,0,1-2.6-.9,3.932,3.932,0,0,1-.815-2.71V-8.682H26.1v-1.26l1.641-1,.859-2.3h1.9v2.324h3.057v2.236H30.508v5.264a1.163,1.163,0,0,0,.356.938A1.406,1.406,0,0,0,31.807-2.178ZM42.822,0l-.576-1.484h-.078A4.4,4.4,0,0,1,40.62-.171,5,5,0,0,1,38.545.2a3.356,3.356,0,0,1-2.476-.9,3.45,3.45,0,0,1-.9-2.559,2.881,2.881,0,0,1,1.216-2.563,7.045,7.045,0,0,1,3.667-.913L41.943-6.8v-.479a1.485,1.485,0,0,0-1.7-1.66,7.743,7.743,0,0,0-3.076.791l-.986-2.012a8.876,8.876,0,0,1,4.18-.986,5.206,5.206,0,0,1,3.369.957A3.537,3.537,0,0,1,44.9-7.275V0Zm-.879-5.059-1.152.039a3.69,3.69,0,0,0-1.934.469,1.472,1.472,0,0,0-.635,1.309q0,1.26,1.445,1.26a2.289,2.289,0,0,0,1.655-.6,2.092,2.092,0,0,0,.62-1.582Zm9,5.059H47.969V-15.2h2.979Z" transform="translate(176 848)" fill="#00223d"/>
      </g>
      <g id="Grupo_8355" data-name="Grupo 8355">
        <g id="Grupo_7509" data-name="Grupo 7509" transform="translate(9)">
          <rect id="Rectángulo_1818" data-name="Rectángulo 1818" width="113" height="113" transform="translate(320 704)" fill="#00a99a"/>
          <path id="Trazado_11517" data-name="Trazado 11517" d="M2074.862-580.044H2145.7" transform="translate(-203.544 -1349.325) rotate(90)" fill="none" stroke="#fed97b" stroke-width="4"/>
        </g>
        <path id="Trazado_13320" data-name="Trazado 13320" d="M-28.633-14.277h3.057L-30.43,0h-3.3l-4.844-14.277h3.057l2.686,8.5q.225.752.464,1.753t.3,1.392a25.014,25.014,0,0,1,.732-3.145ZM-19.492-9a1.889,1.889,0,0,0-1.484.6,2.78,2.78,0,0,0-.615,1.7h4.18a2.483,2.483,0,0,0-.576-1.7A1.951,1.951,0,0,0-19.492-9Zm.42,9.2A5.635,5.635,0,0,1-23.193-1.26a5.509,5.509,0,0,1-1.484-4.121,6.06,6.06,0,0,1,1.372-4.243,4.886,4.886,0,0,1,3.794-1.5,4.809,4.809,0,0,1,3.6,1.318,4.988,4.988,0,0,1,1.289,3.643v1.445H-21.66a2.867,2.867,0,0,0,.752,1.982,2.646,2.646,0,0,0,1.973.713,8.189,8.189,0,0,0,1.865-.205,9.333,9.333,0,0,0,1.836-.654v2.3A6.994,6.994,0,0,1-16.9,0,10.529,10.529,0,0,1-19.072.2ZM-6.1-11.123a4.8,4.8,0,0,1,1.006.088l-.225,2.793a3.412,3.412,0,0,0-.879-.1,3.159,3.159,0,0,0-2.222.732,2.648,2.648,0,0,0-.8,2.051V0H-12.2V-10.918h2.256L-9.5-9.082h.146a4.1,4.1,0,0,1,1.372-1.479A3.383,3.383,0,0,1-6.1-11.123ZM1.484-2.178A6.457,6.457,0,0,0,3.359-2.52V-.3A6.685,6.685,0,0,1,.625.2a3.347,3.347,0,0,1-2.6-.9,3.932,3.932,0,0,1-.815-2.71V-8.682H-4.219v-1.26l1.641-1,.859-2.3h1.9v2.324H3.242v2.236H.186v5.264a1.163,1.163,0,0,0,.356.938A1.406,1.406,0,0,0,1.484-2.178ZM5.439-13.74q0-1.455,1.621-1.455T8.682-13.74a1.419,1.419,0,0,1-.405,1.079,1.7,1.7,0,0,1-1.216.386Q5.439-12.275,5.439-13.74ZM8.545,0H5.566V-10.918H8.545ZM16.1.2q-5.1,0-5.1-5.6a5.969,5.969,0,0,1,1.387-4.253,5.2,5.2,0,0,1,3.975-1.47,7.577,7.577,0,0,1,3.4.742l-.879,2.3q-.7-.283-1.309-.464a4.216,4.216,0,0,0-1.211-.181q-2.324,0-2.324,3.3,0,3.2,2.324,3.2a5.3,5.3,0,0,0,1.592-.229,5.747,5.747,0,0,0,1.465-.718V-.615a4.8,4.8,0,0,1-1.46.635A8.21,8.21,0,0,1,16.1.2ZM28.887,0l-.576-1.484h-.078A4.4,4.4,0,0,1,26.685-.171,5,5,0,0,1,24.609.2a3.356,3.356,0,0,1-2.476-.9,3.45,3.45,0,0,1-.9-2.559,2.881,2.881,0,0,1,1.216-2.563,7.045,7.045,0,0,1,3.667-.913L28.008-6.8v-.479a1.485,1.485,0,0,0-1.7-1.66,7.743,7.743,0,0,0-3.076.791l-.986-2.012a8.876,8.876,0,0,1,4.18-.986,5.206,5.206,0,0,1,3.369.957,3.537,3.537,0,0,1,1.172,2.91V0Zm-.879-5.059-1.152.039a3.69,3.69,0,0,0-1.934.469,1.472,1.472,0,0,0-.635,1.309q0,1.26,1.445,1.26a2.289,2.289,0,0,0,1.655-.6,2.092,2.092,0,0,0,.62-1.582Zm9,5.059H34.033V-15.2h2.979Z" transform="translate(386 848)" fill="#00223d"/>
      </g>
      <g id="Grupo_8354" data-name="Grupo 8354">
        <path id="Trazado_13322" data-name="Trazado 13322" d="M-40.552-11.963A3.085,3.085,0,0,0-43.2-10.679,5.974,5.974,0,0,0-44.136-7.1q0,4.775,3.584,4.775a11.329,11.329,0,0,0,3.643-.752V-.537A10.116,10.116,0,0,1-40.835.2,5.987,5.987,0,0,1-45.6-1.694a8,8,0,0,1-1.65-5.425,8.858,8.858,0,0,1,.811-3.9,5.858,5.858,0,0,1,2.329-2.568,6.89,6.89,0,0,1,3.56-.894,9.607,9.607,0,0,1,4.18,1.006l-.977,2.461a16.165,16.165,0,0,0-1.611-.664A4.807,4.807,0,0,0-40.552-11.963ZM-26.372,0l-.4-1.4h-.156A3.142,3.142,0,0,1-28.286-.22a4.634,4.634,0,0,1-2,.415,3.812,3.812,0,0,1-2.9-1.03A4.145,4.145,0,0,1-34.165-3.8v-7.119h2.979v6.377a3.063,3.063,0,0,0,.42,1.772,1.528,1.528,0,0,0,1.338.591,2.011,2.011,0,0,0,1.807-.835,5.178,5.178,0,0,0,.557-2.769v-5.137h2.979V0Zm12.344,0L-14.6-1.484h-.078A4.4,4.4,0,0,1-16.23-.171,5,5,0,0,1-18.306.2a3.356,3.356,0,0,1-2.476-.9,3.45,3.45,0,0,1-.9-2.559,2.881,2.881,0,0,1,1.216-2.563A7.045,7.045,0,0,1-16.8-6.738l1.895-.059v-.479a1.485,1.485,0,0,0-1.7-1.66,7.743,7.743,0,0,0-3.076.791l-.986-2.012a8.876,8.876,0,0,1,4.18-.986,5.206,5.206,0,0,1,3.369.957,3.537,3.537,0,0,1,1.172,2.91V0Zm-.879-5.059-1.152.039a3.69,3.69,0,0,0-1.934.469,1.472,1.472,0,0,0-.635,1.309q0,1.26,1.445,1.26a2.289,2.289,0,0,0,1.655-.6,2.092,2.092,0,0,0,.62-1.582ZM-5.425.2A3.546,3.546,0,0,1-8.447-1.3a6.869,6.869,0,0,1-1.1-4.141A6.876,6.876,0,0,1-8.428-9.624a3.632,3.632,0,0,1,3.081-1.5A3.562,3.562,0,0,1-2.2-9.521h.1A12.177,12.177,0,0,1-2.329-11.7v-3.5H.659V0H-1.626L-2.2-1.416h-.127A3.408,3.408,0,0,1-5.425.2ZM-4.38-2.178a2.018,2.018,0,0,0,1.675-.664A3.863,3.863,0,0,0-2.124-5.1V-5.42a4.464,4.464,0,0,0-.542-2.52A2.013,2.013,0,0,0-4.429-8.7a1.748,1.748,0,0,0-1.548.845A4.507,4.507,0,0,0-6.528-5.4a4.271,4.271,0,0,0,.557,2.417A1.819,1.819,0,0,0-4.38-2.178ZM9.868-11.123a4.8,4.8,0,0,1,1.006.088l-.225,2.793a3.412,3.412,0,0,0-.879-.1,3.159,3.159,0,0,0-2.222.732,2.648,2.648,0,0,0-.8,2.051V0H3.774V-10.918H6.03L6.47-9.082h.146a4.1,4.1,0,0,1,1.372-1.479A3.383,3.383,0,0,1,9.868-11.123ZM19.79,0l-.576-1.484h-.078A4.4,4.4,0,0,1,17.588-.171,5,5,0,0,1,15.513.2a3.356,3.356,0,0,1-2.476-.9,3.45,3.45,0,0,1-.9-2.559A2.881,2.881,0,0,1,13.35-5.825a7.045,7.045,0,0,1,3.667-.913L18.911-6.8v-.479a1.485,1.485,0,0,0-1.7-1.66,7.743,7.743,0,0,0-3.076.791l-.986-2.012a8.876,8.876,0,0,1,4.18-.986,5.206,5.206,0,0,1,3.369.957,3.537,3.537,0,0,1,1.172,2.91V0Zm-.879-5.059-1.152.039a3.69,3.69,0,0,0-1.934.469,1.472,1.472,0,0,0-.635,1.309q0,1.26,1.445,1.26a2.289,2.289,0,0,0,1.655-.6,2.092,2.092,0,0,0,.62-1.582ZM28.394.2A3.546,3.546,0,0,1,25.371-1.3a6.869,6.869,0,0,1-1.1-4.141,6.876,6.876,0,0,1,1.118-4.185,3.632,3.632,0,0,1,3.081-1.5,3.562,3.562,0,0,1,3.145,1.6h.1a12.177,12.177,0,0,1-.225-2.178v-3.5h2.988V0H32.192l-.576-1.416h-.127A3.408,3.408,0,0,1,28.394.2Zm1.045-2.373a2.018,2.018,0,0,0,1.675-.664A3.863,3.863,0,0,0,31.694-5.1V-5.42a4.464,4.464,0,0,0-.542-2.52A2.013,2.013,0,0,0,29.39-8.7a1.748,1.748,0,0,0-1.548.845A4.507,4.507,0,0,0,27.29-5.4a4.271,4.271,0,0,0,.557,2.417A1.819,1.819,0,0,0,29.438-2.178Zm10.527-3.3A4.582,4.582,0,0,0,40.5-3.027a1.9,1.9,0,0,0,1.733.83,1.873,1.873,0,0,0,1.714-.825,4.648,4.648,0,0,0,.522-2.456A4.51,4.51,0,0,0,43.94-7.91a1.907,1.907,0,0,0-1.729-.811,1.9,1.9,0,0,0-1.719.806A4.506,4.506,0,0,0,39.966-5.479Zm7.549,0a5.867,5.867,0,0,1-1.406,4.17A5.1,5.1,0,0,1,42.192.2a5.478,5.478,0,0,1-2.773-.688,4.581,4.581,0,0,1-1.846-1.978,6.645,6.645,0,0,1-.645-3.008,5.835,5.835,0,0,1,1.4-4.16,5.128,5.128,0,0,1,3.926-1.484,5.509,5.509,0,0,1,2.773.684A4.563,4.563,0,0,1,46.87-8.477,6.584,6.584,0,0,1,47.515-5.479Z" transform="translate(176 1017)" fill="#00223d"/>
        <g id="Grupo_7512" data-name="Grupo 7512" transform="translate(0 -31)">
          <rect id="Rectángulo_1822" data-name="Rectángulo 1822" width="113" height="113" transform="translate(119 904)" fill="#00a99a"/>
          <g id="Rectángulo_1823" data-name="Rectángulo 1823" transform="translate(136 926)" fill="none" stroke="#fed97b" stroke-width="4">
            <rect width="79" height="69" stroke="none"/>
            <rect x="2" y="2" width="75" height="65" fill="none"/>
          </g>
        </g>
      </g>
      <g id="Grupo_8356" data-name="Grupo 8356">
        <path id="Trazado_13323" data-name="Trazado 13323" d="M-36.279-7.559h1a3.317,3.317,0,0,0,2.09-.552A1.931,1.931,0,0,0-32.5-9.717a1.98,1.98,0,0,0-.581-1.572A2.723,2.723,0,0,0-34.9-11.8h-1.377Zm6.836-2.266A4.364,4.364,0,0,1-30.884-6.3a6.161,6.161,0,0,1-4.1,1.221h-1.3V0h-3.027V-14.277h4.561a6.066,6.066,0,0,1,3.95,1.118A4.077,4.077,0,0,1-29.443-9.824ZM-20.049,0l-.576-1.484H-20.7A4.4,4.4,0,0,1-22.251-.171,5,5,0,0,1-24.326.2,3.356,3.356,0,0,1-26.8-.7a3.45,3.45,0,0,1-.9-2.559,2.881,2.881,0,0,1,1.216-2.563,7.045,7.045,0,0,1,3.667-.913l1.895-.059v-.479a1.485,1.485,0,0,0-1.7-1.66,7.743,7.743,0,0,0-3.076.791l-.986-2.012a8.876,8.876,0,0,1,4.18-.986,5.206,5.206,0,0,1,3.369.957,3.537,3.537,0,0,1,1.172,2.91V0Zm-.879-5.059-1.152.039a3.69,3.69,0,0,0-1.934.469,1.472,1.472,0,0,0-.635,1.309q0,1.26,1.445,1.26a2.289,2.289,0,0,0,1.655-.6,2.092,2.092,0,0,0,.62-1.582Zm12.119-6.064a4.8,4.8,0,0,1,1.006.088l-.225,2.793a3.412,3.412,0,0,0-.879-.1,3.159,3.159,0,0,0-2.222.732,2.648,2.648,0,0,0-.8,2.051V0H-14.9V-10.918h2.256l.439,1.836h.146a4.1,4.1,0,0,1,1.372-1.479A3.383,3.383,0,0,1-8.809-11.123ZM1.113,0,.537-1.484H.459A4.4,4.4,0,0,1-1.089-.171,5,5,0,0,1-3.164.2,3.356,3.356,0,0,1-5.64-.7a3.45,3.45,0,0,1-.9-2.559A2.881,2.881,0,0,1-5.327-5.825,7.045,7.045,0,0,1-1.66-6.738L.234-6.8v-.479a1.485,1.485,0,0,0-1.7-1.66,7.743,7.743,0,0,0-3.076.791l-.986-2.012a8.876,8.876,0,0,1,4.18-.986,5.206,5.206,0,0,1,3.369.957,3.537,3.537,0,0,1,1.172,2.91V0ZM.234-5.059-.918-5.02a3.69,3.69,0,0,0-1.934.469,1.472,1.472,0,0,0-.635,1.309q0,1.26,1.445,1.26a2.289,2.289,0,0,0,1.655-.6A2.092,2.092,0,0,0,.234-4.16ZM9.238,0H6.26V-15.2H9.238Zm7.646-9a1.889,1.889,0,0,0-1.484.6,2.78,2.78,0,0,0-.615,1.7h4.18a2.483,2.483,0,0,0-.576-1.7A1.951,1.951,0,0,0,16.885-9ZM17.3.2A5.635,5.635,0,0,1,13.184-1.26,5.509,5.509,0,0,1,11.7-5.381a6.06,6.06,0,0,1,1.372-4.243,4.886,4.886,0,0,1,3.794-1.5,4.809,4.809,0,0,1,3.6,1.318,4.988,4.988,0,0,1,1.289,3.643v1.445H14.717a2.867,2.867,0,0,0,.752,1.982,2.646,2.646,0,0,0,1.973.713,8.189,8.189,0,0,0,1.865-.205,9.333,9.333,0,0,0,1.836-.654v2.3A6.994,6.994,0,0,1,19.473,0,10.529,10.529,0,0,1,17.3.2ZM27.158,0H24.18V-15.2h2.979Zm5.5-5.479a4.582,4.582,0,0,0,.532,2.451,1.9,1.9,0,0,0,1.733.83,1.873,1.873,0,0,0,1.714-.825,4.648,4.648,0,0,0,.522-2.456,4.51,4.51,0,0,0-.527-2.432A1.907,1.907,0,0,0,34.9-8.721a1.9,1.9,0,0,0-1.719.806A4.506,4.506,0,0,0,32.656-5.479Zm7.549,0A5.867,5.867,0,0,1,38.8-1.309,5.1,5.1,0,0,1,34.883.2a5.478,5.478,0,0,1-2.773-.688,4.581,4.581,0,0,1-1.846-1.978,6.645,6.645,0,0,1-.645-3.008,5.835,5.835,0,0,1,1.4-4.16,5.128,5.128,0,0,1,3.926-1.484,5.509,5.509,0,0,1,2.773.684,4.563,4.563,0,0,1,1.846,1.963A6.584,6.584,0,0,1,40.205-5.479Z" transform="translate(386 1017)" fill="#00223d"/>
        <g id="Grupo_7513" data-name="Grupo 7513" transform="translate(8 -31)">
          <rect id="Rectángulo_1824" data-name="Rectángulo 1824" width="113" height="113" transform="translate(321 904)" fill="#00a99a"/>
          <path id="Trazado_11520" data-name="Trazado 11520" d="M2074.862-580.044H2145.7" transform="translate(-1733 1529)" fill="none" stroke="#fed97b" stroke-width="4"/>
          <path id="Trazado_11521" data-name="Trazado 11521" d="M2074.862-580.044H2145.7" transform="translate(-1733 1550)" fill="none" stroke="#fed97b" stroke-width="4"/>
        </g>
      </g>
      <g id="Grupo_8365" data-name="Grupo 8365">
        <path id="Trazado_13325" data-name="Trazado 13325" d="M-25.449-14.277h3.057L-27.246,0h-3.3l-4.844-14.277h3.057l2.686,8.5q.225.752.464,1.753t.3,1.392a25.014,25.014,0,0,1,.732-3.145ZM-16.309-9a1.889,1.889,0,0,0-1.484.6,2.78,2.78,0,0,0-.615,1.7h4.18A2.483,2.483,0,0,0-14.8-8.4,1.951,1.951,0,0,0-16.309-9Zm.42,9.2A5.635,5.635,0,0,1-20.01-1.26a5.509,5.509,0,0,1-1.484-4.121,6.06,6.06,0,0,1,1.372-4.243,4.886,4.886,0,0,1,3.794-1.5,4.809,4.809,0,0,1,3.6,1.318,4.988,4.988,0,0,1,1.289,3.643v1.445h-7.041a2.867,2.867,0,0,0,.752,1.982,2.646,2.646,0,0,0,1.973.713,8.189,8.189,0,0,0,1.865-.205,9.333,9.333,0,0,0,1.836-.654v2.3A6.994,6.994,0,0,1-13.721,0,10.529,10.529,0,0,1-15.889.2ZM-2.92-11.123a4.8,4.8,0,0,1,1.006.088l-.225,2.793a3.412,3.412,0,0,0-.879-.1,3.159,3.159,0,0,0-2.222.732,2.648,2.648,0,0,0-.8,2.051V0H-9.014V-10.918h2.256l.439,1.836h.146A4.1,4.1,0,0,1-4.8-10.562,3.383,3.383,0,0,1-2.92-11.123ZM4.668-2.178A6.457,6.457,0,0,0,6.543-2.52V-.3A6.685,6.685,0,0,1,3.809.2a3.347,3.347,0,0,1-2.6-.9,3.932,3.932,0,0,1-.815-2.71V-8.682H-1.035v-1.26l1.641-1,.859-2.3h1.9v2.324H6.426v2.236H3.369v5.264a1.163,1.163,0,0,0,.356.938A1.406,1.406,0,0,0,4.668-2.178ZM8.623-13.74q0-1.455,1.621-1.455t1.621,1.455a1.419,1.419,0,0,1-.405,1.079,1.7,1.7,0,0,1-1.216.386Q8.623-12.275,8.623-13.74ZM11.729,0H8.75V-10.918h2.979Zm7.559.2q-5.1,0-5.1-5.6a5.969,5.969,0,0,1,1.387-4.253,5.2,5.2,0,0,1,3.975-1.47,7.577,7.577,0,0,1,3.4.742l-.879,2.3q-.7-.283-1.309-.464a4.216,4.216,0,0,0-1.211-.181q-2.324,0-2.324,3.3,0,3.2,2.324,3.2a5.3,5.3,0,0,0,1.592-.229,5.747,5.747,0,0,0,1.465-.718V-.615a4.8,4.8,0,0,1-1.46.635A8.21,8.21,0,0,1,19.287.2ZM29.658-9a1.889,1.889,0,0,0-1.484.6,2.78,2.78,0,0,0-.615,1.7h4.18a2.483,2.483,0,0,0-.576-1.7A1.951,1.951,0,0,0,29.658-9Zm.42,9.2A5.635,5.635,0,0,1,25.957-1.26a5.509,5.509,0,0,1-1.484-4.121,6.06,6.06,0,0,1,1.372-4.243,4.886,4.886,0,0,1,3.794-1.5,4.809,4.809,0,0,1,3.6,1.318,4.988,4.988,0,0,1,1.289,3.643v1.445H27.49a2.867,2.867,0,0,0,.752,1.982,2.646,2.646,0,0,0,1.973.713,8.189,8.189,0,0,0,1.865-.205,9.333,9.333,0,0,0,1.836-.654v2.3A6.994,6.994,0,0,1,32.246,0,10.529,10.529,0,0,1,30.078.2Z" transform="translate(176 1189)" fill="#00223d"/>
        <g id="Grupo_7516" data-name="Grupo 7516" transform="translate(0 -67)">
          <rect id="Rectángulo_1827" data-name="Rectángulo 1827" width="113" height="113" transform="translate(119 1112)" fill="#00a99a"/>
          <path id="Trazado_11524" data-name="Trazado 11524" d="M2097-190.559h75.309v68.25" transform="translate(-1961 1324)" fill="none" stroke="#fed97b" stroke-width="4"/>
          <line id="Línea_44" data-name="Línea 44" x1="27" y2="28" transform="translate(183.5 1135.5)" fill="none" stroke="#fed97b" stroke-width="4"/>
        </g>
      </g>
      <g id="Grupo_8357" data-name="Grupo 8357">
        <path id="Trazado_13326" data-name="Trazado 13326" d="M-23.389-7.939h.977a3.736,3.736,0,0,0,2.119-.479,1.708,1.708,0,0,0,.684-1.5,1.562,1.562,0,0,0-.7-1.445,4.237,4.237,0,0,0-2.163-.43h-.918Zm0,2.461V0h-3.027V-14.277h4.16a7.12,7.12,0,0,1,4.307,1.06A3.782,3.782,0,0,1-16.553-10a3.788,3.788,0,0,1-.693,2.241,4.588,4.588,0,0,1-1.963,1.538Q-15.986-1.406-15.01,0h-3.359l-3.408-5.479ZM-6.514,0-7.09-1.484h-.078A4.4,4.4,0,0,1-8.716-.171,5,5,0,0,1-10.791.2a3.356,3.356,0,0,1-2.476-.9,3.45,3.45,0,0,1-.9-2.559,2.881,2.881,0,0,1,1.216-2.563,7.045,7.045,0,0,1,3.667-.913L-7.393-6.8v-.479a1.485,1.485,0,0,0-1.7-1.66,7.743,7.743,0,0,0-3.076.791l-.986-2.012a8.876,8.876,0,0,1,4.18-.986,5.206,5.206,0,0,1,3.369.957,3.537,3.537,0,0,1,1.172,2.91V0Zm-.879-5.059-1.152.039a3.69,3.69,0,0,0-1.934.469,1.472,1.472,0,0,0-.635,1.309q0,1.26,1.445,1.26a2.289,2.289,0,0,0,1.655-.6,2.092,2.092,0,0,0,.62-1.582ZM2.09.2A3.546,3.546,0,0,1-.933-1.3a6.869,6.869,0,0,1-1.1-4.141A6.876,6.876,0,0,1-.913-9.624a3.632,3.632,0,0,1,3.081-1.5,3.562,3.562,0,0,1,3.145,1.6h.1A12.177,12.177,0,0,1,5.186-11.7v-3.5H8.174V0H5.889L5.313-1.416H5.186A3.408,3.408,0,0,1,2.09.2ZM3.135-2.178A2.018,2.018,0,0,0,4.81-2.842,3.863,3.863,0,0,0,5.391-5.1V-5.42a4.464,4.464,0,0,0-.542-2.52A2.013,2.013,0,0,0,3.086-8.7a1.748,1.748,0,0,0-1.548.845A4.507,4.507,0,0,0,.986-5.4a4.271,4.271,0,0,0,.557,2.417A1.819,1.819,0,0,0,3.135-2.178ZM11.162-13.74q0-1.455,1.621-1.455T14.4-13.74A1.419,1.419,0,0,1,14-12.661a1.7,1.7,0,0,1-1.216.386Q11.162-12.275,11.162-13.74ZM14.268,0H11.289V-10.918h2.979Zm5.5-5.479A4.582,4.582,0,0,0,20.3-3.027a1.9,1.9,0,0,0,1.733.83,1.873,1.873,0,0,0,1.714-.825,4.648,4.648,0,0,0,.522-2.456A4.51,4.51,0,0,0,23.74-7.91a1.907,1.907,0,0,0-1.729-.811,1.9,1.9,0,0,0-1.719.806A4.506,4.506,0,0,0,19.766-5.479Zm7.549,0a5.867,5.867,0,0,1-1.406,4.17A5.1,5.1,0,0,1,21.992.2a5.478,5.478,0,0,1-2.773-.688,4.581,4.581,0,0,1-1.846-1.978,6.645,6.645,0,0,1-.645-3.008,5.835,5.835,0,0,1,1.4-4.16,5.128,5.128,0,0,1,3.926-1.484,5.509,5.509,0,0,1,2.773.684A4.563,4.563,0,0,1,26.67-8.477,6.584,6.584,0,0,1,27.314-5.479Z" transform="translate(386 1189)" fill="#00223d"/>
        <g id="Grupo_7517" data-name="Grupo 7517" transform="translate(4 -67)">
          <rect id="Rectángulo_1829" data-name="Rectángulo 1829" width="113" height="113" transform="translate(325 1112)" fill="#00a99a"/>
          <path id="Trazado_11526" data-name="Trazado 11526" d="M93.185,554.724A30.5,30.5,0,1,1,62.428,524.13" transform="translate(319.591 613.649)" fill="none" stroke="#fed97b" stroke-miterlimit="10" stroke-width="5"/>
          <path id="Trazado_11527" data-name="Trazado 11527" d="M2553-153.057h33.168" transform="translate(-2171 1322)" fill="none" stroke="#fed97b" stroke-width="4"/>
          <circle id="Elipse_523" data-name="Elipse 523" cx="5" cy="5" r="5" transform="translate(377 1164)" fill="#fed97b"/>
        </g>
      </g>
      <g id="Grupo_8366" data-name="Grupo 8366">
        <path id="Trazado_13331" data-name="Trazado 13331" d="M-42.046-3.965A3.691,3.691,0,0,1-43.437-.918,6.045,6.045,0,0,1-47.31.2a9.094,9.094,0,0,1-4.043-.859V-3.477a16.661,16.661,0,0,0,2.446.908,7.239,7.239,0,0,0,1.831.264,2.6,2.6,0,0,0,1.528-.381,1.3,1.3,0,0,0,.532-1.133,1.251,1.251,0,0,0-.234-.747,2.623,2.623,0,0,0-.688-.63,17.707,17.707,0,0,0-1.851-.967,8.771,8.771,0,0,1-1.963-1.182A4.436,4.436,0,0,1-50.8-8.662a3.762,3.762,0,0,1-.391-1.758A3.69,3.69,0,0,1-49.9-13.4a5.336,5.336,0,0,1,3.55-1.084,8.383,8.383,0,0,1,2.124.264,14.6,14.6,0,0,1,2.114.742l-.977,2.354a14.288,14.288,0,0,0-1.89-.654,6.082,6.082,0,0,0-1.47-.186,1.946,1.946,0,0,0-1.318.4,1.321,1.321,0,0,0-.459,1.045,1.293,1.293,0,0,0,.186.7,2.04,2.04,0,0,0,.591.576,18.268,18.268,0,0,0,1.919,1,7.635,7.635,0,0,1,2.744,1.919A3.745,3.745,0,0,1-42.046-3.965ZM-35.171-9a1.889,1.889,0,0,0-1.484.6,2.78,2.78,0,0,0-.615,1.7h4.18a2.483,2.483,0,0,0-.576-1.7A1.951,1.951,0,0,0-35.171-9Zm.42,9.2A5.635,5.635,0,0,1-38.872-1.26a5.509,5.509,0,0,1-1.484-4.121,6.06,6.06,0,0,1,1.372-4.243,4.886,4.886,0,0,1,3.794-1.5,4.809,4.809,0,0,1,3.6,1.318A4.988,4.988,0,0,1-30.3-6.162v1.445h-7.041a2.867,2.867,0,0,0,.752,1.982,2.646,2.646,0,0,0,1.973.713,8.189,8.189,0,0,0,1.865-.205,9.333,9.333,0,0,0,1.836-.654v2.3A6.994,6.994,0,0,1-32.583,0,10.529,10.529,0,0,1-34.751.2ZM-18.1,0h-2.979V-6.377a3.212,3.212,0,0,0-.4-1.772A1.391,1.391,0,0,0-22.72-8.74a1.8,1.8,0,0,0-1.66.84A5.509,5.509,0,0,0-24.9-5.137V0h-2.979V-10.918H-25.6l.4,1.4h.166a3.026,3.026,0,0,1,1.27-1.177,4.122,4.122,0,0,1,1.9-.425,3.43,3.43,0,0,1,3.32,1.6h.264A2.95,2.95,0,0,1-16.982-10.7a4.315,4.315,0,0,1,1.929-.42,3.807,3.807,0,0,1,2.808.952,4.181,4.181,0,0,1,.952,3.052V0h-2.988V-6.377a3.212,3.212,0,0,0-.4-1.772,1.391,1.391,0,0,0-1.245-.591,1.858,1.858,0,0,0-1.636.781,4.433,4.433,0,0,0-.542,2.48Zm9.736-13.74q0-1.455,1.621-1.455t1.621,1.455a1.419,1.419,0,0,1-.405,1.079,1.7,1.7,0,0,1-1.216.386Q-8.364-12.275-8.364-13.74ZM-5.259,0H-8.237V-10.918h2.979ZM2.3.2Q-2.8.2-2.8-5.4A5.969,5.969,0,0,1-1.411-9.653a5.2,5.2,0,0,1,3.975-1.47,7.577,7.577,0,0,1,3.4.742l-.879,2.3q-.7-.283-1.309-.464a4.216,4.216,0,0,0-1.211-.181q-2.324,0-2.324,3.3,0,3.2,2.324,3.2a5.3,5.3,0,0,0,1.592-.229A5.747,5.747,0,0,0,5.62-3.164V-.615A4.8,4.8,0,0,1,4.16.02,8.21,8.21,0,0,1,2.3.2ZM15.884,0l-.4-1.4h-.156A3.142,3.142,0,0,1,13.97-.22a4.634,4.634,0,0,1-2,.415,3.812,3.812,0,0,1-2.9-1.03A4.145,4.145,0,0,1,8.091-3.8v-7.119h2.979v6.377a3.063,3.063,0,0,0,.42,1.772,1.528,1.528,0,0,0,1.338.591,2.011,2.011,0,0,0,1.807-.835,5.178,5.178,0,0,0,.557-2.769v-5.137h2.979V0Zm11.5-11.123a4.8,4.8,0,0,1,1.006.088l-.225,2.793a3.412,3.412,0,0,0-.879-.1,3.159,3.159,0,0,0-2.222.732,2.648,2.648,0,0,0-.8,2.051V0H21.294V-10.918H23.55l.439,1.836h.146a4.1,4.1,0,0,1,1.372-1.479A3.383,3.383,0,0,1,27.388-11.123ZM32.974,0l-4.16-10.918h3.115L34.038-4.7a11.1,11.1,0,0,1,.439,2.236h.059A9.725,9.725,0,0,1,34.976-4.7l2.1-6.221H40.19L36.03,0ZM48.687,0,48.11-1.484h-.078A4.4,4.4,0,0,1,46.484-.171,5,5,0,0,1,44.409.2a3.356,3.356,0,0,1-2.476-.9,3.45,3.45,0,0,1-.9-2.559,2.881,2.881,0,0,1,1.216-2.563,7.045,7.045,0,0,1,3.667-.913L47.808-6.8v-.479a1.485,1.485,0,0,0-1.7-1.66,7.743,7.743,0,0,0-3.076.791l-.986-2.012a8.876,8.876,0,0,1,4.18-.986,5.206,5.206,0,0,1,3.369.957,3.537,3.537,0,0,1,1.172,2.91V0Zm-.879-5.059-1.152.039a3.69,3.69,0,0,0-1.934.469,1.472,1.472,0,0,0-.635,1.309q0,1.26,1.445,1.26a2.289,2.289,0,0,0,1.655-.6,2.092,2.092,0,0,0,.62-1.582Z" transform="translate(176 1360)" fill="#00223d"/>
        <g id="Grupo_7520" data-name="Grupo 7520" transform="translate(0 -99)">
          <rect id="Rectángulo_1831" data-name="Rectángulo 1831" width="113" height="113" transform="translate(119 1315)" fill="#00a99a"/>
          <path id="Trazado_11530" data-name="Trazado 11530" d="M2087.529,55.021s34.81-24.771,78.279,0" transform="translate(-1948 1324)" fill="none" stroke="#fed97b" stroke-width="4"/>
        </g>
      </g>
      <g id="Grupo_8367" data-name="Grupo 8367">
        <g id="Grupo_8358" data-name="Grupo 8358">
          <path id="Trazado_13332" data-name="Trazado 13332" d="M-34.844-11.963a3.085,3.085,0,0,0-2.646,1.284A5.974,5.974,0,0,0-38.428-7.1q0,4.775,3.584,4.775A11.329,11.329,0,0,0-31.2-3.076V-.537A10.116,10.116,0,0,1-35.127.2a5.987,5.987,0,0,1-4.766-1.89,8,8,0,0,1-1.65-5.425,8.858,8.858,0,0,1,.811-3.9A5.858,5.858,0,0,1-38.4-13.589a6.89,6.89,0,0,1,3.56-.894,9.607,9.607,0,0,1,4.18,1.006l-.977,2.461a16.165,16.165,0,0,0-1.611-.664A4.807,4.807,0,0,0-34.844-11.963Zm8.818,6.484a4.582,4.582,0,0,0,.532,2.451,1.9,1.9,0,0,0,1.733.83,1.873,1.873,0,0,0,1.714-.825,4.648,4.648,0,0,0,.522-2.456,4.51,4.51,0,0,0-.527-2.432,1.907,1.907,0,0,0-1.729-.811,1.9,1.9,0,0,0-1.719.806A4.506,4.506,0,0,0-26.025-5.479Zm7.549,0a5.867,5.867,0,0,1-1.406,4.17A5.1,5.1,0,0,1-23.8.2a5.478,5.478,0,0,1-2.773-.688,4.581,4.581,0,0,1-1.846-1.978,6.645,6.645,0,0,1-.645-3.008,5.835,5.835,0,0,1,1.4-4.16,5.128,5.128,0,0,1,3.926-1.484,5.509,5.509,0,0,1,2.773.684,4.563,4.563,0,0,1,1.846,1.963A6.584,6.584,0,0,1-18.477-5.479ZM-5.937,0H-8.916V-6.377a3.063,3.063,0,0,0-.42-1.772,1.528,1.528,0,0,0-1.338-.591,2.011,2.011,0,0,0-1.807.835,5.178,5.178,0,0,0-.557,2.769V0h-2.979V-10.918h2.275l.4,1.4h.166a3.148,3.148,0,0,1,1.372-1.2,4.672,4.672,0,0,1,1.987-.405,3.818,3.818,0,0,1,2.891,1.03,4.134,4.134,0,0,1,.986,2.974ZM-.273,0l-4.16-10.918h3.115L.791-4.7A11.1,11.1,0,0,1,1.23-2.461h.059A9.725,9.725,0,0,1,1.729-4.7l2.1-6.221H6.943L2.783,0Zm13.3-9a1.889,1.889,0,0,0-1.484.6,2.78,2.78,0,0,0-.615,1.7h4.18a2.483,2.483,0,0,0-.576-1.7A1.951,1.951,0,0,0,13.027-9Zm.42,9.2A5.635,5.635,0,0,1,9.326-1.26,5.509,5.509,0,0,1,7.842-5.381,6.06,6.06,0,0,1,9.214-9.624a4.886,4.886,0,0,1,3.794-1.5,4.809,4.809,0,0,1,3.6,1.318A4.988,4.988,0,0,1,17.9-6.162v1.445H10.859a2.867,2.867,0,0,0,.752,1.982,2.646,2.646,0,0,0,1.973.713,8.189,8.189,0,0,0,1.865-.205,9.333,9.333,0,0,0,1.836-.654v2.3A6.994,6.994,0,0,1,15.615,0,10.529,10.529,0,0,1,13.447.2Zm9.111-5.771-3.516-5.342h3.379l2.119,3.477,2.139-3.477h3.379L26.5-5.576,30.225,0H26.836L24.541-3.74,22.236,0H18.857Zm11.7.1a4.582,4.582,0,0,0,.532,2.451,1.9,1.9,0,0,0,1.733.83,1.873,1.873,0,0,0,1.714-.825,4.648,4.648,0,0,0,.522-2.456,4.51,4.51,0,0,0-.527-2.432A1.907,1.907,0,0,0,36.5-8.721a1.9,1.9,0,0,0-1.719.806A4.506,4.506,0,0,0,34.258-5.479Zm7.549,0A5.867,5.867,0,0,1,40.4-1.309,5.1,5.1,0,0,1,36.484.2a5.478,5.478,0,0,1-2.773-.688,4.581,4.581,0,0,1-1.846-1.978,6.645,6.645,0,0,1-.645-3.008,5.835,5.835,0,0,1,1.4-4.16,5.128,5.128,0,0,1,3.926-1.484,5.509,5.509,0,0,1,2.773.684,4.563,4.563,0,0,1,1.846,1.963A6.584,6.584,0,0,1,41.807-5.479Z" transform="translate(386 1360)" fill="#00223d"/>
          <g id="Grupo_7521" data-name="Grupo 7521" transform="translate(7 -99)">
            <rect id="Rectángulo_1832" data-name="Rectángulo 1832" width="113" height="113" transform="translate(322 1315)" fill="#00a99a"/>
            <path id="Trazado_11531" data-name="Trazado 11531" d="M2087.529,55.021s18.991-67.552,48.935-46.691c8.765,6.105,18.68,20.3,29.344,46.691" transform="translate(-1745 1334)" fill="none" stroke="#fed97b" stroke-width="4"/>
          </g>
        </g>
      </g>
    </g>
    <g id="Grupo_8380" data-name="Grupo 8380">
      <g id="Grupo_8359" data-name="Grupo 8359">
        <g id="Grupo_7510" data-name="Grupo 7510" transform="translate(4)">
          <rect id="Rectángulo_1819" data-name="Rectángulo 1819" width="113" height="113" transform="translate(534 704)" fill="#00a99a"/>
          <path id="Trazado_11518" data-name="Trazado 11518" d="M2074.862-580.044H2145.7" transform="translate(10.456 -1353.325) rotate(90)" fill="none" stroke="#fed97b" stroke-width="4"/>
          <path id="Trazado_11519" data-name="Trazado 11519" d="M2074.862-580.044H2145.7" transform="translate(-1520 1372)" fill="none" stroke="#fed97b" stroke-width="4"/>
        </g>
        <path id="Trazado_13321" data-name="Trazado 13321" d="M-65.439-7.559h1a3.317,3.317,0,0,0,2.09-.552,1.931,1.931,0,0,0,.693-1.606,1.98,1.98,0,0,0-.581-1.572,2.723,2.723,0,0,0-1.821-.508h-1.377ZM-58.6-9.824A4.364,4.364,0,0,1-60.044-6.3a6.161,6.161,0,0,1-4.1,1.221h-1.3V0h-3.027V-14.277h4.561a6.066,6.066,0,0,1,3.95,1.118A4.077,4.077,0,0,1-58.6-9.824Zm6.982.82a1.889,1.889,0,0,0-1.484.6,2.78,2.78,0,0,0-.615,1.7h4.18a2.483,2.483,0,0,0-.576-1.7A1.951,1.951,0,0,0-51.621-9ZM-51.2.2A5.635,5.635,0,0,1-55.322-1.26a5.509,5.509,0,0,1-1.484-4.121,6.06,6.06,0,0,1,1.372-4.243,4.886,4.886,0,0,1,3.794-1.5,4.809,4.809,0,0,1,3.6,1.318,4.988,4.988,0,0,1,1.289,3.643v1.445h-7.041a2.867,2.867,0,0,0,.752,1.982,2.646,2.646,0,0,0,1.973.713A8.189,8.189,0,0,0-49.2-2.227a9.333,9.333,0,0,0,1.836-.654v2.3A6.994,6.994,0,0,1-49.033,0,10.529,10.529,0,0,1-51.2.2Zm12.969-11.318a4.8,4.8,0,0,1,1.006.088l-.225,2.793a3.412,3.412,0,0,0-.879-.1,3.159,3.159,0,0,0-2.222.732,2.648,2.648,0,0,0-.8,2.051V0h-2.979V-10.918h2.256l.439,1.836h.146a4.1,4.1,0,0,1,1.372-1.479A3.383,3.383,0,0,1-38.232-11.123ZM-29.248.2a3.621,3.621,0,0,1-3.018-1.4h-.156q.156,1.367.156,1.582V4.8h-2.979V-10.918h2.422L-32.4-9.5h.137a3.446,3.446,0,0,1,3.1-1.621,3.543,3.543,0,0,1,3.027,1.494,6.91,6.91,0,0,1,1.094,4.15,8.2,8.2,0,0,1-.513,3.037,4.26,4.26,0,0,1-1.46,1.963A3.741,3.741,0,0,1-29.248.2Zm-.879-8.936a1.881,1.881,0,0,0-1.611.679,3.9,3.9,0,0,0-.527,2.241V-5.5a4.6,4.6,0,0,0,.522,2.52,1.865,1.865,0,0,0,1.655.762q2,0,2-3.3a4.714,4.714,0,0,0-.493-2.417A1.683,1.683,0,0,0-30.127-8.74ZM-18.066-9a1.889,1.889,0,0,0-1.484.6,2.78,2.78,0,0,0-.615,1.7h4.18a2.483,2.483,0,0,0-.576-1.7A1.951,1.951,0,0,0-18.066-9Zm.42,9.2A5.635,5.635,0,0,1-21.768-1.26a5.509,5.509,0,0,1-1.484-4.121A6.06,6.06,0,0,1-21.88-9.624a4.886,4.886,0,0,1,3.794-1.5,4.809,4.809,0,0,1,3.6,1.318,4.988,4.988,0,0,1,1.289,3.643v1.445h-7.041a2.867,2.867,0,0,0,.752,1.982,2.646,2.646,0,0,0,1.973.713,8.189,8.189,0,0,0,1.865-.205,9.333,9.333,0,0,0,1.836-.654v2.3A6.994,6.994,0,0,1-15.479,0,10.529,10.529,0,0,1-17.646.2ZM-.693,0H-3.672V-6.377a3.063,3.063,0,0,0-.42-1.772A1.528,1.528,0,0,0-5.43-8.74a2.011,2.011,0,0,0-1.807.835,5.178,5.178,0,0,0-.557,2.769V0h-2.979V-10.918H-8.5l.4,1.4h.166a3.148,3.148,0,0,1,1.372-1.2,4.672,4.672,0,0,1,1.987-.405,3.818,3.818,0,0,1,2.891,1.03A4.134,4.134,0,0,1-.693-7.119ZM5.83.2A3.546,3.546,0,0,1,2.808-1.3a6.869,6.869,0,0,1-1.1-4.141A6.876,6.876,0,0,1,2.827-9.624a3.632,3.632,0,0,1,3.081-1.5,3.562,3.562,0,0,1,3.145,1.6h.1A12.177,12.177,0,0,1,8.926-11.7v-3.5h2.988V0H9.629L9.053-1.416H8.926A3.408,3.408,0,0,1,5.83.2ZM6.875-2.178A2.018,2.018,0,0,0,8.55-2.842,3.863,3.863,0,0,0,9.131-5.1V-5.42a4.464,4.464,0,0,0-.542-2.52A2.013,2.013,0,0,0,6.826-8.7a1.748,1.748,0,0,0-1.548.845A4.507,4.507,0,0,0,4.727-5.4a4.271,4.271,0,0,0,.557,2.417A1.819,1.819,0,0,0,6.875-2.178ZM14.9-13.74q0-1.455,1.621-1.455t1.621,1.455a1.419,1.419,0,0,1-.405,1.079,1.7,1.7,0,0,1-1.216.386Q14.9-12.275,14.9-13.74ZM18.008,0H15.029V-10.918h2.979Zm7.559.2q-5.1,0-5.1-5.6a5.969,5.969,0,0,1,1.387-4.253,5.2,5.2,0,0,1,3.975-1.47,7.577,7.577,0,0,1,3.4.742l-.879,2.3q-.7-.283-1.309-.464a4.216,4.216,0,0,0-1.211-.181q-2.324,0-2.324,3.3,0,3.2,2.324,3.2a5.3,5.3,0,0,0,1.592-.229,5.747,5.747,0,0,0,1.465-.718V-.615a4.8,4.8,0,0,1-1.46.635A8.21,8.21,0,0,1,25.566.2ZM39.15,0l-.4-1.4h-.156A3.142,3.142,0,0,1,37.236-.22a4.634,4.634,0,0,1-2,.415,3.812,3.812,0,0,1-2.9-1.03A4.145,4.145,0,0,1,31.357-3.8v-7.119h2.979v6.377a3.063,3.063,0,0,0,.42,1.772,1.528,1.528,0,0,0,1.338.591A2.011,2.011,0,0,0,37.9-3.013a5.178,5.178,0,0,0,.557-2.769v-5.137h2.979V0Zm8.389,0H44.561V-15.2h2.979ZM57.6,0l-.576-1.484h-.078A4.4,4.4,0,0,1,55.4-.171,5,5,0,0,1,53.32.2a3.356,3.356,0,0,1-2.476-.9,3.45,3.45,0,0,1-.9-2.559,2.881,2.881,0,0,1,1.216-2.563,7.045,7.045,0,0,1,3.667-.913L56.719-6.8v-.479a1.485,1.485,0,0,0-1.7-1.66,7.743,7.743,0,0,0-3.076.791l-.986-2.012a8.876,8.876,0,0,1,4.18-.986,5.206,5.206,0,0,1,3.369.957,3.537,3.537,0,0,1,1.172,2.91V0Zm-.879-5.059-1.152.039a3.69,3.69,0,0,0-1.934.469A1.472,1.472,0,0,0,53-3.242q0,1.26,1.445,1.26a2.289,2.289,0,0,0,1.655-.6,2.092,2.092,0,0,0,.62-1.582Zm12.119-6.064a4.8,4.8,0,0,1,1.006.088l-.225,2.793a3.412,3.412,0,0,0-.879-.1,3.159,3.159,0,0,0-2.222.732,2.648,2.648,0,0,0-.8,2.051V0H62.744V-10.918H65l.439,1.836h.146a4.1,4.1,0,0,1,1.372-1.479A3.383,3.383,0,0,1,68.838-11.123Z" transform="translate(598 848)" fill="#00223d"/>
      </g>
      <g id="Grupo_8364" data-name="Grupo 8364">
        <path id="Trazado_13328" data-name="Trazado 13328" d="M-51.245-7.939h.977a3.736,3.736,0,0,0,2.119-.479,1.708,1.708,0,0,0,.684-1.5,1.562,1.562,0,0,0-.7-1.445,4.237,4.237,0,0,0-2.163-.43h-.918Zm0,2.461V0h-3.027V-14.277h4.16a7.12,7.12,0,0,1,4.307,1.06A3.782,3.782,0,0,1-44.409-10,3.788,3.788,0,0,1-45.1-7.759a4.588,4.588,0,0,1-1.963,1.538q3.223,4.814,4.2,6.221h-3.359l-3.408-5.479ZM-36.782-9a1.889,1.889,0,0,0-1.484.6,2.78,2.78,0,0,0-.615,1.7h4.18a2.483,2.483,0,0,0-.576-1.7A1.951,1.951,0,0,0-36.782-9Zm.42,9.2A5.635,5.635,0,0,1-40.483-1.26a5.509,5.509,0,0,1-1.484-4.121A6.06,6.06,0,0,1-40.6-9.624a4.886,4.886,0,0,1,3.794-1.5A4.809,4.809,0,0,1-33.2-9.8a4.988,4.988,0,0,1,1.289,3.643v1.445H-38.95A2.867,2.867,0,0,0-38.2-2.734a2.646,2.646,0,0,0,1.973.713,8.189,8.189,0,0,0,1.865-.205,9.333,9.333,0,0,0,1.836-.654v2.3A6.994,6.994,0,0,1-34.194,0,10.529,10.529,0,0,1-36.362.2Zm11.309,0q-5.1,0-5.1-5.6a5.969,5.969,0,0,1,1.387-4.253,5.2,5.2,0,0,1,3.975-1.47,7.577,7.577,0,0,1,3.4.742l-.879,2.3q-.7-.283-1.309-.464a4.216,4.216,0,0,0-1.211-.181q-2.324,0-2.324,3.3,0,3.2,2.324,3.2A5.3,5.3,0,0,0-23.2-2.446a5.747,5.747,0,0,0,1.465-.718V-.615a4.8,4.8,0,0,1-1.46.635A8.21,8.21,0,0,1-25.054.2ZM-14.6-2.178a6.457,6.457,0,0,0,1.875-.342V-.3a6.685,6.685,0,0,1-2.734.5,3.347,3.347,0,0,1-2.6-.9,3.932,3.932,0,0,1-.815-2.71V-8.682h-1.426v-1.26l1.641-1,.859-2.3h1.9v2.324h3.057v2.236H-15.9v5.264a1.163,1.163,0,0,0,.356.938A1.406,1.406,0,0,0-14.6-2.178ZM-3.589,0l-.576-1.484h-.078A4.4,4.4,0,0,1-5.791-.171,5,5,0,0,1-7.866.2a3.356,3.356,0,0,1-2.476-.9,3.45,3.45,0,0,1-.9-2.559,2.881,2.881,0,0,1,1.216-2.563,7.045,7.045,0,0,1,3.667-.913L-4.468-6.8v-.479a1.485,1.485,0,0,0-1.7-1.66,7.743,7.743,0,0,0-3.076.791l-.986-2.012a8.876,8.876,0,0,1,4.18-.986,5.206,5.206,0,0,1,3.369.957,3.537,3.537,0,0,1,1.172,2.91V0Zm-.879-5.059L-5.62-5.02a3.69,3.69,0,0,0-1.934.469,1.472,1.472,0,0,0-.635,1.309q0,1.26,1.445,1.26a2.289,2.289,0,0,0,1.655-.6,2.092,2.092,0,0,0,.62-1.582Zm-3.311-7.061v-.264a27.494,27.494,0,0,0,2.295-2.939h3.34v.205q-.508.508-1.733,1.509T-5.8-12.119ZM11.636,0H8.657V-6.377a3.063,3.063,0,0,0-.42-1.772A1.528,1.528,0,0,0,6.9-8.74a2.011,2.011,0,0,0-1.807.835,5.178,5.178,0,0,0-.557,2.769V0H1.558V-10.918H3.833l.4,1.4H4.4a3.148,3.148,0,0,1,1.372-1.2,4.672,4.672,0,0,1,1.987-.405,3.818,3.818,0,0,1,2.891,1.03,4.134,4.134,0,0,1,.986,2.974ZM24.2-10.918V-9.4L22.5-8.965a2.979,2.979,0,0,1,.469,1.641,3.312,3.312,0,0,1-1.226,2.739,5.308,5.308,0,0,1-3.4.981L17.8-3.633l-.439-.049A.99.99,0,0,0,16.9-2.9q0,.645,1.641.645H20.4a4.233,4.233,0,0,1,2.739.771A2.758,2.758,0,0,1,24.077.781a3.36,3.36,0,0,1-1.6,2.969A8.315,8.315,0,0,1,17.9,4.8a6.348,6.348,0,0,1-3.491-.8A2.527,2.527,0,0,1,13.2,1.777a2.336,2.336,0,0,1,.615-1.65A3.493,3.493,0,0,1,15.62-.82a1.993,1.993,0,0,1-.8-.64,1.52,1.52,0,0,1-.342-.942,1.527,1.527,0,0,1,.361-1.04,4.177,4.177,0,0,1,1.045-.815,2.93,2.93,0,0,1-1.362-1.191,3.626,3.626,0,0,1-.5-1.934,3.41,3.41,0,0,1,1.162-2.764,5.025,5.025,0,0,1,3.32-.977,8.5,8.5,0,0,1,1.089.083q.63.083.806.122ZM15.776,1.543a1.079,1.079,0,0,0,.591.967,3.251,3.251,0,0,0,1.655.352,5.863,5.863,0,0,0,2.51-.439,1.339,1.339,0,0,0,.908-1.2A.85.85,0,0,0,20.9.371a4.4,4.4,0,0,0-1.66-.234H17.7a2.337,2.337,0,0,0-1.372.386A1.19,1.19,0,0,0,15.776,1.543ZM16.86-7.344a2.223,2.223,0,0,0,.405,1.406A1.472,1.472,0,0,0,18.5-5.42a1.442,1.442,0,0,0,1.23-.518,2.282,2.282,0,0,0,.391-1.406q0-1.973-1.621-1.973Q16.86-9.316,16.86-7.344ZM33.735,0l-.4-1.4h-.156A3.142,3.142,0,0,1,31.821-.22a4.634,4.634,0,0,1-2,.415,3.812,3.812,0,0,1-2.9-1.03A4.145,4.145,0,0,1,25.942-3.8v-7.119h2.979v6.377a3.063,3.063,0,0,0,.42,1.772,1.528,1.528,0,0,0,1.338.591,2.011,2.011,0,0,0,1.807-.835,5.178,5.178,0,0,0,.557-2.769v-5.137h2.979V0Zm8.389,0H39.146V-15.2h2.979Zm5.5-5.479a4.582,4.582,0,0,0,.532,2.451,1.9,1.9,0,0,0,1.733.83A1.873,1.873,0,0,0,51.6-3.022a4.648,4.648,0,0,0,.522-2.456A4.51,4.51,0,0,0,51.6-7.91a1.907,1.907,0,0,0-1.729-.811,1.9,1.9,0,0,0-1.719.806A4.506,4.506,0,0,0,47.622-5.479Zm7.549,0a5.867,5.867,0,0,1-1.406,4.17A5.1,5.1,0,0,1,49.849.2a5.478,5.478,0,0,1-2.773-.688,4.581,4.581,0,0,1-1.846-1.978,6.645,6.645,0,0,1-.645-3.008,5.835,5.835,0,0,1,1.4-4.16,5.128,5.128,0,0,1,3.926-1.484,5.509,5.509,0,0,1,2.773.684,4.563,4.563,0,0,1,1.846,1.963A6.584,6.584,0,0,1,55.171-5.479Z" transform="translate(805 848)" fill="#00223d"/>
        <g id="Grupo_7511" data-name="Grupo 7511">
          <rect id="Rectángulo_1820" data-name="Rectángulo 1820" width="113" height="113" transform="translate(748 704)" fill="#00a99a"/>
          <g id="Rectángulo_1821" data-name="Rectángulo 1821" transform="translate(766 730)" fill="none" stroke="#fed97b" stroke-width="4">
            <rect width="79" height="59" stroke="none"/>
            <rect x="2" y="2" width="75" height="55" fill="none"/>
          </g>
        </g>
      </g>
      <g id="Grupo_8360" data-name="Grupo 8360">
        <g id="Grupo_7514" data-name="Grupo 7514" transform="translate(4 -31)">
          <rect id="Rectángulo_1825" data-name="Rectángulo 1825" width="113" height="113" transform="translate(535 904)" fill="#00a99a"/>
          <path id="Trazado_11522" data-name="Trazado 11522" d="M2145.7-580.044h-70.837v70.722" transform="translate(46.456 -1149.325) rotate(90)" fill="none" stroke="#fed97b" stroke-width="4"/>
        </g>
        <path id="Trazado_13324" data-name="Trazado 13324" d="M-53.12,0l-1.035-3.4H-59.36L-60.4,0h-3.262l5.039-14.336h3.7L-49.858,0Zm-1.758-5.937q-1.436-4.619-1.616-5.225t-.259-.957q-.322,1.25-1.846,6.182Zm-3.5-9.482v-.264a27.494,27.494,0,0,0,2.295-2.939h3.34v.205q-.508.508-1.733,1.509t-1.919,1.489ZM-38.218,0H-41.2V-6.377a3.063,3.063,0,0,0-.42-1.772,1.528,1.528,0,0,0-1.338-.591,2.011,2.011,0,0,0-1.807.835,5.178,5.178,0,0,0-.557,2.769V0H-48.3V-10.918h2.275l.4,1.4h.166a3.148,3.148,0,0,1,1.372-1.2,4.672,4.672,0,0,1,1.987-.405,3.818,3.818,0,0,1,2.891,1.03,4.134,4.134,0,0,1,.986,2.974Zm12.568-10.918V-9.4l-1.709.439a2.979,2.979,0,0,1,.469,1.641,3.312,3.312,0,0,1-1.226,2.739,5.308,5.308,0,0,1-3.4.981l-.537-.029-.439-.049a.99.99,0,0,0-.459.781q0,.645,1.641.645h1.855a4.233,4.233,0,0,1,2.739.771A2.758,2.758,0,0,1-25.776.781a3.36,3.36,0,0,1-1.6,2.969A8.315,8.315,0,0,1-31.958,4.8a6.348,6.348,0,0,1-3.491-.8,2.527,2.527,0,0,1-1.206-2.231A2.336,2.336,0,0,1-36.04.127,3.493,3.493,0,0,1-34.233-.82a1.993,1.993,0,0,1-.8-.64,1.52,1.52,0,0,1-.342-.942,1.527,1.527,0,0,1,.361-1.04,4.177,4.177,0,0,1,1.045-.815,2.93,2.93,0,0,1-1.362-1.191,3.626,3.626,0,0,1-.5-1.934,3.41,3.41,0,0,1,1.162-2.764,5.025,5.025,0,0,1,3.32-.977,8.5,8.5,0,0,1,1.089.083q.63.083.806.122ZM-34.077,1.543a1.079,1.079,0,0,0,.591.967,3.251,3.251,0,0,0,1.655.352,5.863,5.863,0,0,0,2.51-.439,1.339,1.339,0,0,0,.908-1.2.85.85,0,0,0-.537-.85A4.4,4.4,0,0,0-30.61.137h-1.543a2.337,2.337,0,0,0-1.372.386A1.19,1.19,0,0,0-34.077,1.543Zm1.084-8.887a2.223,2.223,0,0,0,.405,1.406,1.472,1.472,0,0,0,1.235.518,1.442,1.442,0,0,0,1.23-.518,2.282,2.282,0,0,0,.391-1.406q0-1.973-1.621-1.973Q-32.993-9.316-32.993-7.344ZM-16.118,0l-.4-1.4h-.156A3.142,3.142,0,0,1-18.032-.22a4.634,4.634,0,0,1-2,.415,3.812,3.812,0,0,1-2.9-1.03A4.145,4.145,0,0,1-23.911-3.8v-7.119h2.979v6.377a3.063,3.063,0,0,0,.42,1.772,1.528,1.528,0,0,0,1.338.591,2.011,2.011,0,0,0,1.807-.835,5.178,5.178,0,0,0,.557-2.769v-5.137h2.979V0Zm8.389,0h-2.979V-15.2h2.979Zm5.5-5.479A4.582,4.582,0,0,0-1.7-3.027,1.9,1.9,0,0,0,.034-2.2a1.873,1.873,0,0,0,1.714-.825,4.648,4.648,0,0,0,.522-2.456A4.51,4.51,0,0,0,1.743-7.91,1.907,1.907,0,0,0,.015-8.721,1.9,1.9,0,0,0-1.7-7.915,4.506,4.506,0,0,0-2.231-5.479Zm7.549,0a5.867,5.867,0,0,1-1.406,4.17A5.1,5.1,0,0,1,0,.2,5.478,5.478,0,0,1-2.778-.493,4.581,4.581,0,0,1-4.624-2.471a6.645,6.645,0,0,1-.645-3.008,5.835,5.835,0,0,1,1.4-4.16A5.128,5.128,0,0,1,.054-11.123a5.509,5.509,0,0,1,2.773.684A4.563,4.563,0,0,1,4.673-8.477,6.584,6.584,0,0,1,5.317-5.479Zm13.75-5.645a4.8,4.8,0,0,1,1.006.088l-.225,2.793a3.412,3.412,0,0,0-.879-.1,3.159,3.159,0,0,0-2.222.732,2.648,2.648,0,0,0-.8,2.051V0H12.974V-10.918h2.256l.439,1.836h.146a4.1,4.1,0,0,1,1.372-1.479A3.383,3.383,0,0,1,19.067-11.123ZM26.577-9a1.889,1.889,0,0,0-1.484.6,2.78,2.78,0,0,0-.615,1.7h4.18a2.483,2.483,0,0,0-.576-1.7A1.951,1.951,0,0,0,26.577-9ZM27,.2A5.635,5.635,0,0,1,22.876-1.26a5.509,5.509,0,0,1-1.484-4.121,6.06,6.06,0,0,1,1.372-4.243,4.886,4.886,0,0,1,3.794-1.5,4.809,4.809,0,0,1,3.6,1.318A4.988,4.988,0,0,1,31.45-6.162v1.445H24.409a2.867,2.867,0,0,0,.752,1.982,2.646,2.646,0,0,0,1.973.713A8.189,8.189,0,0,0,29-2.227a9.333,9.333,0,0,0,1.836-.654v2.3A6.994,6.994,0,0,1,29.165,0,10.529,10.529,0,0,1,27,.2ZM38.306.2q-5.1,0-5.1-5.6a5.969,5.969,0,0,1,1.387-4.253,5.2,5.2,0,0,1,3.975-1.47,7.577,7.577,0,0,1,3.4.742l-.879,2.3q-.7-.283-1.309-.464a4.216,4.216,0,0,0-1.211-.181q-2.324,0-2.324,3.3,0,3.2,2.324,3.2a5.3,5.3,0,0,0,1.592-.229,5.747,5.747,0,0,0,1.465-.718V-.615a4.8,4.8,0,0,1-1.46.635A8.21,8.21,0,0,1,38.306.2ZM48.755-2.178A6.457,6.457,0,0,0,50.63-2.52V-.3A6.685,6.685,0,0,1,47.9.2a3.347,3.347,0,0,1-2.6-.9,3.932,3.932,0,0,1-.815-2.71V-8.682H43.052v-1.26l1.641-1,.859-2.3h1.9v2.324h3.057v2.236H47.456v5.264a1.163,1.163,0,0,0,.356.938A1.406,1.406,0,0,0,48.755-2.178Zm6.455-3.3a4.582,4.582,0,0,0,.532,2.451,1.9,1.9,0,0,0,1.733.83,1.873,1.873,0,0,0,1.714-.825,4.648,4.648,0,0,0,.522-2.456,4.51,4.51,0,0,0-.527-2.432,1.907,1.907,0,0,0-1.729-.811,1.9,1.9,0,0,0-1.719.806A4.506,4.506,0,0,0,55.21-5.479Zm7.549,0a5.867,5.867,0,0,1-1.406,4.17A5.1,5.1,0,0,1,57.437.2a5.478,5.478,0,0,1-2.773-.688,4.581,4.581,0,0,1-1.846-1.978,6.645,6.645,0,0,1-.645-3.008,5.835,5.835,0,0,1,1.4-4.16A5.128,5.128,0,0,1,57.5-11.123a5.509,5.509,0,0,1,2.773.684,4.563,4.563,0,0,1,1.846,1.963A6.584,6.584,0,0,1,62.759-5.479Z" transform="translate(596 1017)" fill="#00223d"/>
      </g>
      <g id="Grupo_8363" data-name="Grupo 8363">
        <path id="Trazado_13329" data-name="Trazado 13329" d="M-30.356-7.275a7.031,7.031,0,0,1-2.007,5.4A8.184,8.184,0,0,1-38.159,0H-42.2V-14.277h4.482a7.548,7.548,0,0,1,5.43,1.846A6.789,6.789,0,0,1-30.356-7.275ZM-33.5-7.2q0-4.6-4.062-4.6h-1.611v9.3h1.3Q-33.5-2.5-33.5-7.2Zm5.742-6.543q0-1.455,1.621-1.455t1.621,1.455a1.419,1.419,0,0,1-.405,1.079,1.7,1.7,0,0,1-1.216.386Q-27.759-12.275-27.759-13.74ZM-24.653,0h-2.979V-10.918h2.979Zm10.059,0-.576-1.484h-.078A4.4,4.4,0,0,1-16.8-.171,5,5,0,0,1-18.872.2a3.356,3.356,0,0,1-2.476-.9,3.45,3.45,0,0,1-.9-2.559,2.881,2.881,0,0,1,1.216-2.563,7.045,7.045,0,0,1,3.667-.913l1.895-.059v-.479a1.485,1.485,0,0,0-1.7-1.66,7.743,7.743,0,0,0-3.076.791l-.986-2.012a8.876,8.876,0,0,1,4.18-.986,5.206,5.206,0,0,1,3.369.957,3.537,3.537,0,0,1,1.172,2.91V0Zm-.879-5.059-1.152.039a3.69,3.69,0,0,0-1.934.469,1.472,1.472,0,0,0-.635,1.309q0,1.26,1.445,1.26a2.289,2.289,0,0,0,1.655-.6,2.092,2.092,0,0,0,.62-1.582ZM.054-10.918V-9.4l-1.709.439a2.979,2.979,0,0,1,.469,1.641A3.312,3.312,0,0,1-2.412-4.585a5.308,5.308,0,0,1-3.4.981l-.537-.029-.439-.049a.99.99,0,0,0-.459.781q0,.645,1.641.645h1.855a4.233,4.233,0,0,1,2.739.771A2.758,2.758,0,0,1-.073.781,3.36,3.36,0,0,1-1.67,3.75,8.315,8.315,0,0,1-6.255,4.8a6.348,6.348,0,0,1-3.491-.8,2.527,2.527,0,0,1-1.206-2.231,2.336,2.336,0,0,1,.615-1.65A3.493,3.493,0,0,1-8.53-.82a1.993,1.993,0,0,1-.8-.64A1.52,1.52,0,0,1-9.673-2.4a1.527,1.527,0,0,1,.361-1.04,4.177,4.177,0,0,1,1.045-.815A2.93,2.93,0,0,1-9.629-5.449a3.626,3.626,0,0,1-.5-1.934A3.41,3.41,0,0,1-8.97-10.146a5.025,5.025,0,0,1,3.32-.977,8.5,8.5,0,0,1,1.089.083q.63.083.806.122ZM-8.374,1.543a1.079,1.079,0,0,0,.591.967,3.251,3.251,0,0,0,1.655.352,5.863,5.863,0,0,0,2.51-.439,1.339,1.339,0,0,0,.908-1.2.85.85,0,0,0-.537-.85A4.4,4.4,0,0,0-4.907.137H-6.45A2.337,2.337,0,0,0-7.822.522,1.19,1.19,0,0,0-8.374,1.543ZM-7.29-7.344a2.223,2.223,0,0,0,.405,1.406,1.472,1.472,0,0,0,1.235.518,1.442,1.442,0,0,0,1.23-.518,2.282,2.282,0,0,0,.391-1.406q0-1.973-1.621-1.973Q-7.29-9.316-7.29-7.344ZM4.224-5.479a4.582,4.582,0,0,0,.532,2.451,1.9,1.9,0,0,0,1.733.83A1.873,1.873,0,0,0,8.2-3.022a4.648,4.648,0,0,0,.522-2.456A4.51,4.51,0,0,0,8.2-7.91,1.907,1.907,0,0,0,6.47-8.721a1.9,1.9,0,0,0-1.719.806A4.506,4.506,0,0,0,4.224-5.479Zm7.549,0a5.867,5.867,0,0,1-1.406,4.17A5.1,5.1,0,0,1,6.45.2,5.478,5.478,0,0,1,3.677-.493,4.581,4.581,0,0,1,1.831-2.471a6.645,6.645,0,0,1-.645-3.008,5.835,5.835,0,0,1,1.4-4.16,5.128,5.128,0,0,1,3.926-1.484,5.509,5.509,0,0,1,2.773.684,4.563,4.563,0,0,1,1.846,1.963A6.584,6.584,0,0,1,11.772-5.479ZM24.312,0H21.333V-6.377a3.063,3.063,0,0,0-.42-1.772,1.528,1.528,0,0,0-1.338-.591,2.011,2.011,0,0,0-1.807.835,5.178,5.178,0,0,0-.557,2.769V0H14.233V-10.918h2.275l.4,1.4h.166a3.148,3.148,0,0,1,1.372-1.2,4.672,4.672,0,0,1,1.987-.405,3.818,3.818,0,0,1,2.891,1.03,4.134,4.134,0,0,1,.986,2.974Zm10,0-.576-1.484h-.078A4.4,4.4,0,0,1,32.109-.171,5,5,0,0,1,30.034.2a3.356,3.356,0,0,1-2.476-.9,3.45,3.45,0,0,1-.9-2.559,2.881,2.881,0,0,1,1.216-2.563,7.045,7.045,0,0,1,3.667-.913L33.433-6.8v-.479a1.485,1.485,0,0,0-1.7-1.66,7.743,7.743,0,0,0-3.076.791l-.986-2.012a8.876,8.876,0,0,1,4.18-.986,5.206,5.206,0,0,1,3.369.957,3.537,3.537,0,0,1,1.172,2.91V0Zm-.879-5.059L32.28-5.02a3.69,3.69,0,0,0-1.934.469,1.472,1.472,0,0,0-.635,1.309q0,1.26,1.445,1.26a2.289,2.289,0,0,0,1.655-.6,2.092,2.092,0,0,0,.62-1.582Zm9,5.059H39.458V-15.2h2.979Z" transform="translate(806 1017)" fill="#00223d"/>
        <g id="Grupo_7515" data-name="Grupo 7515" transform="translate(0 -31)">
          <rect id="Rectángulo_1826" data-name="Rectángulo 1826" width="113" height="113" transform="translate(749 904)" fill="#00a99a"/>
          <path id="Trazado_11523" data-name="Trazado 11523" d="M2724.578-332.224l65.021-65.021" transform="translate(-1951 1324)" fill="none" stroke="#fed97b" stroke-width="4"/>
        </g>
      </g>
      <g id="Grupo_8361" data-name="Grupo 8361">
        <path id="Trazado_13327" data-name="Trazado 13327" d="M-21.353-11.963A3.085,3.085,0,0,0-24-10.679,5.974,5.974,0,0,0-24.937-7.1q0,4.775,3.584,4.775a11.329,11.329,0,0,0,3.643-.752V-.537A10.116,10.116,0,0,1-21.636.2,5.987,5.987,0,0,1-26.4-1.694a8,8,0,0,1-1.65-5.425,8.858,8.858,0,0,1,.811-3.9,5.858,5.858,0,0,1,2.329-2.568,6.89,6.89,0,0,1,3.56-.894,9.607,9.607,0,0,1,4.18,1.006l-.977,2.461a16.165,16.165,0,0,0-1.611-.664A4.807,4.807,0,0,0-21.353-11.963ZM-7.173,0l-.4-1.4h-.156A3.142,3.142,0,0,1-9.087-.22a4.634,4.634,0,0,1-2,.415,3.812,3.812,0,0,1-2.9-1.03A4.145,4.145,0,0,1-14.966-3.8v-7.119h2.979v6.377a3.063,3.063,0,0,0,.42,1.772,1.528,1.528,0,0,0,1.338.591,2.011,2.011,0,0,0,1.807-.835,5.178,5.178,0,0,0,.557-2.769v-5.137h2.979V0Zm11.5-11.123a4.8,4.8,0,0,1,1.006.088L5.112-8.242a3.412,3.412,0,0,0-.879-.1,3.159,3.159,0,0,0-2.222.732,2.648,2.648,0,0,0-.8,2.051V0H-1.763V-10.918H.493L.933-9.082h.146a4.1,4.1,0,0,1,1.372-1.479A3.383,3.383,0,0,1,4.331-11.123ZM9.917,0,5.757-10.918H8.872L10.981-4.7a11.1,11.1,0,0,1,.439,2.236h.059A9.725,9.725,0,0,1,11.919-4.7l2.1-6.221h3.115L12.974,0ZM25.63,0l-.576-1.484h-.078A4.4,4.4,0,0,1,23.428-.171,5,5,0,0,1,21.353.2a3.356,3.356,0,0,1-2.476-.9,3.45,3.45,0,0,1-.9-2.559,2.881,2.881,0,0,1,1.216-2.563,7.045,7.045,0,0,1,3.667-.913L24.751-6.8v-.479a1.485,1.485,0,0,0-1.7-1.66,7.743,7.743,0,0,0-3.076.791l-.986-2.012a8.876,8.876,0,0,1,4.18-.986,5.206,5.206,0,0,1,3.369.957,3.537,3.537,0,0,1,1.172,2.91V0Zm-.879-5.059L23.6-5.02a3.69,3.69,0,0,0-1.934.469,1.472,1.472,0,0,0-.635,1.309q0,1.26,1.445,1.26a2.289,2.289,0,0,0,1.655-.6,2.092,2.092,0,0,0,.62-1.582Z" transform="translate(597 1189)" fill="#00223d"/>
        <g id="Grupo_7518" data-name="Grupo 7518" transform="translate(10 -67)">
          <rect id="Rectángulo_1830" data-name="Rectángulo 1830" width="113" height="113" transform="translate(530 1112)" fill="#00a99a"/>
          <path id="Trazado_11528" data-name="Trazado 11528" d="M2794.658-139.879" transform="translate(-2180 1324)" fill="none" stroke="#707070" stroke-width="1"/>
          <path id="Trazado_11529" data-name="Trazado 11529" d="M2727.746-147.415s6.223-56.381,59.2-34.182" transform="translate(-1884.235 -59.714) rotate(30)" fill="none" stroke="#fed97b" stroke-width="4"/>
        </g>
      </g>
      <g id="Grupo_8362" data-name="Grupo 8362">
        <path id="Trazado_13330" data-name="Trazado 13330" d="M-34.336-11.963a3.085,3.085,0,0,0-2.646,1.284A5.974,5.974,0,0,0-37.92-7.1q0,4.775,3.584,4.775a11.329,11.329,0,0,0,3.643-.752V-.537A10.116,10.116,0,0,1-34.619.2a5.987,5.987,0,0,1-4.766-1.89,8,8,0,0,1-1.65-5.425,8.858,8.858,0,0,1,.811-3.9A5.858,5.858,0,0,1-37.9-13.589a6.89,6.89,0,0,1,3.56-.894,9.607,9.607,0,0,1,4.18,1.006l-.977,2.461a16.165,16.165,0,0,0-1.611-.664A4.807,4.807,0,0,0-34.336-11.963Zm8.818,6.484a4.582,4.582,0,0,0,.532,2.451,1.9,1.9,0,0,0,1.733.83,1.873,1.873,0,0,0,1.714-.825,4.648,4.648,0,0,0,.522-2.456,4.51,4.51,0,0,0-.527-2.432,1.907,1.907,0,0,0-1.729-.811,1.9,1.9,0,0,0-1.719.806A4.506,4.506,0,0,0-25.518-5.479Zm7.549,0a5.867,5.867,0,0,1-1.406,4.17A5.1,5.1,0,0,1-23.291.2a5.478,5.478,0,0,1-2.773-.688A4.581,4.581,0,0,1-27.91-2.471a6.645,6.645,0,0,1-.645-3.008,5.835,5.835,0,0,1,1.4-4.16,5.128,5.128,0,0,1,3.926-1.484,5.509,5.509,0,0,1,2.773.684,4.563,4.563,0,0,1,1.846,1.963A6.584,6.584,0,0,1-17.969-5.479Zm-6.924-6.641v-.264A27.494,27.494,0,0,0-22.6-15.322h3.34v.205q-.508.508-1.733,1.509t-1.919,1.489ZM-5.43,0H-8.408V-6.377a3.063,3.063,0,0,0-.42-1.772,1.528,1.528,0,0,0-1.338-.591,2.011,2.011,0,0,0-1.807.835,5.178,5.178,0,0,0-.557,2.769V0h-2.979V-10.918h2.275l.4,1.4h.166a3.148,3.148,0,0,1,1.372-1.2,4.672,4.672,0,0,1,1.987-.405,3.818,3.818,0,0,1,2.891,1.03A4.134,4.134,0,0,1-5.43-7.119Zm7.5.2q-5.1,0-5.1-5.6A5.969,5.969,0,0,1-1.641-9.653a5.2,5.2,0,0,1,3.975-1.47,7.577,7.577,0,0,1,3.4.742l-.879,2.3q-.7-.283-1.309-.464a4.216,4.216,0,0,0-1.211-.181Q.01-8.721.01-5.42q0,3.2,2.324,3.2a5.3,5.3,0,0,0,1.592-.229,5.747,5.747,0,0,0,1.465-.718V-.615A4.8,4.8,0,0,1,3.931.02,8.21,8.21,0,0,1,2.07.2ZM14.854,0l-.576-1.484H14.2A4.4,4.4,0,0,1,12.651-.171,5,5,0,0,1,10.576.2,3.356,3.356,0,0,1,8.1-.7a3.45,3.45,0,0,1-.9-2.559A2.881,2.881,0,0,1,8.413-5.825a7.045,7.045,0,0,1,3.667-.913L13.975-6.8v-.479a1.485,1.485,0,0,0-1.7-1.66A7.743,7.743,0,0,0,9.2-8.145l-.986-2.012a8.876,8.876,0,0,1,4.18-.986,5.206,5.206,0,0,1,3.369.957,3.537,3.537,0,0,1,1.172,2.91V0Zm-.879-5.059-1.152.039a3.69,3.69,0,0,0-1.934.469,1.472,1.472,0,0,0-.635,1.309q0,1.26,1.445,1.26a2.289,2.289,0,0,0,1.655-.6,2.092,2.092,0,0,0,.62-1.582ZM22.6,0l-4.16-10.918h3.115L23.662-4.7A11.1,11.1,0,0,1,24.1-2.461h.059A9.725,9.725,0,0,1,24.6-4.7l2.1-6.221h3.115L25.654,0ZM33.75-5.479a4.582,4.582,0,0,0,.532,2.451,1.9,1.9,0,0,0,1.733.83,1.873,1.873,0,0,0,1.714-.825,4.648,4.648,0,0,0,.522-2.456,4.51,4.51,0,0,0-.527-2.432A1.907,1.907,0,0,0,36-8.721a1.9,1.9,0,0,0-1.719.806A4.506,4.506,0,0,0,33.75-5.479Zm7.549,0a5.867,5.867,0,0,1-1.406,4.17A5.1,5.1,0,0,1,35.977.2,5.478,5.478,0,0,1,33.2-.493a4.581,4.581,0,0,1-1.846-1.978,6.645,6.645,0,0,1-.645-3.008,5.835,5.835,0,0,1,1.4-4.16,5.128,5.128,0,0,1,3.926-1.484,5.509,5.509,0,0,1,2.773.684,4.563,4.563,0,0,1,1.846,1.963A6.584,6.584,0,0,1,41.3-5.479Z" transform="translate(807 1184)" fill="#00223d"/>
        <g id="Grupo_7519" data-name="Grupo 7519" transform="translate(0 -63)">
          <rect id="Rectángulo_1833" data-name="Rectángulo 1833" width="113" height="113" transform="translate(750 1108)" fill="#00a99a"/>
          <path id="Trazado_11532" data-name="Trazado 11532" d="M2087.529,55.021s18.991-67.552,48.935-46.691c8.765,6.105,18.68,20.3,29.344,46.691" transform="translate(2936.336 1186.352) rotate(180)" fill="none" stroke="#fed97b" stroke-width="4"/>
        </g>
      </g>
    </g>
  </g>
</svg>
