<svg xmlns="http://www.w3.org/2000/svg" width="863" height="363.135" viewBox="0 0 863 363.135">
  <g id="Grupo_8342" data-name="Grupo 8342" transform="translate(-120 -5205.061)">
    <g id="Grupo_8338" data-name="Grupo 8338">
      <circle id="Elipse_499" data-name="Elipse 499" cx="93.5" cy="93.5" r="93.5" transform="translate(120 5286)" fill="#fed97b"/>
      <g id="Grupo_7464" data-name="Grupo 7464" transform="translate(125.497 5197.062)">
        <g id="Grupo_7462" data-name="Grupo 7462" transform="translate(4.985 10.938)">
          <path id="Trazado_11415" data-name="Trazado 11415" d="M155.915,74.275c-22.437-.942-28.311-25.8-28.311-25.8s-22.435,10-40.035,9.827H87.41c-17.6.177-40.034-9.827-40.034-9.827S41.5,73.333,19.064,74.275l12.867,72.808c-10.946,14-20.363,94.262-26.946,155.422,0,0,36.806,16.824,82.715,16.843s82.878-16.508,82.878-16.508c-6.55-60.851-16.083-141.755-24.629-155.788Z" transform="translate(-4.985 -3.394)" fill="#fff" stroke="#231f20" stroke-miterlimit="10" stroke-width="0.736"/>
          <path id="Trazado_11416" data-name="Trazado 11416" d="M170,255.641s-36.292,16.513-83.271,16.5-81.356-16.5-81.356-16.5" transform="translate(-4.907 38.237)" fill="none" stroke="#231f20" stroke-miterlimit="10" stroke-width="0.741" stroke-dasharray="1.482"/>
          <path id="Trazado_11417" data-name="Trazado 11417" d="M120.524,46.477s-14,9.325-40.114,9.325S40.3,46.477,40.3,46.477l-.08,4.1s14,9.327,40.114,9.327,40.113-9.327,40.113-9.327Z" transform="translate(2.095 -3.796)" fill="#fff" stroke="#231f20" stroke-miterlimit="10" stroke-width="0.736"/>
          <path id="Trazado_11418" data-name="Trazado 11418" d="M40.3,49.6l-.08,4.1s14,9.327,40.114,9.327,40.113-9.327,40.113-9.327l.08-4.1" transform="translate(2.095 -3.168)" fill="none" stroke="#231f20" stroke-miterlimit="10" stroke-width="0.741" stroke-dasharray="1.482"/>
          <path id="Trazado_11419" data-name="Trazado 11419" d="M48,10.938l-4.052,1.337S53.4,80.589,16.893,81.814c.067.8.4,2.771.483,3.737C58.822,84.979,48,10.938,48,10.938Z" transform="translate(-2.592 -10.938)" fill="#fff" stroke="#231f20" stroke-miterlimit="10" stroke-width="0.736"/>
          <path id="Trazado_11420" data-name="Trazado 11420" d="M104.659,10.939l4.052,1.335s-9.454,68.314,27.05,69.539c-.066.8-.4,2.772-.483,3.739C93.833,84.979,104.659,10.939,104.659,10.939Z" transform="translate(14.789 -10.938)" fill="#fff" stroke="#231f20" stroke-miterlimit="10" stroke-width="0.736"/>
          <path id="Trazado_11421" data-name="Trazado 11421" d="M18.308,80.349C35.023,79.7,46.069,67.526,49.645,52.068" transform="translate(-2.308 -2.673)" fill="none" stroke="#231f20" stroke-miterlimit="10" stroke-width="0.741" stroke-dasharray="1.482"/>
          <path id="Trazado_11422" data-name="Trazado 11422" d="M134.721,80.349c-16.714-.651-27.76-12.824-31.337-28.281" transform="translate(14.789 -2.673)" fill="none" stroke="#231f20" stroke-miterlimit="10" stroke-width="0.741" stroke-dasharray="1.482"/>
          <g id="Grupo_7460" data-name="Grupo 7460" transform="translate(25.819 110.52)">
            <g id="Grupo_7447" data-name="Grupo 7447" transform="translate(19.639 9.28)">
              <g id="Grupo_7446" data-name="Grupo 7446">
                <path id="Trazado_11423" data-name="Trazado 11423" d="M42.837,158.416a29.137,29.137,0,0,0,1.218-5.846,58.759,58.759,0,0,0,.407-5.956c.1-3.982-.047-7.968-.3-11.956-.157-3.984-.623-7.958-.815-11.966a50.982,50.982,0,0,1,.49-12,43.86,43.86,0,0,0-.162,5.982c.049,1.994.184,3.984.362,5.971.337,3.975.79,7.955,1.026,11.964a112.956,112.956,0,0,1,.095,12.034A35.826,35.826,0,0,1,42.837,158.416Z" transform="translate(-42.837 -110.692)" fill="#231f20"/>
              </g>
            </g>
            <g id="Grupo_7449" data-name="Grupo 7449" transform="translate(84.165 9.914)">
              <g id="Grupo_7448" data-name="Grupo 7448">
                <path id="Trazado_11424" data-name="Trazado 11424" d="M99.008,158.944a35.8,35.8,0,0,1-2.317-11.773,112.962,112.962,0,0,1,.095-12.034c.235-4.009.688-7.989,1.027-11.964.177-1.988.311-3.979.36-5.971a43.846,43.846,0,0,0-.162-5.982,50.978,50.978,0,0,1,.49,12c-.192,4.009-.658,7.983-.815,11.966-.257,3.986-.4,7.973-.3,11.956a58.708,58.708,0,0,0,.407,5.954A29.068,29.068,0,0,0,99.008,158.944Z" transform="translate(-96.565 -111.22)" fill="#231f20"/>
              </g>
            </g>
            <g id="Grupo_7451" data-name="Grupo 7451" transform="translate(97.709 13.821)">
              <g id="Grupo_7450" data-name="Grupo 7450">
                <path id="Trazado_11425" data-name="Trazado 11425" d="M110.114,150.113a36.472,36.472,0,0,0,.076-8.851c-.273-2.966-.715-5.926-1.13-8.889-.818-5.914-1.65-11.928-.958-17.9-.54,5.986.438,11.944,1.4,17.831.49,2.951,1.008,5.9,1.358,8.888A37.193,37.193,0,0,1,111,150.25Z" transform="translate(-107.844 -114.473)" fill="#231f20"/>
              </g>
            </g>
            <g id="Grupo_7453" data-name="Grupo 7453" transform="translate(34.254 17.363)">
              <g id="Grupo_7452" data-name="Grupo 7452">
                <path id="Trazado_11426" data-name="Trazado 11426" d="M57.393,151.415a19.651,19.651,0,0,1-2.265-8.386,58.834,58.834,0,0,1,.094-8.571c.229-2.855.673-5.689,1-8.521.173-1.416.305-2.834.353-4.254a22.681,22.681,0,0,0-.159-4.26,26.574,26.574,0,0,1,.479,8.547c-.189,2.855-.644,5.685-.8,8.523a70.08,70.08,0,0,0-.3,8.515,30.533,30.533,0,0,0,.4,4.242A15.976,15.976,0,0,0,57.393,151.415Z" transform="translate(-55.006 -117.423)" fill="#231f20"/>
              </g>
            </g>
            <g id="Grupo_7455" data-name="Grupo 7455" transform="translate(0 14.713)">
              <g id="Grupo_7454" data-name="Grupo 7454">
                <path id="Trazado_11427" data-name="Trazado 11427" d="M26.484,149.208a19.633,19.633,0,0,0,2.264-8.386,58.5,58.5,0,0,0-.094-8.571c-.229-2.855-.673-5.689-1-8.521-.173-1.416-.305-2.833-.353-4.253a22.794,22.794,0,0,1,.16-4.261,26.574,26.574,0,0,0-.479,8.547c.187,2.855.644,5.685.8,8.523a70.578,70.578,0,0,1,.3,8.515,30.532,30.532,0,0,1-.4,4.242A15.976,15.976,0,0,1,26.484,149.208Z" transform="translate(-26.484 -115.216)" fill="#231f20"/>
              </g>
            </g>
            <g id="Grupo_7457" data-name="Grupo 7457" transform="translate(113.626 11.765)">
              <g id="Grupo_7456" data-name="Grupo 7456">
                <path id="Trazado_11428" data-name="Trazado 11428" d="M123.484,146.753a19.608,19.608,0,0,1-2.265-8.385,58.666,58.666,0,0,1,.094-8.571c.229-2.856.673-5.69,1-8.521.173-1.416.305-2.834.353-4.254a22.9,22.9,0,0,0-.159-4.261,26.573,26.573,0,0,1,.479,8.547c-.189,2.856-.644,5.685-.8,8.523a70.1,70.1,0,0,0-.3,8.516,30.747,30.747,0,0,0,.4,4.242A15.971,15.971,0,0,0,123.484,146.753Z" transform="translate(-121.097 -112.761)" fill="#231f20"/>
              </g>
            </g>
            <g id="Grupo_7459" data-name="Grupo 7459" transform="translate(71.373)">
              <g id="Grupo_7458" data-name="Grupo 7458">
                <path id="Trazado_11429" data-name="Trazado 11429" d="M86.91,167.59a75.842,75.842,0,0,0,1.881-16.029,143.763,143.763,0,0,0-.729-16.2c-.495-5.391-1.249-10.758-1.759-16.159a79.6,79.6,0,0,1,.055-16.239,79.534,79.534,0,0,0,.189,16.215c.588,5.381,1.435,10.739,1.995,16.135a144.544,144.544,0,0,1,.94,16.254C89.446,157,86.91,167.59,86.91,167.59Z" transform="translate(-85.914 -102.965)" fill="#231f20"/>
              </g>
            </g>
          </g>
          <path id="Trazado_11430" data-name="Trazado 11430" d="M141.331,131.45c.938-.579,1.166-6.178,1.166-6.178A260.989,260.989,0,0,1,83.49,131.5c-39.916-.372-57.006-6.233-57.006-6.233s.57,5.594,1.51,6.173c1.622,1,13.58,6.4,55.467,6.528C124.13,138.1,139.708,132.45,141.331,131.45Z" transform="translate(-0.665 12.038)" fill="#fff" stroke="#231f20" stroke-miterlimit="10" stroke-width="0.75"/>
          <g id="Grupo_7461" data-name="Grupo 7461" transform="translate(108.043 138.854)">
            <path id="Trazado_11431" data-name="Trazado 11431" d="M107.073,132.974a3.086,3.086,0,0,0,.161,1.116q-.137-.821-.275-1.643c.729,5.5,1.221,22.968,1.3,28.513-1.726-.5-3.537-1.948-5.261-2.446a3.512,3.512,0,0,1-1.3-.576c-.766-.626-.944-9.736-1.06-10.763-.928-8.183,1.32-13.238,4.364-17.051Z" transform="translate(-93.848 -125.841)" fill="#fff" stroke="#231f20" stroke-miterlimit="10" stroke-width="0.75"/>
            <path id="Trazado_11432" data-name="Trazado 11432" d="M104.509,132.161c.222-.167,1.129,1.206,1.259,1.4a12.191,12.191,0,0,1,2.028,5.284c.455,2.086.489,3.743.92,6.192.27,1.536,1.985,9.7,2.78,11.021a42.226,42.226,0,0,1,1.942-4.024,8.322,8.322,0,0,1,1.316-1.607c.374-.363,1.226-1.029,1.137-1.674-.108-.779-2-11.245-2.826-13.236-1.093-2.622-3.127-4.985-5.724-5.518Z" transform="translate(-93.028 -125.867)" fill="#fff" stroke="#231f20" stroke-miterlimit="10" stroke-width="0.75"/>
            <path id="Trazado_11433" data-name="Trazado 11433" d="M107.535,127.33a4.389,4.389,0,0,0-5.036.488l-6.868,4.475a1.567,1.567,0,0,0-.576.536,1.3,1.3,0,0,0-.092.736,6.616,6.616,0,0,0,2.32,3.9c.855.812,1.991,1.6,3.125,1.273a2.928,2.928,0,0,0,1.006-.572,19.815,19.815,0,0,0,2.61-2.918,7,7,0,0,1,3.059-2.368l.078-.026Z" transform="translate(-94.949 -126.514)" fill="#fff" stroke="#231f20" stroke-miterlimit="10" stroke-width="0.75"/>
            <path id="Trazado_11434" data-name="Trazado 11434" d="M105.854,133.42a4.842,4.842,0,0,1,3.558,1.837,14.691,14.691,0,0,0,3.416,3.025,2.247,2.247,0,0,0,2.813-.413c.98-.836,2.024-1.574,3.066-2.319,1-.711.157-1.7-.473-2.351-1.715-1.767-3-3.931-5.062-5.348s-4.917-2.08-6.614.172Z" transform="translate(-92.758 -126.558)" fill="#fff" stroke="#231f20" stroke-miterlimit="10" stroke-width="0.75"/>
            <path id="Trazado_11435" data-name="Trazado 11435" d="M105.607,130.7c-3.052.82-6.448,4.148-7.008,7.259a2.524,2.524,0,0,0,1.022,0,4.324,4.324,0,0,0,1.261-.629,15.692,15.692,0,0,0,2.4-2.528,7,7,0,0,1,3.06-2.368l.078-.025Z" transform="translate(-94.216 -125.725)" fill="#e6e7e8" stroke="#231f20" stroke-miterlimit="10" stroke-width="0.75"/>
            <path id="Trazado_11436" data-name="Trazado 11436" d="M107.487,130.316c2.427.9,4.888,2.037,6.277,3.973a6.246,6.246,0,0,1,.812,3.2l.055.134a2.1,2.1,0,0,1-1.892-.174,14.709,14.709,0,0,1-3.414-3.025c-.909-.946-2.165-1.941-3.558-1.837Z" transform="translate(-92.775 -125.803)" fill="#e6e7e8" stroke="#231f20" stroke-miterlimit="10" stroke-width="0.75"/>
            <path id="Trazado_11437" data-name="Trazado 11437" d="M105.86,126.916a2.014,2.014,0,0,0-1.572,1.02,2.912,2.912,0,0,0-.31,1.156,10.806,10.806,0,0,0,.454,3.442,2.586,2.586,0,0,0,.436,1.062,2.613,2.613,0,0,0,2.081.623,1.073,1.073,0,0,0,1.273-1.3q.072-1.212.143-2.426a6.314,6.314,0,0,0-.04-1.579,2.132,2.132,0,0,0-.777-1.338A3.652,3.652,0,0,0,105.86,126.916Z" transform="translate(-93.139 -126.486)" fill="#fff" stroke="#231f20" stroke-miterlimit="10" stroke-width="0.75"/>
          </g>
        </g>
        <g id="Grupo_7463" data-name="Grupo 7463" transform="translate(5.003 59.411)">
          <path id="Trazado_11438" data-name="Trazado 11438" d="M43.552,52.222c1.265-5.252-4.646,13.538-3.173,15.525-1.245,13.893-12.966,19.113-13.513,33.3-.238,6.171,5.512,26.936,8.521,32.139,2.282,3.945,5.649,8.224,5.983,9.415a27.188,27.188,0,0,0-3.313,2.361c-1.554,1.726-2.045,4.175-2.707,6.322-2.307,7.493-3.01,15.551-6.98,22.453-.687,1.193-1.732,3.058-.891,4.416a18.158,18.158,0,0,0,6.41,5.67c2.736,1.642,14.2,7.387,14.2,7.387.292,1.554-20.607-2.254-20.607-2.254-3.546,44.157,31.971,44.462,32.679,46.834.476,1.592-29.843-.518-32.659.958a6.01,6.01,0,0,0-2.663,2.357c-.784,1.457-2.009,13.932-.785,17.319,5.335,14.761,32.551,15.842,31.594,16.05a68.744,68.744,0,0,1-33.964-1.7c-12.958,26.76,7.6,39.268,7.6,39.268-2.031-.232-20.805-6.4-24.283-7.952C10.3,248.567,21.365,153.77,32.311,146.31l-13.25-72.6s9.9.079,15.424-6.233C37.576,63.943,42.082,58.321,43.552,52.222Z" transform="translate(-5 -51.3)" fill="#f3f4f5" style="mix-blend-mode: multiply;isolation: isolate"/>
          <path id="Trazado_11439" data-name="Trazado 11439" d="M85.748,134.948c-3.561-5.045-9.018-7.028-13.7-11.359-4.184-3.869-9.653-14.869-15.4-15.773A23.5,23.5,0,0,0,60.7,119.995c1.783,6.546,5.506,10.424,10.5,14.843Z" transform="translate(5.379 -39.942)" fill="#f3f4f5" style="mix-blend-mode: multiply;isolation: isolate"/>
          <path id="Trazado_11440" data-name="Trazado 11440" d="M75.023,135.85c3.579,3.329,7.8,7.678,9.89,12.158,2.057,4.4,2.111,10.812,6.615,13.655,3.818-2.192-5.076-22.368-6.19-25.813Z" transform="translate(9.072 -34.309)" fill="#f3f4f5" style="mix-blend-mode: multiply;isolation: isolate"/>
          <path id="Trazado_11441" data-name="Trazado 11441" d="M105.439,116.554c-4.812-7.863-15.082-9.269-21.151-16.244-1.2-1.385-3.5-6.391-5.221-2.936-1.044,2.1,2.936,7.124,4.1,8.76,2.3,6.77,10.165,8.51,15.491,12,5.666,3.715,7.95,10.107,13.1,14.255C111.532,126.646,108.44,121.459,105.439,116.554Z" transform="translate(9.85 -42.281)" fill="#f3f4f5" style="mix-blend-mode: multiply;isolation: isolate"/>
          <path id="Trazado_11442" data-name="Trazado 11442" d="M34.385,88.338c-1.929-4.382-6.309-2.641-9.449-5.817C22.1,79.653,21.768,74.151,17.33,72.9c.07,4.358,3.038,9.43,3.038,9.43.077,6.456,6.692,5.966,10.649,8.629,4.1,2.756,5.823,8.117,10.529,10.159C42.8,95.793,36.222,92.515,34.385,88.338Z" transform="translate(-2.522 -46.96)" fill="#f3f4f5" style="mix-blend-mode: multiply;isolation: isolate"/>
          <path id="Trazado_11443" data-name="Trazado 11443" d="M78.8,200.122c-1.657-3.765-4.078-2.355-7.164-3.963-2.235-1.165-3.713-4.1-4.943-6.121-2.4-3.951-5.341-13.227-10.3-14.631.07,4.358,3.038,9.43,3.038,9.43.038,3.245,2.29,7.026,3.728,9.842,2.356,4.617,3.48,5.395,7.61,7.632,7.722,4.184,10.577,15.232,18.442,18.646C90.89,213.795,81.526,206.319,78.8,200.122Z" transform="translate(5.327 -26.36)" fill="#f3f4f5" style="mix-blend-mode: multiply;isolation: isolate"/>
          <path id="Trazado_11444" data-name="Trazado 11444" d="M113.111,53.009c-2.356-4.863,5.164,13.345,3.691,15.331,1.245,13.894,12.885,18.342,13.433,32.529.238,6.17-5.512,26.936-8.521,32.139-2.282,3.945-6.416,8.6-6.749,9.789.04-.144,5.333,4.8,6,6.95,2.307,7.493,3.8,16.911,7.771,23.813.686,1.193,1.732,3.058.891,4.416a18.158,18.158,0,0,1-6.409,5.67c-2.736,1.642-14.2,7.387-14.2,7.387-.292,1.554,20.606-2.254,20.606-2.254,3.548,44.157-31.969,44.462-32.679,46.834-.476,1.592,29.844-.518,32.659.958a6.02,6.02,0,0,1,2.664,2.357c.784,1.457,2.008,13.932.785,17.319-5.335,14.761-32.551,15.842-31.594,16.05a68.746,68.746,0,0,0,33.964-1.7c12.958,26.76-7.6,39.268-7.6,39.268,2.03-.232,20.8-6.4,24.283-7.952-5.295-53.527-17.684-150.619-24.629-155.609l9.587-72.782a24.663,24.663,0,0,1-14.478-5.242C117.509,64.14,113.959,54.757,113.111,53.009Z" transform="translate(13.474 -51.121)" fill="#f3f4f5" style="mix-blend-mode: multiply;isolation: isolate"/>
        </g>
      </g>
      <path id="Trazado_13306" data-name="Trazado 13306" d="M-31.45,0h-2.979V-14.277h8.184v2.48H-31.45v3.682h4.844v2.471H-31.45Zm13.857-11.123a4.8,4.8,0,0,1,1.006.088l-.225,2.793a3.412,3.412,0,0,0-.879-.1,3.159,3.159,0,0,0-2.222.732,2.648,2.648,0,0,0-.8,2.051V0h-2.979V-10.918h2.256l.439,1.836h.146a4.1,4.1,0,0,1,1.372-1.479A3.383,3.383,0,0,1-17.593-11.123Zm5.361,5.645A4.582,4.582,0,0,0-11.7-3.027a1.9,1.9,0,0,0,1.733.83,1.873,1.873,0,0,0,1.714-.825,4.648,4.648,0,0,0,.522-2.456A4.51,4.51,0,0,0-8.257-7.91a1.907,1.907,0,0,0-1.729-.811,1.9,1.9,0,0,0-1.719.806A4.506,4.506,0,0,0-12.231-5.479Zm7.549,0a5.867,5.867,0,0,1-1.406,4.17A5.1,5.1,0,0,1-10,.2a5.478,5.478,0,0,1-2.773-.688,4.581,4.581,0,0,1-1.846-1.978,6.645,6.645,0,0,1-.645-3.008,5.835,5.835,0,0,1,1.4-4.16,5.128,5.128,0,0,1,3.926-1.484,5.509,5.509,0,0,1,2.773.684A4.563,4.563,0,0,1-5.327-8.477,6.584,6.584,0,0,1-4.683-5.479ZM7.856,0H4.878V-6.377a3.063,3.063,0,0,0-.42-1.772A1.528,1.528,0,0,0,3.12-8.74a2.011,2.011,0,0,0-1.807.835A5.178,5.178,0,0,0,.757-5.137V0H-2.222V-10.918H.054l.4,1.4H.62a3.148,3.148,0,0,1,1.372-1.2,4.672,4.672,0,0,1,1.987-.405,3.818,3.818,0,0,1,2.891,1.03,4.134,4.134,0,0,1,.986,2.974Zm7.666-2.178A6.457,6.457,0,0,0,17.4-2.52V-.3a6.685,6.685,0,0,1-2.734.5,3.347,3.347,0,0,1-2.6-.9,3.932,3.932,0,0,1-.815-2.71V-8.682H9.819v-1.26l1.641-1,.859-2.3h1.9v2.324H17.28v2.236H14.224v5.264a1.163,1.163,0,0,0,.356.938A1.406,1.406,0,0,0,15.522-2.178ZM26.538,0l-.576-1.484h-.078A4.4,4.4,0,0,1,24.336-.171,5,5,0,0,1,22.261.2a3.356,3.356,0,0,1-2.476-.9,3.45,3.45,0,0,1-.9-2.559A2.881,2.881,0,0,1,20.1-5.825a7.045,7.045,0,0,1,3.667-.913L25.659-6.8v-.479a1.485,1.485,0,0,0-1.7-1.66,7.743,7.743,0,0,0-3.076.791L19.9-10.156a8.876,8.876,0,0,1,4.18-.986,5.206,5.206,0,0,1,3.369.957,3.537,3.537,0,0,1,1.172,2.91V0Zm-.879-5.059-1.152.039a3.69,3.69,0,0,0-1.934.469,1.472,1.472,0,0,0-.635,1.309q0,1.26,1.445,1.26a2.289,2.289,0,0,0,1.655-.6,2.092,2.092,0,0,0,.62-1.582Zm9,5.059H31.685V-15.2h2.979Z" transform="translate(214 5568)" fill="#00223d"/>
    </g>
    <g id="Grupo_8339" data-name="Grupo 8339">
      <circle id="Elipse_500" data-name="Elipse 500" cx="93.5" cy="93.5" r="93.5" transform="translate(344 5286)" fill="#fed97b"/>
      <g id="Grupo_7484" data-name="Grupo 7484" transform="translate(129.691 5185.764)">
        <g id="Grupo_7482" data-name="Grupo 7482" transform="translate(223.309 19.783)">
          <path id="Trazado_11445" data-name="Trazado 11445" d="M258.621,58.481l-.081,4.213s14.371,9.575,41.181,9.575S340.9,62.694,340.9,62.694l.081-4.213" transform="translate(-215.103 -10.769)" fill="none" stroke="#231f20" stroke-miterlimit="10" stroke-width="0.741" stroke-dasharray="1.482"/>
          <path id="Trazado_11446" data-name="Trazado 11446" d="M236.632,89.98c17.159-.669,28.5-13.166,32.171-29.034" transform="translate(-220.206 -10.195)" fill="none" stroke="#231f20" stroke-miterlimit="10" stroke-width="0.741" stroke-dasharray="1.482"/>
          <path id="Trazado_11447" data-name="Trazado 11447" d="M353.879,89.98c-17.16-.669-28.5-13.166-32.171-29.034" transform="translate(-200.389 -10.195)" fill="none" stroke="#231f20" stroke-miterlimit="10" stroke-width="0.741" stroke-dasharray="1.482"/>
          <path id="Trazado_11448" data-name="Trazado 11448" d="M340.985,55.354s-14.371,9.575-41.181,9.575-41.182-9.575-41.182-9.575l-.081,4.214s14.371,9.574,41.181,9.574S340.9,59.568,340.9,59.568Z" transform="translate(-215.103 -11.497)" fill="#fff" stroke="#231f20" stroke-miterlimit="10" stroke-width="0.736"/>
          <path id="Trazado_11449" data-name="Trazado 11449" d="M323.016,19.816l4.16,1.372s-9.706,70.133,27.772,71.39c-.069.82-.407,2.844-.5,3.837C311.9,95.827,323.016,19.816,323.016,19.816Z" transform="translate(-200.389 -19.775)" fill="#fff" stroke="#231f20" stroke-miterlimit="10" stroke-width="0.736"/>
          <path id="Trazado_11450" data-name="Trazado 11450" d="M267.147,19.816l-4.16,1.372s9.706,70.131-27.771,71.389c.068.821.406,2.846.5,3.838C278.262,95.827,267.147,19.816,267.147,19.816Z" transform="translate(-220.535 -19.775)" fill="#fff" stroke="#231f20" stroke-miterlimit="10" stroke-width="0.736"/>
          <g id="Grupo_7466" data-name="Grupo 7466" transform="translate(14.412)">
            <g id="Grupo_7465" data-name="Grupo 7465">
              <path id="Trazado_11451" data-name="Trazado 11451" d="M375.494,83.806c-23.036-.965-29.066-26.485-29.066-26.485s-23.032,10.27-41.1,10.089h-.164c-18.067.181-41.1-10.089-41.1-10.089S258.034,82.84,235,83.806c0,0,20.521,28.357,70.124,28.357S375.494,83.806,375.494,83.806Z" transform="translate(-234.998 -11.039)" fill="#edeced" stroke="#231f20" stroke-linecap="round" stroke-linejoin="round" stroke-width="0.75"/>
              <path id="Trazado_11452" data-name="Trazado 11452" d="M340.952,55.321S326.581,64.9,299.769,64.9s-41.181-9.575-41.181-9.575l-.081,4.214s14.371,9.574,41.181,9.574,41.182-9.574,41.182-9.574Z" transform="translate(-229.522 -11.505)" fill="#fff" stroke="#231f20" stroke-miterlimit="10" stroke-width="0.736"/>
              <path id="Trazado_11453" data-name="Trazado 11453" d="M258.588,58.448l-.081,4.213s14.371,9.575,41.181,9.575,41.182-9.575,41.182-9.575l.081-4.213" transform="translate(-229.522 -10.777)" fill="none" stroke="#231f20" stroke-miterlimit="10" stroke-width="0.741" stroke-dasharray="1.482"/>
              <path id="Trazado_11454" data-name="Trazado 11454" d="M267.115,19.783l-4.16,1.372s9.706,70.132-27.772,71.389c.069.821.407,2.846.5,3.838C278.228,95.794,267.115,19.783,267.115,19.783Z" transform="translate(-234.955 -19.783)" fill="#fff" stroke="#231f20" stroke-miterlimit="10" stroke-width="0.736"/>
              <path id="Trazado_11455" data-name="Trazado 11455" d="M322.983,19.783l4.16,1.372s-9.706,70.133,27.772,71.39c-.069.82-.407,2.844-.5,3.837C311.87,95.794,322.983,19.783,322.983,19.783Z" transform="translate(-214.808 -19.783)" fill="#fff" stroke="#231f20" stroke-miterlimit="10" stroke-width="0.736"/>
              <path id="Trazado_11456" data-name="Trazado 11456" d="M236.6,89.947c17.159-.669,28.5-13.166,32.171-29.034" transform="translate(-234.625 -10.203)" fill="none" stroke="#231f20" stroke-miterlimit="10" stroke-width="0.741" stroke-dasharray="1.482"/>
              <path id="Trazado_11457" data-name="Trazado 11457" d="M353.845,89.947c-17.159-.669-28.5-13.166-32.171-29.034" transform="translate(-214.809 -10.203)" fill="none" stroke="#231f20" stroke-miterlimit="10" stroke-width="0.741" stroke-dasharray="1.482"/>
            </g>
          </g>
          <path id="Trazado_11458" data-name="Trazado 11458" d="M378.217,78.8s-15.9,10.677-69.169,10.677S237.721,78.8,237.721,78.8l13.252,74.787c-11.237,14.375-20.906,96.771-27.663,159.561,0,0,37.784,17.272,84.917,17.292s85.083-16.949,85.083-16.949c-6.723-62.47-16.51-145.529-25.285-159.936Z" transform="translate(-223.309 -6.036)" fill="#fff" stroke="#231f20" stroke-miterlimit="10" stroke-width="0.736"/>
          <path id="Trazado_11459" data-name="Trazado 11459" d="M373.962,85.57S358.31,96.246,305.041,96.246,235.874,85.57,235.874,85.57" transform="translate(-220.382 -4.459)" fill="none" stroke="#231f20" stroke-miterlimit="10" stroke-width="0.741" stroke-dasharray="1.482"/>
          <path id="Trazado_11460" data-name="Trazado 11460" d="M353.773,98.407c.138-2.095.415-6.3.55-8.4,3.4-53.16-5.713-68.615-5.713-68.615l-5.454-1.407S352.8,36.529,349.4,89.689c-.166,2.608-.547,7.361-.731,9.613a272.011,272.011,0,0,1-42.377,2.89,278.239,278.239,0,0,1-44.7-3.17c-.169-2.131-.528-6.711-.7-9.333-3.394-53.16,6.246-69.707,6.246-69.707l-5.454,1.407S252.584,36.844,255.978,90c.136,2.11.388,6.124.513,8.107-15.447-3.015-21.526-6.595-21.526-6.595l1.062,5.477s17,10.132,70.266,10.132S374.4,97.049,374.4,97.049l1.055-5.533S369.757,95.337,353.773,98.407Z" transform="translate(-220.594 -19.737)" fill="#fff" stroke="#231f20" stroke-linejoin="round" stroke-width="0.736"/>
          <path id="Trazado_11461" data-name="Trazado 11461" d="M392.706,264.519s-37.258,16.953-85.489,16.933S223.7,264.519,223.7,264.519" transform="translate(-223.219 37.223)" fill="none" stroke="#231f20" stroke-miterlimit="10" stroke-width="0.741" stroke-dasharray="1.482"/>
          <g id="Grupo_7481" data-name="Grupo 7481" transform="translate(26.506 113.502)">
            <g id="Grupo_7468" data-name="Grupo 7468" transform="translate(20.162 9.528)">
              <g id="Grupo_7467" data-name="Grupo 7467">
                <path id="Trazado_11462" data-name="Trazado 11462" d="M261.16,168.563a29.81,29.81,0,0,0,1.25-6,59.961,59.961,0,0,0,.418-6.114c.1-4.087-.048-8.18-.311-12.273-.161-4.091-.64-8.171-.837-12.285a52.271,52.271,0,0,1,.5-12.319,45.02,45.02,0,0,0-.168,6.141c.051,2.045.19,4.09.371,6.13.346,4.081.813,8.166,1.053,12.281a115.975,115.975,0,0,1,.1,12.354C263.262,160.575,262.79,164.759,261.16,168.563Z" transform="translate(-261.16 -119.57)" fill="#231f20"/>
              </g>
            </g>
            <g id="Grupo_7470" data-name="Grupo 7470" transform="translate(86.406 10.178)">
              <g id="Grupo_7469" data-name="Grupo 7469">
                <path id="Trazado_11463" data-name="Trazado 11463" d="M317.4,169.091c-1.63-3.8-2.1-7.989-2.378-12.086a115.983,115.983,0,0,1,.1-12.354c.24-4.116.707-8.2,1.053-12.281.181-2.042.321-4.085.371-6.131a44.826,44.826,0,0,0-.168-6.141,52.285,52.285,0,0,1,.5,12.321c-.2,4.114-.677,8.194-.838,12.285-.263,4.092-.411,8.185-.311,12.273a60.3,60.3,0,0,0,.418,6.114A29.807,29.807,0,0,0,317.4,169.091Z" transform="translate(-314.889 -120.097)" fill="#231f20"/>
              </g>
            </g>
            <g id="Grupo_7472" data-name="Grupo 7472" transform="translate(100.312 14.189)">
              <g id="Grupo_7471" data-name="Grupo 7471">
                <path id="Trazado_11464" data-name="Trazado 11464" d="M328.576,150.853c-.281-3.047-.735-6.085-1.161-9.127-.84-6.07-1.693-12.245-.983-18.376-.555,6.145.45,12.261,1.44,18.305.5,3.031,1.033,6.06,1.393,9.126a38.174,38.174,0,0,1,.147,9.3S328.849,153.892,328.576,150.853Z" transform="translate(-326.167 -123.35)" fill="#231f20"/>
              </g>
            </g>
            <g id="Grupo_7474" data-name="Grupo 7474" transform="translate(35.167 17.826)">
              <g id="Grupo_7473" data-name="Grupo 7473">
                <path id="Trazado_11465" data-name="Trazado 11465" d="M275.781,161.2a20.129,20.129,0,0,1-2.325-8.608,60.222,60.222,0,0,1,.1-8.8c.235-2.932.69-5.842,1.03-8.749.178-1.454.313-2.908.362-4.366a23.4,23.4,0,0,0-.164-4.374,27.247,27.247,0,0,1,.493,8.775c-.194,2.931-.661,5.837-.819,8.75a71.952,71.952,0,0,0-.3,8.741,31.541,31.541,0,0,0,.408,4.355A16.393,16.393,0,0,0,275.781,161.2Z" transform="translate(-273.33 -126.3)" fill="#231f20"/>
              </g>
            </g>
            <g id="Grupo_7476" data-name="Grupo 7476" transform="translate(0 15.105)">
              <g id="Grupo_7475" data-name="Grupo 7475">
                <path id="Trazado_11466" data-name="Trazado 11466" d="M244.807,158.99a20.129,20.129,0,0,0,2.325-8.608,60.228,60.228,0,0,0-.1-8.8c-.235-2.932-.69-5.842-1.029-8.749-.178-1.454-.313-2.908-.362-4.366a23.406,23.406,0,0,1,.163-4.374,27.282,27.282,0,0,0-.492,8.775c.194,2.931.661,5.837.819,8.75a71.97,71.97,0,0,1,.3,8.743,31.529,31.529,0,0,1-.408,4.353A16.391,16.391,0,0,1,244.807,158.99Z" transform="translate(-244.807 -124.093)" fill="#231f20"/>
              </g>
            </g>
            <g id="Grupo_7478" data-name="Grupo 7478" transform="translate(116.652 12.079)">
              <g id="Grupo_7477" data-name="Grupo 7477">
                <path id="Trazado_11467" data-name="Trazado 11467" d="M341.871,156.535a20.165,20.165,0,0,1-2.325-8.608,60.4,60.4,0,0,1,.1-8.8c.235-2.931.69-5.842,1.031-8.748.176-1.454.312-2.91.362-4.367a23.394,23.394,0,0,0-.164-4.373,27.28,27.28,0,0,1,.492,8.775c-.194,2.931-.661,5.837-.819,8.75a71.944,71.944,0,0,0-.3,8.741,31.345,31.345,0,0,0,.409,4.355A16.379,16.379,0,0,0,341.871,156.535Z" transform="translate(-339.42 -121.639)" fill="#231f20"/>
              </g>
            </g>
            <g id="Grupo_7480" data-name="Grupo 7480" transform="translate(73.273)">
              <g id="Grupo_7479" data-name="Grupo 7479">
                <path id="Trazado_11468" data-name="Trazado 11468" d="M305.26,178.187a77.858,77.858,0,0,0,1.93-16.456,147.554,147.554,0,0,0-.748-16.627c-.507-5.535-1.281-11.045-1.806-16.589a81.814,81.814,0,0,1,.057-16.673,81.66,81.66,0,0,0,.195,16.648c.6,5.525,1.473,11.024,2.047,16.563a148.152,148.152,0,0,1,.965,16.688C307.863,167.319,305.26,178.187,305.26,178.187Z" transform="translate(-304.237 -111.842)" fill="#231f20"/>
              </g>
            </g>
          </g>
          <path id="Trazado_11469" data-name="Trazado 11469" d="M362.712,140.491c.964-.594,1.2-6.341,1.2-6.341a267.9,267.9,0,0,1-60.578,6.4c-40.98-.382-58.525-6.4-58.525-6.4s.586,5.742,1.551,6.336c1.666,1.027,13.941,6.57,56.944,6.7C345.054,147.318,361.046,141.518,362.712,140.491Z" transform="translate(-218.301 6.856)" fill="#fff" stroke="#231f20" stroke-miterlimit="10" stroke-width="0.75"/>
        </g>
        <g id="Grupo_7483" data-name="Grupo 7483" transform="translate(223.326 81.242)">
          <path id="Trazado_11470" data-name="Trazado 11470" d="M259.2,86.538c-3.426,8.076-12.869,7.938-13.43,22.5-.244,6.335,5.658,27.653,8.748,32.994,2.343,4.049,5.8,8.442,6.142,9.666a27.878,27.878,0,0,0-3.4,2.424c-1.594,1.77-2.1,4.284-2.778,6.49-2.37,7.692-3.09,15.964-7.167,23.05-.7,1.224-1.778,3.14-.914,4.535a18.616,18.616,0,0,0,6.58,5.819c2.807,1.685,14.579,7.585,14.579,7.585.3,1.6-21.156-2.315-21.156-2.315-3.641,45.334,32.821,45.646,33.549,48.082.488,1.634-30.638-.531-33.528.983a6.171,6.171,0,0,0-2.733,2.42c-.806,1.5-2.063,14.3-.806,17.78,5.477,15.155,33.417,16.265,32.433,16.477a70.585,70.585,0,0,1-34.868-1.741c-13.3,27.471,7.8,40.313,7.8,40.313-2.084-.239-21.358-6.572-24.93-8.163,5.437-54.952,16.8-152.273,28.039-159.932l-13.6-74.536s13.882-.041,20.055-11.307C257.814,69.664,259.088,83.573,259.2,86.538Z" transform="translate(-223.323 -69.623)" fill="#f3f4f5" style="mix-blend-mode: multiply;isolation: isolate"/>
          <path id="Trazado_11471" data-name="Trazado 11471" d="M304.846,144.547c-3.656-5.18-9.258-7.214-14.066-11.66-4.3-3.972-9.909-15.266-15.81-16.193a24.117,24.117,0,0,0,4.161,12.5c1.831,6.722,5.654,10.7,10.777,15.239Z" transform="translate(-211.293 -58.669)" fill="#f3f4f5" style="mix-blend-mode: multiply;isolation: isolate"/>
          <path id="Trazado_11472" data-name="Trazado 11472" d="M293.347,144.728c3.673,3.416,8,7.882,10.152,12.482,2.112,4.521,2.169,11.1,6.791,14.018,3.919-2.251-5.21-22.963-6.353-26.5Z" transform="translate(-207.012 -52.139)" fill="#f3f4f5" style="mix-blend-mode: multiply;isolation: isolate"/>
          <path id="Trazado_11473" data-name="Trazado 11473" d="M324.468,125.973c-4.94-8.071-15.482-9.516-21.713-16.675-1.238-1.422-3.6-6.563-5.36-3.015-1.071,2.156,3.013,7.314,4.207,8.992,2.36,6.95,10.436,8.738,15.9,12.322,5.817,3.813,8.162,10.378,13.454,14.636C330.724,136.334,327.551,131.009,324.468,125.973Z" transform="translate(-206.111 -61.379)" fill="#f3f4f5" style="mix-blend-mode: multiply;isolation: isolate"/>
          <path id="Trazado_11474" data-name="Trazado 11474" d="M253.162,97.627c-1.98-4.5-6.475-2.711-9.7-5.972-2.911-2.944-3.251-8.594-7.807-9.881.07,4.473,3.119,9.68,3.119,9.68.078,6.628,6.87,6.125,10.932,8.86,4.2,2.83,5.977,8.332,10.809,10.429C261.8,105.28,255.048,101.914,253.162,97.627Z" transform="translate(-220.451 -66.803)" fill="#f3f4f5" style="mix-blend-mode: multiply;isolation: isolate"/>
          <path id="Trazado_11475" data-name="Trazado 11475" d="M297.719,209.656c-1.7-3.865-4.187-2.418-7.354-4.067-2.294-1.2-3.811-4.207-5.073-6.285-2.463-4.056-5.484-13.579-10.577-15.02.07,4.474,3.118,9.68,3.118,9.68.039,3.331,2.352,7.214,3.827,10.105,2.419,4.738,3.573,5.537,7.814,7.835,7.928,4.294,10.857,15.636,18.933,19.141C310.132,223.693,300.519,216.02,297.719,209.656Z" transform="translate(-211.353 -42.925)" fill="#f3f4f5" style="mix-blend-mode: multiply;isolation: isolate"/>
          <path id="Trazado_11476" data-name="Trazado 11476" d="M335.07,86.843c4.72,8.073,13.813,7.64,14.373,22.205.244,6.335-5.658,27.653-8.748,32.994-2.343,4.049-6.586,8.827-6.929,10.05.042-.149,5.477,4.929,6.155,7.135,2.368,7.691,3.9,17.36,7.978,24.445.705,1.224,1.778,3.14.915,4.535a18.637,18.637,0,0,1-6.58,5.819c-2.807,1.685-14.579,7.585-14.579,7.585-.3,1.6,21.156-2.315,21.156-2.315,3.641,45.334-32.821,45.646-33.549,48.082-.488,1.634,30.638-.531,33.528.983a6.17,6.17,0,0,1,2.733,2.42c.805,1.5,2.063,14.3.806,17.78-5.477,15.155-33.417,16.265-32.435,16.477a70.589,70.589,0,0,0,34.87-1.741c13.3,27.471-7.8,40.313-7.8,40.313,2.084-.239,21.358-6.572,24.929-8.163-5.436-54.952-18.154-154.63-25.285-159.753l9.844-74.718s-15.1-1.445-20.364-11.344C336.086,69.631,336.583,84.8,335.07,86.843Z" transform="translate(-201.909 -69.631)" fill="#f3f4f5" style="mix-blend-mode: multiply;isolation: isolate"/>
        </g>
      </g>
      <path id="Trazado_13307" data-name="Trazado 13307" d="M-41.191-7.559h1a3.317,3.317,0,0,0,2.09-.552,1.931,1.931,0,0,0,.693-1.606,1.98,1.98,0,0,0-.581-1.572,2.723,2.723,0,0,0-1.821-.508h-1.377Zm6.836-2.266A4.364,4.364,0,0,1-35.8-6.3a6.161,6.161,0,0,1-4.1,1.221h-1.3V0h-3.027V-14.277h4.561a6.066,6.066,0,0,1,3.95,1.118A4.077,4.077,0,0,1-34.355-9.824Zm4.834,4.346a4.582,4.582,0,0,0,.532,2.451,1.9,1.9,0,0,0,1.733.83,1.873,1.873,0,0,0,1.714-.825,4.648,4.648,0,0,0,.522-2.456,4.51,4.51,0,0,0-.527-2.432,1.907,1.907,0,0,0-1.729-.811,1.9,1.9,0,0,0-1.719.806A4.506,4.506,0,0,0-29.521-5.479Zm7.549,0a5.867,5.867,0,0,1-1.406,4.17A5.1,5.1,0,0,1-27.295.2a5.478,5.478,0,0,1-2.773-.688,4.581,4.581,0,0,1-1.846-1.978,6.645,6.645,0,0,1-.645-3.008,5.835,5.835,0,0,1,1.4-4.16,5.128,5.128,0,0,1,3.926-1.484,5.509,5.509,0,0,1,2.773.684,4.563,4.563,0,0,1,1.846,1.963A6.584,6.584,0,0,1-21.973-5.479Zm10.078,2.236A3.006,3.006,0,0,1-13.062-.684,5.766,5.766,0,0,1-16.553.2,10.965,10.965,0,0,1-18.584.034a7.683,7.683,0,0,1-1.572-.474V-2.9a10.383,10.383,0,0,0,1.87.654,7.572,7.572,0,0,0,1.831.264q1.621,0,1.621-.937a.782.782,0,0,0-.215-.571,3.115,3.115,0,0,0-.742-.5q-.527-.278-1.406-.649a8.834,8.834,0,0,1-1.851-.977,2.749,2.749,0,0,1-.859-1.03,3.4,3.4,0,0,1-.269-1.431,2.594,2.594,0,0,1,1.128-2.251,5.494,5.494,0,0,1,3.2-.8,9.078,9.078,0,0,1,3.838.859l-.9,2.148q-.82-.352-1.533-.576A4.815,4.815,0,0,0-15.9-8.916q-1.318,0-1.318.713a.838.838,0,0,0,.425.693,11.553,11.553,0,0,0,1.86.869,8.643,8.643,0,0,1,1.875.967,2.859,2.859,0,0,1,.879,1.035A3.181,3.181,0,0,1-11.895-3.242Zm6.924,1.064A6.457,6.457,0,0,0-3.1-2.52V-.3A6.685,6.685,0,0,1-5.83.2a3.347,3.347,0,0,1-2.6-.9,3.932,3.932,0,0,1-.815-2.71V-8.682h-1.426v-1.26l1.641-1,.859-2.3h1.9v2.324h3.057v2.236H-6.27v5.264a1.163,1.163,0,0,0,.356.938A1.406,1.406,0,0,0-4.971-2.178ZM3.633-9a1.889,1.889,0,0,0-1.484.6,2.78,2.78,0,0,0-.615,1.7h4.18a2.483,2.483,0,0,0-.576-1.7A1.951,1.951,0,0,0,3.633-9ZM4.053.2A5.635,5.635,0,0,1-.068-1.26,5.509,5.509,0,0,1-1.553-5.381,6.06,6.06,0,0,1-.181-9.624a4.886,4.886,0,0,1,3.794-1.5A4.809,4.809,0,0,1,7.217-9.8,4.988,4.988,0,0,1,8.506-6.162v1.445H1.465a2.867,2.867,0,0,0,.752,1.982,2.646,2.646,0,0,0,1.973.713,8.189,8.189,0,0,0,1.865-.205,9.333,9.333,0,0,0,1.836-.654v2.3A6.994,6.994,0,0,1,6.221,0,10.529,10.529,0,0,1,4.053.2ZM17.021-11.123a4.8,4.8,0,0,1,1.006.088L17.8-8.242a3.412,3.412,0,0,0-.879-.1,3.159,3.159,0,0,0-2.222.732,2.648,2.648,0,0,0-.8,2.051V0H10.928V-10.918h2.256l.439,1.836h.146a4.1,4.1,0,0,1,1.372-1.479A3.383,3.383,0,0,1,17.021-11.123Zm2.861-2.617q0-1.455,1.621-1.455t1.621,1.455a1.419,1.419,0,0,1-.405,1.079,1.7,1.7,0,0,1-1.216.386Q19.883-12.275,19.883-13.74ZM22.988,0H20.01V-10.918h2.979Zm5.5-5.479a4.582,4.582,0,0,0,.532,2.451,1.9,1.9,0,0,0,1.733.83,1.873,1.873,0,0,0,1.714-.825,4.648,4.648,0,0,0,.522-2.456,4.51,4.51,0,0,0-.527-2.432,1.907,1.907,0,0,0-1.729-.811,1.9,1.9,0,0,0-1.719.806A4.506,4.506,0,0,0,28.486-5.479Zm7.549,0a5.867,5.867,0,0,1-1.406,4.17A5.1,5.1,0,0,1,30.713.2a5.478,5.478,0,0,1-2.773-.688,4.581,4.581,0,0,1-1.846-1.978,6.645,6.645,0,0,1-.645-3.008,5.835,5.835,0,0,1,1.4-4.16,5.128,5.128,0,0,1,3.926-1.484,5.509,5.509,0,0,1,2.773.684,4.563,4.563,0,0,1,1.846,1.963A6.584,6.584,0,0,1,36.035-5.479Zm8.555-5.645a4.8,4.8,0,0,1,1.006.088l-.225,2.793a3.412,3.412,0,0,0-.879-.1,3.159,3.159,0,0,0-2.222.732,2.648,2.648,0,0,0-.8,2.051V0H38.5V-10.918h2.256l.439,1.836h.146a4.1,4.1,0,0,1,1.372-1.479A3.383,3.383,0,0,1,44.59-11.123Z" transform="translate(438 5568)" fill="#00223d"/>
    </g>
    <g id="Grupo_8340" data-name="Grupo 8340">
      <circle id="Elipse_501" data-name="Elipse 501" cx="93.5" cy="93.5" r="93.5" transform="translate(571 5286)" fill="#fed97b"/>
      <g id="Grupo_7485" data-name="Grupo 7485" transform="translate(577.497 5197.062)">
        <g id="Grupo_7462-2" data-name="Grupo 7462" transform="translate(4.985 10.938)">
          <path id="Trazado_11415-2" data-name="Trazado 11415" d="M155.915,74.275c-22.437-.942-28.311-25.8-28.311-25.8s-22.435,10-40.035,9.827H87.41c-17.6.177-40.034-9.827-40.034-9.827S41.5,73.333,19.064,74.275l12.867,72.808c-10.946,14-20.363,94.262-26.946,155.422,0,0,36.806,16.824,82.715,16.843s82.878-16.508,82.878-16.508c-6.55-60.851-16.083-141.755-24.629-155.788Z" transform="translate(-4.985 -3.394)" fill="#fff" stroke="#231f20" stroke-miterlimit="10" stroke-width="0.736"/>
          <path id="Trazado_11416-2" data-name="Trazado 11416" d="M170,255.641s-36.292,16.513-83.271,16.5-81.356-16.5-81.356-16.5" transform="translate(-4.907 38.237)" fill="none" stroke="#231f20" stroke-miterlimit="10" stroke-width="0.741" stroke-dasharray="1.482"/>
          <path id="Trazado_11417-2" data-name="Trazado 11417" d="M120.524,46.477s-14,9.325-40.114,9.325S40.3,46.477,40.3,46.477l-.08,4.1s14,9.327,40.114,9.327,40.113-9.327,40.113-9.327Z" transform="translate(2.095 -3.796)" fill="#fff" stroke="#231f20" stroke-miterlimit="10" stroke-width="0.736"/>
          <path id="Trazado_11418-2" data-name="Trazado 11418" d="M40.3,49.6l-.08,4.1s14,9.327,40.114,9.327,40.113-9.327,40.113-9.327l.08-4.1" transform="translate(2.095 -3.168)" fill="none" stroke="#231f20" stroke-miterlimit="10" stroke-width="0.741" stroke-dasharray="1.482"/>
          <path id="Trazado_11419-2" data-name="Trazado 11419" d="M48,10.938l-4.052,1.337S53.4,80.589,16.893,81.814c.067.8.4,2.771.483,3.737C58.822,84.979,48,10.938,48,10.938Z" transform="translate(-2.592 -10.938)" fill="#fff" stroke="#231f20" stroke-miterlimit="10" stroke-width="0.736"/>
          <path id="Trazado_11420-2" data-name="Trazado 11420" d="M104.659,10.939l4.052,1.335s-9.454,68.314,27.05,69.539c-.066.8-.4,2.772-.483,3.739C93.833,84.979,104.659,10.939,104.659,10.939Z" transform="translate(14.789 -10.938)" fill="#fff" stroke="#231f20" stroke-miterlimit="10" stroke-width="0.736"/>
          <path id="Trazado_11421-2" data-name="Trazado 11421" d="M18.308,80.349C35.023,79.7,46.069,67.526,49.645,52.068" transform="translate(-2.308 -2.673)" fill="none" stroke="#231f20" stroke-miterlimit="10" stroke-width="0.741" stroke-dasharray="1.482"/>
          <path id="Trazado_11422-2" data-name="Trazado 11422" d="M134.721,80.349c-16.714-.651-27.76-12.824-31.337-28.281" transform="translate(14.789 -2.673)" fill="none" stroke="#231f20" stroke-miterlimit="10" stroke-width="0.741" stroke-dasharray="1.482"/>
          <g id="Grupo_7460-2" data-name="Grupo 7460" transform="translate(25.819 110.52)">
            <g id="Grupo_7447-2" data-name="Grupo 7447" transform="translate(19.639 9.28)">
              <g id="Grupo_7446-2" data-name="Grupo 7446">
                <path id="Trazado_11423-2" data-name="Trazado 11423" d="M42.837,158.416a29.137,29.137,0,0,0,1.218-5.846,58.759,58.759,0,0,0,.407-5.956c.1-3.982-.047-7.968-.3-11.956-.157-3.984-.623-7.958-.815-11.966a50.982,50.982,0,0,1,.49-12,43.86,43.86,0,0,0-.162,5.982c.049,1.994.184,3.984.362,5.971.337,3.975.79,7.955,1.026,11.964a112.956,112.956,0,0,1,.095,12.034A35.826,35.826,0,0,1,42.837,158.416Z" transform="translate(-42.837 -110.692)" fill="#231f20"/>
              </g>
            </g>
            <g id="Grupo_7449-2" data-name="Grupo 7449" transform="translate(84.165 9.914)">
              <g id="Grupo_7448-2" data-name="Grupo 7448">
                <path id="Trazado_11424-2" data-name="Trazado 11424" d="M99.008,158.944a35.8,35.8,0,0,1-2.317-11.773,112.962,112.962,0,0,1,.095-12.034c.235-4.009.688-7.989,1.027-11.964.177-1.988.311-3.979.36-5.971a43.846,43.846,0,0,0-.162-5.982,50.978,50.978,0,0,1,.49,12c-.192,4.009-.658,7.983-.815,11.966-.257,3.986-.4,7.973-.3,11.956a58.708,58.708,0,0,0,.407,5.954A29.068,29.068,0,0,0,99.008,158.944Z" transform="translate(-96.565 -111.22)" fill="#231f20"/>
              </g>
            </g>
            <g id="Grupo_7451-2" data-name="Grupo 7451" transform="translate(97.709 13.821)">
              <g id="Grupo_7450-2" data-name="Grupo 7450">
                <path id="Trazado_11425-2" data-name="Trazado 11425" d="M110.114,150.113a36.472,36.472,0,0,0,.076-8.851c-.273-2.966-.715-5.926-1.13-8.889-.818-5.914-1.65-11.928-.958-17.9-.54,5.986.438,11.944,1.4,17.831.49,2.951,1.008,5.9,1.358,8.888A37.193,37.193,0,0,1,111,150.25Z" transform="translate(-107.844 -114.473)" fill="#231f20"/>
              </g>
            </g>
            <g id="Grupo_7453-2" data-name="Grupo 7453" transform="translate(34.254 17.363)">
              <g id="Grupo_7452-2" data-name="Grupo 7452">
                <path id="Trazado_11426-2" data-name="Trazado 11426" d="M57.393,151.415a19.651,19.651,0,0,1-2.265-8.386,58.834,58.834,0,0,1,.094-8.571c.229-2.855.673-5.689,1-8.521.173-1.416.305-2.834.353-4.254a22.681,22.681,0,0,0-.159-4.26,26.574,26.574,0,0,1,.479,8.547c-.189,2.855-.644,5.685-.8,8.523a70.08,70.08,0,0,0-.3,8.515,30.533,30.533,0,0,0,.4,4.242A15.976,15.976,0,0,0,57.393,151.415Z" transform="translate(-55.006 -117.423)" fill="#231f20"/>
              </g>
            </g>
            <g id="Grupo_7455-2" data-name="Grupo 7455" transform="translate(0 14.713)">
              <g id="Grupo_7454-2" data-name="Grupo 7454">
                <path id="Trazado_11427-2" data-name="Trazado 11427" d="M26.484,149.208a19.633,19.633,0,0,0,2.264-8.386,58.5,58.5,0,0,0-.094-8.571c-.229-2.855-.673-5.689-1-8.521-.173-1.416-.305-2.833-.353-4.253a22.794,22.794,0,0,1,.16-4.261,26.574,26.574,0,0,0-.479,8.547c.187,2.855.644,5.685.8,8.523a70.578,70.578,0,0,1,.3,8.515,30.532,30.532,0,0,1-.4,4.242A15.976,15.976,0,0,1,26.484,149.208Z" transform="translate(-26.484 -115.216)" fill="#231f20"/>
              </g>
            </g>
            <g id="Grupo_7457-2" data-name="Grupo 7457" transform="translate(113.626 11.765)">
              <g id="Grupo_7456-2" data-name="Grupo 7456">
                <path id="Trazado_11428-2" data-name="Trazado 11428" d="M123.484,146.753a19.608,19.608,0,0,1-2.265-8.385,58.666,58.666,0,0,1,.094-8.571c.229-2.856.673-5.69,1-8.521.173-1.416.305-2.834.353-4.254a22.9,22.9,0,0,0-.159-4.261,26.573,26.573,0,0,1,.479,8.547c-.189,2.856-.644,5.685-.8,8.523a70.1,70.1,0,0,0-.3,8.516,30.747,30.747,0,0,0,.4,4.242A15.971,15.971,0,0,0,123.484,146.753Z" transform="translate(-121.097 -112.761)" fill="#231f20"/>
              </g>
            </g>
            <g id="Grupo_7459-2" data-name="Grupo 7459" transform="translate(71.373)">
              <g id="Grupo_7458-2" data-name="Grupo 7458">
                <path id="Trazado_11429-2" data-name="Trazado 11429" d="M86.91,167.59a75.842,75.842,0,0,0,1.881-16.029,143.763,143.763,0,0,0-.729-16.2c-.495-5.391-1.249-10.758-1.759-16.159a79.6,79.6,0,0,1,.055-16.239,79.534,79.534,0,0,0,.189,16.215c.588,5.381,1.435,10.739,1.995,16.135a144.544,144.544,0,0,1,.94,16.254C89.446,157,86.91,167.59,86.91,167.59Z" transform="translate(-85.914 -102.965)" fill="#231f20"/>
              </g>
            </g>
          </g>
          <path id="Trazado_11430-2" data-name="Trazado 11430" d="M141.331,131.45c.938-.579,1.166-6.178,1.166-6.178A260.989,260.989,0,0,1,83.49,131.5c-39.916-.372-57.006-6.233-57.006-6.233s.57,5.594,1.51,6.173c1.622,1,13.58,6.4,55.467,6.528C124.13,138.1,139.708,132.45,141.331,131.45Z" transform="translate(-0.665 12.038)" fill="#fff" stroke="#231f20" stroke-miterlimit="10" stroke-width="0.75"/>
          <g id="Grupo_7461-2" data-name="Grupo 7461" transform="translate(108.043 138.854)">
            <path id="Trazado_11431-2" data-name="Trazado 11431" d="M107.073,132.974a3.086,3.086,0,0,0,.161,1.116q-.137-.821-.275-1.643c.729,5.5,1.221,22.968,1.3,28.513-1.726-.5-3.537-1.948-5.261-2.446a3.512,3.512,0,0,1-1.3-.576c-.766-.626-.944-9.736-1.06-10.763-.928-8.183,1.32-13.238,4.364-17.051Z" transform="translate(-93.848 -125.841)" fill="#fff" stroke="#231f20" stroke-miterlimit="10" stroke-width="0.75"/>
            <path id="Trazado_11432-2" data-name="Trazado 11432" d="M104.509,132.161c.222-.167,1.129,1.206,1.259,1.4a12.191,12.191,0,0,1,2.028,5.284c.455,2.086.489,3.743.92,6.192.27,1.536,1.985,9.7,2.78,11.021a42.226,42.226,0,0,1,1.942-4.024,8.322,8.322,0,0,1,1.316-1.607c.374-.363,1.226-1.029,1.137-1.674-.108-.779-2-11.245-2.826-13.236-1.093-2.622-3.127-4.985-5.724-5.518Z" transform="translate(-93.028 -125.867)" fill="#fff" stroke="#231f20" stroke-miterlimit="10" stroke-width="0.75"/>
            <path id="Trazado_11433-2" data-name="Trazado 11433" d="M107.535,127.33a4.389,4.389,0,0,0-5.036.488l-6.868,4.475a1.567,1.567,0,0,0-.576.536,1.3,1.3,0,0,0-.092.736,6.616,6.616,0,0,0,2.32,3.9c.855.812,1.991,1.6,3.125,1.273a2.928,2.928,0,0,0,1.006-.572,19.815,19.815,0,0,0,2.61-2.918,7,7,0,0,1,3.059-2.368l.078-.026Z" transform="translate(-94.949 -126.514)" fill="#fff" stroke="#231f20" stroke-miterlimit="10" stroke-width="0.75"/>
            <path id="Trazado_11434-2" data-name="Trazado 11434" d="M105.854,133.42a4.842,4.842,0,0,1,3.558,1.837,14.691,14.691,0,0,0,3.416,3.025,2.247,2.247,0,0,0,2.813-.413c.98-.836,2.024-1.574,3.066-2.319,1-.711.157-1.7-.473-2.351-1.715-1.767-3-3.931-5.062-5.348s-4.917-2.08-6.614.172Z" transform="translate(-92.758 -126.558)" fill="#fff" stroke="#231f20" stroke-miterlimit="10" stroke-width="0.75"/>
            <path id="Trazado_11435-2" data-name="Trazado 11435" d="M105.607,130.7c-3.052.82-6.448,4.148-7.008,7.259a2.524,2.524,0,0,0,1.022,0,4.324,4.324,0,0,0,1.261-.629,15.692,15.692,0,0,0,2.4-2.528,7,7,0,0,1,3.06-2.368l.078-.025Z" transform="translate(-94.216 -125.725)" fill="#e6e7e8" stroke="#231f20" stroke-miterlimit="10" stroke-width="0.75"/>
            <path id="Trazado_11436-2" data-name="Trazado 11436" d="M107.487,130.316c2.427.9,4.888,2.037,6.277,3.973a6.246,6.246,0,0,1,.812,3.2l.055.134a2.1,2.1,0,0,1-1.892-.174,14.709,14.709,0,0,1-3.414-3.025c-.909-.946-2.165-1.941-3.558-1.837Z" transform="translate(-92.775 -125.803)" fill="#e6e7e8" stroke="#231f20" stroke-miterlimit="10" stroke-width="0.75"/>
            <path id="Trazado_11437-2" data-name="Trazado 11437" d="M105.86,126.916a2.014,2.014,0,0,0-1.572,1.02,2.912,2.912,0,0,0-.31,1.156,10.806,10.806,0,0,0,.454,3.442,2.586,2.586,0,0,0,.436,1.062,2.613,2.613,0,0,0,2.081.623,1.073,1.073,0,0,0,1.273-1.3q.072-1.212.143-2.426a6.314,6.314,0,0,0-.04-1.579,2.132,2.132,0,0,0-.777-1.338A3.652,3.652,0,0,0,105.86,126.916Z" transform="translate(-93.139 -126.486)" fill="#fff" stroke="#231f20" stroke-miterlimit="10" stroke-width="0.75"/>
          </g>
        </g>
        <g id="Grupo_7463-2" data-name="Grupo 7463" transform="translate(5.003 59.411)">
          <path id="Trazado_11438-2" data-name="Trazado 11438" d="M43.552,52.222c1.265-5.252-4.646,13.538-3.173,15.525-1.245,13.893-12.966,19.113-13.513,33.3-.238,6.171,5.512,26.936,8.521,32.139,2.282,3.945,5.649,8.224,5.983,9.415a27.188,27.188,0,0,0-3.313,2.361c-1.554,1.726-2.045,4.175-2.707,6.322-2.307,7.493-3.01,15.551-6.98,22.453-.687,1.193-1.732,3.058-.891,4.416a18.158,18.158,0,0,0,6.41,5.67c2.736,1.642,14.2,7.387,14.2,7.387.292,1.554-20.607-2.254-20.607-2.254-3.546,44.157,31.971,44.462,32.679,46.834.476,1.592-29.843-.518-32.659.958a6.01,6.01,0,0,0-2.663,2.357c-.784,1.457-2.009,13.932-.785,17.319,5.335,14.761,32.551,15.842,31.594,16.05a68.744,68.744,0,0,1-33.964-1.7c-12.958,26.76,7.6,39.268,7.6,39.268-2.031-.232-20.805-6.4-24.283-7.952C10.3,248.567,21.365,153.77,32.311,146.31l-13.25-72.6s9.9.079,15.424-6.233C37.576,63.943,42.082,58.321,43.552,52.222Z" transform="translate(-5 -51.3)" fill="#f3f4f5" style="mix-blend-mode: multiply;isolation: isolate"/>
          <path id="Trazado_11439-2" data-name="Trazado 11439" d="M85.748,134.948c-3.561-5.045-9.018-7.028-13.7-11.359-4.184-3.869-9.653-14.869-15.4-15.773A23.5,23.5,0,0,0,60.7,119.995c1.783,6.546,5.506,10.424,10.5,14.843Z" transform="translate(5.379 -39.942)" fill="#f3f4f5" style="mix-blend-mode: multiply;isolation: isolate"/>
          <path id="Trazado_11440-2" data-name="Trazado 11440" d="M75.023,135.85c3.579,3.329,7.8,7.678,9.89,12.158,2.057,4.4,2.111,10.812,6.615,13.655,3.818-2.192-5.076-22.368-6.19-25.813Z" transform="translate(9.072 -34.309)" fill="#f3f4f5" style="mix-blend-mode: multiply;isolation: isolate"/>
          <path id="Trazado_11441-2" data-name="Trazado 11441" d="M105.439,116.554c-4.812-7.863-15.082-9.269-21.151-16.244-1.2-1.385-3.5-6.391-5.221-2.936-1.044,2.1,2.936,7.124,4.1,8.76,2.3,6.77,10.165,8.51,15.491,12,5.666,3.715,7.95,10.107,13.1,14.255C111.532,126.646,108.44,121.459,105.439,116.554Z" transform="translate(9.85 -42.281)" fill="#f3f4f5" style="mix-blend-mode: multiply;isolation: isolate"/>
          <path id="Trazado_11442-2" data-name="Trazado 11442" d="M34.385,88.338c-1.929-4.382-6.309-2.641-9.449-5.817C22.1,79.653,21.768,74.151,17.33,72.9c.07,4.358,3.038,9.43,3.038,9.43.077,6.456,6.692,5.966,10.649,8.629,4.1,2.756,5.823,8.117,10.529,10.159C42.8,95.793,36.222,92.515,34.385,88.338Z" transform="translate(-2.522 -46.96)" fill="#f3f4f5" style="mix-blend-mode: multiply;isolation: isolate"/>
          <path id="Trazado_11443-2" data-name="Trazado 11443" d="M78.8,200.122c-1.657-3.765-4.078-2.355-7.164-3.963-2.235-1.165-3.713-4.1-4.943-6.121-2.4-3.951-5.341-13.227-10.3-14.631.07,4.358,3.038,9.43,3.038,9.43.038,3.245,2.29,7.026,3.728,9.842,2.356,4.617,3.48,5.395,7.61,7.632,7.722,4.184,10.577,15.232,18.442,18.646C90.89,213.795,81.526,206.319,78.8,200.122Z" transform="translate(5.327 -26.36)" fill="#f3f4f5" style="mix-blend-mode: multiply;isolation: isolate"/>
          <path id="Trazado_11444-2" data-name="Trazado 11444" d="M113.111,53.009c-2.356-4.863,5.164,13.345,3.691,15.331,1.245,13.894,12.885,18.342,13.433,32.529.238,6.17-5.512,26.936-8.521,32.139-2.282,3.945-6.416,8.6-6.749,9.789.04-.144,5.333,4.8,6,6.95,2.307,7.493,3.8,16.911,7.771,23.813.686,1.193,1.732,3.058.891,4.416a18.158,18.158,0,0,1-6.409,5.67c-2.736,1.642-14.2,7.387-14.2,7.387-.292,1.554,20.606-2.254,20.606-2.254,3.548,44.157-31.969,44.462-32.679,46.834-.476,1.592,29.844-.518,32.659.958a6.02,6.02,0,0,1,2.664,2.357c.784,1.457,2.008,13.932.785,17.319-5.335,14.761-32.551,15.842-31.594,16.05a68.746,68.746,0,0,0,33.964-1.7c12.958,26.76-7.6,39.268-7.6,39.268,2.03-.232,20.8-6.4,24.283-7.952-5.295-53.527-17.684-150.619-24.629-155.609l9.587-72.782a24.663,24.663,0,0,1-14.478-5.242C117.509,64.14,113.959,54.757,113.111,53.009Z" transform="translate(13.474 -51.121)" fill="#f3f4f5" style="mix-blend-mode: multiply;isolation: isolate"/>
        </g>
      </g>
      <rect id="Rectángulo_1815" data-name="Rectángulo 1815" width="15" height="294" transform="translate(659 5238)" fill="#f3f7fa"/>
      <path id="Trazado_11477" data-name="Trazado 11477" d="M202,3963.3v263.488" transform="translate(457 1296)" fill="none" stroke="#707070" stroke-width="1"/>
      <path id="Trazado_11478" data-name="Trazado 11478" d="M217,3963.3v264.115" transform="translate(457 1296)" fill="none" stroke="#707070" stroke-width="1"/>
      <path id="Trazado_13308" data-name="Trazado 13308" d="M-31.45,0h-2.979V-14.277h8.184v2.48H-31.45v3.682h4.844v2.471H-31.45Zm13.857-11.123a4.8,4.8,0,0,1,1.006.088l-.225,2.793a3.412,3.412,0,0,0-.879-.1,3.159,3.159,0,0,0-2.222.732,2.648,2.648,0,0,0-.8,2.051V0h-2.979V-10.918h2.256l.439,1.836h.146a4.1,4.1,0,0,1,1.372-1.479A3.383,3.383,0,0,1-17.593-11.123Zm5.361,5.645A4.582,4.582,0,0,0-11.7-3.027a1.9,1.9,0,0,0,1.733.83,1.873,1.873,0,0,0,1.714-.825,4.648,4.648,0,0,0,.522-2.456A4.51,4.51,0,0,0-8.257-7.91a1.907,1.907,0,0,0-1.729-.811,1.9,1.9,0,0,0-1.719.806A4.506,4.506,0,0,0-12.231-5.479Zm7.549,0a5.867,5.867,0,0,1-1.406,4.17A5.1,5.1,0,0,1-10,.2a5.478,5.478,0,0,1-2.773-.688,4.581,4.581,0,0,1-1.846-1.978,6.645,6.645,0,0,1-.645-3.008,5.835,5.835,0,0,1,1.4-4.16,5.128,5.128,0,0,1,3.926-1.484,5.509,5.509,0,0,1,2.773.684A4.563,4.563,0,0,1-5.327-8.477,6.584,6.584,0,0,1-4.683-5.479ZM7.856,0H4.878V-6.377a3.063,3.063,0,0,0-.42-1.772A1.528,1.528,0,0,0,3.12-8.74a2.011,2.011,0,0,0-1.807.835A5.178,5.178,0,0,0,.757-5.137V0H-2.222V-10.918H.054l.4,1.4H.62a3.148,3.148,0,0,1,1.372-1.2,4.672,4.672,0,0,1,1.987-.405,3.818,3.818,0,0,1,2.891,1.03,4.134,4.134,0,0,1,.986,2.974Zm7.666-2.178A6.457,6.457,0,0,0,17.4-2.52V-.3a6.685,6.685,0,0,1-2.734.5,3.347,3.347,0,0,1-2.6-.9,3.932,3.932,0,0,1-.815-2.71V-8.682H9.819v-1.26l1.641-1,.859-2.3h1.9v2.324H17.28v2.236H14.224v5.264a1.163,1.163,0,0,0,.356.938A1.406,1.406,0,0,0,15.522-2.178ZM26.538,0l-.576-1.484h-.078A4.4,4.4,0,0,1,24.336-.171,5,5,0,0,1,22.261.2a3.356,3.356,0,0,1-2.476-.9,3.45,3.45,0,0,1-.9-2.559A2.881,2.881,0,0,1,20.1-5.825a7.045,7.045,0,0,1,3.667-.913L25.659-6.8v-.479a1.485,1.485,0,0,0-1.7-1.66,7.743,7.743,0,0,0-3.076.791L19.9-10.156a8.876,8.876,0,0,1,4.18-.986,5.206,5.206,0,0,1,3.369.957,3.537,3.537,0,0,1,1.172,2.91V0Zm-.879-5.059-1.152.039a3.69,3.69,0,0,0-1.934.469,1.472,1.472,0,0,0-.635,1.309q0,1.26,1.445,1.26a2.289,2.289,0,0,0,1.655-.6,2.092,2.092,0,0,0,.62-1.582Zm9,5.059H31.685V-15.2h2.979Z" transform="translate(667 5568)" fill="#00223d"/>
    </g>
    <g id="Grupo_8341" data-name="Grupo 8341">
      <circle id="Elipse_502" data-name="Elipse 502" cx="93.5" cy="93.5" r="93.5" transform="translate(796 5286)" fill="#fed97b"/>
      <g id="Grupo_7486" data-name="Grupo 7486" transform="translate(581.691 5185.764)">
        <g id="Grupo_7482-2" data-name="Grupo 7482" transform="translate(223.309 19.783)">
          <path id="Trazado_11445-2" data-name="Trazado 11445" d="M258.621,58.481l-.081,4.213s14.371,9.575,41.181,9.575S340.9,62.694,340.9,62.694l.081-4.213" transform="translate(-215.103 -10.769)" fill="none" stroke="#231f20" stroke-miterlimit="10" stroke-width="0.741" stroke-dasharray="1.482"/>
          <path id="Trazado_11446-2" data-name="Trazado 11446" d="M236.632,89.98c17.159-.669,28.5-13.166,32.171-29.034" transform="translate(-220.206 -10.195)" fill="none" stroke="#231f20" stroke-miterlimit="10" stroke-width="0.741" stroke-dasharray="1.482"/>
          <path id="Trazado_11447-2" data-name="Trazado 11447" d="M353.879,89.98c-17.16-.669-28.5-13.166-32.171-29.034" transform="translate(-200.389 -10.195)" fill="none" stroke="#231f20" stroke-miterlimit="10" stroke-width="0.741" stroke-dasharray="1.482"/>
          <path id="Trazado_11448-2" data-name="Trazado 11448" d="M340.985,55.354s-14.371,9.575-41.181,9.575-41.182-9.575-41.182-9.575l-.081,4.214s14.371,9.574,41.181,9.574S340.9,59.568,340.9,59.568Z" transform="translate(-215.103 -11.497)" fill="#fff" stroke="#231f20" stroke-miterlimit="10" stroke-width="0.736"/>
          <path id="Trazado_11449-2" data-name="Trazado 11449" d="M323.016,19.816l4.16,1.372s-9.706,70.133,27.772,71.39c-.069.82-.407,2.844-.5,3.837C311.9,95.827,323.016,19.816,323.016,19.816Z" transform="translate(-200.389 -19.775)" fill="#fff" stroke="#231f20" stroke-miterlimit="10" stroke-width="0.736"/>
          <path id="Trazado_11450-2" data-name="Trazado 11450" d="M267.147,19.816l-4.16,1.372s9.706,70.131-27.771,71.389c.068.821.406,2.846.5,3.838C278.262,95.827,267.147,19.816,267.147,19.816Z" transform="translate(-220.535 -19.775)" fill="#fff" stroke="#231f20" stroke-miterlimit="10" stroke-width="0.736"/>
          <g id="Grupo_7466-2" data-name="Grupo 7466" transform="translate(14.412)">
            <g id="Grupo_7465-2" data-name="Grupo 7465">
              <path id="Trazado_11451-2" data-name="Trazado 11451" d="M375.494,83.806c-23.036-.965-29.066-26.485-29.066-26.485s-23.032,10.27-41.1,10.089h-.164c-18.067.181-41.1-10.089-41.1-10.089S258.034,82.84,235,83.806c0,0,20.521,28.357,70.124,28.357S375.494,83.806,375.494,83.806Z" transform="translate(-234.998 -11.039)" fill="#edeced" stroke="#231f20" stroke-linecap="round" stroke-linejoin="round" stroke-width="0.75"/>
              <path id="Trazado_11452-2" data-name="Trazado 11452" d="M340.952,55.321S326.581,64.9,299.769,64.9s-41.181-9.575-41.181-9.575l-.081,4.214s14.371,9.574,41.181,9.574,41.182-9.574,41.182-9.574Z" transform="translate(-229.522 -11.505)" fill="#fff" stroke="#231f20" stroke-miterlimit="10" stroke-width="0.736"/>
              <path id="Trazado_11453-2" data-name="Trazado 11453" d="M258.588,58.448l-.081,4.213s14.371,9.575,41.181,9.575,41.182-9.575,41.182-9.575l.081-4.213" transform="translate(-229.522 -10.777)" fill="none" stroke="#231f20" stroke-miterlimit="10" stroke-width="0.741" stroke-dasharray="1.482"/>
              <path id="Trazado_11454-2" data-name="Trazado 11454" d="M267.115,19.783l-4.16,1.372s9.706,70.132-27.772,71.389c.069.821.407,2.846.5,3.838C278.228,95.794,267.115,19.783,267.115,19.783Z" transform="translate(-234.955 -19.783)" fill="#fff" stroke="#231f20" stroke-miterlimit="10" stroke-width="0.736"/>
              <path id="Trazado_11455-2" data-name="Trazado 11455" d="M322.983,19.783l4.16,1.372s-9.706,70.133,27.772,71.39c-.069.82-.407,2.844-.5,3.837C311.87,95.794,322.983,19.783,322.983,19.783Z" transform="translate(-214.808 -19.783)" fill="#fff" stroke="#231f20" stroke-miterlimit="10" stroke-width="0.736"/>
              <path id="Trazado_11456-2" data-name="Trazado 11456" d="M236.6,89.947c17.159-.669,28.5-13.166,32.171-29.034" transform="translate(-234.625 -10.203)" fill="none" stroke="#231f20" stroke-miterlimit="10" stroke-width="0.741" stroke-dasharray="1.482"/>
              <path id="Trazado_11457-2" data-name="Trazado 11457" d="M353.845,89.947c-17.159-.669-28.5-13.166-32.171-29.034" transform="translate(-214.809 -10.203)" fill="none" stroke="#231f20" stroke-miterlimit="10" stroke-width="0.741" stroke-dasharray="1.482"/>
            </g>
          </g>
          <path id="Trazado_11458-2" data-name="Trazado 11458" d="M378.217,78.8s-15.9,10.677-69.169,10.677S237.721,78.8,237.721,78.8l13.252,74.787c-11.237,14.375-20.906,96.771-27.663,159.561,0,0,37.784,17.272,84.917,17.292s85.083-16.949,85.083-16.949c-6.723-62.47-16.51-145.529-25.285-159.936Z" transform="translate(-223.309 -6.036)" fill="#fff" stroke="#231f20" stroke-miterlimit="10" stroke-width="0.736"/>
          <path id="Trazado_11459-2" data-name="Trazado 11459" d="M373.962,85.57S358.31,96.246,305.041,96.246,235.874,85.57,235.874,85.57" transform="translate(-220.382 -4.459)" fill="none" stroke="#231f20" stroke-miterlimit="10" stroke-width="0.741" stroke-dasharray="1.482"/>
          <path id="Trazado_11460-2" data-name="Trazado 11460" d="M353.773,98.407c.138-2.095.415-6.3.55-8.4,3.4-53.16-5.713-68.615-5.713-68.615l-5.454-1.407S352.8,36.529,349.4,89.689c-.166,2.608-.547,7.361-.731,9.613a272.011,272.011,0,0,1-42.377,2.89,278.239,278.239,0,0,1-44.7-3.17c-.169-2.131-.528-6.711-.7-9.333-3.394-53.16,6.246-69.707,6.246-69.707l-5.454,1.407S252.584,36.844,255.978,90c.136,2.11.388,6.124.513,8.107-15.447-3.015-21.526-6.595-21.526-6.595l1.062,5.477s17,10.132,70.266,10.132S374.4,97.049,374.4,97.049l1.055-5.533S369.757,95.337,353.773,98.407Z" transform="translate(-220.594 -19.737)" fill="#fff" stroke="#231f20" stroke-linejoin="round" stroke-width="0.736"/>
          <path id="Trazado_11461-2" data-name="Trazado 11461" d="M392.706,264.519s-37.258,16.953-85.489,16.933S223.7,264.519,223.7,264.519" transform="translate(-223.219 37.223)" fill="none" stroke="#231f20" stroke-miterlimit="10" stroke-width="0.741" stroke-dasharray="1.482"/>
          <g id="Grupo_7481-2" data-name="Grupo 7481" transform="translate(26.506 113.502)">
            <g id="Grupo_7468-2" data-name="Grupo 7468" transform="translate(20.162 9.528)">
              <g id="Grupo_7467-2" data-name="Grupo 7467">
                <path id="Trazado_11462-2" data-name="Trazado 11462" d="M261.16,168.563a29.81,29.81,0,0,0,1.25-6,59.961,59.961,0,0,0,.418-6.114c.1-4.087-.048-8.18-.311-12.273-.161-4.091-.64-8.171-.837-12.285a52.271,52.271,0,0,1,.5-12.319,45.02,45.02,0,0,0-.168,6.141c.051,2.045.19,4.09.371,6.13.346,4.081.813,8.166,1.053,12.281a115.975,115.975,0,0,1,.1,12.354C263.262,160.575,262.79,164.759,261.16,168.563Z" transform="translate(-261.16 -119.57)" fill="#231f20"/>
              </g>
            </g>
            <g id="Grupo_7470-2" data-name="Grupo 7470" transform="translate(86.406 10.178)">
              <g id="Grupo_7469-2" data-name="Grupo 7469">
                <path id="Trazado_11463-2" data-name="Trazado 11463" d="M317.4,169.091c-1.63-3.8-2.1-7.989-2.378-12.086a115.983,115.983,0,0,1,.1-12.354c.24-4.116.707-8.2,1.053-12.281.181-2.042.321-4.085.371-6.131a44.826,44.826,0,0,0-.168-6.141,52.285,52.285,0,0,1,.5,12.321c-.2,4.114-.677,8.194-.838,12.285-.263,4.092-.411,8.185-.311,12.273a60.3,60.3,0,0,0,.418,6.114A29.807,29.807,0,0,0,317.4,169.091Z" transform="translate(-314.889 -120.097)" fill="#231f20"/>
              </g>
            </g>
            <g id="Grupo_7472-2" data-name="Grupo 7472" transform="translate(100.312 14.189)">
              <g id="Grupo_7471-2" data-name="Grupo 7471">
                <path id="Trazado_11464-2" data-name="Trazado 11464" d="M328.576,150.853c-.281-3.047-.735-6.085-1.161-9.127-.84-6.07-1.693-12.245-.983-18.376-.555,6.145.45,12.261,1.44,18.305.5,3.031,1.033,6.06,1.393,9.126a38.174,38.174,0,0,1,.147,9.3S328.849,153.892,328.576,150.853Z" transform="translate(-326.167 -123.35)" fill="#231f20"/>
              </g>
            </g>
            <g id="Grupo_7474-2" data-name="Grupo 7474" transform="translate(35.167 17.826)">
              <g id="Grupo_7473-2" data-name="Grupo 7473">
                <path id="Trazado_11465-2" data-name="Trazado 11465" d="M275.781,161.2a20.129,20.129,0,0,1-2.325-8.608,60.222,60.222,0,0,1,.1-8.8c.235-2.932.69-5.842,1.03-8.749.178-1.454.313-2.908.362-4.366a23.4,23.4,0,0,0-.164-4.374,27.247,27.247,0,0,1,.493,8.775c-.194,2.931-.661,5.837-.819,8.75a71.952,71.952,0,0,0-.3,8.741,31.541,31.541,0,0,0,.408,4.355A16.393,16.393,0,0,0,275.781,161.2Z" transform="translate(-273.33 -126.3)" fill="#231f20"/>
              </g>
            </g>
            <g id="Grupo_7476-2" data-name="Grupo 7476" transform="translate(0 15.105)">
              <g id="Grupo_7475-2" data-name="Grupo 7475">
                <path id="Trazado_11466-2" data-name="Trazado 11466" d="M244.807,158.99a20.129,20.129,0,0,0,2.325-8.608,60.228,60.228,0,0,0-.1-8.8c-.235-2.932-.69-5.842-1.029-8.749-.178-1.454-.313-2.908-.362-4.366a23.406,23.406,0,0,1,.163-4.374,27.282,27.282,0,0,0-.492,8.775c.194,2.931.661,5.837.819,8.75a71.97,71.97,0,0,1,.3,8.743,31.529,31.529,0,0,1-.408,4.353A16.391,16.391,0,0,1,244.807,158.99Z" transform="translate(-244.807 -124.093)" fill="#231f20"/>
              </g>
            </g>
            <g id="Grupo_7478-2" data-name="Grupo 7478" transform="translate(116.652 12.079)">
              <g id="Grupo_7477-2" data-name="Grupo 7477">
                <path id="Trazado_11467-2" data-name="Trazado 11467" d="M341.871,156.535a20.165,20.165,0,0,1-2.325-8.608,60.4,60.4,0,0,1,.1-8.8c.235-2.931.69-5.842,1.031-8.748.176-1.454.312-2.91.362-4.367a23.394,23.394,0,0,0-.164-4.373,27.28,27.28,0,0,1,.492,8.775c-.194,2.931-.661,5.837-.819,8.75a71.944,71.944,0,0,0-.3,8.741,31.345,31.345,0,0,0,.409,4.355A16.379,16.379,0,0,0,341.871,156.535Z" transform="translate(-339.42 -121.639)" fill="#231f20"/>
              </g>
            </g>
            <g id="Grupo_7480-2" data-name="Grupo 7480" transform="translate(73.273)">
              <g id="Grupo_7479-2" data-name="Grupo 7479">
                <path id="Trazado_11468-2" data-name="Trazado 11468" d="M305.26,178.187a77.858,77.858,0,0,0,1.93-16.456,147.554,147.554,0,0,0-.748-16.627c-.507-5.535-1.281-11.045-1.806-16.589a81.814,81.814,0,0,1,.057-16.673,81.66,81.66,0,0,0,.195,16.648c.6,5.525,1.473,11.024,2.047,16.563a148.152,148.152,0,0,1,.965,16.688C307.863,167.319,305.26,178.187,305.26,178.187Z" transform="translate(-304.237 -111.842)" fill="#231f20"/>
              </g>
            </g>
          </g>
          <path id="Trazado_11469-2" data-name="Trazado 11469" d="M362.712,140.491c.964-.594,1.2-6.341,1.2-6.341a267.9,267.9,0,0,1-60.578,6.4c-40.98-.382-58.525-6.4-58.525-6.4s.586,5.742,1.551,6.336c1.666,1.027,13.941,6.57,56.944,6.7C345.054,147.318,361.046,141.518,362.712,140.491Z" transform="translate(-218.301 6.856)" fill="#fff" stroke="#231f20" stroke-miterlimit="10" stroke-width="0.75"/>
        </g>
        <g id="Grupo_7483-2" data-name="Grupo 7483" transform="translate(223.326 81.242)">
          <path id="Trazado_11470-2" data-name="Trazado 11470" d="M259.2,86.538c-3.426,8.076-12.869,7.938-13.43,22.5-.244,6.335,5.658,27.653,8.748,32.994,2.343,4.049,5.8,8.442,6.142,9.666a27.878,27.878,0,0,0-3.4,2.424c-1.594,1.77-2.1,4.284-2.778,6.49-2.37,7.692-3.09,15.964-7.167,23.05-.7,1.224-1.778,3.14-.914,4.535a18.616,18.616,0,0,0,6.58,5.819c2.807,1.685,14.579,7.585,14.579,7.585.3,1.6-21.156-2.315-21.156-2.315-3.641,45.334,32.821,45.646,33.549,48.082.488,1.634-30.638-.531-33.528.983a6.171,6.171,0,0,0-2.733,2.42c-.806,1.5-2.063,14.3-.806,17.78,5.477,15.155,33.417,16.265,32.433,16.477a70.585,70.585,0,0,1-34.868-1.741c-13.3,27.471,7.8,40.313,7.8,40.313-2.084-.239-21.358-6.572-24.93-8.163,5.437-54.952,16.8-152.273,28.039-159.932l-13.6-74.536s13.882-.041,20.055-11.307C257.814,69.664,259.088,83.573,259.2,86.538Z" transform="translate(-223.323 -69.623)" fill="#f3f4f5" style="mix-blend-mode: multiply;isolation: isolate"/>
          <path id="Trazado_11471-2" data-name="Trazado 11471" d="M304.846,144.547c-3.656-5.18-9.258-7.214-14.066-11.66-4.3-3.972-9.909-15.266-15.81-16.193a24.117,24.117,0,0,0,4.161,12.5c1.831,6.722,5.654,10.7,10.777,15.239Z" transform="translate(-211.293 -58.669)" fill="#f3f4f5" style="mix-blend-mode: multiply;isolation: isolate"/>
          <path id="Trazado_11472-2" data-name="Trazado 11472" d="M293.347,144.728c3.673,3.416,8,7.882,10.152,12.482,2.112,4.521,2.169,11.1,6.791,14.018,3.919-2.251-5.21-22.963-6.353-26.5Z" transform="translate(-207.012 -52.139)" fill="#f3f4f5" style="mix-blend-mode: multiply;isolation: isolate"/>
          <path id="Trazado_11473-2" data-name="Trazado 11473" d="M324.468,125.973c-4.94-8.071-15.482-9.516-21.713-16.675-1.238-1.422-3.6-6.563-5.36-3.015-1.071,2.156,3.013,7.314,4.207,8.992,2.36,6.95,10.436,8.738,15.9,12.322,5.817,3.813,8.162,10.378,13.454,14.636C330.724,136.334,327.551,131.009,324.468,125.973Z" transform="translate(-206.111 -61.379)" fill="#f3f4f5" style="mix-blend-mode: multiply;isolation: isolate"/>
          <path id="Trazado_11474-2" data-name="Trazado 11474" d="M253.162,97.627c-1.98-4.5-6.475-2.711-9.7-5.972-2.911-2.944-3.251-8.594-7.807-9.881.07,4.473,3.119,9.68,3.119,9.68.078,6.628,6.87,6.125,10.932,8.86,4.2,2.83,5.977,8.332,10.809,10.429C261.8,105.28,255.048,101.914,253.162,97.627Z" transform="translate(-220.451 -66.803)" fill="#f3f4f5" style="mix-blend-mode: multiply;isolation: isolate"/>
          <path id="Trazado_11475-2" data-name="Trazado 11475" d="M297.719,209.656c-1.7-3.865-4.187-2.418-7.354-4.067-2.294-1.2-3.811-4.207-5.073-6.285-2.463-4.056-5.484-13.579-10.577-15.02.07,4.474,3.118,9.68,3.118,9.68.039,3.331,2.352,7.214,3.827,10.105,2.419,4.738,3.573,5.537,7.814,7.835,7.928,4.294,10.857,15.636,18.933,19.141C310.132,223.693,300.519,216.02,297.719,209.656Z" transform="translate(-211.353 -42.925)" fill="#f3f4f5" style="mix-blend-mode: multiply;isolation: isolate"/>
          <path id="Trazado_11476-2" data-name="Trazado 11476" d="M335.07,86.843c4.72,8.073,13.813,7.64,14.373,22.205.244,6.335-5.658,27.653-8.748,32.994-2.343,4.049-6.586,8.827-6.929,10.05.042-.149,5.477,4.929,6.155,7.135,2.368,7.691,3.9,17.36,7.978,24.445.705,1.224,1.778,3.14.915,4.535a18.637,18.637,0,0,1-6.58,5.819c-2.807,1.685-14.579,7.585-14.579,7.585-.3,1.6,21.156-2.315,21.156-2.315,3.641,45.334-32.821,45.646-33.549,48.082-.488,1.634,30.638-.531,33.528.983a6.17,6.17,0,0,1,2.733,2.42c.805,1.5,2.063,14.3.806,17.78-5.477,15.155-33.417,16.265-32.435,16.477a70.589,70.589,0,0,0,34.87-1.741c13.3,27.471-7.8,40.313-7.8,40.313,2.084-.239,21.358-6.572,24.929-8.163-5.436-54.952-18.154-154.63-25.285-159.753l9.844-74.718s-15.1-1.445-20.364-11.344C336.086,69.631,336.583,84.8,335.07,86.843Z" transform="translate(-201.909 -69.631)" fill="#f3f4f5" style="mix-blend-mode: multiply;isolation: isolate"/>
        </g>
      </g>
      <path id="Trazado_13309" data-name="Trazado 13309" d="M-41.191-7.559h1a3.317,3.317,0,0,0,2.09-.552,1.931,1.931,0,0,0,.693-1.606,1.98,1.98,0,0,0-.581-1.572,2.723,2.723,0,0,0-1.821-.508h-1.377Zm6.836-2.266A4.364,4.364,0,0,1-35.8-6.3a6.161,6.161,0,0,1-4.1,1.221h-1.3V0h-3.027V-14.277h4.561a6.066,6.066,0,0,1,3.95,1.118A4.077,4.077,0,0,1-34.355-9.824Zm4.834,4.346a4.582,4.582,0,0,0,.532,2.451,1.9,1.9,0,0,0,1.733.83,1.873,1.873,0,0,0,1.714-.825,4.648,4.648,0,0,0,.522-2.456,4.51,4.51,0,0,0-.527-2.432,1.907,1.907,0,0,0-1.729-.811,1.9,1.9,0,0,0-1.719.806A4.506,4.506,0,0,0-29.521-5.479Zm7.549,0a5.867,5.867,0,0,1-1.406,4.17A5.1,5.1,0,0,1-27.295.2a5.478,5.478,0,0,1-2.773-.688,4.581,4.581,0,0,1-1.846-1.978,6.645,6.645,0,0,1-.645-3.008,5.835,5.835,0,0,1,1.4-4.16,5.128,5.128,0,0,1,3.926-1.484,5.509,5.509,0,0,1,2.773.684,4.563,4.563,0,0,1,1.846,1.963A6.584,6.584,0,0,1-21.973-5.479Zm10.078,2.236A3.006,3.006,0,0,1-13.062-.684,5.766,5.766,0,0,1-16.553.2,10.965,10.965,0,0,1-18.584.034a7.683,7.683,0,0,1-1.572-.474V-2.9a10.383,10.383,0,0,0,1.87.654,7.572,7.572,0,0,0,1.831.264q1.621,0,1.621-.937a.782.782,0,0,0-.215-.571,3.115,3.115,0,0,0-.742-.5q-.527-.278-1.406-.649a8.834,8.834,0,0,1-1.851-.977,2.749,2.749,0,0,1-.859-1.03,3.4,3.4,0,0,1-.269-1.431,2.594,2.594,0,0,1,1.128-2.251,5.494,5.494,0,0,1,3.2-.8,9.078,9.078,0,0,1,3.838.859l-.9,2.148q-.82-.352-1.533-.576A4.815,4.815,0,0,0-15.9-8.916q-1.318,0-1.318.713a.838.838,0,0,0,.425.693,11.553,11.553,0,0,0,1.86.869,8.643,8.643,0,0,1,1.875.967,2.859,2.859,0,0,1,.879,1.035A3.181,3.181,0,0,1-11.895-3.242Zm6.924,1.064A6.457,6.457,0,0,0-3.1-2.52V-.3A6.685,6.685,0,0,1-5.83.2a3.347,3.347,0,0,1-2.6-.9,3.932,3.932,0,0,1-.815-2.71V-8.682h-1.426v-1.26l1.641-1,.859-2.3h1.9v2.324h3.057v2.236H-6.27v5.264a1.163,1.163,0,0,0,.356.938A1.406,1.406,0,0,0-4.971-2.178ZM3.633-9a1.889,1.889,0,0,0-1.484.6,2.78,2.78,0,0,0-.615,1.7h4.18a2.483,2.483,0,0,0-.576-1.7A1.951,1.951,0,0,0,3.633-9ZM4.053.2A5.635,5.635,0,0,1-.068-1.26,5.509,5.509,0,0,1-1.553-5.381,6.06,6.06,0,0,1-.181-9.624a4.886,4.886,0,0,1,3.794-1.5A4.809,4.809,0,0,1,7.217-9.8,4.988,4.988,0,0,1,8.506-6.162v1.445H1.465a2.867,2.867,0,0,0,.752,1.982,2.646,2.646,0,0,0,1.973.713,8.189,8.189,0,0,0,1.865-.205,9.333,9.333,0,0,0,1.836-.654v2.3A6.994,6.994,0,0,1,6.221,0,10.529,10.529,0,0,1,4.053.2ZM17.021-11.123a4.8,4.8,0,0,1,1.006.088L17.8-8.242a3.412,3.412,0,0,0-.879-.1,3.159,3.159,0,0,0-2.222.732,2.648,2.648,0,0,0-.8,2.051V0H10.928V-10.918h2.256l.439,1.836h.146a4.1,4.1,0,0,1,1.372-1.479A3.383,3.383,0,0,1,17.021-11.123Zm2.861-2.617q0-1.455,1.621-1.455t1.621,1.455a1.419,1.419,0,0,1-.405,1.079,1.7,1.7,0,0,1-1.216.386Q19.883-12.275,19.883-13.74ZM22.988,0H20.01V-10.918h2.979Zm5.5-5.479a4.582,4.582,0,0,0,.532,2.451,1.9,1.9,0,0,0,1.733.83,1.873,1.873,0,0,0,1.714-.825,4.648,4.648,0,0,0,.522-2.456,4.51,4.51,0,0,0-.527-2.432,1.907,1.907,0,0,0-1.729-.811,1.9,1.9,0,0,0-1.719.806A4.506,4.506,0,0,0,28.486-5.479Zm7.549,0a5.867,5.867,0,0,1-1.406,4.17A5.1,5.1,0,0,1,30.713.2a5.478,5.478,0,0,1-2.773-.688,4.581,4.581,0,0,1-1.846-1.978,6.645,6.645,0,0,1-.645-3.008,5.835,5.835,0,0,1,1.4-4.16,5.128,5.128,0,0,1,3.926-1.484,5.509,5.509,0,0,1,2.773.684,4.563,4.563,0,0,1,1.846,1.963A6.584,6.584,0,0,1,36.035-5.479Zm8.555-5.645a4.8,4.8,0,0,1,1.006.088l-.225,2.793a3.412,3.412,0,0,0-.879-.1,3.159,3.159,0,0,0-2.222.732,2.648,2.648,0,0,0-.8,2.051V0H38.5V-10.918h2.256l.439,1.836h.146a4.1,4.1,0,0,1,1.372-1.479A3.383,3.383,0,0,1,44.59-11.123Z" transform="translate(896 5568)" fill="#00223d"/>
      <rect id="Rectángulo_1816" data-name="Rectángulo 1816" width="15" height="294" transform="translate(883 5238)" fill="#f3f7fa"/>
      <path id="Trazado_11479" data-name="Trazado 11479" d="M426,3963.3v269.9" transform="translate(457 1296)" fill="none" stroke="#707070" stroke-width="1"/>
      <path id="Trazado_11480" data-name="Trazado 11480" d="M441,3960.526v272.189" transform="translate(457 1297.668)" fill="none" stroke="#707070" stroke-width="1"/>
    </g>
  </g>
</svg>
