<svg xmlns="http://www.w3.org/2000/svg" width="732.793" height="455.198" viewBox="0 0 732.793 455.198">
  <g id="Grupo_7402" data-name="Grupo 7402" transform="translate(-182 -1142)">
    <path id="Trazado_11142" data-name="Trazado 11142" d="M0,0H732.793V2.3H0Z" transform="translate(182 1594.895)" fill="#00a99a"/>
    <path id="Trazado_11109" data-name="Trazado 11109" d="M142.9,349.791c1.534-15.054,2.044-22.2-1.291-28.36v-.005c.049-6.41-2.969-25.563-4.726-33.153-1.285-5.556-1.5-9.505-2.549-12.085-2.565-6.276-8.175-6.387-13.276-7.075l-.281-.1-.2-.07-.477-.166-.411-.139-.36-.122c-.277-.092-.562-.187-.861-.284-.5-.163-1.02-.314-1.541-.458l-.114-.03c-.442-.121-.887-.238-1.331-.353l-.155-.041h0c-3.065-.795-6.018-1.547-7.27-3.407a8.7,8.7,0,0,1-1.521-3.225h0a16.547,16.547,0,0,1-.258-2.558,20.145,20.145,0,0,0,4.19-5.728,14.658,14.658,0,0,0,3.3-2.986,20.632,20.632,0,0,0,3.459-6.509c.668-1.971-.122-2.815.847-4.682a7.3,7.3,0,0,0,.878-4.4c-.23-1.482.544-2.652.68-4.017.136-1.383-.517-2.7-.757-4.029-.255-1.411.148-2.665-.332-4.039-.362-1.04-1.471-1.858-2.045-2.749-.716-1.112-.947-2.018-1.754-3.089-.889-1.181-2.039-1.377-3.247-2.065-1.681-.96-2.373-1.953-4.247-2.361a38.685,38.685,0,0,0-9.525-1.184,28.89,28.89,0,0,0-4.587.269l-.1.012c-1.607.219-3.187.542-4.843.9-1.875.408-2.566,1.4-4.248,2.361-1.207.688-2.357.884-3.246,2.065-.807,1.071-1.038,1.977-1.756,3.089-.572.891-1.679,1.709-2.043,2.749-.479,1.374-.077,2.628-.332,4.039-.24,1.327-.892,2.646-.756,4.029.133,1.365.909,2.535.679,4.017a7.3,7.3,0,0,0,.878,4.4c.968,1.867.18,2.711.846,4.682a20.655,20.655,0,0,0,3.46,6.509,14.882,14.882,0,0,0,2.47,2.4,20.3,20.3,0,0,0,4.994,6.8c-.015.274-.032.53-.053.769v.017a10.845,10.845,0,0,1-.173,1.25h0a8.657,8.657,0,0,1-1.527,3.26c-1.473,2.187-5.294,2.842-8.888,3.835h0c-.514.142-1.022.291-1.519.452-.314.1-.612.2-.9.3l-.169.057c-.217.073-.429.145-.633.216l-.342.119-.34.119c-.231.081-.453.161-.668.238a1.162,1.162,0,0,1-.035-.167c-5.1.688-10.713.8-13.278,7.075-1.052,2.58-1.263,6.529-2.549,12.085-1.756,7.59-4.775,26.743-4.726,33.153v.005c-3.335,6.16-2.825,13.306-1.291,28.36.155,1.506-.053,2.949.1,4.174-1.295,3.543-.466,7.432.883,10.678,3.261,7.851,9.506,11.33,10.8,10.14s-.633-2.7-2.1-5.465c-2.309-4.367-1.592-6.193-1.777-8.068,1.011,1.435,1.626.8,3.3,4.988.693,1.737,2.308,1.231,2.282,1.075-.234-1.628-.687-3.409-1.092-5.254-1.47-6.7-3.737-6.464-4.687-8.618a9.272,9.272,0,0,1,.14-2.216c1.212-6.965,5.044-15.766,5.337-26.537a28.688,28.688,0,0,0-.044-3.5c3-7.36,4.484-21.472,6.5-29.114.055.279.217,1.544.45,3.482.011.093.023.194.035.291.023.2.048.4.073.612.012.1.025.213.038.32l.09.764c.008.069.016.138.025.208.033.283.067.577.1.876.017.147.034.3.052.448.032.273.064.55.1.833.016.141.032.286.049.43.035.3.07.606.106.919.007.067.015.135.023.2.042.365.084.738.127,1.116.008.067.015.132.023.2.1.871.2,1.771.3,2.692l.039.349c.035.312.07.625.106.941.018.165.037.329.055.495.038.34.076.682.114,1.024.014.124.027.246.041.371.047.424.094.851.141,1.278l.072.658c.03.267.059.533.088.8l.054.5q.051.454.1.909c.021.192.041.385.062.577.1.89.191,1.775.285,2.649.022.208.044.414.066.621.024.232.049.464.073.7.022.2.043.4.065.607q.046.451.093.895c.015.138.029.277.043.414q.066.626.128,1.234c.015.138.028.271.042.407.029.278.057.555.085.828.018.173.035.342.052.51q.035.347.068.684c.018.176.035.351.052.523.026.259.051.513.076.764.01.107.021.217.031.321.034.352.068.693.1,1.025.011.123.023.24.034.36.021.222.042.441.061.651.011.118.021.232.032.346q.028.316.055.616c.009.1.019.2.027.3.025.281.048.554.069.808a4.087,4.087,0,0,1,.006.452c0,.056-.007.122-.011.183-.007.125-.014.252-.028.394-.007.078-.017.163-.025.245-.016.143-.033.288-.053.445-.011.089-.024.181-.037.275-.024.167-.049.339-.076.518-.014.09-.028.181-.044.275q-.048.3-.1.616c-.013.078-.026.155-.04.234-.046.264-.1.535-.145.811l-.013.068c-.325,1.766-.718,3.691-1,5.251l-.014.08c-.039.219-.076.431-.11.633-.008.047-.015.091-.022.137-.031.187-.06.369-.085.537-.007.044-.011.083-.017.125-.024.165-.046.326-.062.469v0h0c0,.044-.007.079-.011.121s-.01.1-.014.148c-.008.089-.015.177-.019.253v0l0,.01c-.344,2.117-.41,4.715-.642,8.316a.526.526,0,0,0,.008.141c-.085.88-.16,1.728-.23,2.565-.02.233-.039.466-.059.7-.063.785-.123,1.556-.174,2.307-.015.218-.028.429-.042.644q-.052.814-.1,1.6c-.017.306-.034.614-.049.914-.03.625-.056,1.244-.078,1.851-.011.336-.019.668-.028,1-.009.359-.017.718-.023,1.072s-.013.684-.016,1.021v.007h0c-.072,8.715.9,16.319,2.945,28.283.967,5.638,4.3,15.66,3.789,20.07s-1.584,9.17-1.475,16.1c.164,10.463,5.428,19.277,5.62,36.883.009.976-1.923,4.828-2.173,6.625-.451,3.232-2.584,5.062-2.991,6.963-.622,2.91,7.423,3.812,9.6,3.953,1.792.117,6.321,1.554,6.431-2.207.04-1.311-1.5-4.776-1.861-8.446-.374-3.777-.64-5.783-.753-7.65-.5-7.977,4.295-21.709,4.833-33.617.417-9.256-1.477-13.545-1.824-18.432-.285-4.018,1.421-6.888,1.116-13.719-.088-2-.505-4.14-.132-6.289,1.462-8.448,1.515-18.835,1.974-27.608h0c.06-1.148.127-2.272.205-3.359v-.022l.068,0,.067,0v.022c.079,1.087.145,2.211.205,3.359h0c.459,8.773.512,19.16,1.975,27.608.372,2.149-.044,4.287-.133,6.289-.305,6.831,1.4,9.7,1.116,13.719-.347,4.887-2.241,9.176-1.823,18.432.537,11.908,5.327,25.64,4.832,33.617-.112,1.867-.379,3.873-.753,7.65-.365,3.67-1.9,7.135-1.86,8.446.109,3.761,4.638,2.324,6.43,2.207,2.177-.141,10.222-1.043,9.6-3.953-.407-1.9-2.539-3.731-2.99-6.963-.25-1.8-2.183-5.649-2.173-6.625.191-17.606,5.456-26.42,5.619-36.883.109-6.926-.97-11.686-1.475-16.1s2.823-14.432,3.789-20.07c2.135-12.459,3.093-20.194,2.928-29.377,0-.312-.012-.625-.021-.941-.009-.364-.018-.727-.031-1.1q-.03-.882-.075-1.787c-.015-.325-.034-.658-.052-.989-.027-.491-.057-.991-.09-1.5-.016-.244-.03-.483-.047-.73-.051-.741-.11-1.505-.173-2.279q-.029-.352-.059-.71c-.071-.833-.145-1.681-.229-2.56a.57.57,0,0,0,.008-.141c-.233-3.6-.3-6.2-.643-8.316l0-.01v0c0-.077-.011-.165-.019-.255,0-.047-.008-.093-.013-.143s-.007-.079-.012-.124h0v0c-.016-.143-.038-.3-.062-.469,0-.042-.01-.081-.017-.125-.025-.168-.054-.35-.085-.537-.007-.046-.014-.09-.022-.137-.034-.2-.071-.414-.11-.633l-.014-.081c-.281-1.559-.674-3.484-1-5.25l-.013-.068c-.05-.276-.1-.547-.145-.811-.014-.079-.027-.156-.04-.234q-.054-.315-.1-.614c-.016-.1-.03-.189-.044-.281q-.041-.264-.075-.511c-.013-.1-.026-.188-.038-.279-.02-.156-.037-.3-.052-.444-.009-.082-.019-.167-.026-.245-.013-.142-.021-.269-.028-.394,0-.061-.009-.127-.011-.183a4.085,4.085,0,0,1,.006-.452c.022-.259.046-.536.071-.824.007-.086.016-.177.023-.265.019-.214.039-.433.06-.66.009-.1.018-.2.027-.3.023-.244.046-.5.071-.752.008-.089.016-.175.025-.265.066-.7.138-1.439.216-2.218.011-.112.022-.226.034-.338.028-.287.058-.578.087-.874.014-.139.029-.278.043-.418.028-.278.057-.561.086-.846.014-.14.029-.277.043-.418q.063-.613.129-1.244c.017-.166.035-.335.052-.5.026-.245.052-.49.078-.737.028-.267.056-.537.085-.806l.048-.458c.032-.3.064-.6.1-.9.009-.089.019-.179.028-.268.805-7.522,1.746-15.806,2.284-20.262h0c.091-.756.171-1.409.237-1.922,1.861,7.854,3.342,20.867,6.183,27.831a28.733,28.733,0,0,0-.045,3.5c.293,10.771,4.125,19.572,5.337,26.537a9.335,9.335,0,0,1,.141,2.216c-.951,2.154-3.218,1.92-4.688,8.618-.4,1.845-.857,3.626-1.092,5.254-.026.156,1.589.662,2.283-1.075,1.676-4.191,2.292-3.553,3.3-4.988-.184,1.875.533,3.7-1.777,8.068-1.462,2.764-3.39,4.274-2.1,5.465s7.538-2.289,10.8-10.14c1.35-3.246,2.178-7.135.883-10.678C142.954,352.74,142.746,351.3,142.9,349.791Z" transform="translate(310.144 1114.347)" fill="#fed97b"/>
    <path id="Trazado_11111" data-name="Trazado 11111" d="M413.1,282.2c1.949-22.732,2.6-33.523-1.639-42.827v-.007c.062-9.682-3.772-38.6-6-50.066-1.633-8.389-.694-12.863-3.238-18.25-4.111-8.705-9.885-10.1-16.122-11.118-.41-.157-.843-.319-1.292-.484-.361-.133-.735-.27-1.126-.409-.209-.076-.423-.146-.635-.218h0c-1.459-.493-2.976-.916-4.458-1.342l-.361-.105h0c-3.762-1.091-7.232-2.261-8.786-4.808a12.972,12.972,0,0,1-2.309-6.606c1.386-.859,2.233-1.864,3.813-5.385a19.2,19.2,0,0,0,1.124-3.312c.128-.159.262-.315.384-.478a24.167,24.167,0,0,0,3.608-7.381c.7-2.234-.127-3.191.882-5.309a8.881,8.881,0,0,0,.916-4.991c-.24-1.681.568-3.009.708-4.556.142-1.568-.538-3.063-.789-4.568-.265-1.6.155-3.022-.345-4.579-.378-1.18-1.534-2.109-2.132-3.118-.747-1.261-.989-2.288-1.829-3.5-.928-1.338-2.126-1.561-3.386-2.341-1.753-1.088-2.475-2.214-4.429-2.677a37.451,37.451,0,0,0-19.864,0c-1.954.463-2.676,1.589-4.429,2.677-1.259.78-2.458,1-3.385,2.341-.841,1.216-1.082,2.243-1.83,3.5-.6,1.009-1.752,1.938-2.13,3.118-.5,1.557-.081,2.978-.346,4.579-.251,1.5-.932,3-.789,4.568.139,1.547.947,2.875.708,4.556a8.881,8.881,0,0,0,.916,4.991c1.009,2.118.187,3.075.882,5.309A24.166,24.166,0,0,0,339,136.779c.123.164.257.32.386.48a19.264,19.264,0,0,0,1.123,3.31c1.58,3.521,2.427,4.526,3.813,5.385a12.972,12.972,0,0,1-2.309,6.606c-1.558,2.553-5.041,3.723-8.814,4.816l-.276.081c-1.5.431-3.034.858-4.51,1.357h0c-.216.072-.431.144-.644.22-.4.142-.778.281-1.144.416-.285.1-.553.206-.821.307l-.172.064h0l-.281.106c-6.237,1.022-12.011,2.413-16.121,11.118-2.544,5.387-1.606,9.861-3.239,18.25-2.23,11.463-6.064,40.384-6,50.066v.007c-4.237,9.3-3.589,20.1-1.64,42.827.2,2.276-.068,4.453.128,6.3-1.645,5.35-.594,11.223,1.12,16.125,4.141,11.855,12.075,17.109,13.717,15.313s-.8-4.081-2.66-8.253c-2.933-6.6-2.024-9.353-2.258-12.185,1.284,2.168,2.064,1.2,4.2,7.533.879,2.621,2.93,1.86,2.9,1.621-.3-2.457-.871-5.146-1.384-7.931-1.867-10.1-4.746-9.755-5.954-12.995a16.736,16.736,0,0,1,.177-3.369c1.54-10.515,6.407-23.806,6.779-40.074a52.038,52.038,0,0,0-.057-5.277c3.272-9.536,5.123-26.576,7.2-38.517.17,1,.367,2.06.583,3.145.005.028.011.055.017.083.172.863.357,1.739.555,2.621.013.056.026.112.038.169.2.867.4,1.734.623,2.588.012.049.026.1.039.146.224.87.459,1.728.706,2.552s.464,1.666.667,2.521c.049.208.09.421.137.631.151.677.3,1.359.422,2.051.033.182.063.367.1.55.133.762.256,1.528.364,2.3.013.1.026.2.04.3q.18,1.333.318,2.681c0,.02,0,.041.006.061.8,7.972.521,16.053.484,21.605,0,.3,0,.6,0,.886,0,.178,0,.355,0,.526,0,.462,0,.909.014,1.321.137,6.509-.817,6.6-1.817,10.153-.135.479-.264.944-.388,1.4l-.036.133q-.17.624-.329,1.225l-.014.056c-.215.817-.414,1.611-.6,2.4h0l0,.008-.01.044q-.154.664-.3,1.331l-.024.108h0c-.014.064-.026.13-.039.193-.078.377-.154.759-.227,1.143-.021.116-.044.232-.065.349q-.1.57-.2,1.159c-.016.094-.033.181-.048.275v.011l-.006.04c-.037.232-.072.474-.108.713l0,.026h0c-.043.291-.087.582-.128.884l0,.014v.006l-.012.093,0,.014c-.01.072-.018.148-.028.221-.065.489-.127,1-.187,1.519-.023.2-.047.4-.07.607,0,.034-.007.067-.011.1l-.007.069c-.03.283-.059.582-.088.877-.01.1-.021.2-.031.306-.008.067-.012.133-.019.2l-.012.134c-.025.266-.049.541-.073.817-.012.131-.024.256-.035.391,0,.039-.007.08-.011.121-.011.134-.022.278-.033.413-.016.2-.033.411-.049.62-.012.156-.025.3-.037.463v.008c-.014.185-.028.386-.041.576-.021.3-.043.6-.064.9,0,.033-.005.062-.007.1-.006.074-.009.15-.015.226-.016.232-.031.482-.046.722-.02.313-.04.622-.06.947-.005.067-.008.136-.012.2-.035.588-.07,1.19-.1,1.818a.974.974,0,0,0,.01.214c-.07.862-.136,1.7-.2,2.535-.022.282-.043.557-.065.835-.042.541-.083,1.08-.123,1.61-.024.326-.049.651-.073.973q-.056.753-.108,1.493c-.022.3-.044.6-.065.9-.045.635-.088,1.26-.129,1.88l-.029.417c-.049.745-.1,1.477-.139,2.2-.013.215-.025.428-.038.642-.031.537-.062,1.072-.091,1.6-.012.224-.024.446-.035.669q-.042.8-.079,1.587c-.009.191-.019.385-.027.576q-.048,1.049-.087,2.082v.009h0c-.5,13.351.15,24.8,2.794,43.14,1.226,8.515,6.684,23.865,6.039,30.527s-2.012,13.846-1.873,24.3c.207,15.8,6.894,29.111,7.136,55.7.014,1.476-2.44,7.291-2.759,10-.573,4.881-3.283,7.646-3.8,10.515-.789,4.393,9.428,5.756,12.192,5.969,2.276.178,8.029,2.35,8.167-3.332.051-1.98-1.9-7.211-2.362-12.752-.475-5.707-.813-8.734-.958-11.555-.628-12.046,5.458-32.785,6.14-50.767.53-13.977-1.875-20.455-2.316-27.834-.363-6.067,1.8-10.4,1.418-20.717-.113-3.021-.643-6.252-.17-9.5,2.131-14.639,2.881-33.3,2.807-47.379l.018.007a6.432,6.432,0,0,0,1.807.542v0h.022a5.255,5.255,0,0,0,1.489,0h.022v0a6.039,6.039,0,0,0,.859-.189l.154-.049a6.815,6.815,0,0,0,.794-.3l.018-.007c-.074,14.08.676,32.74,2.808,47.379.472,3.244-.057,6.475-.17,9.5-.387,10.315,1.78,14.65,1.418,20.717-.441,7.379-2.847,13.857-2.316,27.834.681,17.982,6.767,38.721,6.138,50.767-.144,2.821-.482,5.848-.957,11.555-.464,5.541-2.414,10.772-2.362,12.752.138,5.682,5.892,3.51,8.167,3.332,2.765-.213,12.982-1.576,12.192-5.969-.515-2.869-3.224-5.634-3.8-10.515-.318-2.713-2.773-8.528-2.759-10,.242-26.588,6.929-39.9,7.136-55.7.139-10.459-1.231-17.647-1.874-24.3s4.814-22.012,6.041-30.527c2.786-19.332,3.352-31.009,2.7-45.325l-.015-.31q-.042-.926-.092-1.866c-.009-.159-.017-.321-.026-.481-.032-.6-.068-1.215-.1-1.831-.009-.146-.017-.292-.026-.439-.046-.752-.093-1.511-.144-2.283-.006-.085-.012-.17-.017-.254q-.066-.993-.138-2.009c-.023-.324-.047-.654-.07-.983-.032-.443-.065-.889-.1-1.341q-.042-.57-.086-1.15-.049-.641-.1-1.292c-.03-.387-.06-.771-.09-1.164-.063-.8-.127-1.6-.193-2.427a.956.956,0,0,0,.01-.213c-.037-.686-.075-1.345-.113-1.983v-.015l-.009-.136c-.014-.224-.027-.435-.041-.653-.021-.328-.041-.664-.062-.978v-.005c-.006-.1-.013-.184-.02-.278-.019-.282-.038-.551-.058-.823-.014-.205-.029-.423-.044-.623v0c-.01-.136-.021-.264-.031-.4-.022-.276-.043-.546-.065-.813-.01-.124-.019-.25-.03-.368-.013-.16-.027-.308-.041-.465-.022-.252-.044-.5-.067-.747-.007-.079-.014-.165-.021-.243v-.01c-.02-.2-.039-.384-.059-.579-.024-.245-.049-.493-.074-.729,0-.032-.007-.067-.01-.1v0l-.013-.1c-.011-.109-.024-.211-.036-.318q-.092-.822-.191-1.587c-.015-.117-.03-.236-.045-.35l0-.022c-.006-.047-.012-.1-.019-.142l0-.014c-.041-.3-.085-.593-.128-.884h0l0-.026c-.034-.229-.067-.46-.1-.682,0-.022-.006-.047-.01-.068l0-.014c-.015-.094-.032-.181-.047-.275q-.1-.59-.2-1.159c-.021-.117-.044-.233-.065-.349q-.105-.553-.218-1.1c-.015-.072-.028-.146-.043-.217l-.005-.021-.024-.108q-.146-.684-.3-1.368l0-.011v0c-.184-.788-.384-1.582-.6-2.4l-.014-.056q-.159-.6-.329-1.225l-.036-.133c-.124-.454-.253-.919-.388-1.4-1-3.558-1.954-3.644-1.816-10.153.009-.443.013-.922.014-1.42,0-.132,0-.272,0-.407q0-.627-.006-1.3c0-.061,0-.123,0-.184-.023-2.659-.089-5.835-.069-9.281v-.123c0-.47.009-.955.014-1.434.1-6.915.621-14.68,2.592-21.28a100.918,100.918,0,0,0,2.56-11.3c2.079,11.941,3.93,28.981,7.2,38.517a51.688,51.688,0,0,0-.056,5.277c.371,16.268,5.238,29.559,6.778,40.074a16.663,16.663,0,0,1,.177,3.369c-1.207,3.24-4.087,2.892-5.953,12.995-.514,2.785-1.089,5.474-1.385,7.931-.033.239,2.017,1,2.9-1.621,2.132-6.328,2.912-5.365,4.2-7.533-.235,2.832.674,5.59-2.259,12.185-1.856,4.172-4.305,6.452-2.66,8.253s9.576-3.458,13.717-15.313c1.714-4.9,2.765-10.775,1.121-16.125C413.172,286.648,412.909,284.471,413.1,282.2Z" transform="translate(310.144 1114.347)" fill="#fed97b"/>
    <path id="Trazado_11113" data-name="Trazado 11113" d="M760.2,245.252c2.544-26.812,3.39-39.539-2.14-50.512v-.007c.082-11.419.082-31.237-3.3-41.77-3.108-9.682-3.827-13.694-3.755-20.97a46.357,46.357,0,0,0-2.675-17.247c-3.678-11.579-16.978-13.528-24.2-13.82h0l-.061-.02h0l-.06-.021-.035-.012c-.828-.282-1.7-.572-2.642-.878-1.122-.363-2.28-.689-3.444-1l-.008,0c-.142-.037-.282-.076-.424-.114h0c-.707-.187-1.415-.37-2.119-.552l-.145-.038q-.5-.129-1-.26c-4.905-1.285-9.428-2.666-11.454-5.668-2.478-3.673-2.912-5.382-3.138-9.5h0c-.005-.094-.01-.194-.015-.291-.009-.159-.017-.316-.025-.483-.006-.141-.013-.288-.019-.434-.005-.094-.009-.192-.013-.288A10.932,10.932,0,0,0,701,78.009c.26-.954.5-1.926.725-2.905.3-.343.6-.694.877-1.057a25.136,25.136,0,0,0,3.831-7.716c.739-2.337-.135-3.337.937-5.551a9.159,9.159,0,0,0,.973-5.22c-.255-1.756.6-3.144.753-4.762.15-1.639-.573-3.2-.839-4.776-.282-1.673.164-3.159-.367-4.788-.4-1.233-1.628-2.2-2.264-3.259-.794-1.319-1.05-2.392-1.942-3.663-.986-1.4-2.259-1.632-3.6-2.448-1.861-1.137-2.628-2.315-4.7-2.8a40.388,40.388,0,0,0-21.1,0c-2.075.484-2.842,1.662-4.7,2.8-1.338.816-2.611,1.048-3.6,2.448-.893,1.271-1.148,2.344-1.943,3.663-.636,1.055-1.861,2.026-2.264,3.259-.531,1.629-.085,3.115-.367,4.788-.267,1.574-.989,3.137-.838,4.776.149,1.618,1.006,3.006.752,4.762a9.167,9.167,0,0,0,.973,5.22c1.072,2.214.2,3.214.937,5.551a25.133,25.133,0,0,0,3.83,7.716c.278.363.573.715.878,1.058.227.979.464,1.951.724,2.9a10.93,10.93,0,0,0,1.472,3.355l0,.062c-.021.479-.041.93-.065,1.355h0c-.224,4.172-.648,5.882-3.142,9.577-2.026,3-6.549,4.383-11.454,5.668l-1,.26-.144.038c-.7.182-1.412.365-2.119.552h0c-.142.038-.282.077-.424.114l-.008,0c-1.164.313-2.322.639-3.444,1-.946.306-1.815.6-2.642.878l-.035.012-.06.021h0l-.061.02h0c-7.225.292-20.524,2.241-24.2,13.82a46.338,46.338,0,0,0-2.675,17.247c.071,7.276-.647,11.288-3.755,20.97-3.381,10.533-3.381,30.351-3.3,41.77v.007c-5.529,10.973-4.683,23.7-2.139,50.512.255,2.683-.089,5.251.165,7.433-2.146,6.311-.773,13.236,1.463,19.018,5.406,13.982,15.761,20.182,17.908,18.061s-1.053-4.813-3.474-9.731c-3.83-7.781-2.643-11.033-2.949-14.376,1.678,2.56,2.7,1.423,5.478,8.886,1.147,3.094,3.824,2.193,3.781,1.914-.387-2.9-1.136-6.072-1.808-9.355-2.436-11.913-6.193-11.506-7.77-15.325a17.671,17.671,0,0,1,.231-3.975c2.009-12.4,8.362-28.077,8.848-47.262a55.443,55.443,0,0,0-.07-6.169c3.667-9.19,7.493-25.813,9.989-40.433v0h0c.169.724.348,1.454.54,2.182l0,.006h0c.179.682.37,1.363.571,2.035l0,.014c.014.045.027.09.04.135l.007.02c.2.664.412,1.319.636,1.959v.007c.012.034.025.068.037.1h0c.233.663.478,1.308.737,1.928,6.05,14.462,3.755,32.767,3.964,41.678.179,7.677-1.066,7.778-2.37,11.973-.526,1.689-.989,3.228-1.4,4.72l-.011.042-.024.086-.009.032q-.174.636-.338,1.264h0l0,.011c-.007.029-.015.057-.022.086l-.006.021-.023.091-.009.035q-.184.722-.355,1.446l0,.02,0,.009-.008.034,0,.007,0,.008,0,.012v.01c-.1.426-.2.856-.288,1.29l-.009.041c-.007.035-.014.07-.022.106l0,.017c-.024.111-.046.222-.07.334h0q-.109.532-.211,1.077l-.007.032c-.005.029-.011.059-.017.088v.006q-.06.322-.119.653v.006h0l0,.014q-.074.415-.144.841l0,.019c0,.018-.006.037-.01.056h0c-.431,2.615-.779,5.57-1.087,9.28v.007l0,.042c-.05.6-.1,1.222-.146,1.863-.005.073-.01.146-.017.22,0,.036-.005.076-.008.112q-.074,1-.144,2.074v.021l0,.026c-.045.685-.09,1.386-.134,2.119a.984.984,0,0,0,.014.255c-.091,1.012-.177,2-.262,2.982-.028.326-.056.646-.083.968-.057.659-.112,1.313-.166,1.958-.03.356-.06.711-.088,1.062q-.081.975-.156,1.928c-.024.293-.047.591-.07.882q-.219,2.8-.4,5.443c-.012.177-.023.352-.034.528q-.069,1.052-.132,2.084c-.014.24-.028.478-.042.716q-.055.961-.106,1.91c-.011.226-.023.455-.035.68q-.055,1.107-.1,2.2c0,.087-.008.176-.012.263,0,.015,0,.031,0,.045-.645,15.728.2,29.224,3.648,50.836,1.6,10.043,8.727,28.147,7.884,36s-2.626,16.33-2.445,28.666c.27,18.635,9,34.334,9.316,65.691.018,1.741-3.186,8.6-3.6,11.8-.747,5.758-4.284,9.02-4.957,12.4-1.03,5.181,12.307,6.787,15.916,7.041,2.97.207,10.48,2.769,10.661-3.932.066-2.336-2.479-8.5-3.084-15.041-.62-6.728-1.061-10.3-1.25-13.627-.82-14.207,7.124-38.664,8.014-59.873.691-16.484-2.447-24.125-3.024-32.826-.473-7.154,2.356-12.27,1.852-24.434-.149-3.564-.838-7.373-.222-11.2,2.781-17.264,3.76-39.271,3.664-55.879l.01,0a9.125,9.125,0,0,0,2.373.645v0h.028a8.038,8.038,0,0,0,1.944,0h.028v0a8.582,8.582,0,0,0,1.125-.225c.064-.017.128-.036.192-.055a9.477,9.477,0,0,0,1.048-.362l.019-.007q-.009,1.484-.005,3.025,0,1.566.018,3.185v0h0c.152,15.624,1.2,34.479,3.65,49.666.616,3.828-.073,7.637-.222,11.2-.5,12.164,2.325,17.28,1.852,24.434-.577,8.7-3.715,16.342-3.024,32.826.89,21.209,8.834,45.666,8.014,59.873-.19,3.328-.63,6.9-1.25,13.627-.606,6.537-3.15,12.705-3.084,15.041.181,6.7,7.691,4.139,10.661,3.932,3.608-.254,16.946-1.86,15.916-7.041-.673-3.383-4.21-6.645-4.957-12.4-.416-3.2-3.62-10.056-3.6-11.8C712.5,418,721.23,402.3,721.5,383.664c.181-12.336-1.608-20.812-2.445-28.666s6.282-25.959,7.883-36c3.634-22.785,4.375-36.552,3.53-53.42-.008-.156-.017-.314-.025-.471q-.054-1.044-.116-2.105c-.012-.2-.023-.409-.036-.614q-.064-1.083-.138-2.187c-.01-.147-.018-.294-.029-.443q-.179-2.667-.4-5.484c-.021-.269-.043-.544-.065-.814q-.078-.987-.161-1.995c-.028-.342-.057-.688-.086-1.034-.053-.639-.108-1.288-.164-1.941-.029-.339-.058-.674-.087-1.016-.084-.972-.171-1.956-.26-2.962a1,1,0,0,0,.013-.25c-.045-.746-.091-1.461-.137-2.158-.005-.08-.01-.163-.015-.244q-.067-1-.137-1.941c0-.032-.005-.067-.007-.1v-.009c0-.046-.007-.088-.01-.134q-.074-.977-.148-1.89v-.008q-.078-.94-.16-1.818l0-.039v-.012c-.056-.589-.112-1.155-.17-1.706,0-.017,0-.034-.005-.051-.059-.546-.117-1.076-.179-1.59l0-.027v-.005c-.172-1.451-.359-2.781-.565-4.032h0c0-.019-.007-.038-.01-.056l0-.019c-.047-.279-.093-.554-.141-.825l0-.016,0-.015v-.006q-.059-.33-.119-.653V226.9c-.006-.029-.012-.059-.017-.088l-.007-.032q-.1-.544-.212-1.077h0l0-.009c-.022-.109-.044-.217-.067-.325l0-.017c-.008-.036-.015-.071-.022-.106l-.009-.041q-.14-.651-.288-1.29v-.01l0-.012,0-.008,0-.007-.008-.034,0-.009-.005-.02c-.114-.485-.232-.966-.355-1.448l-.008-.033-.023-.091-.005-.017c-.008-.032-.016-.063-.025-.1v-.006h0q-.162-.628-.338-1.264l-.008-.032-.024-.086-.011-.042c-.414-1.492-.876-3.031-1.4-4.72-1.3-4.195-2.55-4.3-2.37-11.973.209-8.911-2.086-27.216,3.964-41.678.259-.62.5-1.265.737-1.928h0c.012-.033.025-.067.036-.1l0-.007c.224-.64.436-1.3.636-1.959l.007-.02c.013-.045.026-.09.04-.135l0-.014c.2-.672.391-1.353.571-2.035h0l0-.006c.191-.728.371-1.458.54-2.182h0v0c2.5,14.62,6.321,31.243,9.989,40.433a55.443,55.443,0,0,0-.07,6.169c.485,19.185,6.839,34.861,8.848,47.262a17.671,17.671,0,0,1,.231,3.975c-1.577,3.819-5.334,3.412-7.77,15.325-.672,3.283-1.421,6.457-1.808,9.355-.043.279,2.634,1.18,3.781-1.914,2.783-7.463,3.8-6.326,5.478-8.886-.306,3.343.881,6.6-2.949,14.376-2.421,4.918-5.62,7.608-3.474,9.731s12.5-4.079,17.908-18.061c2.236-5.782,3.609-12.707,1.463-19.018C760.291,250.5,759.947,247.935,760.2,245.252Z" transform="translate(142.144 1114.347)" fill="#fed97b"/>
    <path id="Trazado_11114" data-name="Trazado 11114" d="M237.1,602.614a44.458,44.458,0,0,0,.623-15.23,38.51,38.51,0,0,0-4.586-13.828c-1.331-2.3-3.385-4.286-4.55-6.66-2.05-4.175-4.693-8.467-9.186-10.274-3.128-1.258-6.493-1.721-9.639-2.944a16.431,16.431,0,0,0,3.379-3.1,15.249,15.249,0,0,0,2.188-3.363,3.072,3.072,0,0,0,1.551-1.58,33.1,33.1,0,0,0,.97-3.5c.143-.45,1.492-1.974,1.769-2.791.339-1,.58-2.991-.15-3.57a2,2,0,0,0-1.713-.323c.325-5.317-.2-11.594-1.341-15.029-1.387-4.161-5.806-9.844-16.093-10.169v-.015q-.235,0-.465,0t-.465,0v.015c-10.287.324-14.706,6.008-16.093,10.169-1.145,3.436-1.665,9.713-1.34,15.029a2,2,0,0,0-1.713.323c-.73.578-.49,2.566-.15,3.57.276.817,1.625,2.341,1.768,2.791a33.108,33.108,0,0,0,.97,3.5,3.074,3.074,0,0,0,1.551,1.58,15.248,15.248,0,0,0,2.188,3.363,16.279,16.279,0,0,0,3.609,3.248c-1.45.492-2.909.959-4.39,1.349a42.946,42.946,0,0,0-5.179,1.485c-4.561,1.835-7.243,6.19-9.325,10.429-1.184,2.409-3.269,4.423-4.619,6.76a39.1,39.1,0,0,0-4.655,14.036,45.119,45.119,0,0,0,.632,15.46c-3.129,2.958-2.077,8.7-1.736,9.292.684,1.186,4.731,2.8,6.56,2.344s2.948-1.118,2.592-1.982a2.038,2.038,0,0,0-2.583-.831.1.1,0,0,1-.106-.012c-.442-.365.018-1.844.15-2.331s.54-1.823.886-1.5a2.3,2.3,0,0,1,.585,1.728c.022.727.094,1.652,1.133,1.779.848.1,1.247-1.372,1.455-1.931a3.6,3.6,0,0,0,.258-1.626,14.519,14.519,0,0,0-1.574-5.093,34.6,34.6,0,0,0,3.086-10.7,31.81,31.81,0,0,1,.765-4.235,18.887,18.887,0,0,1,2.838-3.678,16.709,16.709,0,0,0,3.041-4.134c-.818,5.159-1.894,10.44-1.894,14.465,0,6.562,1.121,15.142,1.072,15.6s-5.237,10.378-5.848,16.33c-.4,3.875-2.324,10.985-1.258,18.3.571,3.919,2.34,7.9,4.053,11.465,4.908,10.225,7.059,12.769,7.818,13.716.745.93-.445,2.645-1.681,5.307a11.561,11.561,0,0,0-1.263,4.266s-1.262,1.826-.7,2.809c.419.73,2.151-.236,2.612-1.054.375-.665,1.6-.6,2.825-1.367s2.156-2.139,3.16-2.616c2.987-1.422,5.444-3.737,5.453-5.455a6.941,6.941,0,0,0-1.628-4.709c-.881-1.1-.47-8.815-2.894-17.262-.445-1.552-1.672-4.246-1.69-4.775-.016-.457,2.331-3.713,4.434-8.4,2.518-5.609,3.882-9.066,4.819-11.7a10.935,10.935,0,0,0,2.639.33c.027,0,.053,0,.08,0h.311c.027,0,.053,0,.08,0a10.932,10.932,0,0,0,2.639-.33c.936,2.63,2.3,6.088,4.819,11.7,2.1,4.684,4.449,7.939,4.434,8.4-.018.529-1.244,3.223-1.69,4.775-2.424,8.447-2.013,16.16-2.894,17.262a6.943,6.943,0,0,0-1.628,4.709c.009,1.718,2.466,4.032,5.453,5.455,1,.477,1.939,1.853,3.16,2.616s2.45.7,2.825,1.367c.461.818,2.193,1.783,2.612,1.054.565-.983-.7-2.809-.7-2.809a11.561,11.561,0,0,0-1.263-4.266c-1.237-2.662-2.427-4.377-1.681-5.307.759-.947,2.91-3.491,7.818-13.716,1.713-3.568,3.482-7.546,4.053-11.465,1.066-7.312-.861-14.421-1.258-18.3-.611-5.952-5.8-15.872-5.848-16.33s1.073-9.037,1.073-15.6c0-4.185-1.5-9.729-2.533-15.082A16.682,16.682,0,0,0,223,584.115a18.616,18.616,0,0,1,2.8,3.623,31.833,31.833,0,0,1,.754,4.173c.682,4.435,1.423,7.688,3.039,10.541a14.3,14.3,0,0,0-1.549,5.016,3.537,3.537,0,0,0,.254,1.6c.2.551.6,2,1.433,1.9,1.024-.125,1.1-1.036,1.116-1.752a2.266,2.266,0,0,1,.577-1.7c.341-.317.743,1,.873,1.479s.583,1.937.148,2.3a.1.1,0,0,1-.1.012,2.008,2.008,0,0,0-2.545.818c-.35.851.751,1.5,2.553,1.953s5.789-1.141,6.463-2.309C239.143,611.186,240.179,605.528,237.1,602.614Z" transform="translate(82.57 911.945)" fill="#fed97b"/>
    <g id="Rectángulo_1797" data-name="Rectángulo 1797" transform="translate(361 1325)" fill="none" stroke="#00a99a" stroke-width="2">
      <rect width="93" height="272" stroke="none"/>
      <rect x="1" y="1" width="91" height="270" fill="none"/>
    </g>
    <path id="Trazado_11115" data-name="Trazado 11115" d="M-74,288.367H18.271" transform="translate(435 1259)" fill="none" stroke="#00a99a" stroke-width="2"/>
    <path id="Trazado_11116" data-name="Trazado 11116" d="M-74,288.367H18.271" transform="translate(435 1215)" fill="none" stroke="#00a99a" stroke-width="2"/>
    <path id="Trazado_11117" data-name="Trazado 11117" d="M-74,288.367H18.271" transform="translate(435 1171)" fill="none" stroke="#00a99a" stroke-width="2"/>
    <path id="Trazado_11118" data-name="Trazado 11118" d="M-74,288.367H18.271" transform="translate(435 1127)" fill="none" stroke="#00a99a" stroke-width="2"/>
    <path id="Trazado_11119" data-name="Trazado 11119" d="M-74,288.367H18.271" transform="translate(435 1083)" fill="none" stroke="#00a99a" stroke-width="2"/>
    <path id="Trazado_11110" data-name="Trazado 11110" d="M271.5,316.219c1.758-18.867,2.343-27.823-1.48-35.546v-.005c.056-8.035-3.4-32.04-5.416-41.553-1.473-6.964-1.714-11.913-2.922-15.147-2.845-7.618-8.875-8.408-14.563-9.234-.666-.233-1.384-.478-2.166-.736-1.473-.485-3.033-.881-4.551-1.282l-.012,0-.322-.086c-3.41-.908-6.561-1.879-7.969-4a10.4,10.4,0,0,1-2.135-6.125,14.756,14.756,0,0,0,4.509-5.038,19.7,19.7,0,0,0,.874-2.148,16.292,16.292,0,0,0,1.1-1.224,21.983,21.983,0,0,0,3.608-6.893c.7-2.088-.127-2.981.882-4.959a7.824,7.824,0,0,0,.916-4.662c-.24-1.57.568-2.81.708-4.255.142-1.465-.538-2.861-.789-4.267-.265-1.495.155-2.822-.345-4.277-.378-1.1-1.534-1.969-2.132-2.911-.747-1.179-.989-2.137-1.829-3.273-.928-1.25-2.126-1.458-3.386-2.187-1.753-1.016-2.475-2.068-4.429-2.5a39.99,39.99,0,0,0-19.864,0c-1.954.432-2.676,1.484-4.429,2.5-1.259.729-2.458.937-3.385,2.187-.841,1.136-1.082,2.094-1.83,3.273-.6.942-1.752,1.809-2.13,2.911-.5,1.455-.081,2.782-.346,4.277-.251,1.406-.932,2.8-.789,4.267.139,1.445.947,2.685.708,4.255a7.824,7.824,0,0,0,.916,4.662c1.009,1.978.187,2.871.882,4.959A21.98,21.98,0,0,0,203,194.09a15.939,15.939,0,0,0,1.1,1.226,19.457,19.457,0,0,0,.873,2.146,14.743,14.743,0,0,0,4.508,5.038,10.4,10.4,0,0,1-2.134,6.125c-1.4,2.114-4.533,3.086-7.927,3.991h0l-.266.071c-1.355.359-2.744.714-4.078,1.128h0l-.072.023c-.17.053-.341.1-.509.159l-.248.084-.067.022c-.244.081-.489.162-.721.241l-.006,0q-.587.2-1.124.387c-5.688.826-11.718,1.616-14.562,9.234-1.208,3.234-1.45,8.183-2.923,15.147-2.013,9.513-5.472,33.518-5.416,41.553v.005c-3.823,7.723-3.238,16.679-1.48,35.546.177,1.888-.06,3.7.116,5.232-1.484,4.442-.536,9.315,1.011,13.383,3.737,9.84,10.9,14.2,12.378,12.711s-.725-3.387-2.4-6.85c-2.648-5.474-1.826-7.763-2.038-10.115,1.159,1.8,1.863,1,3.786,6.254.794,2.176,2.644,1.543,2.614,1.346-.268-2.039-.786-4.272-1.25-6.584-1.686-8.4-4.285-8.1-5.373-10.8a12.772,12.772,0,0,1,.161-2.778c1.39-8.729,5.781-19.76,6.116-33.262a39.126,39.126,0,0,0-.05-4.38c2.952-7.914,4.623-22.055,6.5-31.964,1.088,14.51,3.185,29.2,3.551,36.583.013.278.026.557.035.814,0,.1.005.2.008.3.01.386.015.756.012,1.087-.025,2.487.264,5.473-.639,8.426-.122.4-.238.785-.351,1.164l-.024.082c-.446,1.5-.82,2.862-1.141,4.254v0l0,.017c-.01.046-.021.092-.031.138q-.12.527-.23,1.064l-.041.2q-.118.59-.226,1.2l-.006.029h0v.006c-.179,1.028-.339,2.131-.483,3.35l0,.025-.007.065-.008.059v.011c-.031.267-.061.546-.091.825v.006l0,.022v.008c-.014.133-.028.264-.042.4-.026.252-.051.515-.076.779-.019.2-.037.4-.056.6-.021.242-.043.489-.064.74s-.042.513-.062.775c-.018.233-.037.466-.055.708-.024.323-.047.663-.071,1-.013.2-.028.395-.041.6-.037.563-.074,1.145-.11,1.756a.765.765,0,0,0,.009.177c0,.02,0,.037,0,.057s-.005.061-.008.093c-.061.7-.118,1.385-.173,2.062-.016.209-.033.415-.049.622q-.062.779-.117,1.538l-.045.615q-.063.885-.118,1.748c-.006.088-.013.178-.018.265-.044.7-.084,1.377-.121,2.051,0,.058-.005.115-.008.174q-.05.9-.087,1.788l-.015.353q-.036.852-.064,1.689c0,.072-.005.144-.007.217-.4,12.659.677,22.586,3.3,39.324,1.107,7.068,4.924,19.627,4.343,25.156s-1.816,11.492-1.691,20.172c.187,13.115,6.222,24.162,6.44,46.229.012,1.224-2.2,6.052-2.49,8.3-.517,4.051-2.961,6.346-3.427,8.729-.713,3.646,8.508,4.777,11,4.953,2.054.148,7.246,1.949,7.37-2.766.047-1.642-1.712-5.984-2.131-10.584-.429-4.736-.734-7.248-.864-9.589-.567-10,4.924-27.209,5.539-42.135.479-11.6-1.692-16.977-2.089-23.1-.328-5.035,1.627-8.633,1.279-17.193-.1-2.51-.579-5.19-.154-7.883,1.924-12.15,2.6-27.637,2.534-39.322h0a6.225,6.225,0,0,0,1.647.456v0h.02a5.265,5.265,0,0,0,1.343,0h.02v0a5.77,5.77,0,0,0,.78-.159l.126-.036a7.011,7.011,0,0,0,.741-.261h0c-.067,11.685.61,27.172,2.534,39.322.425,2.693-.051,5.373-.154,7.883-.348,8.56,1.607,12.158,1.28,17.193-.4,6.125-2.569,11.5-2.09,23.1.615,14.926,6.106,32.136,5.539,42.135-.13,2.341-.435,4.853-.863,9.589-.419,4.6-2.179,8.942-2.132,10.584.124,4.715,5.316,2.914,7.37,2.766,2.494-.176,11.715-1.307,11-4.953-.466-2.383-2.91-4.678-3.427-8.729-.287-2.25-2.5-7.078-2.49-8.3.219-22.067,6.253-33.114,6.44-46.229.125-8.68-1.111-14.645-1.691-20.172s3.236-18.088,4.344-25.156c2.626-16.762,3.7-26.692,3.3-39.378,0-.029,0-.059,0-.087q-.03-.925-.07-1.871c0-.063-.006-.126-.008-.188-.059-1.337-.132-2.708-.222-4.125,0-.048-.007-.1-.01-.147q-.06-.922-.128-1.874c-.012-.18-.026-.362-.039-.545q-.06-.805-.125-1.634c-.014-.182-.028-.363-.043-.547-.059-.721-.119-1.452-.185-2.2a.765.765,0,0,0,.009-.177c-.036-.611-.073-1.193-.11-1.757-.013-.2-.027-.389-.04-.584-.024-.349-.048-.7-.072-1.029-.018-.236-.036-.463-.054-.692s-.036-.459-.054-.68l-.006-.069-.008-.094q-.03-.347-.059-.679c-.016-.171-.031-.34-.047-.506v-.006l0-.046-.005-.043c-.025-.264-.05-.527-.076-.779-.01-.1-.02-.2-.031-.3l0-.034-.018-.157c-.027-.253-.054-.508-.082-.752l0-.022,0-.017c-.006-.053-.013-.1-.019-.157q-.109-.921-.232-1.76v-.01q-.119-.81-.249-1.566l-.006-.036h0l0-.012-.005-.026c-.07-.4-.143-.784-.22-1.165-.012-.064-.025-.127-.039-.191l0-.022,0-.013c-.072-.35-.146-.7-.225-1.041-.009-.039-.017-.08-.026-.119l0-.02-.006-.025c-.407-1.765-.9-3.479-1.515-5.495-.9-2.953-.614-5.939-.639-8.426,0-.353,0-.745.014-1.16,0-.052,0-.1,0-.153.01-.332.027-.7.047-1.067.389-7.433,2.462-22.009,3.541-36.4,1.876,9.909,3.546,24.05,6.5,31.964a39.379,39.379,0,0,0-.05,4.38c.335,13.5,4.726,24.533,6.116,33.262a12.77,12.77,0,0,1,.161,2.778c-1.088,2.7-3.687,2.406-5.373,10.8-.464,2.312-.982,4.545-1.25,6.584-.03.2,1.82.83,2.614-1.346,1.923-5.254,2.627-4.453,3.786-6.254-.211,2.352.61,4.641-2.038,10.115-1.674,3.463-3.884,5.354-2.4,6.85s8.641-2.871,12.378-12.711c1.547-4.068,2.495-8.941,1.011-13.383C271.563,319.916,271.326,318.107,271.5,316.219Z" transform="translate(310.144 1114.347)" fill="#fed97b"/>
    <g id="Rectángulo_1798" data-name="Rectángulo 1798" transform="translate(483 1267)" fill="none" stroke="#00a99a" stroke-width="2">
      <rect width="93" height="330" stroke="none"/>
      <rect x="1" y="1" width="91" height="328" fill="none"/>
    </g>
    <path id="Trazado_11120" data-name="Trazado 11120" d="M-74,288.367H18.271" transform="translate(557 1254.133)" fill="none" stroke="#00a99a" stroke-width="2"/>
    <path id="Trazado_11121" data-name="Trazado 11121" d="M-74,288.367H18.271" transform="translate(557 1209.133)" fill="none" stroke="#00a99a" stroke-width="2"/>
    <path id="Trazado_11122" data-name="Trazado 11122" d="M-74,288.367H18.271" transform="translate(557 1120.133)" fill="none" stroke="#00a99a" stroke-width="2"/>
    <path id="Trazado_11123" data-name="Trazado 11123" d="M-74,288.367H18.271" transform="translate(557 1075.133)" fill="none" stroke="#00a99a" stroke-width="2"/>
    <path id="Trazado_11124" data-name="Trazado 11124" d="M-74,288.367H18.271" transform="translate(557 1031.133)" fill="none" stroke="#00a99a" stroke-width="2"/>
    <path id="Trazado_11125" data-name="Trazado 11125" d="M-74,288.367H18.271" transform="translate(557 1165.133)" fill="none" stroke="#00a99a" stroke-width="2"/>
    <g id="Rectángulo_1799" data-name="Rectángulo 1799" transform="translate(619 1207)" fill="none" stroke="#00a99a" stroke-width="2">
      <rect width="93" height="390" stroke="none"/>
      <rect x="1" y="1" width="91" height="388" fill="none"/>
    </g>
    <path id="Trazado_11126" data-name="Trazado 11126" d="M-74,288.367H18.271" transform="translate(693 979.133)" fill="none" stroke="#00a99a" stroke-width="2"/>
    <path id="Trazado_11127" data-name="Trazado 11127" d="M-74,288.367H18.271" transform="translate(693 1032.133)" fill="none" stroke="#00a99a" stroke-width="2"/>
    <path id="Trazado_11128" data-name="Trazado 11128" d="M-74,288.367H18.271" transform="translate(693 1085.133)" fill="none" stroke="#00a99a" stroke-width="2"/>
    <path id="Trazado_11129" data-name="Trazado 11129" d="M-74,288.367H18.271" transform="translate(693 1137.133)" fill="none" stroke="#00a99a" stroke-width="2"/>
    <path id="Trazado_11130" data-name="Trazado 11130" d="M-74,288.367H18.271" transform="translate(693 1190.133)" fill="none" stroke="#00a99a" stroke-width="2"/>
    <path id="Trazado_11131" data-name="Trazado 11131" d="M-74,288.367H18.271" transform="translate(693 1243.133)" fill="none" stroke="#00a99a" stroke-width="2"/>
    <g id="Rectángulo_1800" data-name="Rectángulo 1800" transform="translate(780 1142)" fill="none" stroke="#00a99a" stroke-width="2">
      <rect width="93" height="455" stroke="none"/>
      <rect x="1" y="1" width="91" height="453" fill="none"/>
    </g>
    <path id="Trazado_11132" data-name="Trazado 11132" d="M-74,288.367H18.271" transform="translate(854 911.133)" fill="none" stroke="#00a99a" stroke-width="2"/>
    <path id="Trazado_11133" data-name="Trazado 11133" d="M-74,288.367H18.271" transform="translate(854 966.133)" fill="none" stroke="#00a99a" stroke-width="2"/>
    <path id="Trazado_11134" data-name="Trazado 11134" d="M-74,288.367H18.271" transform="translate(854 1022.133)" fill="none" stroke="#00a99a" stroke-width="2"/>
    <path id="Trazado_11135" data-name="Trazado 11135" d="M-74,288.367H18.271" transform="translate(854 1077.133)" fill="none" stroke="#00a99a" stroke-width="2"/>
    <path id="Trazado_11136" data-name="Trazado 11136" d="M-74,288.367H18.271" transform="translate(854 1188.133)" fill="none" stroke="#00a99a" stroke-width="2"/>
    <path id="Trazado_11137" data-name="Trazado 11137" d="M-74,288.367H18.271" transform="translate(854 1243.133)" fill="none" stroke="#00a99a" stroke-width="2"/>
    <path id="Trazado_11138" data-name="Trazado 11138" d="M-74,288.367H18.271" transform="translate(854 1132.133)" fill="none" stroke="#00a99a" stroke-width="2"/>
    <g id="Rectángulo_1801" data-name="Rectángulo 1801" transform="translate(236 1420)" fill="none" stroke="#00a99a" stroke-width="2">
      <rect width="93" height="177" stroke="none"/>
      <rect x="1" y="1" width="91" height="175" fill="none"/>
    </g>
    <path id="Trazado_11139" data-name="Trazado 11139" d="M-74,288.367H18.271" transform="translate(310 1275.133)" fill="none" stroke="#00a99a" stroke-width="2"/>
    <path id="Trazado_11140" data-name="Trazado 11140" d="M-74,288.367H18.271" transform="translate(310 1227.133)" fill="none" stroke="#00a99a" stroke-width="2"/>
    <path id="Trazado_11141" data-name="Trazado 11141" d="M-74,288.367H18.271" transform="translate(310 1179.133)" fill="none" stroke="#00a99a" stroke-width="2"/>
  </g>
</svg>
