<svg xmlns="http://www.w3.org/2000/svg" width="958" height="435.358" viewBox="0 0 958 435.358">
  <g id="Grupo_8374" data-name="Grupo 8374" transform="translate(-91 -5192.642)">
    <g id="Grupo_7710" data-name="Grupo 7710" transform="translate(238.975 5193.14)">
      <path id="Trazado_11850" data-name="Trazado 11850" d="M352.421,183.116c-3.63-14.262-5.964-18.152-10.372-42.528-2.353-13.009-1.888-25.4-1.976-38.537-.135-20.511-.011-44.065-16.638-47.987-5.878-1.387-4.553-8.582-19.44-9.808-5.539-.456-12.591-.094-16.989,1.226-8.78,2.634-12.121,4.506-17.426,8.931-4.425,3.692-7.006,7.268-9.72,15.412-1.4,4.2-2.957,15.724-3.065,18.3-.194,4.621-1.886,37.148-5.164,59.43-1.368,9.3-4.738,30.335,1.831,36.356s18.185.621,21.952-2.422c8.393-6.779,8.814-16.262,7.992-23.926s-8.837-24.627-8.922-26.267c-.439-8.495-9.633-27.672-1.227-40.019,2.99-4.391,11.991-7.045,20.842-9.635,8.38-2.451,16.468-6.361,19.615-6.042,11.121.438,15.206,20.43,15.412,21.629.964,5.6-.154,7.76.613,10.947l-10.68,21.436.051,38c.852,7.094-4.007,14.359,14.249,21.459C338.287,191,355.519,195.284,352.421,183.116Z" transform="translate(-191.576 -44.068)" fill="#3b1f10"/>
      <path id="Trazado_11851" data-name="Trazado 11851" d="M361.329,263.622c.01-.134.01-.206.01-.206s-.083.2-.227.568c-.279.691-.774,1.971-1.414,3.736-3.55,9.834-11.382,34.477-8.018,52.608,3.075,16.656,10.928,25.21,17.76,39.75H232.212c6.831-14.54,14.674-23.095,17.76-39.75,3.127-16.893-3.921-40.153-7.967-51.494-.547-1.548-1.042-2.879-1.455-3.932-.691-1.816-1.125-2.838-1.125-2.838s-.052-.939-.083.9c-.01.557-.021,1.372-.021,2.559v.01c-.01.887-.01,1.961-.01,3.3,0,3.746-.206,7.193-.186,9.391.1,8.875-.857,23.569-1.682,32.444-.248,2.631-.475,4.757-.66,6.057-1.734,11.981-8.194,30.5-12.693,43.352H193.37c.557-6.584,1.63-17.956,2.054-21.9.908-8.452,3.663-17.636,6.481-22.981,4.087-7.76,6.161-13.745,6.666-20.185.248-3.189.1-13.673-.144-24.746-.248-11.248-.6-23.115-.764-28.554-.351-11.475-.2-24.591,1.2-32.96,1.486-8.947,5.758-16.067,13.085-19.524a66.772,66.772,0,0,1,15.293-4.541c4.974-.877,9.907-3.653,15.9-6.749,1.187-.609,2.425-1.238,3.7-1.868.289-.144.578-.279.877-.423l.083-.041c1.888-.908,3.89-1.806,6.027-2.662,9.669-3.88,12.683-9.618,13.622-12.837a10.214,10.214,0,0,0,.413-2.208v-.01c.01-.124.01-.2.01-.206s-.093-.764-.237-2.012c0,0-.857-7.76-1.166-11.981-.1-1.465-.815-10.98-.815-10.98h.991l1.145.01,17.12.072H296.3l3.509.021h1.723l2.446-.01h.01l2-.01,14.881-.062,4.479-.021h.64s-.7,9.514-.8,10.98c-.31,4.221-1.166,11.981-1.166,11.981-.155,1.249-.248,2.012-.248,2.012,0,.145.052,9.649,14.045,15.262,6.532,2.611,11.805,5.645,16.563,8.018a38.107,38.107,0,0,0,10.041,3.725,66.831,66.831,0,0,1,15.283,4.541c7.327,3.457,11.6,10.577,13.085,19.524,1.393,8.369,1.558,21.485,1.207,32.96-.083,2.58-.2,6.6-.33,11.31,0,0-.64,38.316-.248,43.4.506,6.439,2.57,12.425,6.656,20.174,2.817,5.356,5.572,14.54,6.481,22.981.4,3.684,1.341,13.807,1.93,20.494H377.2c-4.933-13.467-10.319-30.236-12-41.948-2.136-14.8-3.9-20.856-4.231-38.863-.052-2.889.165-9.989.289-13.622.041-.96.062-1.672.072-2.012C361.339,263.622,361.329,263.622,361.329,263.622Z" transform="translate(-193.37 -41.237)" fill="#fff" stroke="#3b1f10" stroke-linecap="round" stroke-linejoin="round" stroke-width="1.942"/>
      <path id="Trazado_11852" data-name="Trazado 11852" d="M299.181,332.806a4.806,4.806,0,0,1-2.53,1.16,2.139,2.139,0,0,1-2.135-1.753,5.616,5.616,0,0,0,2.565.849C297.851,333,299.181,332.806,299.181,332.806Z" transform="translate(-190.139 -34.865)" fill="#3b1f10"/>
      <path id="Trazado_11853" data-name="Trazado 11853" d="M302.061,334.818a6.528,6.528,0,0,1-5.33,2.847,4.384,4.384,0,0,1-4.056-2.13A7.19,7.19,0,0,1,292,334.1a11.081,11.081,0,0,0,3.145,2.076,7.022,7.022,0,0,0,2.6.03A28.912,28.912,0,0,0,302.061,334.818Z" transform="translate(-190.22 -34.805)" fill="#3b1f10"/>
      <path id="Trazado_11854" data-name="Trazado 11854" d="M220.99,298.5a14.565,14.565,0,0,0-1.683,4.727c-.231,1.74-.3,3.481-.3,3.481a7.593,7.593,0,0,1-.051-4.957A9.562,9.562,0,0,1,220.99,298.5Z" transform="translate(-192.564 -35.942)" fill="#3b1f10"/>
      <path id="Trazado_11855" data-name="Trazado 11855" d="M215.415,298.054a7.711,7.711,0,0,0-.908,2.51,15.5,15.5,0,0,0-.085,1.593,4.613,4.613,0,0,1-.339-2.205A2.645,2.645,0,0,1,215.415,298.054Z" transform="translate(-192.71 -35.956)" fill="#3b1f10"/>
      <path id="Trazado_11856" data-name="Trazado 11856" d="M372.5,298.5a14.566,14.566,0,0,1,1.683,4.727c.231,1.74.3,3.481.3,3.481a7.593,7.593,0,0,0,.051-4.957A9.562,9.562,0,0,0,372.5,298.5Z" transform="translate(-187.649 -35.942)" fill="#3b1f10"/>
      <path id="Trazado_11857" data-name="Trazado 11857" d="M378.042,298.054a7.727,7.727,0,0,1,.909,2.51,15.7,15.7,0,0,1,.084,1.593,4.614,4.614,0,0,0,.34-2.205A2.645,2.645,0,0,0,378.042,298.054Z" transform="translate(-187.472 -35.956)" fill="#3b1f10"/>
      <path id="Trazado_11858" data-name="Trazado 11858" d="M228.816,217.539a50.55,50.55,0,0,0,1.3,5.591c.726,2.268,1.557,5.418,2.379,6.524,2.488,3.349,4.008,2.823,4.008,2.823l-.133,2.151a11.207,11.207,0,0,1-4.251-3.68,23.14,23.14,0,0,1-2.584-7.463C229.228,221.76,228.816,217.539,228.816,217.539Z" transform="translate(-192.238 -38.528)" fill="#3b1f10"/>
      <path id="Trazado_11859" data-name="Trazado 11859" d="M289.407,250.022s-2.22,10.573-11.57,16.782a30.948,30.948,0,0,1-20.192,4.645c-5.184-.689-12.939-2.81-17.485-8.262-4.983-5.976-5.709-14.646-5.984-19.34a38.384,38.384,0,0,1,2.839-14.691,30.253,30.253,0,0,1,3.046-5.7,47.251,47.251,0,0,0-2.992,7.291,55.552,55.552,0,0,0-1.9,10.539,42.364,42.364,0,0,0,2.76,15.454,17.813,17.813,0,0,0,7.314,8.8,29.146,29.146,0,0,0,13.042,4.491,30.732,30.732,0,0,0,16.2-2.818,26.91,26.91,0,0,0,8.785-6.957A60.711,60.711,0,0,0,289.407,250.022Z" transform="translate(-192.068 -38.339)" fill="#3b1f10"/>
      <path id="Trazado_11860" data-name="Trazado 11860" d="M249.5,240.925s-2.754,1.486-3.135,4.1c-.43,2.962.5,4.639,1.71,5.8s3.528,1.474,5.331,1.249a5.648,5.648,0,0,0,3.935-2.794,12.582,12.582,0,0,0,.739-3.023,9.5,9.5,0,0,1-1.533,2.993,5.039,5.039,0,0,1-3.85,1.8,5.969,5.969,0,0,1-3.631-.8c-2.206-1.63-1.892-4.4-1.786-5.128A7.656,7.656,0,0,1,249.5,240.925Z" transform="translate(-191.681 -37.781)" fill="#3b1f10"/>
      <path id="Trazado_11861" data-name="Trazado 11861" d="M275.6,155.964s3.372,8.689,4.07,13.8-.686,3.052-1.362.006a58.318,58.318,0,0,0-3.576-10.676Z" transform="translate(-190.771 -40.494)" fill="#3b1f10"/>
      <path id="Trazado_11862" data-name="Trazado 11862" d="M253.127,246.006a1.4,1.4,0,0,0-1.073-.981,1.238,1.238,0,0,0-1.457.69,1.813,1.813,0,0,1,1.28-.33A2.648,2.648,0,0,1,253.127,246.006Z" transform="translate(-191.542 -37.651)" fill="#3b1f10"/>
      <path id="Trazado_11863" data-name="Trazado 11863" d="M252.713,246.539a1.97,1.97,0,0,1-1.049.279c-.5-.056-.81-.668-.81-.668s-.023.99.809,1.134a.714.714,0,0,0,.727-.224A1.815,1.815,0,0,0,252.713,246.539Z" transform="translate(-191.534 -37.614)" fill="#3b1f10"/>
      <path id="Trazado_11864" data-name="Trazado 11864" d="M308.179,173.134A58.691,58.691,0,0,1,304,180.85s3.042-8.677,4.176-12.838,3.966-13.381,3.966-13.381S311.086,166.012,308.179,173.134Z" transform="translate(-189.836 -40.537)" fill="#3b1f10"/>
      <path id="Trazado_11865" data-name="Trazado 11865" d="M250.814,185.709a82.148,82.148,0,0,1,11.471-.3c10.491.909,12.365,3.515,14.824,5.028s-4.416-2.054-11.85-3.128C260.544,186.629,250.814,185.709,250.814,185.709Z" transform="translate(-191.535 -39.557)" fill="#3b1f10"/>
      <path id="Trazado_11866" data-name="Trazado 11866" d="M292.1,190.621s2.27-3.911,5.786-3.675a4.167,4.167,0,0,1,3.652,1.864,3.311,3.311,0,0,1,.778,1.882s-3.545-2.465-5.245-2.257S292.1,190.621,292.1,190.621Z" transform="translate(-190.217 -39.505)" fill="#3b1f10"/>
      <path id="Trazado_11867" data-name="Trazado 11867" d="M365.851,217.539a50.547,50.547,0,0,1-1.3,5.591c-.728,2.268-1.557,5.418-2.379,6.524-2.488,3.349-4.009,2.823-4.009,2.823l.133,2.151a11.215,11.215,0,0,0,4.252-3.68,23.14,23.14,0,0,0,2.584-7.463C365.438,221.76,365.851,217.539,365.851,217.539Z" transform="translate(-188.106 -38.528)" fill="#3b1f10"/>
      <path id="Trazado_11868" data-name="Trazado 11868" d="M306.732,250.022S308.952,260.6,318.3,266.8a30.95,30.95,0,0,0,20.193,4.645c5.184-.689,12.938-2.81,17.484-8.262,4.984-5.976,5.71-14.646,5.985-19.34a38.365,38.365,0,0,0-2.84-14.691,30.184,30.184,0,0,0-3.046-5.7,47.141,47.141,0,0,1,2.992,7.291,55.39,55.39,0,0,1,1.9,10.539,42.359,42.359,0,0,1-2.759,15.454,18.6,18.6,0,0,1-7.517,8.97,32.683,32.683,0,0,1-12.974,4.185,29.057,29.057,0,0,1-15.9-2.724,27.041,27.041,0,0,1-8.946-6.91A60.67,60.67,0,0,1,306.732,250.022Z" transform="translate(-189.749 -38.339)" fill="#3b1f10"/>
      <path id="Trazado_11869" data-name="Trazado 11869" d="M345.768,240.337s2.754,1.487,3.134,4.1c.431,2.962-.5,4.639-1.71,5.8s-3.527,1.475-5.331,1.25a5.654,5.654,0,0,1-3.935-2.8,12.606,12.606,0,0,1-.738-3.023,9.474,9.474,0,0,0,1.532,2.993,5.045,5.045,0,0,0,3.85,1.8,5.967,5.967,0,0,0,3.631-.8c2.206-1.629,1.892-4.4,1.787-5.127A7.664,7.664,0,0,0,345.768,240.337Z" transform="translate(-188.777 -37.799)" fill="#3b1f10"/>
      <path id="Trazado_11870" data-name="Trazado 11870" d="M317.753,193.4s2.189-4.049,5.962-5.039a16.01,16.01,0,0,1,7.678.19s-3.965.321-5.45.617a13.861,13.861,0,0,0-4.787,1.812C320.218,191.75,317.753,193.4,317.753,193.4Z" transform="translate(-189.397 -39.472)" fill="#3b1f10"/>
      <path id="Trazado_11871" data-name="Trazado 11871" d="M329.932,194.776a60.5,60.5,0,0,1,8.149-3.274,94.266,94.266,0,0,1,14.538-2.165,137.2,137.2,0,0,1-14.147,3.295C336.392,193.008,329.932,194.776,329.932,194.776Z" transform="translate(-189.008 -39.428)" fill="#3b1f10"/>
      <path id="Trazado_11872" data-name="Trazado 11872" d="M319.362,155.374c-3.054,7.865-3.642,8.5-4.448,14.413-.7,5.116,2.055,14.164,2.055,14.164s-1.367-11.112-.692-14.158a58.361,58.361,0,0,1,3.577-10.676Z" transform="translate(-189.492 -40.513)" fill="#3b1f10"/>
      <path id="Trazado_11873" data-name="Trazado 11873" d="M341.555,245.313a1.767,1.767,0,0,1,1.352-1.236,1.557,1.557,0,0,1,1.835.869,2.287,2.287,0,0,0-1.611-.415A3.335,3.335,0,0,0,341.555,245.313Z" transform="translate(-188.637 -37.682)" fill="#3b1f10"/>
      <path id="Trazado_11874" data-name="Trazado 11874" d="M341.975,245.745a2.659,2.659,0,0,0,1.418.377c.68-.073,1.1-.9,1.1-.9s.03,1.337-1.094,1.532a.963.963,0,0,1-.981-.3A2.426,2.426,0,0,1,341.975,245.745Z" transform="translate(-188.624 -37.643)" fill="#3b1f10"/>
      <path id="Trazado_11875" data-name="Trazado 11875" d="M286.5,173.134a58.649,58.649,0,0,0,4.177,7.717s-3.042-8.677-4.177-12.838-3.965-13.381-3.965-13.381S283.594,166.012,286.5,173.134Z" transform="translate(-190.522 -40.537)" fill="#3b1f10"/>
      <path id="Trazado_11876" data-name="Trazado 11876" d="M325.276,87.809c-2.141-4.886-4.08-10.61-8.651-13.059-4.7-2.517-7.659,0-19.538,4-13.51,4.548-25.013,8.245-27.09,13.13s-2.442,14.526-2.182,18.619,3.758,17.013,3.758,17.013a37.3,37.3,0,0,0,6.136,12.635c2.978,3.89,9.324,10.413,11.735,11.957,7.382,4.724,14.484,1.92,18.692-.959a68.33,68.33,0,0,0,9.794-8.651c3.434-3.623,7.313-12.315,8-15.181,1.115-4.664,3.7-12.678,4.04-16.767C330.412,105.232,327.419,92.695,325.276,87.809Z" transform="translate(-190.995 -43.12)" fill="#fff" stroke="#411906" stroke-linecap="round" stroke-linejoin="round" stroke-width="1.866"/>
      <path id="Trazado_11877" data-name="Trazado 11877" d="M277.622,125.2c-1.642-.873-1.087-.357.42,1.063a8.874,8.874,0,0,1,1.654,1.7,11.922,11.922,0,0,1,1.667,3.385,9.511,9.511,0,0,0-1.9-4.9A8.117,8.117,0,0,0,277.622,125.2Z" transform="translate(-190.711 -41.49)" fill="#3b1f10"/>
      <path id="Trazado_11878" data-name="Trazado 11878" d="M293.514,124.091c-.346.117-.736.141-.937-.191a.449.449,0,0,1,.114-.387,2.226,2.226,0,0,1,1.743-.26c.96.281,1.611,1.179,1.481,1.337s-.981-.472-1.416-.578a1.58,1.58,0,0,0-.755,0Z" transform="translate(-190.202 -41.541)" fill="#3b1f10"/>
      <path id="Trazado_11879" data-name="Trazado 11879" d="M301.724,124.03a.78.78,0,0,0,.831-.19c.07-.147.065-.141-.1-.34a2.015,2.015,0,0,0-2.131-.04c-.657.326-1.274,1.027-1.141,1.2s.76-.313,1.315-.6a1.609,1.609,0,0,1,.9-.072A.5.5,0,0,0,301.724,124.03Z" transform="translate(-189.991 -41.541)" fill="#3b1f10"/>
      <path id="Trazado_11880" data-name="Trazado 11880" d="M291.767,120.715c-.152.037-.247.032-.772.87a2.628,2.628,0,0,0-.347,1.25,2.1,2.1,0,0,0,.467,1.71c.462.526.613.522,1.385.708.536.129.515-.079.515-.079-.237-.231-.779-.255-1.287-.773a2.115,2.115,0,0,1-.434-.7,3.478,3.478,0,0,1-.031-1.183,2.834,2.834,0,0,1,.352-1.156c.227-.444.4-.57.262-.629A.249.249,0,0,0,291.767,120.715Z" transform="translate(-190.263 -41.62)" fill="#3b1f10"/>
      <path id="Trazado_11881" data-name="Trazado 11881" d="M303.293,120.744c.151.037.247.032.77.871a2.621,2.621,0,0,1,.348,1.249,2.086,2.086,0,0,1-.469,1.71c-.46.526-.61.522-1.383.707-.538.13-.516-.078-.516-.078.237-.231.779-.255,1.289-.773a2.141,2.141,0,0,0,.433-.7,3.478,3.478,0,0,0,.03-1.182,2.814,2.814,0,0,0-.352-1.157c-.226-.445-.4-.57-.262-.631A.245.245,0,0,1,303.293,120.744Z" transform="translate(-189.899 -41.619)" fill="#3b1f10"/>
      <path id="Trazado_11882" data-name="Trazado 11882" d="M302.057,103.89a15.04,15.04,0,0,0-.98,3.221,26,26,0,0,0,.349,4.412s.351-3.991.351-4.691S302.057,103.89,302.057,103.89Z" transform="translate(-189.931 -42.157)" fill="#3b1f10"/>
      <path id="Trazado_11883" data-name="Trazado 11883" d="M296.915,127.1a7.646,7.646,0,0,1-.383,3.15c-.3.692.559.383.559.383a13.348,13.348,0,0,0,.177-2.238A4.681,4.681,0,0,0,296.915,127.1Z" transform="translate(-190.077 -41.416)" fill="#3b1f10"/>
      <path id="Trazado_11884" data-name="Trazado 11884" d="M304.486,99.174s.118-.712,2.521-1.514a35.262,35.262,0,0,1,8.163-1.993,31,31,0,0,1,5.6-.191,15.962,15.962,0,0,1,4.311.761c.3.207.149.475-.06.475s-4.857-.631-6.578-.542a22.886,22.886,0,0,0-4.886.826c-1.158.356-4.233,1.882-5.45,2.268a6.524,6.524,0,0,1-2.492.534C304.6,99.8,304.041,99.649,304.486,99.174Z" transform="translate(-189.826 -42.427)" fill="#3b1f10"/>
      <path id="Trazado_11885" data-name="Trazado 11885" d="M290.454,99.174s-.118-.712-2.521-1.514a35.265,35.265,0,0,0-8.162-1.993,31.016,31.016,0,0,0-5.6-.191,15.953,15.953,0,0,0-4.31.761c-.3.207-.149.475.059.475s5.164-.386,6.884-.3a21.058,21.058,0,0,1,4.581.581c1.157.356,4.232,1.882,5.449,2.268a6.524,6.524,0,0,0,2.492.534C290.336,99.8,290.9,99.649,290.454,99.174Z" transform="translate(-190.932 -42.427)" fill="#3b1f10"/>
      <g id="Grupo_7692" data-name="Grupo 7692" transform="translate(116.737 58.252)">
        <path id="Trazado_11886" data-name="Trazado 11886" d="M310.572,104.661a3.226,3.226,0,0,0,1.075,1.41,3.391,3.391,0,0,0,2.233.489A2.565,2.565,0,0,0,316,105.08a5.625,5.625,0,0,0,.167-2.025,17.7,17.7,0,0,0-3.209-.245,21.431,21.431,0,0,0-2.721.9S310.476,104.457,310.572,104.661Z" transform="translate(-306.374 -100.445)" fill="#3b1f10"/>
        <path id="Trazado_11887" data-name="Trazado 11887" d="M313.016,103.914s-.166-.571.582-.631,1.248-.071,1.129.107-.689.237-.808.381a.705.705,0,0,1-.476.272A1.286,1.286,0,0,1,313.016,103.914Z" transform="translate(-306.286 -100.43)" fill="#fff"/>
        <path id="Trazado_11888" data-name="Trazado 11888" d="M311.667,104.581s.2-.392.4-.273.476.368.368.476a.663.663,0,0,1-.511.142C311.787,104.891,311.667,104.581,311.667,104.581Z" transform="translate(-306.329 -100.397)" fill="#fff"/>
        <path id="Trazado_11889" data-name="Trazado 11889" d="M313.061,105.62a.741.741,0,0,1,.535-.261,3.871,3.871,0,0,0,1.058-.226c.095-.06.44-.25.44-.25a6.835,6.835,0,0,1-.879.784,1.8,1.8,0,0,1-1.01.237C313.049,105.846,313.061,105.62,313.061,105.62Z" transform="translate(-306.284 -100.378)" fill="#fff"/>
        <path id="Trazado_11890" data-name="Trazado 11890" d="M319.488,105.39a7.084,7.084,0,0,1,1.6.293,2.336,2.336,0,0,0-.879-.586,3.3,3.3,0,0,0-.707-.1c.277-.226.527-.442.741-.638a2.882,2.882,0,0,1,.4-.026,13.706,13.706,0,0,1,1.656.254,3.285,3.285,0,0,0-.581-.365,4.249,4.249,0,0,0-1.081-.247c.083-.088.154-.164.2-.223a5.352,5.352,0,0,0,.71-.411,2.025,2.025,0,0,0,.475-.739s-.523.476-.666.582a4.983,4.983,0,0,1-.644.32,1.935,1.935,0,0,1-.389,0,5.81,5.81,0,0,0,.692-.557c.228-.227.887-1.144.887-1.144s-.747.683-.914.81a8.419,8.419,0,0,1-1.286.737l-.477-.156c.155-.179.465-.535.6-.679a7.494,7.494,0,0,0,.813-1.318s-.927.915-1.2,1.129c-.19.15-.689.451-.977.621-.226-.07-.466-.139-.715-.205.135-.115.306-.262.443-.382.443.129.727.215.727.215s-.267-.1-.68-.255c.057-.052.107-.1.137-.126a4.191,4.191,0,0,0,.888-1.234S318.3,101.8,318,102a2.669,2.669,0,0,1-.237.137c-.309-.112-.656-.237-1.022-.364a5.888,5.888,0,0,0,.606-1.056s-.682.683-.942.938c-.375-.128-.754-.254-1.117-.367.172-.364.331-.775.331-.775s-.3.36-.586.7c-.367-.112-.709-.208-.989-.272l.141-.267-.265.241c-.053-.011-.109-.024-.157-.032a5.437,5.437,0,0,0-3.31.194,6.93,6.93,0,0,0-3.2,2.5l-.109.129a17.449,17.449,0,0,1,2.932-2.039,6.08,6.08,0,0,1,3.238-.544c.088.008.2.027.331.05-.158.148-.305.286-.365.35a6.553,6.553,0,0,1-.992.86,8.582,8.582,0,0,0-1.389.374,8.965,8.965,0,0,0-3.63,2.612c-.188.2-.777.772-.777.772s1.435-.725,2.355-1.289c.413-.253.949-.539,1.463-.8a10.559,10.559,0,0,1,2.488-.81,10.747,10.747,0,0,1,4.317.105c1.24.188,1.9.356,1.9.356a11.493,11.493,0,0,1-1.87,2.226,10.443,10.443,0,0,1-3.887,1.305c-1.4.119-3.264-.623-4.066-.771a6.223,6.223,0,0,0-1.6-.06,17.25,17.25,0,0,0,4.538,1.195,8.922,8.922,0,0,0,1.518.036,2.485,2.485,0,0,1,.408.257,4.014,4.014,0,0,1,.448.435c-.8.058-1.494.05-1.494.05a8.071,8.071,0,0,0,1.7.177c.18.2.323.37.323.37s-.065-.17-.151-.374c.109,0,.22-.007.332-.018a6.739,6.739,0,0,0,1.294-.264c.181.173.312.306.312.306s-.057-.149-.16-.355a8.166,8.166,0,0,0,1.1-.427c.047-.023.1-.059.143-.087.165.186.289.341.289.341s-.091-.168-.213-.387a5.409,5.409,0,0,0,1.122-1.006c.311.173.585.344.585.344s-.2-.259-.438-.513c.372-.443.626-.817.626-.817s-.32.334-.729.709a2.861,2.861,0,0,0-.3-.272,4.524,4.524,0,0,0-.439-.256c.174-.129.348-.26.522-.394A3.669,3.669,0,0,1,319.488,105.39Zm-5.426-3.159c-.3,0-.621.023-.946.05a2.4,2.4,0,0,0,.487-.538c.045-.068.171-.3.294-.528.27.057.594.133.943.22-.056.063-.109.123-.156.172C314.495,101.81,314.241,102.06,314.062,102.231Zm.574.02a5.281,5.281,0,0,0,.44-.56c.031-.048.065-.107.1-.171.348.09.711.188,1.071.286a3.32,3.32,0,0,1-.755.513C315.217,102.286,314.933,102.265,314.636,102.251Zm2.3.292c-.244-.05-.5-.1-.774-.139.144-.144.17-.149.368-.363.037-.041.072-.085.107-.128.362.1.707.2,1.018.288C317.408,102.324,317.122,102.457,316.932,102.543ZM316,108.112a8.1,8.1,0,0,1-1.221.191,2.752,2.752,0,0,0-.217-.414,2.318,2.318,0,0,0-.281-.312,9.947,9.947,0,0,0,1.109-.194,2.605,2.605,0,0,1,.329.2,6.6,6.6,0,0,1,.545.455C316.174,108.063,316.092,108.088,316,108.112Zm.526-.151a3.67,3.67,0,0,0-.4-.575,2.018,2.018,0,0,0-.162-.163c.26-.08.482-.161.651-.229a2.653,2.653,0,0,0,.248-.125c.166.1.347.211.487.308a2.549,2.549,0,0,1,.336.3A6.424,6.424,0,0,1,316.523,107.961Zm2.224-1.5.187.1q-.088.079-.18.155a6.592,6.592,0,0,1-.929.676,4.241,4.241,0,0,0-.479-.729l-.06-.046c.222-.14.465-.3.728-.488C318.216,106.214,318.468,106.325,318.747,106.465Z" transform="translate(-306.494 -100.517)" fill="#3b1f10"/>
      </g>
      <path id="Trazado_11891" data-name="Trazado 11891" d="M279.478,104.666a3.234,3.234,0,0,0,1.075,1.41,3.392,3.392,0,0,0,2.234.489,2.971,2.971,0,0,0,2.123-1.48c.645-1.129.514-1.65.514-1.65a17.433,17.433,0,0,0-3.819-.781c-.784.131-3.038.391-3.038.391S279.382,104.461,279.478,104.666Z" transform="translate(-190.649 -42.197)" fill="#3b1f10"/>
      <path id="Trazado_11892" data-name="Trazado 11892" d="M281.9,103.914s-.166-.571.582-.631,1.248-.071,1.129.107-.689.237-.808.381a.705.705,0,0,1-.475.272A1.287,1.287,0,0,1,281.9,103.914Z" transform="translate(-190.543 -42.178)" fill="#fff"/>
      <path id="Trazado_11893" data-name="Trazado 11893" d="M280.556,104.581s.2-.392.4-.273.476.368.368.476a.662.662,0,0,1-.511.142C280.675,104.891,280.556,104.581,280.556,104.581Z" transform="translate(-190.585 -42.145)" fill="#fff"/>
      <path id="Trazado_11894" data-name="Trazado 11894" d="M281.949,105.62a.74.74,0,0,1,.535-.261,3.87,3.87,0,0,0,1.058-.226c.095-.06.44-.25.44-.25a6.836,6.836,0,0,1-.879.784,1.8,1.8,0,0,1-1.01.237C281.938,105.846,281.949,105.62,281.949,105.62Z" transform="translate(-190.541 -42.126)" fill="#fff"/>
      <path id="Trazado_11895" data-name="Trazado 11895" d="M276.7,105.452c.174.134.348.265.522.394a4.552,4.552,0,0,0-.44.256,2.85,2.85,0,0,0-.3.272c-.41-.375-.729-.709-.729-.709s.254.375.626.817c-.234.254-.437.513-.437.513s.274-.17.585-.344a5.43,5.43,0,0,0,1.121,1.006c-.122.219-.212.387-.212.387s.123-.155.289-.341c.047.028.095.064.143.087a8.156,8.156,0,0,0,1.095.427c-.1.206-.16.355-.16.355s.131-.133.313-.306a6.731,6.731,0,0,0,1.293.264c.112.01.223.013.333.018-.087.2-.152.374-.152.374s.145-.168.324-.37a8.083,8.083,0,0,0,1.7-.177s-.7.008-1.494-.05a4.028,4.028,0,0,1,.447-.435,2.528,2.528,0,0,1,.409-.257,8.908,8.908,0,0,0,1.517-.036,17.236,17.236,0,0,0,4.538-1.195,6.222,6.222,0,0,0-1.6.06c-.8.148-2.671.89-4.066.771a10.449,10.449,0,0,1-3.887-1.305,11.516,11.516,0,0,1-1.869-2.226s.658-.168,1.9-.356a10.747,10.747,0,0,1,4.317-.105,10.528,10.528,0,0,1,2.488.81c.514.257,1.052.543,1.463.8.921.563,2.355,1.289,2.355,1.289s-.588-.572-.777-.772a8.966,8.966,0,0,0-3.63-2.612,8.6,8.6,0,0,0-1.388-.374,6.6,6.6,0,0,1-.993-.86c-.059-.064-.206-.2-.364-.35.127-.023.242-.041.33-.05a6.084,6.084,0,0,1,3.239.544,17.467,17.467,0,0,1,2.931,2.039l-.108-.129a5.692,5.692,0,0,0-2.895-2.63,6.518,6.518,0,0,0-3.614-.059c-.047.008-.105.021-.158.032l-.264-.241s.06.116.141.267c-.281.064-.622.16-.99.272-.289-.335-.586-.7-.586-.7s.159.411.331.775c-.361.114-.741.239-1.117.367-.26-.255-.941-.938-.941-.938a5.847,5.847,0,0,0,.6,1.056c-.365.127-.713.252-1.022.364-.094-.051-.181-.1-.237-.137-.3-.2-1.271-1.045-1.271-1.045a4.19,4.19,0,0,0,.887,1.234c.03.029.081.074.137.126-.413.153-.68.255-.68.255s.284-.086.726-.215c.137.12.309.267.443.382-.248.066-.489.135-.714.205-.289-.17-.787-.472-.977-.621-.273-.214-1.2-1.129-1.2-1.129a7.429,7.429,0,0,0,.813,1.318c.137.144.448.5.6.679l-.477.156a8.376,8.376,0,0,1-1.286-.737c-.168-.127-.914-.81-.914-.81s.659.917.886,1.144a5.81,5.81,0,0,0,.692.557,1.925,1.925,0,0,1-.388,0,4.986,4.986,0,0,1-.644-.32c-.143-.106-.666-.582-.666-.582a2.009,2.009,0,0,0,.475.739,5.351,5.351,0,0,0,.71.411c.051.059.121.135.2.223a4.249,4.249,0,0,0-1.081.247,3.285,3.285,0,0,0-.581.365,13.714,13.714,0,0,1,1.655-.254,2.9,2.9,0,0,1,.4.026c.213.2.463.412.74.638a3.278,3.278,0,0,0-.706.1,2.326,2.326,0,0,0-.879.586,7.07,7.07,0,0,1,1.6-.293A3.667,3.667,0,0,1,276.7,105.452Zm4.243-3.845c-.045-.05-.1-.109-.155-.172.348-.087.672-.163.942-.22.124.23.25.46.294.528a2.4,2.4,0,0,0,.487.538c-.324-.027-.644-.048-.946-.05C281.392,102.06,281.137,101.81,280.947,101.607Zm-.806.711a3.343,3.343,0,0,1-.755-.513c.36-.1.723-.2,1.071-.286.034.064.068.123.1.171a5.419,5.419,0,0,0,.439.56C280.7,102.265,280.415,102.286,280.141,102.318Zm-2.16-.118c.311-.09.655-.187,1.017-.288.035.043.069.087.106.128.2.215.225.219.368.363-.268.042-.53.09-.774.139C278.509,102.457,278.223,102.324,277.981,102.2Zm1.389,5.837a6.58,6.58,0,0,1,.544-.455,2.6,2.6,0,0,1,.329-.2,9.947,9.947,0,0,0,1.109.194,2.313,2.313,0,0,0-.28.312,2.751,2.751,0,0,0-.217.414,8.08,8.08,0,0,1-1.221-.191C279.539,108.088,279.458,108.063,279.37,108.037Zm-1.422-.562a2.612,2.612,0,0,1,.336-.3c.14-.1.322-.208.488-.308a2.531,2.531,0,0,0,.248.125c.168.068.391.149.65.229a1.832,1.832,0,0,0-.161.163,3.674,3.674,0,0,0-.4.575A6.423,6.423,0,0,1,277.948,107.474Zm-.331-1.345c.263.186.506.348.728.488l-.06.046a4.191,4.191,0,0,0-.478.729,6.6,6.6,0,0,1-.93-.676c-.061-.051-.12-.1-.179-.155l.186-.1C277.165,106.325,277.417,106.214,277.617,106.13Z" transform="translate(-190.816 -42.265)" fill="#3b1f10"/>
      <path id="Trazado_11896" data-name="Trazado 11896" d="M307.475,133.675a3.127,3.127,0,0,1-1.744.172,22.233,22.233,0,0,1-3.337-1.27A7.7,7.7,0,0,0,298.82,132c-.579.173-.891.422-1.2.451a6.363,6.363,0,0,1-1.184-.293,4.137,4.137,0,0,0-3.226.119,24.313,24.313,0,0,1-3.969,1.449,4.449,4.449,0,0,1-1.231.061c-.294-.05-.573.319-.434.56a15.977,15.977,0,0,0,4.643,5c.975.678,2.942.828,4.979.794l.422,0,.421,0c2.037.034,4-.116,4.979-.794a15.976,15.976,0,0,0,4.643-5C307.8,134.1,307.72,133.5,307.475,133.675Zm-17.525.539c.889-.292,2.453-1.113,3.524-1.454a4.175,4.175,0,0,1,1.937-.321,22.3,22.3,0,0,0,2.253.559c.914-.014,1.28-.476,2-.415a10.02,10.02,0,0,1,2.531.617c1.063.362,2.324.893,3.214,1.185.162.053.469.393-.14.45-.724.069-1.8.114-3.48.15-1.51.032-2.747.554-4.113.542-1.284-.01-2.942-.515-4.222-.542-1.679-.036-2.755-.08-3.48-.15C289.363,134.779,289.789,134.267,289.95,134.214Zm16.127,1.3a7.205,7.205,0,0,1-.718,1.044,10.236,10.236,0,0,1-2.537,2.268c-1.253.78-3.54.776-5.147.742v0h-.108v0c-1.607.034-3.894.038-5.147-.742a10.211,10.211,0,0,1-2.535-2.268,7.127,7.127,0,0,1-.719-1.044c-.088-.163-.012-.431.288-.358a15.973,15.973,0,0,0,3.081.357,39.581,39.581,0,0,1,4.542.742,2.9,2.9,0,0,0,.491.023v.005c.019,0,.036,0,.055,0s.035,0,.054,0v-.005a2.9,2.9,0,0,0,.491-.023,39.58,39.58,0,0,1,4.542-.742,15.973,15.973,0,0,0,3.081-.357C306.089,135.084,306.164,135.352,306.077,135.515Z" transform="translate(-190.362 -41.263)" fill="#3b1f10"/>
      <path id="Trazado_11897" data-name="Trazado 11897" d="M263.11,110.614c-.058,2.693-.04,3.876.731,5.642.387.889,2.262,4.7,3.288,5.6a1.626,1.626,0,0,0,2.618-.832c.218-.612-.429-2.363-1.035-4.831-.637-2.59-1.251-5.912-1.827-7.082A2.107,2.107,0,0,0,263.11,110.614Z" transform="translate(-191.143 -42.017)" fill="#fff" stroke="#411906" stroke-linecap="round" stroke-linejoin="round" stroke-width="1.866"/>
      <path id="Trazado_11898" data-name="Trazado 11898" d="M332.681,110.614c.058,2.693.04,3.876-.731,5.642-.387.889-2.262,4.7-3.288,5.6a1.626,1.626,0,0,1-2.618-.832c-.219-.612.429-2.363,1.035-4.831.637-2.59,1.251-5.912,1.827-7.082A2.107,2.107,0,0,1,332.681,110.614Z" transform="translate(-189.134 -42.017)" fill="#fff" stroke="#411906" stroke-linecap="round" stroke-linejoin="round" stroke-width="1.866"/>
      <path id="Trazado_11899" data-name="Trazado 11899" d="M266.286,132.07c1.206,8.929.643,27.05-.322,31.635s-3.526,6.192-3.526,6.192a55.578,55.578,0,0,0,2.414-7.482c1.538-7.439,1.31-26.694.789-30.023C264.434,124.67,265.08,123.139,266.286,132.07Z" transform="translate(-191.164 -41.452)" fill="#fff"/>
      <path id="Trazado_11900" data-name="Trazado 11900" d="M332.611,122.7s.941,19.906,2.63,26.422c2.985,11.511,2.745,13.4,7.264,25.706,0,0-6.384-13.772-8.555-27.481C330.883,127.977,332.611,122.7,332.611,122.7Z" transform="translate(-188.938 -41.557)" fill="#fff"/>
      <path id="Trazado_11901" data-name="Trazado 11901" d="M257.866,113.894s-3.067,27.116-4.2,35.832,0,24.7,0,24.7.485-17.271.969-24.211S257.866,113.894,257.866,113.894Z" transform="translate(-191.46 -41.838)" fill="#fff"/>
      <path id="Trazado_11902" data-name="Trazado 11902" d="M318.4,67.577s7.632,11.543,10.062,19.656c1.528,5.1,2.926,18.135,2.926,18.135S330.1,90.624,329,86.54A44.917,44.917,0,0,0,318.4,67.577Z" transform="translate(-189.377 -43.317)" fill="#fff"/>
      <path id="Trazado_11903" data-name="Trazado 11903" d="M337.35,173.444s2.021,15.754-.059,26.944c-2.966,15.96-8.014,22.9-14.927,35.778-7.224,13.458-18.843,27.355-18.843,27.355,13.794,7.52,21.45,10.834,28.286,11.823a27.48,27.48,0,0,0,25.03-9.719c3.74-4.866,5.557-12.593,3.414-22.982-2.389-11.578-12.183-21.361-17.126-39.994-2.269-8.552-2.829-27.92-2.829-27.92Z" transform="translate(-189.852 -39.936)" fill="#3b1f10"/>
      <path id="Trazado_11904" data-name="Trazado 11904" d="M258.446,173.444s-2.021,15.754.059,26.944c2.967,15.96,8.014,22.9,14.928,35.778,7.224,13.458,20.722,27.355,20.722,27.355-13.794,7.52-23.33,10.834-30.166,11.823a27.481,27.481,0,0,1-25.031-9.719c-3.739-4.866-4.192-9.538-2.415-21.226s11.184-23.118,16.128-41.75c2.269-8.552,2.827-27.92,2.827-27.92Z" transform="translate(-192.023 -39.936)" fill="#3b1f10"/>
      <path id="Trazado_11905" data-name="Trazado 11905" d="M288.007,259.947a38.7,38.7,0,0,1,6.468-1.1,32.858,32.858,0,0,1,10.656.9c2.647.8,4.149,1.423,4.149,1.423l-.651,1.709a50.218,50.218,0,0,0-6.507-1.424,41.778,41.778,0,0,0-9.559-.04c-1.92.219-7,1.3-7,1.3l-.61-1.993Z" transform="translate(-190.445 -37.211)" fill="#3b1f10"/>
    </g>
    <g id="Grupo_7711" data-name="Grupo 7711" transform="translate(623.849 5193.14)">
      <path id="Trazado_11906" data-name="Trazado 11906" d="M422.553,302.374c.256,2.737.49,4.951.69,6.308,1.847,12.8,8.911,32.841,13.595,46.224h31.628c-.545-6.586-1.758-19.58-2.225-23.93-.946-8.778-3.816-18.334-6.742-23.9-4.25-8.066-6.408-14.284-6.931-20.982-.256-3.315-.111-14.218.145-25.721.267-11.7.634-24.03.8-29.681.367-11.937.2-25.576-1.246-34.287-1.546-9.289-5.985-16.7-13.606-20.292a69.873,69.873,0,0,0-15.9-4.717c-5.529-.979-11.036-4.216-17.878-7.7q-2.219-1.151-4.661-2.292H311.882c-1.613.757-3.148,1.513-4.628,2.269-6.853,3.493-12.371,6.742-17.922,7.721a69.589,69.589,0,0,0-15.886,4.717c-7.621,3.593-12.059,11-13.606,20.292-1.446,8.711-1.613,22.35-1.257,34.287.178,5.651.545,17.978.8,29.681.256,11.5.412,22.406.145,25.721-.523,6.7-2.67,12.916-6.92,20.982-2.937,5.562-5.8,15.119-6.742,23.9-.467,4.35-1.691,17.344-2.236,23.93H275.27c4.684-13.383,11.748-33.419,13.595-46.224.189-1.357.434-3.571.69-6.308.857-9.223,1.847-24.508,1.747-33.731-.022-2.292.189-5.863.189-9.757,0-1.758,0-3.093.011-4.116,0-.9.011-1.558.022-2.036.367.656.757,1.313,1.19,1.936a.748.748,0,0,0,.078.122c.078.189.145.389.222.6.456,1.179.99,2.637,1.58,4.316,4.239,12.071,11.169,35.555,7.988,52.71-3.293,17.755-11.781,26.655-19.024,42.486H428.549c-7.242-15.831-15.731-24.731-19.024-42.486-3.282-17.7,4.194-42.13,8.377-53.822q.734-2.036,1.3-3.5v-.011c.033-.1.078-.2.111-.289a20.784,20.784,0,0,0,1.257-2.058c.022,1.012.044,2.848.044,6.152,0,3.894.2,7.465.178,9.757C420.695,277.866,421.7,293.151,422.553,302.374Z" transform="translate(-243.63 -35.874)" fill="#fff" stroke="#3b1f10" stroke-linecap="round" stroke-linejoin="round" stroke-width="1.942"/>
      <path id="Trazado_11907" data-name="Trazado 11907" d="M371.341,319.284s-8.209,2.18-11.53,9.059c-2.333,4.835.01-4.143,3.321-6.447C365.4,320.32,371.341,319.284,371.341,319.284Z" transform="translate(-229.843 -18.114)" fill="#3b1f10"/>
      <path id="Trazado_11908" data-name="Trazado 11908" d="M389.617,248.473s-4.847-.614-6.685-1.944c-4.173-3.019-4.105-5.258-4.105-5.258a7.011,7.011,0,0,0,2.8,6.229A7.57,7.57,0,0,0,389.617,248.473Z" transform="translate(-227.602 -26.89)" fill="#3b1f10"/>
      <path id="Trazado_11909" data-name="Trazado 11909" d="M353.981,260.286a114.905,114.905,0,0,0-4.261,14.2c-1.458,6.808-.6,23.731-.6,23.731s-3.294-8.327-.395-25C349.792,267.07,353.981,260.286,353.981,260.286Z" transform="translate(-231.119 -24.751)" fill="#3b1f10"/>
      <path id="Trazado_11910" data-name="Trazado 11910" d="M350.647,305.3a17.721,17.721,0,0,0,.283,5.616,30.481,30.481,0,0,0,1.829,4.6s-1.839-.615-2.927-4.33C349.449,309.88,350.647,305.3,350.647,305.3Z" transform="translate(-230.868 -19.687)" fill="#3b1f10"/>
      <path id="Trazado_11911" data-name="Trazado 11911" d="M432.625,291.523a22.909,22.909,0,0,1-2.939,4.69,30.441,30.441,0,0,1-4.271,3.128s1.4,4.01,1.751,5.551a40.311,40.311,0,0,1,.558,4.41s-1.975-5.208-2.472-6.233c-.866-1.782-1.937-3.5-1.447-4.2s3.392-1.855,4.958-3.368C429.8,294.508,432.625,291.523,432.625,291.523Z" transform="translate(-222.552 -21.237)" fill="#3b1f10"/>
      <path id="Trazado_11912" data-name="Trazado 11912" d="M317.808,319.284s8.208,2.18,11.529,9.059c2.333,4.835-.008-4.143-3.321-6.447C323.749,320.32,317.808,319.284,317.808,319.284Z" transform="translate(-234.462 -18.114)" fill="#3b1f10"/>
      <path id="Trazado_11913" data-name="Trazado 11913" d="M299.365,248.473s4.847-.614,6.685-1.944c4.172-3.019,4.1-5.258,4.1-5.258a7.011,7.011,0,0,1-2.8,6.229A7.57,7.57,0,0,1,299.365,248.473Z" transform="translate(-236.537 -26.89)" fill="#3b1f10"/>
      <path id="Trazado_11914" data-name="Trazado 11914" d="M334.557,260.286a114.914,114.914,0,0,1,4.263,14.2c1.457,6.808.6,23.731.6,23.731s3.3-8.327.395-25C338.747,267.07,334.557,260.286,334.557,260.286Z" transform="translate(-232.578 -24.751)" fill="#3b1f10"/>
      <path id="Trazado_11915" data-name="Trazado 11915" d="M337.544,305.3a17.7,17.7,0,0,1-.281,5.616,30.448,30.448,0,0,1-1.83,4.6s1.839-.615,2.927-4.33C338.743,309.88,337.544,305.3,337.544,305.3Z" transform="translate(-232.48 -19.687)" fill="#3b1f10"/>
      <path id="Trazado_11916" data-name="Trazado 11916" d="M256.166,291.523a22.825,22.825,0,0,0,2.94,4.69,30.361,30.361,0,0,0,4.272,3.128s-1.4,4.01-1.752,5.551a39.944,39.944,0,0,0-.561,4.41s1.977-5.208,2.474-6.233c.866-1.782,1.936-3.5,1.446-4.2s-3.392-1.855-4.959-3.368C258.994,294.508,256.166,291.523,256.166,291.523Z" transform="translate(-241.397 -21.237)" fill="#3b1f10"/>
      <path id="Trazado_11917" data-name="Trazado 11917" d="M274.16,215.455s5.667,8.821,8.255,15.468c2.86,7.344,4.225,17.808,4.225,17.808l2.6-.195s-3.961-14.8-6.109-19.758C280.6,222.929,274.16,215.455,274.16,215.455Z" transform="translate(-239.372 -29.794)" fill="#3b1f10"/>
      <path id="Trazado_11919" data-name="Trazado 11919" d="M315.515,107.531s0,29.66-1.513,43.279-5.867,34.847-7.38,41.5-3.517,34.764-3.517,34.764,4.6-29.03,5.735-34.764c2.113-10.671,5.875-34.047,6.762-40.674C317.609,136.64,315.515,107.531,315.515,107.531Z" transform="translate(-236.116 -41.935)" fill="#fff"/>
      <path id="Trazado_11920" data-name="Trazado 11920" d="M376.014,128.479s3.027,42.371,3.632,51.753,1.28,31.806.965,38.778c-.221,4.876-1.267,19.937-1.267,19.937s-.748-40.155-1.163-49.306C377.758,180.345,376.014,128.479,376.014,128.479Z" transform="translate(-227.915 -39.578)" fill="#fff"/>
      <path id="Trazado_11921" data-name="Trazado 11921" d="M326.168,178.808s-2.726,19.672-3.935,32.081-.908,22.4-.3,25.726a14.686,14.686,0,0,0,2.118,5.448s-2.01-10.281-.364-27.658C324.172,209.248,326.168,178.808,326.168,178.808Z" transform="translate(-234.058 -33.917)" fill="#fff"/>
      <path id="Trazado_11849" data-name="Trazado 11849" d="M3452.7,2350.505s-18.361-21.95-18.483-50.75,21.225-47.895,21.225-47.895l12.087-11.554s30.549-4.931,34.974,13.373,21.331,25.483,21.331,25.483-5.521,50.37-14.836,71.343S3452.7,2350.505,3452.7,2350.505Z" transform="translate(-3368.319 -2227.736)" fill="#fff"/>
      <g id="head_back" data-name="head back" transform="translate(63.836 0)">
        <g id="Grupo_7563" data-name="Grupo 7563" transform="translate(59.825 105.817)">
          <path id="Trazado_11681" data-name="Trazado 11681" d="M341.556,140.965c2.152,6.276,7.707,10.705,12.568,14.885.187.161-.113.938-.024,1-5.159-3.8-10.7-8.753-12.587-15.088-.067-.225.083-.682.043-.8Z" transform="translate(-341.496 -140.965)" stroke="#3b1f10" stroke-width="1"/>
        </g>
        <g id="Grupo_7564" data-name="Grupo 7564" transform="translate(16.207 105.816)">
          <path id="Trazado_11682" data-name="Trazado 11682" d="M309.533,141.766c-1.9,6.33-7.437,11.283-12.592,15.088.1-.074-.168-.837.024-1,4.865-4.169,10.431-8.606,12.564-14.886-.042.127.073.575,0,.8Z" transform="translate(-296.893 -140.964)" stroke="#3b1f10" stroke-width="1"/>
        </g>
        <path id="Trazado_11683" data-name="Trazado 11683" d="M308.876,138.168h-.5a76.941,76.941,0,0,0,1.82,8.871c-.032-.113.107-.591.061-.817C309.716,143.537,309.261,140.855,308.876,138.168Z" transform="translate(-280.702 -35.306)" stroke="#3b1f10" stroke-width="1"/>
        <path id="Trazado_11684" data-name="Trazado 11684" d="M341.78,137.335q-.615,4.472-1.531,8.935a2.636,2.636,0,0,0,.035.771,81.726,81.726,0,0,0,1.926-9.706Z" transform="translate(-281.137 -35.353)" stroke="#3b1f10" stroke-width="1"/>
        <g id="Grupo_7565" data-name="Grupo 7565" transform="translate(14.502 9.945)">
          <path id="Trazado_11685" data-name="Trazado 11685" d="M305.661,50.4c2.389,14.74-2.327,22.624-11.578,32.5-.1.111.07.489.013.546,4.515-4.541,8.559-8.99,10.8-15.12,2.108-5.776,1.789-12.141.785-18.092-.015-.089-.02.131-.015.162Z" transform="translate(-294.049 -50.219)" stroke="#3b1f10" stroke-width="1"/>
        </g>
        <g id="Grupo_7566" data-name="Grupo 7566" transform="translate(4.734 5.92)">
          <path id="Trazado_11686" data-name="Trazado 11686" d="M308.642,46.409c-2.519,4.529-6.8,7.449-10.618,10.79a37.333,37.333,0,0,0-7.91,10.012c-4.133,7.366-5.208,16.119-5.309,24.425-.1,8.116,2.059,16.031,4.411,23.725,3.314,10.837,6.346,22.332,12.575,31.914-.087-.133.237-1.154.014-1.512-4.183-6.69-6.78-14.015-9.205-21.481-4.115-12.675-8.5-24.9-7.3-38.607a42.744,42.744,0,0,1,9.458-23.748c4.335-5.232,10.832-8.381,13.934-14.624.111-.223-.1-.8-.048-.895Z" transform="translate(-284.803 -46.409)" stroke="#3b1f10" stroke-width="1"/>
        </g>
        <g id="Grupo_7567" data-name="Grupo 7567" transform="translate(6.097 42.617)">
          <path id="Trazado_11687" data-name="Trazado 11687" d="M294.531,81.144c-7.256,7.366-8.763,20.548-8.385,30.487.512,13.41,5.74,26.536,10.561,38.868-.031-.078.06-.4,0-.547-3.677-9.862-7.41-19.758-9.451-30.114-2.276-11.555-1.374-28.774,7.288-38.116.107-.116-.08-.511-.015-.578Z" transform="translate(-286.092 -81.144)" stroke="#3b1f10" stroke-width="1"/>
        </g>
        <g id="Grupo_7568" data-name="Grupo 7568" transform="translate(10.531 38.924)">
          <path id="Trazado_11688" data-name="Trazado 11688" d="M297.56,77.649c-3.749,10.094-7.659,19.428-7.239,30.43.312,8.182,2.048,16.047,4.005,23.979C296.8,142.1,299,151.689,304.8,160.433c-.1-.151.277-1.356.017-1.772a73.019,73.019,0,0,1-8.768-21.355c-2.7-10.613-5.79-21.414-5.532-32.454.214-9.195,4.1-17.5,7.11-26.03.115-.326-.127-1-.063-1.174Z" transform="translate(-290.289 -77.649)" stroke="#3b1f10" stroke-width="1"/>
        </g>
        <g id="Grupo_7569" data-name="Grupo 7569" transform="translate(23.573)">
          <path id="Trazado_11689" data-name="Trazado 11689" d="M306.672,49.728c2.228-6.43,9.552-6.506,15.274-7.355a35.4,35.4,0,0,1,18.874,2.446c11.715,4.905,18.84,16.8,23.4,28.043-.07-.172.106-.734,0-1.015-4.56-11.77-11.583-22.947-23.434-28.385-6.392-2.932-13.584-3.106-20.424-2.1-5.414.793-11.681,1.2-13.747,7.138-.119.348.131,1.015.056,1.233Z" transform="translate(-306.583 -40.806)" stroke="#3b1f10" stroke-width="1"/>
        </g>
        <g id="Grupo_7570" data-name="Grupo 7570" transform="translate(67.409 11.727)">
          <path id="Trazado_11690" data-name="Trazado 11690" d="M350.392,52.019c7.4,10.9,16.659,20.379,20.284,33.338,4.569,16.33.08,33.951-5.052,49.607-.061.188.071.558.034.666,4.5-13.352,7.655-27.194,6.648-41.352-1.236-17.371-12.155-28.942-21.917-42.372.015.021-.017.086,0,.113Z" transform="translate(-350.386 -51.906)" stroke="#3b1f10" stroke-width="1"/>
        </g>
        <g id="Grupo_7571" data-name="Grupo 7571" transform="translate(73.708 31.106)">
          <path id="Trazado_11691" data-name="Trazado 11691" d="M361.292,70.517c11.855,28.709,7.608,61.38-4.919,89.085-.086.188.08.641.039.726,13.174-27.165,16.789-61.769,4.878-90.079.02.044-.029.194,0,.268Z" transform="translate(-356.348 -70.249)" stroke="#3b1f10" stroke-width="1"/>
        </g>
        <g id="Grupo_7572" data-name="Grupo 7572" transform="translate(73.606 19.823)">
          <path id="Trazado_11692" data-name="Trazado 11692" d="M356.3,60.394c3.459,4.956,7.96,9.09,11.885,13.665,8.034,9.361,9.822,21.334,9.218,33.411-.9,18.008-8.6,32.38-21.023,45.232-.292.3.2,1.461.039,1.61,15-13.451,21.138-31.6,21.268-51.3A53.653,53.653,0,0,0,373.3,80.429c-3.742-8.274-11.824-13.622-17.023-20.86.116.161-.119.624.021.825Z" transform="translate(-356.252 -59.569)" stroke="#3b1f10" stroke-width="1"/>
        </g>
        <g id="Grupo_7573" data-name="Grupo 7573" transform="translate(0 26.463)">
          <path id="Trazado_11693" data-name="Trazado 11693" d="M290.677,65.854c-2.842,6.614-6.563,12.8-8.609,19.739a47.158,47.158,0,0,0-1.591,16.727c1.362,17.5,10.551,32.538,20.517,46.518-.1-.144.249-1.2.005-1.552-7.463-10.665-14.536-21.651-18.353-34.2a47.983,47.983,0,0,1,1.424-31.75c1.99-5,4.706-9.659,6.644-14.684.083-.216-.089-.676-.037-.8Z" transform="translate(-280.322 -65.854)" stroke="#3b1f10" stroke-width="1"/>
        </g>
        <g id="Grupo_7574" data-name="Grupo 7574" transform="translate(24.132 8.078)">
          <path id="Trazado_11694" data-name="Trazado 11694" d="M306.35,49.329c15.017,3.171,28.06,10.578,36.332,23.762,6.617,10.548,9.011,23.2,10.432,35.381.033.281.046-.419.035-.512-1.375-12.083-3.8-24.1-9.889-34.771-7.872-13.8-21.739-21.537-36.931-24.736.017,0-.091.853.021.877Z" transform="translate(-306.298 -48.452)" stroke="#3b1f10" stroke-width="1"/>
        </g>
        <g id="Grupo_7575" data-name="Grupo 7575" transform="translate(27.252 8.08)">
          <path id="Trazado_11695" data-name="Trazado 11695" d="M309.835,50.5c3.119-2.627,8.369-.806,11.915.029a46.446,46.446,0,0,1,11.942,4.7c7.182,4,12.622,10.355,16.445,17.542,12.04,22.632,8.657,51.716,5.031,76.009a2.1,2.1,0,0,0,.043.524c3.439-22.191,5.537-46.324-1.292-68.117A48.172,48.172,0,0,0,338.691,57.9,42.135,42.135,0,0,0,326,51.088c-4.143-1.458-12.537-4.523-16.178-1.01-.075.072.062.379.011.423Z" transform="translate(-309.801 -48.454)" stroke="#3b1f10" stroke-width="1"/>
        </g>
        <g id="Grupo_7576" data-name="Grupo 7576" transform="translate(5.311 11.028)">
          <path id="Trazado_11696" data-name="Trazado 11696" d="M305.721,51.244c-1.226,5.51-5.769,10.663-8.678,15.4a99.235,99.235,0,0,0-8.682,17.34,52.583,52.583,0,0,0-2.209,26.943,2.771,2.771,0,0,0,.038-.674c-2.117-13.694,1.273-25.2,7.555-36.952,3.659-6.843,10.447-14.021,12-21.713.021-.1-.036-.287-.022-.348Z" transform="translate(-285.349 -51.244)" stroke="#3b1f10" stroke-width="1"/>
        </g>
        <g id="Grupo_7577" data-name="Grupo 7577" transform="translate(23.029 2.993)">
          <path id="Trazado_11697" data-name="Trazado 11697" d="M308.393,49.882c14.264-10.879,39.854-5.273,48.03,10.487,5.054,9.74,7.5,21.582,9.666,32.208a112.967,112.967,0,0,1,2.15,32.964c-.675,7.247-2.175,14.4-3.089,21.622a2.577,2.577,0,0,0,.056.613c1.745-12.738,4.053-24.994,3.327-37.9-.767-13.653-4.094-27.119-8.2-40.113-3.239-10.252-7.53-19.084-18.145-23.082C331.68,42.723,317.2,41.6,308.39,49.7c-.034.031.023.171,0,.186Z" transform="translate(-308.379 -43.639)" stroke="#3b1f10" stroke-width="1"/>
        </g>
        <g id="Grupo_7578" data-name="Grupo 7578" transform="translate(66.121 67.545)">
          <path id="Trazado_11698" data-name="Trazado 11698" d="M347.762,141.053c-.326,1.042.731-1.3.863-1.62.391-.939.74-1.892,1.066-2.855a38.6,38.6,0,0,0,1.637-7.76c.966-7.912.256-16.054-.5-23.947-.038-.4-.059.222-.05.329,1.211,12.888,1.244,24.223-3.292,36.239-.02.056-.037.537.022.541l.131.009a.045.045,0,0,0,.012-.036q.063-.333.124-.666c.011-.063-.026-.2-.016-.236Z" transform="translate(-347.47 -104.739)" stroke="#3b1f10" stroke-width="1"/>
        </g>
        <g id="Grupo_7580" data-name="Grupo 7580" transform="translate(23.516 9.251)">
          <path id="Trazado_11700" data-name="Trazado 11700" d="M305.436,50.491c2.777,1.449,4.9,3.649,7.256,5.68,3,2.589,6.283,4.671,9.146,7.466,6.284,6.135,10.786,14.05,14.771,21.792,4.117,8,7.83,16.08,9.55,24.963,1.614,8.324,2.9,23.584-3.293,30.771-.337.391.173,1.85.128,1.907,3.994-5.046,4.03-12.282,4.241-18.424a65.436,65.436,0,0,0-3.8-25.224A132.969,132.969,0,0,0,327.5,69.347a58.568,58.568,0,0,0-9.51-10.25c-3.746-3.221-8.176-7.317-12.582-9.535.061.031-.159.833.023.929Z" transform="translate(-305.362 -49.562)" stroke="#3b1f10" stroke-width="1"/>
        </g>
        <g id="Grupo_7581" data-name="Grupo 7581" transform="translate(20.897 8.654)">
          <path id="Trazado_11701" data-name="Trazado 11701" d="M312.123,141.886c-2.676-7.763-5.523-15.45-7.626-23.4-3.582-13.542-2.753-26.709.546-40.141,1.968-8.017,6.757-21.585,1.069-29.352.1.133-.228,1.231-.006,1.591,5.1,8.315-.019,21.449-2.087,30.233a75.376,75.376,0,0,0-2.339,19.814c.511,14.687,5.288,28.531,10.408,42.176-.038-.1.118-.676.034-.925Z" transform="translate(-301.648 -48.997)" stroke="#3b1f10" stroke-width="1"/>
        </g>
        <g id="Grupo_7582" data-name="Grupo 7582" transform="translate(25.47 10.437)">
          <path id="Trazado_11702" data-name="Trazado 11702" d="M306.754,52.057c7.5,9.925,12.591,22.338,17.295,33.786,3.989,9.713,6.578,19.878,6.539,30.436-.026,7.512-.3,15.022-.382,22.534-.012.99.3,1.629.294.242-.055-15.66,1.327-30.555-3.214-45.748-2.315-7.743-5.772-15.1-9.24-22.376-3.328-6.982-6.466-14.133-11.282-20.246.081.1-.229,1.081-.008,1.372Z" transform="translate(-306.673 -50.685)" stroke="#3b1f10" stroke-width="1"/>
        </g>
        <g id="Grupo_7583" data-name="Grupo 7583" transform="translate(39.64 38.055)">
          <path id="Trazado_11703" data-name="Trazado 11703" d="M324.311,137.366c-5.457-13.858-1.36-29.374-.836-43.844.2-5.532.183-11.857-2.84-16.7.066.106-.186.908-.013,1.195,5.852,9.738,1.825,26.22.936,37.088-.646,7.886-.3,15.694,2.718,23.088-.032-.08.12-.611.034-.831Z" transform="translate(-320.561 -76.826)" stroke="#3b1f10" stroke-width="1"/>
        </g>
        <g id="Grupo_7584" data-name="Grupo 7584" transform="translate(24.24 31.178)">
          <path id="Trazado_11704" data-name="Trazado 11704" d="M306.345,70.33c-4.9,24.378,6.607,46.642,13.96,69.238.067.2.179-1.1.085-1.41-6.728-21.921-18.638-42.833-13.929-66.584a3.994,3.994,0,0,0-.116-1.243Z" transform="translate(-305.167 -70.317)" stroke="#3b1f10" stroke-width="1"/>
        </g>
      </g>
    </g>
    <path id="Trazado_13421" data-name="Trazado 13421" d="M0,0H958V4H0Z" transform="translate(91 5510)" fill="#fed97b"/>
    <path id="Trazado_12070" data-name="Trazado 12070" d="M6390.98,4071.035h129.895" transform="translate(-6110 1315)" fill="none" stroke="#ed3a3a" stroke-width="3" stroke-dasharray="3"/>
    <path id="Trazado_12071" data-name="Trazado 12071" d="M6390.98,4071.035h92.434" transform="translate(-6090.539 1336)" fill="none" stroke="#00a99a" stroke-width="3" stroke-dasharray="3"/>
    <path id="Trazado_12072" data-name="Trazado 12072" d="M6390.98,4071.035H6569.7" transform="translate(-5743 1268)" fill="none" stroke="#ed3a3a" stroke-width="3" stroke-dasharray="3"/>
    <path id="Trazado_12073" data-name="Trazado 12073" d="M6390.98,4071.035h134.894" transform="translate(-5721.175 1323)" fill="none" stroke="#ed3a3a" stroke-width="3" stroke-dasharray="3"/>
    <g id="Grupo_7712" data-name="Grupo 7712" transform="translate(-5 1702)">
      <circle id="Elipse_496" data-name="Elipse 496" cx="15" cy="15" r="15" transform="translate(244 3669)" fill="#00a99a"/>
      <text id="_1" data-name="1" transform="translate(259 3691)" fill="#fff" font-size="20" font-family="OpenSans-Bold, Open Sans" font-weight="700"><tspan x="-5.708" y="0">1</tspan></text>
    </g>
    <g id="Grupo_7713" data-name="Grupo 7713" transform="translate(167 1725)">
      <circle id="Elipse_496-2" data-name="Elipse 496" cx="15" cy="15" r="15" transform="translate(244 3669)" fill="#00a99a"/>
      <text id="_2" data-name="2" transform="translate(259 3691)" fill="#fff" font-size="20" font-family="OpenSans-Bold, Open Sans" font-weight="700"><tspan x="-5.708" y="0">2</tspan></text>
    </g>
    <g id="Grupo_7714" data-name="Grupo 7714" transform="translate(477 1655)">
      <circle id="Elipse_496-3" data-name="Elipse 496" cx="15" cy="15" r="15" transform="translate(244 3669)" fill="#00a99a"/>
      <text id="_3" data-name="3" transform="translate(259 3691)" fill="#fff" font-size="20" font-family="OpenSans-Bold, Open Sans" font-weight="700"><tspan x="-5.708" y="0">3</tspan></text>
    </g>
    <g id="Grupo_7715" data-name="Grupo 7715" transform="translate(477 1705)">
      <circle id="Elipse_496-4" data-name="Elipse 496" cx="15" cy="15" r="15" transform="translate(244 3669)" fill="#00a99a"/>
      <text id="_4" data-name="4" transform="translate(259 3691)" fill="#fff" font-size="20" font-family="OpenSans-Bold, Open Sans" font-weight="700"><tspan x="-5.708" y="0">4</tspan></text>
    </g>
    <path id="Trazado_13422" data-name="Trazado 13422" d="M12.031,0,10.076-5H3.781L1.848,0H0L6.209-15.77H7.745L13.922,0ZM9.507-6.639,7.681-11.5q-.354-.924-.73-2.267A20.354,20.354,0,0,1,6.273-11.5L4.426-6.639ZM23.869,0V-7.616a3.073,3.073,0,0,0-.655-2.148,2.669,2.669,0,0,0-2.052-.709,3.384,3.384,0,0,0-2.707,1,5.044,5.044,0,0,0-.859,3.3V0H15.813V-11.773h1.45l.29,1.611h.086a3.641,3.641,0,0,1,1.536-1.348,4.991,4.991,0,0,1,2.2-.478,4.472,4.472,0,0,1,3.2,1.026,4.366,4.366,0,0,1,1.074,3.282V0ZM34.021.215a5.025,5.025,0,0,1-3.958-1.574,6.472,6.472,0,0,1-1.4-4.453,6.673,6.673,0,0,1,1.423-4.565,5.125,5.125,0,0,1,4.055-1.611,8.047,8.047,0,0,1,1.7.183,5.591,5.591,0,0,1,1.332.43L36.62-9.861a8.385,8.385,0,0,0-1.289-.392,5.756,5.756,0,0,0-1.235-.156q-3.588,0-3.588,4.576a5.449,5.449,0,0,0,.875,3.33,3.046,3.046,0,0,0,2.594,1.16A7.932,7.932,0,0,0,37-1.977V-.4A6.433,6.433,0,0,1,34.021.215ZM47.846,0V-7.616a3.073,3.073,0,0,0-.655-2.148,2.669,2.669,0,0,0-2.052-.709,3.362,3.362,0,0,0-2.712,1.01,5.114,5.114,0,0,0-.854,3.309V0H39.789V-16.715h1.783v5.06a11.024,11.024,0,0,1-.086,1.515h.107a3.637,3.637,0,0,1,1.5-1.337,4.872,4.872,0,0,1,2.218-.489,4.543,4.543,0,0,1,3.239,1.026,4.32,4.32,0,0,1,1.08,3.26V0ZM63.454-5.9A6.5,6.5,0,0,1,62-1.4,5.107,5.107,0,0,1,58,.215a5.307,5.307,0,0,1-2.8-.741A4.892,4.892,0,0,1,53.3-2.653,7.413,7.413,0,0,1,52.637-5.9a6.485,6.485,0,0,1,1.439-4.485,5.091,5.091,0,0,1,4-1.606A4.981,4.981,0,0,1,62-10.345,6.467,6.467,0,0,1,63.454-5.9Zm-8.97,0a5.588,5.588,0,0,0,.9,3.438A3.132,3.132,0,0,0,58.04-1.278,3.153,3.153,0,0,0,60.7-2.455,5.56,5.56,0,0,0,61.606-5.9,5.47,5.47,0,0,0,60.7-9.308a3.189,3.189,0,0,0-2.68-1.166,3.139,3.139,0,0,0-2.643,1.149A5.532,5.532,0,0,0,54.484-5.9ZM80.309-1.579h-.1a4.19,4.19,0,0,1-3.7,1.794,4.371,4.371,0,0,1-3.593-1.579,6.951,6.951,0,0,1-1.284-4.49,7.068,7.068,0,0,1,1.289-4.522,4.338,4.338,0,0,1,3.588-1.611,4.281,4.281,0,0,1,3.674,1.74h.14l-.075-.849-.043-.827v-4.791H82V0h-1.45Zm-3.566.3a3.247,3.247,0,0,0,2.648-.994,5.021,5.021,0,0,0,.822-3.207v-.376a5.908,5.908,0,0,0-.833-3.572A3.161,3.161,0,0,0,76.721-10.5a2.729,2.729,0,0,0-2.4,1.219,6.062,6.062,0,0,0-.833,3.443,5.812,5.812,0,0,0,.827,3.405A2.8,2.8,0,0,0,76.742-1.278ZM90.75.215a5.409,5.409,0,0,1-4.12-1.59A6.155,6.155,0,0,1,85.121-5.79a6.826,6.826,0,0,1,1.4-4.522,4.657,4.657,0,0,1,3.765-1.676,4.44,4.44,0,0,1,3.5,1.456,5.579,5.579,0,0,1,1.289,3.84v1.128h-8.11a4.667,4.667,0,0,0,1.047,3.147,3.622,3.622,0,0,0,2.8,1.074,9.483,9.483,0,0,0,3.76-.795v1.59a9.437,9.437,0,0,1-1.789.585A10.051,10.051,0,0,1,90.75.215ZM90.267-10.5a2.912,2.912,0,0,0-2.261.924,4.258,4.258,0,0,0-.994,2.557h6.155A3.921,3.921,0,0,0,92.415-9.6,2.647,2.647,0,0,0,90.267-10.5ZM109.313.215a5.1,5.1,0,0,1-2.1-.424,3.949,3.949,0,0,1-1.6-1.305h-.129A15.792,15.792,0,0,1,105.617.44V5.285h-1.783V-11.773h1.45l.247,1.611h.086a4.141,4.141,0,0,1,1.6-1.4,4.866,4.866,0,0,1,2.095-.43,4.351,4.351,0,0,1,3.615,1.6A7.047,7.047,0,0,1,114.2-5.9a7.006,7.006,0,0,1-1.294,4.506A4.359,4.359,0,0,1,109.313.215Zm-.258-10.688a3.16,3.16,0,0,0-2.61,1,5.141,5.141,0,0,0-.827,3.18v.4a5.892,5.892,0,0,0,.827,3.55A3.146,3.146,0,0,0,109.1-1.278a2.759,2.759,0,0,0,2.39-1.235,5.858,5.858,0,0,0,.865-3.405,5.638,5.638,0,0,0-.865-3.378A2.844,2.844,0,0,0,109.055-10.474ZM122.289.215a5.409,5.409,0,0,1-4.12-1.59A6.155,6.155,0,0,1,116.66-5.79a6.826,6.826,0,0,1,1.4-4.522,4.657,4.657,0,0,1,3.765-1.676,4.44,4.44,0,0,1,3.5,1.456,5.579,5.579,0,0,1,1.289,3.84v1.128h-8.11a4.667,4.667,0,0,0,1.047,3.147,3.622,3.622,0,0,0,2.8,1.074,9.483,9.483,0,0,0,3.76-.795v1.59a9.437,9.437,0,0,1-1.789.585A10.051,10.051,0,0,1,122.289.215Zm-.483-10.71a2.912,2.912,0,0,0-2.261.924,4.258,4.258,0,0,0-.994,2.557h6.155a3.921,3.921,0,0,0-.752-2.583A2.647,2.647,0,0,0,121.806-10.5ZM134.363.215A5.025,5.025,0,0,1,130.4-1.359,6.472,6.472,0,0,1,129-5.812a6.673,6.673,0,0,1,1.423-4.565,5.125,5.125,0,0,1,4.055-1.611,8.047,8.047,0,0,1,1.7.183,5.591,5.591,0,0,1,1.332.43l-.548,1.515a8.384,8.384,0,0,0-1.289-.392,5.756,5.756,0,0,0-1.235-.156q-3.588,0-3.588,4.576a5.449,5.449,0,0,0,.875,3.33,3.046,3.046,0,0,0,2.594,1.16,7.932,7.932,0,0,0,3.019-.634V-.4A6.433,6.433,0,0,1,134.363.215ZM148.188,0V-7.616a3.073,3.073,0,0,0-.655-2.148,2.669,2.669,0,0,0-2.052-.709,3.362,3.362,0,0,0-2.712,1.01,5.114,5.114,0,0,0-.854,3.309V0h-1.783V-16.715h1.783v5.06a11.023,11.023,0,0,1-.086,1.515h.107a3.637,3.637,0,0,1,1.5-1.337,4.872,4.872,0,0,1,2.218-.489,4.543,4.543,0,0,1,3.239,1.026,4.32,4.32,0,0,1,1.08,3.26V0ZM163.8-5.9a6.5,6.5,0,0,1-1.45,4.5A5.107,5.107,0,0,1,158.34.215a5.307,5.307,0,0,1-2.8-.741,4.892,4.892,0,0,1-1.891-2.127,7.413,7.413,0,0,1-.666-3.244,6.485,6.485,0,0,1,1.439-4.485,5.091,5.091,0,0,1,4-1.606,4.981,4.981,0,0,1,3.926,1.644A6.467,6.467,0,0,1,163.8-5.9Zm-8.97,0a5.588,5.588,0,0,0,.9,3.438,3.132,3.132,0,0,0,2.653,1.182,3.153,3.153,0,0,0,2.659-1.176,5.56,5.56,0,0,0,.908-3.443,5.47,5.47,0,0,0-.908-3.411,3.189,3.189,0,0,0-2.68-1.166,3.139,3.139,0,0,0-2.643,1.149A5.532,5.532,0,0,0,154.827-5.9Z" transform="translate(299 5579)" fill="#00223d"/>
    <g id="Grupo_7716" data-name="Grupo 7716" transform="translate(-5 1886)">
      <circle id="Elipse_496-5" data-name="Elipse 496" cx="15" cy="15" r="15" transform="translate(244 3669)" fill="#00a99a"/>
      <text id="_1-2" data-name="1" transform="translate(259 3691)" fill="#fff" font-size="20" font-family="OpenSans-Bold, Open Sans" font-weight="700"><tspan x="-5.708" y="0">1</tspan></text>
    </g>
    <path id="Trazado_13424" data-name="Trazado 13424" d="M11.021-4.179a3.852,3.852,0,0,1-1.5,3.233A6.521,6.521,0,0,1,5.436.215a10.224,10.224,0,0,1-4.3-.72V-2.267a11.313,11.313,0,0,0,2.105.645A11.078,11.078,0,0,0,5.5-1.386a4.552,4.552,0,0,0,2.75-.693,2.274,2.274,0,0,0,.924-1.928,2.475,2.475,0,0,0-.328-1.337,3.044,3.044,0,0,0-1.1-.961,15.329,15.329,0,0,0-2.336-1A7.458,7.458,0,0,1,2.283-9.163a4.1,4.1,0,0,1-.94-2.8,3.487,3.487,0,0,1,1.364-2.89,5.669,5.669,0,0,1,3.609-1.074,10.637,10.637,0,0,1,4.308.859l-.569,1.59A9.735,9.735,0,0,0,6.273-14.3a3.659,3.659,0,0,0-2.267.623,2.053,2.053,0,0,0-.816,1.729,2.651,2.651,0,0,0,.3,1.337,2.832,2.832,0,0,0,1.015.956,12.613,12.613,0,0,0,2.186.961,8.654,8.654,0,0,1,3.4,1.891A3.719,3.719,0,0,1,11.021-4.179ZM18.938.215a5.409,5.409,0,0,1-4.12-1.59A6.155,6.155,0,0,1,13.31-5.79a6.826,6.826,0,0,1,1.4-4.522,4.657,4.657,0,0,1,3.765-1.676,4.44,4.44,0,0,1,3.5,1.456,5.579,5.579,0,0,1,1.289,3.84v1.128h-8.11A4.667,4.667,0,0,0,16.2-2.417,3.622,3.622,0,0,0,19-1.343a9.483,9.483,0,0,0,3.76-.795v1.59a9.437,9.437,0,0,1-1.789.585A10.051,10.051,0,0,1,18.938.215ZM18.455-10.5a2.912,2.912,0,0,0-2.261.924A4.258,4.258,0,0,0,15.2-7.015h6.155A3.921,3.921,0,0,0,20.6-9.6,2.647,2.647,0,0,0,18.455-10.5ZM31.786.215a5.1,5.1,0,0,1-2.1-.424,3.949,3.949,0,0,1-1.6-1.305h-.129A15.792,15.792,0,0,1,28.091.44V5.285H26.308V-11.773h1.45L28-10.162h.086a4.141,4.141,0,0,1,1.6-1.4,4.866,4.866,0,0,1,2.095-.43,4.351,4.351,0,0,1,3.615,1.6A7.047,7.047,0,0,1,36.674-5.9a7.006,7.006,0,0,1-1.294,4.506A4.359,4.359,0,0,1,31.786.215Zm-.258-10.688a3.16,3.16,0,0,0-2.61,1,5.141,5.141,0,0,0-.827,3.18v.4a5.892,5.892,0,0,0,.827,3.55,3.146,3.146,0,0,0,2.653,1.069,2.759,2.759,0,0,0,2.39-1.235,5.858,5.858,0,0,0,.865-3.405A5.638,5.638,0,0,0,33.961-9.3,2.844,2.844,0,0,0,31.528-10.474ZM47.029,0l-.354-1.676h-.086a4.954,4.954,0,0,1-1.756,1.5,5.353,5.353,0,0,1-2.186.392,3.932,3.932,0,0,1-2.745-.9,3.291,3.291,0,0,1-.994-2.567q0-3.566,5.7-3.738l2-.064v-.73a2.985,2.985,0,0,0-.6-2.046,2.452,2.452,0,0,0-1.907-.661,7.769,7.769,0,0,0-3.33.9l-.548-1.364a8.379,8.379,0,0,1,1.907-.741,8.258,8.258,0,0,1,2.079-.269,4.485,4.485,0,0,1,3.121.935,3.9,3.9,0,0,1,1.015,3V0ZM43-1.257a3.619,3.619,0,0,0,2.616-.913,3.378,3.378,0,0,0,.951-2.557V-5.79l-1.783.075a6.486,6.486,0,0,0-3.067.661,1.992,1.992,0,0,0-.94,1.821,1.837,1.837,0,0,0,.585,1.472A2.43,2.43,0,0,0,43-1.257ZM57.4-11.988a6.978,6.978,0,0,1,1.407.129l-.247,1.654a6.074,6.074,0,0,0-1.289-.161,3.138,3.138,0,0,0-2.444,1.16,4.23,4.23,0,0,0-1.015,2.89V0H52.024V-11.773H53.5l.2,2.181h.086a5.175,5.175,0,0,1,1.579-1.772A3.555,3.555,0,0,1,57.4-11.988ZM68.245,0l-.354-1.676H67.8a4.954,4.954,0,0,1-1.756,1.5,5.353,5.353,0,0,1-2.186.392,3.932,3.932,0,0,1-2.745-.9,3.291,3.291,0,0,1-.994-2.567q0-3.566,5.7-3.738l2-.064v-.73a2.985,2.985,0,0,0-.6-2.046,2.452,2.452,0,0,0-1.907-.661,7.769,7.769,0,0,0-3.33.9l-.548-1.364a8.379,8.379,0,0,1,1.907-.741,8.258,8.258,0,0,1,2.079-.269,4.485,4.485,0,0,1,3.121.935,3.9,3.9,0,0,1,1.015,3V0ZM64.217-1.257a3.619,3.619,0,0,0,2.616-.913,3.378,3.378,0,0,0,.951-2.557V-5.79L66-5.715a6.486,6.486,0,0,0-3.067.661,1.992,1.992,0,0,0-.94,1.821,1.837,1.837,0,0,0,.585,1.472A2.43,2.43,0,0,0,64.217-1.257ZM77.945.215a5.025,5.025,0,0,1-3.958-1.574,6.472,6.472,0,0,1-1.4-4.453,6.673,6.673,0,0,1,1.423-4.565,5.125,5.125,0,0,1,4.055-1.611,8.047,8.047,0,0,1,1.7.183,5.591,5.591,0,0,1,1.332.43l-.548,1.515a8.385,8.385,0,0,0-1.289-.392,5.756,5.756,0,0,0-1.235-.156q-3.588,0-3.588,4.576a5.449,5.449,0,0,0,.875,3.33A3.046,3.046,0,0,0,77.9-1.343a7.932,7.932,0,0,0,3.019-.634V-.4A6.433,6.433,0,0,1,77.945.215ZM85.5,0H83.714V-11.773H85.5ZM83.563-14.964a1.184,1.184,0,0,1,.3-.9,1.051,1.051,0,0,1,.752-.285,1.051,1.051,0,0,1,.741.29,1.163,1.163,0,0,1,.312.892,1.181,1.181,0,0,1-.312.9,1.04,1.04,0,0,1-.741.3,1.03,1.03,0,0,1-.752-.3A1.206,1.206,0,0,1,83.563-14.964ZM99.44-5.9a6.5,6.5,0,0,1-1.45,4.5A5.107,5.107,0,0,1,93.983.215a5.307,5.307,0,0,1-2.8-.741,4.892,4.892,0,0,1-1.891-2.127A7.413,7.413,0,0,1,88.623-5.9a6.485,6.485,0,0,1,1.439-4.485,5.091,5.091,0,0,1,4-1.606,4.981,4.981,0,0,1,3.926,1.644A6.467,6.467,0,0,1,99.44-5.9Zm-8.97,0a5.588,5.588,0,0,0,.9,3.438,3.132,3.132,0,0,0,2.653,1.182,3.153,3.153,0,0,0,2.659-1.176A5.56,5.56,0,0,0,97.593-5.9a5.47,5.47,0,0,0-.908-3.411A3.189,3.189,0,0,0,94-10.474a3.139,3.139,0,0,0-2.643,1.149A5.532,5.532,0,0,0,90.471-5.9Zm2.063-7.7q.516-.666,1.112-1.611a18.44,18.44,0,0,0,.94-1.644h2.17v.226a15.879,15.879,0,0,1-1.407,1.719,15.976,15.976,0,0,1-1.622,1.579H92.533ZM110.623,0V-7.616a3.073,3.073,0,0,0-.655-2.148,2.669,2.669,0,0,0-2.052-.709,3.384,3.384,0,0,0-2.707,1,5.044,5.044,0,0,0-.859,3.3V0h-1.783V-11.773h1.45l.29,1.611h.086a3.641,3.641,0,0,1,1.536-1.348,4.991,4.991,0,0,1,2.2-.478,4.472,4.472,0,0,1,3.2,1.026,4.366,4.366,0,0,1,1.074,3.282V0ZM129.8-1.579h-.1a4.19,4.19,0,0,1-3.7,1.794,4.371,4.371,0,0,1-3.593-1.579,6.951,6.951,0,0,1-1.284-4.49,7.068,7.068,0,0,1,1.289-4.522,4.338,4.338,0,0,1,3.588-1.611,4.281,4.281,0,0,1,3.674,1.74h.14l-.075-.849-.043-.827v-4.791h1.783V0h-1.45Zm-3.566.3a3.247,3.247,0,0,0,2.648-.994,5.021,5.021,0,0,0,.822-3.207v-.376a5.908,5.908,0,0,0-.833-3.572A3.161,3.161,0,0,0,126.21-10.5a2.729,2.729,0,0,0-2.4,1.219,6.062,6.062,0,0,0-.833,3.443,5.812,5.812,0,0,0,.827,3.405A2.8,2.8,0,0,0,126.231-1.278ZM140.239.215a5.409,5.409,0,0,1-4.12-1.59A6.155,6.155,0,0,1,134.61-5.79a6.826,6.826,0,0,1,1.4-4.522,4.657,4.657,0,0,1,3.765-1.676,4.44,4.44,0,0,1,3.5,1.456,5.579,5.579,0,0,1,1.289,3.84v1.128h-8.11a4.667,4.667,0,0,0,1.047,3.147,3.622,3.622,0,0,0,2.8,1.074,9.483,9.483,0,0,0,3.76-.795v1.59a9.436,9.436,0,0,1-1.789.585A10.051,10.051,0,0,1,140.239.215Zm-.483-10.71a2.912,2.912,0,0,0-2.261.924,4.258,4.258,0,0,0-.994,2.557h6.155A3.921,3.921,0,0,0,141.9-9.6,2.647,2.647,0,0,0,139.756-10.5ZM158.8-11.967a4.377,4.377,0,0,1,3.6,1.584A6.955,6.955,0,0,1,163.689-5.9,7.005,7.005,0,0,1,162.4-1.391,4.359,4.359,0,0,1,158.8.215a5.1,5.1,0,0,1-2.1-.424,3.949,3.949,0,0,1-1.6-1.305h-.129L154.6,0h-1.278V-16.715h1.783v4.061q0,1.364-.086,2.449h.086A4.233,4.233,0,0,1,158.8-11.967Zm-.258,1.493a3.113,3.113,0,0,0-2.632,1.047,5.908,5.908,0,0,0-.806,3.529,5.892,5.892,0,0,0,.827,3.55,3.146,3.146,0,0,0,2.653,1.069,2.75,2.75,0,0,0,2.449-1.2,6.156,6.156,0,0,0,.806-3.443,5.916,5.916,0,0,0-.806-3.427A2.855,2.855,0,0,0,158.544-10.474Zm9.937-1.3v7.638a3.073,3.073,0,0,0,.655,2.148,2.669,2.669,0,0,0,2.052.709,3.348,3.348,0,0,0,2.7-1.01,5.094,5.094,0,0,0,.854-3.3v-6.187h1.783V0h-1.472L174.8-1.579h-.1a3.554,3.554,0,0,1-1.52,1.332,5.109,5.109,0,0,1-2.218.462,4.5,4.5,0,0,1-3.217-1.021,4.344,4.344,0,0,1-1.069-3.266v-7.7ZM187.9-3.212a2.949,2.949,0,0,1-1.225,2.535,5.756,5.756,0,0,1-3.437.892,7.475,7.475,0,0,1-3.652-.741V-2.181a8.832,8.832,0,0,0,1.821.677,7.6,7.6,0,0,0,1.875.247,4.251,4.251,0,0,0,2.148-.446,1.474,1.474,0,0,0,.752-1.359,1.475,1.475,0,0,0-.6-1.176,9.378,9.378,0,0,0-2.326-1.155,12.611,12.611,0,0,1-2.336-1.069A3.192,3.192,0,0,1,179.894-7.5a2.7,2.7,0,0,1-.338-1.386,2.642,2.642,0,0,1,1.171-2.272,5.456,5.456,0,0,1,3.212-.833,9.4,9.4,0,0,1,3.717.773l-.634,1.45a8.532,8.532,0,0,0-3.212-.73,3.7,3.7,0,0,0-1.912.4,1.229,1.229,0,0,0-.645,1.1,1.334,1.334,0,0,0,.242.806,2.385,2.385,0,0,0,.779.634,17.405,17.405,0,0,0,2.063.87,7.705,7.705,0,0,1,2.831,1.536A2.709,2.709,0,0,1,187.9-3.212Zm6.7,1.955a5.825,5.825,0,0,0,.913-.07,5.91,5.91,0,0,0,.7-.145V-.107a3.26,3.26,0,0,1-.854.231,6.413,6.413,0,0,1-1.015.091q-3.416,0-3.416-3.6v-7h-1.687v-.859l1.687-.741.752-2.514h1.031v2.729h3.416v1.386h-3.416v6.929a2.384,2.384,0,0,0,.5,1.633A1.757,1.757,0,0,0,194.605-1.257ZM208.731-5.9a6.5,6.5,0,0,1-1.45,4.5A5.107,5.107,0,0,1,203.274.215a5.307,5.307,0,0,1-2.8-.741,4.892,4.892,0,0,1-1.891-2.127,7.413,7.413,0,0,1-.666-3.244,6.485,6.485,0,0,1,1.439-4.485,5.091,5.091,0,0,1,4-1.606,4.981,4.981,0,0,1,3.926,1.644A6.467,6.467,0,0,1,208.731-5.9Zm-8.97,0a5.588,5.588,0,0,0,.9,3.438,3.132,3.132,0,0,0,2.653,1.182,3.153,3.153,0,0,0,2.659-1.176,5.56,5.56,0,0,0,.908-3.443,5.47,5.47,0,0,0-.908-3.411,3.189,3.189,0,0,0-2.68-1.166,3.139,3.139,0,0,0-2.643,1.149A5.532,5.532,0,0,0,199.762-5.9Z" transform="translate(299 5622)" fill="#00223d"/>
    <g id="Grupo_7717" data-name="Grupo 7717" transform="translate(-5 1929)">
      <circle id="Elipse_496-6" data-name="Elipse 496" cx="15" cy="15" r="15" transform="translate(244 3669)" fill="#00a99a"/>
      <text id="_2-2" data-name="2" transform="translate(259 3691)" fill="#fff" font-size="20" font-family="OpenSans-Bold, Open Sans" font-weight="700"><tspan x="-5.708" y="0">2</tspan></text>
    </g>
    <path id="Trazado_13423" data-name="Trazado 13423" d="M11.021-4.179a3.852,3.852,0,0,1-1.5,3.233A6.521,6.521,0,0,1,5.436.215a10.224,10.224,0,0,1-4.3-.72V-2.267a11.313,11.313,0,0,0,2.105.645A11.078,11.078,0,0,0,5.5-1.386a4.552,4.552,0,0,0,2.75-.693,2.274,2.274,0,0,0,.924-1.928,2.475,2.475,0,0,0-.328-1.337,3.044,3.044,0,0,0-1.1-.961,15.329,15.329,0,0,0-2.336-1A7.458,7.458,0,0,1,2.283-9.163a4.1,4.1,0,0,1-.94-2.8,3.487,3.487,0,0,1,1.364-2.89,5.669,5.669,0,0,1,3.609-1.074,10.637,10.637,0,0,1,4.308.859l-.569,1.59A9.735,9.735,0,0,0,6.273-14.3a3.659,3.659,0,0,0-2.267.623,2.053,2.053,0,0,0-.816,1.729,2.651,2.651,0,0,0,.3,1.337,2.832,2.832,0,0,0,1.015.956,12.613,12.613,0,0,0,2.186.961,8.654,8.654,0,0,1,3.4,1.891A3.719,3.719,0,0,1,11.021-4.179ZM18.938.215a5.409,5.409,0,0,1-4.12-1.59A6.155,6.155,0,0,1,13.31-5.79a6.826,6.826,0,0,1,1.4-4.522,4.657,4.657,0,0,1,3.765-1.676,4.44,4.44,0,0,1,3.5,1.456,5.579,5.579,0,0,1,1.289,3.84v1.128h-8.11A4.667,4.667,0,0,0,16.2-2.417,3.622,3.622,0,0,0,19-1.343a9.483,9.483,0,0,0,3.76-.795v1.59a9.437,9.437,0,0,1-1.789.585A10.051,10.051,0,0,1,18.938.215ZM18.455-10.5a2.912,2.912,0,0,0-2.261.924A4.258,4.258,0,0,0,15.2-7.015h6.155A3.921,3.921,0,0,0,20.6-9.6,2.647,2.647,0,0,0,18.455-10.5ZM31.786.215a5.1,5.1,0,0,1-2.1-.424,3.949,3.949,0,0,1-1.6-1.305h-.129A15.792,15.792,0,0,1,28.091.44V5.285H26.308V-11.773h1.45L28-10.162h.086a4.141,4.141,0,0,1,1.6-1.4,4.866,4.866,0,0,1,2.095-.43,4.351,4.351,0,0,1,3.615,1.6A7.047,7.047,0,0,1,36.674-5.9a7.006,7.006,0,0,1-1.294,4.506A4.359,4.359,0,0,1,31.786.215Zm-.258-10.688a3.16,3.16,0,0,0-2.61,1,5.141,5.141,0,0,0-.827,3.18v.4a5.892,5.892,0,0,0,.827,3.55,3.146,3.146,0,0,0,2.653,1.069,2.759,2.759,0,0,0,2.39-1.235,5.858,5.858,0,0,0,.865-3.405A5.638,5.638,0,0,0,33.961-9.3,2.844,2.844,0,0,0,31.528-10.474ZM47.029,0l-.354-1.676h-.086a4.954,4.954,0,0,1-1.756,1.5,5.353,5.353,0,0,1-2.186.392,3.932,3.932,0,0,1-2.745-.9,3.291,3.291,0,0,1-.994-2.567q0-3.566,5.7-3.738l2-.064v-.73a2.985,2.985,0,0,0-.6-2.046,2.452,2.452,0,0,0-1.907-.661,7.769,7.769,0,0,0-3.33.9l-.548-1.364a8.379,8.379,0,0,1,1.907-.741,8.258,8.258,0,0,1,2.079-.269,4.485,4.485,0,0,1,3.121.935,3.9,3.9,0,0,1,1.015,3V0ZM43-1.257a3.619,3.619,0,0,0,2.616-.913,3.378,3.378,0,0,0,.951-2.557V-5.79l-1.783.075a6.486,6.486,0,0,0-3.067.661,1.992,1.992,0,0,0-.94,1.821,1.837,1.837,0,0,0,.585,1.472A2.43,2.43,0,0,0,43-1.257ZM57.4-11.988a6.978,6.978,0,0,1,1.407.129l-.247,1.654a6.074,6.074,0,0,0-1.289-.161,3.138,3.138,0,0,0-2.444,1.16,4.23,4.23,0,0,0-1.015,2.89V0H52.024V-11.773H53.5l.2,2.181h.086a5.175,5.175,0,0,1,1.579-1.772A3.555,3.555,0,0,1,57.4-11.988ZM68.245,0l-.354-1.676H67.8a4.954,4.954,0,0,1-1.756,1.5,5.353,5.353,0,0,1-2.186.392,3.932,3.932,0,0,1-2.745-.9,3.291,3.291,0,0,1-.994-2.567q0-3.566,5.7-3.738l2-.064v-.73a2.985,2.985,0,0,0-.6-2.046,2.452,2.452,0,0,0-1.907-.661,7.769,7.769,0,0,0-3.33.9l-.548-1.364a8.379,8.379,0,0,1,1.907-.741,8.258,8.258,0,0,1,2.079-.269,4.485,4.485,0,0,1,3.121.935,3.9,3.9,0,0,1,1.015,3V0ZM64.217-1.257a3.619,3.619,0,0,0,2.616-.913,3.378,3.378,0,0,0,.951-2.557V-5.79L66-5.715a6.486,6.486,0,0,0-3.067.661,1.992,1.992,0,0,0-.94,1.821,1.837,1.837,0,0,0,.585,1.472A2.43,2.43,0,0,0,64.217-1.257ZM77.945.215a5.025,5.025,0,0,1-3.958-1.574,6.472,6.472,0,0,1-1.4-4.453,6.673,6.673,0,0,1,1.423-4.565,5.125,5.125,0,0,1,4.055-1.611,8.047,8.047,0,0,1,1.7.183,5.591,5.591,0,0,1,1.332.43l-.548,1.515a8.385,8.385,0,0,0-1.289-.392,5.756,5.756,0,0,0-1.235-.156q-3.588,0-3.588,4.576a5.449,5.449,0,0,0,.875,3.33A3.046,3.046,0,0,0,77.9-1.343a7.932,7.932,0,0,0,3.019-.634V-.4A6.433,6.433,0,0,1,77.945.215ZM85.5,0H83.714V-11.773H85.5ZM83.563-14.964a1.184,1.184,0,0,1,.3-.9,1.051,1.051,0,0,1,.752-.285,1.051,1.051,0,0,1,.741.29,1.163,1.163,0,0,1,.312.892,1.181,1.181,0,0,1-.312.9,1.04,1.04,0,0,1-.741.3,1.03,1.03,0,0,1-.752-.3A1.206,1.206,0,0,1,83.563-14.964ZM99.44-5.9a6.5,6.5,0,0,1-1.45,4.5A5.107,5.107,0,0,1,93.983.215a5.307,5.307,0,0,1-2.8-.741,4.892,4.892,0,0,1-1.891-2.127A7.413,7.413,0,0,1,88.623-5.9a6.485,6.485,0,0,1,1.439-4.485,5.091,5.091,0,0,1,4-1.606,4.981,4.981,0,0,1,3.926,1.644A6.467,6.467,0,0,1,99.44-5.9Zm-8.97,0a5.588,5.588,0,0,0,.9,3.438,3.132,3.132,0,0,0,2.653,1.182,3.153,3.153,0,0,0,2.659-1.176A5.56,5.56,0,0,0,97.593-5.9a5.47,5.47,0,0,0-.908-3.411A3.189,3.189,0,0,0,94-10.474a3.139,3.139,0,0,0-2.643,1.149A5.532,5.532,0,0,0,90.471-5.9Zm2.063-7.7q.516-.666,1.112-1.611a18.44,18.44,0,0,0,.94-1.644h2.17v.226a15.879,15.879,0,0,1-1.407,1.719,15.976,15.976,0,0,1-1.622,1.579H92.533ZM110.623,0V-7.616a3.073,3.073,0,0,0-.655-2.148,2.669,2.669,0,0,0-2.052-.709,3.384,3.384,0,0,0-2.707,1,5.044,5.044,0,0,0-.859,3.3V0h-1.783V-11.773h1.45l.29,1.611h.086a3.641,3.641,0,0,1,1.536-1.348,4.991,4.991,0,0,1,2.2-.478,4.472,4.472,0,0,1,3.2,1.026,4.366,4.366,0,0,1,1.074,3.282V0ZM129.8-1.579h-.1a4.19,4.19,0,0,1-3.7,1.794,4.371,4.371,0,0,1-3.593-1.579,6.951,6.951,0,0,1-1.284-4.49,7.068,7.068,0,0,1,1.289-4.522,4.338,4.338,0,0,1,3.588-1.611,4.281,4.281,0,0,1,3.674,1.74h.14l-.075-.849-.043-.827v-4.791h1.783V0h-1.45Zm-3.566.3a3.247,3.247,0,0,0,2.648-.994,5.021,5.021,0,0,0,.822-3.207v-.376a5.908,5.908,0,0,0-.833-3.572A3.161,3.161,0,0,0,126.21-10.5a2.729,2.729,0,0,0-2.4,1.219,6.062,6.062,0,0,0-.833,3.443,5.812,5.812,0,0,0,.827,3.405A2.8,2.8,0,0,0,126.231-1.278ZM140.239.215a5.409,5.409,0,0,1-4.12-1.59A6.155,6.155,0,0,1,134.61-5.79a6.826,6.826,0,0,1,1.4-4.522,4.657,4.657,0,0,1,3.765-1.676,4.44,4.44,0,0,1,3.5,1.456,5.579,5.579,0,0,1,1.289,3.84v1.128h-8.11a4.667,4.667,0,0,0,1.047,3.147,3.622,3.622,0,0,0,2.8,1.074,9.483,9.483,0,0,0,3.76-.795v1.59a9.436,9.436,0,0,1-1.789.585A10.051,10.051,0,0,1,140.239.215Zm-.483-10.71a2.912,2.912,0,0,0-2.261.924,4.258,4.258,0,0,0-.994,2.557h6.155A3.921,3.921,0,0,0,141.9-9.6,2.647,2.647,0,0,0,139.756-10.5ZM161.38,0V-7.616a3.073,3.073,0,0,0-.655-2.148,2.669,2.669,0,0,0-2.052-.709,3.362,3.362,0,0,0-2.712,1.01,5.114,5.114,0,0,0-.854,3.309V0h-1.783V-16.715h1.783v5.06a11.023,11.023,0,0,1-.086,1.515h.107a3.637,3.637,0,0,1,1.5-1.337,4.872,4.872,0,0,1,2.218-.489,4.543,4.543,0,0,1,3.239,1.026,4.32,4.32,0,0,1,1.08,3.26V0Zm15.608-5.9a6.5,6.5,0,0,1-1.45,4.5A5.107,5.107,0,0,1,171.531.215a5.307,5.307,0,0,1-2.8-.741,4.892,4.892,0,0,1-1.891-2.127,7.413,7.413,0,0,1-.666-3.244,6.485,6.485,0,0,1,1.439-4.485,5.091,5.091,0,0,1,4-1.606,4.981,4.981,0,0,1,3.926,1.644A6.467,6.467,0,0,1,176.988-5.9Zm-8.97,0a5.588,5.588,0,0,0,.9,3.438,3.132,3.132,0,0,0,2.653,1.182,3.153,3.153,0,0,0,2.659-1.176,5.56,5.56,0,0,0,.908-3.443,5.47,5.47,0,0,0-.908-3.411,3.189,3.189,0,0,0-2.68-1.166,3.139,3.139,0,0,0-2.643,1.149A5.532,5.532,0,0,0,168.019-5.9Zm27.1,5.9V-7.659a3.179,3.179,0,0,0-.6-2.111,2.327,2.327,0,0,0-1.869-.7,3.018,3.018,0,0,0-2.46.956,4.544,4.544,0,0,0-.795,2.943V0h-1.783V-7.659a3.179,3.179,0,0,0-.6-2.111,2.341,2.341,0,0,0-1.88-.7,2.912,2.912,0,0,0-2.455,1,5.436,5.436,0,0,0-.779,3.292V0h-1.783V-11.773h1.45l.29,1.611h.086a3.5,3.5,0,0,1,1.423-1.343,4.348,4.348,0,0,1,2.057-.483q2.761,0,3.609,2h.086a3.754,3.754,0,0,1,1.525-1.461,4.733,4.733,0,0,1,2.277-.537,3.987,3.987,0,0,1,2.992,1.026,4.589,4.589,0,0,1,.994,3.282V0Zm10.936-11.967a4.377,4.377,0,0,1,3.6,1.584A6.955,6.955,0,0,1,210.944-5.9a7.005,7.005,0,0,1-1.294,4.506A4.359,4.359,0,0,1,206.057.215a5.1,5.1,0,0,1-2.1-.424,3.949,3.949,0,0,1-1.6-1.305h-.129L201.856,0h-1.278V-16.715h1.783v4.061q0,1.364-.086,2.449h.086A4.233,4.233,0,0,1,206.057-11.967Zm-.258,1.493a3.113,3.113,0,0,0-2.632,1.047,5.908,5.908,0,0,0-.806,3.529,5.892,5.892,0,0,0,.827,3.55,3.146,3.146,0,0,0,2.653,1.069,2.75,2.75,0,0,0,2.449-1.2,6.156,6.156,0,0,0,.806-3.443,5.916,5.916,0,0,0-.806-3.427A2.855,2.855,0,0,0,205.8-10.474Zm13.632-1.515a6.978,6.978,0,0,1,1.407.129l-.247,1.654a6.074,6.074,0,0,0-1.289-.161,3.138,3.138,0,0,0-2.444,1.16,4.23,4.23,0,0,0-1.015,2.89V0H214.06V-11.773h1.472l.2,2.181h.086a5.175,5.175,0,0,1,1.579-1.772A3.555,3.555,0,0,1,219.431-11.988ZM233.2-5.9a6.5,6.5,0,0,1-1.45,4.5A5.107,5.107,0,0,1,227.745.215a5.307,5.307,0,0,1-2.8-.741,4.892,4.892,0,0,1-1.891-2.127,7.413,7.413,0,0,1-.666-3.244,6.485,6.485,0,0,1,1.439-4.485,5.091,5.091,0,0,1,4-1.606,4.981,4.981,0,0,1,3.926,1.644A6.467,6.467,0,0,1,233.2-5.9Zm-8.97,0a5.588,5.588,0,0,0,.9,3.438,3.132,3.132,0,0,0,2.653,1.182,3.153,3.153,0,0,0,2.659-1.176,5.56,5.56,0,0,0,.908-3.443,5.47,5.47,0,0,0-.908-3.411,3.189,3.189,0,0,0-2.68-1.166,3.139,3.139,0,0,0-2.643,1.149A5.532,5.532,0,0,0,224.232-5.9Zm19.69,2.686A2.949,2.949,0,0,1,242.7-.677a5.756,5.756,0,0,1-3.437.892,7.475,7.475,0,0,1-3.652-.741V-2.181a8.832,8.832,0,0,0,1.821.677,7.6,7.6,0,0,0,1.875.247,4.251,4.251,0,0,0,2.148-.446,1.474,1.474,0,0,0,.752-1.359,1.475,1.475,0,0,0-.6-1.176,9.378,9.378,0,0,0-2.326-1.155,12.611,12.611,0,0,1-2.336-1.069A3.192,3.192,0,0,1,235.915-7.5a2.7,2.7,0,0,1-.338-1.386,2.642,2.642,0,0,1,1.171-2.272,5.456,5.456,0,0,1,3.212-.833,9.4,9.4,0,0,1,3.717.773l-.634,1.45a8.532,8.532,0,0,0-3.212-.73,3.7,3.7,0,0,0-1.912.4,1.229,1.229,0,0,0-.645,1.1,1.334,1.334,0,0,0,.242.806,2.385,2.385,0,0,0,.779.634,17.405,17.405,0,0,0,2.063.87,7.705,7.705,0,0,1,2.831,1.536A2.709,2.709,0,0,1,243.923-3.212Z" transform="translate(684 5579)" fill="#00223d"/>
    <g id="Grupo_7718" data-name="Grupo 7718" transform="translate(380 1886)">
      <circle id="Elipse_496-7" data-name="Elipse 496" cx="15" cy="15" r="15" transform="translate(244 3669)" fill="#00a99a"/>
      <text id="_3-2" data-name="3" transform="translate(259 3691)" fill="#fff" font-size="20" font-family="OpenSans-Bold, Open Sans" font-weight="700"><tspan x="-5.708" y="0">3</tspan></text>
    </g>
    <path id="Trazado_13425" data-name="Trazado 13425" d="M12.031,0,10.076-5H3.781L1.848,0H0L6.209-15.77H7.745L13.922,0ZM9.507-6.639,7.681-11.5q-.354-.924-.73-2.267A20.354,20.354,0,0,1,6.273-11.5L4.426-6.639ZM23.869,0V-7.616a3.073,3.073,0,0,0-.655-2.148,2.669,2.669,0,0,0-2.052-.709,3.384,3.384,0,0,0-2.707,1,5.044,5.044,0,0,0-.859,3.3V0H15.813V-11.773h1.45l.29,1.611h.086a3.641,3.641,0,0,1,1.536-1.348,4.991,4.991,0,0,1,2.2-.478,4.472,4.472,0,0,1,3.2,1.026,4.366,4.366,0,0,1,1.074,3.282V0ZM34.021.215a5.025,5.025,0,0,1-3.958-1.574,6.472,6.472,0,0,1-1.4-4.453,6.673,6.673,0,0,1,1.423-4.565,5.125,5.125,0,0,1,4.055-1.611,8.047,8.047,0,0,1,1.7.183,5.591,5.591,0,0,1,1.332.43L36.62-9.861a8.385,8.385,0,0,0-1.289-.392,5.756,5.756,0,0,0-1.235-.156q-3.588,0-3.588,4.576a5.449,5.449,0,0,0,.875,3.33,3.046,3.046,0,0,0,2.594,1.16A7.932,7.932,0,0,0,37-1.977V-.4A6.433,6.433,0,0,1,34.021.215ZM47.846,0V-7.616a3.073,3.073,0,0,0-.655-2.148,2.669,2.669,0,0,0-2.052-.709,3.362,3.362,0,0,0-2.712,1.01,5.114,5.114,0,0,0-.854,3.309V0H39.789V-16.715h1.783v5.06a11.024,11.024,0,0,1-.086,1.515h.107a3.637,3.637,0,0,1,1.5-1.337,4.872,4.872,0,0,1,2.218-.489,4.543,4.543,0,0,1,3.239,1.026,4.32,4.32,0,0,1,1.08,3.26V0ZM63.454-5.9A6.5,6.5,0,0,1,62-1.4,5.107,5.107,0,0,1,58,.215a5.307,5.307,0,0,1-2.8-.741A4.892,4.892,0,0,1,53.3-2.653,7.413,7.413,0,0,1,52.637-5.9a6.485,6.485,0,0,1,1.439-4.485,5.091,5.091,0,0,1,4-1.606A4.981,4.981,0,0,1,62-10.345,6.467,6.467,0,0,1,63.454-5.9Zm-8.97,0a5.588,5.588,0,0,0,.9,3.438A3.132,3.132,0,0,0,58.04-1.278,3.153,3.153,0,0,0,60.7-2.455,5.56,5.56,0,0,0,61.606-5.9,5.47,5.47,0,0,0,60.7-9.308a3.189,3.189,0,0,0-2.68-1.166,3.139,3.139,0,0,0-2.643,1.149A5.532,5.532,0,0,0,54.484-5.9ZM80.309-1.579h-.1a4.19,4.19,0,0,1-3.7,1.794,4.371,4.371,0,0,1-3.593-1.579,6.951,6.951,0,0,1-1.284-4.49,7.068,7.068,0,0,1,1.289-4.522,4.338,4.338,0,0,1,3.588-1.611,4.281,4.281,0,0,1,3.674,1.74h.14l-.075-.849-.043-.827v-4.791H82V0h-1.45Zm-3.566.3a3.247,3.247,0,0,0,2.648-.994,5.021,5.021,0,0,0,.822-3.207v-.376a5.908,5.908,0,0,0-.833-3.572A3.161,3.161,0,0,0,76.721-10.5a2.729,2.729,0,0,0-2.4,1.219,6.062,6.062,0,0,0-.833,3.443,5.812,5.812,0,0,0,.827,3.405A2.8,2.8,0,0,0,76.742-1.278ZM90.75.215a5.409,5.409,0,0,1-4.12-1.59A6.155,6.155,0,0,1,85.121-5.79a6.826,6.826,0,0,1,1.4-4.522,4.657,4.657,0,0,1,3.765-1.676,4.44,4.44,0,0,1,3.5,1.456,5.579,5.579,0,0,1,1.289,3.84v1.128h-8.11a4.667,4.667,0,0,0,1.047,3.147,3.622,3.622,0,0,0,2.8,1.074,9.483,9.483,0,0,0,3.76-.795v1.59a9.437,9.437,0,0,1-1.789.585A10.051,10.051,0,0,1,90.75.215ZM90.267-10.5a2.912,2.912,0,0,0-2.261.924,4.258,4.258,0,0,0-.994,2.557h6.155A3.921,3.921,0,0,0,92.415-9.6,2.647,2.647,0,0,0,90.267-10.5ZM108.808.215a5.409,5.409,0,0,1-4.12-1.59,6.155,6.155,0,0,1-1.509-4.415,6.826,6.826,0,0,1,1.4-4.522,4.657,4.657,0,0,1,3.765-1.676,4.44,4.44,0,0,1,3.5,1.456,5.579,5.579,0,0,1,1.289,3.84v1.128h-8.11a4.667,4.667,0,0,0,1.047,3.147,3.622,3.622,0,0,0,2.8,1.074,9.483,9.483,0,0,0,3.76-.795v1.59a9.437,9.437,0,0,1-1.789.585A10.051,10.051,0,0,1,108.808.215Zm-.483-10.71a2.912,2.912,0,0,0-2.261.924,4.258,4.258,0,0,0-.994,2.557h6.155a3.921,3.921,0,0,0-.752-2.583A2.647,2.647,0,0,0,108.324-10.5Zm15.447,7.283a2.949,2.949,0,0,1-1.225,2.535,5.756,5.756,0,0,1-3.437.892,7.475,7.475,0,0,1-3.652-.741V-2.181a8.833,8.833,0,0,0,1.821.677,7.6,7.6,0,0,0,1.875.247A4.251,4.251,0,0,0,121.3-1.7a1.474,1.474,0,0,0,.752-1.359,1.475,1.475,0,0,0-.6-1.176,9.378,9.378,0,0,0-2.326-1.155,12.611,12.611,0,0,1-2.336-1.069A3.192,3.192,0,0,1,115.763-7.5a2.7,2.7,0,0,1-.338-1.386,2.642,2.642,0,0,1,1.171-2.272,5.456,5.456,0,0,1,3.212-.833,9.4,9.4,0,0,1,3.717.773l-.634,1.45a8.532,8.532,0,0,0-3.212-.73,3.7,3.7,0,0,0-1.912.4,1.229,1.229,0,0,0-.645,1.1,1.334,1.334,0,0,0,.242.806,2.385,2.385,0,0,0,.779.634,17.4,17.4,0,0,0,2.063.87,7.705,7.705,0,0,1,2.831,1.536A2.709,2.709,0,0,1,123.771-3.212ZM132.15.215a5.1,5.1,0,0,1-2.1-.424,3.949,3.949,0,0,1-1.6-1.305h-.129A15.792,15.792,0,0,1,128.455.44V5.285h-1.783V-11.773h1.45l.247,1.611h.086a4.141,4.141,0,0,1,1.6-1.4,4.866,4.866,0,0,1,2.095-.43,4.351,4.351,0,0,1,3.615,1.6,7.047,7.047,0,0,1,1.273,4.49,7.005,7.005,0,0,1-1.294,4.506A4.359,4.359,0,0,1,132.15.215Zm-.258-10.688a3.16,3.16,0,0,0-2.61,1,5.141,5.141,0,0,0-.827,3.18v.4a5.892,5.892,0,0,0,.827,3.55,3.146,3.146,0,0,0,2.653,1.069,2.759,2.759,0,0,0,2.39-1.235,5.858,5.858,0,0,0,.865-3.405,5.638,5.638,0,0,0-.865-3.378A2.844,2.844,0,0,0,131.893-10.474ZM147.394,0l-.354-1.676h-.086a4.954,4.954,0,0,1-1.756,1.5,5.353,5.353,0,0,1-2.186.392,3.932,3.932,0,0,1-2.745-.9,3.291,3.291,0,0,1-.994-2.567q0-3.566,5.7-3.738l2-.064v-.73a2.985,2.985,0,0,0-.6-2.046,2.452,2.452,0,0,0-1.907-.661,7.769,7.769,0,0,0-3.33.9l-.548-1.364A8.379,8.379,0,0,1,142.5-11.7a8.258,8.258,0,0,1,2.079-.269,4.485,4.485,0,0,1,3.121.935,3.9,3.9,0,0,1,1.015,3V0Zm-4.028-1.257a3.619,3.619,0,0,0,2.616-.913,3.378,3.378,0,0,0,.951-2.557V-5.79l-1.783.075a6.486,6.486,0,0,0-3.067.661,1.992,1.992,0,0,0-.94,1.821,1.837,1.837,0,0,0,.585,1.472A2.43,2.43,0,0,0,143.365-1.257ZM154.172,0h-1.783V-16.715h1.783Zm11.795-1.579h-.1a4.19,4.19,0,0,1-3.7,1.794,4.371,4.371,0,0,1-3.593-1.579,6.951,6.951,0,0,1-1.284-4.49,7.068,7.068,0,0,1,1.289-4.522,4.338,4.338,0,0,1,3.588-1.611,4.281,4.281,0,0,1,3.674,1.74h.14l-.075-.849-.043-.827v-4.791h1.783V0H166.2Zm-3.566.3a3.247,3.247,0,0,0,2.648-.994,5.021,5.021,0,0,0,.822-3.207v-.376a5.908,5.908,0,0,0-.833-3.572,3.161,3.161,0,0,0-2.659-1.069,2.729,2.729,0,0,0-2.4,1.219,6.063,6.063,0,0,0-.833,3.443,5.812,5.812,0,0,0,.827,3.405A2.8,2.8,0,0,0,162.4-1.278ZM178.675,0l-.354-1.676h-.086a4.954,4.954,0,0,1-1.756,1.5,5.353,5.353,0,0,1-2.186.392,3.932,3.932,0,0,1-2.745-.9,3.291,3.291,0,0,1-.994-2.567q0-3.566,5.7-3.738l2-.064v-.73a2.985,2.985,0,0,0-.6-2.046,2.452,2.452,0,0,0-1.907-.661,7.769,7.769,0,0,0-3.33.9l-.548-1.364a8.379,8.379,0,0,1,1.907-.741,8.258,8.258,0,0,1,2.079-.269,4.485,4.485,0,0,1,3.121.935,3.9,3.9,0,0,1,1.015,3V0Zm-4.028-1.257a3.619,3.619,0,0,0,2.616-.913,3.378,3.378,0,0,0,.951-2.557V-5.79l-1.783.075a6.486,6.486,0,0,0-3.067.661,1.992,1.992,0,0,0-.94,1.821,1.837,1.837,0,0,0,.585,1.472A2.43,2.43,0,0,0,174.646-1.257Z" transform="translate(684 5622)" fill="#00223d"/>
    <g id="Grupo_7719" data-name="Grupo 7719" transform="translate(380 1929)">
      <circle id="Elipse_496-8" data-name="Elipse 496" cx="15" cy="15" r="15" transform="translate(244 3669)" fill="#00a99a"/>
      <text id="_4-2" data-name="4" transform="translate(259 3691)" fill="#fff" font-size="20" font-family="OpenSans-Bold, Open Sans" font-weight="700"><tspan x="-5.708" y="0">4</tspan></text>
    </g>
  </g>
</svg>
